%TF.GenerationSoftware,KiCad,Pcbnew,9.0.2*%
%TF.CreationDate,2025-06-04T21:18:05+02:00*%
%TF.ProjectId,voicemail-box,766f6963-656d-4616-996c-2d626f782e6b,rev?*%
%TF.SameCoordinates,Original*%
%TF.FileFunction,Paste,Top*%
%TF.FilePolarity,Positive*%
%FSLAX45Y45*%
G04 Gerber Fmt 4.5, Leading zero omitted, Abs format (unit mm)*
G04 Created by KiCad (PCBNEW 9.0.2) date 2025-06-04 21:18:05*
%MOMM*%
%LPD*%
G01*
G04 APERTURE LIST*
G04 Aperture macros list*
%AMRoundRect*
0 Rectangle with rounded corners*
0 $1 Rounding radius*
0 $2 $3 $4 $5 $6 $7 $8 $9 X,Y pos of 4 corners*
0 Add a 4 corners polygon primitive as box body*
4,1,4,$2,$3,$4,$5,$6,$7,$8,$9,$2,$3,0*
0 Add four circle primitives for the rounded corners*
1,1,$1+$1,$2,$3*
1,1,$1+$1,$4,$5*
1,1,$1+$1,$6,$7*
1,1,$1+$1,$8,$9*
0 Add four rect primitives between the rounded corners*
20,1,$1+$1,$2,$3,$4,$5,0*
20,1,$1+$1,$4,$5,$6,$7,0*
20,1,$1+$1,$6,$7,$8,$9,0*
20,1,$1+$1,$8,$9,$2,$3,0*%
G04 Aperture macros list end*
%ADD10C,0.100000*%
%ADD11C,0.150000*%
%ADD12C,0.300000*%
%ADD13C,0.400000*%
%ADD14RoundRect,0.250000X-0.375000X0.375000X-0.375000X-0.375000X0.375000X-0.375000X0.375000X0.375000X0*%
%ADD15RoundRect,0.062500X-0.062500X0.375000X-0.062500X-0.375000X0.062500X-0.375000X0.062500X0.375000X0*%
%ADD16RoundRect,0.062500X-0.375000X0.062500X-0.375000X-0.062500X0.375000X-0.062500X0.375000X0.062500X0*%
%ADD17R,0.228600X0.279400*%
%ADD18RoundRect,0.237500X-0.300000X-0.237500X0.300000X-0.237500X0.300000X0.237500X-0.300000X0.237500X0*%
%ADD19RoundRect,0.237500X0.237500X-0.250000X0.237500X0.250000X-0.237500X0.250000X-0.237500X-0.250000X0*%
%ADD20R,1.000000X0.820000*%
%ADD21RoundRect,0.237500X-0.237500X0.250000X-0.237500X-0.250000X0.237500X-0.250000X0.237500X0.250000X0*%
%ADD22RoundRect,0.237500X-0.237500X0.300000X-0.237500X-0.300000X0.237500X-0.300000X0.237500X0.300000X0*%
%ADD23RoundRect,0.250000X-0.475000X0.337500X-0.475000X-0.337500X0.475000X-0.337500X0.475000X0.337500X0*%
%ADD24RoundRect,0.237500X0.300000X0.237500X-0.300000X0.237500X-0.300000X-0.237500X0.300000X-0.237500X0*%
%ADD25RoundRect,0.237500X0.237500X-0.300000X0.237500X0.300000X-0.237500X0.300000X-0.237500X-0.300000X0*%
%ADD26RoundRect,0.250000X-0.337500X-0.475000X0.337500X-0.475000X0.337500X0.475000X-0.337500X0.475000X0*%
%ADD27RoundRect,0.237500X-0.250000X-0.237500X0.250000X-0.237500X0.250000X0.237500X-0.250000X0.237500X0*%
%ADD28RoundRect,0.237500X0.250000X0.237500X-0.250000X0.237500X-0.250000X-0.237500X0.250000X-0.237500X0*%
%ADD29RoundRect,0.237500X-0.287500X-0.237500X0.287500X-0.237500X0.287500X0.237500X-0.287500X0.237500X0*%
%ADD30R,2.800000X2.200000*%
%ADD31R,2.800000X2.000000*%
%ADD32R,2.800000X2.800000*%
%ADD33R,2.800000X2.600000*%
%ADD34R,0.500000X0.800000*%
%ADD35R,0.400000X0.800000*%
%ADD36RoundRect,0.250000X-0.450000X0.350000X-0.450000X-0.350000X0.450000X-0.350000X0.450000X0.350000X0*%
%ADD37RoundRect,0.250000X-0.350000X-0.450000X0.350000X-0.450000X0.350000X0.450000X-0.350000X0.450000X0*%
%ADD38RoundRect,0.250000X0.350000X0.450000X-0.350000X0.450000X-0.350000X-0.450000X0.350000X-0.450000X0*%
%ADD39RoundRect,0.150000X-0.150000X0.512500X-0.150000X-0.512500X0.150000X-0.512500X0.150000X0.512500X0*%
%ADD40RoundRect,0.102000X-0.373000X-0.323000X0.373000X-0.323000X0.373000X0.323000X-0.373000X0.323000X0*%
%ADD41RoundRect,0.175000X-0.175000X-0.625000X0.175000X-0.625000X0.175000X0.625000X-0.175000X0.625000X0*%
%ADD42RoundRect,0.200000X-0.200000X-0.600000X0.200000X-0.600000X0.200000X0.600000X-0.200000X0.600000X0*%
%ADD43RoundRect,0.225000X-0.225000X-0.575000X0.225000X-0.575000X0.225000X0.575000X-0.225000X0.575000X0*%
%ADD44RoundRect,0.250000X0.450000X-0.350000X0.450000X0.350000X-0.450000X0.350000X-0.450000X-0.350000X0*%
%ADD45RoundRect,0.150000X-0.825000X-0.150000X0.825000X-0.150000X0.825000X0.150000X-0.825000X0.150000X0*%
%ADD46RoundRect,0.150000X-0.512500X-0.150000X0.512500X-0.150000X0.512500X0.150000X-0.512500X0.150000X0*%
%ADD47R,0.900000X1.500000*%
%ADD48R,1.500000X0.900000*%
%ADD49R,1.050000X1.050000*%
%ADD50R,0.279400X0.228600*%
%ADD51RoundRect,0.237500X0.287500X0.237500X-0.287500X0.237500X-0.287500X-0.237500X0.287500X-0.237500X0*%
%ADD52RoundRect,0.250000X-0.455000X-0.455000X0.455000X-0.455000X0.455000X0.455000X-0.455000X0.455000X0*%
%ADD53RoundRect,0.062500X-0.375000X-0.062500X0.375000X-0.062500X0.375000X0.062500X-0.375000X0.062500X0*%
%ADD54RoundRect,0.062500X-0.062500X-0.375000X0.062500X-0.375000X0.062500X0.375000X-0.062500X0.375000X0*%
%ADD55R,1.200000X0.700000*%
%ADD56R,0.800000X1.000000*%
%ADD57R,1.200000X1.000000*%
%ADD58R,2.800000X1.000000*%
%ADD59R,1.900000X1.300000*%
%ADD60RoundRect,0.250000X0.337500X0.475000X-0.337500X0.475000X-0.337500X-0.475000X0.337500X-0.475000X0*%
%ADD61RoundRect,0.150000X-0.625000X-0.150000X0.625000X-0.150000X0.625000X0.150000X-0.625000X0.150000X0*%
%ADD62RoundRect,0.180000X-0.295000X0.180000X-0.295000X-0.180000X0.295000X-0.180000X0.295000X0.180000X0*%
%ADD63RoundRect,0.050000X-0.050000X0.337500X-0.050000X-0.337500X0.050000X-0.337500X0.050000X0.337500X0*%
%TA.AperFunction,Profile*%
%ADD64C,0.150000*%
%TD*%
G04 APERTURE END LIST*
D10*
D11*
X17700220Y-16600720D02*
X28500220Y-16600720D01*
X28500220Y-19800720D01*
X17700220Y-19800720D01*
X17700220Y-16600720D01*
D10*
D11*
X1000000Y-1000000D02*
X28700220Y-1000000D01*
X28700220Y-20000720D01*
X1000000Y-20000720D01*
X1000000Y-1000000D01*
D10*
D11*
X1200000Y-1200000D02*
X28500220Y-1200000D01*
X28500220Y-19800720D01*
X1200000Y-19800720D01*
X1200000Y-1200000D01*
D10*
D11*
X6000000Y-1200000D02*
X6000000Y-1000000D01*
D10*
D11*
X11000000Y-1200000D02*
X11000000Y-1000000D01*
D10*
D11*
X16000000Y-1200000D02*
X16000000Y-1000000D01*
D10*
D11*
X21000000Y-1200000D02*
X21000000Y-1000000D01*
D10*
D11*
X26000000Y-1200000D02*
X26000000Y-1000000D01*
D10*
D11*
X3608916Y-1159360D02*
X3534630Y-1159360D01*
X3571773Y-1159360D02*
X3571773Y-1029360D01*
X3571773Y-1029360D02*
X3559392Y-1047932D01*
X3559392Y-1047932D02*
X3547011Y-1060313D01*
X3547011Y-1060313D02*
X3534630Y-1066503D01*
D10*
D11*
X8534630Y-1041741D02*
X8540821Y-1035551D01*
X8540821Y-1035551D02*
X8553202Y-1029360D01*
X8553202Y-1029360D02*
X8584154Y-1029360D01*
X8584154Y-1029360D02*
X8596535Y-1035551D01*
X8596535Y-1035551D02*
X8602726Y-1041741D01*
X8602726Y-1041741D02*
X8608916Y-1054122D01*
X8608916Y-1054122D02*
X8608916Y-1066503D01*
X8608916Y-1066503D02*
X8602726Y-1085075D01*
X8602726Y-1085075D02*
X8528440Y-1159360D01*
X8528440Y-1159360D02*
X8608916Y-1159360D01*
D10*
D11*
X13528440Y-1029360D02*
X13608916Y-1029360D01*
X13608916Y-1029360D02*
X13565583Y-1078884D01*
X13565583Y-1078884D02*
X13584154Y-1078884D01*
X13584154Y-1078884D02*
X13596535Y-1085075D01*
X13596535Y-1085075D02*
X13602725Y-1091265D01*
X13602725Y-1091265D02*
X13608916Y-1103646D01*
X13608916Y-1103646D02*
X13608916Y-1134599D01*
X13608916Y-1134599D02*
X13602725Y-1146980D01*
X13602725Y-1146980D02*
X13596535Y-1153170D01*
X13596535Y-1153170D02*
X13584154Y-1159360D01*
X13584154Y-1159360D02*
X13547011Y-1159360D01*
X13547011Y-1159360D02*
X13534630Y-1153170D01*
X13534630Y-1153170D02*
X13528440Y-1146980D01*
D10*
D11*
X18596535Y-1072694D02*
X18596535Y-1159360D01*
X18565583Y-1023170D02*
X18534630Y-1116027D01*
X18534630Y-1116027D02*
X18615106Y-1116027D01*
D10*
D11*
X23602725Y-1029360D02*
X23540821Y-1029360D01*
X23540821Y-1029360D02*
X23534630Y-1091265D01*
X23534630Y-1091265D02*
X23540821Y-1085075D01*
X23540821Y-1085075D02*
X23553202Y-1078884D01*
X23553202Y-1078884D02*
X23584154Y-1078884D01*
X23584154Y-1078884D02*
X23596535Y-1085075D01*
X23596535Y-1085075D02*
X23602725Y-1091265D01*
X23602725Y-1091265D02*
X23608916Y-1103646D01*
X23608916Y-1103646D02*
X23608916Y-1134599D01*
X23608916Y-1134599D02*
X23602725Y-1146980D01*
X23602725Y-1146980D02*
X23596535Y-1153170D01*
X23596535Y-1153170D02*
X23584154Y-1159360D01*
X23584154Y-1159360D02*
X23553202Y-1159360D01*
X23553202Y-1159360D02*
X23540821Y-1153170D01*
X23540821Y-1153170D02*
X23534630Y-1146980D01*
D10*
D11*
X28596535Y-1029360D02*
X28571773Y-1029360D01*
X28571773Y-1029360D02*
X28559392Y-1035551D01*
X28559392Y-1035551D02*
X28553202Y-1041741D01*
X28553202Y-1041741D02*
X28540821Y-1060313D01*
X28540821Y-1060313D02*
X28534630Y-1085075D01*
X28534630Y-1085075D02*
X28534630Y-1134599D01*
X28534630Y-1134599D02*
X28540821Y-1146980D01*
X28540821Y-1146980D02*
X28547011Y-1153170D01*
X28547011Y-1153170D02*
X28559392Y-1159360D01*
X28559392Y-1159360D02*
X28584154Y-1159360D01*
X28584154Y-1159360D02*
X28596535Y-1153170D01*
X28596535Y-1153170D02*
X28602725Y-1146980D01*
X28602725Y-1146980D02*
X28608916Y-1134599D01*
X28608916Y-1134599D02*
X28608916Y-1103646D01*
X28608916Y-1103646D02*
X28602725Y-1091265D01*
X28602725Y-1091265D02*
X28596535Y-1085075D01*
X28596535Y-1085075D02*
X28584154Y-1078884D01*
X28584154Y-1078884D02*
X28559392Y-1078884D01*
X28559392Y-1078884D02*
X28547011Y-1085075D01*
X28547011Y-1085075D02*
X28540821Y-1091265D01*
X28540821Y-1091265D02*
X28534630Y-1103646D01*
D10*
D11*
X6000000Y-19800720D02*
X6000000Y-20000720D01*
D10*
D11*
X11000000Y-19800720D02*
X11000000Y-20000720D01*
D10*
D11*
X16000000Y-19800720D02*
X16000000Y-20000720D01*
D10*
D11*
X21000000Y-19800720D02*
X21000000Y-20000720D01*
D10*
D11*
X26000000Y-19800720D02*
X26000000Y-20000720D01*
D10*
D11*
X3608916Y-19960080D02*
X3534630Y-19960080D01*
X3571773Y-19960080D02*
X3571773Y-19830080D01*
X3571773Y-19830080D02*
X3559392Y-19848652D01*
X3559392Y-19848652D02*
X3547011Y-19861033D01*
X3547011Y-19861033D02*
X3534630Y-19867223D01*
D10*
D11*
X8534630Y-19842461D02*
X8540821Y-19836271D01*
X8540821Y-19836271D02*
X8553202Y-19830080D01*
X8553202Y-19830080D02*
X8584154Y-19830080D01*
X8584154Y-19830080D02*
X8596535Y-19836271D01*
X8596535Y-19836271D02*
X8602726Y-19842461D01*
X8602726Y-19842461D02*
X8608916Y-19854842D01*
X8608916Y-19854842D02*
X8608916Y-19867223D01*
X8608916Y-19867223D02*
X8602726Y-19885795D01*
X8602726Y-19885795D02*
X8528440Y-19960080D01*
X8528440Y-19960080D02*
X8608916Y-19960080D01*
D10*
D11*
X13528440Y-19830080D02*
X13608916Y-19830080D01*
X13608916Y-19830080D02*
X13565583Y-19879604D01*
X13565583Y-19879604D02*
X13584154Y-19879604D01*
X13584154Y-19879604D02*
X13596535Y-19885795D01*
X13596535Y-19885795D02*
X13602725Y-19891985D01*
X13602725Y-19891985D02*
X13608916Y-19904366D01*
X13608916Y-19904366D02*
X13608916Y-19935319D01*
X13608916Y-19935319D02*
X13602725Y-19947700D01*
X13602725Y-19947700D02*
X13596535Y-19953890D01*
X13596535Y-19953890D02*
X13584154Y-19960080D01*
X13584154Y-19960080D02*
X13547011Y-19960080D01*
X13547011Y-19960080D02*
X13534630Y-19953890D01*
X13534630Y-19953890D02*
X13528440Y-19947700D01*
D10*
D11*
X18596535Y-19873414D02*
X18596535Y-19960080D01*
X18565583Y-19823890D02*
X18534630Y-19916747D01*
X18534630Y-19916747D02*
X18615106Y-19916747D01*
D10*
D11*
X23602725Y-19830080D02*
X23540821Y-19830080D01*
X23540821Y-19830080D02*
X23534630Y-19891985D01*
X23534630Y-19891985D02*
X23540821Y-19885795D01*
X23540821Y-19885795D02*
X23553202Y-19879604D01*
X23553202Y-19879604D02*
X23584154Y-19879604D01*
X23584154Y-19879604D02*
X23596535Y-19885795D01*
X23596535Y-19885795D02*
X23602725Y-19891985D01*
X23602725Y-19891985D02*
X23608916Y-19904366D01*
X23608916Y-19904366D02*
X23608916Y-19935319D01*
X23608916Y-19935319D02*
X23602725Y-19947700D01*
X23602725Y-19947700D02*
X23596535Y-19953890D01*
X23596535Y-19953890D02*
X23584154Y-19960080D01*
X23584154Y-19960080D02*
X23553202Y-19960080D01*
X23553202Y-19960080D02*
X23540821Y-19953890D01*
X23540821Y-19953890D02*
X23534630Y-19947700D01*
D10*
D11*
X28596535Y-19830080D02*
X28571773Y-19830080D01*
X28571773Y-19830080D02*
X28559392Y-19836271D01*
X28559392Y-19836271D02*
X28553202Y-19842461D01*
X28553202Y-19842461D02*
X28540821Y-19861033D01*
X28540821Y-19861033D02*
X28534630Y-19885795D01*
X28534630Y-19885795D02*
X28534630Y-19935319D01*
X28534630Y-19935319D02*
X28540821Y-19947700D01*
X28540821Y-19947700D02*
X28547011Y-19953890D01*
X28547011Y-19953890D02*
X28559392Y-19960080D01*
X28559392Y-19960080D02*
X28584154Y-19960080D01*
X28584154Y-19960080D02*
X28596535Y-19953890D01*
X28596535Y-19953890D02*
X28602725Y-19947700D01*
X28602725Y-19947700D02*
X28608916Y-19935319D01*
X28608916Y-19935319D02*
X28608916Y-19904366D01*
X28608916Y-19904366D02*
X28602725Y-19891985D01*
X28602725Y-19891985D02*
X28596535Y-19885795D01*
X28596535Y-19885795D02*
X28584154Y-19879604D01*
X28584154Y-19879604D02*
X28559392Y-19879604D01*
X28559392Y-19879604D02*
X28547011Y-19885795D01*
X28547011Y-19885795D02*
X28540821Y-19891985D01*
X28540821Y-19891985D02*
X28534630Y-19904366D01*
D10*
D11*
X1000000Y-6000000D02*
X1200000Y-6000000D01*
D10*
D11*
X1000000Y-11000000D02*
X1200000Y-11000000D01*
D10*
D11*
X1000000Y-16000000D02*
X1200000Y-16000000D01*
D10*
D11*
X1069048Y-3522218D02*
X1130952Y-3522218D01*
X1056667Y-3559360D02*
X1100000Y-3429360D01*
X1100000Y-3429360D02*
X1143333Y-3559360D01*
D10*
D11*
X1109286Y-8491265D02*
X1127857Y-8497456D01*
X1127857Y-8497456D02*
X1134048Y-8503646D01*
X1134048Y-8503646D02*
X1140238Y-8516027D01*
X1140238Y-8516027D02*
X1140238Y-8534599D01*
X1140238Y-8534599D02*
X1134048Y-8546980D01*
X1134048Y-8546980D02*
X1127857Y-8553170D01*
X1127857Y-8553170D02*
X1115476Y-8559360D01*
X1115476Y-8559360D02*
X1065952Y-8559360D01*
X1065952Y-8559360D02*
X1065952Y-8429360D01*
X1065952Y-8429360D02*
X1109286Y-8429360D01*
X1109286Y-8429360D02*
X1121667Y-8435551D01*
X1121667Y-8435551D02*
X1127857Y-8441741D01*
X1127857Y-8441741D02*
X1134048Y-8454122D01*
X1134048Y-8454122D02*
X1134048Y-8466503D01*
X1134048Y-8466503D02*
X1127857Y-8478884D01*
X1127857Y-8478884D02*
X1121667Y-8485075D01*
X1121667Y-8485075D02*
X1109286Y-8491265D01*
X1109286Y-8491265D02*
X1065952Y-8491265D01*
D10*
D11*
X1140238Y-13546979D02*
X1134048Y-13553170D01*
X1134048Y-13553170D02*
X1115476Y-13559360D01*
X1115476Y-13559360D02*
X1103095Y-13559360D01*
X1103095Y-13559360D02*
X1084524Y-13553170D01*
X1084524Y-13553170D02*
X1072143Y-13540789D01*
X1072143Y-13540789D02*
X1065952Y-13528408D01*
X1065952Y-13528408D02*
X1059762Y-13503646D01*
X1059762Y-13503646D02*
X1059762Y-13485075D01*
X1059762Y-13485075D02*
X1065952Y-13460313D01*
X1065952Y-13460313D02*
X1072143Y-13447932D01*
X1072143Y-13447932D02*
X1084524Y-13435551D01*
X1084524Y-13435551D02*
X1103095Y-13429360D01*
X1103095Y-13429360D02*
X1115476Y-13429360D01*
X1115476Y-13429360D02*
X1134048Y-13435551D01*
X1134048Y-13435551D02*
X1140238Y-13441741D01*
D10*
D11*
X1065952Y-18559360D02*
X1065952Y-18429360D01*
X1065952Y-18429360D02*
X1096905Y-18429360D01*
X1096905Y-18429360D02*
X1115476Y-18435551D01*
X1115476Y-18435551D02*
X1127857Y-18447932D01*
X1127857Y-18447932D02*
X1134048Y-18460313D01*
X1134048Y-18460313D02*
X1140238Y-18485075D01*
X1140238Y-18485075D02*
X1140238Y-18503646D01*
X1140238Y-18503646D02*
X1134048Y-18528408D01*
X1134048Y-18528408D02*
X1127857Y-18540789D01*
X1127857Y-18540789D02*
X1115476Y-18553170D01*
X1115476Y-18553170D02*
X1096905Y-18559360D01*
X1096905Y-18559360D02*
X1065952Y-18559360D01*
D10*
D11*
X28700220Y-6000000D02*
X28500220Y-6000000D01*
D10*
D11*
X28700220Y-11000000D02*
X28500220Y-11000000D01*
D10*
D11*
X28700220Y-16000000D02*
X28500220Y-16000000D01*
D10*
D11*
X28569268Y-3522218D02*
X28631172Y-3522218D01*
X28556887Y-3559360D02*
X28600220Y-3429360D01*
X28600220Y-3429360D02*
X28643553Y-3559360D01*
D10*
D11*
X28609506Y-8491265D02*
X28628077Y-8497456D01*
X28628077Y-8497456D02*
X28634268Y-8503646D01*
X28634268Y-8503646D02*
X28640458Y-8516027D01*
X28640458Y-8516027D02*
X28640458Y-8534599D01*
X28640458Y-8534599D02*
X28634268Y-8546980D01*
X28634268Y-8546980D02*
X28628077Y-8553170D01*
X28628077Y-8553170D02*
X28615696Y-8559360D01*
X28615696Y-8559360D02*
X28566172Y-8559360D01*
X28566172Y-8559360D02*
X28566172Y-8429360D01*
X28566172Y-8429360D02*
X28609506Y-8429360D01*
X28609506Y-8429360D02*
X28621887Y-8435551D01*
X28621887Y-8435551D02*
X28628077Y-8441741D01*
X28628077Y-8441741D02*
X28634268Y-8454122D01*
X28634268Y-8454122D02*
X28634268Y-8466503D01*
X28634268Y-8466503D02*
X28628077Y-8478884D01*
X28628077Y-8478884D02*
X28621887Y-8485075D01*
X28621887Y-8485075D02*
X28609506Y-8491265D01*
X28609506Y-8491265D02*
X28566172Y-8491265D01*
D10*
D11*
X28640458Y-13546979D02*
X28634268Y-13553170D01*
X28634268Y-13553170D02*
X28615696Y-13559360D01*
X28615696Y-13559360D02*
X28603315Y-13559360D01*
X28603315Y-13559360D02*
X28584744Y-13553170D01*
X28584744Y-13553170D02*
X28572363Y-13540789D01*
X28572363Y-13540789D02*
X28566172Y-13528408D01*
X28566172Y-13528408D02*
X28559982Y-13503646D01*
X28559982Y-13503646D02*
X28559982Y-13485075D01*
X28559982Y-13485075D02*
X28566172Y-13460313D01*
X28566172Y-13460313D02*
X28572363Y-13447932D01*
X28572363Y-13447932D02*
X28584744Y-13435551D01*
X28584744Y-13435551D02*
X28603315Y-13429360D01*
X28603315Y-13429360D02*
X28615696Y-13429360D01*
X28615696Y-13429360D02*
X28634268Y-13435551D01*
X28634268Y-13435551D02*
X28640458Y-13441741D01*
D10*
D11*
X28566172Y-18559360D02*
X28566172Y-18429360D01*
X28566172Y-18429360D02*
X28597125Y-18429360D01*
X28597125Y-18429360D02*
X28615696Y-18435551D01*
X28615696Y-18435551D02*
X28628077Y-18447932D01*
X28628077Y-18447932D02*
X28634268Y-18460313D01*
X28634268Y-18460313D02*
X28640458Y-18485075D01*
X28640458Y-18485075D02*
X28640458Y-18503646D01*
X28640458Y-18503646D02*
X28634268Y-18528408D01*
X28634268Y-18528408D02*
X28628077Y-18540789D01*
X28628077Y-18540789D02*
X28615696Y-18553170D01*
X28615696Y-18553170D02*
X28597125Y-18559360D01*
X28597125Y-18559360D02*
X28566172Y-18559360D01*
D10*
D11*
X20045803Y-19379333D02*
X20045803Y-19229333D01*
X20045803Y-19229333D02*
X20081517Y-19229333D01*
X20081517Y-19229333D02*
X20102946Y-19236476D01*
X20102946Y-19236476D02*
X20117231Y-19250761D01*
X20117231Y-19250761D02*
X20124374Y-19265047D01*
X20124374Y-19265047D02*
X20131517Y-19293619D01*
X20131517Y-19293619D02*
X20131517Y-19315047D01*
X20131517Y-19315047D02*
X20124374Y-19343619D01*
X20124374Y-19343619D02*
X20117231Y-19357904D01*
X20117231Y-19357904D02*
X20102946Y-19372190D01*
X20102946Y-19372190D02*
X20081517Y-19379333D01*
X20081517Y-19379333D02*
X20045803Y-19379333D01*
X20260088Y-19379333D02*
X20260088Y-19300761D01*
X20260088Y-19300761D02*
X20252946Y-19286476D01*
X20252946Y-19286476D02*
X20238660Y-19279333D01*
X20238660Y-19279333D02*
X20210088Y-19279333D01*
X20210088Y-19279333D02*
X20195803Y-19286476D01*
X20260088Y-19372190D02*
X20245803Y-19379333D01*
X20245803Y-19379333D02*
X20210088Y-19379333D01*
X20210088Y-19379333D02*
X20195803Y-19372190D01*
X20195803Y-19372190D02*
X20188660Y-19357904D01*
X20188660Y-19357904D02*
X20188660Y-19343619D01*
X20188660Y-19343619D02*
X20195803Y-19329333D01*
X20195803Y-19329333D02*
X20210088Y-19322190D01*
X20210088Y-19322190D02*
X20245803Y-19322190D01*
X20245803Y-19322190D02*
X20260088Y-19315047D01*
X20310088Y-19279333D02*
X20367231Y-19279333D01*
X20331517Y-19229333D02*
X20331517Y-19357904D01*
X20331517Y-19357904D02*
X20338660Y-19372190D01*
X20338660Y-19372190D02*
X20352946Y-19379333D01*
X20352946Y-19379333D02*
X20367231Y-19379333D01*
X20474374Y-19372190D02*
X20460088Y-19379333D01*
X20460088Y-19379333D02*
X20431517Y-19379333D01*
X20431517Y-19379333D02*
X20417231Y-19372190D01*
X20417231Y-19372190D02*
X20410088Y-19357904D01*
X20410088Y-19357904D02*
X20410088Y-19300761D01*
X20410088Y-19300761D02*
X20417231Y-19286476D01*
X20417231Y-19286476D02*
X20431517Y-19279333D01*
X20431517Y-19279333D02*
X20460088Y-19279333D01*
X20460088Y-19279333D02*
X20474374Y-19286476D01*
X20474374Y-19286476D02*
X20481517Y-19300761D01*
X20481517Y-19300761D02*
X20481517Y-19315047D01*
X20481517Y-19315047D02*
X20410088Y-19329333D01*
X20545803Y-19365047D02*
X20552946Y-19372190D01*
X20552946Y-19372190D02*
X20545803Y-19379333D01*
X20545803Y-19379333D02*
X20538660Y-19372190D01*
X20538660Y-19372190D02*
X20545803Y-19365047D01*
X20545803Y-19365047D02*
X20545803Y-19379333D01*
X20545803Y-19286476D02*
X20552946Y-19293619D01*
X20552946Y-19293619D02*
X20545803Y-19300761D01*
X20545803Y-19300761D02*
X20538660Y-19293619D01*
X20538660Y-19293619D02*
X20545803Y-19286476D01*
X20545803Y-19286476D02*
X20545803Y-19300761D01*
X20731517Y-19379333D02*
X20731517Y-19279333D01*
X20731517Y-19293619D02*
X20738660Y-19286476D01*
X20738660Y-19286476D02*
X20752946Y-19279333D01*
X20752946Y-19279333D02*
X20774374Y-19279333D01*
X20774374Y-19279333D02*
X20788660Y-19286476D01*
X20788660Y-19286476D02*
X20795803Y-19300761D01*
X20795803Y-19300761D02*
X20795803Y-19379333D01*
X20795803Y-19300761D02*
X20802946Y-19286476D01*
X20802946Y-19286476D02*
X20817231Y-19279333D01*
X20817231Y-19279333D02*
X20838660Y-19279333D01*
X20838660Y-19279333D02*
X20852946Y-19286476D01*
X20852946Y-19286476D02*
X20860088Y-19300761D01*
X20860088Y-19300761D02*
X20860088Y-19379333D01*
X20995803Y-19379333D02*
X20995803Y-19300761D01*
X20995803Y-19300761D02*
X20988660Y-19286476D01*
X20988660Y-19286476D02*
X20974374Y-19279333D01*
X20974374Y-19279333D02*
X20945803Y-19279333D01*
X20945803Y-19279333D02*
X20931517Y-19286476D01*
X20995803Y-19372190D02*
X20981517Y-19379333D01*
X20981517Y-19379333D02*
X20945803Y-19379333D01*
X20945803Y-19379333D02*
X20931517Y-19372190D01*
X20931517Y-19372190D02*
X20924374Y-19357904D01*
X20924374Y-19357904D02*
X20924374Y-19343619D01*
X20924374Y-19343619D02*
X20931517Y-19329333D01*
X20931517Y-19329333D02*
X20945803Y-19322190D01*
X20945803Y-19322190D02*
X20981517Y-19322190D01*
X20981517Y-19322190D02*
X20995803Y-19315047D01*
X21067231Y-19379333D02*
X21067231Y-19279333D01*
X21067231Y-19307904D02*
X21074374Y-19293619D01*
X21074374Y-19293619D02*
X21081517Y-19286476D01*
X21081517Y-19286476D02*
X21095803Y-19279333D01*
X21095803Y-19279333D02*
X21110088Y-19279333D01*
X21160088Y-19365047D02*
X21167231Y-19372190D01*
X21167231Y-19372190D02*
X21160088Y-19379333D01*
X21160088Y-19379333D02*
X21152946Y-19372190D01*
X21152946Y-19372190D02*
X21160088Y-19365047D01*
X21160088Y-19365047D02*
X21160088Y-19379333D01*
X21331517Y-19229333D02*
X21424374Y-19229333D01*
X21424374Y-19229333D02*
X21374374Y-19286476D01*
X21374374Y-19286476D02*
X21395803Y-19286476D01*
X21395803Y-19286476D02*
X21410088Y-19293619D01*
X21410088Y-19293619D02*
X21417231Y-19300761D01*
X21417231Y-19300761D02*
X21424374Y-19315047D01*
X21424374Y-19315047D02*
X21424374Y-19350761D01*
X21424374Y-19350761D02*
X21417231Y-19365047D01*
X21417231Y-19365047D02*
X21410088Y-19372190D01*
X21410088Y-19372190D02*
X21395803Y-19379333D01*
X21395803Y-19379333D02*
X21352946Y-19379333D01*
X21352946Y-19379333D02*
X21338660Y-19372190D01*
X21338660Y-19372190D02*
X21331517Y-19365047D01*
X21567231Y-19379333D02*
X21481517Y-19379333D01*
X21524374Y-19379333D02*
X21524374Y-19229333D01*
X21524374Y-19229333D02*
X21510088Y-19250761D01*
X21510088Y-19250761D02*
X21495803Y-19265047D01*
X21495803Y-19265047D02*
X21481517Y-19272190D01*
X21745803Y-19379333D02*
X21745803Y-19279333D01*
X21745803Y-19293619D02*
X21752945Y-19286476D01*
X21752945Y-19286476D02*
X21767231Y-19279333D01*
X21767231Y-19279333D02*
X21788660Y-19279333D01*
X21788660Y-19279333D02*
X21802945Y-19286476D01*
X21802945Y-19286476D02*
X21810088Y-19300761D01*
X21810088Y-19300761D02*
X21810088Y-19379333D01*
X21810088Y-19300761D02*
X21817231Y-19286476D01*
X21817231Y-19286476D02*
X21831517Y-19279333D01*
X21831517Y-19279333D02*
X21852945Y-19279333D01*
X21852945Y-19279333D02*
X21867231Y-19286476D01*
X21867231Y-19286476D02*
X21874374Y-19300761D01*
X21874374Y-19300761D02*
X21874374Y-19379333D01*
X22010088Y-19379333D02*
X22010088Y-19300761D01*
X22010088Y-19300761D02*
X22002945Y-19286476D01*
X22002945Y-19286476D02*
X21988660Y-19279333D01*
X21988660Y-19279333D02*
X21960088Y-19279333D01*
X21960088Y-19279333D02*
X21945803Y-19286476D01*
X22010088Y-19372190D02*
X21995803Y-19379333D01*
X21995803Y-19379333D02*
X21960088Y-19379333D01*
X21960088Y-19379333D02*
X21945803Y-19372190D01*
X21945803Y-19372190D02*
X21938660Y-19357904D01*
X21938660Y-19357904D02*
X21938660Y-19343619D01*
X21938660Y-19343619D02*
X21945803Y-19329333D01*
X21945803Y-19329333D02*
X21960088Y-19322190D01*
X21960088Y-19322190D02*
X21995803Y-19322190D01*
X21995803Y-19322190D02*
X22010088Y-19315047D01*
X22081517Y-19379333D02*
X22081517Y-19279333D01*
X22081517Y-19307904D02*
X22088660Y-19293619D01*
X22088660Y-19293619D02*
X22095803Y-19286476D01*
X22095803Y-19286476D02*
X22110088Y-19279333D01*
X22110088Y-19279333D02*
X22124374Y-19279333D01*
X22167231Y-19372190D02*
X22181517Y-19379333D01*
X22181517Y-19379333D02*
X22210088Y-19379333D01*
X22210088Y-19379333D02*
X22224374Y-19372190D01*
X22224374Y-19372190D02*
X22231517Y-19357904D01*
X22231517Y-19357904D02*
X22231517Y-19350761D01*
X22231517Y-19350761D02*
X22224374Y-19336476D01*
X22224374Y-19336476D02*
X22210088Y-19329333D01*
X22210088Y-19329333D02*
X22188660Y-19329333D01*
X22188660Y-19329333D02*
X22174374Y-19322190D01*
X22174374Y-19322190D02*
X22167231Y-19307904D01*
X22167231Y-19307904D02*
X22167231Y-19300761D01*
X22167231Y-19300761D02*
X22174374Y-19286476D01*
X22174374Y-19286476D02*
X22188660Y-19279333D01*
X22188660Y-19279333D02*
X22210088Y-19279333D01*
X22210088Y-19279333D02*
X22224374Y-19286476D01*
X22402945Y-19243619D02*
X22410088Y-19236476D01*
X22410088Y-19236476D02*
X22424374Y-19229333D01*
X22424374Y-19229333D02*
X22460088Y-19229333D01*
X22460088Y-19229333D02*
X22474374Y-19236476D01*
X22474374Y-19236476D02*
X22481517Y-19243619D01*
X22481517Y-19243619D02*
X22488660Y-19257904D01*
X22488660Y-19257904D02*
X22488660Y-19272190D01*
X22488660Y-19272190D02*
X22481517Y-19293619D01*
X22481517Y-19293619D02*
X22395802Y-19379333D01*
X22395802Y-19379333D02*
X22488660Y-19379333D01*
X22581517Y-19229333D02*
X22595802Y-19229333D01*
X22595802Y-19229333D02*
X22610088Y-19236476D01*
X22610088Y-19236476D02*
X22617231Y-19243619D01*
X22617231Y-19243619D02*
X22624374Y-19257904D01*
X22624374Y-19257904D02*
X22631517Y-19286476D01*
X22631517Y-19286476D02*
X22631517Y-19322190D01*
X22631517Y-19322190D02*
X22624374Y-19350761D01*
X22624374Y-19350761D02*
X22617231Y-19365047D01*
X22617231Y-19365047D02*
X22610088Y-19372190D01*
X22610088Y-19372190D02*
X22595802Y-19379333D01*
X22595802Y-19379333D02*
X22581517Y-19379333D01*
X22581517Y-19379333D02*
X22567231Y-19372190D01*
X22567231Y-19372190D02*
X22560088Y-19365047D01*
X22560088Y-19365047D02*
X22552945Y-19350761D01*
X22552945Y-19350761D02*
X22545802Y-19322190D01*
X22545802Y-19322190D02*
X22545802Y-19286476D01*
X22545802Y-19286476D02*
X22552945Y-19257904D01*
X22552945Y-19257904D02*
X22560088Y-19243619D01*
X22560088Y-19243619D02*
X22567231Y-19236476D01*
X22567231Y-19236476D02*
X22581517Y-19229333D01*
X22774374Y-19379333D02*
X22688660Y-19379333D01*
X22731517Y-19379333D02*
X22731517Y-19229333D01*
X22731517Y-19229333D02*
X22717231Y-19250761D01*
X22717231Y-19250761D02*
X22702945Y-19265047D01*
X22702945Y-19265047D02*
X22688660Y-19272190D01*
X22910088Y-19229333D02*
X22838659Y-19229333D01*
X22838659Y-19229333D02*
X22831517Y-19300761D01*
X22831517Y-19300761D02*
X22838659Y-19293619D01*
X22838659Y-19293619D02*
X22852945Y-19286476D01*
X22852945Y-19286476D02*
X22888659Y-19286476D01*
X22888659Y-19286476D02*
X22902945Y-19293619D01*
X22902945Y-19293619D02*
X22910088Y-19300761D01*
X22910088Y-19300761D02*
X22917231Y-19315047D01*
X22917231Y-19315047D02*
X22917231Y-19350761D01*
X22917231Y-19350761D02*
X22910088Y-19365047D01*
X22910088Y-19365047D02*
X22902945Y-19372190D01*
X22902945Y-19372190D02*
X22888659Y-19379333D01*
X22888659Y-19379333D02*
X22852945Y-19379333D01*
X22852945Y-19379333D02*
X22838659Y-19372190D01*
X22838659Y-19372190D02*
X22831517Y-19365047D01*
D10*
D11*
X17700220Y-19450720D02*
X28500220Y-19450720D01*
D10*
D11*
X17845803Y-19659333D02*
X17845803Y-19509333D01*
X17931517Y-19659333D02*
X17867231Y-19573619D01*
X17931517Y-19509333D02*
X17845803Y-19595047D01*
X17995803Y-19659333D02*
X17995803Y-19559333D01*
X17995803Y-19509333D02*
X17988660Y-19516476D01*
X17988660Y-19516476D02*
X17995803Y-19523619D01*
X17995803Y-19523619D02*
X18002946Y-19516476D01*
X18002946Y-19516476D02*
X17995803Y-19509333D01*
X17995803Y-19509333D02*
X17995803Y-19523619D01*
X18152946Y-19645047D02*
X18145803Y-19652190D01*
X18145803Y-19652190D02*
X18124374Y-19659333D01*
X18124374Y-19659333D02*
X18110088Y-19659333D01*
X18110088Y-19659333D02*
X18088660Y-19652190D01*
X18088660Y-19652190D02*
X18074374Y-19637904D01*
X18074374Y-19637904D02*
X18067231Y-19623619D01*
X18067231Y-19623619D02*
X18060088Y-19595047D01*
X18060088Y-19595047D02*
X18060088Y-19573619D01*
X18060088Y-19573619D02*
X18067231Y-19545047D01*
X18067231Y-19545047D02*
X18074374Y-19530761D01*
X18074374Y-19530761D02*
X18088660Y-19516476D01*
X18088660Y-19516476D02*
X18110088Y-19509333D01*
X18110088Y-19509333D02*
X18124374Y-19509333D01*
X18124374Y-19509333D02*
X18145803Y-19516476D01*
X18145803Y-19516476D02*
X18152946Y-19523619D01*
X18281517Y-19659333D02*
X18281517Y-19580761D01*
X18281517Y-19580761D02*
X18274374Y-19566476D01*
X18274374Y-19566476D02*
X18260088Y-19559333D01*
X18260088Y-19559333D02*
X18231517Y-19559333D01*
X18231517Y-19559333D02*
X18217231Y-19566476D01*
X18281517Y-19652190D02*
X18267231Y-19659333D01*
X18267231Y-19659333D02*
X18231517Y-19659333D01*
X18231517Y-19659333D02*
X18217231Y-19652190D01*
X18217231Y-19652190D02*
X18210088Y-19637904D01*
X18210088Y-19637904D02*
X18210088Y-19623619D01*
X18210088Y-19623619D02*
X18217231Y-19609333D01*
X18217231Y-19609333D02*
X18231517Y-19602190D01*
X18231517Y-19602190D02*
X18267231Y-19602190D01*
X18267231Y-19602190D02*
X18281517Y-19595047D01*
X18417231Y-19659333D02*
X18417231Y-19509333D01*
X18417231Y-19652190D02*
X18402946Y-19659333D01*
X18402946Y-19659333D02*
X18374374Y-19659333D01*
X18374374Y-19659333D02*
X18360088Y-19652190D01*
X18360088Y-19652190D02*
X18352946Y-19645047D01*
X18352946Y-19645047D02*
X18345803Y-19630761D01*
X18345803Y-19630761D02*
X18345803Y-19587904D01*
X18345803Y-19587904D02*
X18352946Y-19573619D01*
X18352946Y-19573619D02*
X18360088Y-19566476D01*
X18360088Y-19566476D02*
X18374374Y-19559333D01*
X18374374Y-19559333D02*
X18402946Y-19559333D01*
X18402946Y-19559333D02*
X18417231Y-19566476D01*
X18602946Y-19580761D02*
X18652946Y-19580761D01*
X18674374Y-19659333D02*
X18602946Y-19659333D01*
X18602946Y-19659333D02*
X18602946Y-19509333D01*
X18602946Y-19509333D02*
X18674374Y-19509333D01*
X18738660Y-19645047D02*
X18745803Y-19652190D01*
X18745803Y-19652190D02*
X18738660Y-19659333D01*
X18738660Y-19659333D02*
X18731517Y-19652190D01*
X18731517Y-19652190D02*
X18738660Y-19645047D01*
X18738660Y-19645047D02*
X18738660Y-19659333D01*
X18810088Y-19659333D02*
X18810088Y-19509333D01*
X18810088Y-19509333D02*
X18845803Y-19509333D01*
X18845803Y-19509333D02*
X18867231Y-19516476D01*
X18867231Y-19516476D02*
X18881517Y-19530761D01*
X18881517Y-19530761D02*
X18888660Y-19545047D01*
X18888660Y-19545047D02*
X18895803Y-19573619D01*
X18895803Y-19573619D02*
X18895803Y-19595047D01*
X18895803Y-19595047D02*
X18888660Y-19623619D01*
X18888660Y-19623619D02*
X18881517Y-19637904D01*
X18881517Y-19637904D02*
X18867231Y-19652190D01*
X18867231Y-19652190D02*
X18845803Y-19659333D01*
X18845803Y-19659333D02*
X18810088Y-19659333D01*
X18960088Y-19645047D02*
X18967231Y-19652190D01*
X18967231Y-19652190D02*
X18960088Y-19659333D01*
X18960088Y-19659333D02*
X18952946Y-19652190D01*
X18952946Y-19652190D02*
X18960088Y-19645047D01*
X18960088Y-19645047D02*
X18960088Y-19659333D01*
X19024374Y-19616476D02*
X19095803Y-19616476D01*
X19010089Y-19659333D02*
X19060089Y-19509333D01*
X19060089Y-19509333D02*
X19110089Y-19659333D01*
X19160088Y-19645047D02*
X19167231Y-19652190D01*
X19167231Y-19652190D02*
X19160088Y-19659333D01*
X19160088Y-19659333D02*
X19152946Y-19652190D01*
X19152946Y-19652190D02*
X19160088Y-19645047D01*
X19160088Y-19645047D02*
X19160088Y-19659333D01*
X19352946Y-19659333D02*
X19381517Y-19659333D01*
X19381517Y-19659333D02*
X19395803Y-19652190D01*
X19395803Y-19652190D02*
X19402946Y-19645047D01*
X19402946Y-19645047D02*
X19417231Y-19623619D01*
X19417231Y-19623619D02*
X19424374Y-19595047D01*
X19424374Y-19595047D02*
X19424374Y-19537904D01*
X19424374Y-19537904D02*
X19417231Y-19523619D01*
X19417231Y-19523619D02*
X19410089Y-19516476D01*
X19410089Y-19516476D02*
X19395803Y-19509333D01*
X19395803Y-19509333D02*
X19367231Y-19509333D01*
X19367231Y-19509333D02*
X19352946Y-19516476D01*
X19352946Y-19516476D02*
X19345803Y-19523619D01*
X19345803Y-19523619D02*
X19338660Y-19537904D01*
X19338660Y-19537904D02*
X19338660Y-19573619D01*
X19338660Y-19573619D02*
X19345803Y-19587904D01*
X19345803Y-19587904D02*
X19352946Y-19595047D01*
X19352946Y-19595047D02*
X19367231Y-19602190D01*
X19367231Y-19602190D02*
X19395803Y-19602190D01*
X19395803Y-19602190D02*
X19410089Y-19595047D01*
X19410089Y-19595047D02*
X19417231Y-19587904D01*
X19417231Y-19587904D02*
X19424374Y-19573619D01*
X19488660Y-19645047D02*
X19495803Y-19652190D01*
X19495803Y-19652190D02*
X19488660Y-19659333D01*
X19488660Y-19659333D02*
X19481517Y-19652190D01*
X19481517Y-19652190D02*
X19488660Y-19645047D01*
X19488660Y-19645047D02*
X19488660Y-19659333D01*
X19588660Y-19509333D02*
X19602946Y-19509333D01*
X19602946Y-19509333D02*
X19617231Y-19516476D01*
X19617231Y-19516476D02*
X19624374Y-19523619D01*
X19624374Y-19523619D02*
X19631517Y-19537904D01*
X19631517Y-19537904D02*
X19638660Y-19566476D01*
X19638660Y-19566476D02*
X19638660Y-19602190D01*
X19638660Y-19602190D02*
X19631517Y-19630761D01*
X19631517Y-19630761D02*
X19624374Y-19645047D01*
X19624374Y-19645047D02*
X19617231Y-19652190D01*
X19617231Y-19652190D02*
X19602946Y-19659333D01*
X19602946Y-19659333D02*
X19588660Y-19659333D01*
X19588660Y-19659333D02*
X19574374Y-19652190D01*
X19574374Y-19652190D02*
X19567231Y-19645047D01*
X19567231Y-19645047D02*
X19560088Y-19630761D01*
X19560088Y-19630761D02*
X19552946Y-19602190D01*
X19552946Y-19602190D02*
X19552946Y-19566476D01*
X19552946Y-19566476D02*
X19560088Y-19537904D01*
X19560088Y-19537904D02*
X19567231Y-19523619D01*
X19567231Y-19523619D02*
X19574374Y-19516476D01*
X19574374Y-19516476D02*
X19588660Y-19509333D01*
X19702946Y-19645047D02*
X19710088Y-19652190D01*
X19710088Y-19652190D02*
X19702946Y-19659333D01*
X19702946Y-19659333D02*
X19695803Y-19652190D01*
X19695803Y-19652190D02*
X19702946Y-19645047D01*
X19702946Y-19645047D02*
X19702946Y-19659333D01*
X19767231Y-19523619D02*
X19774374Y-19516476D01*
X19774374Y-19516476D02*
X19788660Y-19509333D01*
X19788660Y-19509333D02*
X19824374Y-19509333D01*
X19824374Y-19509333D02*
X19838660Y-19516476D01*
X19838660Y-19516476D02*
X19845803Y-19523619D01*
X19845803Y-19523619D02*
X19852946Y-19537904D01*
X19852946Y-19537904D02*
X19852946Y-19552190D01*
X19852946Y-19552190D02*
X19845803Y-19573619D01*
X19845803Y-19573619D02*
X19760088Y-19659333D01*
X19760088Y-19659333D02*
X19852946Y-19659333D01*
D10*
D11*
X17700220Y-19150720D02*
X28500220Y-19150720D01*
D10*
D12*
X26441385Y-19378553D02*
X26391385Y-19307124D01*
X26355671Y-19378553D02*
X26355671Y-19228553D01*
X26355671Y-19228553D02*
X26412814Y-19228553D01*
X26412814Y-19228553D02*
X26427100Y-19235696D01*
X26427100Y-19235696D02*
X26434242Y-19242839D01*
X26434242Y-19242839D02*
X26441385Y-19257124D01*
X26441385Y-19257124D02*
X26441385Y-19278553D01*
X26441385Y-19278553D02*
X26434242Y-19292839D01*
X26434242Y-19292839D02*
X26427100Y-19299981D01*
X26427100Y-19299981D02*
X26412814Y-19307124D01*
X26412814Y-19307124D02*
X26355671Y-19307124D01*
X26562814Y-19371410D02*
X26548528Y-19378553D01*
X26548528Y-19378553D02*
X26519957Y-19378553D01*
X26519957Y-19378553D02*
X26505671Y-19371410D01*
X26505671Y-19371410D02*
X26498528Y-19357124D01*
X26498528Y-19357124D02*
X26498528Y-19299981D01*
X26498528Y-19299981D02*
X26505671Y-19285696D01*
X26505671Y-19285696D02*
X26519957Y-19278553D01*
X26519957Y-19278553D02*
X26548528Y-19278553D01*
X26548528Y-19278553D02*
X26562814Y-19285696D01*
X26562814Y-19285696D02*
X26569957Y-19299981D01*
X26569957Y-19299981D02*
X26569957Y-19314267D01*
X26569957Y-19314267D02*
X26498528Y-19328553D01*
X26619957Y-19278553D02*
X26655671Y-19378553D01*
X26655671Y-19378553D02*
X26691385Y-19278553D01*
X26748528Y-19364267D02*
X26755671Y-19371410D01*
X26755671Y-19371410D02*
X26748528Y-19378553D01*
X26748528Y-19378553D02*
X26741385Y-19371410D01*
X26741385Y-19371410D02*
X26748528Y-19364267D01*
X26748528Y-19364267D02*
X26748528Y-19378553D01*
X26748528Y-19285696D02*
X26755671Y-19292839D01*
X26755671Y-19292839D02*
X26748528Y-19299981D01*
X26748528Y-19299981D02*
X26741385Y-19292839D01*
X26741385Y-19292839D02*
X26748528Y-19285696D01*
X26748528Y-19285696D02*
X26748528Y-19299981D01*
D10*
D11*
X17838660Y-19372190D02*
X17860088Y-19379333D01*
X17860088Y-19379333D02*
X17895803Y-19379333D01*
X17895803Y-19379333D02*
X17910088Y-19372190D01*
X17910088Y-19372190D02*
X17917231Y-19365047D01*
X17917231Y-19365047D02*
X17924374Y-19350761D01*
X17924374Y-19350761D02*
X17924374Y-19336476D01*
X17924374Y-19336476D02*
X17917231Y-19322190D01*
X17917231Y-19322190D02*
X17910088Y-19315047D01*
X17910088Y-19315047D02*
X17895803Y-19307904D01*
X17895803Y-19307904D02*
X17867231Y-19300761D01*
X17867231Y-19300761D02*
X17852946Y-19293619D01*
X17852946Y-19293619D02*
X17845803Y-19286476D01*
X17845803Y-19286476D02*
X17838660Y-19272190D01*
X17838660Y-19272190D02*
X17838660Y-19257904D01*
X17838660Y-19257904D02*
X17845803Y-19243619D01*
X17845803Y-19243619D02*
X17852946Y-19236476D01*
X17852946Y-19236476D02*
X17867231Y-19229333D01*
X17867231Y-19229333D02*
X17902946Y-19229333D01*
X17902946Y-19229333D02*
X17924374Y-19236476D01*
X17988660Y-19379333D02*
X17988660Y-19279333D01*
X17988660Y-19229333D02*
X17981517Y-19236476D01*
X17981517Y-19236476D02*
X17988660Y-19243619D01*
X17988660Y-19243619D02*
X17995803Y-19236476D01*
X17995803Y-19236476D02*
X17988660Y-19229333D01*
X17988660Y-19229333D02*
X17988660Y-19243619D01*
X18045803Y-19279333D02*
X18124374Y-19279333D01*
X18124374Y-19279333D02*
X18045803Y-19379333D01*
X18045803Y-19379333D02*
X18124374Y-19379333D01*
X18238660Y-19372190D02*
X18224374Y-19379333D01*
X18224374Y-19379333D02*
X18195803Y-19379333D01*
X18195803Y-19379333D02*
X18181517Y-19372190D01*
X18181517Y-19372190D02*
X18174374Y-19357904D01*
X18174374Y-19357904D02*
X18174374Y-19300761D01*
X18174374Y-19300761D02*
X18181517Y-19286476D01*
X18181517Y-19286476D02*
X18195803Y-19279333D01*
X18195803Y-19279333D02*
X18224374Y-19279333D01*
X18224374Y-19279333D02*
X18238660Y-19286476D01*
X18238660Y-19286476D02*
X18245803Y-19300761D01*
X18245803Y-19300761D02*
X18245803Y-19315047D01*
X18245803Y-19315047D02*
X18174374Y-19329333D01*
X18310088Y-19365047D02*
X18317231Y-19372190D01*
X18317231Y-19372190D02*
X18310088Y-19379333D01*
X18310088Y-19379333D02*
X18302946Y-19372190D01*
X18302946Y-19372190D02*
X18310088Y-19365047D01*
X18310088Y-19365047D02*
X18310088Y-19379333D01*
X18310088Y-19286476D02*
X18317231Y-19293619D01*
X18317231Y-19293619D02*
X18310088Y-19300761D01*
X18310088Y-19300761D02*
X18302946Y-19293619D01*
X18302946Y-19293619D02*
X18310088Y-19286476D01*
X18310088Y-19286476D02*
X18310088Y-19300761D01*
X18488660Y-19336476D02*
X18560088Y-19336476D01*
X18474374Y-19379333D02*
X18524374Y-19229333D01*
X18524374Y-19229333D02*
X18574374Y-19379333D01*
X18688660Y-19279333D02*
X18688660Y-19379333D01*
X18652946Y-19222190D02*
X18617231Y-19329333D01*
X18617231Y-19329333D02*
X18710088Y-19329333D01*
D10*
D11*
X26345803Y-19659333D02*
X26345803Y-19509333D01*
X26481517Y-19659333D02*
X26481517Y-19509333D01*
X26481517Y-19652190D02*
X26467231Y-19659333D01*
X26467231Y-19659333D02*
X26438660Y-19659333D01*
X26438660Y-19659333D02*
X26424374Y-19652190D01*
X26424374Y-19652190D02*
X26417231Y-19645047D01*
X26417231Y-19645047D02*
X26410088Y-19630761D01*
X26410088Y-19630761D02*
X26410088Y-19587904D01*
X26410088Y-19587904D02*
X26417231Y-19573619D01*
X26417231Y-19573619D02*
X26424374Y-19566476D01*
X26424374Y-19566476D02*
X26438660Y-19559333D01*
X26438660Y-19559333D02*
X26467231Y-19559333D01*
X26467231Y-19559333D02*
X26481517Y-19566476D01*
X26552945Y-19645047D02*
X26560088Y-19652190D01*
X26560088Y-19652190D02*
X26552945Y-19659333D01*
X26552945Y-19659333D02*
X26545803Y-19652190D01*
X26545803Y-19652190D02*
X26552945Y-19645047D01*
X26552945Y-19645047D02*
X26552945Y-19659333D01*
X26552945Y-19566476D02*
X26560088Y-19573619D01*
X26560088Y-19573619D02*
X26552945Y-19580761D01*
X26552945Y-19580761D02*
X26545803Y-19573619D01*
X26545803Y-19573619D02*
X26552945Y-19566476D01*
X26552945Y-19566476D02*
X26552945Y-19580761D01*
X26810088Y-19509333D02*
X26738660Y-19509333D01*
X26738660Y-19509333D02*
X26731517Y-19580761D01*
X26731517Y-19580761D02*
X26738660Y-19573619D01*
X26738660Y-19573619D02*
X26752946Y-19566476D01*
X26752946Y-19566476D02*
X26788660Y-19566476D01*
X26788660Y-19566476D02*
X26802946Y-19573619D01*
X26802946Y-19573619D02*
X26810088Y-19580761D01*
X26810088Y-19580761D02*
X26817231Y-19595047D01*
X26817231Y-19595047D02*
X26817231Y-19630761D01*
X26817231Y-19630761D02*
X26810088Y-19645047D01*
X26810088Y-19645047D02*
X26802946Y-19652190D01*
X26802946Y-19652190D02*
X26788660Y-19659333D01*
X26788660Y-19659333D02*
X26752946Y-19659333D01*
X26752946Y-19659333D02*
X26738660Y-19652190D01*
X26738660Y-19652190D02*
X26731517Y-19645047D01*
X26988660Y-19502190D02*
X26860088Y-19695047D01*
X27045803Y-19659333D02*
X27074374Y-19659333D01*
X27074374Y-19659333D02*
X27088660Y-19652190D01*
X27088660Y-19652190D02*
X27095803Y-19645047D01*
X27095803Y-19645047D02*
X27110088Y-19623619D01*
X27110088Y-19623619D02*
X27117231Y-19595047D01*
X27117231Y-19595047D02*
X27117231Y-19537904D01*
X27117231Y-19537904D02*
X27110088Y-19523619D01*
X27110088Y-19523619D02*
X27102946Y-19516476D01*
X27102946Y-19516476D02*
X27088660Y-19509333D01*
X27088660Y-19509333D02*
X27060088Y-19509333D01*
X27060088Y-19509333D02*
X27045803Y-19516476D01*
X27045803Y-19516476D02*
X27038660Y-19523619D01*
X27038660Y-19523619D02*
X27031517Y-19537904D01*
X27031517Y-19537904D02*
X27031517Y-19573619D01*
X27031517Y-19573619D02*
X27038660Y-19587904D01*
X27038660Y-19587904D02*
X27045803Y-19595047D01*
X27045803Y-19595047D02*
X27060088Y-19602190D01*
X27060088Y-19602190D02*
X27088660Y-19602190D01*
X27088660Y-19602190D02*
X27102946Y-19595047D01*
X27102946Y-19595047D02*
X27110088Y-19587904D01*
X27110088Y-19587904D02*
X27117231Y-19573619D01*
D10*
D11*
X17700220Y-18750720D02*
X28500220Y-18750720D01*
D10*
D13*
X17869393Y-18821164D02*
X17983679Y-18821164D01*
X17901536Y-19021164D02*
X17926536Y-18821164D01*
X18025345Y-19021164D02*
X18042012Y-18887830D01*
X18050345Y-18821164D02*
X18039631Y-18830688D01*
X18039631Y-18830688D02*
X18047964Y-18840211D01*
X18047964Y-18840211D02*
X18058679Y-18830688D01*
X18058679Y-18830688D02*
X18050345Y-18821164D01*
X18050345Y-18821164D02*
X18047964Y-18840211D01*
X18108679Y-18887830D02*
X18184869Y-18887830D01*
X18145583Y-18821164D02*
X18124155Y-18992592D01*
X18124155Y-18992592D02*
X18131298Y-19011640D01*
X18131298Y-19011640D02*
X18149155Y-19021164D01*
X18149155Y-19021164D02*
X18168202Y-19021164D01*
X18263441Y-19021164D02*
X18245583Y-19011640D01*
X18245583Y-19011640D02*
X18238441Y-18992592D01*
X18238441Y-18992592D02*
X18259869Y-18821164D01*
X18417012Y-19011640D02*
X18396774Y-19021164D01*
X18396774Y-19021164D02*
X18358679Y-19021164D01*
X18358679Y-19021164D02*
X18340821Y-19011640D01*
X18340821Y-19011640D02*
X18333679Y-18992592D01*
X18333679Y-18992592D02*
X18343202Y-18916402D01*
X18343202Y-18916402D02*
X18355107Y-18897354D01*
X18355107Y-18897354D02*
X18375345Y-18887830D01*
X18375345Y-18887830D02*
X18413440Y-18887830D01*
X18413440Y-18887830D02*
X18431298Y-18897354D01*
X18431298Y-18897354D02*
X18438440Y-18916402D01*
X18438440Y-18916402D02*
X18436060Y-18935450D01*
X18436060Y-18935450D02*
X18338440Y-18954497D01*
X18513441Y-19002116D02*
X18521774Y-19011640D01*
X18521774Y-19011640D02*
X18511060Y-19021164D01*
X18511060Y-19021164D02*
X18502726Y-19011640D01*
X18502726Y-19011640D02*
X18513441Y-19002116D01*
X18513441Y-19002116D02*
X18511060Y-19021164D01*
X18526536Y-18897354D02*
X18534869Y-18906878D01*
X18534869Y-18906878D02*
X18524155Y-18916402D01*
X18524155Y-18916402D02*
X18515821Y-18906878D01*
X18515821Y-18906878D02*
X18526536Y-18897354D01*
X18526536Y-18897354D02*
X18524155Y-18916402D01*
D10*
D11*
X17895803Y-18560761D02*
X17845803Y-18560761D01*
X17845803Y-18639333D02*
X17845803Y-18489333D01*
X17845803Y-18489333D02*
X17917231Y-18489333D01*
X17974374Y-18639333D02*
X17974374Y-18539333D01*
X17974374Y-18489333D02*
X17967231Y-18496476D01*
X17967231Y-18496476D02*
X17974374Y-18503619D01*
X17974374Y-18503619D02*
X17981517Y-18496476D01*
X17981517Y-18496476D02*
X17974374Y-18489333D01*
X17974374Y-18489333D02*
X17974374Y-18503619D01*
X18067231Y-18639333D02*
X18052946Y-18632190D01*
X18052946Y-18632190D02*
X18045803Y-18617904D01*
X18045803Y-18617904D02*
X18045803Y-18489333D01*
X18181517Y-18632190D02*
X18167231Y-18639333D01*
X18167231Y-18639333D02*
X18138660Y-18639333D01*
X18138660Y-18639333D02*
X18124374Y-18632190D01*
X18124374Y-18632190D02*
X18117231Y-18617904D01*
X18117231Y-18617904D02*
X18117231Y-18560761D01*
X18117231Y-18560761D02*
X18124374Y-18546476D01*
X18124374Y-18546476D02*
X18138660Y-18539333D01*
X18138660Y-18539333D02*
X18167231Y-18539333D01*
X18167231Y-18539333D02*
X18181517Y-18546476D01*
X18181517Y-18546476D02*
X18188660Y-18560761D01*
X18188660Y-18560761D02*
X18188660Y-18575047D01*
X18188660Y-18575047D02*
X18117231Y-18589333D01*
X18252945Y-18625047D02*
X18260088Y-18632190D01*
X18260088Y-18632190D02*
X18252945Y-18639333D01*
X18252945Y-18639333D02*
X18245803Y-18632190D01*
X18245803Y-18632190D02*
X18252945Y-18625047D01*
X18252945Y-18625047D02*
X18252945Y-18639333D01*
X18252945Y-18546476D02*
X18260088Y-18553619D01*
X18260088Y-18553619D02*
X18252945Y-18560761D01*
X18252945Y-18560761D02*
X18245803Y-18553619D01*
X18245803Y-18553619D02*
X18252945Y-18546476D01*
X18252945Y-18546476D02*
X18252945Y-18560761D01*
X18424374Y-18539333D02*
X18460088Y-18639333D01*
X18460088Y-18639333D02*
X18495803Y-18539333D01*
X18574374Y-18639333D02*
X18560088Y-18632190D01*
X18560088Y-18632190D02*
X18552945Y-18625047D01*
X18552945Y-18625047D02*
X18545803Y-18610761D01*
X18545803Y-18610761D02*
X18545803Y-18567904D01*
X18545803Y-18567904D02*
X18552945Y-18553619D01*
X18552945Y-18553619D02*
X18560088Y-18546476D01*
X18560088Y-18546476D02*
X18574374Y-18539333D01*
X18574374Y-18539333D02*
X18595803Y-18539333D01*
X18595803Y-18539333D02*
X18610088Y-18546476D01*
X18610088Y-18546476D02*
X18617231Y-18553619D01*
X18617231Y-18553619D02*
X18624374Y-18567904D01*
X18624374Y-18567904D02*
X18624374Y-18610761D01*
X18624374Y-18610761D02*
X18617231Y-18625047D01*
X18617231Y-18625047D02*
X18610088Y-18632190D01*
X18610088Y-18632190D02*
X18595803Y-18639333D01*
X18595803Y-18639333D02*
X18574374Y-18639333D01*
X18688660Y-18639333D02*
X18688660Y-18539333D01*
X18688660Y-18489333D02*
X18681517Y-18496476D01*
X18681517Y-18496476D02*
X18688660Y-18503619D01*
X18688660Y-18503619D02*
X18695803Y-18496476D01*
X18695803Y-18496476D02*
X18688660Y-18489333D01*
X18688660Y-18489333D02*
X18688660Y-18503619D01*
X18824374Y-18632190D02*
X18810088Y-18639333D01*
X18810088Y-18639333D02*
X18781517Y-18639333D01*
X18781517Y-18639333D02*
X18767231Y-18632190D01*
X18767231Y-18632190D02*
X18760088Y-18625047D01*
X18760088Y-18625047D02*
X18752946Y-18610761D01*
X18752946Y-18610761D02*
X18752946Y-18567904D01*
X18752946Y-18567904D02*
X18760088Y-18553619D01*
X18760088Y-18553619D02*
X18767231Y-18546476D01*
X18767231Y-18546476D02*
X18781517Y-18539333D01*
X18781517Y-18539333D02*
X18810088Y-18539333D01*
X18810088Y-18539333D02*
X18824374Y-18546476D01*
X18945803Y-18632190D02*
X18931517Y-18639333D01*
X18931517Y-18639333D02*
X18902946Y-18639333D01*
X18902946Y-18639333D02*
X18888660Y-18632190D01*
X18888660Y-18632190D02*
X18881517Y-18617904D01*
X18881517Y-18617904D02*
X18881517Y-18560761D01*
X18881517Y-18560761D02*
X18888660Y-18546476D01*
X18888660Y-18546476D02*
X18902946Y-18539333D01*
X18902946Y-18539333D02*
X18931517Y-18539333D01*
X18931517Y-18539333D02*
X18945803Y-18546476D01*
X18945803Y-18546476D02*
X18952946Y-18560761D01*
X18952946Y-18560761D02*
X18952946Y-18575047D01*
X18952946Y-18575047D02*
X18881517Y-18589333D01*
X19017231Y-18639333D02*
X19017231Y-18539333D01*
X19017231Y-18553619D02*
X19024374Y-18546476D01*
X19024374Y-18546476D02*
X19038660Y-18539333D01*
X19038660Y-18539333D02*
X19060088Y-18539333D01*
X19060088Y-18539333D02*
X19074374Y-18546476D01*
X19074374Y-18546476D02*
X19081517Y-18560761D01*
X19081517Y-18560761D02*
X19081517Y-18639333D01*
X19081517Y-18560761D02*
X19088660Y-18546476D01*
X19088660Y-18546476D02*
X19102945Y-18539333D01*
X19102945Y-18539333D02*
X19124374Y-18539333D01*
X19124374Y-18539333D02*
X19138660Y-18546476D01*
X19138660Y-18546476D02*
X19145803Y-18560761D01*
X19145803Y-18560761D02*
X19145803Y-18639333D01*
X19281517Y-18639333D02*
X19281517Y-18560761D01*
X19281517Y-18560761D02*
X19274374Y-18546476D01*
X19274374Y-18546476D02*
X19260088Y-18539333D01*
X19260088Y-18539333D02*
X19231517Y-18539333D01*
X19231517Y-18539333D02*
X19217231Y-18546476D01*
X19281517Y-18632190D02*
X19267231Y-18639333D01*
X19267231Y-18639333D02*
X19231517Y-18639333D01*
X19231517Y-18639333D02*
X19217231Y-18632190D01*
X19217231Y-18632190D02*
X19210088Y-18617904D01*
X19210088Y-18617904D02*
X19210088Y-18603619D01*
X19210088Y-18603619D02*
X19217231Y-18589333D01*
X19217231Y-18589333D02*
X19231517Y-18582190D01*
X19231517Y-18582190D02*
X19267231Y-18582190D01*
X19267231Y-18582190D02*
X19281517Y-18575047D01*
X19352945Y-18639333D02*
X19352945Y-18539333D01*
X19352945Y-18489333D02*
X19345803Y-18496476D01*
X19345803Y-18496476D02*
X19352945Y-18503619D01*
X19352945Y-18503619D02*
X19360088Y-18496476D01*
X19360088Y-18496476D02*
X19352945Y-18489333D01*
X19352945Y-18489333D02*
X19352945Y-18503619D01*
X19445803Y-18639333D02*
X19431517Y-18632190D01*
X19431517Y-18632190D02*
X19424374Y-18617904D01*
X19424374Y-18617904D02*
X19424374Y-18489333D01*
X19502945Y-18582190D02*
X19617231Y-18582190D01*
X19688660Y-18639333D02*
X19688660Y-18489333D01*
X19688660Y-18546476D02*
X19702946Y-18539333D01*
X19702946Y-18539333D02*
X19731517Y-18539333D01*
X19731517Y-18539333D02*
X19745803Y-18546476D01*
X19745803Y-18546476D02*
X19752946Y-18553619D01*
X19752946Y-18553619D02*
X19760088Y-18567904D01*
X19760088Y-18567904D02*
X19760088Y-18610761D01*
X19760088Y-18610761D02*
X19752946Y-18625047D01*
X19752946Y-18625047D02*
X19745803Y-18632190D01*
X19745803Y-18632190D02*
X19731517Y-18639333D01*
X19731517Y-18639333D02*
X19702946Y-18639333D01*
X19702946Y-18639333D02*
X19688660Y-18632190D01*
X19845803Y-18639333D02*
X19831517Y-18632190D01*
X19831517Y-18632190D02*
X19824374Y-18625047D01*
X19824374Y-18625047D02*
X19817231Y-18610761D01*
X19817231Y-18610761D02*
X19817231Y-18567904D01*
X19817231Y-18567904D02*
X19824374Y-18553619D01*
X19824374Y-18553619D02*
X19831517Y-18546476D01*
X19831517Y-18546476D02*
X19845803Y-18539333D01*
X19845803Y-18539333D02*
X19867231Y-18539333D01*
X19867231Y-18539333D02*
X19881517Y-18546476D01*
X19881517Y-18546476D02*
X19888660Y-18553619D01*
X19888660Y-18553619D02*
X19895803Y-18567904D01*
X19895803Y-18567904D02*
X19895803Y-18610761D01*
X19895803Y-18610761D02*
X19888660Y-18625047D01*
X19888660Y-18625047D02*
X19881517Y-18632190D01*
X19881517Y-18632190D02*
X19867231Y-18639333D01*
X19867231Y-18639333D02*
X19845803Y-18639333D01*
X19945803Y-18639333D02*
X20024374Y-18539333D01*
X19945803Y-18539333D02*
X20024374Y-18639333D01*
X20081517Y-18625047D02*
X20088660Y-18632190D01*
X20088660Y-18632190D02*
X20081517Y-18639333D01*
X20081517Y-18639333D02*
X20074374Y-18632190D01*
X20074374Y-18632190D02*
X20081517Y-18625047D01*
X20081517Y-18625047D02*
X20081517Y-18639333D01*
X20152946Y-18639333D02*
X20152946Y-18489333D01*
X20167231Y-18582190D02*
X20210088Y-18639333D01*
X20210088Y-18539333D02*
X20152946Y-18596476D01*
X20274374Y-18639333D02*
X20274374Y-18539333D01*
X20274374Y-18489333D02*
X20267231Y-18496476D01*
X20267231Y-18496476D02*
X20274374Y-18503619D01*
X20274374Y-18503619D02*
X20281517Y-18496476D01*
X20281517Y-18496476D02*
X20274374Y-18489333D01*
X20274374Y-18489333D02*
X20274374Y-18503619D01*
X20410089Y-18632190D02*
X20395803Y-18639333D01*
X20395803Y-18639333D02*
X20367231Y-18639333D01*
X20367231Y-18639333D02*
X20352946Y-18632190D01*
X20352946Y-18632190D02*
X20345803Y-18625047D01*
X20345803Y-18625047D02*
X20338660Y-18610761D01*
X20338660Y-18610761D02*
X20338660Y-18567904D01*
X20338660Y-18567904D02*
X20345803Y-18553619D01*
X20345803Y-18553619D02*
X20352946Y-18546476D01*
X20352946Y-18546476D02*
X20367231Y-18539333D01*
X20367231Y-18539333D02*
X20395803Y-18539333D01*
X20395803Y-18539333D02*
X20410089Y-18546476D01*
X20538660Y-18639333D02*
X20538660Y-18560761D01*
X20538660Y-18560761D02*
X20531517Y-18546476D01*
X20531517Y-18546476D02*
X20517231Y-18539333D01*
X20517231Y-18539333D02*
X20488660Y-18539333D01*
X20488660Y-18539333D02*
X20474374Y-18546476D01*
X20538660Y-18632190D02*
X20524374Y-18639333D01*
X20524374Y-18639333D02*
X20488660Y-18639333D01*
X20488660Y-18639333D02*
X20474374Y-18632190D01*
X20474374Y-18632190D02*
X20467231Y-18617904D01*
X20467231Y-18617904D02*
X20467231Y-18603619D01*
X20467231Y-18603619D02*
X20474374Y-18589333D01*
X20474374Y-18589333D02*
X20488660Y-18582190D01*
X20488660Y-18582190D02*
X20524374Y-18582190D01*
X20524374Y-18582190D02*
X20538660Y-18575047D01*
X20674374Y-18639333D02*
X20674374Y-18489333D01*
X20674374Y-18632190D02*
X20660088Y-18639333D01*
X20660088Y-18639333D02*
X20631517Y-18639333D01*
X20631517Y-18639333D02*
X20617231Y-18632190D01*
X20617231Y-18632190D02*
X20610088Y-18625047D01*
X20610088Y-18625047D02*
X20602946Y-18610761D01*
X20602946Y-18610761D02*
X20602946Y-18567904D01*
X20602946Y-18567904D02*
X20610088Y-18553619D01*
X20610088Y-18553619D02*
X20617231Y-18546476D01*
X20617231Y-18546476D02*
X20631517Y-18539333D01*
X20631517Y-18539333D02*
X20660088Y-18539333D01*
X20660088Y-18539333D02*
X20674374Y-18546476D01*
X20710089Y-18653619D02*
X20824374Y-18653619D01*
X20860088Y-18539333D02*
X20860088Y-18689333D01*
X20860088Y-18546476D02*
X20874374Y-18539333D01*
X20874374Y-18539333D02*
X20902946Y-18539333D01*
X20902946Y-18539333D02*
X20917231Y-18546476D01*
X20917231Y-18546476D02*
X20924374Y-18553619D01*
X20924374Y-18553619D02*
X20931517Y-18567904D01*
X20931517Y-18567904D02*
X20931517Y-18610761D01*
X20931517Y-18610761D02*
X20924374Y-18625047D01*
X20924374Y-18625047D02*
X20917231Y-18632190D01*
X20917231Y-18632190D02*
X20902946Y-18639333D01*
X20902946Y-18639333D02*
X20874374Y-18639333D01*
X20874374Y-18639333D02*
X20860088Y-18632190D01*
X21060089Y-18632190D02*
X21045803Y-18639333D01*
X21045803Y-18639333D02*
X21017231Y-18639333D01*
X21017231Y-18639333D02*
X21002946Y-18632190D01*
X21002946Y-18632190D02*
X20995803Y-18625047D01*
X20995803Y-18625047D02*
X20988660Y-18610761D01*
X20988660Y-18610761D02*
X20988660Y-18567904D01*
X20988660Y-18567904D02*
X20995803Y-18553619D01*
X20995803Y-18553619D02*
X21002946Y-18546476D01*
X21002946Y-18546476D02*
X21017231Y-18539333D01*
X21017231Y-18539333D02*
X21045803Y-18539333D01*
X21045803Y-18539333D02*
X21060089Y-18546476D01*
X21124374Y-18639333D02*
X21124374Y-18489333D01*
X21124374Y-18546476D02*
X21138660Y-18539333D01*
X21138660Y-18539333D02*
X21167231Y-18539333D01*
X21167231Y-18539333D02*
X21181517Y-18546476D01*
X21181517Y-18546476D02*
X21188660Y-18553619D01*
X21188660Y-18553619D02*
X21195803Y-18567904D01*
X21195803Y-18567904D02*
X21195803Y-18610761D01*
X21195803Y-18610761D02*
X21188660Y-18625047D01*
X21188660Y-18625047D02*
X21181517Y-18632190D01*
X21181517Y-18632190D02*
X21167231Y-18639333D01*
X21167231Y-18639333D02*
X21138660Y-18639333D01*
X21138660Y-18639333D02*
X21124374Y-18632190D01*
D10*
D11*
X17700220Y-18150720D02*
X28500220Y-18150720D01*
D10*
D11*
X17838660Y-18362190D02*
X17860088Y-18369333D01*
X17860088Y-18369333D02*
X17895803Y-18369333D01*
X17895803Y-18369333D02*
X17910088Y-18362190D01*
X17910088Y-18362190D02*
X17917231Y-18355047D01*
X17917231Y-18355047D02*
X17924374Y-18340761D01*
X17924374Y-18340761D02*
X17924374Y-18326476D01*
X17924374Y-18326476D02*
X17917231Y-18312190D01*
X17917231Y-18312190D02*
X17910088Y-18305047D01*
X17910088Y-18305047D02*
X17895803Y-18297904D01*
X17895803Y-18297904D02*
X17867231Y-18290761D01*
X17867231Y-18290761D02*
X17852946Y-18283619D01*
X17852946Y-18283619D02*
X17845803Y-18276476D01*
X17845803Y-18276476D02*
X17838660Y-18262190D01*
X17838660Y-18262190D02*
X17838660Y-18247904D01*
X17838660Y-18247904D02*
X17845803Y-18233619D01*
X17845803Y-18233619D02*
X17852946Y-18226476D01*
X17852946Y-18226476D02*
X17867231Y-18219333D01*
X17867231Y-18219333D02*
X17902946Y-18219333D01*
X17902946Y-18219333D02*
X17924374Y-18226476D01*
X17988660Y-18369333D02*
X17988660Y-18219333D01*
X18052946Y-18369333D02*
X18052946Y-18290761D01*
X18052946Y-18290761D02*
X18045803Y-18276476D01*
X18045803Y-18276476D02*
X18031517Y-18269333D01*
X18031517Y-18269333D02*
X18010088Y-18269333D01*
X18010088Y-18269333D02*
X17995803Y-18276476D01*
X17995803Y-18276476D02*
X17988660Y-18283619D01*
X18181517Y-18362190D02*
X18167231Y-18369333D01*
X18167231Y-18369333D02*
X18138660Y-18369333D01*
X18138660Y-18369333D02*
X18124374Y-18362190D01*
X18124374Y-18362190D02*
X18117231Y-18347904D01*
X18117231Y-18347904D02*
X18117231Y-18290761D01*
X18117231Y-18290761D02*
X18124374Y-18276476D01*
X18124374Y-18276476D02*
X18138660Y-18269333D01*
X18138660Y-18269333D02*
X18167231Y-18269333D01*
X18167231Y-18269333D02*
X18181517Y-18276476D01*
X18181517Y-18276476D02*
X18188660Y-18290761D01*
X18188660Y-18290761D02*
X18188660Y-18305047D01*
X18188660Y-18305047D02*
X18117231Y-18319333D01*
X18310088Y-18362190D02*
X18295803Y-18369333D01*
X18295803Y-18369333D02*
X18267231Y-18369333D01*
X18267231Y-18369333D02*
X18252945Y-18362190D01*
X18252945Y-18362190D02*
X18245803Y-18347904D01*
X18245803Y-18347904D02*
X18245803Y-18290761D01*
X18245803Y-18290761D02*
X18252945Y-18276476D01*
X18252945Y-18276476D02*
X18267231Y-18269333D01*
X18267231Y-18269333D02*
X18295803Y-18269333D01*
X18295803Y-18269333D02*
X18310088Y-18276476D01*
X18310088Y-18276476D02*
X18317231Y-18290761D01*
X18317231Y-18290761D02*
X18317231Y-18305047D01*
X18317231Y-18305047D02*
X18245803Y-18319333D01*
X18360088Y-18269333D02*
X18417231Y-18269333D01*
X18381517Y-18219333D02*
X18381517Y-18347904D01*
X18381517Y-18347904D02*
X18388660Y-18362190D01*
X18388660Y-18362190D02*
X18402945Y-18369333D01*
X18402945Y-18369333D02*
X18417231Y-18369333D01*
X18467231Y-18355047D02*
X18474374Y-18362190D01*
X18474374Y-18362190D02*
X18467231Y-18369333D01*
X18467231Y-18369333D02*
X18460088Y-18362190D01*
X18460088Y-18362190D02*
X18467231Y-18355047D01*
X18467231Y-18355047D02*
X18467231Y-18369333D01*
X18467231Y-18276476D02*
X18474374Y-18283619D01*
X18474374Y-18283619D02*
X18467231Y-18290761D01*
X18467231Y-18290761D02*
X18460088Y-18283619D01*
X18460088Y-18283619D02*
X18467231Y-18276476D01*
X18467231Y-18276476D02*
X18467231Y-18290761D01*
D10*
D11*
X19700220Y-19150720D02*
X19700220Y-19450720D01*
D10*
D11*
X26100220Y-19150720D02*
X26100220Y-19800720D01*
D14*
%TO.C,U601*%
X15720000Y-10475000D03*
X15565000Y-10475000D03*
X15720000Y-10630000D03*
X15565000Y-10630000D03*
D15*
X15817500Y-10308750D03*
X15767500Y-10308750D03*
X15717500Y-10308750D03*
X15667500Y-10308750D03*
X15617500Y-10308750D03*
X15567500Y-10308750D03*
X15517500Y-10308750D03*
X15467500Y-10308750D03*
D16*
X15398750Y-10377500D03*
X15398750Y-10427500D03*
X15398750Y-10477500D03*
X15398750Y-10527500D03*
X15398750Y-10577500D03*
X15398750Y-10627500D03*
X15398750Y-10677500D03*
X15398750Y-10727500D03*
D15*
X15467500Y-10796250D03*
X15517500Y-10796250D03*
X15567500Y-10796250D03*
X15617500Y-10796250D03*
X15667500Y-10796250D03*
X15717500Y-10796250D03*
X15767500Y-10796250D03*
X15817500Y-10796250D03*
D16*
X15886250Y-10727500D03*
X15886250Y-10677500D03*
X15886250Y-10627500D03*
X15886250Y-10577500D03*
X15886250Y-10527500D03*
X15886250Y-10477500D03*
X15886250Y-10427500D03*
X15886250Y-10377500D03*
%TD*%
D17*
%TO.C,U505*%
X21730000Y-6025600D03*
X21770000Y-6025600D03*
X21770000Y-5987500D03*
X21730000Y-5987500D03*
%TD*%
D18*
%TO.C,C522*%
X21837250Y-5615000D03*
X22009750Y-5615000D03*
%TD*%
D17*
%TO.C,U504*%
X21511000Y-5799400D03*
X21471000Y-5799400D03*
X21471000Y-5837500D03*
X21511000Y-5837500D03*
%TD*%
D18*
%TO.C,C608*%
X15203750Y-10940000D03*
X15376250Y-10940000D03*
%TD*%
D19*
%TO.C,R103*%
X9345000Y-12126250D03*
X9345000Y-11943750D03*
%TD*%
D18*
%TO.C,C510*%
X22112250Y-4407500D03*
X22284750Y-4407500D03*
%TD*%
D20*
%TO.C,LED804*%
X9560000Y-10350625D03*
X9560000Y-10190625D03*
%TD*%
D21*
%TO.C,R601*%
X14850000Y-11808750D03*
X14850000Y-11991250D03*
%TD*%
D22*
%TO.C,C602*%
X15556000Y-9980750D03*
X15556000Y-10153250D03*
%TD*%
D19*
%TO.C,R102*%
X6610000Y-8036250D03*
X6610000Y-7853750D03*
%TD*%
D23*
%TO.C,C808*%
X11880000Y-12986250D03*
X11880000Y-13193750D03*
%TD*%
D18*
%TO.C,C814*%
X12153750Y-11110000D03*
X12326250Y-11110000D03*
%TD*%
D24*
%TO.C,C805*%
X12556250Y-13000000D03*
X12383750Y-13000000D03*
%TD*%
D22*
%TO.C,C512*%
X22013500Y-5131250D03*
X22013500Y-5303750D03*
%TD*%
D25*
%TO.C,C521*%
X21341000Y-5646250D03*
X21341000Y-5473750D03*
%TD*%
D26*
%TO.C,C401*%
X5190000Y-9465000D03*
X5397500Y-9465000D03*
%TD*%
D27*
%TO.C,R811*%
X11278750Y-10970000D03*
X11461250Y-10970000D03*
%TD*%
%TO.C,R608*%
X14848750Y-12148750D03*
X15031250Y-12148750D03*
%TD*%
D18*
%TO.C,C618*%
X17163750Y-11956825D03*
X17336250Y-11956825D03*
%TD*%
D19*
%TO.C,R106*%
X9400000Y-8591250D03*
X9400000Y-8408750D03*
%TD*%
D28*
%TO.C,R805*%
X10071250Y-11990000D03*
X9888750Y-11990000D03*
%TD*%
D29*
%TO.C,L701*%
X12385000Y-13150000D03*
X12560000Y-13150000D03*
%TD*%
D30*
%TO.C,J605*%
X13980000Y-13560000D03*
D31*
X13980000Y-13840000D03*
D30*
X14720000Y-13750000D03*
D32*
X14720000Y-12810000D03*
D33*
X14275000Y-12410000D03*
%TD*%
D29*
%TO.C,L502*%
X21498500Y-5462500D03*
X21673500Y-5462500D03*
%TD*%
D34*
%TO.C,RN402*%
X8320000Y-8630000D03*
D35*
X8400000Y-8630000D03*
X8480000Y-8630000D03*
D34*
X8560000Y-8630000D03*
X8560000Y-8450000D03*
D35*
X8480000Y-8450000D03*
X8400000Y-8450000D03*
D34*
X8320000Y-8450000D03*
%TD*%
D36*
%TO.C,R503*%
X21416000Y-6157500D03*
X21416000Y-6357500D03*
%TD*%
D21*
%TO.C,R801*%
X9560000Y-10609375D03*
X9560000Y-10791875D03*
%TD*%
D18*
%TO.C,C811*%
X10993750Y-11360000D03*
X11166250Y-11360000D03*
%TD*%
D37*
%TO.C,R505*%
X22071000Y-6545000D03*
X22271000Y-6545000D03*
%TD*%
D24*
%TO.C,C506*%
X21092250Y-4915000D03*
X20919750Y-4915000D03*
%TD*%
%TO.C,C534*%
X22287250Y-4562500D03*
X22114750Y-4562500D03*
%TD*%
D25*
%TO.C,C621*%
X16730000Y-13036250D03*
X16730000Y-12863750D03*
%TD*%
D18*
%TO.C,C523*%
X21499750Y-5615000D03*
X21672250Y-5615000D03*
%TD*%
D25*
%TO.C,C528*%
X22258500Y-6325000D03*
X22258500Y-6152500D03*
%TD*%
D38*
%TO.C,R501*%
X22436000Y-4890000D03*
X22236000Y-4890000D03*
%TD*%
D21*
%TO.C,R604*%
X17000000Y-11935575D03*
X17000000Y-12118075D03*
%TD*%
D22*
%TO.C,C612*%
X15000000Y-11813750D03*
X15000000Y-11986250D03*
%TD*%
D21*
%TO.C,R612*%
X13340000Y-12212500D03*
X13340000Y-12395000D03*
%TD*%
D17*
%TO.C,U506*%
X22036000Y-5797500D03*
X21996000Y-5797500D03*
X21996000Y-5835600D03*
X22036000Y-5835600D03*
%TD*%
D39*
%TO.C,D502*%
X21836000Y-6357500D03*
X21646000Y-6357500D03*
X21741000Y-6585000D03*
%TD*%
D21*
%TO.C,R611*%
X15590000Y-10978750D03*
X15590000Y-11161250D03*
%TD*%
D18*
%TO.C,C619*%
X17163750Y-12116825D03*
X17336250Y-12116825D03*
%TD*%
%TO.C,C511*%
X22112250Y-4252500D03*
X22284750Y-4252500D03*
%TD*%
D25*
%TO.C,C504*%
X21261000Y-4523750D03*
X21261000Y-4351250D03*
%TD*%
D27*
%TO.C,R813*%
X13018750Y-10960000D03*
X13201250Y-10960000D03*
%TD*%
D25*
%TO.C,C533*%
X22258500Y-5987500D03*
X22258500Y-5815000D03*
%TD*%
D40*
%TO.C,Y501*%
X20943500Y-4760000D03*
X21088500Y-4760000D03*
X21088500Y-4645000D03*
X20943500Y-4645000D03*
%TD*%
D22*
%TO.C,C807*%
X11700000Y-12983750D03*
X11700000Y-13156250D03*
%TD*%
D41*
%TO.C,J701*%
X12090000Y-13542000D03*
D42*
X12292000Y-13542000D03*
D43*
X12415000Y-13542000D03*
D41*
X12190000Y-13542000D03*
D42*
X11988000Y-13542000D03*
D43*
X11865000Y-13542000D03*
%TD*%
D27*
%TO.C,R808*%
X10988750Y-11610000D03*
X11171250Y-11610000D03*
%TD*%
D24*
%TO.C,C617*%
X16386250Y-12116825D03*
X16213750Y-12116825D03*
%TD*%
D44*
%TO.C,R301*%
X4480000Y-14020000D03*
X4480000Y-13820000D03*
%TD*%
D21*
%TO.C,R802*%
X9930000Y-10608750D03*
X9930000Y-10791250D03*
%TD*%
D22*
%TO.C,C615*%
X15152000Y-11814750D03*
X15152000Y-11987250D03*
%TD*%
%TO.C,C520*%
X22168500Y-5467500D03*
X22168500Y-5640000D03*
%TD*%
D18*
%TO.C,C815*%
X13023750Y-11110000D03*
X13196250Y-11110000D03*
%TD*%
D25*
%TO.C,C502*%
X20763500Y-4753750D03*
X20763500Y-4581250D03*
%TD*%
D24*
%TO.C,C508*%
X21092250Y-5075000D03*
X20919750Y-5075000D03*
%TD*%
D18*
%TO.C,C609*%
X15203750Y-11090000D03*
X15376250Y-11090000D03*
%TD*%
D45*
%TO.C,U801*%
X10282500Y-11359000D03*
X10282500Y-11486000D03*
X10282500Y-11613000D03*
X10282500Y-11740000D03*
X10282500Y-11867000D03*
X10282500Y-11994000D03*
X10282500Y-12121000D03*
X10777500Y-12121000D03*
X10777500Y-11994000D03*
X10777500Y-11867000D03*
X10777500Y-11740000D03*
X10777500Y-11613000D03*
X10777500Y-11486000D03*
X10777500Y-11359000D03*
%TD*%
D21*
%TO.C,R602*%
X14330000Y-11808750D03*
X14330000Y-11991250D03*
%TD*%
D27*
%TO.C,R814*%
X10408750Y-10960000D03*
X10591250Y-10960000D03*
%TD*%
D19*
%TO.C,R702*%
X12060000Y-13181250D03*
X12060000Y-12998750D03*
%TD*%
D22*
%TO.C,C809*%
X12380000Y-11723750D03*
X12380000Y-11896250D03*
%TD*%
D21*
%TO.C,R605*%
X16850000Y-11935575D03*
X16850000Y-12118075D03*
%TD*%
D18*
%TO.C,C526*%
X21667250Y-5767500D03*
X21839750Y-5767500D03*
%TD*%
D24*
%TO.C,C620*%
X14326250Y-11530000D03*
X14153750Y-11530000D03*
%TD*%
D38*
%TO.C,R303*%
X5535000Y-11210000D03*
X5335000Y-11210000D03*
%TD*%
D34*
%TO.C,RN401*%
X7700599Y-3469750D03*
D35*
X7780599Y-3469750D03*
X7860599Y-3469750D03*
D34*
X7940599Y-3469750D03*
X7940599Y-3289750D03*
D35*
X7860599Y-3289750D03*
X7780599Y-3289750D03*
D34*
X7700599Y-3289750D03*
%TD*%
D24*
%TO.C,C501*%
X21089750Y-4470000D03*
X20917250Y-4470000D03*
%TD*%
D22*
%TO.C,C514*%
X21493500Y-5136250D03*
X21493500Y-5308750D03*
%TD*%
%TO.C,C601*%
X15401000Y-9980750D03*
X15401000Y-10153250D03*
%TD*%
D30*
%TO.C,J602*%
X15120000Y-13560000D03*
D31*
X15120000Y-13840000D03*
D30*
X15860000Y-13750000D03*
D32*
X15860000Y-12810000D03*
D33*
X15415000Y-12410000D03*
%TD*%
D18*
%TO.C,C524*%
X21399750Y-5991050D03*
X21572250Y-5991050D03*
%TD*%
D44*
%TO.C,R506*%
X8800000Y-3500000D03*
X8800000Y-3300000D03*
%TD*%
D22*
%TO.C,C614*%
X14030000Y-11813750D03*
X14030000Y-11986250D03*
%TD*%
D24*
%TO.C,C516*%
X21092250Y-5240000D03*
X20919750Y-5240000D03*
%TD*%
D46*
%TO.C,U702*%
X11980000Y-11720000D03*
X11980000Y-11815000D03*
X11980000Y-11910000D03*
X12207500Y-11910000D03*
X12207500Y-11720000D03*
%TD*%
D23*
%TO.C,C806*%
X12740000Y-12996250D03*
X12740000Y-13203750D03*
%TD*%
D24*
%TO.C,C603*%
X16216250Y-10040000D03*
X16043750Y-10040000D03*
%TD*%
D21*
%TO.C,R610*%
X15740000Y-10978750D03*
X15740000Y-11161250D03*
%TD*%
D28*
%TO.C,R609*%
X14331250Y-12150000D03*
X14148750Y-12150000D03*
%TD*%
D25*
%TO.C,C605*%
X15900000Y-11126250D03*
X15900000Y-10953750D03*
%TD*%
D19*
%TO.C,R101*%
X6870000Y-8036250D03*
X6870000Y-7853750D03*
%TD*%
D25*
%TO.C,C519*%
X20604000Y-5245250D03*
X20604000Y-5072750D03*
%TD*%
%TO.C,C606*%
X16050000Y-11126250D03*
X16050000Y-10953750D03*
%TD*%
%TO.C,C622*%
X16880000Y-13036250D03*
X16880000Y-12863750D03*
%TD*%
%TO.C,C503*%
X21433500Y-4333750D03*
X21433500Y-4161250D03*
%TD*%
D39*
%TO.C,Q501*%
X22708500Y-5343750D03*
X22518500Y-5343750D03*
X22613500Y-5571250D03*
%TD*%
D20*
%TO.C,LED801*%
X9930000Y-10350000D03*
X9930000Y-10190000D03*
%TD*%
D25*
%TO.C,C509*%
X20451000Y-5246250D03*
X20451000Y-5073750D03*
%TD*%
D47*
%TO.C,U301*%
X4136500Y-13615000D03*
X4263500Y-13615000D03*
X4390500Y-13615000D03*
X4517500Y-13615000D03*
X4644500Y-13615000D03*
X4771500Y-13615000D03*
X4898500Y-13615000D03*
X5025500Y-13615000D03*
X5152500Y-13615000D03*
X5279500Y-13615000D03*
X5406500Y-13615000D03*
X5533500Y-13615000D03*
X5660500Y-13615000D03*
X5787500Y-13615000D03*
D48*
X5912500Y-13311000D03*
X5912500Y-13184000D03*
X5912500Y-13057000D03*
X5912500Y-12930000D03*
X5912500Y-12803000D03*
X5912500Y-12676000D03*
X5912500Y-12549000D03*
X5912500Y-12422000D03*
X5912500Y-12295000D03*
X5912500Y-12168000D03*
D47*
X5787500Y-11865000D03*
X5660500Y-11865000D03*
X5533500Y-11865000D03*
X5406500Y-11865000D03*
X5279500Y-11865000D03*
X5152500Y-11865000D03*
X5025500Y-11865000D03*
X4898500Y-11865000D03*
X4771500Y-11865000D03*
X4644500Y-11865000D03*
X4517500Y-11865000D03*
X4390500Y-11865000D03*
X4263500Y-11865000D03*
X4136500Y-11865000D03*
D49*
X4718000Y-12960500D03*
X4870500Y-12960500D03*
X5023000Y-12960500D03*
X4718000Y-12808000D03*
X4870500Y-12808000D03*
X5023000Y-12808000D03*
X4718000Y-12655500D03*
X4870500Y-12655500D03*
X5023000Y-12655500D03*
%TD*%
D50*
%TO.C,U503*%
X22358500Y-5582500D03*
X22358500Y-5542500D03*
X22320400Y-5542500D03*
X22320400Y-5582500D03*
%TD*%
D26*
%TO.C,C302*%
X8857350Y-10450388D03*
X9064850Y-10450388D03*
%TD*%
D18*
%TO.C,C813*%
X11283750Y-11120000D03*
X11456250Y-11120000D03*
%TD*%
D26*
%TO.C,C610*%
X15556250Y-11560000D03*
X15763750Y-11560000D03*
%TD*%
D24*
%TO.C,C616*%
X16386250Y-11956825D03*
X16213750Y-11956825D03*
%TD*%
D50*
%TO.C,U502*%
X21190050Y-5582500D03*
X21190050Y-5542500D03*
X21151950Y-5542500D03*
X21151950Y-5582500D03*
%TD*%
D26*
%TO.C,C611*%
X15552500Y-11350000D03*
X15760000Y-11350000D03*
%TD*%
D25*
%TO.C,C505*%
X22446000Y-4708750D03*
X22446000Y-4536250D03*
%TD*%
%TO.C,C518*%
X20757000Y-5246750D03*
X20757000Y-5074250D03*
%TD*%
D27*
%TO.C,R809*%
X9888750Y-11610000D03*
X10071250Y-11610000D03*
%TD*%
D51*
%TO.C,L501*%
X22011000Y-5462500D03*
X21836000Y-5462500D03*
%TD*%
D52*
%TO.C,U501*%
X21585500Y-4646000D03*
X21585500Y-4821000D03*
X21760500Y-4646000D03*
X21760500Y-4821000D03*
D53*
X21429250Y-4558500D03*
X21429250Y-4608500D03*
X21429250Y-4658500D03*
X21429250Y-4708500D03*
X21429250Y-4758500D03*
X21429250Y-4808500D03*
X21429250Y-4858500D03*
X21429250Y-4908500D03*
D54*
X21498000Y-4977250D03*
X21548000Y-4977250D03*
X21598000Y-4977250D03*
X21648000Y-4977250D03*
X21698000Y-4977250D03*
X21748000Y-4977250D03*
X21798000Y-4977250D03*
X21848000Y-4977250D03*
D53*
X21916750Y-4908500D03*
X21916750Y-4858500D03*
X21916750Y-4808500D03*
X21916750Y-4758500D03*
X21916750Y-4708500D03*
X21916750Y-4658500D03*
X21916750Y-4608500D03*
X21916750Y-4558500D03*
D54*
X21848000Y-4489750D03*
X21798000Y-4489750D03*
X21748000Y-4489750D03*
X21698000Y-4489750D03*
X21648000Y-4489750D03*
X21598000Y-4489750D03*
X21548000Y-4489750D03*
X21498000Y-4489750D03*
%TD*%
D55*
%TO.C,J401*%
X4989599Y-9794250D03*
X4989599Y-9684250D03*
X4989599Y-9574250D03*
X4989599Y-9464250D03*
X4989599Y-9354250D03*
X4989599Y-9244250D03*
X4989599Y-9134250D03*
X4989599Y-9024250D03*
X4989599Y-8929250D03*
D56*
X3939599Y-8834250D03*
D57*
X4559599Y-8834250D03*
D58*
X3524599Y-8834250D03*
D57*
X4989599Y-9949250D03*
D59*
X3479599Y-10184250D03*
%TD*%
D28*
%TO.C,R603*%
X16221250Y-10340000D03*
X16038750Y-10340000D03*
%TD*%
D60*
%TO.C,C301*%
X4283750Y-13830000D03*
X4076250Y-13830000D03*
%TD*%
D24*
%TO.C,C507*%
X20754750Y-4915000D03*
X20582250Y-4915000D03*
%TD*%
%TO.C,C532*%
X22287250Y-4715000D03*
X22114750Y-4715000D03*
%TD*%
D27*
%TO.C,R806*%
X10988750Y-12120000D03*
X11171250Y-12120000D03*
%TD*%
D25*
%TO.C,C607*%
X16200000Y-11126250D03*
X16200000Y-10953750D03*
%TD*%
D44*
%TO.C,R302*%
X5726000Y-11600000D03*
X5726000Y-11400000D03*
%TD*%
D22*
%TO.C,C517*%
X20996000Y-5416250D03*
X20996000Y-5588750D03*
%TD*%
D19*
%TO.C,R107*%
X9660000Y-8591250D03*
X9660000Y-8408750D03*
%TD*%
D18*
%TO.C,C810*%
X12383750Y-13300000D03*
X12556250Y-13300000D03*
%TD*%
D24*
%TO.C,C525*%
X22098750Y-5991550D03*
X21926250Y-5991550D03*
%TD*%
D36*
%TO.C,R504*%
X22081000Y-6157500D03*
X22081000Y-6357500D03*
%TD*%
D22*
%TO.C,C515*%
X21341000Y-5136250D03*
X21341000Y-5308750D03*
%TD*%
%TO.C,C613*%
X14180000Y-11813750D03*
X14180000Y-11986250D03*
%TD*%
D37*
%TO.C,R507*%
X5190000Y-8830000D03*
X5390000Y-8830000D03*
%TD*%
D61*
%TO.C,SW601*%
X15412500Y-11749500D03*
X15412500Y-11876500D03*
X15412500Y-12003500D03*
X15412500Y-12130500D03*
X15947500Y-12130500D03*
X15947500Y-12003500D03*
X15947500Y-11876500D03*
X15947500Y-11749500D03*
%TD*%
D19*
%TO.C,R701*%
X12220000Y-13181250D03*
X12220000Y-12998750D03*
%TD*%
D27*
%TO.C,R810*%
X9888750Y-11360000D03*
X10071250Y-11360000D03*
%TD*%
%TO.C,R812*%
X12148750Y-10960000D03*
X12331250Y-10960000D03*
%TD*%
D25*
%TO.C,C531*%
X21241000Y-5985000D03*
X21241000Y-5812500D03*
%TD*%
D21*
%TO.C,R607*%
X16700000Y-11935575D03*
X16700000Y-12118075D03*
%TD*%
D24*
%TO.C,C604*%
X16216250Y-10190000D03*
X16043750Y-10190000D03*
%TD*%
D21*
%TO.C,R606*%
X16550000Y-11935575D03*
X16550000Y-12118075D03*
%TD*%
D37*
%TO.C,R502*%
X22178500Y-5147500D03*
X22378500Y-5147500D03*
%TD*%
D22*
%TO.C,C527*%
X21241000Y-6150000D03*
X21241000Y-6322500D03*
%TD*%
D62*
%TO.C,U602*%
X16869000Y-12443000D03*
X16751000Y-12443000D03*
X16869000Y-12532000D03*
X16751000Y-12532000D03*
D63*
X16930000Y-12338750D03*
X16890000Y-12338750D03*
X16850000Y-12338750D03*
X16810000Y-12338750D03*
X16770000Y-12338750D03*
X16730000Y-12338750D03*
X16690000Y-12338750D03*
X16690000Y-12636250D03*
X16730000Y-12636250D03*
X16770000Y-12636250D03*
X16810000Y-12636250D03*
X16850000Y-12636250D03*
X16890000Y-12636250D03*
X16930000Y-12636250D03*
%TD*%
D18*
%TO.C,C812*%
X10413750Y-11110000D03*
X10586250Y-11110000D03*
%TD*%
D22*
%TO.C,C513*%
X20840000Y-5417250D03*
X20840000Y-5589750D03*
%TD*%
D27*
%TO.C,R807*%
X10987500Y-11870000D03*
X11170000Y-11870000D03*
%TD*%
D64*
X17880000Y-13060000D02*
G75*
G02*
X18180000Y-13060000I150000J0D01*
G01*
X18180000Y-2860000D02*
X18180000Y-1710000D01*
X17880000Y-9870000D02*
G75*
G02*
X18180000Y-9870000I150000J0D01*
G01*
X3330000Y-1710000D02*
X17880000Y-1710000D01*
X17880000Y-8275000D02*
G75*
G02*
X18180000Y-8275000I150000J0D01*
G01*
X18180000Y-2860000D02*
G75*
G02*
X17880000Y-2860000I-150000J0D01*
G01*
X17880000Y-7830000D02*
X17880000Y-6680000D01*
X18180000Y-14210000D02*
X24330000Y-14210000D01*
X18180000Y-9425000D02*
G75*
G02*
X17880000Y-9425000I-150000J0D01*
G01*
X18180000Y-6235000D02*
G75*
G02*
X17880000Y-6235000I-150000J0D01*
G01*
X17880000Y-9425000D02*
X17880000Y-8275000D01*
X17880000Y-6235000D02*
X17880000Y-5085000D01*
X17880000Y-2860000D02*
X17880000Y-1710000D01*
X18180000Y-12615000D02*
X18180000Y-11465000D01*
X17880000Y-11465000D02*
G75*
G02*
X18180000Y-11465000I150000J0D01*
G01*
X17880000Y-6680000D02*
G75*
G02*
X18180000Y-6680000I150000J0D01*
G01*
X18180000Y-6235000D02*
X18180000Y-5085000D01*
X17880000Y-11020000D02*
X17880000Y-9870000D01*
X18180000Y-13060000D02*
X18180000Y-14210000D01*
X18180000Y-7830000D02*
G75*
G02*
X17880000Y-7830000I-150000J0D01*
G01*
X18180000Y-9425000D02*
X18180000Y-8275000D01*
X3330000Y-14210000D02*
X3330000Y-1710000D01*
X17880000Y-5085000D02*
G75*
G02*
X18180000Y-5085000I150000J0D01*
G01*
X17880000Y-12615000D02*
X17880000Y-11465000D01*
X3330000Y-14210000D02*
X17880000Y-14210000D01*
X24330000Y-14210000D02*
X24330000Y-1710000D01*
X18180000Y-11020000D02*
X18180000Y-9870000D01*
X17880000Y-13060000D02*
X17880000Y-14210000D01*
X18180000Y-11020000D02*
G75*
G02*
X17880000Y-11020000I-150000J0D01*
G01*
X18180000Y-7830000D02*
X18180000Y-6680000D01*
X18180000Y-1710000D02*
X24330000Y-1710000D01*
X18180000Y-12615000D02*
G75*
G02*
X17880000Y-12615000I-150000J0D01*
G01*
M02*
