%TF.GenerationSoftware,KiCad,Pcbnew,9.0.2*%
%TF.CreationDate,2025-05-30T11:40:43+02:00*%
%TF.ProjectId,voicemail-box,766f6963-656d-4616-996c-2d626f782e6b,rev?*%
%TF.SameCoordinates,PX5f5e100PY5f5e100*%
%TF.FileFunction,Paste,Top*%
%TF.FilePolarity,Positive*%
%FSLAX45Y45*%
G04 Gerber Fmt 4.5, Leading zero omitted, Abs format (unit mm)*
G04 Created by KiCad (PCBNEW 9.0.2) date 2025-05-30 11:40:43*
%MOMM*%
%LPD*%
G01*
G04 APERTURE LIST*
G04 Aperture macros list*
%AMRoundRect*
0 Rectangle with rounded corners*
0 $1 Rounding radius*
0 $2 $3 $4 $5 $6 $7 $8 $9 X,Y pos of 4 corners*
0 Add a 4 corners polygon primitive as box body*
4,1,4,$2,$3,$4,$5,$6,$7,$8,$9,$2,$3,0*
0 Add four circle primitives for the rounded corners*
1,1,$1+$1,$2,$3*
1,1,$1+$1,$4,$5*
1,1,$1+$1,$6,$7*
1,1,$1+$1,$8,$9*
0 Add four rect primitives between the rounded corners*
20,1,$1+$1,$2,$3,$4,$5,0*
20,1,$1+$1,$4,$5,$6,$7,0*
20,1,$1+$1,$6,$7,$8,$9,0*
20,1,$1+$1,$8,$9,$2,$3,0*%
G04 Aperture macros list end*
%ADD10C,0.100000*%
%ADD11C,0.150000*%
%ADD12C,0.300000*%
%ADD13C,0.400000*%
%ADD14R,0.228600X0.279400*%
%ADD15RoundRect,0.237500X-0.300000X-0.237500X0.300000X-0.237500X0.300000X0.237500X-0.300000X0.237500X0*%
%ADD16RoundRect,0.237500X0.237500X-0.250000X0.237500X0.250000X-0.237500X0.250000X-0.237500X-0.250000X0*%
%ADD17R,1.000000X0.820000*%
%ADD18RoundRect,0.237500X-0.237500X0.250000X-0.237500X-0.250000X0.237500X-0.250000X0.237500X0.250000X0*%
%ADD19RoundRect,0.237500X-0.237500X0.300000X-0.237500X-0.300000X0.237500X-0.300000X0.237500X0.300000X0*%
%ADD20RoundRect,0.250000X-0.475000X0.337500X-0.475000X-0.337500X0.475000X-0.337500X0.475000X0.337500X0*%
%ADD21RoundRect,0.237500X0.300000X0.237500X-0.300000X0.237500X-0.300000X-0.237500X0.300000X-0.237500X0*%
%ADD22RoundRect,0.237500X0.237500X-0.300000X0.237500X0.300000X-0.237500X0.300000X-0.237500X-0.300000X0*%
%ADD23RoundRect,0.250000X-0.337500X-0.475000X0.337500X-0.475000X0.337500X0.475000X-0.337500X0.475000X0*%
%ADD24RoundRect,0.237500X-0.250000X-0.237500X0.250000X-0.237500X0.250000X0.237500X-0.250000X0.237500X0*%
%ADD25RoundRect,0.237500X0.250000X0.237500X-0.250000X0.237500X-0.250000X-0.237500X0.250000X-0.237500X0*%
%ADD26RoundRect,0.237500X-0.287500X-0.237500X0.287500X-0.237500X0.287500X0.237500X-0.287500X0.237500X0*%
%ADD27R,2.800000X2.200000*%
%ADD28R,2.800000X2.000000*%
%ADD29R,2.800000X2.800000*%
%ADD30R,2.800000X2.600000*%
%ADD31R,0.500000X0.800000*%
%ADD32R,0.400000X0.800000*%
%ADD33RoundRect,0.250000X-0.450000X0.350000X-0.450000X-0.350000X0.450000X-0.350000X0.450000X0.350000X0*%
%ADD34RoundRect,0.250000X-0.350000X-0.450000X0.350000X-0.450000X0.350000X0.450000X-0.350000X0.450000X0*%
%ADD35RoundRect,0.250000X0.350000X0.450000X-0.350000X0.450000X-0.350000X-0.450000X0.350000X-0.450000X0*%
%ADD36RoundRect,0.150000X-0.150000X0.512500X-0.150000X-0.512500X0.150000X-0.512500X0.150000X0.512500X0*%
%ADD37RoundRect,0.250000X-0.375000X0.375000X-0.375000X-0.375000X0.375000X-0.375000X0.375000X0.375000X0*%
%ADD38RoundRect,0.062500X-0.062500X0.375000X-0.062500X-0.375000X0.062500X-0.375000X0.062500X0.375000X0*%
%ADD39RoundRect,0.062500X-0.375000X0.062500X-0.375000X-0.062500X0.375000X-0.062500X0.375000X0.062500X0*%
%ADD40RoundRect,0.102000X-0.373000X-0.323000X0.373000X-0.323000X0.373000X0.323000X-0.373000X0.323000X0*%
%ADD41RoundRect,0.175000X-0.175000X-0.625000X0.175000X-0.625000X0.175000X0.625000X-0.175000X0.625000X0*%
%ADD42RoundRect,0.200000X-0.200000X-0.600000X0.200000X-0.600000X0.200000X0.600000X-0.200000X0.600000X0*%
%ADD43RoundRect,0.225000X-0.225000X-0.575000X0.225000X-0.575000X0.225000X0.575000X-0.225000X0.575000X0*%
%ADD44RoundRect,0.250000X0.450000X-0.350000X0.450000X0.350000X-0.450000X0.350000X-0.450000X-0.350000X0*%
%ADD45RoundRect,0.150000X-0.825000X-0.150000X0.825000X-0.150000X0.825000X0.150000X-0.825000X0.150000X0*%
%ADD46RoundRect,0.150000X-0.512500X-0.150000X0.512500X-0.150000X0.512500X0.150000X-0.512500X0.150000X0*%
%ADD47R,0.900000X1.500000*%
%ADD48R,1.500000X0.900000*%
%ADD49R,1.050000X1.050000*%
%ADD50R,0.279400X0.228600*%
%ADD51RoundRect,0.237500X0.287500X0.237500X-0.287500X0.237500X-0.287500X-0.237500X0.287500X-0.237500X0*%
%ADD52RoundRect,0.250000X-0.455000X-0.455000X0.455000X-0.455000X0.455000X0.455000X-0.455000X0.455000X0*%
%ADD53RoundRect,0.062500X-0.375000X-0.062500X0.375000X-0.062500X0.375000X0.062500X-0.375000X0.062500X0*%
%ADD54RoundRect,0.062500X-0.062500X-0.375000X0.062500X-0.375000X0.062500X0.375000X-0.062500X0.375000X0*%
%ADD55R,1.200000X0.700000*%
%ADD56R,0.800000X1.000000*%
%ADD57R,1.200000X1.000000*%
%ADD58R,2.800000X1.000000*%
%ADD59R,1.900000X1.300000*%
%ADD60RoundRect,0.250000X0.337500X0.475000X-0.337500X0.475000X-0.337500X-0.475000X0.337500X-0.475000X0*%
%ADD61RoundRect,0.150000X-0.625000X-0.150000X0.625000X-0.150000X0.625000X0.150000X-0.625000X0.150000X0*%
%ADD62RoundRect,0.180000X-0.295000X0.180000X-0.295000X-0.180000X0.295000X-0.180000X0.295000X0.180000X0*%
%ADD63RoundRect,0.050000X-0.050000X0.337500X-0.050000X-0.337500X0.050000X-0.337500X0.050000X0.337500X0*%
G04 APERTURE END LIST*
D10*
D11*
X7700220Y-6600720D02*
X18500220Y-6600720D01*
X18500220Y-9800720D01*
X7700220Y-9800720D01*
X7700220Y-6600720D01*
D10*
D11*
X-9000000Y9000000D02*
X18700220Y9000000D01*
X18700220Y-10000720D01*
X-9000000Y-10000720D01*
X-9000000Y9000000D01*
D10*
D11*
X-8800000Y8800000D02*
X18500220Y8800000D01*
X18500220Y-9800720D01*
X-8800000Y-9800720D01*
X-8800000Y8800000D01*
D10*
D11*
X-4000000Y8800000D02*
X-4000000Y9000000D01*
D10*
D11*
X1000000Y8800000D02*
X1000000Y9000000D01*
D10*
D11*
X6000000Y8800000D02*
X6000000Y9000000D01*
D10*
D11*
X11000000Y8800000D02*
X11000000Y9000000D01*
D10*
D11*
X16000000Y8800000D02*
X16000000Y9000000D01*
D10*
D11*
X-6391084Y8840640D02*
X-6465370Y8840640D01*
X-6428227Y8840640D02*
X-6428227Y8970640D01*
X-6428227Y8970640D02*
X-6440608Y8952068D01*
X-6440608Y8952068D02*
X-6452989Y8939687D01*
X-6452989Y8939687D02*
X-6465370Y8933497D01*
D10*
D11*
X-1465370Y8958259D02*
X-1459179Y8964449D01*
X-1459179Y8964449D02*
X-1446798Y8970640D01*
X-1446798Y8970640D02*
X-1415846Y8970640D01*
X-1415846Y8970640D02*
X-1403465Y8964449D01*
X-1403465Y8964449D02*
X-1397275Y8958259D01*
X-1397275Y8958259D02*
X-1391084Y8945878D01*
X-1391084Y8945878D02*
X-1391084Y8933497D01*
X-1391084Y8933497D02*
X-1397275Y8914925D01*
X-1397275Y8914925D02*
X-1471560Y8840640D01*
X-1471560Y8840640D02*
X-1391084Y8840640D01*
D10*
D11*
X3528440Y8970640D02*
X3608916Y8970640D01*
X3608916Y8970640D02*
X3565583Y8921116D01*
X3565583Y8921116D02*
X3584154Y8921116D01*
X3584154Y8921116D02*
X3596535Y8914925D01*
X3596535Y8914925D02*
X3602725Y8908735D01*
X3602725Y8908735D02*
X3608916Y8896354D01*
X3608916Y8896354D02*
X3608916Y8865402D01*
X3608916Y8865402D02*
X3602725Y8853021D01*
X3602725Y8853021D02*
X3596535Y8846830D01*
X3596535Y8846830D02*
X3584154Y8840640D01*
X3584154Y8840640D02*
X3547011Y8840640D01*
X3547011Y8840640D02*
X3534630Y8846830D01*
X3534630Y8846830D02*
X3528440Y8853021D01*
D10*
D11*
X8596535Y8927306D02*
X8596535Y8840640D01*
X8565583Y8976830D02*
X8534630Y8883973D01*
X8534630Y8883973D02*
X8615106Y8883973D01*
D10*
D11*
X13602725Y8970640D02*
X13540821Y8970640D01*
X13540821Y8970640D02*
X13534630Y8908735D01*
X13534630Y8908735D02*
X13540821Y8914925D01*
X13540821Y8914925D02*
X13553202Y8921116D01*
X13553202Y8921116D02*
X13584154Y8921116D01*
X13584154Y8921116D02*
X13596535Y8914925D01*
X13596535Y8914925D02*
X13602725Y8908735D01*
X13602725Y8908735D02*
X13608916Y8896354D01*
X13608916Y8896354D02*
X13608916Y8865402D01*
X13608916Y8865402D02*
X13602725Y8853021D01*
X13602725Y8853021D02*
X13596535Y8846830D01*
X13596535Y8846830D02*
X13584154Y8840640D01*
X13584154Y8840640D02*
X13553202Y8840640D01*
X13553202Y8840640D02*
X13540821Y8846830D01*
X13540821Y8846830D02*
X13534630Y8853021D01*
D10*
D11*
X18596535Y8970640D02*
X18571773Y8970640D01*
X18571773Y8970640D02*
X18559392Y8964449D01*
X18559392Y8964449D02*
X18553202Y8958259D01*
X18553202Y8958259D02*
X18540821Y8939687D01*
X18540821Y8939687D02*
X18534630Y8914925D01*
X18534630Y8914925D02*
X18534630Y8865402D01*
X18534630Y8865402D02*
X18540821Y8853021D01*
X18540821Y8853021D02*
X18547011Y8846830D01*
X18547011Y8846830D02*
X18559392Y8840640D01*
X18559392Y8840640D02*
X18584154Y8840640D01*
X18584154Y8840640D02*
X18596535Y8846830D01*
X18596535Y8846830D02*
X18602726Y8853021D01*
X18602726Y8853021D02*
X18608916Y8865402D01*
X18608916Y8865402D02*
X18608916Y8896354D01*
X18608916Y8896354D02*
X18602726Y8908735D01*
X18602726Y8908735D02*
X18596535Y8914925D01*
X18596535Y8914925D02*
X18584154Y8921116D01*
X18584154Y8921116D02*
X18559392Y8921116D01*
X18559392Y8921116D02*
X18547011Y8914925D01*
X18547011Y8914925D02*
X18540821Y8908735D01*
X18540821Y8908735D02*
X18534630Y8896354D01*
D10*
D11*
X-4000000Y-9800720D02*
X-4000000Y-10000720D01*
D10*
D11*
X1000000Y-9800720D02*
X1000000Y-10000720D01*
D10*
D11*
X6000000Y-9800720D02*
X6000000Y-10000720D01*
D10*
D11*
X11000000Y-9800720D02*
X11000000Y-10000720D01*
D10*
D11*
X16000000Y-9800720D02*
X16000000Y-10000720D01*
D10*
D11*
X-6391084Y-9960080D02*
X-6465370Y-9960080D01*
X-6428227Y-9960080D02*
X-6428227Y-9830080D01*
X-6428227Y-9830080D02*
X-6440608Y-9848652D01*
X-6440608Y-9848652D02*
X-6452989Y-9861033D01*
X-6452989Y-9861033D02*
X-6465370Y-9867223D01*
D10*
D11*
X-1465370Y-9842461D02*
X-1459179Y-9836271D01*
X-1459179Y-9836271D02*
X-1446798Y-9830080D01*
X-1446798Y-9830080D02*
X-1415846Y-9830080D01*
X-1415846Y-9830080D02*
X-1403465Y-9836271D01*
X-1403465Y-9836271D02*
X-1397275Y-9842461D01*
X-1397275Y-9842461D02*
X-1391084Y-9854842D01*
X-1391084Y-9854842D02*
X-1391084Y-9867223D01*
X-1391084Y-9867223D02*
X-1397275Y-9885795D01*
X-1397275Y-9885795D02*
X-1471560Y-9960080D01*
X-1471560Y-9960080D02*
X-1391084Y-9960080D01*
D10*
D11*
X3528440Y-9830080D02*
X3608916Y-9830080D01*
X3608916Y-9830080D02*
X3565583Y-9879604D01*
X3565583Y-9879604D02*
X3584154Y-9879604D01*
X3584154Y-9879604D02*
X3596535Y-9885795D01*
X3596535Y-9885795D02*
X3602725Y-9891985D01*
X3602725Y-9891985D02*
X3608916Y-9904366D01*
X3608916Y-9904366D02*
X3608916Y-9935319D01*
X3608916Y-9935319D02*
X3602725Y-9947700D01*
X3602725Y-9947700D02*
X3596535Y-9953890D01*
X3596535Y-9953890D02*
X3584154Y-9960080D01*
X3584154Y-9960080D02*
X3547011Y-9960080D01*
X3547011Y-9960080D02*
X3534630Y-9953890D01*
X3534630Y-9953890D02*
X3528440Y-9947700D01*
D10*
D11*
X8596535Y-9873414D02*
X8596535Y-9960080D01*
X8565583Y-9823890D02*
X8534630Y-9916747D01*
X8534630Y-9916747D02*
X8615106Y-9916747D01*
D10*
D11*
X13602725Y-9830080D02*
X13540821Y-9830080D01*
X13540821Y-9830080D02*
X13534630Y-9891985D01*
X13534630Y-9891985D02*
X13540821Y-9885795D01*
X13540821Y-9885795D02*
X13553202Y-9879604D01*
X13553202Y-9879604D02*
X13584154Y-9879604D01*
X13584154Y-9879604D02*
X13596535Y-9885795D01*
X13596535Y-9885795D02*
X13602725Y-9891985D01*
X13602725Y-9891985D02*
X13608916Y-9904366D01*
X13608916Y-9904366D02*
X13608916Y-9935319D01*
X13608916Y-9935319D02*
X13602725Y-9947700D01*
X13602725Y-9947700D02*
X13596535Y-9953890D01*
X13596535Y-9953890D02*
X13584154Y-9960080D01*
X13584154Y-9960080D02*
X13553202Y-9960080D01*
X13553202Y-9960080D02*
X13540821Y-9953890D01*
X13540821Y-9953890D02*
X13534630Y-9947700D01*
D10*
D11*
X18596535Y-9830080D02*
X18571773Y-9830080D01*
X18571773Y-9830080D02*
X18559392Y-9836271D01*
X18559392Y-9836271D02*
X18553202Y-9842461D01*
X18553202Y-9842461D02*
X18540821Y-9861033D01*
X18540821Y-9861033D02*
X18534630Y-9885795D01*
X18534630Y-9885795D02*
X18534630Y-9935319D01*
X18534630Y-9935319D02*
X18540821Y-9947700D01*
X18540821Y-9947700D02*
X18547011Y-9953890D01*
X18547011Y-9953890D02*
X18559392Y-9960080D01*
X18559392Y-9960080D02*
X18584154Y-9960080D01*
X18584154Y-9960080D02*
X18596535Y-9953890D01*
X18596535Y-9953890D02*
X18602726Y-9947700D01*
X18602726Y-9947700D02*
X18608916Y-9935319D01*
X18608916Y-9935319D02*
X18608916Y-9904366D01*
X18608916Y-9904366D02*
X18602726Y-9891985D01*
X18602726Y-9891985D02*
X18596535Y-9885795D01*
X18596535Y-9885795D02*
X18584154Y-9879604D01*
X18584154Y-9879604D02*
X18559392Y-9879604D01*
X18559392Y-9879604D02*
X18547011Y-9885795D01*
X18547011Y-9885795D02*
X18540821Y-9891985D01*
X18540821Y-9891985D02*
X18534630Y-9904366D01*
D10*
D11*
X-9000000Y4000000D02*
X-8800000Y4000000D01*
D10*
D11*
X-9000000Y-1000000D02*
X-8800000Y-1000000D01*
D10*
D11*
X-9000000Y-6000000D02*
X-8800000Y-6000000D01*
D10*
D11*
X-8930952Y6477782D02*
X-8869048Y6477782D01*
X-8943333Y6440640D02*
X-8900000Y6570640D01*
X-8900000Y6570640D02*
X-8856667Y6440640D01*
D10*
D11*
X-8890714Y1508735D02*
X-8872143Y1502544D01*
X-8872143Y1502544D02*
X-8865952Y1496354D01*
X-8865952Y1496354D02*
X-8859762Y1483973D01*
X-8859762Y1483973D02*
X-8859762Y1465401D01*
X-8859762Y1465401D02*
X-8865952Y1453020D01*
X-8865952Y1453020D02*
X-8872143Y1446830D01*
X-8872143Y1446830D02*
X-8884524Y1440640D01*
X-8884524Y1440640D02*
X-8934048Y1440640D01*
X-8934048Y1440640D02*
X-8934048Y1570640D01*
X-8934048Y1570640D02*
X-8890714Y1570640D01*
X-8890714Y1570640D02*
X-8878333Y1564449D01*
X-8878333Y1564449D02*
X-8872143Y1558259D01*
X-8872143Y1558259D02*
X-8865952Y1545878D01*
X-8865952Y1545878D02*
X-8865952Y1533497D01*
X-8865952Y1533497D02*
X-8872143Y1521116D01*
X-8872143Y1521116D02*
X-8878333Y1514925D01*
X-8878333Y1514925D02*
X-8890714Y1508735D01*
X-8890714Y1508735D02*
X-8934048Y1508735D01*
D10*
D11*
X-8859762Y-3546979D02*
X-8865952Y-3553170D01*
X-8865952Y-3553170D02*
X-8884524Y-3559360D01*
X-8884524Y-3559360D02*
X-8896905Y-3559360D01*
X-8896905Y-3559360D02*
X-8915476Y-3553170D01*
X-8915476Y-3553170D02*
X-8927857Y-3540789D01*
X-8927857Y-3540789D02*
X-8934048Y-3528408D01*
X-8934048Y-3528408D02*
X-8940238Y-3503646D01*
X-8940238Y-3503646D02*
X-8940238Y-3485075D01*
X-8940238Y-3485075D02*
X-8934048Y-3460313D01*
X-8934048Y-3460313D02*
X-8927857Y-3447932D01*
X-8927857Y-3447932D02*
X-8915476Y-3435551D01*
X-8915476Y-3435551D02*
X-8896905Y-3429360D01*
X-8896905Y-3429360D02*
X-8884524Y-3429360D01*
X-8884524Y-3429360D02*
X-8865952Y-3435551D01*
X-8865952Y-3435551D02*
X-8859762Y-3441741D01*
D10*
D11*
X-8934048Y-8559360D02*
X-8934048Y-8429360D01*
X-8934048Y-8429360D02*
X-8903095Y-8429360D01*
X-8903095Y-8429360D02*
X-8884524Y-8435551D01*
X-8884524Y-8435551D02*
X-8872143Y-8447932D01*
X-8872143Y-8447932D02*
X-8865952Y-8460313D01*
X-8865952Y-8460313D02*
X-8859762Y-8485075D01*
X-8859762Y-8485075D02*
X-8859762Y-8503646D01*
X-8859762Y-8503646D02*
X-8865952Y-8528408D01*
X-8865952Y-8528408D02*
X-8872143Y-8540789D01*
X-8872143Y-8540789D02*
X-8884524Y-8553170D01*
X-8884524Y-8553170D02*
X-8903095Y-8559360D01*
X-8903095Y-8559360D02*
X-8934048Y-8559360D01*
D10*
D11*
X18700220Y4000000D02*
X18500220Y4000000D01*
D10*
D11*
X18700220Y-1000000D02*
X18500220Y-1000000D01*
D10*
D11*
X18700220Y-6000000D02*
X18500220Y-6000000D01*
D10*
D11*
X18569268Y6477782D02*
X18631172Y6477782D01*
X18556887Y6440640D02*
X18600220Y6570640D01*
X18600220Y6570640D02*
X18643553Y6440640D01*
D10*
D11*
X18609506Y1508735D02*
X18628077Y1502544D01*
X18628077Y1502544D02*
X18634268Y1496354D01*
X18634268Y1496354D02*
X18640458Y1483973D01*
X18640458Y1483973D02*
X18640458Y1465401D01*
X18640458Y1465401D02*
X18634268Y1453020D01*
X18634268Y1453020D02*
X18628077Y1446830D01*
X18628077Y1446830D02*
X18615696Y1440640D01*
X18615696Y1440640D02*
X18566172Y1440640D01*
X18566172Y1440640D02*
X18566172Y1570640D01*
X18566172Y1570640D02*
X18609506Y1570640D01*
X18609506Y1570640D02*
X18621887Y1564449D01*
X18621887Y1564449D02*
X18628077Y1558259D01*
X18628077Y1558259D02*
X18634268Y1545878D01*
X18634268Y1545878D02*
X18634268Y1533497D01*
X18634268Y1533497D02*
X18628077Y1521116D01*
X18628077Y1521116D02*
X18621887Y1514925D01*
X18621887Y1514925D02*
X18609506Y1508735D01*
X18609506Y1508735D02*
X18566172Y1508735D01*
D10*
D11*
X18640458Y-3546979D02*
X18634268Y-3553170D01*
X18634268Y-3553170D02*
X18615696Y-3559360D01*
X18615696Y-3559360D02*
X18603315Y-3559360D01*
X18603315Y-3559360D02*
X18584744Y-3553170D01*
X18584744Y-3553170D02*
X18572363Y-3540789D01*
X18572363Y-3540789D02*
X18566172Y-3528408D01*
X18566172Y-3528408D02*
X18559982Y-3503646D01*
X18559982Y-3503646D02*
X18559982Y-3485075D01*
X18559982Y-3485075D02*
X18566172Y-3460313D01*
X18566172Y-3460313D02*
X18572363Y-3447932D01*
X18572363Y-3447932D02*
X18584744Y-3435551D01*
X18584744Y-3435551D02*
X18603315Y-3429360D01*
X18603315Y-3429360D02*
X18615696Y-3429360D01*
X18615696Y-3429360D02*
X18634268Y-3435551D01*
X18634268Y-3435551D02*
X18640458Y-3441741D01*
D10*
D11*
X18566172Y-8559360D02*
X18566172Y-8429360D01*
X18566172Y-8429360D02*
X18597125Y-8429360D01*
X18597125Y-8429360D02*
X18615696Y-8435551D01*
X18615696Y-8435551D02*
X18628077Y-8447932D01*
X18628077Y-8447932D02*
X18634268Y-8460313D01*
X18634268Y-8460313D02*
X18640458Y-8485075D01*
X18640458Y-8485075D02*
X18640458Y-8503646D01*
X18640458Y-8503646D02*
X18634268Y-8528408D01*
X18634268Y-8528408D02*
X18628077Y-8540789D01*
X18628077Y-8540789D02*
X18615696Y-8553170D01*
X18615696Y-8553170D02*
X18597125Y-8559360D01*
X18597125Y-8559360D02*
X18566172Y-8559360D01*
D10*
D11*
X10045803Y-9379333D02*
X10045803Y-9229333D01*
X10045803Y-9229333D02*
X10081517Y-9229333D01*
X10081517Y-9229333D02*
X10102946Y-9236476D01*
X10102946Y-9236476D02*
X10117231Y-9250761D01*
X10117231Y-9250761D02*
X10124374Y-9265047D01*
X10124374Y-9265047D02*
X10131517Y-9293619D01*
X10131517Y-9293619D02*
X10131517Y-9315047D01*
X10131517Y-9315047D02*
X10124374Y-9343619D01*
X10124374Y-9343619D02*
X10117231Y-9357904D01*
X10117231Y-9357904D02*
X10102946Y-9372190D01*
X10102946Y-9372190D02*
X10081517Y-9379333D01*
X10081517Y-9379333D02*
X10045803Y-9379333D01*
X10260088Y-9379333D02*
X10260088Y-9300761D01*
X10260088Y-9300761D02*
X10252946Y-9286476D01*
X10252946Y-9286476D02*
X10238660Y-9279333D01*
X10238660Y-9279333D02*
X10210088Y-9279333D01*
X10210088Y-9279333D02*
X10195803Y-9286476D01*
X10260088Y-9372190D02*
X10245803Y-9379333D01*
X10245803Y-9379333D02*
X10210088Y-9379333D01*
X10210088Y-9379333D02*
X10195803Y-9372190D01*
X10195803Y-9372190D02*
X10188660Y-9357904D01*
X10188660Y-9357904D02*
X10188660Y-9343619D01*
X10188660Y-9343619D02*
X10195803Y-9329333D01*
X10195803Y-9329333D02*
X10210088Y-9322190D01*
X10210088Y-9322190D02*
X10245803Y-9322190D01*
X10245803Y-9322190D02*
X10260088Y-9315047D01*
X10310088Y-9279333D02*
X10367231Y-9279333D01*
X10331517Y-9229333D02*
X10331517Y-9357904D01*
X10331517Y-9357904D02*
X10338660Y-9372190D01*
X10338660Y-9372190D02*
X10352946Y-9379333D01*
X10352946Y-9379333D02*
X10367231Y-9379333D01*
X10474374Y-9372190D02*
X10460088Y-9379333D01*
X10460088Y-9379333D02*
X10431517Y-9379333D01*
X10431517Y-9379333D02*
X10417231Y-9372190D01*
X10417231Y-9372190D02*
X10410088Y-9357904D01*
X10410088Y-9357904D02*
X10410088Y-9300761D01*
X10410088Y-9300761D02*
X10417231Y-9286476D01*
X10417231Y-9286476D02*
X10431517Y-9279333D01*
X10431517Y-9279333D02*
X10460088Y-9279333D01*
X10460088Y-9279333D02*
X10474374Y-9286476D01*
X10474374Y-9286476D02*
X10481517Y-9300761D01*
X10481517Y-9300761D02*
X10481517Y-9315047D01*
X10481517Y-9315047D02*
X10410088Y-9329333D01*
X10545803Y-9365047D02*
X10552946Y-9372190D01*
X10552946Y-9372190D02*
X10545803Y-9379333D01*
X10545803Y-9379333D02*
X10538660Y-9372190D01*
X10538660Y-9372190D02*
X10545803Y-9365047D01*
X10545803Y-9365047D02*
X10545803Y-9379333D01*
X10545803Y-9286476D02*
X10552946Y-9293619D01*
X10552946Y-9293619D02*
X10545803Y-9300761D01*
X10545803Y-9300761D02*
X10538660Y-9293619D01*
X10538660Y-9293619D02*
X10545803Y-9286476D01*
X10545803Y-9286476D02*
X10545803Y-9300761D01*
X10731517Y-9379333D02*
X10731517Y-9279333D01*
X10731517Y-9293619D02*
X10738660Y-9286476D01*
X10738660Y-9286476D02*
X10752946Y-9279333D01*
X10752946Y-9279333D02*
X10774374Y-9279333D01*
X10774374Y-9279333D02*
X10788660Y-9286476D01*
X10788660Y-9286476D02*
X10795803Y-9300761D01*
X10795803Y-9300761D02*
X10795803Y-9379333D01*
X10795803Y-9300761D02*
X10802946Y-9286476D01*
X10802946Y-9286476D02*
X10817231Y-9279333D01*
X10817231Y-9279333D02*
X10838660Y-9279333D01*
X10838660Y-9279333D02*
X10852946Y-9286476D01*
X10852946Y-9286476D02*
X10860088Y-9300761D01*
X10860088Y-9300761D02*
X10860088Y-9379333D01*
X10995803Y-9379333D02*
X10995803Y-9300761D01*
X10995803Y-9300761D02*
X10988660Y-9286476D01*
X10988660Y-9286476D02*
X10974374Y-9279333D01*
X10974374Y-9279333D02*
X10945803Y-9279333D01*
X10945803Y-9279333D02*
X10931517Y-9286476D01*
X10995803Y-9372190D02*
X10981517Y-9379333D01*
X10981517Y-9379333D02*
X10945803Y-9379333D01*
X10945803Y-9379333D02*
X10931517Y-9372190D01*
X10931517Y-9372190D02*
X10924374Y-9357904D01*
X10924374Y-9357904D02*
X10924374Y-9343619D01*
X10924374Y-9343619D02*
X10931517Y-9329333D01*
X10931517Y-9329333D02*
X10945803Y-9322190D01*
X10945803Y-9322190D02*
X10981517Y-9322190D01*
X10981517Y-9322190D02*
X10995803Y-9315047D01*
X11067231Y-9379333D02*
X11067231Y-9279333D01*
X11067231Y-9307904D02*
X11074374Y-9293619D01*
X11074374Y-9293619D02*
X11081517Y-9286476D01*
X11081517Y-9286476D02*
X11095803Y-9279333D01*
X11095803Y-9279333D02*
X11110088Y-9279333D01*
X11160088Y-9365047D02*
X11167231Y-9372190D01*
X11167231Y-9372190D02*
X11160088Y-9379333D01*
X11160088Y-9379333D02*
X11152946Y-9372190D01*
X11152946Y-9372190D02*
X11160088Y-9365047D01*
X11160088Y-9365047D02*
X11160088Y-9379333D01*
X11331517Y-9229333D02*
X11424374Y-9229333D01*
X11424374Y-9229333D02*
X11374374Y-9286476D01*
X11374374Y-9286476D02*
X11395803Y-9286476D01*
X11395803Y-9286476D02*
X11410088Y-9293619D01*
X11410088Y-9293619D02*
X11417231Y-9300761D01*
X11417231Y-9300761D02*
X11424374Y-9315047D01*
X11424374Y-9315047D02*
X11424374Y-9350761D01*
X11424374Y-9350761D02*
X11417231Y-9365047D01*
X11417231Y-9365047D02*
X11410088Y-9372190D01*
X11410088Y-9372190D02*
X11395803Y-9379333D01*
X11395803Y-9379333D02*
X11352945Y-9379333D01*
X11352945Y-9379333D02*
X11338660Y-9372190D01*
X11338660Y-9372190D02*
X11331517Y-9365047D01*
X11567231Y-9379333D02*
X11481517Y-9379333D01*
X11524374Y-9379333D02*
X11524374Y-9229333D01*
X11524374Y-9229333D02*
X11510088Y-9250761D01*
X11510088Y-9250761D02*
X11495803Y-9265047D01*
X11495803Y-9265047D02*
X11481517Y-9272190D01*
X11745802Y-9379333D02*
X11745802Y-9279333D01*
X11745802Y-9293619D02*
X11752945Y-9286476D01*
X11752945Y-9286476D02*
X11767231Y-9279333D01*
X11767231Y-9279333D02*
X11788660Y-9279333D01*
X11788660Y-9279333D02*
X11802945Y-9286476D01*
X11802945Y-9286476D02*
X11810088Y-9300761D01*
X11810088Y-9300761D02*
X11810088Y-9379333D01*
X11810088Y-9300761D02*
X11817231Y-9286476D01*
X11817231Y-9286476D02*
X11831517Y-9279333D01*
X11831517Y-9279333D02*
X11852945Y-9279333D01*
X11852945Y-9279333D02*
X11867231Y-9286476D01*
X11867231Y-9286476D02*
X11874374Y-9300761D01*
X11874374Y-9300761D02*
X11874374Y-9379333D01*
X12010088Y-9379333D02*
X12010088Y-9300761D01*
X12010088Y-9300761D02*
X12002945Y-9286476D01*
X12002945Y-9286476D02*
X11988660Y-9279333D01*
X11988660Y-9279333D02*
X11960088Y-9279333D01*
X11960088Y-9279333D02*
X11945802Y-9286476D01*
X12010088Y-9372190D02*
X11995802Y-9379333D01*
X11995802Y-9379333D02*
X11960088Y-9379333D01*
X11960088Y-9379333D02*
X11945802Y-9372190D01*
X11945802Y-9372190D02*
X11938660Y-9357904D01*
X11938660Y-9357904D02*
X11938660Y-9343619D01*
X11938660Y-9343619D02*
X11945802Y-9329333D01*
X11945802Y-9329333D02*
X11960088Y-9322190D01*
X11960088Y-9322190D02*
X11995802Y-9322190D01*
X11995802Y-9322190D02*
X12010088Y-9315047D01*
X12081517Y-9379333D02*
X12081517Y-9279333D01*
X12081517Y-9307904D02*
X12088660Y-9293619D01*
X12088660Y-9293619D02*
X12095803Y-9286476D01*
X12095803Y-9286476D02*
X12110088Y-9279333D01*
X12110088Y-9279333D02*
X12124374Y-9279333D01*
X12167231Y-9372190D02*
X12181517Y-9379333D01*
X12181517Y-9379333D02*
X12210088Y-9379333D01*
X12210088Y-9379333D02*
X12224374Y-9372190D01*
X12224374Y-9372190D02*
X12231517Y-9357904D01*
X12231517Y-9357904D02*
X12231517Y-9350761D01*
X12231517Y-9350761D02*
X12224374Y-9336476D01*
X12224374Y-9336476D02*
X12210088Y-9329333D01*
X12210088Y-9329333D02*
X12188660Y-9329333D01*
X12188660Y-9329333D02*
X12174374Y-9322190D01*
X12174374Y-9322190D02*
X12167231Y-9307904D01*
X12167231Y-9307904D02*
X12167231Y-9300761D01*
X12167231Y-9300761D02*
X12174374Y-9286476D01*
X12174374Y-9286476D02*
X12188660Y-9279333D01*
X12188660Y-9279333D02*
X12210088Y-9279333D01*
X12210088Y-9279333D02*
X12224374Y-9286476D01*
X12402945Y-9243619D02*
X12410088Y-9236476D01*
X12410088Y-9236476D02*
X12424374Y-9229333D01*
X12424374Y-9229333D02*
X12460088Y-9229333D01*
X12460088Y-9229333D02*
X12474374Y-9236476D01*
X12474374Y-9236476D02*
X12481517Y-9243619D01*
X12481517Y-9243619D02*
X12488660Y-9257904D01*
X12488660Y-9257904D02*
X12488660Y-9272190D01*
X12488660Y-9272190D02*
X12481517Y-9293619D01*
X12481517Y-9293619D02*
X12395802Y-9379333D01*
X12395802Y-9379333D02*
X12488660Y-9379333D01*
X12581517Y-9229333D02*
X12595802Y-9229333D01*
X12595802Y-9229333D02*
X12610088Y-9236476D01*
X12610088Y-9236476D02*
X12617231Y-9243619D01*
X12617231Y-9243619D02*
X12624374Y-9257904D01*
X12624374Y-9257904D02*
X12631517Y-9286476D01*
X12631517Y-9286476D02*
X12631517Y-9322190D01*
X12631517Y-9322190D02*
X12624374Y-9350761D01*
X12624374Y-9350761D02*
X12617231Y-9365047D01*
X12617231Y-9365047D02*
X12610088Y-9372190D01*
X12610088Y-9372190D02*
X12595802Y-9379333D01*
X12595802Y-9379333D02*
X12581517Y-9379333D01*
X12581517Y-9379333D02*
X12567231Y-9372190D01*
X12567231Y-9372190D02*
X12560088Y-9365047D01*
X12560088Y-9365047D02*
X12552945Y-9350761D01*
X12552945Y-9350761D02*
X12545802Y-9322190D01*
X12545802Y-9322190D02*
X12545802Y-9286476D01*
X12545802Y-9286476D02*
X12552945Y-9257904D01*
X12552945Y-9257904D02*
X12560088Y-9243619D01*
X12560088Y-9243619D02*
X12567231Y-9236476D01*
X12567231Y-9236476D02*
X12581517Y-9229333D01*
X12774374Y-9379333D02*
X12688660Y-9379333D01*
X12731517Y-9379333D02*
X12731517Y-9229333D01*
X12731517Y-9229333D02*
X12717231Y-9250761D01*
X12717231Y-9250761D02*
X12702945Y-9265047D01*
X12702945Y-9265047D02*
X12688660Y-9272190D01*
X12910088Y-9229333D02*
X12838659Y-9229333D01*
X12838659Y-9229333D02*
X12831517Y-9300761D01*
X12831517Y-9300761D02*
X12838659Y-9293619D01*
X12838659Y-9293619D02*
X12852945Y-9286476D01*
X12852945Y-9286476D02*
X12888659Y-9286476D01*
X12888659Y-9286476D02*
X12902945Y-9293619D01*
X12902945Y-9293619D02*
X12910088Y-9300761D01*
X12910088Y-9300761D02*
X12917231Y-9315047D01*
X12917231Y-9315047D02*
X12917231Y-9350761D01*
X12917231Y-9350761D02*
X12910088Y-9365047D01*
X12910088Y-9365047D02*
X12902945Y-9372190D01*
X12902945Y-9372190D02*
X12888659Y-9379333D01*
X12888659Y-9379333D02*
X12852945Y-9379333D01*
X12852945Y-9379333D02*
X12838659Y-9372190D01*
X12838659Y-9372190D02*
X12831517Y-9365047D01*
D10*
D11*
X7700220Y-9450720D02*
X18500220Y-9450720D01*
D10*
D11*
X7845803Y-9659333D02*
X7845803Y-9509333D01*
X7931517Y-9659333D02*
X7867231Y-9573619D01*
X7931517Y-9509333D02*
X7845803Y-9595047D01*
X7995803Y-9659333D02*
X7995803Y-9559333D01*
X7995803Y-9509333D02*
X7988660Y-9516476D01*
X7988660Y-9516476D02*
X7995803Y-9523619D01*
X7995803Y-9523619D02*
X8002945Y-9516476D01*
X8002945Y-9516476D02*
X7995803Y-9509333D01*
X7995803Y-9509333D02*
X7995803Y-9523619D01*
X8152945Y-9645047D02*
X8145803Y-9652190D01*
X8145803Y-9652190D02*
X8124374Y-9659333D01*
X8124374Y-9659333D02*
X8110088Y-9659333D01*
X8110088Y-9659333D02*
X8088660Y-9652190D01*
X8088660Y-9652190D02*
X8074374Y-9637904D01*
X8074374Y-9637904D02*
X8067231Y-9623619D01*
X8067231Y-9623619D02*
X8060088Y-9595047D01*
X8060088Y-9595047D02*
X8060088Y-9573619D01*
X8060088Y-9573619D02*
X8067231Y-9545047D01*
X8067231Y-9545047D02*
X8074374Y-9530761D01*
X8074374Y-9530761D02*
X8088660Y-9516476D01*
X8088660Y-9516476D02*
X8110088Y-9509333D01*
X8110088Y-9509333D02*
X8124374Y-9509333D01*
X8124374Y-9509333D02*
X8145803Y-9516476D01*
X8145803Y-9516476D02*
X8152945Y-9523619D01*
X8281517Y-9659333D02*
X8281517Y-9580761D01*
X8281517Y-9580761D02*
X8274374Y-9566476D01*
X8274374Y-9566476D02*
X8260088Y-9559333D01*
X8260088Y-9559333D02*
X8231517Y-9559333D01*
X8231517Y-9559333D02*
X8217231Y-9566476D01*
X8281517Y-9652190D02*
X8267231Y-9659333D01*
X8267231Y-9659333D02*
X8231517Y-9659333D01*
X8231517Y-9659333D02*
X8217231Y-9652190D01*
X8217231Y-9652190D02*
X8210088Y-9637904D01*
X8210088Y-9637904D02*
X8210088Y-9623619D01*
X8210088Y-9623619D02*
X8217231Y-9609333D01*
X8217231Y-9609333D02*
X8231517Y-9602190D01*
X8231517Y-9602190D02*
X8267231Y-9602190D01*
X8267231Y-9602190D02*
X8281517Y-9595047D01*
X8417231Y-9659333D02*
X8417231Y-9509333D01*
X8417231Y-9652190D02*
X8402946Y-9659333D01*
X8402946Y-9659333D02*
X8374374Y-9659333D01*
X8374374Y-9659333D02*
X8360088Y-9652190D01*
X8360088Y-9652190D02*
X8352945Y-9645047D01*
X8352945Y-9645047D02*
X8345803Y-9630761D01*
X8345803Y-9630761D02*
X8345803Y-9587904D01*
X8345803Y-9587904D02*
X8352945Y-9573619D01*
X8352945Y-9573619D02*
X8360088Y-9566476D01*
X8360088Y-9566476D02*
X8374374Y-9559333D01*
X8374374Y-9559333D02*
X8402946Y-9559333D01*
X8402946Y-9559333D02*
X8417231Y-9566476D01*
X8602946Y-9580761D02*
X8652946Y-9580761D01*
X8674374Y-9659333D02*
X8602946Y-9659333D01*
X8602946Y-9659333D02*
X8602946Y-9509333D01*
X8602946Y-9509333D02*
X8674374Y-9509333D01*
X8738660Y-9645047D02*
X8745803Y-9652190D01*
X8745803Y-9652190D02*
X8738660Y-9659333D01*
X8738660Y-9659333D02*
X8731517Y-9652190D01*
X8731517Y-9652190D02*
X8738660Y-9645047D01*
X8738660Y-9645047D02*
X8738660Y-9659333D01*
X8810088Y-9659333D02*
X8810088Y-9509333D01*
X8810088Y-9509333D02*
X8845803Y-9509333D01*
X8845803Y-9509333D02*
X8867231Y-9516476D01*
X8867231Y-9516476D02*
X8881517Y-9530761D01*
X8881517Y-9530761D02*
X8888660Y-9545047D01*
X8888660Y-9545047D02*
X8895803Y-9573619D01*
X8895803Y-9573619D02*
X8895803Y-9595047D01*
X8895803Y-9595047D02*
X8888660Y-9623619D01*
X8888660Y-9623619D02*
X8881517Y-9637904D01*
X8881517Y-9637904D02*
X8867231Y-9652190D01*
X8867231Y-9652190D02*
X8845803Y-9659333D01*
X8845803Y-9659333D02*
X8810088Y-9659333D01*
X8960088Y-9645047D02*
X8967231Y-9652190D01*
X8967231Y-9652190D02*
X8960088Y-9659333D01*
X8960088Y-9659333D02*
X8952946Y-9652190D01*
X8952946Y-9652190D02*
X8960088Y-9645047D01*
X8960088Y-9645047D02*
X8960088Y-9659333D01*
X9024374Y-9616476D02*
X9095803Y-9616476D01*
X9010089Y-9659333D02*
X9060089Y-9509333D01*
X9060089Y-9509333D02*
X9110089Y-9659333D01*
X9160088Y-9645047D02*
X9167231Y-9652190D01*
X9167231Y-9652190D02*
X9160088Y-9659333D01*
X9160088Y-9659333D02*
X9152946Y-9652190D01*
X9152946Y-9652190D02*
X9160088Y-9645047D01*
X9160088Y-9645047D02*
X9160088Y-9659333D01*
X9352946Y-9659333D02*
X9381517Y-9659333D01*
X9381517Y-9659333D02*
X9395803Y-9652190D01*
X9395803Y-9652190D02*
X9402946Y-9645047D01*
X9402946Y-9645047D02*
X9417231Y-9623619D01*
X9417231Y-9623619D02*
X9424374Y-9595047D01*
X9424374Y-9595047D02*
X9424374Y-9537904D01*
X9424374Y-9537904D02*
X9417231Y-9523619D01*
X9417231Y-9523619D02*
X9410089Y-9516476D01*
X9410089Y-9516476D02*
X9395803Y-9509333D01*
X9395803Y-9509333D02*
X9367231Y-9509333D01*
X9367231Y-9509333D02*
X9352946Y-9516476D01*
X9352946Y-9516476D02*
X9345803Y-9523619D01*
X9345803Y-9523619D02*
X9338660Y-9537904D01*
X9338660Y-9537904D02*
X9338660Y-9573619D01*
X9338660Y-9573619D02*
X9345803Y-9587904D01*
X9345803Y-9587904D02*
X9352946Y-9595047D01*
X9352946Y-9595047D02*
X9367231Y-9602190D01*
X9367231Y-9602190D02*
X9395803Y-9602190D01*
X9395803Y-9602190D02*
X9410089Y-9595047D01*
X9410089Y-9595047D02*
X9417231Y-9587904D01*
X9417231Y-9587904D02*
X9424374Y-9573619D01*
X9488660Y-9645047D02*
X9495803Y-9652190D01*
X9495803Y-9652190D02*
X9488660Y-9659333D01*
X9488660Y-9659333D02*
X9481517Y-9652190D01*
X9481517Y-9652190D02*
X9488660Y-9645047D01*
X9488660Y-9645047D02*
X9488660Y-9659333D01*
X9588660Y-9509333D02*
X9602946Y-9509333D01*
X9602946Y-9509333D02*
X9617231Y-9516476D01*
X9617231Y-9516476D02*
X9624374Y-9523619D01*
X9624374Y-9523619D02*
X9631517Y-9537904D01*
X9631517Y-9537904D02*
X9638660Y-9566476D01*
X9638660Y-9566476D02*
X9638660Y-9602190D01*
X9638660Y-9602190D02*
X9631517Y-9630761D01*
X9631517Y-9630761D02*
X9624374Y-9645047D01*
X9624374Y-9645047D02*
X9617231Y-9652190D01*
X9617231Y-9652190D02*
X9602946Y-9659333D01*
X9602946Y-9659333D02*
X9588660Y-9659333D01*
X9588660Y-9659333D02*
X9574374Y-9652190D01*
X9574374Y-9652190D02*
X9567231Y-9645047D01*
X9567231Y-9645047D02*
X9560088Y-9630761D01*
X9560088Y-9630761D02*
X9552946Y-9602190D01*
X9552946Y-9602190D02*
X9552946Y-9566476D01*
X9552946Y-9566476D02*
X9560088Y-9537904D01*
X9560088Y-9537904D02*
X9567231Y-9523619D01*
X9567231Y-9523619D02*
X9574374Y-9516476D01*
X9574374Y-9516476D02*
X9588660Y-9509333D01*
X9702946Y-9645047D02*
X9710088Y-9652190D01*
X9710088Y-9652190D02*
X9702946Y-9659333D01*
X9702946Y-9659333D02*
X9695803Y-9652190D01*
X9695803Y-9652190D02*
X9702946Y-9645047D01*
X9702946Y-9645047D02*
X9702946Y-9659333D01*
X9767231Y-9523619D02*
X9774374Y-9516476D01*
X9774374Y-9516476D02*
X9788660Y-9509333D01*
X9788660Y-9509333D02*
X9824374Y-9509333D01*
X9824374Y-9509333D02*
X9838660Y-9516476D01*
X9838660Y-9516476D02*
X9845803Y-9523619D01*
X9845803Y-9523619D02*
X9852946Y-9537904D01*
X9852946Y-9537904D02*
X9852946Y-9552190D01*
X9852946Y-9552190D02*
X9845803Y-9573619D01*
X9845803Y-9573619D02*
X9760088Y-9659333D01*
X9760088Y-9659333D02*
X9852946Y-9659333D01*
D10*
D11*
X7700220Y-9150720D02*
X18500220Y-9150720D01*
D10*
D12*
X16441385Y-9378553D02*
X16391385Y-9307124D01*
X16355671Y-9378553D02*
X16355671Y-9228553D01*
X16355671Y-9228553D02*
X16412814Y-9228553D01*
X16412814Y-9228553D02*
X16427100Y-9235696D01*
X16427100Y-9235696D02*
X16434242Y-9242839D01*
X16434242Y-9242839D02*
X16441385Y-9257124D01*
X16441385Y-9257124D02*
X16441385Y-9278553D01*
X16441385Y-9278553D02*
X16434242Y-9292839D01*
X16434242Y-9292839D02*
X16427100Y-9299981D01*
X16427100Y-9299981D02*
X16412814Y-9307124D01*
X16412814Y-9307124D02*
X16355671Y-9307124D01*
X16562814Y-9371410D02*
X16548528Y-9378553D01*
X16548528Y-9378553D02*
X16519957Y-9378553D01*
X16519957Y-9378553D02*
X16505671Y-9371410D01*
X16505671Y-9371410D02*
X16498528Y-9357124D01*
X16498528Y-9357124D02*
X16498528Y-9299981D01*
X16498528Y-9299981D02*
X16505671Y-9285696D01*
X16505671Y-9285696D02*
X16519957Y-9278553D01*
X16519957Y-9278553D02*
X16548528Y-9278553D01*
X16548528Y-9278553D02*
X16562814Y-9285696D01*
X16562814Y-9285696D02*
X16569957Y-9299981D01*
X16569957Y-9299981D02*
X16569957Y-9314267D01*
X16569957Y-9314267D02*
X16498528Y-9328553D01*
X16619957Y-9278553D02*
X16655671Y-9378553D01*
X16655671Y-9378553D02*
X16691385Y-9278553D01*
X16748528Y-9364267D02*
X16755671Y-9371410D01*
X16755671Y-9371410D02*
X16748528Y-9378553D01*
X16748528Y-9378553D02*
X16741385Y-9371410D01*
X16741385Y-9371410D02*
X16748528Y-9364267D01*
X16748528Y-9364267D02*
X16748528Y-9378553D01*
X16748528Y-9285696D02*
X16755671Y-9292839D01*
X16755671Y-9292839D02*
X16748528Y-9299981D01*
X16748528Y-9299981D02*
X16741385Y-9292839D01*
X16741385Y-9292839D02*
X16748528Y-9285696D01*
X16748528Y-9285696D02*
X16748528Y-9299981D01*
D10*
D11*
X7838660Y-9372190D02*
X7860088Y-9379333D01*
X7860088Y-9379333D02*
X7895803Y-9379333D01*
X7895803Y-9379333D02*
X7910088Y-9372190D01*
X7910088Y-9372190D02*
X7917231Y-9365047D01*
X7917231Y-9365047D02*
X7924374Y-9350761D01*
X7924374Y-9350761D02*
X7924374Y-9336476D01*
X7924374Y-9336476D02*
X7917231Y-9322190D01*
X7917231Y-9322190D02*
X7910088Y-9315047D01*
X7910088Y-9315047D02*
X7895803Y-9307904D01*
X7895803Y-9307904D02*
X7867231Y-9300761D01*
X7867231Y-9300761D02*
X7852945Y-9293619D01*
X7852945Y-9293619D02*
X7845803Y-9286476D01*
X7845803Y-9286476D02*
X7838660Y-9272190D01*
X7838660Y-9272190D02*
X7838660Y-9257904D01*
X7838660Y-9257904D02*
X7845803Y-9243619D01*
X7845803Y-9243619D02*
X7852945Y-9236476D01*
X7852945Y-9236476D02*
X7867231Y-9229333D01*
X7867231Y-9229333D02*
X7902945Y-9229333D01*
X7902945Y-9229333D02*
X7924374Y-9236476D01*
X7988660Y-9379333D02*
X7988660Y-9279333D01*
X7988660Y-9229333D02*
X7981517Y-9236476D01*
X7981517Y-9236476D02*
X7988660Y-9243619D01*
X7988660Y-9243619D02*
X7995803Y-9236476D01*
X7995803Y-9236476D02*
X7988660Y-9229333D01*
X7988660Y-9229333D02*
X7988660Y-9243619D01*
X8045803Y-9279333D02*
X8124374Y-9279333D01*
X8124374Y-9279333D02*
X8045803Y-9379333D01*
X8045803Y-9379333D02*
X8124374Y-9379333D01*
X8238660Y-9372190D02*
X8224374Y-9379333D01*
X8224374Y-9379333D02*
X8195803Y-9379333D01*
X8195803Y-9379333D02*
X8181517Y-9372190D01*
X8181517Y-9372190D02*
X8174374Y-9357904D01*
X8174374Y-9357904D02*
X8174374Y-9300761D01*
X8174374Y-9300761D02*
X8181517Y-9286476D01*
X8181517Y-9286476D02*
X8195803Y-9279333D01*
X8195803Y-9279333D02*
X8224374Y-9279333D01*
X8224374Y-9279333D02*
X8238660Y-9286476D01*
X8238660Y-9286476D02*
X8245803Y-9300761D01*
X8245803Y-9300761D02*
X8245803Y-9315047D01*
X8245803Y-9315047D02*
X8174374Y-9329333D01*
X8310088Y-9365047D02*
X8317231Y-9372190D01*
X8317231Y-9372190D02*
X8310088Y-9379333D01*
X8310088Y-9379333D02*
X8302945Y-9372190D01*
X8302945Y-9372190D02*
X8310088Y-9365047D01*
X8310088Y-9365047D02*
X8310088Y-9379333D01*
X8310088Y-9286476D02*
X8317231Y-9293619D01*
X8317231Y-9293619D02*
X8310088Y-9300761D01*
X8310088Y-9300761D02*
X8302945Y-9293619D01*
X8302945Y-9293619D02*
X8310088Y-9286476D01*
X8310088Y-9286476D02*
X8310088Y-9300761D01*
X8488660Y-9336476D02*
X8560088Y-9336476D01*
X8474374Y-9379333D02*
X8524374Y-9229333D01*
X8524374Y-9229333D02*
X8574374Y-9379333D01*
X8688660Y-9279333D02*
X8688660Y-9379333D01*
X8652946Y-9222190D02*
X8617231Y-9329333D01*
X8617231Y-9329333D02*
X8710088Y-9329333D01*
D10*
D11*
X16345803Y-9659333D02*
X16345803Y-9509333D01*
X16481517Y-9659333D02*
X16481517Y-9509333D01*
X16481517Y-9652190D02*
X16467231Y-9659333D01*
X16467231Y-9659333D02*
X16438660Y-9659333D01*
X16438660Y-9659333D02*
X16424374Y-9652190D01*
X16424374Y-9652190D02*
X16417231Y-9645047D01*
X16417231Y-9645047D02*
X16410088Y-9630761D01*
X16410088Y-9630761D02*
X16410088Y-9587904D01*
X16410088Y-9587904D02*
X16417231Y-9573619D01*
X16417231Y-9573619D02*
X16424374Y-9566476D01*
X16424374Y-9566476D02*
X16438660Y-9559333D01*
X16438660Y-9559333D02*
X16467231Y-9559333D01*
X16467231Y-9559333D02*
X16481517Y-9566476D01*
X16552945Y-9645047D02*
X16560088Y-9652190D01*
X16560088Y-9652190D02*
X16552945Y-9659333D01*
X16552945Y-9659333D02*
X16545803Y-9652190D01*
X16545803Y-9652190D02*
X16552945Y-9645047D01*
X16552945Y-9645047D02*
X16552945Y-9659333D01*
X16552945Y-9566476D02*
X16560088Y-9573619D01*
X16560088Y-9573619D02*
X16552945Y-9580761D01*
X16552945Y-9580761D02*
X16545803Y-9573619D01*
X16545803Y-9573619D02*
X16552945Y-9566476D01*
X16552945Y-9566476D02*
X16552945Y-9580761D01*
X16810088Y-9509333D02*
X16738660Y-9509333D01*
X16738660Y-9509333D02*
X16731517Y-9580761D01*
X16731517Y-9580761D02*
X16738660Y-9573619D01*
X16738660Y-9573619D02*
X16752946Y-9566476D01*
X16752946Y-9566476D02*
X16788660Y-9566476D01*
X16788660Y-9566476D02*
X16802946Y-9573619D01*
X16802946Y-9573619D02*
X16810088Y-9580761D01*
X16810088Y-9580761D02*
X16817231Y-9595047D01*
X16817231Y-9595047D02*
X16817231Y-9630761D01*
X16817231Y-9630761D02*
X16810088Y-9645047D01*
X16810088Y-9645047D02*
X16802946Y-9652190D01*
X16802946Y-9652190D02*
X16788660Y-9659333D01*
X16788660Y-9659333D02*
X16752946Y-9659333D01*
X16752946Y-9659333D02*
X16738660Y-9652190D01*
X16738660Y-9652190D02*
X16731517Y-9645047D01*
X16988660Y-9502190D02*
X16860088Y-9695047D01*
X17117231Y-9659333D02*
X17031517Y-9659333D01*
X17074374Y-9659333D02*
X17074374Y-9509333D01*
X17074374Y-9509333D02*
X17060088Y-9530761D01*
X17060088Y-9530761D02*
X17045803Y-9545047D01*
X17045803Y-9545047D02*
X17031517Y-9552190D01*
X17260088Y-9659333D02*
X17174374Y-9659333D01*
X17217231Y-9659333D02*
X17217231Y-9509333D01*
X17217231Y-9509333D02*
X17202946Y-9530761D01*
X17202946Y-9530761D02*
X17188660Y-9545047D01*
X17188660Y-9545047D02*
X17174374Y-9552190D01*
D10*
D11*
X7700220Y-8750720D02*
X18500220Y-8750720D01*
D10*
D13*
X7869393Y-8821164D02*
X7983678Y-8821164D01*
X7901536Y-9021164D02*
X7926536Y-8821164D01*
X8025345Y-9021164D02*
X8042012Y-8887830D01*
X8050345Y-8821164D02*
X8039631Y-8830688D01*
X8039631Y-8830688D02*
X8047964Y-8840211D01*
X8047964Y-8840211D02*
X8058679Y-8830688D01*
X8058679Y-8830688D02*
X8050345Y-8821164D01*
X8050345Y-8821164D02*
X8047964Y-8840211D01*
X8108679Y-8887830D02*
X8184869Y-8887830D01*
X8145583Y-8821164D02*
X8124155Y-8992592D01*
X8124155Y-8992592D02*
X8131298Y-9011640D01*
X8131298Y-9011640D02*
X8149155Y-9021164D01*
X8149155Y-9021164D02*
X8168202Y-9021164D01*
X8263440Y-9021164D02*
X8245583Y-9011640D01*
X8245583Y-9011640D02*
X8238440Y-8992592D01*
X8238440Y-8992592D02*
X8259869Y-8821164D01*
X8417012Y-9011640D02*
X8396774Y-9021164D01*
X8396774Y-9021164D02*
X8358678Y-9021164D01*
X8358678Y-9021164D02*
X8340821Y-9011640D01*
X8340821Y-9011640D02*
X8333678Y-8992592D01*
X8333678Y-8992592D02*
X8343202Y-8916402D01*
X8343202Y-8916402D02*
X8355107Y-8897354D01*
X8355107Y-8897354D02*
X8375345Y-8887830D01*
X8375345Y-8887830D02*
X8413440Y-8887830D01*
X8413440Y-8887830D02*
X8431298Y-8897354D01*
X8431298Y-8897354D02*
X8438440Y-8916402D01*
X8438440Y-8916402D02*
X8436060Y-8935450D01*
X8436060Y-8935450D02*
X8338440Y-8954497D01*
X8513441Y-9002116D02*
X8521774Y-9011640D01*
X8521774Y-9011640D02*
X8511060Y-9021164D01*
X8511060Y-9021164D02*
X8502726Y-9011640D01*
X8502726Y-9011640D02*
X8513441Y-9002116D01*
X8513441Y-9002116D02*
X8511060Y-9021164D01*
X8526536Y-8897354D02*
X8534869Y-8906878D01*
X8534869Y-8906878D02*
X8524155Y-8916402D01*
X8524155Y-8916402D02*
X8515821Y-8906878D01*
X8515821Y-8906878D02*
X8526536Y-8897354D01*
X8526536Y-8897354D02*
X8524155Y-8916402D01*
D10*
D11*
X7895803Y-8560761D02*
X7845803Y-8560761D01*
X7845803Y-8639333D02*
X7845803Y-8489333D01*
X7845803Y-8489333D02*
X7917231Y-8489333D01*
X7974374Y-8639333D02*
X7974374Y-8539333D01*
X7974374Y-8489333D02*
X7967231Y-8496476D01*
X7967231Y-8496476D02*
X7974374Y-8503619D01*
X7974374Y-8503619D02*
X7981517Y-8496476D01*
X7981517Y-8496476D02*
X7974374Y-8489333D01*
X7974374Y-8489333D02*
X7974374Y-8503619D01*
X8067231Y-8639333D02*
X8052945Y-8632190D01*
X8052945Y-8632190D02*
X8045803Y-8617904D01*
X8045803Y-8617904D02*
X8045803Y-8489333D01*
X8181517Y-8632190D02*
X8167231Y-8639333D01*
X8167231Y-8639333D02*
X8138660Y-8639333D01*
X8138660Y-8639333D02*
X8124374Y-8632190D01*
X8124374Y-8632190D02*
X8117231Y-8617904D01*
X8117231Y-8617904D02*
X8117231Y-8560761D01*
X8117231Y-8560761D02*
X8124374Y-8546476D01*
X8124374Y-8546476D02*
X8138660Y-8539333D01*
X8138660Y-8539333D02*
X8167231Y-8539333D01*
X8167231Y-8539333D02*
X8181517Y-8546476D01*
X8181517Y-8546476D02*
X8188660Y-8560761D01*
X8188660Y-8560761D02*
X8188660Y-8575047D01*
X8188660Y-8575047D02*
X8117231Y-8589333D01*
X8252945Y-8625047D02*
X8260088Y-8632190D01*
X8260088Y-8632190D02*
X8252945Y-8639333D01*
X8252945Y-8639333D02*
X8245803Y-8632190D01*
X8245803Y-8632190D02*
X8252945Y-8625047D01*
X8252945Y-8625047D02*
X8252945Y-8639333D01*
X8252945Y-8546476D02*
X8260088Y-8553619D01*
X8260088Y-8553619D02*
X8252945Y-8560761D01*
X8252945Y-8560761D02*
X8245803Y-8553619D01*
X8245803Y-8553619D02*
X8252945Y-8546476D01*
X8252945Y-8546476D02*
X8252945Y-8560761D01*
X8424374Y-8539333D02*
X8460088Y-8639333D01*
X8460088Y-8639333D02*
X8495803Y-8539333D01*
X8574374Y-8639333D02*
X8560088Y-8632190D01*
X8560088Y-8632190D02*
X8552945Y-8625047D01*
X8552945Y-8625047D02*
X8545803Y-8610761D01*
X8545803Y-8610761D02*
X8545803Y-8567904D01*
X8545803Y-8567904D02*
X8552945Y-8553619D01*
X8552945Y-8553619D02*
X8560088Y-8546476D01*
X8560088Y-8546476D02*
X8574374Y-8539333D01*
X8574374Y-8539333D02*
X8595803Y-8539333D01*
X8595803Y-8539333D02*
X8610088Y-8546476D01*
X8610088Y-8546476D02*
X8617231Y-8553619D01*
X8617231Y-8553619D02*
X8624374Y-8567904D01*
X8624374Y-8567904D02*
X8624374Y-8610761D01*
X8624374Y-8610761D02*
X8617231Y-8625047D01*
X8617231Y-8625047D02*
X8610088Y-8632190D01*
X8610088Y-8632190D02*
X8595803Y-8639333D01*
X8595803Y-8639333D02*
X8574374Y-8639333D01*
X8688660Y-8639333D02*
X8688660Y-8539333D01*
X8688660Y-8489333D02*
X8681517Y-8496476D01*
X8681517Y-8496476D02*
X8688660Y-8503619D01*
X8688660Y-8503619D02*
X8695803Y-8496476D01*
X8695803Y-8496476D02*
X8688660Y-8489333D01*
X8688660Y-8489333D02*
X8688660Y-8503619D01*
X8824374Y-8632190D02*
X8810088Y-8639333D01*
X8810088Y-8639333D02*
X8781517Y-8639333D01*
X8781517Y-8639333D02*
X8767231Y-8632190D01*
X8767231Y-8632190D02*
X8760088Y-8625047D01*
X8760088Y-8625047D02*
X8752946Y-8610761D01*
X8752946Y-8610761D02*
X8752946Y-8567904D01*
X8752946Y-8567904D02*
X8760088Y-8553619D01*
X8760088Y-8553619D02*
X8767231Y-8546476D01*
X8767231Y-8546476D02*
X8781517Y-8539333D01*
X8781517Y-8539333D02*
X8810088Y-8539333D01*
X8810088Y-8539333D02*
X8824374Y-8546476D01*
X8945803Y-8632190D02*
X8931517Y-8639333D01*
X8931517Y-8639333D02*
X8902946Y-8639333D01*
X8902946Y-8639333D02*
X8888660Y-8632190D01*
X8888660Y-8632190D02*
X8881517Y-8617904D01*
X8881517Y-8617904D02*
X8881517Y-8560761D01*
X8881517Y-8560761D02*
X8888660Y-8546476D01*
X8888660Y-8546476D02*
X8902946Y-8539333D01*
X8902946Y-8539333D02*
X8931517Y-8539333D01*
X8931517Y-8539333D02*
X8945803Y-8546476D01*
X8945803Y-8546476D02*
X8952946Y-8560761D01*
X8952946Y-8560761D02*
X8952946Y-8575047D01*
X8952946Y-8575047D02*
X8881517Y-8589333D01*
X9017231Y-8639333D02*
X9017231Y-8539333D01*
X9017231Y-8553619D02*
X9024374Y-8546476D01*
X9024374Y-8546476D02*
X9038660Y-8539333D01*
X9038660Y-8539333D02*
X9060088Y-8539333D01*
X9060088Y-8539333D02*
X9074374Y-8546476D01*
X9074374Y-8546476D02*
X9081517Y-8560761D01*
X9081517Y-8560761D02*
X9081517Y-8639333D01*
X9081517Y-8560761D02*
X9088660Y-8546476D01*
X9088660Y-8546476D02*
X9102945Y-8539333D01*
X9102945Y-8539333D02*
X9124374Y-8539333D01*
X9124374Y-8539333D02*
X9138660Y-8546476D01*
X9138660Y-8546476D02*
X9145803Y-8560761D01*
X9145803Y-8560761D02*
X9145803Y-8639333D01*
X9281517Y-8639333D02*
X9281517Y-8560761D01*
X9281517Y-8560761D02*
X9274374Y-8546476D01*
X9274374Y-8546476D02*
X9260088Y-8539333D01*
X9260088Y-8539333D02*
X9231517Y-8539333D01*
X9231517Y-8539333D02*
X9217231Y-8546476D01*
X9281517Y-8632190D02*
X9267231Y-8639333D01*
X9267231Y-8639333D02*
X9231517Y-8639333D01*
X9231517Y-8639333D02*
X9217231Y-8632190D01*
X9217231Y-8632190D02*
X9210088Y-8617904D01*
X9210088Y-8617904D02*
X9210088Y-8603619D01*
X9210088Y-8603619D02*
X9217231Y-8589333D01*
X9217231Y-8589333D02*
X9231517Y-8582190D01*
X9231517Y-8582190D02*
X9267231Y-8582190D01*
X9267231Y-8582190D02*
X9281517Y-8575047D01*
X9352945Y-8639333D02*
X9352945Y-8539333D01*
X9352945Y-8489333D02*
X9345803Y-8496476D01*
X9345803Y-8496476D02*
X9352945Y-8503619D01*
X9352945Y-8503619D02*
X9360088Y-8496476D01*
X9360088Y-8496476D02*
X9352945Y-8489333D01*
X9352945Y-8489333D02*
X9352945Y-8503619D01*
X9445803Y-8639333D02*
X9431517Y-8632190D01*
X9431517Y-8632190D02*
X9424374Y-8617904D01*
X9424374Y-8617904D02*
X9424374Y-8489333D01*
X9502945Y-8582190D02*
X9617231Y-8582190D01*
X9688660Y-8639333D02*
X9688660Y-8489333D01*
X9688660Y-8546476D02*
X9702946Y-8539333D01*
X9702946Y-8539333D02*
X9731517Y-8539333D01*
X9731517Y-8539333D02*
X9745803Y-8546476D01*
X9745803Y-8546476D02*
X9752946Y-8553619D01*
X9752946Y-8553619D02*
X9760088Y-8567904D01*
X9760088Y-8567904D02*
X9760088Y-8610761D01*
X9760088Y-8610761D02*
X9752946Y-8625047D01*
X9752946Y-8625047D02*
X9745803Y-8632190D01*
X9745803Y-8632190D02*
X9731517Y-8639333D01*
X9731517Y-8639333D02*
X9702946Y-8639333D01*
X9702946Y-8639333D02*
X9688660Y-8632190D01*
X9845803Y-8639333D02*
X9831517Y-8632190D01*
X9831517Y-8632190D02*
X9824374Y-8625047D01*
X9824374Y-8625047D02*
X9817231Y-8610761D01*
X9817231Y-8610761D02*
X9817231Y-8567904D01*
X9817231Y-8567904D02*
X9824374Y-8553619D01*
X9824374Y-8553619D02*
X9831517Y-8546476D01*
X9831517Y-8546476D02*
X9845803Y-8539333D01*
X9845803Y-8539333D02*
X9867231Y-8539333D01*
X9867231Y-8539333D02*
X9881517Y-8546476D01*
X9881517Y-8546476D02*
X9888660Y-8553619D01*
X9888660Y-8553619D02*
X9895803Y-8567904D01*
X9895803Y-8567904D02*
X9895803Y-8610761D01*
X9895803Y-8610761D02*
X9888660Y-8625047D01*
X9888660Y-8625047D02*
X9881517Y-8632190D01*
X9881517Y-8632190D02*
X9867231Y-8639333D01*
X9867231Y-8639333D02*
X9845803Y-8639333D01*
X9945803Y-8639333D02*
X10024374Y-8539333D01*
X9945803Y-8539333D02*
X10024374Y-8639333D01*
X10081517Y-8625047D02*
X10088660Y-8632190D01*
X10088660Y-8632190D02*
X10081517Y-8639333D01*
X10081517Y-8639333D02*
X10074374Y-8632190D01*
X10074374Y-8632190D02*
X10081517Y-8625047D01*
X10081517Y-8625047D02*
X10081517Y-8639333D01*
X10152946Y-8639333D02*
X10152946Y-8489333D01*
X10167231Y-8582190D02*
X10210088Y-8639333D01*
X10210088Y-8539333D02*
X10152946Y-8596476D01*
X10274374Y-8639333D02*
X10274374Y-8539333D01*
X10274374Y-8489333D02*
X10267231Y-8496476D01*
X10267231Y-8496476D02*
X10274374Y-8503619D01*
X10274374Y-8503619D02*
X10281517Y-8496476D01*
X10281517Y-8496476D02*
X10274374Y-8489333D01*
X10274374Y-8489333D02*
X10274374Y-8503619D01*
X10410089Y-8632190D02*
X10395803Y-8639333D01*
X10395803Y-8639333D02*
X10367231Y-8639333D01*
X10367231Y-8639333D02*
X10352946Y-8632190D01*
X10352946Y-8632190D02*
X10345803Y-8625047D01*
X10345803Y-8625047D02*
X10338660Y-8610761D01*
X10338660Y-8610761D02*
X10338660Y-8567904D01*
X10338660Y-8567904D02*
X10345803Y-8553619D01*
X10345803Y-8553619D02*
X10352946Y-8546476D01*
X10352946Y-8546476D02*
X10367231Y-8539333D01*
X10367231Y-8539333D02*
X10395803Y-8539333D01*
X10395803Y-8539333D02*
X10410089Y-8546476D01*
X10538660Y-8639333D02*
X10538660Y-8560761D01*
X10538660Y-8560761D02*
X10531517Y-8546476D01*
X10531517Y-8546476D02*
X10517231Y-8539333D01*
X10517231Y-8539333D02*
X10488660Y-8539333D01*
X10488660Y-8539333D02*
X10474374Y-8546476D01*
X10538660Y-8632190D02*
X10524374Y-8639333D01*
X10524374Y-8639333D02*
X10488660Y-8639333D01*
X10488660Y-8639333D02*
X10474374Y-8632190D01*
X10474374Y-8632190D02*
X10467231Y-8617904D01*
X10467231Y-8617904D02*
X10467231Y-8603619D01*
X10467231Y-8603619D02*
X10474374Y-8589333D01*
X10474374Y-8589333D02*
X10488660Y-8582190D01*
X10488660Y-8582190D02*
X10524374Y-8582190D01*
X10524374Y-8582190D02*
X10538660Y-8575047D01*
X10674374Y-8639333D02*
X10674374Y-8489333D01*
X10674374Y-8632190D02*
X10660088Y-8639333D01*
X10660088Y-8639333D02*
X10631517Y-8639333D01*
X10631517Y-8639333D02*
X10617231Y-8632190D01*
X10617231Y-8632190D02*
X10610088Y-8625047D01*
X10610088Y-8625047D02*
X10602946Y-8610761D01*
X10602946Y-8610761D02*
X10602946Y-8567904D01*
X10602946Y-8567904D02*
X10610088Y-8553619D01*
X10610088Y-8553619D02*
X10617231Y-8546476D01*
X10617231Y-8546476D02*
X10631517Y-8539333D01*
X10631517Y-8539333D02*
X10660088Y-8539333D01*
X10660088Y-8539333D02*
X10674374Y-8546476D01*
X10710089Y-8653619D02*
X10824374Y-8653619D01*
X10860088Y-8539333D02*
X10860088Y-8689333D01*
X10860088Y-8546476D02*
X10874374Y-8539333D01*
X10874374Y-8539333D02*
X10902946Y-8539333D01*
X10902946Y-8539333D02*
X10917231Y-8546476D01*
X10917231Y-8546476D02*
X10924374Y-8553619D01*
X10924374Y-8553619D02*
X10931517Y-8567904D01*
X10931517Y-8567904D02*
X10931517Y-8610761D01*
X10931517Y-8610761D02*
X10924374Y-8625047D01*
X10924374Y-8625047D02*
X10917231Y-8632190D01*
X10917231Y-8632190D02*
X10902946Y-8639333D01*
X10902946Y-8639333D02*
X10874374Y-8639333D01*
X10874374Y-8639333D02*
X10860088Y-8632190D01*
X11060089Y-8632190D02*
X11045803Y-8639333D01*
X11045803Y-8639333D02*
X11017231Y-8639333D01*
X11017231Y-8639333D02*
X11002946Y-8632190D01*
X11002946Y-8632190D02*
X10995803Y-8625047D01*
X10995803Y-8625047D02*
X10988660Y-8610761D01*
X10988660Y-8610761D02*
X10988660Y-8567904D01*
X10988660Y-8567904D02*
X10995803Y-8553619D01*
X10995803Y-8553619D02*
X11002946Y-8546476D01*
X11002946Y-8546476D02*
X11017231Y-8539333D01*
X11017231Y-8539333D02*
X11045803Y-8539333D01*
X11045803Y-8539333D02*
X11060089Y-8546476D01*
X11124374Y-8639333D02*
X11124374Y-8489333D01*
X11124374Y-8546476D02*
X11138660Y-8539333D01*
X11138660Y-8539333D02*
X11167231Y-8539333D01*
X11167231Y-8539333D02*
X11181517Y-8546476D01*
X11181517Y-8546476D02*
X11188660Y-8553619D01*
X11188660Y-8553619D02*
X11195803Y-8567904D01*
X11195803Y-8567904D02*
X11195803Y-8610761D01*
X11195803Y-8610761D02*
X11188660Y-8625047D01*
X11188660Y-8625047D02*
X11181517Y-8632190D01*
X11181517Y-8632190D02*
X11167231Y-8639333D01*
X11167231Y-8639333D02*
X11138660Y-8639333D01*
X11138660Y-8639333D02*
X11124374Y-8632190D01*
D10*
D11*
X7700220Y-8150720D02*
X18500220Y-8150720D01*
D10*
D11*
X7838660Y-8362190D02*
X7860088Y-8369333D01*
X7860088Y-8369333D02*
X7895803Y-8369333D01*
X7895803Y-8369333D02*
X7910088Y-8362190D01*
X7910088Y-8362190D02*
X7917231Y-8355047D01*
X7917231Y-8355047D02*
X7924374Y-8340761D01*
X7924374Y-8340761D02*
X7924374Y-8326476D01*
X7924374Y-8326476D02*
X7917231Y-8312190D01*
X7917231Y-8312190D02*
X7910088Y-8305047D01*
X7910088Y-8305047D02*
X7895803Y-8297904D01*
X7895803Y-8297904D02*
X7867231Y-8290761D01*
X7867231Y-8290761D02*
X7852945Y-8283618D01*
X7852945Y-8283618D02*
X7845803Y-8276476D01*
X7845803Y-8276476D02*
X7838660Y-8262190D01*
X7838660Y-8262190D02*
X7838660Y-8247904D01*
X7838660Y-8247904D02*
X7845803Y-8233618D01*
X7845803Y-8233618D02*
X7852945Y-8226476D01*
X7852945Y-8226476D02*
X7867231Y-8219333D01*
X7867231Y-8219333D02*
X7902945Y-8219333D01*
X7902945Y-8219333D02*
X7924374Y-8226476D01*
X7988660Y-8369333D02*
X7988660Y-8219333D01*
X8052945Y-8369333D02*
X8052945Y-8290761D01*
X8052945Y-8290761D02*
X8045803Y-8276476D01*
X8045803Y-8276476D02*
X8031517Y-8269333D01*
X8031517Y-8269333D02*
X8010088Y-8269333D01*
X8010088Y-8269333D02*
X7995803Y-8276476D01*
X7995803Y-8276476D02*
X7988660Y-8283618D01*
X8181517Y-8362190D02*
X8167231Y-8369333D01*
X8167231Y-8369333D02*
X8138660Y-8369333D01*
X8138660Y-8369333D02*
X8124374Y-8362190D01*
X8124374Y-8362190D02*
X8117231Y-8347904D01*
X8117231Y-8347904D02*
X8117231Y-8290761D01*
X8117231Y-8290761D02*
X8124374Y-8276476D01*
X8124374Y-8276476D02*
X8138660Y-8269333D01*
X8138660Y-8269333D02*
X8167231Y-8269333D01*
X8167231Y-8269333D02*
X8181517Y-8276476D01*
X8181517Y-8276476D02*
X8188660Y-8290761D01*
X8188660Y-8290761D02*
X8188660Y-8305047D01*
X8188660Y-8305047D02*
X8117231Y-8319333D01*
X8310088Y-8362190D02*
X8295803Y-8369333D01*
X8295803Y-8369333D02*
X8267231Y-8369333D01*
X8267231Y-8369333D02*
X8252945Y-8362190D01*
X8252945Y-8362190D02*
X8245803Y-8347904D01*
X8245803Y-8347904D02*
X8245803Y-8290761D01*
X8245803Y-8290761D02*
X8252945Y-8276476D01*
X8252945Y-8276476D02*
X8267231Y-8269333D01*
X8267231Y-8269333D02*
X8295803Y-8269333D01*
X8295803Y-8269333D02*
X8310088Y-8276476D01*
X8310088Y-8276476D02*
X8317231Y-8290761D01*
X8317231Y-8290761D02*
X8317231Y-8305047D01*
X8317231Y-8305047D02*
X8245803Y-8319333D01*
X8360088Y-8269333D02*
X8417231Y-8269333D01*
X8381517Y-8219333D02*
X8381517Y-8347904D01*
X8381517Y-8347904D02*
X8388660Y-8362190D01*
X8388660Y-8362190D02*
X8402945Y-8369333D01*
X8402945Y-8369333D02*
X8417231Y-8369333D01*
X8467231Y-8355047D02*
X8474374Y-8362190D01*
X8474374Y-8362190D02*
X8467231Y-8369333D01*
X8467231Y-8369333D02*
X8460088Y-8362190D01*
X8460088Y-8362190D02*
X8467231Y-8355047D01*
X8467231Y-8355047D02*
X8467231Y-8369333D01*
X8467231Y-8276476D02*
X8474374Y-8283618D01*
X8474374Y-8283618D02*
X8467231Y-8290761D01*
X8467231Y-8290761D02*
X8460088Y-8283618D01*
X8460088Y-8283618D02*
X8467231Y-8276476D01*
X8467231Y-8276476D02*
X8467231Y-8290761D01*
D10*
D11*
X9700220Y-9150720D02*
X9700220Y-9450720D01*
D10*
D11*
X16100220Y-9150720D02*
X16100220Y-9800720D01*
D14*
%TO.C,U505*%
X11730000Y3974400D03*
X11770000Y3974400D03*
X11770000Y4012500D03*
X11730000Y4012500D03*
%TD*%
D15*
%TO.C,C522*%
X11837250Y4385000D03*
X12009750Y4385000D03*
%TD*%
D14*
%TO.C,U504*%
X11511000Y4200600D03*
X11471000Y4200600D03*
X11471000Y4162500D03*
X11511000Y4162500D03*
%TD*%
D15*
%TO.C,C608*%
X5203750Y-940000D03*
X5376250Y-940000D03*
%TD*%
D16*
%TO.C,R103*%
X-655000Y-2126250D03*
X-655000Y-1943750D03*
%TD*%
D15*
%TO.C,C510*%
X12112250Y5592500D03*
X12284750Y5592500D03*
%TD*%
D17*
%TO.C,LED804*%
X-440000Y-350625D03*
X-440000Y-190625D03*
%TD*%
D18*
%TO.C,R601*%
X4850000Y-1808750D03*
X4850000Y-1991250D03*
%TD*%
D19*
%TO.C,C602*%
X5556000Y19250D03*
X5556000Y-153250D03*
%TD*%
D16*
%TO.C,R102*%
X-3390000Y1963750D03*
X-3390000Y2146250D03*
%TD*%
D20*
%TO.C,C808*%
X1880000Y-2986250D03*
X1880000Y-3193750D03*
%TD*%
D15*
%TO.C,C814*%
X2153750Y-1110000D03*
X2326250Y-1110000D03*
%TD*%
D21*
%TO.C,C805*%
X2556250Y-3000000D03*
X2383750Y-3000000D03*
%TD*%
D19*
%TO.C,C512*%
X12013500Y4868750D03*
X12013500Y4696250D03*
%TD*%
D22*
%TO.C,C521*%
X11341000Y4353750D03*
X11341000Y4526250D03*
%TD*%
D23*
%TO.C,C401*%
X-4810000Y535000D03*
X-4602500Y535000D03*
%TD*%
D24*
%TO.C,R811*%
X1278750Y-970000D03*
X1461250Y-970000D03*
%TD*%
%TO.C,R608*%
X4848750Y-2148750D03*
X5031250Y-2148750D03*
%TD*%
D15*
%TO.C,C618*%
X7163750Y-1956825D03*
X7336250Y-1956825D03*
%TD*%
D16*
%TO.C,R106*%
X-600000Y1408750D03*
X-600000Y1591250D03*
%TD*%
D25*
%TO.C,R805*%
X71250Y-1990000D03*
X-111250Y-1990000D03*
%TD*%
D26*
%TO.C,L701*%
X2385000Y-3150000D03*
X2560000Y-3150000D03*
%TD*%
D27*
%TO.C,J605*%
X3980000Y-3560000D03*
D28*
X3980000Y-3840000D03*
D27*
X4720000Y-3750000D03*
D29*
X4720000Y-2810000D03*
D30*
X4275000Y-2410000D03*
%TD*%
D26*
%TO.C,L502*%
X11498500Y4537500D03*
X11673500Y4537500D03*
%TD*%
D31*
%TO.C,RN402*%
X-1680000Y1370000D03*
D32*
X-1600000Y1370000D03*
X-1520000Y1370000D03*
D31*
X-1440000Y1370000D03*
X-1440000Y1550000D03*
D32*
X-1520000Y1550000D03*
X-1600000Y1550000D03*
D31*
X-1680000Y1550000D03*
%TD*%
D33*
%TO.C,R503*%
X11416000Y3842500D03*
X11416000Y3642500D03*
%TD*%
D18*
%TO.C,R801*%
X-440000Y-609375D03*
X-440000Y-791875D03*
%TD*%
D15*
%TO.C,C811*%
X993750Y-1360000D03*
X1166250Y-1360000D03*
%TD*%
D34*
%TO.C,R505*%
X12071000Y3455000D03*
X12271000Y3455000D03*
%TD*%
D21*
%TO.C,C506*%
X11092250Y5085000D03*
X10919750Y5085000D03*
%TD*%
%TO.C,C534*%
X12287250Y5437500D03*
X12114750Y5437500D03*
%TD*%
D22*
%TO.C,C621*%
X6730000Y-3036250D03*
X6730000Y-2863750D03*
%TD*%
D15*
%TO.C,C523*%
X11499750Y4385000D03*
X11672250Y4385000D03*
%TD*%
D22*
%TO.C,C528*%
X12258500Y3675000D03*
X12258500Y3847500D03*
%TD*%
D35*
%TO.C,R501*%
X12436000Y5110000D03*
X12236000Y5110000D03*
%TD*%
D18*
%TO.C,R604*%
X7000000Y-1935575D03*
X7000000Y-2118075D03*
%TD*%
D19*
%TO.C,C612*%
X5000000Y-1813750D03*
X5000000Y-1986250D03*
%TD*%
D18*
%TO.C,R612*%
X3340000Y-2212500D03*
X3340000Y-2395000D03*
%TD*%
D14*
%TO.C,U506*%
X12036000Y4202500D03*
X11996000Y4202500D03*
X11996000Y4164400D03*
X12036000Y4164400D03*
%TD*%
D36*
%TO.C,D502*%
X11836000Y3642500D03*
X11646000Y3642500D03*
X11741000Y3415000D03*
%TD*%
D18*
%TO.C,R611*%
X5590000Y-978750D03*
X5590000Y-1161250D03*
%TD*%
D37*
%TO.C,U601*%
X5720000Y-475000D03*
X5565000Y-475000D03*
X5720000Y-630000D03*
X5565000Y-630000D03*
D38*
X5817500Y-308750D03*
X5767500Y-308750D03*
X5717500Y-308750D03*
X5667500Y-308750D03*
X5617500Y-308750D03*
X5567500Y-308750D03*
X5517500Y-308750D03*
X5467500Y-308750D03*
D39*
X5398750Y-377500D03*
X5398750Y-427500D03*
X5398750Y-477500D03*
X5398750Y-527500D03*
X5398750Y-577500D03*
X5398750Y-627500D03*
X5398750Y-677500D03*
X5398750Y-727500D03*
D38*
X5467500Y-796250D03*
X5517500Y-796250D03*
X5567500Y-796250D03*
X5617500Y-796250D03*
X5667500Y-796250D03*
X5717500Y-796250D03*
X5767500Y-796250D03*
X5817500Y-796250D03*
D39*
X5886250Y-727500D03*
X5886250Y-677500D03*
X5886250Y-627500D03*
X5886250Y-577500D03*
X5886250Y-527500D03*
X5886250Y-477500D03*
X5886250Y-427500D03*
X5886250Y-377500D03*
%TD*%
D15*
%TO.C,C619*%
X7163750Y-2116825D03*
X7336250Y-2116825D03*
%TD*%
%TO.C,C511*%
X12112250Y5747500D03*
X12284750Y5747500D03*
%TD*%
D22*
%TO.C,C504*%
X11261000Y5476250D03*
X11261000Y5648750D03*
%TD*%
D24*
%TO.C,R813*%
X3018750Y-960000D03*
X3201250Y-960000D03*
%TD*%
D22*
%TO.C,C533*%
X12258500Y4012500D03*
X12258500Y4185000D03*
%TD*%
D40*
%TO.C,Y501*%
X10943500Y5240000D03*
X11088500Y5240000D03*
X11088500Y5355000D03*
X10943500Y5355000D03*
%TD*%
D19*
%TO.C,C807*%
X1700000Y-2983750D03*
X1700000Y-3156250D03*
%TD*%
D41*
%TO.C,J701*%
X2090000Y-3542000D03*
D42*
X2292000Y-3542000D03*
D43*
X2415000Y-3542000D03*
D41*
X2190000Y-3542000D03*
D42*
X1988000Y-3542000D03*
D43*
X1865000Y-3542000D03*
%TD*%
D24*
%TO.C,R808*%
X988750Y-1610000D03*
X1171250Y-1610000D03*
%TD*%
D21*
%TO.C,C617*%
X6386250Y-2116825D03*
X6213750Y-2116825D03*
%TD*%
D44*
%TO.C,R301*%
X-5520000Y-4020000D03*
X-5520000Y-3820000D03*
%TD*%
D18*
%TO.C,R802*%
X-70000Y-608750D03*
X-70000Y-791250D03*
%TD*%
D19*
%TO.C,C615*%
X5152000Y-1814750D03*
X5152000Y-1987250D03*
%TD*%
%TO.C,C520*%
X12168500Y4532500D03*
X12168500Y4360000D03*
%TD*%
D15*
%TO.C,C815*%
X3023750Y-1110000D03*
X3196250Y-1110000D03*
%TD*%
D22*
%TO.C,C502*%
X10763500Y5246250D03*
X10763500Y5418750D03*
%TD*%
D21*
%TO.C,C508*%
X11092250Y4925000D03*
X10919750Y4925000D03*
%TD*%
D15*
%TO.C,C609*%
X5203750Y-1090000D03*
X5376250Y-1090000D03*
%TD*%
D45*
%TO.C,U801*%
X282500Y-1359000D03*
X282500Y-1486000D03*
X282500Y-1613000D03*
X282500Y-1740000D03*
X282500Y-1867000D03*
X282500Y-1994000D03*
X282500Y-2121000D03*
X777500Y-2121000D03*
X777500Y-1994000D03*
X777500Y-1867000D03*
X777500Y-1740000D03*
X777500Y-1613000D03*
X777500Y-1486000D03*
X777500Y-1359000D03*
%TD*%
D18*
%TO.C,R602*%
X4330000Y-1808750D03*
X4330000Y-1991250D03*
%TD*%
D24*
%TO.C,R814*%
X408750Y-960000D03*
X591250Y-960000D03*
%TD*%
D16*
%TO.C,R702*%
X2060000Y-3181250D03*
X2060000Y-2998750D03*
%TD*%
D19*
%TO.C,C809*%
X2380000Y-1723750D03*
X2380000Y-1896250D03*
%TD*%
D18*
%TO.C,R605*%
X6850000Y-1935575D03*
X6850000Y-2118075D03*
%TD*%
D15*
%TO.C,C526*%
X11667250Y4232500D03*
X11839750Y4232500D03*
%TD*%
D21*
%TO.C,C620*%
X4326250Y-1530000D03*
X4153750Y-1530000D03*
%TD*%
D35*
%TO.C,R303*%
X-4465000Y-1210000D03*
X-4665000Y-1210000D03*
%TD*%
D31*
%TO.C,RN401*%
X-2299401Y6530250D03*
D32*
X-2219401Y6530250D03*
X-2139401Y6530250D03*
D31*
X-2059401Y6530250D03*
X-2059401Y6710250D03*
D32*
X-2139401Y6710250D03*
X-2219401Y6710250D03*
D31*
X-2299401Y6710250D03*
%TD*%
D21*
%TO.C,C501*%
X11089750Y5530000D03*
X10917250Y5530000D03*
%TD*%
D19*
%TO.C,C514*%
X11493500Y4863750D03*
X11493500Y4691250D03*
%TD*%
%TO.C,C601*%
X5401000Y19250D03*
X5401000Y-153250D03*
%TD*%
D27*
%TO.C,J602*%
X5120000Y-3560000D03*
D28*
X5120000Y-3840000D03*
D27*
X5860000Y-3750000D03*
D29*
X5860000Y-2810000D03*
D30*
X5415000Y-2410000D03*
%TD*%
D15*
%TO.C,C524*%
X11399750Y4008950D03*
X11572250Y4008950D03*
%TD*%
D44*
%TO.C,R506*%
X-1200000Y6500000D03*
X-1200000Y6700000D03*
%TD*%
D19*
%TO.C,C614*%
X4030000Y-1813750D03*
X4030000Y-1986250D03*
%TD*%
D21*
%TO.C,C516*%
X11092250Y4760000D03*
X10919750Y4760000D03*
%TD*%
D46*
%TO.C,U702*%
X1980000Y-1720000D03*
X1980000Y-1815000D03*
X1980000Y-1910000D03*
X2207500Y-1910000D03*
X2207500Y-1720000D03*
%TD*%
D20*
%TO.C,C806*%
X2740000Y-2996250D03*
X2740000Y-3203750D03*
%TD*%
D21*
%TO.C,C603*%
X6216250Y-40000D03*
X6043750Y-40000D03*
%TD*%
D18*
%TO.C,R610*%
X5740000Y-978750D03*
X5740000Y-1161250D03*
%TD*%
D25*
%TO.C,R609*%
X4331250Y-2150000D03*
X4148750Y-2150000D03*
%TD*%
D22*
%TO.C,C605*%
X5900000Y-1126250D03*
X5900000Y-953750D03*
%TD*%
D16*
%TO.C,R101*%
X-3130000Y1963750D03*
X-3130000Y2146250D03*
%TD*%
D22*
%TO.C,C519*%
X10604000Y4754750D03*
X10604000Y4927250D03*
%TD*%
%TO.C,C606*%
X6050000Y-1126250D03*
X6050000Y-953750D03*
%TD*%
%TO.C,C622*%
X6880000Y-3036250D03*
X6880000Y-2863750D03*
%TD*%
%TO.C,C503*%
X11433500Y5666250D03*
X11433500Y5838750D03*
%TD*%
D36*
%TO.C,Q501*%
X12708500Y4656250D03*
X12518500Y4656250D03*
X12613500Y4428750D03*
%TD*%
D17*
%TO.C,LED801*%
X-70000Y-350000D03*
X-70000Y-190000D03*
%TD*%
D22*
%TO.C,C509*%
X10451000Y4753750D03*
X10451000Y4926250D03*
%TD*%
D47*
%TO.C,U301*%
X-5863500Y-3615000D03*
X-5736500Y-3615000D03*
X-5609500Y-3615000D03*
X-5482500Y-3615000D03*
X-5355500Y-3615000D03*
X-5228500Y-3615000D03*
X-5101500Y-3615000D03*
X-4974500Y-3615000D03*
X-4847500Y-3615000D03*
X-4720500Y-3615000D03*
X-4593500Y-3615000D03*
X-4466500Y-3615000D03*
X-4339500Y-3615000D03*
X-4212500Y-3615000D03*
D48*
X-4087500Y-3311000D03*
X-4087500Y-3184000D03*
X-4087500Y-3057000D03*
X-4087500Y-2930000D03*
X-4087500Y-2803000D03*
X-4087500Y-2676000D03*
X-4087500Y-2549000D03*
X-4087500Y-2422000D03*
X-4087500Y-2295000D03*
X-4087500Y-2168000D03*
D47*
X-4212500Y-1865000D03*
X-4339500Y-1865000D03*
X-4466500Y-1865000D03*
X-4593500Y-1865000D03*
X-4720500Y-1865000D03*
X-4847500Y-1865000D03*
X-4974500Y-1865000D03*
X-5101500Y-1865000D03*
X-5228500Y-1865000D03*
X-5355500Y-1865000D03*
X-5482500Y-1865000D03*
X-5609500Y-1865000D03*
X-5736500Y-1865000D03*
X-5863500Y-1865000D03*
D49*
X-5282000Y-2960500D03*
X-5129500Y-2960500D03*
X-4977000Y-2960500D03*
X-5282000Y-2808000D03*
X-5129500Y-2808000D03*
X-4977000Y-2808000D03*
X-5282000Y-2655500D03*
X-5129500Y-2655500D03*
X-4977000Y-2655500D03*
%TD*%
D50*
%TO.C,U503*%
X12358500Y4417500D03*
X12358500Y4457500D03*
X12320400Y4457500D03*
X12320400Y4417500D03*
%TD*%
D23*
%TO.C,C302*%
X-1142650Y-450388D03*
X-935150Y-450388D03*
%TD*%
D15*
%TO.C,C813*%
X1283750Y-1120000D03*
X1456250Y-1120000D03*
%TD*%
D23*
%TO.C,C610*%
X5556250Y-1560000D03*
X5763750Y-1560000D03*
%TD*%
D21*
%TO.C,C616*%
X6386250Y-1956825D03*
X6213750Y-1956825D03*
%TD*%
D50*
%TO.C,U502*%
X11190050Y4417500D03*
X11190050Y4457500D03*
X11151950Y4457500D03*
X11151950Y4417500D03*
%TD*%
D23*
%TO.C,C611*%
X5552500Y-1350000D03*
X5760000Y-1350000D03*
%TD*%
D22*
%TO.C,C505*%
X12446000Y5291250D03*
X12446000Y5463750D03*
%TD*%
%TO.C,C518*%
X10757000Y4753250D03*
X10757000Y4925750D03*
%TD*%
D24*
%TO.C,R809*%
X-111250Y-1610000D03*
X71250Y-1610000D03*
%TD*%
D51*
%TO.C,L501*%
X12011000Y4537500D03*
X11836000Y4537500D03*
%TD*%
D52*
%TO.C,U501*%
X11585500Y5354000D03*
X11585500Y5179000D03*
X11760500Y5354000D03*
X11760500Y5179000D03*
D53*
X11429250Y5441500D03*
X11429250Y5391500D03*
X11429250Y5341500D03*
X11429250Y5291500D03*
X11429250Y5241500D03*
X11429250Y5191500D03*
X11429250Y5141500D03*
X11429250Y5091500D03*
D54*
X11498000Y5022750D03*
X11548000Y5022750D03*
X11598000Y5022750D03*
X11648000Y5022750D03*
X11698000Y5022750D03*
X11748000Y5022750D03*
X11798000Y5022750D03*
X11848000Y5022750D03*
D53*
X11916750Y5091500D03*
X11916750Y5141500D03*
X11916750Y5191500D03*
X11916750Y5241500D03*
X11916750Y5291500D03*
X11916750Y5341500D03*
X11916750Y5391500D03*
X11916750Y5441500D03*
D54*
X11848000Y5510250D03*
X11798000Y5510250D03*
X11748000Y5510250D03*
X11698000Y5510250D03*
X11648000Y5510250D03*
X11598000Y5510250D03*
X11548000Y5510250D03*
X11498000Y5510250D03*
%TD*%
D55*
%TO.C,J401*%
X-5010401Y205750D03*
X-5010401Y315750D03*
X-5010401Y425750D03*
X-5010401Y535750D03*
X-5010401Y645750D03*
X-5010401Y755750D03*
X-5010401Y865750D03*
X-5010401Y975750D03*
X-5010401Y1070750D03*
D56*
X-6060401Y1165750D03*
D57*
X-5440401Y1165750D03*
D58*
X-6475401Y1165750D03*
D57*
X-5010401Y50750D03*
D59*
X-6520401Y-184250D03*
%TD*%
D25*
%TO.C,R603*%
X6221250Y-340000D03*
X6038750Y-340000D03*
%TD*%
D60*
%TO.C,C301*%
X-5716250Y-3830000D03*
X-5923750Y-3830000D03*
%TD*%
D21*
%TO.C,C507*%
X10754750Y5085000D03*
X10582250Y5085000D03*
%TD*%
%TO.C,C532*%
X12287250Y5285000D03*
X12114750Y5285000D03*
%TD*%
D24*
%TO.C,R806*%
X988750Y-2120000D03*
X1171250Y-2120000D03*
%TD*%
D22*
%TO.C,C607*%
X6200000Y-1126250D03*
X6200000Y-953750D03*
%TD*%
D44*
%TO.C,R302*%
X-4274000Y-1600000D03*
X-4274000Y-1400000D03*
%TD*%
D19*
%TO.C,C517*%
X10996000Y4583750D03*
X10996000Y4411250D03*
%TD*%
D16*
%TO.C,R107*%
X-340000Y1408750D03*
X-340000Y1591250D03*
%TD*%
D15*
%TO.C,C810*%
X2383750Y-3300000D03*
X2556250Y-3300000D03*
%TD*%
D21*
%TO.C,C525*%
X12098750Y4008450D03*
X11926250Y4008450D03*
%TD*%
D33*
%TO.C,R504*%
X12081000Y3842500D03*
X12081000Y3642500D03*
%TD*%
D19*
%TO.C,C515*%
X11341000Y4863750D03*
X11341000Y4691250D03*
%TD*%
%TO.C,C613*%
X4180000Y-1813750D03*
X4180000Y-1986250D03*
%TD*%
D34*
%TO.C,R507*%
X-4810000Y1170000D03*
X-4610000Y1170000D03*
%TD*%
D61*
%TO.C,SW601*%
X5412500Y-1749500D03*
X5412500Y-1876500D03*
X5412500Y-2003500D03*
X5412500Y-2130500D03*
X5947500Y-2130500D03*
X5947500Y-2003500D03*
X5947500Y-1876500D03*
X5947500Y-1749500D03*
%TD*%
D16*
%TO.C,R701*%
X2220000Y-3181250D03*
X2220000Y-2998750D03*
%TD*%
D24*
%TO.C,R810*%
X-111250Y-1360000D03*
X71250Y-1360000D03*
%TD*%
%TO.C,R812*%
X2148750Y-960000D03*
X2331250Y-960000D03*
%TD*%
D22*
%TO.C,C531*%
X11241000Y4015000D03*
X11241000Y4187500D03*
%TD*%
D18*
%TO.C,R607*%
X6700000Y-1935575D03*
X6700000Y-2118075D03*
%TD*%
D21*
%TO.C,C604*%
X6216250Y-190000D03*
X6043750Y-190000D03*
%TD*%
D18*
%TO.C,R606*%
X6550000Y-1935575D03*
X6550000Y-2118075D03*
%TD*%
D34*
%TO.C,R502*%
X12178500Y4852500D03*
X12378500Y4852500D03*
%TD*%
D19*
%TO.C,C527*%
X11241000Y3850000D03*
X11241000Y3677500D03*
%TD*%
D62*
%TO.C,U602*%
X6869000Y-2443000D03*
X6751000Y-2443000D03*
X6869000Y-2532000D03*
X6751000Y-2532000D03*
D63*
X6930000Y-2338750D03*
X6890000Y-2338750D03*
X6850000Y-2338750D03*
X6810000Y-2338750D03*
X6770000Y-2338750D03*
X6730000Y-2338750D03*
X6690000Y-2338750D03*
X6690000Y-2636250D03*
X6730000Y-2636250D03*
X6770000Y-2636250D03*
X6810000Y-2636250D03*
X6850000Y-2636250D03*
X6890000Y-2636250D03*
X6930000Y-2636250D03*
%TD*%
D15*
%TO.C,C812*%
X413750Y-1110000D03*
X586250Y-1110000D03*
%TD*%
D19*
%TO.C,C513*%
X10840000Y4582750D03*
X10840000Y4410250D03*
%TD*%
D24*
%TO.C,R807*%
X987500Y-1870000D03*
X1170000Y-1870000D03*
%TD*%
M02*
