%TF.GenerationSoftware,KiCad,Pcbnew,9.0.1*%
%TF.CreationDate,2025-04-25T11:11:10+02:00*%
%TF.ProjectId,voicemail-box,766f6963-656d-4616-996c-2d626f782e6b,rev?*%
%TF.SameCoordinates,PX5f5e100PY5f5e100*%
%TF.FileFunction,Soldermask,Top*%
%TF.FilePolarity,Negative*%
%FSLAX45Y45*%
G04 Gerber Fmt 4.5, Leading zero omitted, Abs format (unit mm)*
G04 Created by KiCad (PCBNEW 9.0.1) date 2025-04-25 11:11:10*
%MOMM*%
%LPD*%
G01*
G04 APERTURE LIST*
G04 Aperture macros list*
%AMRoundRect*
0 Rectangle with rounded corners*
0 $1 Rounding radius*
0 $2 $3 $4 $5 $6 $7 $8 $9 X,Y pos of 4 corners*
0 Add a 4 corners polygon primitive as box body*
4,1,4,$2,$3,$4,$5,$6,$7,$8,$9,$2,$3,0*
0 Add four circle primitives for the rounded corners*
1,1,$1+$1,$2,$3*
1,1,$1+$1,$4,$5*
1,1,$1+$1,$6,$7*
1,1,$1+$1,$8,$9*
0 Add four rect primitives between the rounded corners*
20,1,$1+$1,$2,$3,$4,$5,0*
20,1,$1+$1,$4,$5,$6,$7,0*
20,1,$1+$1,$6,$7,$8,$9,0*
20,1,$1+$1,$8,$9,$2,$3,0*%
G04 Aperture macros list end*
%ADD10C,0.300000*%
%ADD11R,0.228600X0.279400*%
%ADD12RoundRect,0.237500X-0.300000X-0.237500X0.300000X-0.237500X0.300000X0.237500X-0.300000X0.237500X0*%
%ADD13C,2.000000*%
%ADD14R,1.000000X1.000000*%
%ADD15R,1.700000X1.700000*%
%ADD16C,1.700000*%
%ADD17R,1.000000X0.820000*%
%ADD18RoundRect,0.237500X-0.237500X0.250000X-0.237500X-0.250000X0.237500X-0.250000X0.237500X0.250000X0*%
%ADD19RoundRect,0.237500X-0.237500X0.300000X-0.237500X-0.300000X0.237500X-0.300000X0.237500X0.300000X0*%
%ADD20RoundRect,0.250000X-0.475000X0.337500X-0.475000X-0.337500X0.475000X-0.337500X0.475000X0.337500X0*%
%ADD21RoundRect,0.237500X0.300000X0.237500X-0.300000X0.237500X-0.300000X-0.237500X0.300000X-0.237500X0*%
%ADD22RoundRect,0.237500X0.237500X-0.300000X0.237500X0.300000X-0.237500X0.300000X-0.237500X-0.300000X0*%
%ADD23RoundRect,0.250000X-0.337500X-0.475000X0.337500X-0.475000X0.337500X0.475000X-0.337500X0.475000X0*%
%ADD24RoundRect,0.237500X-0.250000X-0.237500X0.250000X-0.237500X0.250000X0.237500X-0.250000X0.237500X0*%
%ADD25R,3.000000X3.000000*%
%ADD26C,3.000000*%
%ADD27RoundRect,0.237500X0.237500X-0.250000X0.237500X0.250000X-0.237500X0.250000X-0.237500X-0.250000X0*%
%ADD28RoundRect,0.237500X0.250000X0.237500X-0.250000X0.237500X-0.250000X-0.237500X0.250000X-0.237500X0*%
%ADD29RoundRect,0.237500X-0.287500X-0.237500X0.287500X-0.237500X0.287500X0.237500X-0.287500X0.237500X0*%
%ADD30R,2.800000X2.200000*%
%ADD31R,2.800000X2.000000*%
%ADD32R,2.800000X2.800000*%
%ADD33R,2.800000X2.600000*%
%ADD34R,0.500000X0.800000*%
%ADD35R,0.400000X0.800000*%
%ADD36RoundRect,0.250000X-0.450000X0.350000X-0.450000X-0.350000X0.450000X-0.350000X0.450000X0.350000X0*%
%ADD37O,1.700000X1.700000*%
%ADD38RoundRect,0.250000X-0.350000X-0.450000X0.350000X-0.450000X0.350000X0.450000X-0.350000X0.450000X0*%
%ADD39RoundRect,0.250000X0.350000X0.450000X-0.350000X0.450000X-0.350000X-0.450000X0.350000X-0.450000X0*%
%ADD40RoundRect,0.150000X-0.150000X0.512500X-0.150000X-0.512500X0.150000X-0.512500X0.150000X0.512500X0*%
%ADD41RoundRect,0.062500X-0.062500X0.375000X-0.062500X-0.375000X0.062500X-0.375000X0.062500X0.375000X0*%
%ADD42RoundRect,0.062500X-0.375000X0.062500X-0.375000X-0.062500X0.375000X-0.062500X0.375000X0.062500X0*%
%ADD43R,3.100000X3.100000*%
%ADD44RoundRect,0.102000X-0.373000X-0.323000X0.373000X-0.323000X0.373000X0.323000X-0.373000X0.323000X0*%
%ADD45RoundRect,0.175000X-0.175000X-0.625000X0.175000X-0.625000X0.175000X0.625000X-0.175000X0.625000X0*%
%ADD46RoundRect,0.200000X-0.200000X-0.600000X0.200000X-0.600000X0.200000X0.600000X-0.200000X0.600000X0*%
%ADD47RoundRect,0.225000X-0.225000X-0.575000X0.225000X-0.575000X0.225000X0.575000X-0.225000X0.575000X0*%
%ADD48O,1.000000X1.700000*%
%ADD49RoundRect,0.250000X0.450000X-0.350000X0.450000X0.350000X-0.450000X0.350000X-0.450000X-0.350000X0*%
%ADD50RoundRect,0.150000X-0.825000X-0.150000X0.825000X-0.150000X0.825000X0.150000X-0.825000X0.150000X0*%
%ADD51R,1.700000X2.500000*%
%ADD52O,1.700000X2.500000*%
%ADD53RoundRect,0.250000X-0.650000X-1.550000X0.650000X-1.550000X0.650000X1.550000X-0.650000X1.550000X0*%
%ADD54O,1.800000X3.600000*%
%ADD55RoundRect,0.150000X-0.512500X-0.150000X0.512500X-0.150000X0.512500X0.150000X-0.512500X0.150000X0*%
%ADD56R,0.900000X1.500000*%
%ADD57R,1.500000X0.900000*%
%ADD58C,0.600000*%
%ADD59R,4.200000X4.200000*%
%ADD60R,0.279400X0.228600*%
%ADD61RoundRect,0.237500X0.287500X0.237500X-0.287500X0.237500X-0.287500X-0.237500X0.287500X-0.237500X0*%
%ADD62RoundRect,0.062500X-0.375000X-0.062500X0.375000X-0.062500X0.375000X0.062500X-0.375000X0.062500X0*%
%ADD63RoundRect,0.062500X-0.062500X-0.375000X0.062500X-0.375000X0.062500X0.375000X-0.062500X0.375000X0*%
%ADD64R,3.500000X3.500000*%
%ADD65R,1.200000X0.700000*%
%ADD66R,0.800000X1.000000*%
%ADD67R,1.200000X1.000000*%
%ADD68R,2.800000X1.000000*%
%ADD69R,1.900000X1.300000*%
%ADD70RoundRect,0.250000X0.337500X0.475000X-0.337500X0.475000X-0.337500X-0.475000X0.337500X-0.475000X0*%
%ADD71C,1.000000*%
%ADD72RoundRect,0.150000X-0.625000X-0.150000X0.625000X-0.150000X0.625000X0.150000X-0.625000X0.150000X0*%
%ADD73RoundRect,0.050000X-0.050000X0.337500X-0.050000X-0.337500X0.050000X-0.337500X0.050000X0.337500X0*%
%ADD74R,2.350000X1.780000*%
%ADD75R,1.600000X1.600000*%
%ADD76O,1.600000X1.600000*%
%ADD77C,4.500000*%
G04 APERTURE END LIST*
D10*
X11900550Y-816450D02*
G75*
G02*
X11870550Y-816450I-15000J0D01*
G01*
X11870550Y-816450D02*
G75*
G02*
X11900550Y-816450I15000J0D01*
G01*
X11611900Y-944400D02*
G75*
G02*
X11581900Y-944400I-15000J0D01*
G01*
X11581900Y-944400D02*
G75*
G02*
X11611900Y-944400I15000J0D01*
G01*
X11611450Y-692350D02*
G75*
G02*
X11581450Y-692350I-15000J0D01*
G01*
X11581450Y-692350D02*
G75*
G02*
X11611450Y-692350I15000J0D01*
G01*
X11901000Y-1068500D02*
G75*
G02*
X11871000Y-1068500I-15000J0D01*
G01*
X11871000Y-1068500D02*
G75*
G02*
X11901000Y-1068500I15000J0D01*
G01*
G36*
X9888395Y-3223586D02*
G01*
X9894729Y-3234056D01*
X9889005Y-3238119D01*
X9885083Y-3238314D01*
X9883632Y-3233417D01*
X9877221Y-3228288D01*
X9866046Y-3231952D01*
X9861666Y-3241484D01*
X9863543Y-3253506D01*
X9873801Y-3260162D01*
X9883937Y-3256132D01*
X9888098Y-3250810D01*
X9891020Y-3251369D01*
X9894691Y-3257472D01*
X9886685Y-3267245D01*
X9875642Y-3270327D01*
X9863787Y-3267367D01*
X9854829Y-3259873D01*
X9851453Y-3244591D01*
X9854829Y-3229309D01*
X9863787Y-3221816D01*
X9877943Y-3218509D01*
X9888395Y-3223586D01*
G37*
G36*
X9839119Y-3221999D02*
G01*
X9842502Y-3227548D01*
X9844187Y-3243798D01*
X9844980Y-3262238D01*
X9851701Y-3263861D01*
X9847606Y-3268527D01*
X9842233Y-3270298D01*
X9836615Y-3268344D01*
X9830265Y-3267428D01*
X9818813Y-3269995D01*
X9809993Y-3265596D01*
X9805519Y-3257079D01*
X9806269Y-3254544D01*
X9816160Y-3254544D01*
X9818236Y-3259856D01*
X9823487Y-3260895D01*
X9830959Y-3256840D01*
X9833257Y-3250209D01*
X9833135Y-3248072D01*
X9829593Y-3247950D01*
X9819459Y-3249924D01*
X9816160Y-3254544D01*
X9806269Y-3254544D01*
X9808222Y-3247950D01*
X9816347Y-3240985D01*
X9829593Y-3238424D01*
X9833257Y-3236226D01*
X9831569Y-3230632D01*
X9826479Y-3227616D01*
X9820853Y-3228032D01*
X9817442Y-3232746D01*
X9810542Y-3235188D01*
X9808710Y-3227433D01*
X9816282Y-3220350D01*
X9828073Y-3217773D01*
X9839119Y-3221999D01*
G37*
G36*
X10095879Y-3228532D02*
G01*
X10093314Y-3238058D01*
X10089487Y-3238044D01*
X10085315Y-3232929D01*
X10075363Y-3228349D01*
X10066509Y-3236898D01*
X10066326Y-3252651D01*
X10077255Y-3259429D01*
X10084597Y-3257903D01*
X10086476Y-3254361D01*
X10087987Y-3250901D01*
X10093131Y-3251064D01*
X10097916Y-3255012D01*
X10091238Y-3265596D01*
X10076523Y-3270298D01*
X10061868Y-3265596D01*
X10055631Y-3254911D01*
X10054297Y-3238668D01*
X10058751Y-3228042D01*
X10065043Y-3221938D01*
X10082629Y-3219617D01*
X10095879Y-3228532D01*
G37*
G36*
X10233752Y-3223320D02*
G01*
X10237234Y-3228716D01*
X10235403Y-3238058D01*
X10228014Y-3232929D01*
X10218061Y-3228349D01*
X10209208Y-3236898D01*
X10209024Y-3252651D01*
X10219954Y-3259429D01*
X10227296Y-3257903D01*
X10229174Y-3254361D01*
X10230510Y-3250611D01*
X10234548Y-3251064D01*
X10239371Y-3255043D01*
X10233876Y-3265657D01*
X10218428Y-3270298D01*
X10204567Y-3265596D01*
X10198330Y-3254911D01*
X10196995Y-3238668D01*
X10201450Y-3228042D01*
X10207742Y-3221938D01*
X10225450Y-3219679D01*
X10233752Y-3223320D01*
G37*
G36*
X10407869Y-3224321D02*
G01*
X10412173Y-3237569D01*
X10412173Y-3247950D01*
X10394832Y-3247950D01*
X10381399Y-3248805D01*
X10383780Y-3255949D01*
X10394466Y-3260162D01*
X10402648Y-3253995D01*
X10407838Y-3252407D01*
X10410760Y-3255715D01*
X10409120Y-3260956D01*
X10402706Y-3267853D01*
X10392084Y-3270298D01*
X10381200Y-3267931D01*
X10373583Y-3261078D01*
X10369845Y-3251244D01*
X10370530Y-3238607D01*
X10370978Y-3237447D01*
X10381216Y-3237447D01*
X10390619Y-3238424D01*
X10401244Y-3235738D01*
X10397824Y-3230731D01*
X10391924Y-3228133D01*
X10385001Y-3232013D01*
X10381216Y-3237447D01*
X10370978Y-3237447D01*
X10375061Y-3226860D01*
X10381521Y-3220350D01*
X10394893Y-3218824D01*
X10407869Y-3224321D01*
G37*
G36*
X10186432Y-3223709D02*
G01*
X10190084Y-3231739D01*
X10186982Y-3236776D01*
X10180326Y-3231341D01*
X10171533Y-3227616D01*
X10166681Y-3229421D01*
X10165916Y-3233234D01*
X10176906Y-3239584D01*
X10189546Y-3247889D01*
X10191957Y-3254497D01*
X10189546Y-3262299D01*
X10182266Y-3269584D01*
X10167747Y-3270237D01*
X10158594Y-3265787D01*
X10153703Y-3259185D01*
X10153971Y-3252884D01*
X10158405Y-3251003D01*
X10164450Y-3256620D01*
X10171900Y-3260833D01*
X10180509Y-3257475D01*
X10180387Y-3252590D01*
X10169030Y-3247889D01*
X10156573Y-3239645D01*
X10155531Y-3228488D01*
X10161702Y-3221816D01*
X10175953Y-3218542D01*
X10186432Y-3223709D01*
G37*
G36*
X10045443Y-3228349D02*
G01*
X10047702Y-3245446D01*
X10043916Y-3261017D01*
X10037775Y-3266977D01*
X10027796Y-3269626D01*
X10017236Y-3268257D01*
X10008684Y-3262787D01*
X10004394Y-3247660D01*
X10013424Y-3247660D01*
X10017050Y-3255826D01*
X10023849Y-3260461D01*
X10031765Y-3259551D01*
X10038909Y-3247705D01*
X10035307Y-3232684D01*
X10023766Y-3229021D01*
X10014729Y-3236898D01*
X10013424Y-3247660D01*
X10004394Y-3247660D01*
X10003921Y-3245996D01*
X10007042Y-3229364D01*
X10014790Y-3221816D01*
X10032254Y-3219617D01*
X10045443Y-3228349D01*
G37*
G36*
X9802083Y-3202217D02*
G01*
X9804986Y-3204658D01*
X9802355Y-3207354D01*
X9787706Y-3210153D01*
X9773967Y-3210153D01*
X9772807Y-3219556D01*
X9772807Y-3230059D01*
X9784836Y-3230059D01*
X9798025Y-3231918D01*
X9800773Y-3235493D01*
X9798025Y-3239069D01*
X9784836Y-3240928D01*
X9772807Y-3240928D01*
X9772807Y-3252957D01*
X9771312Y-3266451D01*
X9768716Y-3268955D01*
X9766376Y-3264717D01*
X9764686Y-3234822D01*
X9764686Y-3200689D01*
X9784836Y-3200689D01*
X9802083Y-3202217D01*
G37*
G36*
X9911055Y-3201742D02*
G01*
X9912697Y-3213695D01*
X9913512Y-3222956D01*
X9932572Y-3218974D01*
X9941884Y-3226945D01*
X9943471Y-3249537D01*
X9941525Y-3265824D01*
X9938037Y-3268955D01*
X9934532Y-3265903D01*
X9932603Y-3250270D01*
X9929916Y-3229387D01*
X9921123Y-3229693D01*
X9913796Y-3233784D01*
X9912697Y-3250209D01*
X9910955Y-3266027D01*
X9907934Y-3268955D01*
X9905165Y-3264470D01*
X9903232Y-3234150D01*
X9905165Y-3203774D01*
X9907934Y-3199284D01*
X9911055Y-3201742D01*
G37*
G36*
X9964143Y-3201565D02*
G01*
X9965881Y-3211191D01*
X9965881Y-3223037D01*
X9968567Y-3221877D01*
X9980428Y-3218439D01*
X9990488Y-3223586D01*
X9993685Y-3230514D01*
X9995251Y-3248682D01*
X9993480Y-3265868D01*
X9990488Y-3268955D01*
X9987408Y-3266321D01*
X9985725Y-3252957D01*
X9982794Y-3230669D01*
X9978821Y-3228115D01*
X9970338Y-3229570D01*
X9965881Y-3231830D01*
X9965881Y-3248805D01*
X9963901Y-3265733D01*
X9960385Y-3268955D01*
X9957132Y-3264280D01*
X9954951Y-3234150D01*
X9957132Y-3203965D01*
X9960385Y-3199284D01*
X9964143Y-3201565D01*
G37*
G36*
X10113746Y-3201580D02*
G01*
X10115235Y-3211435D01*
X10114991Y-3223037D01*
X10119754Y-3221816D01*
X10131516Y-3218423D01*
X10141613Y-3223586D01*
X10144810Y-3230514D01*
X10146376Y-3248682D01*
X10144605Y-3265868D01*
X10141613Y-3268955D01*
X10138564Y-3266176D01*
X10136851Y-3251613D01*
X10133309Y-3230059D01*
X10129064Y-3227922D01*
X10121463Y-3229570D01*
X10116884Y-3231891D01*
X10115540Y-3248866D01*
X10113579Y-3265752D01*
X10110106Y-3268955D01*
X10106853Y-3264280D01*
X10104672Y-3234150D01*
X10106853Y-3203965D01*
X10110106Y-3199284D01*
X10113746Y-3201580D01*
G37*
G36*
X10256445Y-3201580D02*
G01*
X10257934Y-3211435D01*
X10257690Y-3223037D01*
X10262453Y-3221816D01*
X10274062Y-3218421D01*
X10282969Y-3223647D01*
X10286121Y-3230516D01*
X10287671Y-3248682D01*
X10286103Y-3266013D01*
X10283580Y-3268955D01*
X10281026Y-3266463D01*
X10279550Y-3252957D01*
X10276008Y-3230731D01*
X10271649Y-3228105D01*
X10264162Y-3229570D01*
X10259583Y-3231891D01*
X10258239Y-3248866D01*
X10256278Y-3265752D01*
X10252805Y-3268955D01*
X10249552Y-3264280D01*
X10247371Y-3234150D01*
X10249552Y-3203965D01*
X10252805Y-3199284D01*
X10256445Y-3201580D01*
G37*
G36*
X10337553Y-3223729D02*
G01*
X10339389Y-3244591D01*
X10337553Y-3265454D01*
X10334626Y-3268955D01*
X10329925Y-3266756D01*
X10324063Y-3267489D01*
X10310568Y-3268955D01*
X10302845Y-3262574D01*
X10299150Y-3238974D01*
X10301081Y-3223286D01*
X10304584Y-3220228D01*
X10308088Y-3223286D01*
X10310019Y-3238974D01*
X10311118Y-3257353D01*
X10318995Y-3259429D01*
X10328154Y-3255338D01*
X10329925Y-3238974D01*
X10331649Y-3223143D01*
X10334626Y-3220228D01*
X10337553Y-3223729D01*
G37*
G36*
X10358676Y-3203605D02*
G01*
X10360394Y-3234150D01*
X10358677Y-3264639D01*
X10356303Y-3268955D01*
X10353968Y-3264657D01*
X10352273Y-3234150D01*
X10353969Y-3203587D01*
X10356303Y-3199284D01*
X10358676Y-3203605D01*
G37*
G36*
X9410228Y-2683016D02*
G01*
X9456497Y-2694493D01*
X9499042Y-2713682D01*
X9538517Y-2740902D01*
X9584740Y-2784316D01*
X9646998Y-2851426D01*
X9676087Y-2893981D01*
X9687383Y-2923778D01*
X9690253Y-2949603D01*
X9687383Y-2976413D01*
X9671093Y-3015784D01*
X9631024Y-3068248D01*
X9578450Y-3120821D01*
X9529968Y-3165029D01*
X9489809Y-3190350D01*
X9447272Y-3207619D01*
X9401741Y-3217175D01*
X9354481Y-3219955D01*
X9310150Y-3214305D01*
X9253974Y-3195738D01*
X9205286Y-3167029D01*
X9162932Y-3127660D01*
X9129629Y-3080419D01*
X9107898Y-3028437D01*
X9097353Y-2970490D01*
X9097592Y-2942533D01*
X9120172Y-2942533D01*
X9123670Y-2986793D01*
X9134936Y-3028434D01*
X9153533Y-3065144D01*
X9179724Y-3097740D01*
X9211863Y-3124747D01*
X9248380Y-3145011D01*
X9290000Y-3158740D01*
X9360952Y-3161488D01*
X9422929Y-3160083D01*
X9458283Y-3151840D01*
X9486582Y-3140072D01*
X9513726Y-3124057D01*
X9556835Y-3085772D01*
X9601531Y-3040465D01*
X9635113Y-2994299D01*
X9646472Y-2959071D01*
X9642144Y-2923560D01*
X9619605Y-2880669D01*
X9583335Y-2841652D01*
X9535952Y-2795551D01*
X9502721Y-2770191D01*
X9467297Y-2752318D01*
X9429157Y-2741451D01*
X9372737Y-2738032D01*
X9310760Y-2738703D01*
X9268022Y-2747440D01*
X9229248Y-2764200D01*
X9193646Y-2789323D01*
X9163647Y-2820892D01*
X9141380Y-2856913D01*
X9126418Y-2898133D01*
X9120172Y-2942533D01*
X9097592Y-2942533D01*
X9097764Y-2922340D01*
X9106412Y-2876082D01*
X9123426Y-2831027D01*
X9147944Y-2789633D01*
X9178570Y-2754607D01*
X9215750Y-2725331D01*
X9256633Y-2702843D01*
X9300555Y-2687833D01*
X9348191Y-2680207D01*
X9375960Y-2679487D01*
X9410228Y-2683016D01*
G37*
G36*
X9980718Y-3120089D02*
G01*
X9985481Y-3129553D01*
X9985564Y-3134497D01*
X9981756Y-3136025D01*
X9975956Y-3130164D01*
X9972026Y-3125495D01*
X9963194Y-3126134D01*
X9957028Y-3131641D01*
X9954707Y-3142437D01*
X9957372Y-3153381D01*
X9964293Y-3157274D01*
X9972312Y-3157323D01*
X9976078Y-3153061D01*
X9979472Y-3149460D01*
X9986886Y-3151046D01*
X9980596Y-3163503D01*
X9966736Y-3168204D01*
X9950890Y-3162134D01*
X9945181Y-3142437D01*
X9948169Y-3126835D01*
X9955989Y-3118379D01*
X9970251Y-3114996D01*
X9980718Y-3120089D01*
G37*
G36*
X10146010Y-3120272D02*
G01*
X10149734Y-3130774D01*
X10151933Y-3140177D01*
X10147706Y-3142937D01*
X10133187Y-3144391D01*
X10118899Y-3144391D01*
X10119693Y-3147627D01*
X10128119Y-3157397D01*
X10134707Y-3157715D01*
X10140026Y-3153916D01*
X10147964Y-3150497D01*
X10152402Y-3155334D01*
X10144117Y-3163625D01*
X10131783Y-3168204D01*
X10119007Y-3164687D01*
X10111755Y-3154344D01*
X10110412Y-3134438D01*
X10119754Y-3134438D01*
X10120425Y-3136025D01*
X10130378Y-3136331D01*
X10141919Y-3136331D01*
X10141125Y-3133217D01*
X10138805Y-3128454D01*
X10128119Y-3126195D01*
X10119754Y-3134438D01*
X10110412Y-3134438D01*
X10110350Y-3133522D01*
X10121158Y-3118318D01*
X10135431Y-3115794D01*
X10146010Y-3120272D01*
G37*
G36*
X10254942Y-3121493D02*
G01*
X10260987Y-3135109D01*
X10262880Y-3144391D01*
X10243707Y-3144391D01*
X10228869Y-3144757D01*
X10230151Y-3151535D01*
X10239616Y-3158679D01*
X10249080Y-3154038D01*
X10257018Y-3150436D01*
X10262060Y-3155460D01*
X10251767Y-3165090D01*
X10242303Y-3168204D01*
X10229678Y-3165242D01*
X10222287Y-3156892D01*
X10219405Y-3141032D01*
X10220470Y-3136331D01*
X10229419Y-3136331D01*
X10239555Y-3136331D01*
X10251034Y-3136331D01*
X10250240Y-3133217D01*
X10247920Y-3128454D01*
X10238517Y-3126195D01*
X10230212Y-3133278D01*
X10229419Y-3136331D01*
X10220470Y-3136331D01*
X10222641Y-3126745D01*
X10231678Y-3118318D01*
X10244650Y-3116060D01*
X10254942Y-3121493D01*
G37*
G36*
X9811458Y-3104701D02*
G01*
X9818647Y-3117074D01*
X9820373Y-3136453D01*
X9815379Y-3154718D01*
X9804680Y-3164541D01*
X9790404Y-3167718D01*
X9775615Y-3163808D01*
X9764673Y-3153002D01*
X9760533Y-3132667D01*
X9761864Y-3126077D01*
X9769493Y-3126077D01*
X9771891Y-3143047D01*
X9781283Y-3156454D01*
X9792896Y-3158740D01*
X9806009Y-3150467D01*
X9810848Y-3131263D01*
X9808096Y-3117498D01*
X9800589Y-3109159D01*
X9788406Y-3106318D01*
X9776348Y-3113189D01*
X9769493Y-3126077D01*
X9761864Y-3126077D01*
X9764637Y-3112337D01*
X9775432Y-3101648D01*
X9793323Y-3097862D01*
X9811458Y-3104701D01*
G37*
G36*
X9880327Y-3104317D02*
G01*
X9881922Y-3111418D01*
X9883327Y-3116547D01*
X9887173Y-3116730D01*
X9895905Y-3121493D01*
X9894107Y-3124810D01*
X9886990Y-3126256D01*
X9882105Y-3126256D01*
X9883327Y-3140971D01*
X9884365Y-3156664D01*
X9890898Y-3158679D01*
X9897042Y-3158677D01*
X9898714Y-3162037D01*
X9891264Y-3167472D01*
X9877404Y-3165029D01*
X9873801Y-3143841D01*
X9872462Y-3128792D01*
X9870321Y-3126256D01*
X9866840Y-3122226D01*
X9870321Y-3118135D01*
X9873801Y-3111174D01*
X9876671Y-3104152D01*
X9880327Y-3104317D01*
G37*
G36*
X9859024Y-3121493D02*
G01*
X9865499Y-3131838D01*
X9858963Y-3134621D01*
X9854262Y-3131263D01*
X9850720Y-3127172D01*
X9846385Y-3124851D01*
X9840767Y-3127111D01*
X9838568Y-3132041D01*
X9846873Y-3136392D01*
X9860037Y-3143137D01*
X9863726Y-3152268D01*
X9859423Y-3162857D01*
X9844980Y-3166800D01*
X9830814Y-3161793D01*
X9827287Y-3153924D01*
X9830387Y-3148909D01*
X9839424Y-3155076D01*
X9846578Y-3159012D01*
X9853346Y-3156481D01*
X9853712Y-3150985D01*
X9843027Y-3145734D01*
X9830217Y-3138852D01*
X9827700Y-3129431D01*
X9837348Y-3118257D01*
X9848913Y-3115988D01*
X9859024Y-3121493D01*
G37*
G36*
X9933213Y-3121554D02*
G01*
X9939658Y-3131851D01*
X9933152Y-3134621D01*
X9928389Y-3131263D01*
X9925520Y-3127111D01*
X9920574Y-3124851D01*
X9914712Y-3127233D01*
X9912933Y-3131917D01*
X9922467Y-3136392D01*
X9935630Y-3143137D01*
X9939319Y-3152268D01*
X9935016Y-3162857D01*
X9920574Y-3166800D01*
X9909781Y-3165260D01*
X9904881Y-3161671D01*
X9902280Y-3153922D01*
X9904393Y-3148909D01*
X9913613Y-3155198D01*
X9920747Y-3159041D01*
X9927473Y-3156481D01*
X9929794Y-3152268D01*
X9917215Y-3145734D01*
X9904665Y-3138772D01*
X9903293Y-3129431D01*
X9906317Y-3121612D01*
X9911537Y-3118257D01*
X9924143Y-3116049D01*
X9933213Y-3121554D01*
G37*
G36*
X10003379Y-3098183D02*
G01*
X10005021Y-3110136D01*
X10005186Y-3119719D01*
X10024377Y-3116730D01*
X10032056Y-3123269D01*
X10035795Y-3148054D01*
X10034053Y-3163872D01*
X10031032Y-3166800D01*
X10028042Y-3163955D01*
X10026331Y-3148726D01*
X10023949Y-3128271D01*
X10019418Y-3125621D01*
X10009600Y-3128759D01*
X10005021Y-3131079D01*
X10005021Y-3146650D01*
X10003252Y-3163726D01*
X10000258Y-3166800D01*
X9997495Y-3162248D01*
X9995556Y-3131263D01*
X9997495Y-3100277D01*
X10000258Y-3095725D01*
X10003379Y-3098183D01*
G37*
G36*
X10102901Y-3118135D02*
G01*
X10105771Y-3119966D01*
X10105038Y-3124607D01*
X10103573Y-3131751D01*
X10100031Y-3143108D01*
X10091755Y-3163057D01*
X10086903Y-3166800D01*
X10082554Y-3164537D01*
X10079515Y-3155504D01*
X10073958Y-3137430D01*
X10073225Y-3134865D01*
X10070722Y-3145734D01*
X10064616Y-3163747D01*
X10058571Y-3165396D01*
X10054181Y-3161762D01*
X10045992Y-3141582D01*
X10042681Y-3121477D01*
X10045076Y-3118135D01*
X10048672Y-3120902D01*
X10055151Y-3135781D01*
X10060464Y-3153672D01*
X10060219Y-3149031D01*
X10062784Y-3137796D01*
X10069615Y-3121278D01*
X10073775Y-3118135D01*
X10077725Y-3119915D01*
X10080553Y-3126561D01*
X10086842Y-3150314D01*
X10090811Y-3137613D01*
X10097650Y-3117646D01*
X10102901Y-3118135D01*
G37*
G36*
X10168292Y-3121636D02*
G01*
X10170129Y-3142498D01*
X10168293Y-3163305D01*
X10165366Y-3166800D01*
X10162439Y-3163305D01*
X10160603Y-3142498D01*
X10162440Y-3121636D01*
X10165366Y-3118135D01*
X10168292Y-3121636D01*
G37*
G36*
X10212315Y-3119461D02*
G01*
X10214886Y-3121554D01*
X10201880Y-3143597D01*
X10190523Y-3157274D01*
X10200354Y-3157274D01*
X10213664Y-3158955D01*
X10216291Y-3162037D01*
X10213217Y-3165031D01*
X10196141Y-3166800D01*
X10179065Y-3165031D01*
X10175991Y-3162037D01*
X10190462Y-3141216D01*
X10202125Y-3127172D01*
X10193210Y-3126256D01*
X10181122Y-3124812D01*
X10178799Y-3122226D01*
X10181513Y-3119666D01*
X10196812Y-3118135D01*
X10212315Y-3119461D01*
G37*
G36*
X10296036Y-3121493D02*
G01*
X10291884Y-3126256D01*
X10283885Y-3128759D01*
X10279244Y-3131079D01*
X10279244Y-3146650D01*
X10277678Y-3163870D01*
X10275153Y-3166800D01*
X10272724Y-3163477D01*
X10271123Y-3142498D01*
X10272725Y-3121463D01*
X10275153Y-3118135D01*
X10279244Y-3120089D01*
X10279977Y-3121554D01*
X10284984Y-3116852D01*
X10293610Y-3116339D01*
X10296036Y-3121493D01*
G37*
G36*
X10171533Y-3102992D02*
G01*
X10171416Y-3107838D01*
X10166770Y-3109464D01*
X10159443Y-3106350D01*
X10160298Y-3099389D01*
X10167320Y-3096519D01*
X10171533Y-3102992D01*
G37*
G36*
X9855239Y-2862168D02*
G01*
X9886585Y-2874411D01*
X9907926Y-2894501D01*
X9921062Y-2923717D01*
X9923901Y-2946607D01*
X9921062Y-2969452D01*
X9911437Y-2993066D01*
X9896583Y-3011413D01*
X9875938Y-3025322D01*
X9840504Y-3034615D01*
X9803764Y-3028192D01*
X9782385Y-3016843D01*
X9766359Y-3000413D01*
X9755038Y-2978061D01*
X9749008Y-2953220D01*
X9749443Y-2946615D01*
X9782576Y-2946615D01*
X9786887Y-2970374D01*
X9799490Y-2989296D01*
X9818200Y-3001581D01*
X9840706Y-3004806D01*
X9857107Y-3000791D01*
X9871664Y-2991311D01*
X9882693Y-2977381D01*
X9889249Y-2958827D01*
X9890268Y-2938974D01*
X9885219Y-2920908D01*
X9874979Y-2905580D01*
X9860917Y-2895202D01*
X9840577Y-2889775D01*
X9820434Y-2892454D01*
X9799309Y-2903955D01*
X9787012Y-2921353D01*
X9782576Y-2946615D01*
X9749443Y-2946615D01*
X9750764Y-2926587D01*
X9759446Y-2905075D01*
X9774394Y-2885799D01*
X9793922Y-2870926D01*
X9816587Y-2862168D01*
X9836428Y-2860001D01*
X9855239Y-2862168D01*
G37*
G36*
X10028712Y-2862168D02*
G01*
X10049207Y-2868291D01*
X10059242Y-2875479D01*
X10059541Y-2882079D01*
X10050999Y-2898621D01*
X10048740Y-2903079D01*
X10035795Y-2896606D01*
X10017157Y-2890378D01*
X10001845Y-2891050D01*
X9990504Y-2897592D01*
X9986886Y-2908818D01*
X9992686Y-2920786D01*
X10017843Y-2933548D01*
X10045367Y-2948120D01*
X10057838Y-2960903D01*
X10062109Y-2969648D01*
X10063822Y-2984351D01*
X10060334Y-3005567D01*
X10050633Y-3020743D01*
X10035810Y-3029854D01*
X10015889Y-3034604D01*
X9994977Y-3034034D01*
X9975711Y-3028131D01*
X9954975Y-3016944D01*
X9950799Y-3010362D01*
X9958248Y-2999188D01*
X9967224Y-2988014D01*
X9976261Y-2994059D01*
X10000372Y-3004932D01*
X10020530Y-3002119D01*
X10028390Y-2996489D01*
X10031887Y-2986915D01*
X10028407Y-2974642D01*
X9995312Y-2956751D01*
X9974708Y-2945804D01*
X9963011Y-2935868D01*
X9955979Y-2923829D01*
X9953546Y-2908818D01*
X9956477Y-2891294D01*
X9971374Y-2871599D01*
X9997144Y-2860764D01*
X10028712Y-2862168D01*
G37*
G36*
X10203712Y-2876639D02*
G01*
X10203712Y-2889768D01*
X10182158Y-2889768D01*
X10164511Y-2889768D01*
X10164511Y-2959194D01*
X10164511Y-3032466D01*
X10148574Y-3032466D01*
X10134042Y-3032466D01*
X10134042Y-2959194D01*
X10134042Y-2889768D01*
X10114991Y-2889768D01*
X10093498Y-2889768D01*
X10093498Y-2876639D01*
X10093498Y-2862107D01*
X10148574Y-2862107D01*
X10203712Y-2862107D01*
X10203712Y-2876639D01*
G37*
G36*
X12246430Y-2945434D02*
G01*
X12259131Y-2956913D01*
X12266800Y-2964680D01*
X12278084Y-2974792D01*
X12284728Y-2981435D01*
X12293667Y-2989300D01*
X12302655Y-2997751D01*
X12312718Y-3007227D01*
X12322781Y-3016167D01*
X12336312Y-3029600D01*
X12345202Y-3038588D01*
X12352759Y-3047227D01*
X12355754Y-3055197D01*
X12354662Y-3065574D01*
X12348622Y-3076592D01*
X12336152Y-3084840D01*
X12314135Y-3093885D01*
X12307784Y-3095985D01*
X12290883Y-3101603D01*
X12280820Y-3104973D01*
X12251755Y-3115036D01*
X12202516Y-3131840D01*
X12140918Y-3154213D01*
X12087233Y-3173215D01*
X12028810Y-3193487D01*
X12025977Y-3194415D01*
X12005558Y-3201205D01*
X11998768Y-3203452D01*
X11989975Y-3206774D01*
X11986214Y-3208044D01*
X11954502Y-3212535D01*
X11921539Y-3205650D01*
X11899801Y-3188553D01*
X11893158Y-3183033D01*
X11883095Y-3174045D01*
X11862334Y-3153871D01*
X11862041Y-3155825D01*
X11856863Y-3171017D01*
X11847777Y-3177709D01*
X11836864Y-3179213D01*
X11824183Y-3176537D01*
X11816514Y-3168818D01*
X11821497Y-3150061D01*
X11822327Y-3149719D01*
X11822132Y-3148888D01*
X11826772Y-3139802D01*
X11828922Y-3134234D01*
X11840597Y-3107416D01*
X11874156Y-3110884D01*
X11877086Y-3111470D01*
X11879822Y-3112008D01*
X11891008Y-3113131D01*
X11904539Y-3115378D01*
X11915726Y-3116502D01*
X11921050Y-3117625D01*
X11929110Y-3118700D01*
X11932383Y-3118700D01*
X11944898Y-3122719D01*
X11951727Y-3128763D01*
X11950408Y-3137897D01*
X11942334Y-3143546D01*
X11933360Y-3145371D01*
X11914162Y-3144248D01*
X11902266Y-3142926D01*
X11919829Y-3158805D01*
X11923297Y-3161687D01*
X11932236Y-3170626D01*
X11934484Y-3172873D01*
X11937805Y-3176243D01*
X11949057Y-3183587D01*
X11960227Y-3185867D01*
X11991294Y-3175804D01*
X11995447Y-3174778D01*
X12006633Y-3171407D01*
X12015719Y-3168086D01*
X12088405Y-3142343D01*
X12123332Y-3129935D01*
X12125481Y-3129398D01*
X12127484Y-3128811D01*
X12131246Y-3127297D01*
X12135105Y-3125636D01*
X12200317Y-3103166D01*
X12240911Y-3088511D01*
X12244770Y-3087388D01*
X12248677Y-3086264D01*
X12267582Y-3079621D01*
X12313646Y-3061059D01*
X12312669Y-3054122D01*
X12307100Y-3049726D01*
X12305440Y-3047967D01*
X12292690Y-3036390D01*
X12283702Y-3027402D01*
X12274811Y-3019586D01*
X12266898Y-3011721D01*
X12260303Y-3006202D01*
X12250094Y-2996041D01*
X12243500Y-2990521D01*
X12235049Y-2982119D01*
X12226696Y-2974841D01*
X12216682Y-2964827D01*
X12213165Y-2962482D01*
X12210478Y-2954617D01*
X12216828Y-2944359D01*
X12231223Y-2941057D01*
X12246430Y-2945434D01*
G37*
G36*
X12720652Y-3058274D02*
G01*
X12720652Y-3192363D01*
X12679668Y-3192363D01*
X12678594Y-3181666D01*
X12677617Y-3182985D01*
X12660191Y-3193153D01*
X12640590Y-3195734D01*
X12622579Y-3190905D01*
X12609278Y-3181763D01*
X12600696Y-3164376D01*
X12597749Y-3143808D01*
X12597749Y-3142147D01*
X12597749Y-3140437D01*
X12597749Y-3131498D01*
X12597749Y-3125881D01*
X12597749Y-3110200D01*
X12597749Y-3093445D01*
X12597749Y-3059398D01*
X12638929Y-3059398D01*
X12638929Y-3069949D01*
X12638929Y-3078888D01*
X12638929Y-3088951D01*
X12638929Y-3106878D01*
X12638929Y-3121387D01*
X12638929Y-3125881D01*
X12644302Y-3152992D01*
X12656368Y-3157876D01*
X12666293Y-3156271D01*
X12674295Y-3151624D01*
X12679473Y-3137067D01*
X12679473Y-3134820D01*
X12679473Y-3127004D01*
X12679473Y-3121387D01*
X12679473Y-3105755D01*
X12679473Y-3082210D01*
X12679473Y-3074394D01*
X12679473Y-3068777D01*
X12679473Y-3067702D01*
X12679473Y-3066578D01*
X12681427Y-3058274D01*
X12720652Y-3058274D01*
G37*
G36*
X13599243Y-3053829D02*
G01*
X13624646Y-3057007D01*
X13646772Y-3068679D01*
X13662493Y-3088088D01*
X13670855Y-3112252D01*
X13667649Y-3148015D01*
X13654784Y-3172824D01*
X13632280Y-3188938D01*
X13606668Y-3195734D01*
X13575951Y-3190703D01*
X13551811Y-3176243D01*
X13536746Y-3151978D01*
X13532271Y-3121338D01*
X13533620Y-3115115D01*
X13574371Y-3115115D01*
X13574525Y-3132280D01*
X13579966Y-3145800D01*
X13589522Y-3155922D01*
X13598340Y-3157911D01*
X13610527Y-3155776D01*
X13619405Y-3149798D01*
X13625279Y-3139900D01*
X13628256Y-3122780D01*
X13624204Y-3106439D01*
X13617581Y-3097640D01*
X13608475Y-3092712D01*
X13592182Y-3093002D01*
X13579899Y-3102189D01*
X13574371Y-3115115D01*
X13533620Y-3115115D01*
X13538030Y-3094760D01*
X13552934Y-3072147D01*
X13574129Y-3059011D01*
X13599243Y-3053829D01*
G37*
G36*
X12797833Y-3025839D02*
G01*
X12797833Y-3059398D01*
X12830317Y-3059398D01*
X12830317Y-3076641D01*
X12830317Y-3079474D01*
X12830317Y-3081135D01*
X12830317Y-3083333D01*
X12830317Y-3085043D01*
X12830317Y-3087290D01*
X12830317Y-3088951D01*
X12828266Y-3095008D01*
X12820938Y-3095008D01*
X12818691Y-3095008D01*
X12816444Y-3095008D01*
X12814197Y-3095008D01*
X12811950Y-3095008D01*
X12807505Y-3095008D01*
X12797833Y-3095008D01*
X12797833Y-3119188D01*
X12797833Y-3127932D01*
X12798957Y-3141561D01*
X12798957Y-3144932D01*
X12798957Y-3148253D01*
X12798957Y-3151624D01*
X12799738Y-3158169D01*
X12815516Y-3158169D01*
X12818056Y-3155678D01*
X12821915Y-3155678D01*
X12827777Y-3167500D01*
X12830171Y-3171065D01*
X12830659Y-3172091D01*
X12831685Y-3173654D01*
X12833541Y-3176683D01*
X12834811Y-3182691D01*
X12826800Y-3186306D01*
X12825774Y-3187869D01*
X12824651Y-3187869D01*
X12803735Y-3194625D01*
X12781225Y-3192266D01*
X12769047Y-3184774D01*
X12761294Y-3174680D01*
X12756654Y-3154994D01*
X12756654Y-3150500D01*
X12756654Y-3148839D01*
X12756654Y-3146006D01*
X12756654Y-3141561D01*
X12756654Y-3129251D01*
X12756654Y-3116941D01*
X12756654Y-3095008D01*
X12737652Y-3095008D01*
X12737652Y-3059398D01*
X12756654Y-3059398D01*
X12756654Y-3025839D01*
X12797833Y-3025839D01*
G37*
G36*
X12904225Y-3054366D02*
G01*
X12929553Y-3057763D01*
X12950583Y-3068679D01*
X12968502Y-3090445D01*
X12975788Y-3115720D01*
X12972733Y-3147477D01*
X12959766Y-3171652D01*
X12938632Y-3187554D01*
X12910527Y-3194611D01*
X12882908Y-3191003D01*
X12861239Y-3178490D01*
X12855621Y-3172873D01*
X12853374Y-3170675D01*
X12841013Y-3149467D01*
X12837254Y-3119139D01*
X12837733Y-3117071D01*
X12879577Y-3117071D01*
X12880631Y-3135601D01*
X12885856Y-3147532D01*
X12894407Y-3154750D01*
X12904159Y-3157888D01*
X12914386Y-3156851D01*
X12923627Y-3151087D01*
X12930310Y-3142049D01*
X12933534Y-3124764D01*
X12930310Y-3107514D01*
X12923630Y-3098443D01*
X12914435Y-3092712D01*
X12898033Y-3092973D01*
X12884881Y-3102189D01*
X12879577Y-3117071D01*
X12837733Y-3117071D01*
X12842939Y-3094606D01*
X12857868Y-3073271D01*
X12858992Y-3072147D01*
X12860115Y-3071024D01*
X12879398Y-3058939D01*
X12904225Y-3054366D01*
G37*
G36*
X13415670Y-3025839D02*
G01*
X13415670Y-3059398D01*
X13448105Y-3059398D01*
X13448105Y-3076641D01*
X13448105Y-3079474D01*
X13448105Y-3081135D01*
X13448105Y-3083333D01*
X13448105Y-3085043D01*
X13448105Y-3087290D01*
X13448105Y-3088951D01*
X13446054Y-3095008D01*
X13438726Y-3095008D01*
X13436479Y-3095008D01*
X13434770Y-3095008D01*
X13432571Y-3095008D01*
X13430324Y-3095008D01*
X13428077Y-3095008D01*
X13426417Y-3095008D01*
X13416793Y-3095008D01*
X13416793Y-3119188D01*
X13416793Y-3127932D01*
X13417917Y-3141561D01*
X13417917Y-3144932D01*
X13417917Y-3148253D01*
X13417917Y-3151624D01*
X13418698Y-3158169D01*
X13434428Y-3158169D01*
X13436968Y-3155678D01*
X13440680Y-3155678D01*
X13447910Y-3167646D01*
X13455237Y-3181177D01*
X13434106Y-3192310D01*
X13408245Y-3194611D01*
X13394283Y-3189072D01*
X13382648Y-3179467D01*
X13378008Y-3170333D01*
X13376738Y-3166376D01*
X13375614Y-3146006D01*
X13375614Y-3141561D01*
X13375614Y-3129251D01*
X13375614Y-3116941D01*
X13375614Y-3095008D01*
X13356563Y-3095008D01*
X13356563Y-3059398D01*
X13375614Y-3059398D01*
X13375614Y-3025839D01*
X13415670Y-3025839D01*
G37*
G36*
X13278360Y-3053860D02*
G01*
X13302926Y-3056192D01*
X13326668Y-3068679D01*
X13336548Y-3080868D01*
X13340687Y-3096718D01*
X13340687Y-3104631D01*
X13340687Y-3106878D01*
X13340687Y-3115818D01*
X13340687Y-3122510D01*
X13340687Y-3139314D01*
X13340687Y-3157241D01*
X13340687Y-3192363D01*
X13301755Y-3192363D01*
X13301657Y-3182496D01*
X13301511Y-3183668D01*
X13299459Y-3184987D01*
X13297603Y-3185622D01*
X13296821Y-3186013D01*
X13296430Y-3186404D01*
X13276947Y-3194197D01*
X13254811Y-3194562D01*
X13240938Y-3187674D01*
X13239424Y-3186941D01*
X13237959Y-3184841D01*
X13227608Y-3172587D01*
X13222278Y-3154017D01*
X13223411Y-3145664D01*
X13264484Y-3145664D01*
X13267561Y-3157339D01*
X13275328Y-3161247D01*
X13291741Y-3157876D01*
X13293793Y-3157388D01*
X13294818Y-3156899D01*
X13302927Y-3150989D01*
X13302976Y-3129691D01*
X13289005Y-3133061D01*
X13287393Y-3133061D01*
X13286172Y-3133989D01*
X13273805Y-3138717D01*
X13264484Y-3145664D01*
X13223411Y-3145664D01*
X13224232Y-3139608D01*
X13232781Y-3125929D01*
X13248705Y-3115574D01*
X13251490Y-3114255D01*
X13281581Y-3105364D01*
X13287149Y-3103117D01*
X13299948Y-3100284D01*
X13299508Y-3098281D01*
X13298531Y-3096327D01*
X13292816Y-3091589D01*
X13278577Y-3089663D01*
X13268391Y-3092468D01*
X13262334Y-3099551D01*
X13261211Y-3101896D01*
X13260087Y-3104143D01*
X13259012Y-3105218D01*
X13243430Y-3101603D01*
X13240401Y-3100577D01*
X13236151Y-3099453D01*
X13232243Y-3098232D01*
X13223109Y-3094080D01*
X13233751Y-3075050D01*
X13251148Y-3061791D01*
X13278360Y-3053860D01*
G37*
G36*
X12518712Y-3005664D02*
G01*
X12544895Y-3078400D01*
X12546019Y-3082503D01*
X12547142Y-3086460D01*
X12553786Y-3105218D01*
X12566144Y-3139998D01*
X12571615Y-3157583D01*
X12575084Y-3165741D01*
X12579627Y-3177025D01*
X12580750Y-3180347D01*
X12580750Y-3181373D01*
X12581825Y-3183424D01*
X12581825Y-3185915D01*
X12582948Y-3192363D01*
X12536640Y-3192363D01*
X12529557Y-3172238D01*
X12527212Y-3165301D01*
X12526186Y-3160514D01*
X12524037Y-3155678D01*
X12523402Y-3154408D01*
X12522767Y-3153138D01*
X12521643Y-3150012D01*
X12521643Y-3148791D01*
X12521643Y-3147520D01*
X12519836Y-3143124D01*
X12466151Y-3143124D01*
X12456382Y-3172238D01*
X12454135Y-3179077D01*
X12453646Y-3180102D01*
X12453158Y-3181079D01*
X12452571Y-3184499D01*
X12452034Y-3186697D01*
X12449201Y-3192363D01*
X12404944Y-3192363D01*
X12407631Y-3178832D01*
X12409243Y-3176292D01*
X12409731Y-3173606D01*
X12412125Y-3169844D01*
X12415300Y-3159195D01*
X12416423Y-3155239D01*
X12417547Y-3151331D01*
X12434210Y-3104192D01*
X12477777Y-3104192D01*
X12508845Y-3104192D01*
X12506061Y-3090807D01*
X12504839Y-3087828D01*
X12503862Y-3085141D01*
X12503227Y-3083871D01*
X12502592Y-3081477D01*
X12499271Y-3072391D01*
X12498684Y-3069021D01*
X12498147Y-3065699D01*
X12493517Y-3052736D01*
X12484421Y-3079377D01*
X12482174Y-3087144D01*
X12479975Y-3092712D01*
X12479975Y-3093738D01*
X12479975Y-3094764D01*
X12477777Y-3104192D01*
X12434210Y-3104192D01*
X12437819Y-3093982D01*
X12451497Y-3053829D01*
X12452425Y-3054269D01*
X12452229Y-3052852D01*
X12459068Y-3033606D01*
X12463465Y-3021491D01*
X12464002Y-3019195D01*
X12464539Y-3017534D01*
X12465077Y-3015825D01*
X12465663Y-3014017D01*
X12466200Y-3012796D01*
X12466786Y-3011331D01*
X12469620Y-3005664D01*
X12518712Y-3005664D01*
G37*
G36*
X13068112Y-3055490D02*
G01*
X13083808Y-3056746D01*
X13099375Y-3064185D01*
X13110122Y-3073857D01*
X13110122Y-3074617D01*
X13110708Y-3073417D01*
X13118863Y-3065462D01*
X13136158Y-3057199D01*
X13159309Y-3056415D01*
X13178754Y-3063012D01*
X13192247Y-3075627D01*
X13200785Y-3093201D01*
X13200785Y-3105755D01*
X13200785Y-3107416D01*
X13200785Y-3109077D01*
X13200785Y-3118065D01*
X13200785Y-3123634D01*
X13200785Y-3140437D01*
X13200785Y-3157241D01*
X13200785Y-3192363D01*
X13159606Y-3192363D01*
X13159606Y-3172873D01*
X13159606Y-3161687D01*
X13159606Y-3143808D01*
X13159606Y-3129251D01*
X13159606Y-3124757D01*
X13153988Y-3099356D01*
X13153988Y-3097744D01*
X13152718Y-3097109D01*
X13147296Y-3094959D01*
X13135616Y-3095581D01*
X13127463Y-3099112D01*
X13120185Y-3111568D01*
X13120185Y-3125881D01*
X13120185Y-3131498D01*
X13120185Y-3146006D01*
X13120185Y-3163934D01*
X13120185Y-3192363D01*
X13079005Y-3192363D01*
X13079005Y-3182985D01*
X13079005Y-3173996D01*
X13079005Y-3162810D01*
X13079005Y-3146006D01*
X13079005Y-3132573D01*
X13079005Y-3127053D01*
X13076585Y-3108913D01*
X13072655Y-3098867D01*
X13060443Y-3095008D01*
X13050672Y-3096858D01*
X13042516Y-3102384D01*
X13039850Y-3108315D01*
X13038510Y-3124757D01*
X13038510Y-3130375D01*
X13038510Y-3146006D01*
X13038510Y-3163934D01*
X13038510Y-3192363D01*
X12996207Y-3192363D01*
X12996207Y-3140437D01*
X12996207Y-3116941D01*
X12996207Y-3093445D01*
X12996207Y-3085043D01*
X12996207Y-3073271D01*
X12996207Y-3068777D01*
X12996207Y-3066578D01*
X12996207Y-3063208D01*
X12998259Y-3058274D01*
X13006710Y-3058274D01*
X13008957Y-3058274D01*
X13014525Y-3058274D01*
X13022390Y-3058274D01*
X13027959Y-3058274D01*
X13030206Y-3058274D01*
X13038510Y-3060326D01*
X13039585Y-3066334D01*
X13039585Y-3068861D01*
X13052761Y-3059820D01*
X13068112Y-3055490D01*
G37*
G36*
X13510778Y-3192363D02*
G01*
X13469599Y-3192363D01*
X13469599Y-3058274D01*
X13510778Y-3058274D01*
X13510778Y-3192363D01*
G37*
G36*
X13762495Y-3056076D02*
G01*
X13779777Y-3056389D01*
X13795419Y-3061840D01*
X13807832Y-3073348D01*
X13815153Y-3089733D01*
X13817449Y-3111324D01*
X13817449Y-3113033D01*
X13817449Y-3113571D01*
X13817449Y-3122510D01*
X13817449Y-3128128D01*
X13817449Y-3143808D01*
X13817449Y-3159440D01*
X13817449Y-3192363D01*
X13776270Y-3192363D01*
X13776270Y-3173996D01*
X13776270Y-3163934D01*
X13776270Y-3147130D01*
X13775146Y-3133843D01*
X13775146Y-3128079D01*
X13774062Y-3111254D01*
X13768845Y-3096767D01*
X13751308Y-3093836D01*
X13741189Y-3099430D01*
X13734651Y-3107269D01*
X13734651Y-3114694D01*
X13734651Y-3115818D01*
X13734651Y-3116941D01*
X13734651Y-3125881D01*
X13734651Y-3128128D01*
X13734651Y-3131498D01*
X13733527Y-3146104D01*
X13733527Y-3163934D01*
X13733527Y-3192363D01*
X13692348Y-3192363D01*
X13692348Y-3058274D01*
X13731476Y-3058274D01*
X13734651Y-3067555D01*
X13734651Y-3069866D01*
X13746111Y-3061020D01*
X13762495Y-3056076D01*
G37*
G36*
X11959787Y-2881589D02*
G01*
X11963336Y-2884124D01*
X11966626Y-2885008D01*
X11970143Y-2888183D01*
X11971950Y-2889160D01*
X11972914Y-2891180D01*
X11975223Y-2893215D01*
X11977470Y-2895706D01*
X11990464Y-2907625D01*
X11997059Y-2913194D01*
X12010590Y-2926676D01*
X12017184Y-2932147D01*
X12017249Y-2932278D01*
X12018894Y-2933661D01*
X12018894Y-2935596D01*
X12020017Y-2937862D01*
X12020017Y-2941233D01*
X12020017Y-2944555D01*
X12020017Y-2949049D01*
X12020017Y-2950758D01*
X12020017Y-2952419D01*
X12020017Y-2963606D01*
X12020017Y-2974792D01*
X12020017Y-2997165D01*
X12020017Y-3021784D01*
X12020017Y-3073222D01*
X12001357Y-3080256D01*
X11997156Y-3081575D01*
X11995544Y-3082698D01*
X11994176Y-3082698D01*
X11989927Y-3084799D01*
X11977812Y-3088121D01*
X11965209Y-3092712D01*
X11957442Y-3095985D01*
X11941518Y-3101701D01*
X11939613Y-3101701D01*
X11934923Y-3103899D01*
X11929401Y-3103846D01*
X11929354Y-3106048D01*
X11926002Y-3103813D01*
X11924763Y-3103801D01*
X11921244Y-3100899D01*
X11920415Y-3100577D01*
X11918271Y-3098448D01*
X11917240Y-3097597D01*
X11917010Y-3097195D01*
X11913234Y-3093445D01*
X11912111Y-3092322D01*
X11910401Y-3090661D01*
X11909522Y-3089733D01*
X11908056Y-3089391D01*
X11894764Y-3076098D01*
X11893744Y-3075176D01*
X11893689Y-3075023D01*
X11891985Y-3073320D01*
X11891581Y-3072887D01*
X11890422Y-3072587D01*
X11890422Y-3071714D01*
X11880750Y-3062084D01*
X11875759Y-3057913D01*
X11873862Y-3056418D01*
X11873811Y-3056084D01*
X11870248Y-3051289D01*
X11870248Y-3045280D01*
X11870248Y-3041959D01*
X11870248Y-3038588D01*
X11870248Y-3034094D01*
X11870248Y-3028623D01*
X11931601Y-3028623D01*
X11931601Y-3052022D01*
X11931601Y-3096865D01*
X11967798Y-3084017D01*
X11969899Y-3083480D01*
X11972292Y-3082894D01*
X11979864Y-3079670D01*
X11991050Y-3075176D01*
X11998915Y-3072929D01*
X12002530Y-3071708D01*
X12004630Y-3071170D01*
X12006291Y-3070584D01*
X12007805Y-3070096D01*
X12008782Y-3069607D01*
X12012397Y-3067800D01*
X12012397Y-3029014D01*
X12013520Y-3026278D01*
X12013960Y-2943431D01*
X12005558Y-2947144D01*
X11998866Y-2949391D01*
X11997645Y-2950026D01*
X11995202Y-2950612D01*
X11942837Y-2968442D01*
X11938489Y-2969614D01*
X11934874Y-2970738D01*
X11932676Y-2972056D01*
X11932676Y-2975915D01*
X11932676Y-2979286D01*
X11932676Y-2983731D01*
X11932676Y-2984855D01*
X11932676Y-2987102D01*
X11932676Y-2999412D01*
X11932676Y-3003320D01*
X11932676Y-3008351D01*
X11931601Y-3028623D01*
X11870248Y-3028623D01*
X11870248Y-3021784D01*
X11870248Y-3018463D01*
X11870248Y-3015092D01*
X11870248Y-2996041D01*
X11870248Y-2972545D01*
X11870248Y-2953543D01*
X11870248Y-2942894D01*
X11870248Y-2929998D01*
X11870248Y-2926676D01*
X11870248Y-2923306D01*
X11870248Y-2921645D01*
X11870248Y-2919935D01*
X11874400Y-2912999D01*
X11874936Y-2912784D01*
X11875084Y-2912559D01*
X11875268Y-2912651D01*
X11880310Y-2910634D01*
X11880310Y-2910556D01*
X11883290Y-2909628D01*
X11883437Y-2909579D01*
X11885977Y-2908309D01*
X11887238Y-2908309D01*
X11890301Y-2907286D01*
X11892816Y-2906062D01*
X11894916Y-2905525D01*
X11895807Y-2905306D01*
X11901560Y-2902740D01*
X11913796Y-2899016D01*
X11918129Y-2897275D01*
X11920659Y-2895999D01*
X11921889Y-2895999D01*
X11925056Y-2894973D01*
X11931416Y-2892977D01*
X11931601Y-2892726D01*
X11932160Y-2892743D01*
X11936093Y-2891509D01*
X11936096Y-2891505D01*
X11936101Y-2891506D01*
X11937099Y-2891193D01*
X11937024Y-2890968D01*
X11944800Y-2888407D01*
X11945230Y-2887500D01*
X11952446Y-2885094D01*
X11953144Y-2884813D01*
X11954334Y-2884371D01*
X11954560Y-2884276D01*
X11955977Y-2883689D01*
X11956110Y-2883712D01*
X11956172Y-2883689D01*
X11956492Y-2883778D01*
X11957071Y-2883878D01*
X11957540Y-2882566D01*
X11960353Y-2883322D01*
X11959787Y-2881589D01*
G37*
G36*
X12133102Y-2927311D02*
G01*
X12137054Y-2928501D01*
X12138768Y-2928532D01*
X12138907Y-2928628D01*
X12138964Y-2928630D01*
X12140178Y-2929443D01*
X12141211Y-2929754D01*
X12141421Y-2929911D01*
X12146486Y-2933515D01*
X12147053Y-2934417D01*
X12148391Y-2935811D01*
X12148608Y-2936272D01*
X12148684Y-2936348D01*
X12149262Y-2936925D01*
X12150101Y-2937423D01*
X12152918Y-2940872D01*
X12156109Y-2943431D01*
X12157286Y-2944635D01*
X12158356Y-2945678D01*
X12169982Y-2956132D01*
X12170429Y-2956709D01*
X12171350Y-2957548D01*
X12171338Y-2957584D01*
X12193723Y-2978798D01*
X12192605Y-2980377D01*
X12195726Y-2984855D01*
X12195726Y-2989349D01*
X12195726Y-2991596D01*
X12195726Y-3000535D01*
X12195726Y-3002782D01*
X12195726Y-3018414D01*
X12195726Y-3033899D01*
X12196849Y-3045280D01*
X12196849Y-3050898D01*
X12196849Y-3059837D01*
X12196849Y-3062084D01*
X12195481Y-3068728D01*
X12183660Y-3074687D01*
X12182390Y-3075322D01*
X12181120Y-3075957D01*
X12177749Y-3077081D01*
X12175551Y-3077618D01*
X12174525Y-3078107D01*
X12163290Y-3081477D01*
X12147414Y-3087144D01*
X12144386Y-3088169D01*
X12124162Y-3094911D01*
X12120987Y-3095936D01*
X12113807Y-3099453D01*
X12112488Y-3100040D01*
X12110192Y-3100577D01*
X12109068Y-3100577D01*
X12109557Y-3101701D01*
X12100422Y-3100382D01*
X12096123Y-3096083D01*
X12094121Y-3095008D01*
X12092460Y-3093885D01*
X12089138Y-3090221D01*
X12084449Y-3085581D01*
X12074484Y-3076690D01*
X12062206Y-3064412D01*
X12061700Y-3064286D01*
X12054211Y-3058665D01*
X12044832Y-3049481D01*
X12044832Y-3047605D01*
X12043758Y-3029649D01*
X12043758Y-3022908D01*
X12043758Y-3017290D01*
X12108433Y-3017290D01*
X12108433Y-3092566D01*
X12124993Y-3087583D01*
X12128852Y-3086264D01*
X12132223Y-3085141D01*
X12136472Y-3082992D01*
X12144386Y-3080744D01*
X12156842Y-3076250D01*
X12164560Y-3072831D01*
X12167784Y-3071708D01*
X12170276Y-3071170D01*
X12171399Y-3070584D01*
X12174525Y-3069558D01*
X12188105Y-3064380D01*
X12188545Y-2988225D01*
X12183611Y-2990765D01*
X12182341Y-2991400D01*
X12179606Y-2992035D01*
X12177065Y-2992964D01*
X12172034Y-2994234D01*
X12164511Y-2997507D01*
X12152104Y-3002049D01*
X12144386Y-3004248D01*
X12139599Y-3005469D01*
X12108433Y-3017290D01*
X12043758Y-3017290D01*
X12043758Y-3011721D01*
X12043758Y-2996041D01*
X12043758Y-2983731D01*
X12043758Y-2978162D01*
X12044832Y-2970102D01*
X12044832Y-2968051D01*
X12044832Y-2959942D01*
X12045972Y-2960512D01*
X12045956Y-2959258D01*
X12049766Y-2957353D01*
X12049839Y-2957390D01*
X12054016Y-2955301D01*
X12057240Y-2954178D01*
X12059438Y-2953641D01*
X12060562Y-2953054D01*
X12063493Y-2952175D01*
X12066360Y-2951305D01*
X12067059Y-2950856D01*
X12070624Y-2949733D01*
X12073555Y-2948805D01*
X12078919Y-2947175D01*
X12079847Y-2946819D01*
X12082983Y-2945239D01*
X12083971Y-2945239D01*
X12089578Y-2943089D01*
X12094240Y-2941888D01*
X12097201Y-2940822D01*
X12097247Y-2940744D01*
X12097347Y-2940770D01*
X12103739Y-2938471D01*
X12114344Y-2934052D01*
X12118594Y-2933026D01*
X12120255Y-2932489D01*
X12121915Y-2931903D01*
X12125628Y-2930682D01*
X12125939Y-2930733D01*
X12127062Y-2930288D01*
X12129975Y-2928435D01*
X12130855Y-2928435D01*
X12133102Y-2927311D01*
G37*
G36*
X12090514Y-2808062D02*
G01*
X12113416Y-2817988D01*
X12124700Y-2828100D01*
X12132564Y-2835964D01*
X12161239Y-2862538D01*
X12162557Y-2858679D01*
X12164805Y-2856432D01*
X12167003Y-2849886D01*
X12179117Y-2840068D01*
X12193444Y-2839047D01*
X12203004Y-2842608D01*
X12208035Y-2850570D01*
X12203541Y-2867618D01*
X12202906Y-2870109D01*
X12202271Y-2871380D01*
X12196800Y-2882370D01*
X12194456Y-2890382D01*
X12186249Y-2910312D01*
X12167198Y-2909188D01*
X12165977Y-2909188D01*
X12164805Y-2909188D01*
X12156109Y-2908065D01*
X12153032Y-2907527D01*
X12150345Y-2906941D01*
X12138035Y-2904743D01*
X12121134Y-2903620D01*
X12108971Y-2901373D01*
X12103255Y-2900786D01*
X12095488Y-2899126D01*
X12093339Y-2899126D01*
X12076682Y-2891994D01*
X12073946Y-2884959D01*
X12084937Y-2873773D01*
X12114784Y-2874750D01*
X12117177Y-2874750D01*
X12119180Y-2876313D01*
X12125937Y-2877465D01*
X12122502Y-2874066D01*
X12119864Y-2871917D01*
X12116933Y-2869572D01*
X12103060Y-2856871D01*
X12102718Y-2855357D01*
X12101253Y-2853892D01*
X12096807Y-2849495D01*
X12085572Y-2839384D01*
X12083423Y-2837186D01*
X12075426Y-2833645D01*
X12064567Y-2833082D01*
X12047812Y-2838700D01*
X12045663Y-2839286D01*
X12043416Y-2839823D01*
X12032474Y-2844171D01*
X12021141Y-2847590D01*
X12003360Y-2854234D01*
X11980890Y-2862147D01*
X11955195Y-2872161D01*
X11906786Y-2889063D01*
X11904100Y-2889600D01*
X11902585Y-2890089D01*
X11836542Y-2913585D01*
X11756968Y-2941624D01*
X11748175Y-2944897D01*
X11734742Y-2949391D01*
X11730199Y-2951100D01*
X11723555Y-2953885D01*
X11721846Y-2954471D01*
X11720185Y-2955008D01*
X11713102Y-2958965D01*
X11713199Y-2964045D01*
X11718573Y-2969223D01*
X11720234Y-2970982D01*
X11731860Y-2981435D01*
X11743095Y-2992671D01*
X11749738Y-2999363D01*
X11763269Y-3011721D01*
X11769815Y-3017193D01*
X11783395Y-3030724D01*
X11792236Y-3038539D01*
X11802446Y-3048651D01*
X11811287Y-3056418D01*
X11816319Y-3062719D01*
X11812362Y-3073368D01*
X11800971Y-3078121D01*
X11787498Y-3078156D01*
X11765467Y-3062084D01*
X11754330Y-3052070D01*
X11749836Y-3047527D01*
X11737575Y-3035218D01*
X11719647Y-3019537D01*
X11703967Y-3005078D01*
X11700450Y-3000389D01*
X11689557Y-2990619D01*
X11688140Y-2989935D01*
X11686724Y-2988079D01*
X11682718Y-2984855D01*
X11671675Y-2971851D01*
X11668796Y-2962384D01*
X11671745Y-2951466D01*
X11678224Y-2942308D01*
X11691643Y-2934514D01*
X11727952Y-2920717D01*
X11739285Y-2916223D01*
X11744707Y-2915001D01*
X11745244Y-2914464D01*
X11747198Y-2913927D01*
X11753841Y-2911728D01*
X11789599Y-2898344D01*
X11843332Y-2880417D01*
X11897017Y-2860291D01*
X11954169Y-2840116D01*
X12012299Y-2819991D01*
X12027931Y-2814373D01*
X12029054Y-2813836D01*
X12030178Y-2813250D01*
X12063398Y-2806075D01*
X12090514Y-2808062D01*
G37*
G36*
X13491396Y-2997547D02*
G01*
X13504525Y-3002636D01*
X13511101Y-3009739D01*
X13514149Y-3019342D01*
X13513469Y-3029419D01*
X13509264Y-3037416D01*
X13503304Y-3042203D01*
X13502229Y-3042740D01*
X13499982Y-3044450D01*
X13489252Y-3046007D01*
X13479515Y-3043375D01*
X13472365Y-3038346D01*
X13467449Y-3030089D01*
X13466844Y-3019603D01*
X13469794Y-3009816D01*
X13473060Y-3006726D01*
X13475851Y-3002636D01*
X13479026Y-3001024D01*
X13479066Y-3001043D01*
X13480409Y-2999773D01*
X13491396Y-2997547D01*
G37*
G36*
X12594086Y-2828344D02*
G01*
X12616611Y-2829609D01*
X12637170Y-2839188D01*
X12647904Y-2850420D01*
X12655733Y-2867081D01*
X12655733Y-2871917D01*
X12644204Y-2874506D01*
X12643569Y-2874310D01*
X12643423Y-2875434D01*
X12627449Y-2876753D01*
X12624909Y-2871624D01*
X12623151Y-2869914D01*
X12622369Y-2867716D01*
X12620415Y-2862880D01*
X12616556Y-2860926D01*
X12612990Y-2858630D01*
X12601528Y-2856542D01*
X12589885Y-2858679D01*
X12581518Y-2865730D01*
X12573911Y-2877974D01*
X12572077Y-2899343D01*
X12577086Y-2914562D01*
X12587224Y-2924027D01*
X12596089Y-2927311D01*
X12606822Y-2926378D01*
X12619585Y-2920912D01*
X12628329Y-2903717D01*
X12656417Y-2908553D01*
X12656758Y-2915978D01*
X12645074Y-2937722D01*
X12626863Y-2951589D01*
X12605418Y-2957295D01*
X12580897Y-2953885D01*
X12559127Y-2941316D01*
X12545286Y-2922817D01*
X12539571Y-2895315D01*
X12539571Y-2893117D01*
X12542708Y-2869343D01*
X12554470Y-2848421D01*
X12572427Y-2834783D01*
X12594086Y-2828344D01*
G37*
G36*
X12721629Y-2828881D02*
G01*
X12744273Y-2829532D01*
X12765056Y-2838309D01*
X12768133Y-2841435D01*
X12769110Y-2842412D01*
X12771259Y-2843389D01*
X12781534Y-2859139D01*
X12784449Y-2871917D01*
X12772920Y-2874506D01*
X12772285Y-2874310D01*
X12772090Y-2875434D01*
X12756165Y-2876753D01*
X12755384Y-2875190D01*
X12754602Y-2873627D01*
X12746693Y-2862761D01*
X12736577Y-2856530D01*
X12725476Y-2856549D01*
X12715474Y-2860779D01*
X12705885Y-2870893D01*
X12700478Y-2884324D01*
X12702198Y-2903706D01*
X12709075Y-2918909D01*
X12718318Y-2925220D01*
X12729152Y-2927311D01*
X12748301Y-2920961D01*
X12757093Y-2903668D01*
X12785523Y-2908602D01*
X12783784Y-2920958D01*
X12778636Y-2931903D01*
X12778049Y-2933026D01*
X12777512Y-2934150D01*
X12764689Y-2947624D01*
X12746249Y-2956132D01*
X12715926Y-2955739D01*
X12691294Y-2945825D01*
X12676534Y-2928134D01*
X12668238Y-2903326D01*
X12668238Y-2897562D01*
X12668238Y-2896439D01*
X12668238Y-2894241D01*
X12671428Y-2869501D01*
X12683186Y-2848421D01*
X12700083Y-2835571D01*
X12721629Y-2828881D01*
G37*
G36*
X12521399Y-2829956D02*
G01*
X12521399Y-2955106D01*
X12492188Y-2955106D01*
X12481490Y-2939670D01*
X12471574Y-2924185D01*
X12467079Y-2918616D01*
X12465907Y-2916320D01*
X12454672Y-2899419D01*
X12453939Y-2898002D01*
X12452229Y-2895950D01*
X12450031Y-2893703D01*
X12449445Y-2892042D01*
X12448908Y-2890382D01*
X12445195Y-2885741D01*
X12444169Y-2955106D01*
X12415300Y-2955106D01*
X12415300Y-2829956D01*
X12440213Y-2830591D01*
X12450471Y-2837137D01*
X12453158Y-2841191D01*
X12453353Y-2842266D01*
X12455356Y-2843878D01*
X12455356Y-2845441D01*
X12458580Y-2849886D01*
X12464100Y-2859802D01*
X12478657Y-2882175D01*
X12491504Y-2901617D01*
X12492530Y-2829956D01*
X12521399Y-2829956D01*
G37*
G36*
X12868908Y-2831128D02*
G01*
X12885858Y-2841631D01*
X12892804Y-2854499D01*
X12895237Y-2870744D01*
X12891964Y-2883746D01*
X12884637Y-2894290D01*
X12874721Y-2900249D01*
X12893869Y-2933661D01*
X12900659Y-2946118D01*
X12901783Y-2948365D01*
X12903053Y-2955106D01*
X12870373Y-2955106D01*
X12850980Y-2919788D01*
X12848440Y-2915881D01*
X12848147Y-2914220D01*
X12846193Y-2913682D01*
X12845216Y-2909433D01*
X12843995Y-2905818D01*
X12831441Y-2905818D01*
X12831441Y-2955106D01*
X12801448Y-2955106D01*
X12801448Y-2906502D01*
X12801448Y-2884129D01*
X12801448Y-2879195D01*
X12831441Y-2879195D01*
X12843311Y-2879195D01*
X12845509Y-2879195D01*
X12847756Y-2879195D01*
X12863486Y-2875092D01*
X12865293Y-2864492D01*
X12860408Y-2857555D01*
X12843311Y-2856578D01*
X12838817Y-2856578D01*
X12831441Y-2856578D01*
X12831441Y-2879195D01*
X12801448Y-2879195D01*
X12801448Y-2862880D01*
X12801448Y-2855015D01*
X12801448Y-2843829D01*
X12801448Y-2840458D01*
X12801448Y-2837137D01*
X12801448Y-2834890D01*
X12803022Y-2831343D01*
X12808580Y-2829956D01*
X12811950Y-2829956D01*
X12815321Y-2829956D01*
X12816444Y-2829956D01*
X12818691Y-2829956D01*
X12825921Y-2829956D01*
X12836570Y-2829956D01*
X12868908Y-2831128D01*
G37*
G36*
X10673946Y-3188332D02*
G01*
X10688607Y-3197560D01*
X10698103Y-3212429D01*
X10700392Y-3231388D01*
X10695037Y-3244755D01*
X10684943Y-3255079D01*
X10671679Y-3261645D01*
X10656428Y-3263872D01*
X10642017Y-3258429D01*
X10630294Y-3243966D01*
X10625490Y-3227663D01*
X10649895Y-3227663D01*
X10656329Y-3237620D01*
X10663450Y-3240364D01*
X10672487Y-3235418D01*
X10676883Y-3226930D01*
X10674551Y-3216128D01*
X10668335Y-3210566D01*
X10659323Y-3209631D01*
X10652398Y-3214169D01*
X10649895Y-3227663D01*
X10625490Y-3227663D01*
X10624931Y-3225768D01*
X10628096Y-3209284D01*
X10633164Y-3201346D01*
X10640919Y-3191271D01*
X10646231Y-3187363D01*
X10656184Y-3187180D01*
X10673946Y-3188332D01*
G37*
G36*
X11156088Y-3162023D02*
G01*
X11167689Y-3162023D01*
X11167689Y-3177960D01*
X11167689Y-3189806D01*
X11179535Y-3188584D01*
X11194415Y-3188796D01*
X11203288Y-3191821D01*
X11211165Y-3197011D01*
X11213851Y-3202323D01*
X11216538Y-3204949D01*
X11219408Y-3221191D01*
X11215134Y-3243112D01*
X11213851Y-3249279D01*
X11204875Y-3258804D01*
X11196510Y-3261918D01*
X11185397Y-3263872D01*
X11174956Y-3263872D01*
X11173734Y-3261063D01*
X11160729Y-3260941D01*
X11150803Y-3261841D01*
X11147295Y-3258377D01*
X11144579Y-3226107D01*
X11167021Y-3226107D01*
X11170071Y-3234075D01*
X11171231Y-3236090D01*
X11175444Y-3237799D01*
X11184908Y-3240425D01*
X11192053Y-3235662D01*
X11194617Y-3221252D01*
X11187595Y-3212032D01*
X11176379Y-3211096D01*
X11170193Y-3215390D01*
X11167021Y-3226107D01*
X11144579Y-3226107D01*
X11144181Y-3221374D01*
X11144181Y-3172220D01*
X11145891Y-3160313D01*
X11156088Y-3162023D01*
G37*
G36*
X11277737Y-3191166D02*
G01*
X11290421Y-3202689D01*
X11296648Y-3219266D01*
X11294940Y-3240059D01*
X11284499Y-3253614D01*
X11271554Y-3262468D01*
X11259769Y-3263872D01*
X11249083Y-3263872D01*
X11248961Y-3261186D01*
X11248290Y-3261063D01*
X11234307Y-3253553D01*
X11225331Y-3242318D01*
X11222339Y-3241463D01*
X11221911Y-3238776D01*
X11224476Y-3237250D01*
X11221117Y-3230594D01*
X11221760Y-3224488D01*
X11245969Y-3224488D01*
X11250732Y-3236517D01*
X11260563Y-3238959D01*
X11271004Y-3232243D01*
X11273508Y-3222839D01*
X11270088Y-3218504D01*
X11267463Y-3213925D01*
X11260746Y-3209284D01*
X11252090Y-3211984D01*
X11245969Y-3224488D01*
X11221760Y-3224488D01*
X11222583Y-3216672D01*
X11226979Y-3204949D01*
X11235383Y-3193108D01*
X11241512Y-3191393D01*
X11241817Y-3191393D01*
X11244321Y-3190355D01*
X11259464Y-3187180D01*
X11277737Y-3191166D01*
G37*
G36*
X10787403Y-3188768D02*
G01*
X10797380Y-3194681D01*
X10802485Y-3202567D01*
X10801996Y-3208755D01*
X10796807Y-3212520D01*
X10781419Y-3211848D01*
X10767803Y-3211238D01*
X10759132Y-3217161D01*
X10759918Y-3230096D01*
X10764078Y-3236639D01*
X10765421Y-3237555D01*
X10768841Y-3238471D01*
X10775802Y-3239204D01*
X10789663Y-3236883D01*
X10802180Y-3239753D01*
X10799005Y-3249279D01*
X10787464Y-3259476D01*
X10775192Y-3262809D01*
X10761514Y-3261002D01*
X10749116Y-3254688D01*
X10740264Y-3244943D01*
X10735746Y-3233098D01*
X10734281Y-3218260D01*
X10736845Y-3209589D01*
X10740020Y-3203727D01*
X10748494Y-3193926D01*
X10763712Y-3187241D01*
X10787403Y-3188768D01*
G37*
G36*
X10860371Y-3193103D02*
G01*
X10872339Y-3203911D01*
X10873316Y-3206780D01*
X10877224Y-3212642D01*
X10877285Y-3223877D01*
X10874842Y-3230960D01*
X10869191Y-3234138D01*
X10851456Y-3235601D01*
X10831917Y-3234990D01*
X10833138Y-3238654D01*
X10843823Y-3241768D01*
X10855059Y-3238044D01*
X10865866Y-3239204D01*
X10875331Y-3244882D01*
X10866233Y-3252149D01*
X10848207Y-3262560D01*
X10831404Y-3262163D01*
X10813293Y-3250744D01*
X10802791Y-3241829D01*
X10802791Y-3225465D01*
X10807124Y-3209895D01*
X10832955Y-3209895D01*
X10833425Y-3213851D01*
X10842602Y-3216550D01*
X10850906Y-3216367D01*
X10850479Y-3213558D01*
X10846999Y-3208918D01*
X10839855Y-3207208D01*
X10832955Y-3209895D01*
X10807124Y-3209895D01*
X10808501Y-3204949D01*
X10821964Y-3191698D01*
X10841097Y-3186124D01*
X10860371Y-3193103D01*
G37*
G36*
X10632004Y-3164832D02*
G01*
X10631760Y-3172709D01*
X10621868Y-3202506D01*
X10612281Y-3226930D01*
X10610572Y-3233098D01*
X10605137Y-3244394D01*
X10597627Y-3258499D01*
X10586514Y-3262468D01*
X10578026Y-3259109D01*
X10570577Y-3244211D01*
X10560990Y-3217955D01*
X10555189Y-3205926D01*
X10548290Y-3186997D01*
X10542611Y-3165564D01*
X10554335Y-3163427D01*
X10562624Y-3164996D01*
X10565997Y-3168801D01*
X10570088Y-3177166D01*
X10584193Y-3215207D01*
X10587307Y-3224977D01*
X10589628Y-3221130D01*
X10594452Y-3209528D01*
X10597138Y-3198781D01*
X10602894Y-3179945D01*
X10610266Y-3166908D01*
X10622906Y-3163427D01*
X10632004Y-3164832D01*
G37*
G36*
X11119696Y-3162023D02*
G01*
X11129893Y-3162023D01*
X11129893Y-3203056D01*
X11134778Y-3243600D01*
X11140395Y-3252942D01*
X11135510Y-3261002D01*
X11120450Y-3262295D01*
X11111086Y-3257583D01*
X11108333Y-3246809D01*
X11107789Y-3207269D01*
X11107789Y-3160313D01*
X11119696Y-3162023D01*
G37*
G36*
X11053689Y-3194690D02*
G01*
X11060246Y-3204319D01*
X11063398Y-3222046D01*
X11066695Y-3246958D01*
X11067367Y-3256545D01*
X11056620Y-3261063D01*
X11046850Y-3259171D01*
X11036287Y-3260941D01*
X11016931Y-3261002D01*
X11005879Y-3261491D01*
X11004352Y-3260025D01*
X11002887Y-3257400D01*
X11003086Y-3256500D01*
X10998673Y-3252087D01*
X10997330Y-3241280D01*
X10996744Y-3237860D01*
X11020777Y-3237860D01*
X11025235Y-3243356D01*
X11034577Y-3242074D01*
X11039889Y-3235540D01*
X11036653Y-3231632D01*
X11023586Y-3232060D01*
X11020777Y-3237860D01*
X10996744Y-3237860D01*
X10995498Y-3230594D01*
X10998551Y-3230472D01*
X10998673Y-3229495D01*
X11006249Y-3219351D01*
X11027189Y-3215146D01*
X11039279Y-3212948D01*
X11034638Y-3208368D01*
X11023403Y-3209284D01*
X11018457Y-3209284D01*
X11016870Y-3209101D01*
X11009280Y-3211107D01*
X11004535Y-3206903D01*
X11002910Y-3198021D01*
X11012412Y-3190172D01*
X11035855Y-3186244D01*
X11053689Y-3194690D01*
G37*
G36*
X10728358Y-3224122D02*
G01*
X10728358Y-3261063D01*
X10716634Y-3261063D01*
X10706254Y-3261063D01*
X10706254Y-3228396D01*
X10708208Y-3192004D01*
X10719626Y-3188584D01*
X10728358Y-3188584D01*
X10728358Y-3224122D01*
G37*
G36*
X10988354Y-3197988D02*
G01*
X10991407Y-3231144D01*
X10991407Y-3261063D01*
X10982614Y-3261063D01*
X10970647Y-3259842D01*
X10967899Y-3234929D01*
X10966067Y-3211848D01*
X10959624Y-3210387D01*
X10953244Y-3215512D01*
X10949625Y-3223560D01*
X10948054Y-3239448D01*
X10949520Y-3259659D01*
X10936269Y-3259659D01*
X10924546Y-3259659D01*
X10924546Y-3236700D01*
X10924546Y-3214352D01*
X10921004Y-3211665D01*
X10915264Y-3209284D01*
X10907239Y-3214945D01*
X10903236Y-3240913D01*
X10903236Y-3261063D01*
X10892916Y-3261063D01*
X10881437Y-3258865D01*
X10880460Y-3231205D01*
X10882597Y-3199942D01*
X10887178Y-3189766D01*
X10892550Y-3187180D01*
X10900732Y-3188584D01*
X10902136Y-3188584D01*
X10908242Y-3187180D01*
X10908282Y-3189900D01*
X10921554Y-3187913D01*
X10937185Y-3191637D01*
X10943609Y-3193135D01*
X10952206Y-3190172D01*
X10973730Y-3187017D01*
X10988354Y-3197988D01*
G37*
G36*
X11096309Y-3225465D02*
G01*
X11096309Y-3261063D01*
X11084586Y-3261063D01*
X11074267Y-3261063D01*
X11072801Y-3228396D01*
X11074267Y-3194202D01*
X11077676Y-3189206D01*
X11084769Y-3188584D01*
X11094844Y-3188584D01*
X11096309Y-3225465D01*
G37*
G36*
X11315884Y-3187974D02*
G01*
X11321929Y-3190721D01*
X11324127Y-3194263D01*
X11327485Y-3200613D01*
X11332004Y-3205376D01*
X11336034Y-3198171D01*
X11341773Y-3189500D01*
X11351910Y-3188584D01*
X11363938Y-3191637D01*
X11358993Y-3202811D01*
X11349223Y-3218138D01*
X11344399Y-3225465D01*
X11354779Y-3239814D01*
X11364915Y-3258438D01*
X11353192Y-3261063D01*
X11341529Y-3259293D01*
X11335973Y-3248668D01*
X11331882Y-3240425D01*
X11329500Y-3243600D01*
X11322906Y-3254102D01*
X11318971Y-3259001D01*
X11308190Y-3261063D01*
X11295245Y-3258438D01*
X11304893Y-3240608D01*
X11313441Y-3223206D01*
X11313441Y-3221801D01*
X11306786Y-3209772D01*
X11300008Y-3201773D01*
X11295758Y-3194989D01*
X11297199Y-3190538D01*
X11302206Y-3187974D01*
X11309106Y-3187180D01*
X11315884Y-3187974D01*
G37*
G36*
X11092646Y-3160924D02*
G01*
X11098361Y-3168786D01*
X11096065Y-3180341D01*
X11085074Y-3185531D01*
X11075793Y-3180158D01*
X11072769Y-3169927D01*
X11076098Y-3162695D01*
X11083424Y-3158085D01*
X11092646Y-3160924D01*
G37*
G36*
X10728113Y-3165809D02*
G01*
X10728052Y-3178998D01*
X10720836Y-3184511D01*
X10713154Y-3184066D01*
X10707108Y-3178989D01*
X10704910Y-3169533D01*
X10710223Y-3162206D01*
X10720415Y-3159892D01*
X10728113Y-3165809D01*
G37*
G36*
X10984035Y-2625366D02*
G01*
X10988598Y-2628169D01*
X10998307Y-2632871D01*
X11009848Y-2637389D01*
X11014061Y-2641664D01*
X11026090Y-2647159D01*
X11075055Y-2656457D01*
X11112246Y-2674087D01*
X11141983Y-2702419D01*
X11162175Y-2730228D01*
X11168972Y-2747543D01*
X11170498Y-2750474D01*
X11174589Y-2770319D01*
X11177459Y-2794621D01*
X11177459Y-2799872D01*
X11188206Y-2801093D01*
X11217518Y-2805524D01*
X11241084Y-2818251D01*
X11247984Y-2823441D01*
X11252829Y-2824540D01*
X11259708Y-2834188D01*
X11263860Y-2839683D01*
X11265264Y-2841882D01*
X11268867Y-2848354D01*
X11272470Y-2856903D01*
X11279614Y-2892562D01*
X11276149Y-2921967D01*
X11266669Y-2943975D01*
X11260013Y-2955516D01*
X11249572Y-2965407D01*
X11235528Y-2976582D01*
X11228689Y-2981222D01*
X11213973Y-2985313D01*
X11195221Y-2989051D01*
X11139113Y-2991053D01*
X11078541Y-2991053D01*
X11075121Y-2995632D01*
X11073839Y-3002166D01*
X11072007Y-3005891D01*
X11067861Y-3007614D01*
X11068344Y-3008699D01*
X11066878Y-3013401D01*
X11062787Y-3013401D01*
X11059795Y-3016454D01*
X11055094Y-3023232D01*
X11048377Y-3029155D01*
X11041662Y-3033389D01*
X11041782Y-3034650D01*
X11040073Y-3037764D01*
X11035615Y-3036665D01*
X11032806Y-3039474D01*
X11015153Y-3050010D01*
X10974432Y-3060906D01*
X10969914Y-3063959D01*
X10968998Y-3077576D01*
X10969853Y-3089849D01*
X10990858Y-3092047D01*
X11018518Y-3093696D01*
X11023364Y-3096571D01*
X11024991Y-3102061D01*
X11020228Y-3113602D01*
X11016015Y-3119219D01*
X11011191Y-3119647D01*
X10953061Y-3118365D01*
X10895359Y-3116838D01*
X10886677Y-3113052D01*
X10883940Y-3105236D01*
X10885345Y-3097665D01*
X10886749Y-3093330D01*
X10889069Y-3090765D01*
X10891145Y-3091620D01*
X10916669Y-3090643D01*
X10939933Y-3090643D01*
X10939933Y-3077210D01*
X10939933Y-3062005D01*
X10934560Y-3060967D01*
X10911967Y-3056754D01*
X10894966Y-3050394D01*
X10875025Y-3038314D01*
X10855242Y-3022072D01*
X10840587Y-3008089D01*
X10835336Y-2997220D01*
X10830451Y-2991053D01*
X10771222Y-2991053D01*
X10710034Y-2988555D01*
X10689218Y-2983848D01*
X10680303Y-2981955D01*
X10673281Y-2976459D01*
X10657955Y-2962538D01*
X10647513Y-2950692D01*
X10643727Y-2945563D01*
X10635671Y-2932412D01*
X10630722Y-2913933D01*
X10629917Y-2899157D01*
X10645865Y-2899157D01*
X10650994Y-2913689D01*
X10654631Y-2919500D01*
X10650872Y-2921077D01*
X10650068Y-2923917D01*
X10669068Y-2945685D01*
X10697827Y-2967728D01*
X10712787Y-2973162D01*
X10764200Y-2973162D01*
X10814386Y-2971567D01*
X10819582Y-2969743D01*
X10819582Y-2965652D01*
X10814823Y-2943234D01*
X10812621Y-2895371D01*
X10813203Y-2875831D01*
X10838878Y-2875831D01*
X10838878Y-2924619D01*
X10842149Y-2948318D01*
X10848586Y-2967361D01*
X10853715Y-2979329D01*
X10856707Y-2982932D01*
X10858417Y-2984031D01*
X10861165Y-2988427D01*
X10871484Y-3001983D01*
X10880131Y-3008006D01*
X10884307Y-3007845D01*
X10886749Y-3009432D01*
X10889619Y-3016515D01*
X10897862Y-3020851D01*
X10905189Y-3025247D01*
X10908975Y-3029643D01*
X10913005Y-3027689D01*
X10920210Y-3030620D01*
X10951657Y-3037520D01*
X10976447Y-3034895D01*
X10990308Y-3029399D01*
X10995865Y-3029277D01*
X11010458Y-3022866D01*
X11031463Y-3007234D01*
X11047330Y-2991597D01*
X11056376Y-2978108D01*
X11064680Y-2964308D01*
X11071220Y-2940666D01*
X11071458Y-2881510D01*
X11068649Y-2858279D01*
X11065840Y-2853850D01*
X11063886Y-2851651D01*
X11060100Y-2858246D01*
X11053262Y-2863741D01*
X11054361Y-2884014D01*
X11051491Y-2926695D01*
X11041866Y-2950128D01*
X11032928Y-2963698D01*
X11027738Y-2972857D01*
X11024685Y-2979879D01*
X11023220Y-2979512D01*
X11020900Y-2981894D01*
X11013084Y-2985680D01*
X11009420Y-2993862D01*
X11002887Y-2993862D01*
X11000261Y-2994961D01*
X10992201Y-2999418D01*
X10992445Y-3000029D01*
X10986656Y-3002252D01*
X10986855Y-3003836D01*
X10978279Y-3005036D01*
X10957457Y-3006440D01*
X10938406Y-3005708D01*
X10929125Y-3002227D01*
X10920455Y-3001250D01*
X10917524Y-2999785D01*
X10908426Y-2994778D01*
X10894626Y-2985130D01*
X10882536Y-2974811D01*
X10879239Y-2974628D01*
X10873010Y-2966262D01*
X10868248Y-2960278D01*
X10868919Y-2954355D01*
X10865622Y-2950570D01*
X10863607Y-2945746D01*
X10864157Y-2946295D01*
X10860737Y-2942693D01*
X10862142Y-2938724D01*
X10859196Y-2929091D01*
X10857379Y-2888410D01*
X10853715Y-2860933D01*
X10847060Y-2855742D01*
X10845350Y-2847805D01*
X10845838Y-2851163D01*
X10843518Y-2852384D01*
X10840601Y-2856483D01*
X10838878Y-2875831D01*
X10813203Y-2875831D01*
X10814087Y-2846156D01*
X10831123Y-2843042D01*
X10849258Y-2843897D01*
X10854326Y-2841943D01*
X10855975Y-2770868D01*
X10857670Y-2710784D01*
X10878079Y-2710784D01*
X10878079Y-2719943D01*
X10901282Y-2719943D01*
X10925738Y-2721810D01*
X10932361Y-2725134D01*
X10934235Y-2735434D01*
X10930346Y-2741681D01*
X10901282Y-2743391D01*
X10881864Y-2743879D01*
X10879483Y-2745162D01*
X10882841Y-2751023D01*
X10902686Y-2752122D01*
X10927599Y-2754504D01*
X10932312Y-2758226D01*
X10934010Y-2765251D01*
X10928507Y-2772190D01*
X10901343Y-2776974D01*
X10878079Y-2779233D01*
X10882780Y-2785889D01*
X10905495Y-2787049D01*
X10929919Y-2790346D01*
X10933627Y-2794867D01*
X10933949Y-2803658D01*
X10930530Y-2810496D01*
X10904151Y-2811962D01*
X10878323Y-2811962D01*
X10879300Y-2817457D01*
X10880338Y-2823991D01*
X10901282Y-2822037D01*
X10928270Y-2823686D01*
X10934010Y-2832417D01*
X10932318Y-2839403D01*
X10927599Y-2843164D01*
X10902686Y-2845545D01*
X10880521Y-2847560D01*
X10879483Y-2889692D01*
X10884246Y-2936648D01*
X10889762Y-2948221D01*
X10901221Y-2961011D01*
X10920511Y-2976340D01*
X10928209Y-2978597D01*
X10932117Y-2980612D01*
X10954465Y-2982932D01*
X10985790Y-2977497D01*
X10993056Y-2972918D01*
X10993361Y-2969254D01*
X10991712Y-2967545D01*
X10998429Y-2967545D01*
X11002144Y-2966807D01*
X11012839Y-2955943D01*
X11025357Y-2932190D01*
X11027372Y-2927000D01*
X11028044Y-2921749D01*
X11029448Y-2879984D01*
X11029448Y-2846950D01*
X11007588Y-2846950D01*
X10980669Y-2841811D01*
X10974921Y-2833822D01*
X10980175Y-2825876D01*
X11003436Y-2822037D01*
X11027494Y-2820938D01*
X11030852Y-2815626D01*
X11030852Y-2811962D01*
X11008993Y-2811962D01*
X10982217Y-2808319D01*
X10974982Y-2803658D01*
X10975603Y-2794939D01*
X10980416Y-2790285D01*
X11009054Y-2787049D01*
X11027557Y-2785179D01*
X11030852Y-2782042D01*
X11026761Y-2776730D01*
X11003436Y-2775570D01*
X10980661Y-2773982D01*
X10974921Y-2765251D01*
X10976606Y-2758219D01*
X10981271Y-2754504D01*
X11007649Y-2752122D01*
X11030852Y-2752122D01*
X11030852Y-2748459D01*
X11030852Y-2743391D01*
X11007649Y-2743391D01*
X10983207Y-2741324D01*
X10976569Y-2737590D01*
X10976508Y-2725195D01*
X10984366Y-2721194D01*
X11017480Y-2719943D01*
X11029875Y-2717196D01*
X11029509Y-2705655D01*
X11017148Y-2678506D01*
X11008698Y-2669935D01*
X11039584Y-2669935D01*
X11044889Y-2676572D01*
X11054300Y-2701686D01*
X11055765Y-2776425D01*
X11054422Y-2843042D01*
X11073412Y-2843042D01*
X11094844Y-2843042D01*
X11096309Y-2895371D01*
X11092279Y-2959607D01*
X11088555Y-2972124D01*
X11143998Y-2973162D01*
X11199258Y-2972246D01*
X11204875Y-2968949D01*
X11222949Y-2962171D01*
X11239741Y-2951425D01*
X11259036Y-2919856D01*
X11263066Y-2903370D01*
X11263066Y-2888654D01*
X11255006Y-2865695D01*
X11243832Y-2848720D01*
X11240718Y-2844629D01*
X11239924Y-2841332D01*
X11233024Y-2836753D01*
X11215317Y-2824357D01*
X11186557Y-2820388D01*
X11162988Y-2816358D01*
X11159568Y-2794621D01*
X11157576Y-2769810D01*
X11154500Y-2765800D01*
X11151936Y-2760915D01*
X11151569Y-2756030D01*
X11149799Y-2749741D01*
X11147662Y-2743391D01*
X11145585Y-2738689D01*
X11137525Y-2727210D01*
X11128916Y-2712738D01*
X11121467Y-2705167D01*
X11113529Y-2698816D01*
X11111147Y-2695824D01*
X11102782Y-2691062D01*
X11091194Y-2682479D01*
X11062970Y-2670545D01*
X11045385Y-2666454D01*
X11040195Y-2668164D01*
X11039584Y-2669935D01*
X11008698Y-2669935D01*
X10996658Y-2657723D01*
X10975043Y-2645449D01*
X10947688Y-2643373D01*
X10934010Y-2644900D01*
X10932785Y-2649435D01*
X10929431Y-2647831D01*
X10922541Y-2649032D01*
X10901221Y-2665905D01*
X10885127Y-2686897D01*
X10878079Y-2710784D01*
X10857670Y-2710784D01*
X10857700Y-2709720D01*
X10860982Y-2688375D01*
X10870507Y-2668714D01*
X10873010Y-2662730D01*
X10864706Y-2666088D01*
X10845032Y-2683412D01*
X10840221Y-2691489D01*
X10836798Y-2698118D01*
X10829474Y-2701992D01*
X10814575Y-2704251D01*
X10794670Y-2708891D01*
X10781542Y-2714875D01*
X10778855Y-2719760D01*
X10776229Y-2717501D01*
X10765299Y-2726294D01*
X10754980Y-2737285D01*
X10751744Y-2744062D01*
X10749363Y-2749863D01*
X10745821Y-2760427D01*
X10740997Y-2782225D01*
X10736234Y-2802314D01*
X10719443Y-2806344D01*
X10696541Y-2811755D01*
X10673281Y-2829608D01*
X10657399Y-2847268D01*
X10652764Y-2858002D01*
X10647147Y-2877663D01*
X10645865Y-2899157D01*
X10629917Y-2899157D01*
X10628700Y-2876806D01*
X10639392Y-2844080D01*
X10657678Y-2817360D01*
X10680639Y-2799694D01*
X10709246Y-2789919D01*
X10723045Y-2787355D01*
X10723045Y-2779233D01*
X10726340Y-2756113D01*
X10735990Y-2736247D01*
X10739837Y-2728858D01*
X10742646Y-2724096D01*
X10745455Y-2723302D01*
X10753698Y-2712860D01*
X10764200Y-2704556D01*
X10768413Y-2700893D01*
X10777206Y-2694298D01*
X10778183Y-2695275D01*
X10804500Y-2687764D01*
X10812621Y-2684406D01*
X10815980Y-2682147D01*
X10836985Y-2665905D01*
X10867515Y-2643722D01*
X10900915Y-2631833D01*
X10927355Y-2624567D01*
X10953122Y-2623406D01*
X10984035Y-2625366D01*
G37*
D11*
%TO.C,U505*%
X11730000Y3974400D03*
X11770000Y3974400D03*
X11770000Y4012500D03*
X11730000Y4012500D03*
%TD*%
D12*
%TO.C,C522*%
X11837250Y4385000D03*
X12009750Y4385000D03*
%TD*%
D11*
%TO.C,U504*%
X11511000Y4200600D03*
X11471000Y4200600D03*
X11471000Y4162500D03*
X11511000Y4162500D03*
%TD*%
D13*
%TO.C,SW802*%
X1270000Y-740000D03*
X1270000Y-90000D03*
X1720000Y-740000D03*
X1720000Y-90000D03*
%TD*%
D12*
%TO.C,C608*%
X5203750Y-940000D03*
X5376250Y-940000D03*
%TD*%
D14*
%TO.C,R103*%
X-650900Y-978388D03*
X-650900Y-808388D03*
%TD*%
D15*
%TO.C,J104*%
X6250000Y870000D03*
D16*
X6250000Y616000D03*
X5996000Y870000D03*
X5996000Y616000D03*
X5742000Y870000D03*
X5742000Y616000D03*
X5488000Y870000D03*
X5488000Y616000D03*
X5234000Y870000D03*
X5234000Y616000D03*
X4980000Y870000D03*
X4980000Y616000D03*
X4726000Y870000D03*
X4726000Y616000D03*
X4472000Y870000D03*
X4472000Y616000D03*
X4218000Y870000D03*
X4218000Y616000D03*
X3964000Y870000D03*
X3964000Y616000D03*
%TD*%
D12*
%TO.C,C510*%
X12112250Y5592500D03*
X12284750Y5592500D03*
%TD*%
D17*
%TO.C,LED804*%
X-440000Y-350625D03*
X-440000Y-190625D03*
%TD*%
D15*
%TO.C,J801*%
X1000000Y860000D03*
D16*
X1254000Y860000D03*
X1508000Y860000D03*
X1762000Y860000D03*
X2016000Y860000D03*
X2270000Y860000D03*
X2524000Y860000D03*
X2778000Y860000D03*
%TD*%
D18*
%TO.C,R601*%
X4850000Y-1808750D03*
X4850000Y-1991250D03*
%TD*%
D19*
%TO.C,C602*%
X5556000Y19250D03*
X5556000Y-153250D03*
%TD*%
D14*
%TO.C,R102*%
X-3390000Y1970000D03*
X-3390000Y2140000D03*
%TD*%
D20*
%TO.C,C808*%
X1880000Y-2986250D03*
X1880000Y-3193750D03*
%TD*%
D12*
%TO.C,C814*%
X2153750Y-1110000D03*
X2326250Y-1110000D03*
%TD*%
D21*
%TO.C,C805*%
X2556250Y-3000000D03*
X2383750Y-3000000D03*
%TD*%
D19*
%TO.C,C512*%
X12013500Y4868750D03*
X12013500Y4696250D03*
%TD*%
D22*
%TO.C,C521*%
X11341000Y4353750D03*
X11341000Y4526250D03*
%TD*%
D23*
%TO.C,C401*%
X-4810000Y535000D03*
X-4602500Y535000D03*
%TD*%
D24*
%TO.C,R811*%
X1278750Y-970000D03*
X1461250Y-970000D03*
%TD*%
%TO.C,R608*%
X4848750Y-2148750D03*
X5031250Y-2148750D03*
%TD*%
D15*
%TO.C,J601*%
X3587500Y-2917500D03*
D16*
X3333500Y-2917500D03*
X3587500Y-2663500D03*
X3333500Y-2663500D03*
%TD*%
D25*
%TO.C,RV801*%
X-90000Y-3820000D03*
D26*
X410000Y-3820000D03*
X910000Y-3820000D03*
%TD*%
D12*
%TO.C,C618*%
X7163750Y-1956825D03*
X7336250Y-1956825D03*
%TD*%
D27*
%TO.C,R106*%
X-600000Y1408750D03*
X-600000Y1591250D03*
%TD*%
D28*
%TO.C,R805*%
X71250Y-1990000D03*
X-111250Y-1990000D03*
%TD*%
D29*
%TO.C,L701*%
X2385000Y-3150000D03*
X2560000Y-3150000D03*
%TD*%
D30*
%TO.C,J605*%
X3980000Y-3560000D03*
D31*
X3980000Y-3840000D03*
D30*
X4720000Y-3750000D03*
D32*
X4720000Y-2810000D03*
D33*
X4275000Y-2410000D03*
D16*
X4350000Y-3640000D03*
X4350000Y-2940000D03*
%TD*%
D29*
%TO.C,L502*%
X11498500Y4537500D03*
X11673500Y4537500D03*
%TD*%
D13*
%TO.C,SW803*%
X2150000Y-730000D03*
X2150000Y-80000D03*
X2600000Y-730000D03*
X2600000Y-80000D03*
%TD*%
D34*
%TO.C,RN402*%
X-1680000Y1370000D03*
D35*
X-1600000Y1370000D03*
X-1520000Y1370000D03*
D34*
X-1440000Y1370000D03*
X-1440000Y1550000D03*
D35*
X-1520000Y1550000D03*
X-1600000Y1550000D03*
D34*
X-1680000Y1550000D03*
%TD*%
D36*
%TO.C,R503*%
X11416000Y3842500D03*
X11416000Y3642500D03*
%TD*%
D15*
%TO.C,CN205*%
X-697401Y2664250D03*
D37*
X-697401Y2410250D03*
X-443401Y2664250D03*
X-443401Y2410250D03*
X-189401Y2664250D03*
X-189401Y2410250D03*
X64599Y2664250D03*
X64599Y2410250D03*
X318599Y2664250D03*
X318599Y2410250D03*
X572599Y2664250D03*
X572599Y2410250D03*
X826599Y2664250D03*
X826599Y2410250D03*
X1080599Y2664250D03*
X1080599Y2410250D03*
X1334599Y2664250D03*
X1334599Y2410250D03*
X1588599Y2664250D03*
X1588599Y2410250D03*
X1842599Y2664250D03*
X1842599Y2410250D03*
X2096599Y2664250D03*
X2096599Y2410250D03*
X2350599Y2664250D03*
X2350599Y2410250D03*
X2604599Y2664250D03*
X2604599Y2410250D03*
X2858599Y2664250D03*
X2858599Y2410250D03*
X3112599Y2664250D03*
X3112599Y2410250D03*
X3366599Y2664250D03*
X3366599Y2410250D03*
%TD*%
D18*
%TO.C,R801*%
X-440000Y-609375D03*
X-440000Y-791875D03*
%TD*%
D12*
%TO.C,C811*%
X993750Y-1360000D03*
X1166250Y-1360000D03*
%TD*%
D38*
%TO.C,R505*%
X12071000Y3455000D03*
X12271000Y3455000D03*
%TD*%
D21*
%TO.C,C506*%
X11092250Y5085000D03*
X10919750Y5085000D03*
%TD*%
D15*
%TO.C,MK601*%
X3229994Y-3777000D03*
D16*
X3229994Y-3523000D03*
%TD*%
D21*
%TO.C,C534*%
X12287250Y5437500D03*
X12114750Y5437500D03*
%TD*%
D22*
%TO.C,C621*%
X6730000Y-3036250D03*
X6730000Y-2863750D03*
%TD*%
D12*
%TO.C,C523*%
X11499750Y4385000D03*
X11672250Y4385000D03*
%TD*%
D22*
%TO.C,C528*%
X12258500Y3675000D03*
X12258500Y3847500D03*
%TD*%
D39*
%TO.C,R501*%
X12436000Y5110000D03*
X12236000Y5110000D03*
%TD*%
D18*
%TO.C,R604*%
X7000000Y-1935575D03*
X7000000Y-2118075D03*
%TD*%
D19*
%TO.C,C612*%
X5000000Y-1813750D03*
X5000000Y-1986250D03*
%TD*%
D15*
%TO.C,CN201*%
X5400000Y4810000D03*
D37*
X5654000Y4810000D03*
X5400000Y5064000D03*
X5654000Y5064000D03*
X5400000Y5318000D03*
X5654000Y5318000D03*
X5400000Y5572000D03*
X5654000Y5572000D03*
X5400000Y5826000D03*
X5654000Y5826000D03*
X5400000Y6080000D03*
X5654000Y6080000D03*
X5400000Y6334000D03*
X5654000Y6334000D03*
X5400000Y6588000D03*
X5654000Y6588000D03*
%TD*%
D25*
%TO.C,RV802*%
X-1960000Y-3820000D03*
D26*
X-1460000Y-3820000D03*
X-960000Y-3820000D03*
%TD*%
D11*
%TO.C,U506*%
X12036000Y4202500D03*
X11996000Y4202500D03*
X11996000Y4164400D03*
X12036000Y4164400D03*
%TD*%
D40*
%TO.C,D502*%
X11836000Y3642500D03*
X11646000Y3642500D03*
X11741000Y3415000D03*
%TD*%
D18*
%TO.C,R611*%
X5590000Y-978750D03*
X5590000Y-1161250D03*
%TD*%
D41*
%TO.C,U601*%
X5817500Y-308750D03*
X5767500Y-308750D03*
X5717500Y-308750D03*
X5667500Y-308750D03*
X5617500Y-308750D03*
X5567500Y-308750D03*
X5517500Y-308750D03*
X5467500Y-308750D03*
D42*
X5398750Y-377500D03*
X5398750Y-427500D03*
X5398750Y-477500D03*
X5398750Y-527500D03*
X5398750Y-577500D03*
X5398750Y-627500D03*
X5398750Y-677500D03*
X5398750Y-727500D03*
D41*
X5467500Y-796250D03*
X5517500Y-796250D03*
X5567500Y-796250D03*
X5617500Y-796250D03*
X5667500Y-796250D03*
X5717500Y-796250D03*
X5767500Y-796250D03*
X5817500Y-796250D03*
D42*
X5886250Y-727500D03*
X5886250Y-677500D03*
X5886250Y-627500D03*
X5886250Y-577500D03*
X5886250Y-527500D03*
X5886250Y-477500D03*
X5886250Y-427500D03*
X5886250Y-377500D03*
D43*
X5642500Y-552500D03*
%TD*%
D15*
%TO.C,J102*%
X7326000Y7190000D03*
D16*
X7072000Y7190000D03*
X7326000Y7444000D03*
X7072000Y7444000D03*
X7326000Y7698000D03*
X7072000Y7698000D03*
%TD*%
D12*
%TO.C,C619*%
X7163750Y-2116825D03*
X7336250Y-2116825D03*
%TD*%
%TO.C,C511*%
X12112250Y5747500D03*
X12284750Y5747500D03*
%TD*%
D22*
%TO.C,C504*%
X11261000Y5476250D03*
X11261000Y5648750D03*
%TD*%
D24*
%TO.C,R813*%
X3018750Y-960000D03*
X3201250Y-960000D03*
%TD*%
D22*
%TO.C,C533*%
X12258500Y4012500D03*
X12258500Y4185000D03*
%TD*%
D44*
%TO.C,Y501*%
X10943500Y5240000D03*
X11088500Y5240000D03*
X11088500Y5355000D03*
X10943500Y5355000D03*
%TD*%
D19*
%TO.C,C807*%
X1700000Y-2983750D03*
X1700000Y-3156250D03*
%TD*%
D45*
%TO.C,J701*%
X2090000Y-3542000D03*
D46*
X2292000Y-3542000D03*
D47*
X2415000Y-3542000D03*
D45*
X2190000Y-3542000D03*
D46*
X1988000Y-3542000D03*
D47*
X1865000Y-3542000D03*
D48*
X1708000Y-3560000D03*
X1708000Y-3940000D03*
X2572000Y-3560000D03*
X2572000Y-3940000D03*
%TD*%
D24*
%TO.C,R808*%
X988750Y-1610000D03*
X1171250Y-1610000D03*
%TD*%
D15*
%TO.C,J802*%
X156000Y-2681000D03*
D16*
X156000Y-2935000D03*
X410000Y-2681000D03*
X410000Y-2935000D03*
X664000Y-2681000D03*
X664000Y-2935000D03*
%TD*%
D21*
%TO.C,C617*%
X6386250Y-2116825D03*
X6213750Y-2116825D03*
%TD*%
D49*
%TO.C,R301*%
X-5520000Y-4020000D03*
X-5520000Y-3820000D03*
%TD*%
D15*
%TO.C,J103*%
X-1868000Y606000D03*
D16*
X-1868000Y860000D03*
X-1614000Y606000D03*
X-1614000Y860000D03*
X-1360000Y606000D03*
X-1360000Y860000D03*
X-1106000Y606000D03*
X-1106000Y860000D03*
X-852000Y606000D03*
X-852000Y860000D03*
X-598000Y606000D03*
X-598000Y860000D03*
X-344000Y606000D03*
X-344000Y860000D03*
X-90000Y606000D03*
X-90000Y860000D03*
%TD*%
D18*
%TO.C,R802*%
X-70000Y-608750D03*
X-70000Y-791250D03*
%TD*%
D19*
%TO.C,C615*%
X5152000Y-1814750D03*
X5152000Y-1987250D03*
%TD*%
%TO.C,C520*%
X12168500Y4532500D03*
X12168500Y4360000D03*
%TD*%
D12*
%TO.C,C815*%
X3023750Y-1110000D03*
X3196250Y-1110000D03*
%TD*%
D13*
%TO.C,SW804*%
X3020000Y-730000D03*
X3020000Y-80000D03*
X3470000Y-730000D03*
X3470000Y-80000D03*
%TD*%
D22*
%TO.C,C502*%
X10763500Y5246250D03*
X10763500Y5418750D03*
%TD*%
D21*
%TO.C,C508*%
X11092250Y4925000D03*
X10919750Y4925000D03*
%TD*%
D12*
%TO.C,C609*%
X5203750Y-1090000D03*
X5376250Y-1090000D03*
%TD*%
D15*
%TO.C,J105*%
X8413000Y6942000D03*
D16*
X8413000Y6688000D03*
X8413000Y6434000D03*
X8413000Y6180000D03*
X8413000Y5926000D03*
X8413000Y5672000D03*
X8413000Y5418000D03*
X8413000Y5164000D03*
%TD*%
D50*
%TO.C,U801*%
X282500Y-1359000D03*
X282500Y-1486000D03*
X282500Y-1613000D03*
X282500Y-1740000D03*
X282500Y-1867000D03*
X282500Y-1994000D03*
X282500Y-2121000D03*
X777500Y-2121000D03*
X777500Y-1994000D03*
X777500Y-1867000D03*
X777500Y-1740000D03*
X777500Y-1613000D03*
X777500Y-1486000D03*
X777500Y-1359000D03*
%TD*%
D51*
%TO.C,U701*%
X2490000Y-2669750D03*
D52*
X2236000Y-2669750D03*
X1982000Y-2669750D03*
%TD*%
D18*
%TO.C,R602*%
X4330000Y-1808750D03*
X4330000Y-1991250D03*
%TD*%
D24*
%TO.C,R814*%
X408750Y-960000D03*
X591250Y-960000D03*
%TD*%
D27*
%TO.C,R702*%
X2060000Y-3181250D03*
X2060000Y-2998750D03*
%TD*%
D19*
%TO.C,C809*%
X2380000Y-1723750D03*
X2380000Y-1896250D03*
%TD*%
D18*
%TO.C,R605*%
X6850000Y-1935575D03*
X6850000Y-2118075D03*
%TD*%
D12*
%TO.C,C526*%
X11667250Y4232500D03*
X11839750Y4232500D03*
%TD*%
D21*
%TO.C,C620*%
X4326250Y-1530000D03*
X4153750Y-1530000D03*
%TD*%
D49*
%TO.C,R303*%
X-4074000Y-1580000D03*
X-4074000Y-1380000D03*
%TD*%
D53*
%TO.C,J603*%
X6370500Y-3356750D03*
D54*
X6720500Y-3356750D03*
X7070500Y-3356750D03*
X7420500Y-3356750D03*
%TD*%
D34*
%TO.C,RN401*%
X-2299401Y6530250D03*
D35*
X-2219401Y6530250D03*
X-2139401Y6530250D03*
D34*
X-2059401Y6530250D03*
X-2059401Y6710250D03*
D35*
X-2139401Y6710250D03*
X-2219401Y6710250D03*
D34*
X-2299401Y6710250D03*
%TD*%
D21*
%TO.C,C501*%
X11089750Y5530000D03*
X10917250Y5530000D03*
%TD*%
D19*
%TO.C,C514*%
X11493500Y4863750D03*
X11493500Y4691250D03*
%TD*%
D13*
%TO.C,SW801*%
X410000Y-730000D03*
X410000Y-80000D03*
X860000Y-730000D03*
X860000Y-80000D03*
%TD*%
D15*
%TO.C,CN203*%
X-189401Y7236250D03*
D37*
X-189401Y6982250D03*
X64599Y7236250D03*
X64599Y6982250D03*
X318599Y7236250D03*
X318599Y6982250D03*
X572599Y7236250D03*
X572599Y6982250D03*
X826599Y7236250D03*
X826599Y6982250D03*
X1080599Y7236250D03*
X1080599Y6982250D03*
X1334599Y7236250D03*
X1334599Y6982250D03*
X1588599Y7236250D03*
X1588599Y6982250D03*
X1842599Y7236250D03*
X1842599Y6982250D03*
X2096599Y7236250D03*
X2096599Y6982250D03*
X2350599Y7236250D03*
X2350599Y6982250D03*
X2604599Y7236250D03*
X2604599Y6982250D03*
X2858599Y7236250D03*
X2858599Y6982250D03*
X3112599Y7236250D03*
X3112599Y6982250D03*
X3366599Y7236250D03*
X3366599Y6982250D03*
%TD*%
D19*
%TO.C,C601*%
X5401000Y19250D03*
X5401000Y-153250D03*
%TD*%
D30*
%TO.C,J602*%
X5120000Y-3560000D03*
D31*
X5120000Y-3840000D03*
D30*
X5860000Y-3750000D03*
D32*
X5860000Y-2810000D03*
D33*
X5415000Y-2410000D03*
D16*
X5490000Y-3640000D03*
X5490000Y-2940000D03*
%TD*%
D12*
%TO.C,C524*%
X11399750Y4008950D03*
X11572250Y4008950D03*
%TD*%
D49*
%TO.C,R506*%
X-1200000Y6500000D03*
X-1200000Y6700000D03*
%TD*%
D19*
%TO.C,C614*%
X4030000Y-1813750D03*
X4030000Y-1986250D03*
%TD*%
D21*
%TO.C,C516*%
X11092250Y4760000D03*
X10919750Y4760000D03*
%TD*%
D55*
%TO.C,U702*%
X1980000Y-1720000D03*
X1980000Y-1815000D03*
X1980000Y-1910000D03*
X2207500Y-1910000D03*
X2207500Y-1720000D03*
%TD*%
D20*
%TO.C,C806*%
X2740000Y-2996250D03*
X2740000Y-3203750D03*
%TD*%
D21*
%TO.C,C603*%
X6216250Y-40000D03*
X6043750Y-40000D03*
%TD*%
D18*
%TO.C,R610*%
X5740000Y-978750D03*
X5740000Y-1161250D03*
%TD*%
D28*
%TO.C,R609*%
X4331250Y-2150000D03*
X4148750Y-2150000D03*
%TD*%
D22*
%TO.C,C605*%
X5900000Y-1126250D03*
X5900000Y-953750D03*
%TD*%
D14*
%TO.C,R101*%
X-3130000Y1970000D03*
X-3130000Y2140000D03*
%TD*%
D22*
%TO.C,C519*%
X10604000Y4754750D03*
X10604000Y4927250D03*
%TD*%
D15*
%TO.C,J301*%
X-914900Y-2018388D03*
D16*
X-1168900Y-2018388D03*
X-914900Y-1764388D03*
X-1168900Y-1764388D03*
X-914900Y-1510388D03*
X-1168900Y-1510388D03*
X-914900Y-1256388D03*
X-1168900Y-1256388D03*
X-914900Y-1002388D03*
X-1168900Y-1002388D03*
X-914900Y-748388D03*
X-1168900Y-748388D03*
%TD*%
D22*
%TO.C,C606*%
X6050000Y-1126250D03*
X6050000Y-953750D03*
%TD*%
%TO.C,C622*%
X6880000Y-3036250D03*
X6880000Y-2863750D03*
%TD*%
%TO.C,C503*%
X11433500Y5666250D03*
X11433500Y5838750D03*
%TD*%
D40*
%TO.C,Q501*%
X12708500Y4656250D03*
X12518500Y4656250D03*
X12613500Y4428750D03*
%TD*%
D17*
%TO.C,LED801*%
X-70000Y-350000D03*
X-70000Y-190000D03*
%TD*%
D22*
%TO.C,C509*%
X10451000Y4753750D03*
X10451000Y4926250D03*
%TD*%
D56*
%TO.C,U301*%
X-5863500Y-3615000D03*
X-5736500Y-3615000D03*
X-5609500Y-3615000D03*
X-5482500Y-3615000D03*
X-5355500Y-3615000D03*
X-5228500Y-3615000D03*
X-5101500Y-3615000D03*
X-4974500Y-3615000D03*
X-4847500Y-3615000D03*
X-4720500Y-3615000D03*
X-4593500Y-3615000D03*
X-4466500Y-3615000D03*
X-4339500Y-3615000D03*
X-4212500Y-3615000D03*
D57*
X-4087500Y-3311000D03*
X-4087500Y-3184000D03*
X-4087500Y-3057000D03*
X-4087500Y-2930000D03*
X-4087500Y-2803000D03*
X-4087500Y-2676000D03*
X-4087500Y-2549000D03*
X-4087500Y-2422000D03*
X-4087500Y-2295000D03*
X-4087500Y-2168000D03*
D56*
X-4212500Y-1865000D03*
X-4339500Y-1865000D03*
X-4466500Y-1865000D03*
X-4593500Y-1865000D03*
X-4720500Y-1865000D03*
X-4847500Y-1865000D03*
X-4974500Y-1865000D03*
X-5101500Y-1865000D03*
X-5228500Y-1865000D03*
X-5355500Y-1865000D03*
X-5482500Y-1865000D03*
X-5609500Y-1865000D03*
X-5736500Y-1865000D03*
X-5863500Y-1865000D03*
D58*
X-5205750Y-2960500D03*
X-5053250Y-2960500D03*
X-5282000Y-2884250D03*
X-5129500Y-2884250D03*
X-4977000Y-2884250D03*
X-5205750Y-2808000D03*
D59*
X-5129500Y-2808000D03*
D58*
X-5053250Y-2808000D03*
X-5282000Y-2731750D03*
X-5129500Y-2731750D03*
X-4977000Y-2731750D03*
X-5205750Y-2655500D03*
X-5053250Y-2655500D03*
%TD*%
D60*
%TO.C,U503*%
X12358500Y4417500D03*
X12358500Y4457500D03*
X12320400Y4457500D03*
X12320400Y4417500D03*
%TD*%
D23*
%TO.C,C302*%
X-1142650Y-450388D03*
X-935150Y-450388D03*
%TD*%
D12*
%TO.C,C813*%
X1283750Y-1120000D03*
X1456250Y-1120000D03*
%TD*%
D23*
%TO.C,C610*%
X5556250Y-1560000D03*
X5763750Y-1560000D03*
%TD*%
D21*
%TO.C,C616*%
X6386250Y-1956825D03*
X6213750Y-1956825D03*
%TD*%
D60*
%TO.C,U502*%
X11190050Y4417500D03*
X11190050Y4457500D03*
X11151950Y4457500D03*
X11151950Y4417500D03*
%TD*%
D23*
%TO.C,C611*%
X5552500Y-1350000D03*
X5760000Y-1350000D03*
%TD*%
D22*
%TO.C,C505*%
X12446000Y5291250D03*
X12446000Y5463750D03*
%TD*%
%TO.C,C518*%
X10757000Y4753250D03*
X10757000Y4925750D03*
%TD*%
D15*
%TO.C,J303*%
X-4554000Y-1490000D03*
D16*
X-4808000Y-1490000D03*
X-5062000Y-1490000D03*
X-5316000Y-1490000D03*
X-5570000Y-1490000D03*
X-5824000Y-1490000D03*
%TD*%
D24*
%TO.C,R809*%
X-111250Y-1610000D03*
X71250Y-1610000D03*
%TD*%
D15*
%TO.C,CN202*%
X-2475401Y7236250D03*
D37*
X-2475401Y6982250D03*
X-2221401Y7236250D03*
X-2221401Y6982250D03*
X-1967401Y7236250D03*
X-1967401Y6982250D03*
X-1713401Y7236250D03*
X-1713401Y6982250D03*
X-1459401Y7236250D03*
X-1459401Y6982250D03*
X-1205401Y7236250D03*
X-1205401Y6982250D03*
X-951401Y7236250D03*
X-951401Y6982250D03*
X-697401Y7236250D03*
X-697401Y6982250D03*
%TD*%
D61*
%TO.C,L501*%
X12011000Y4537500D03*
X11836000Y4537500D03*
%TD*%
D62*
%TO.C,U501*%
X11429250Y5441500D03*
X11429250Y5391500D03*
X11429250Y5341500D03*
X11429250Y5291500D03*
X11429250Y5241500D03*
X11429250Y5191500D03*
X11429250Y5141500D03*
X11429250Y5091500D03*
D63*
X11498000Y5022750D03*
X11548000Y5022750D03*
X11598000Y5022750D03*
X11648000Y5022750D03*
X11698000Y5022750D03*
X11748000Y5022750D03*
X11798000Y5022750D03*
X11848000Y5022750D03*
D62*
X11916750Y5091500D03*
X11916750Y5141500D03*
X11916750Y5191500D03*
X11916750Y5241500D03*
X11916750Y5291500D03*
X11916750Y5341500D03*
X11916750Y5391500D03*
X11916750Y5441500D03*
D63*
X11848000Y5510250D03*
X11798000Y5510250D03*
X11748000Y5510250D03*
X11698000Y5510250D03*
X11648000Y5510250D03*
X11598000Y5510250D03*
X11548000Y5510250D03*
X11498000Y5510250D03*
D64*
X11673000Y5266500D03*
%TD*%
D65*
%TO.C,J401*%
X-5010401Y205750D03*
X-5010401Y315750D03*
X-5010401Y425750D03*
X-5010401Y535750D03*
X-5010401Y645750D03*
X-5010401Y755750D03*
X-5010401Y865750D03*
X-5010401Y975750D03*
X-5010401Y1070750D03*
D66*
X-6060401Y1165750D03*
D67*
X-5440401Y1165750D03*
D68*
X-6475401Y1165750D03*
D67*
X-5010401Y50750D03*
D69*
X-6520401Y-184250D03*
%TD*%
D28*
%TO.C,R603*%
X6221250Y-340000D03*
X6038750Y-340000D03*
%TD*%
D70*
%TO.C,C301*%
X-5716250Y-3830000D03*
X-5923750Y-3830000D03*
%TD*%
D21*
%TO.C,C507*%
X10754750Y5085000D03*
X10582250Y5085000D03*
%TD*%
%TO.C,C532*%
X12287250Y5285000D03*
X12114750Y5285000D03*
%TD*%
D24*
%TO.C,R806*%
X988750Y-2120000D03*
X1171250Y-2120000D03*
%TD*%
D22*
%TO.C,C607*%
X6200000Y-1126250D03*
X6200000Y-953750D03*
%TD*%
D36*
%TO.C,R302*%
X-4274000Y-1380000D03*
X-4274000Y-1580000D03*
%TD*%
D19*
%TO.C,C517*%
X10996000Y4583750D03*
X10996000Y4411250D03*
%TD*%
D27*
%TO.C,R107*%
X-340000Y1408750D03*
X-340000Y1591250D03*
%TD*%
D14*
%TO.C,J501*%
X11690000Y4796000D03*
D71*
X11817000Y4796000D03*
%TD*%
D12*
%TO.C,C810*%
X2383750Y-3300000D03*
X2556250Y-3300000D03*
%TD*%
D21*
%TO.C,C525*%
X12098750Y4008450D03*
X11926250Y4008450D03*
%TD*%
D36*
%TO.C,R504*%
X12081000Y3842500D03*
X12081000Y3642500D03*
%TD*%
D19*
%TO.C,C515*%
X11341000Y4863750D03*
X11341000Y4691250D03*
%TD*%
%TO.C,C613*%
X4180000Y-1813750D03*
X4180000Y-1986250D03*
%TD*%
D38*
%TO.C,R507*%
X-4810000Y1170000D03*
X-4610000Y1170000D03*
%TD*%
D72*
%TO.C,SW601*%
X5412500Y-1749500D03*
X5412500Y-1876500D03*
X5412500Y-2003500D03*
X5412500Y-2130500D03*
X5947500Y-2130500D03*
X5947500Y-2003500D03*
X5947500Y-1876500D03*
X5947500Y-1749500D03*
%TD*%
D27*
%TO.C,R701*%
X2220000Y-3181250D03*
X2220000Y-2998750D03*
%TD*%
D24*
%TO.C,R810*%
X-111250Y-1360000D03*
X71250Y-1360000D03*
%TD*%
%TO.C,R812*%
X2148750Y-960000D03*
X2331250Y-960000D03*
%TD*%
D15*
%TO.C,CN204*%
X-3389801Y2664250D03*
D37*
X-3389801Y2410250D03*
X-3135801Y2664250D03*
X-3135801Y2410250D03*
X-2881801Y2664250D03*
X-2881801Y2410250D03*
X-2627801Y2664250D03*
X-2627801Y2410250D03*
X-2373801Y2664250D03*
X-2373801Y2410250D03*
X-2119801Y2664250D03*
X-2119801Y2410250D03*
X-1865801Y2664250D03*
X-1865801Y2410250D03*
X-1611801Y2664250D03*
X-1611801Y2410250D03*
X-1357801Y2664250D03*
X-1357801Y2410250D03*
X-1103801Y2664250D03*
X-1103801Y2410250D03*
%TD*%
D22*
%TO.C,C531*%
X11241000Y4015000D03*
X11241000Y4187500D03*
%TD*%
D18*
%TO.C,R607*%
X6700000Y-1935575D03*
X6700000Y-2118075D03*
%TD*%
D21*
%TO.C,C604*%
X6216250Y-190000D03*
X6043750Y-190000D03*
%TD*%
D15*
%TO.C,J803*%
X-1714000Y-2681000D03*
D16*
X-1714000Y-2935000D03*
X-1460000Y-2681000D03*
X-1460000Y-2935000D03*
X-1206000Y-2681000D03*
X-1206000Y-2935000D03*
%TD*%
D18*
%TO.C,R606*%
X6550000Y-1935575D03*
X6550000Y-2118075D03*
%TD*%
D38*
%TO.C,R502*%
X12178500Y4852500D03*
X12378500Y4852500D03*
%TD*%
D19*
%TO.C,C527*%
X11241000Y3850000D03*
X11241000Y3677500D03*
%TD*%
D15*
%TO.C,J604*%
X4590000Y-2040000D03*
D16*
X4590000Y-1786000D03*
X4590000Y-1532000D03*
%TD*%
D73*
%TO.C,U602*%
X6930000Y-2338750D03*
X6890000Y-2338750D03*
X6850000Y-2338750D03*
X6810000Y-2338750D03*
X6770000Y-2338750D03*
X6730000Y-2338750D03*
X6690000Y-2338750D03*
X6690000Y-2636250D03*
X6730000Y-2636250D03*
X6770000Y-2636250D03*
X6810000Y-2636250D03*
X6850000Y-2636250D03*
X6890000Y-2636250D03*
X6930000Y-2636250D03*
D74*
X6810000Y-2487500D03*
%TD*%
D12*
%TO.C,C812*%
X413750Y-1110000D03*
X586250Y-1110000D03*
%TD*%
D19*
%TO.C,C513*%
X10840000Y4582750D03*
X10840000Y4410250D03*
%TD*%
D15*
%TO.C,J106*%
X7072000Y6682000D03*
D16*
X7326000Y6682000D03*
X7072000Y6428000D03*
X7326000Y6428000D03*
X7072000Y6174000D03*
X7326000Y6174000D03*
X7072000Y5920000D03*
X7326000Y5920000D03*
X7072000Y5666000D03*
X7326000Y5666000D03*
X7072000Y5412000D03*
X7326000Y5412000D03*
X7072000Y5158000D03*
X7326000Y5158000D03*
X7072000Y4904000D03*
X7326000Y4904000D03*
X7072000Y4650000D03*
X7326000Y4650000D03*
X7072000Y4396000D03*
X7326000Y4396000D03*
%TD*%
D24*
%TO.C,R807*%
X987500Y-1870000D03*
X1170000Y-1870000D03*
%TD*%
D75*
%TO.C,A101*%
X9340000Y6942000D03*
D76*
X9340000Y6688000D03*
X9340000Y6434000D03*
X9340000Y6180000D03*
X9340000Y5926000D03*
X9340000Y5672000D03*
X9340000Y5418000D03*
X9340000Y5164000D03*
X9340000Y4656000D03*
X9340000Y4402000D03*
X9340000Y4148000D03*
X9340000Y3894000D03*
X9340000Y3640000D03*
X9340000Y3386000D03*
X14166000Y3386000D03*
X14166000Y3640000D03*
X14166000Y3894000D03*
X14166000Y4148000D03*
X14166000Y4402000D03*
X14166000Y4656000D03*
X14166000Y4910000D03*
X14166000Y5164000D03*
X14166000Y5570000D03*
X14166000Y5824000D03*
X14166000Y6078000D03*
X14166000Y6332000D03*
X14166000Y6586000D03*
X14166000Y6840000D03*
X14166000Y7094000D03*
X14166000Y7348000D03*
X14166000Y7602000D03*
X14166000Y7856000D03*
%TD*%
D58*
X-1150000Y395800D03*
X-1240000Y-590000D03*
X-1280000Y-875000D03*
X-1375000Y-1175000D03*
X-925000Y395000D03*
X-485000Y330000D03*
X-465000Y55000D03*
X295000Y415000D03*
X660000Y320000D03*
X300000Y-550000D03*
X1490000Y-1605000D03*
X2055000Y-1215000D03*
X275000Y-1145000D03*
X-1590000Y6870000D03*
X-2610000Y6865000D03*
X-2400000Y6775000D03*
X-1915000Y6640000D03*
X-2770000Y6720000D03*
X7695000Y-2765000D03*
X7695000Y-2245000D03*
X7710000Y5045000D03*
X7710000Y5290000D03*
X11530000Y3510000D03*
X9295000Y4945000D03*
X11400000Y5997400D03*
X12595000Y5375000D03*
X12005000Y5675000D03*
X11865000Y5645000D03*
X12575000Y5970000D03*
X11855000Y6010000D03*
X12445000Y5655000D03*
X10920000Y4411250D03*
X11550000Y3750000D03*
X11740000Y3555000D03*
X11950000Y3735000D03*
X12215000Y4710000D03*
X11190000Y4650000D03*
X11420000Y4690000D03*
X14245000Y8205000D03*
X14240000Y8025000D03*
X14225000Y5370000D03*
X14245000Y3235000D03*
X14235000Y2575000D03*
X8275000Y2585000D03*
X8230000Y3540000D03*
X8565000Y5015000D03*
X8275000Y5020000D03*
X8240000Y5275000D03*
X8260000Y7090000D03*
X8275000Y8190000D03*
X7685000Y8190000D03*
X-2430000Y-4120000D03*
X-525000Y-4105000D03*
X1410000Y-4125000D03*
X2950000Y-4125000D03*
X3535000Y-4120000D03*
X4670000Y-4130000D03*
X-6565000Y8185000D03*
X-6565000Y1315000D03*
X-6560000Y1020000D03*
X-6535000Y240000D03*
X-6350000Y-300000D03*
X-5905000Y-4120000D03*
X5035000Y-4130000D03*
X7620000Y-4115000D03*
X8030000Y-2835000D03*
X8030000Y-1245000D03*
X8030000Y355000D03*
X8030000Y1950000D03*
X8030000Y3540000D03*
X8030000Y5332000D03*
X8030000Y5260000D03*
X8030000Y5518000D03*
X8030000Y5590000D03*
X8030000Y5728000D03*
X8030000Y5800000D03*
X8030000Y5872000D03*
X8030000Y5983000D03*
X8030000Y6055000D03*
X8030000Y6127000D03*
X8030000Y6238000D03*
X8030000Y6310000D03*
X8030000Y6382000D03*
X8030000Y6489000D03*
X8030000Y6560000D03*
X8030000Y6633000D03*
X8030000Y6815000D03*
X8030000Y6743000D03*
X8030000Y6887000D03*
X570000Y6805000D03*
X315000Y6805000D03*
X6148536Y-419539D03*
X905000Y-2120000D03*
X905000Y-1870000D03*
X905000Y-1615000D03*
X905000Y-1360000D03*
X155000Y-1360000D03*
X155000Y-1615000D03*
X155000Y-1995000D03*
X1299375Y-2120000D03*
X1250000Y-2770000D03*
X1250000Y-2705000D03*
X10917658Y4655793D03*
X11738000Y2649000D03*
X11738000Y2560000D03*
X4012000Y-3013000D03*
X5677000Y-2132000D03*
X7245000Y-3160000D03*
X7246000Y-3474000D03*
X6581000Y-2871000D03*
X6371000Y-3084000D03*
X6218000Y-2797000D03*
X6052000Y-3240000D03*
X-1042000Y-1384000D03*
X-5922000Y1160000D03*
X-6220000Y1165000D03*
X-4560000Y783000D03*
X-5863000Y-3443000D03*
X-4940000Y-1619000D03*
D77*
X5665000Y2260000D03*
X14000000Y-2500000D03*
X7500000Y-2500000D03*
X-3500000Y-2500000D03*
X-6195000Y2260000D03*
X11000000Y7420000D03*
X11741000Y-1414400D03*
X8500000Y-2500000D03*
X-6195000Y7420000D03*
X5670000Y7420000D03*
D58*
X11623400Y4910047D03*
X1299375Y-1360000D03*
X11300147Y5181500D03*
X-239375Y-1610000D03*
X1589375Y-1120000D03*
X5415625Y-820000D03*
X1700000Y-3274375D03*
X-239375Y-1360000D03*
X6105625Y-2040000D03*
X3329375Y-1110000D03*
X719375Y-1110000D03*
X6324375Y-120000D03*
X2459375Y-1110000D03*
X4035625Y-1530000D03*
X-5920000Y-3957875D03*
X11243500Y4500000D03*
X6984375Y-2480000D03*
X5477250Y129875D03*
X11879486Y4931337D03*
X2140000Y-2885625D03*
X3915625Y-1990000D03*
X5201000Y-1211000D03*
X6050000Y-1234375D03*
X7444375Y-2043825D03*
X11755000Y4387500D03*
X-4600000Y644375D03*
X-3955625Y-3319500D03*
X5285625Y-2130000D03*
X11169629Y5240982D03*
X12611000Y4320000D03*
X12495573Y4813074D03*
X2494375Y-1900000D03*
X-4074000Y-1240625D03*
X11681000Y3922500D03*
X6810000Y-2955625D03*
X2874375Y-3200000D03*
X6635625Y-2487500D03*
X1990000Y-3380000D03*
X1000000Y-1251250D03*
X2459375Y-960000D03*
X1988127Y-3288243D03*
X2290000Y-3280000D03*
X-440000Y-75625D03*
X6950539Y-2252172D03*
X2290000Y-3380000D03*
X-70000Y-75625D03*
X719375Y-960000D03*
X6810000Y-2776250D03*
X1589375Y-970000D03*
X3329375Y-960000D03*
X1298125Y-1870000D03*
X5380000Y-1200000D03*
X1299375Y-1610000D03*
X1317000Y-2705000D03*
X-2414375Y6530000D03*
X-4810000Y644375D03*
X-3260000Y1964375D03*
X5315614Y-101761D03*
X11429250Y5532500D03*
X-1945625Y6530000D03*
X6310000Y-960000D03*
X-1200000Y6385625D03*
X-239375Y-1990000D03*
X6330000Y-340000D03*
X-5405625Y-4020000D03*
X-4810000Y1284375D03*
X1315000Y-2770000D03*
X11261000Y5357500D03*
X12523500Y5285000D03*
X6086000Y1074000D03*
X11420700Y6152500D03*
X11255000Y6240000D03*
X11660900Y6189680D03*
X-2060000Y6350000D03*
X-2137455Y6319800D03*
X11320679Y6420200D03*
X-1520000Y1650000D03*
X4100000Y1500000D03*
X2510000Y-1723750D03*
X6040000Y70000D03*
X-1993305Y2030068D03*
X-60000Y1910000D03*
X-140000Y1910000D03*
X-1990000Y2110000D03*
X5830000Y90000D03*
X5698281Y293282D03*
X11598916Y6135702D03*
X11309978Y6298116D03*
X11540800Y6190680D03*
X4180000Y-1690000D03*
X4711906Y-1590000D03*
X6840206Y-692681D03*
X6019819Y-637706D03*
X6780000Y-640000D03*
X6072500Y-577500D03*
X6652500Y-632500D03*
X6020000Y-510000D03*
X11911448Y5004675D03*
X11435347Y5029000D03*
X11748500Y4910000D03*
X11181000Y4760000D03*
X6712500Y-692500D03*
X6080000Y-450000D03*
X12018379Y5291637D03*
X11316000Y4110000D03*
X12256625Y4293608D03*
X12013500Y5391500D03*
X12072500Y3340000D03*
X11742500Y3297500D03*
X11886000Y-1068500D03*
X11742600Y1857400D03*
X11741000Y2231500D03*
X11595300Y1982400D03*
X11889000Y-815000D03*
X11596450Y-692600D03*
X11873510Y2232400D03*
X11596900Y-944400D03*
X11595990Y2232400D03*
X11885800Y2107400D03*
X11243500Y4380000D03*
X12113426Y4629744D03*
X11818500Y3922500D03*
X11960912Y4242400D03*
X11433809Y4296587D03*
X12053426Y5144927D03*
X-2914432Y6560000D03*
X6750000Y-2213000D03*
M02*
