%TF.GenerationSoftware,KiCad,Pcbnew,9.0.1*%
%TF.CreationDate,2025-04-25T10:57:49+02:00*%
%TF.ProjectId,voicemail-box,766f6963-656d-4616-996c-2d626f782e6b,rev?*%
%TF.SameCoordinates,PX5f5e100PY5f5e100*%
%TF.FileFunction,Plated,1,4,PTH,Mixed*%
%TF.FilePolarity,Positive*%
%FSLAX46Y46*%
G04 Gerber Fmt 4.6, Leading zero omitted, Abs format (unit mm)*
G04 Created by KiCad (PCBNEW 9.0.1) date 2025-04-25 10:57:49*
%MOMM*%
%LPD*%
G01*
G04 APERTURE LIST*
%TA.AperFunction,ComponentDrill*%
%ADD10C,0.200000*%
%TD*%
%TA.AperFunction,ViaDrill*%
%ADD11C,0.300000*%
%TD*%
%TA.AperFunction,ViaDrill*%
%ADD12C,0.400000*%
%TD*%
%TA.AperFunction,ViaDrill*%
%ADD13C,0.500000*%
%TD*%
G04 aperture for slot hole*
%TA.AperFunction,ComponentDrill*%
%ADD14C,0.500000*%
%TD*%
%TA.AperFunction,ComponentDrill*%
%ADD15C,0.650000*%
%TD*%
%TA.AperFunction,ComponentDrill*%
%ADD16C,1.000000*%
%TD*%
%TA.AperFunction,ComponentDrill*%
%ADD17C,1.100000*%
%TD*%
%TA.AperFunction,ComponentDrill*%
%ADD18C,1.200000*%
%TD*%
%TA.AperFunction,ViaDrill*%
%ADD19C,3.300000*%
%TD*%
G04 APERTURE END LIST*
D10*
%TO.C,U301*%
X-52820000Y-27317500D03*
X-52820000Y-28842500D03*
X-52057500Y-26555000D03*
X-52057500Y-28080000D03*
X-52057500Y-29605000D03*
X-51295000Y-27317500D03*
X-51295000Y-28842500D03*
X-50532500Y-26555000D03*
X-50532500Y-28080000D03*
X-50532500Y-29605000D03*
X-49770000Y-27317500D03*
X-49770000Y-28842500D03*
%TD*%
D11*
X41800000Y-16900000D03*
X47119058Y-15900000D03*
X67500000Y-22130000D03*
X68100000Y-27762500D03*
X69505394Y-22521719D03*
D12*
X-65650000Y81850000D03*
X-65650000Y13150000D03*
X-65600000Y10200000D03*
X-65350000Y2400000D03*
X-63500000Y-3000000D03*
X-62200000Y11650000D03*
X-59220000Y11600000D03*
X-59200000Y-39578750D03*
X-59050000Y-41200000D03*
X-58630000Y-34430000D03*
X-54056250Y-40200000D03*
X-49400000Y-16190000D03*
X-48100000Y12843750D03*
X-48100000Y6443750D03*
X-46000000Y6443750D03*
X-45600000Y7830000D03*
X-40740000Y-12406250D03*
X-39556250Y-33195000D03*
X-32600000Y19643750D03*
X-29144322Y65600000D03*
X-27700000Y67200000D03*
X-26100000Y68650000D03*
X-24300000Y-41200000D03*
X-24143750Y65300000D03*
X-24000000Y67750000D03*
X-21374552Y63198000D03*
X-20600000Y63500000D03*
X-19933049Y20300680D03*
X-19900000Y21100000D03*
X-19456250Y65300000D03*
X-19150000Y66400000D03*
X-15900000Y68700000D03*
X-15200000Y16500000D03*
X-13750000Y-11750000D03*
X-12800000Y-8750000D03*
X-12400000Y-5900000D03*
X-12000000Y63856250D03*
X-11500000Y3958000D03*
X-10420000Y-13840000D03*
X-9250000Y3950000D03*
X-5250000Y-41050000D03*
X-4850000Y3300000D03*
X-4650000Y550000D03*
X-4400000Y-756250D03*
X-2393750Y-13600000D03*
X-2393750Y-16100000D03*
X-2393750Y-19900000D03*
X-1400000Y19100000D03*
X-700000Y-756250D03*
X-600000Y19100000D03*
X1550000Y-13600000D03*
X1550000Y-16150000D03*
X1550000Y-19950000D03*
X2750000Y-11450000D03*
X2950000Y4150000D03*
X3000000Y-5500000D03*
X3150000Y68050000D03*
X5700000Y68050000D03*
X6600000Y3200000D03*
X7193750Y-9600000D03*
X7193750Y-11100000D03*
X9050000Y-13600000D03*
X9050000Y-16150000D03*
X9050000Y-18700000D03*
X9050000Y-21200000D03*
X10000000Y-12512500D03*
X12500000Y-27050000D03*
X12500000Y-27700000D03*
X12981250Y-18700000D03*
X12993750Y-13600000D03*
X12993750Y-16100000D03*
X12993750Y-21200000D03*
X13150000Y-27700000D03*
X13170000Y-27050000D03*
X14100000Y-41250000D03*
X14900000Y-16050000D03*
X15893750Y-9700000D03*
X15893750Y-11200000D03*
X17000000Y-32743750D03*
X19881274Y-32882433D03*
X19900000Y-33800000D03*
X20550000Y-12150000D03*
X21400000Y-28856250D03*
X22900000Y-33200000D03*
X22900000Y-33800000D03*
X24593750Y-9600000D03*
X24593750Y-11100000D03*
X24943750Y-19000000D03*
X25100000Y-17237500D03*
X28743750Y-32000000D03*
X29500000Y-41250000D03*
X33293750Y-9600000D03*
X33293750Y-11100000D03*
X35350000Y-41200000D03*
X39156250Y-19900000D03*
X40120000Y-30130000D03*
X40356250Y-15300000D03*
X41000000Y15000000D03*
X46700000Y-41300000D03*
X50350000Y-41300000D03*
X52010000Y-12110000D03*
X52856250Y-21300000D03*
X53156140Y-1017610D03*
X53800000Y-12000000D03*
X54156250Y-8200000D03*
X54772500Y1298750D03*
X56770000Y-21320000D03*
X56982815Y2932815D03*
X58300000Y900000D03*
X60198194Y-6377064D03*
X60200000Y-5100000D03*
X60400000Y700000D03*
X60500000Y-12343750D03*
X60520000Y-32400000D03*
X60725000Y-5775000D03*
X60800000Y-4500000D03*
X60860000Y10740000D03*
X61056250Y-20400000D03*
X61485361Y-4195395D03*
X62180000Y-27970000D03*
X63100000Y-9600000D03*
X63243750Y-1200000D03*
X63300000Y-3400000D03*
X63710000Y-30840000D03*
X65810000Y-28710000D03*
X66356250Y-24875000D03*
X66525000Y-6325000D03*
X67125000Y-6925000D03*
X67800000Y-6400000D03*
X68100000Y-29556250D03*
X68402064Y-6926806D03*
X69843750Y-24800000D03*
X72450000Y-31600000D03*
X72460000Y-34740000D03*
X74443750Y-20438250D03*
X76200000Y-41150000D03*
X76850000Y81900000D03*
X76950000Y-22450000D03*
X76950000Y-27650000D03*
X77100000Y52900000D03*
X77100000Y50450000D03*
X82300000Y35400000D03*
X82400000Y52750000D03*
X82600000Y70900000D03*
X82750000Y81900000D03*
X82750000Y50200000D03*
X82750000Y25850000D03*
X85650000Y50150000D03*
X92950000Y49450000D03*
X109176577Y46557934D03*
X109200000Y44112500D03*
X111696287Y52409816D03*
X111810000Y47600000D03*
X111900000Y46500000D03*
X112435000Y45000000D03*
X112435000Y43800000D03*
X112549998Y62400000D03*
X112610000Y53575000D03*
X113001472Y51815000D03*
X113099778Y62981159D03*
X113160000Y41100000D03*
X113206786Y64202000D03*
X114000000Y59974000D03*
X114200000Y46900000D03*
X114207000Y61525000D03*
X114292500Y55325000D03*
X114338095Y42965871D03*
X114353471Y50290000D03*
X115300000Y35100000D03*
X115408000Y61906801D03*
X115500000Y37500000D03*
X115953000Y19824000D03*
X115959900Y22324000D03*
X115964500Y-6926000D03*
X115969000Y-9444000D03*
X115989159Y61357021D03*
X116234000Y49100473D03*
X116609000Y61896799D03*
X116810000Y39225000D03*
X117380000Y26490000D03*
X117380000Y25600000D03*
X117400000Y35550000D03*
X117410000Y22315000D03*
X117425000Y32975000D03*
X117426000Y18574000D03*
X117485000Y49100000D03*
X117550000Y43875000D03*
X118185000Y39225000D03*
X118550000Y60100000D03*
X118650000Y56450000D03*
X118735100Y22324000D03*
X118794864Y49313366D03*
X118858000Y21074000D03*
X118860000Y-10685000D03*
X118890000Y-8150000D03*
X119114479Y50046749D03*
X119500000Y37350000D03*
X119609119Y42424000D03*
X120050000Y56750000D03*
X120135000Y53915000D03*
X120183788Y52916371D03*
X120534265Y51449265D03*
X120725000Y33400000D03*
X121134265Y46297440D03*
X122150000Y47100000D03*
X122566248Y42936082D03*
X124450000Y56550000D03*
X124955735Y48130735D03*
X125235000Y52850000D03*
X125750000Y59700000D03*
X125950000Y53750000D03*
X126110000Y43200000D03*
X142250000Y53700000D03*
X142350000Y25750000D03*
X142400000Y80250000D03*
X142450000Y82050000D03*
X142450000Y32350000D03*
D13*
X80300000Y68870000D03*
X80300000Y68150000D03*
X80300000Y67430000D03*
X80300000Y66330000D03*
X80300000Y65600000D03*
X80300000Y64890000D03*
X80300000Y63820000D03*
X80300000Y63100000D03*
X80300000Y62380000D03*
X80300000Y61270000D03*
X80300000Y60550000D03*
X80300000Y59830000D03*
X80300000Y58720000D03*
X80300000Y58000000D03*
X80300000Y57280000D03*
X80300000Y55900000D03*
X80300000Y55180000D03*
X80300000Y53320000D03*
X80300000Y52600000D03*
X80300000Y35400000D03*
X80300000Y19500000D03*
X80300000Y3550000D03*
X80300000Y-12450000D03*
X80300000Y-28350000D03*
D14*
%TO.C,J701*%
X17080000Y-35950000D02*
X17080000Y-35250000D01*
X17080000Y-39750000D02*
X17080000Y-39050000D01*
X25720000Y-35950000D02*
X25720000Y-35250000D01*
X25720000Y-39750000D02*
X25720000Y-39050000D01*
D15*
%TO.C,J501*%
X116900000Y47960000D03*
X118170000Y47960000D03*
D16*
%TO.C,J303*%
X-58240000Y-14900000D03*
X-55700000Y-14900000D03*
X-53160000Y-14900000D03*
X-50620000Y-14900000D03*
X-48080000Y-14900000D03*
X-45540000Y-14900000D03*
%TO.C,CN204*%
X-33898008Y26642503D03*
X-33898008Y24102503D03*
X-31358008Y26642503D03*
X-31358008Y24102503D03*
X-28818008Y26642503D03*
X-28818008Y24102503D03*
X-26278008Y26642503D03*
X-26278008Y24102503D03*
%TO.C,CN202*%
X-24754008Y72362503D03*
X-24754008Y69822503D03*
%TO.C,CN204*%
X-23738008Y26642503D03*
X-23738008Y24102503D03*
%TO.C,CN202*%
X-22214008Y72362503D03*
X-22214008Y69822503D03*
%TO.C,CN204*%
X-21198008Y26642503D03*
X-21198008Y24102503D03*
%TO.C,CN202*%
X-19674008Y72362503D03*
X-19674008Y69822503D03*
%TO.C,J103*%
X-18680000Y8600000D03*
X-18680000Y6060000D03*
%TO.C,CN204*%
X-18658008Y26642503D03*
X-18658008Y24102503D03*
%TO.C,J803*%
X-17140000Y-26810000D03*
X-17140000Y-29350000D03*
%TO.C,CN202*%
X-17134008Y72362503D03*
X-17134008Y69822503D03*
%TO.C,J103*%
X-16140000Y8600000D03*
X-16140000Y6060000D03*
%TO.C,CN204*%
X-16118008Y26642503D03*
X-16118008Y24102503D03*
%TO.C,J803*%
X-14600000Y-26810000D03*
X-14600000Y-29350000D03*
%TO.C,CN202*%
X-14594008Y72362503D03*
X-14594008Y69822503D03*
%TO.C,J103*%
X-13600000Y8600000D03*
X-13600000Y6060000D03*
%TO.C,CN204*%
X-13578008Y26642503D03*
X-13578008Y24102503D03*
%TO.C,J803*%
X-12060000Y-26810000D03*
X-12060000Y-29350000D03*
%TO.C,CN202*%
X-12054008Y72362503D03*
X-12054008Y69822503D03*
%TO.C,J301*%
X-11689000Y-7483880D03*
X-11689000Y-10023880D03*
X-11689000Y-12563880D03*
X-11689000Y-15103880D03*
X-11689000Y-17643880D03*
X-11689000Y-20183880D03*
%TO.C,J103*%
X-11060000Y8600000D03*
X-11060000Y6060000D03*
%TO.C,CN204*%
X-11038008Y26642503D03*
X-11038008Y24102503D03*
%TO.C,CN202*%
X-9514008Y72362503D03*
X-9514008Y69822503D03*
%TO.C,J301*%
X-9149000Y-7483880D03*
X-9149000Y-10023880D03*
X-9149000Y-12563880D03*
X-9149000Y-15103880D03*
X-9149000Y-17643880D03*
X-9149000Y-20183880D03*
%TO.C,J103*%
X-8520000Y8600000D03*
X-8520000Y6060000D03*
%TO.C,CN202*%
X-6974008Y72362503D03*
X-6974008Y69822503D03*
%TO.C,CN205*%
X-6974008Y26642503D03*
X-6974008Y24102503D03*
%TO.C,J103*%
X-5980000Y8600000D03*
X-5980000Y6060000D03*
%TO.C,CN205*%
X-4434008Y26642503D03*
X-4434008Y24102503D03*
%TO.C,J103*%
X-3440000Y8600000D03*
X-3440000Y6060000D03*
%TO.C,CN203*%
X-1894008Y72362503D03*
X-1894008Y69822503D03*
%TO.C,CN205*%
X-1894008Y26642503D03*
X-1894008Y24102503D03*
%TO.C,J103*%
X-900000Y8600000D03*
X-900000Y6060000D03*
%TO.C,CN203*%
X645992Y72362503D03*
X645992Y69822503D03*
%TO.C,CN205*%
X645992Y26642503D03*
X645992Y24102503D03*
%TO.C,J802*%
X1560000Y-26810000D03*
X1560000Y-29350000D03*
%TO.C,CN203*%
X3185992Y72362503D03*
X3185992Y69822503D03*
%TO.C,CN205*%
X3185992Y26642503D03*
X3185992Y24102503D03*
%TO.C,J802*%
X4100000Y-26810000D03*
X4100000Y-29350000D03*
%TO.C,CN203*%
X5725992Y72362503D03*
X5725992Y69822503D03*
%TO.C,CN205*%
X5725992Y26642503D03*
X5725992Y24102503D03*
%TO.C,J802*%
X6640000Y-26810000D03*
X6640000Y-29350000D03*
%TO.C,CN203*%
X8265992Y72362503D03*
X8265992Y69822503D03*
%TO.C,CN205*%
X8265992Y26642503D03*
X8265992Y24102503D03*
%TO.C,J801*%
X10000000Y8600000D03*
%TO.C,CN203*%
X10805992Y72362503D03*
X10805992Y69822503D03*
%TO.C,CN205*%
X10805992Y26642503D03*
X10805992Y24102503D03*
%TO.C,J801*%
X12540000Y8600000D03*
%TO.C,CN203*%
X13345992Y72362503D03*
X13345992Y69822503D03*
%TO.C,CN205*%
X13345992Y26642503D03*
X13345992Y24102503D03*
%TO.C,J801*%
X15080000Y8600000D03*
%TO.C,CN203*%
X15885992Y72362503D03*
X15885992Y69822503D03*
%TO.C,CN205*%
X15885992Y26642503D03*
X15885992Y24102503D03*
%TO.C,J801*%
X17620000Y8600000D03*
%TO.C,CN203*%
X18425992Y72362503D03*
X18425992Y69822503D03*
%TO.C,CN205*%
X18425992Y26642503D03*
X18425992Y24102503D03*
%TO.C,J801*%
X20160000Y8600000D03*
%TO.C,CN203*%
X20965992Y72362503D03*
X20965992Y69822503D03*
%TO.C,CN205*%
X20965992Y26642503D03*
X20965992Y24102503D03*
%TO.C,J801*%
X22700000Y8600000D03*
%TO.C,CN203*%
X23505992Y72362503D03*
X23505992Y69822503D03*
%TO.C,CN205*%
X23505992Y26642503D03*
X23505992Y24102503D03*
%TO.C,J801*%
X25240000Y8600000D03*
%TO.C,CN203*%
X26045992Y72362503D03*
X26045992Y69822503D03*
%TO.C,CN205*%
X26045992Y26642503D03*
X26045992Y24102503D03*
%TO.C,J801*%
X27780000Y8600000D03*
%TO.C,CN203*%
X28585992Y72362503D03*
X28585992Y69822503D03*
%TO.C,CN205*%
X28585992Y26642503D03*
X28585992Y24102503D03*
%TO.C,CN203*%
X31125992Y72362503D03*
X31125992Y69822503D03*
%TO.C,CN205*%
X31125992Y26642503D03*
X31125992Y24102503D03*
%TO.C,MK601*%
X32299938Y-35230000D03*
X32299938Y-37770000D03*
%TO.C,J601*%
X33335000Y-26635000D03*
X33335000Y-29175000D03*
%TO.C,CN203*%
X33665992Y72362503D03*
X33665992Y69822503D03*
%TO.C,CN205*%
X33665992Y26642503D03*
X33665992Y24102503D03*
%TO.C,J601*%
X35875000Y-26635000D03*
X35875000Y-29175000D03*
%TO.C,J104*%
X39640000Y8700000D03*
X39640000Y6160000D03*
X42180000Y8700000D03*
X42180000Y6160000D03*
X44720000Y8700000D03*
X44720000Y6160000D03*
%TO.C,J604*%
X45900000Y-15320000D03*
X45900000Y-17860000D03*
X45900000Y-20400000D03*
%TO.C,J104*%
X47260000Y8700000D03*
X47260000Y6160000D03*
X49800000Y8700000D03*
X49800000Y6160000D03*
X52340000Y8700000D03*
X52340000Y6160000D03*
%TO.C,CN201*%
X54000000Y65880000D03*
X54000000Y63340000D03*
X54000000Y60800000D03*
X54000000Y58260000D03*
X54000000Y55720000D03*
X54000000Y53180000D03*
X54000000Y50640000D03*
X54000000Y48100000D03*
%TO.C,J104*%
X54880000Y8700000D03*
X54880000Y6160000D03*
%TO.C,CN201*%
X56540000Y65880000D03*
X56540000Y63340000D03*
X56540000Y60800000D03*
X56540000Y58260000D03*
X56540000Y55720000D03*
X56540000Y53180000D03*
X56540000Y50640000D03*
X56540000Y48100000D03*
%TO.C,J104*%
X57420000Y8700000D03*
X57420000Y6160000D03*
X59960000Y8700000D03*
X59960000Y6160000D03*
X62500000Y8700000D03*
X62500000Y6160000D03*
%TO.C,J102*%
X70720000Y76980000D03*
X70720000Y74440000D03*
X70720000Y71900000D03*
%TO.C,J106*%
X70720000Y66820000D03*
X70720000Y64280000D03*
X70720000Y61740000D03*
X70720000Y59200000D03*
X70720000Y56660000D03*
X70720000Y54120000D03*
X70720000Y51580000D03*
X70720000Y49040000D03*
X70720000Y46500000D03*
X70720000Y43960000D03*
%TO.C,J102*%
X73260000Y76980000D03*
X73260000Y74440000D03*
X73260000Y71900000D03*
%TO.C,J106*%
X73260000Y66820000D03*
X73260000Y64280000D03*
X73260000Y61740000D03*
X73260000Y59200000D03*
X73260000Y56660000D03*
X73260000Y54120000D03*
X73260000Y51580000D03*
X73260000Y49040000D03*
X73260000Y46500000D03*
X73260000Y43960000D03*
%TO.C,J105*%
X84130000Y69420000D03*
X84130000Y66880000D03*
X84130000Y64340000D03*
X84130000Y61800000D03*
X84130000Y59260000D03*
X84130000Y56720000D03*
X84130000Y54180000D03*
X84130000Y51640000D03*
%TO.C,A101*%
X93400000Y69420000D03*
X93400000Y66880000D03*
X93400000Y64340000D03*
X93400000Y61800000D03*
X93400000Y59260000D03*
X93400000Y56720000D03*
X93400000Y54180000D03*
X93400000Y51640000D03*
X93400000Y46560000D03*
X93400000Y44020000D03*
X93400000Y41480000D03*
X93400000Y38940000D03*
X93400000Y36400000D03*
X93400000Y33860000D03*
X141660000Y78560000D03*
X141660000Y76020000D03*
X141660000Y73480000D03*
X141660000Y70940000D03*
X141660000Y68400000D03*
X141660000Y65860000D03*
X141660000Y63320000D03*
X141660000Y60780000D03*
X141660000Y58240000D03*
X141660000Y55700000D03*
X141660000Y51640000D03*
X141660000Y49100000D03*
X141660000Y46560000D03*
X141660000Y44020000D03*
X141660000Y41480000D03*
X141660000Y38940000D03*
X141660000Y36400000D03*
X141660000Y33860000D03*
D17*
%TO.C,SW801*%
X4100000Y-800000D03*
X4100000Y-7300000D03*
X8600000Y-800000D03*
X8600000Y-7300000D03*
%TO.C,SW802*%
X12700000Y-900000D03*
X12700000Y-7400000D03*
X17200000Y-900000D03*
X17200000Y-7400000D03*
%TO.C,SW803*%
X21500000Y-800000D03*
X21500000Y-7300000D03*
X26000000Y-800000D03*
X26000000Y-7300000D03*
%TO.C,SW804*%
X30200000Y-800000D03*
X30200000Y-7300000D03*
X34700000Y-800000D03*
X34700000Y-7300000D03*
D18*
%TO.C,RV802*%
X-19600000Y-38200000D03*
X-14600000Y-38200000D03*
X-9600000Y-38200000D03*
%TO.C,RV801*%
X-900000Y-38200000D03*
X4100000Y-38200000D03*
X9100000Y-38200000D03*
%TO.C,U701*%
X19820000Y-26697500D03*
X22360000Y-26697500D03*
X24900000Y-26697500D03*
%TO.C,J603*%
X63705000Y-33567500D03*
X67205000Y-33567500D03*
X70705000Y-33567500D03*
X74205000Y-33567500D03*
%TD*%
D19*
X-61950000Y74200000D03*
X-61950000Y22600000D03*
X-35000000Y-25000000D03*
X56650000Y22600000D03*
X56700000Y74200000D03*
X75000000Y-25000000D03*
X85000000Y-25000000D03*
X110000000Y74200000D03*
X117410000Y-14144000D03*
X140000000Y-25000000D03*
M02*
