%TF.GenerationSoftware,KiCad,Pcbnew,9.0.2*%
%TF.CreationDate,2025-05-30T11:40:45+02:00*%
%TF.ProjectId,voicemail-box,766f6963-656d-4616-996c-2d626f782e6b,rev?*%
%TF.SameCoordinates,PX5f5e100PY5f5e100*%
%TF.FileFunction,Soldermask,Top*%
%TF.FilePolarity,Negative*%
%FSLAX45Y45*%
G04 Gerber Fmt 4.5, Leading zero omitted, Abs format (unit mm)*
G04 Created by KiCad (PCBNEW 9.0.2) date 2025-05-30 11:40:45*
%MOMM*%
%LPD*%
G01*
G04 APERTURE LIST*
G04 Aperture macros list*
%AMRoundRect*
0 Rectangle with rounded corners*
0 $1 Rounding radius*
0 $2 $3 $4 $5 $6 $7 $8 $9 X,Y pos of 4 corners*
0 Add a 4 corners polygon primitive as box body*
4,1,4,$2,$3,$4,$5,$6,$7,$8,$9,$2,$3,0*
0 Add four circle primitives for the rounded corners*
1,1,$1+$1,$2,$3*
1,1,$1+$1,$4,$5*
1,1,$1+$1,$6,$7*
1,1,$1+$1,$8,$9*
0 Add four rect primitives between the rounded corners*
20,1,$1+$1,$2,$3,$4,$5,0*
20,1,$1+$1,$4,$5,$6,$7,0*
20,1,$1+$1,$6,$7,$8,$9,0*
20,1,$1+$1,$8,$9,$2,$3,0*%
G04 Aperture macros list end*
%ADD10C,0.100000*%
%ADD11C,0.150000*%
%ADD12C,0.300000*%
%ADD13C,0.400000*%
%ADD14R,0.228600X0.279400*%
%ADD15RoundRect,0.237500X-0.300000X-0.237500X0.300000X-0.237500X0.300000X0.237500X-0.300000X0.237500X0*%
%ADD16C,2.000000*%
%ADD17RoundRect,0.237500X0.237500X-0.250000X0.237500X0.250000X-0.237500X0.250000X-0.237500X-0.250000X0*%
%ADD18R,1.700000X1.700000*%
%ADD19C,1.700000*%
%ADD20R,1.000000X0.820000*%
%ADD21RoundRect,0.237500X-0.237500X0.250000X-0.237500X-0.250000X0.237500X-0.250000X0.237500X0.250000X0*%
%ADD22RoundRect,0.237500X-0.237500X0.300000X-0.237500X-0.300000X0.237500X-0.300000X0.237500X0.300000X0*%
%ADD23RoundRect,0.250000X-0.475000X0.337500X-0.475000X-0.337500X0.475000X-0.337500X0.475000X0.337500X0*%
%ADD24RoundRect,0.237500X0.300000X0.237500X-0.300000X0.237500X-0.300000X-0.237500X0.300000X-0.237500X0*%
%ADD25RoundRect,0.237500X0.237500X-0.300000X0.237500X0.300000X-0.237500X0.300000X-0.237500X-0.300000X0*%
%ADD26RoundRect,0.250000X-0.337500X-0.475000X0.337500X-0.475000X0.337500X0.475000X-0.337500X0.475000X0*%
%ADD27RoundRect,0.237500X-0.250000X-0.237500X0.250000X-0.237500X0.250000X0.237500X-0.250000X0.237500X0*%
%ADD28R,3.000000X3.000000*%
%ADD29C,3.000000*%
%ADD30RoundRect,0.237500X0.250000X0.237500X-0.250000X0.237500X-0.250000X-0.237500X0.250000X-0.237500X0*%
%ADD31RoundRect,0.237500X-0.287500X-0.237500X0.287500X-0.237500X0.287500X0.237500X-0.287500X0.237500X0*%
%ADD32R,2.800000X2.200000*%
%ADD33R,2.800000X2.000000*%
%ADD34R,2.800000X2.800000*%
%ADD35R,2.800000X2.600000*%
%ADD36R,0.500000X0.800000*%
%ADD37R,0.400000X0.800000*%
%ADD38RoundRect,0.250000X-0.450000X0.350000X-0.450000X-0.350000X0.450000X-0.350000X0.450000X0.350000X0*%
%ADD39RoundRect,0.250000X-0.350000X-0.450000X0.350000X-0.450000X0.350000X0.450000X-0.350000X0.450000X0*%
%ADD40RoundRect,0.250000X0.350000X0.450000X-0.350000X0.450000X-0.350000X-0.450000X0.350000X-0.450000X0*%
%ADD41RoundRect,0.150000X-0.150000X0.512500X-0.150000X-0.512500X0.150000X-0.512500X0.150000X0.512500X0*%
%ADD42RoundRect,0.062500X-0.062500X0.375000X-0.062500X-0.375000X0.062500X-0.375000X0.062500X0.375000X0*%
%ADD43RoundRect,0.062500X-0.375000X0.062500X-0.375000X-0.062500X0.375000X-0.062500X0.375000X0.062500X0*%
%ADD44R,3.100000X3.100000*%
%ADD45RoundRect,0.102000X-0.373000X-0.323000X0.373000X-0.323000X0.373000X0.323000X-0.373000X0.323000X0*%
%ADD46RoundRect,0.175000X-0.175000X-0.625000X0.175000X-0.625000X0.175000X0.625000X-0.175000X0.625000X0*%
%ADD47RoundRect,0.200000X-0.200000X-0.600000X0.200000X-0.600000X0.200000X0.600000X-0.200000X0.600000X0*%
%ADD48RoundRect,0.225000X-0.225000X-0.575000X0.225000X-0.575000X0.225000X0.575000X-0.225000X0.575000X0*%
%ADD49O,1.000000X1.700000*%
%ADD50RoundRect,0.250000X0.450000X-0.350000X0.450000X0.350000X-0.450000X0.350000X-0.450000X-0.350000X0*%
%ADD51RoundRect,0.150000X-0.825000X-0.150000X0.825000X-0.150000X0.825000X0.150000X-0.825000X0.150000X0*%
%ADD52R,1.700000X2.500000*%
%ADD53O,1.700000X2.500000*%
%ADD54RoundRect,0.250000X-0.650000X-1.550000X0.650000X-1.550000X0.650000X1.550000X-0.650000X1.550000X0*%
%ADD55O,1.800000X3.600000*%
%ADD56RoundRect,0.150000X-0.512500X-0.150000X0.512500X-0.150000X0.512500X0.150000X-0.512500X0.150000X0*%
%ADD57R,0.900000X1.500000*%
%ADD58R,1.500000X0.900000*%
%ADD59C,0.600000*%
%ADD60R,4.200000X4.200000*%
%ADD61R,0.279400X0.228600*%
%ADD62RoundRect,0.237500X0.287500X0.237500X-0.287500X0.237500X-0.287500X-0.237500X0.287500X-0.237500X0*%
%ADD63RoundRect,0.062500X-0.375000X-0.062500X0.375000X-0.062500X0.375000X0.062500X-0.375000X0.062500X0*%
%ADD64RoundRect,0.062500X-0.062500X-0.375000X0.062500X-0.375000X0.062500X0.375000X-0.062500X0.375000X0*%
%ADD65R,3.500000X3.500000*%
%ADD66R,1.200000X0.700000*%
%ADD67R,0.800000X1.000000*%
%ADD68R,1.200000X1.000000*%
%ADD69R,2.800000X1.000000*%
%ADD70R,1.900000X1.300000*%
%ADD71RoundRect,0.250000X0.337500X0.475000X-0.337500X0.475000X-0.337500X-0.475000X0.337500X-0.475000X0*%
%ADD72R,1.000000X1.000000*%
%ADD73C,1.000000*%
%ADD74RoundRect,0.150000X-0.625000X-0.150000X0.625000X-0.150000X0.625000X0.150000X-0.625000X0.150000X0*%
%ADD75RoundRect,0.050000X-0.050000X0.337500X-0.050000X-0.337500X0.050000X-0.337500X0.050000X0.337500X0*%
%ADD76R,2.350000X1.780000*%
%ADD77R,1.600000X1.600000*%
%ADD78O,1.600000X1.600000*%
%ADD79C,4.500000*%
G04 APERTURE END LIST*
D10*
D11*
X7700220Y-6600720D02*
X18500220Y-6600720D01*
X18500220Y-9800720D01*
X7700220Y-9800720D01*
X7700220Y-6600720D01*
D10*
D11*
X-9000000Y9000000D02*
X18700220Y9000000D01*
X18700220Y-10000720D01*
X-9000000Y-10000720D01*
X-9000000Y9000000D01*
D10*
D11*
X-8800000Y8800000D02*
X18500220Y8800000D01*
X18500220Y-9800720D01*
X-8800000Y-9800720D01*
X-8800000Y8800000D01*
D10*
D11*
X-4000000Y8800000D02*
X-4000000Y9000000D01*
D10*
D11*
X1000000Y8800000D02*
X1000000Y9000000D01*
D10*
D11*
X6000000Y8800000D02*
X6000000Y9000000D01*
D10*
D11*
X11000000Y8800000D02*
X11000000Y9000000D01*
D10*
D11*
X16000000Y8800000D02*
X16000000Y9000000D01*
D10*
D11*
X-6391084Y8840640D02*
X-6465370Y8840640D01*
X-6428227Y8840640D02*
X-6428227Y8970640D01*
X-6428227Y8970640D02*
X-6440608Y8952068D01*
X-6440608Y8952068D02*
X-6452989Y8939687D01*
X-6452989Y8939687D02*
X-6465370Y8933497D01*
D10*
D11*
X-1465370Y8958259D02*
X-1459179Y8964449D01*
X-1459179Y8964449D02*
X-1446798Y8970640D01*
X-1446798Y8970640D02*
X-1415846Y8970640D01*
X-1415846Y8970640D02*
X-1403465Y8964449D01*
X-1403465Y8964449D02*
X-1397275Y8958259D01*
X-1397275Y8958259D02*
X-1391084Y8945878D01*
X-1391084Y8945878D02*
X-1391084Y8933497D01*
X-1391084Y8933497D02*
X-1397275Y8914925D01*
X-1397275Y8914925D02*
X-1471560Y8840640D01*
X-1471560Y8840640D02*
X-1391084Y8840640D01*
D10*
D11*
X3528440Y8970640D02*
X3608916Y8970640D01*
X3608916Y8970640D02*
X3565583Y8921116D01*
X3565583Y8921116D02*
X3584154Y8921116D01*
X3584154Y8921116D02*
X3596535Y8914925D01*
X3596535Y8914925D02*
X3602725Y8908735D01*
X3602725Y8908735D02*
X3608916Y8896354D01*
X3608916Y8896354D02*
X3608916Y8865402D01*
X3608916Y8865402D02*
X3602725Y8853021D01*
X3602725Y8853021D02*
X3596535Y8846830D01*
X3596535Y8846830D02*
X3584154Y8840640D01*
X3584154Y8840640D02*
X3547011Y8840640D01*
X3547011Y8840640D02*
X3534630Y8846830D01*
X3534630Y8846830D02*
X3528440Y8853021D01*
D10*
D11*
X8596535Y8927306D02*
X8596535Y8840640D01*
X8565583Y8976830D02*
X8534630Y8883973D01*
X8534630Y8883973D02*
X8615106Y8883973D01*
D10*
D11*
X13602725Y8970640D02*
X13540821Y8970640D01*
X13540821Y8970640D02*
X13534630Y8908735D01*
X13534630Y8908735D02*
X13540821Y8914925D01*
X13540821Y8914925D02*
X13553202Y8921116D01*
X13553202Y8921116D02*
X13584154Y8921116D01*
X13584154Y8921116D02*
X13596535Y8914925D01*
X13596535Y8914925D02*
X13602725Y8908735D01*
X13602725Y8908735D02*
X13608916Y8896354D01*
X13608916Y8896354D02*
X13608916Y8865402D01*
X13608916Y8865402D02*
X13602725Y8853021D01*
X13602725Y8853021D02*
X13596535Y8846830D01*
X13596535Y8846830D02*
X13584154Y8840640D01*
X13584154Y8840640D02*
X13553202Y8840640D01*
X13553202Y8840640D02*
X13540821Y8846830D01*
X13540821Y8846830D02*
X13534630Y8853021D01*
D10*
D11*
X18596535Y8970640D02*
X18571773Y8970640D01*
X18571773Y8970640D02*
X18559392Y8964449D01*
X18559392Y8964449D02*
X18553202Y8958259D01*
X18553202Y8958259D02*
X18540821Y8939687D01*
X18540821Y8939687D02*
X18534630Y8914925D01*
X18534630Y8914925D02*
X18534630Y8865402D01*
X18534630Y8865402D02*
X18540821Y8853021D01*
X18540821Y8853021D02*
X18547011Y8846830D01*
X18547011Y8846830D02*
X18559392Y8840640D01*
X18559392Y8840640D02*
X18584154Y8840640D01*
X18584154Y8840640D02*
X18596535Y8846830D01*
X18596535Y8846830D02*
X18602726Y8853021D01*
X18602726Y8853021D02*
X18608916Y8865402D01*
X18608916Y8865402D02*
X18608916Y8896354D01*
X18608916Y8896354D02*
X18602726Y8908735D01*
X18602726Y8908735D02*
X18596535Y8914925D01*
X18596535Y8914925D02*
X18584154Y8921116D01*
X18584154Y8921116D02*
X18559392Y8921116D01*
X18559392Y8921116D02*
X18547011Y8914925D01*
X18547011Y8914925D02*
X18540821Y8908735D01*
X18540821Y8908735D02*
X18534630Y8896354D01*
D10*
D11*
X-4000000Y-9800720D02*
X-4000000Y-10000720D01*
D10*
D11*
X1000000Y-9800720D02*
X1000000Y-10000720D01*
D10*
D11*
X6000000Y-9800720D02*
X6000000Y-10000720D01*
D10*
D11*
X11000000Y-9800720D02*
X11000000Y-10000720D01*
D10*
D11*
X16000000Y-9800720D02*
X16000000Y-10000720D01*
D10*
D11*
X-6391084Y-9960080D02*
X-6465370Y-9960080D01*
X-6428227Y-9960080D02*
X-6428227Y-9830080D01*
X-6428227Y-9830080D02*
X-6440608Y-9848652D01*
X-6440608Y-9848652D02*
X-6452989Y-9861033D01*
X-6452989Y-9861033D02*
X-6465370Y-9867223D01*
D10*
D11*
X-1465370Y-9842461D02*
X-1459179Y-9836271D01*
X-1459179Y-9836271D02*
X-1446798Y-9830080D01*
X-1446798Y-9830080D02*
X-1415846Y-9830080D01*
X-1415846Y-9830080D02*
X-1403465Y-9836271D01*
X-1403465Y-9836271D02*
X-1397275Y-9842461D01*
X-1397275Y-9842461D02*
X-1391084Y-9854842D01*
X-1391084Y-9854842D02*
X-1391084Y-9867223D01*
X-1391084Y-9867223D02*
X-1397275Y-9885795D01*
X-1397275Y-9885795D02*
X-1471560Y-9960080D01*
X-1471560Y-9960080D02*
X-1391084Y-9960080D01*
D10*
D11*
X3528440Y-9830080D02*
X3608916Y-9830080D01*
X3608916Y-9830080D02*
X3565583Y-9879604D01*
X3565583Y-9879604D02*
X3584154Y-9879604D01*
X3584154Y-9879604D02*
X3596535Y-9885795D01*
X3596535Y-9885795D02*
X3602725Y-9891985D01*
X3602725Y-9891985D02*
X3608916Y-9904366D01*
X3608916Y-9904366D02*
X3608916Y-9935319D01*
X3608916Y-9935319D02*
X3602725Y-9947700D01*
X3602725Y-9947700D02*
X3596535Y-9953890D01*
X3596535Y-9953890D02*
X3584154Y-9960080D01*
X3584154Y-9960080D02*
X3547011Y-9960080D01*
X3547011Y-9960080D02*
X3534630Y-9953890D01*
X3534630Y-9953890D02*
X3528440Y-9947700D01*
D10*
D11*
X8596535Y-9873414D02*
X8596535Y-9960080D01*
X8565583Y-9823890D02*
X8534630Y-9916747D01*
X8534630Y-9916747D02*
X8615106Y-9916747D01*
D10*
D11*
X13602725Y-9830080D02*
X13540821Y-9830080D01*
X13540821Y-9830080D02*
X13534630Y-9891985D01*
X13534630Y-9891985D02*
X13540821Y-9885795D01*
X13540821Y-9885795D02*
X13553202Y-9879604D01*
X13553202Y-9879604D02*
X13584154Y-9879604D01*
X13584154Y-9879604D02*
X13596535Y-9885795D01*
X13596535Y-9885795D02*
X13602725Y-9891985D01*
X13602725Y-9891985D02*
X13608916Y-9904366D01*
X13608916Y-9904366D02*
X13608916Y-9935319D01*
X13608916Y-9935319D02*
X13602725Y-9947700D01*
X13602725Y-9947700D02*
X13596535Y-9953890D01*
X13596535Y-9953890D02*
X13584154Y-9960080D01*
X13584154Y-9960080D02*
X13553202Y-9960080D01*
X13553202Y-9960080D02*
X13540821Y-9953890D01*
X13540821Y-9953890D02*
X13534630Y-9947700D01*
D10*
D11*
X18596535Y-9830080D02*
X18571773Y-9830080D01*
X18571773Y-9830080D02*
X18559392Y-9836271D01*
X18559392Y-9836271D02*
X18553202Y-9842461D01*
X18553202Y-9842461D02*
X18540821Y-9861033D01*
X18540821Y-9861033D02*
X18534630Y-9885795D01*
X18534630Y-9885795D02*
X18534630Y-9935319D01*
X18534630Y-9935319D02*
X18540821Y-9947700D01*
X18540821Y-9947700D02*
X18547011Y-9953890D01*
X18547011Y-9953890D02*
X18559392Y-9960080D01*
X18559392Y-9960080D02*
X18584154Y-9960080D01*
X18584154Y-9960080D02*
X18596535Y-9953890D01*
X18596535Y-9953890D02*
X18602726Y-9947700D01*
X18602726Y-9947700D02*
X18608916Y-9935319D01*
X18608916Y-9935319D02*
X18608916Y-9904366D01*
X18608916Y-9904366D02*
X18602726Y-9891985D01*
X18602726Y-9891985D02*
X18596535Y-9885795D01*
X18596535Y-9885795D02*
X18584154Y-9879604D01*
X18584154Y-9879604D02*
X18559392Y-9879604D01*
X18559392Y-9879604D02*
X18547011Y-9885795D01*
X18547011Y-9885795D02*
X18540821Y-9891985D01*
X18540821Y-9891985D02*
X18534630Y-9904366D01*
D10*
D11*
X-9000000Y4000000D02*
X-8800000Y4000000D01*
D10*
D11*
X-9000000Y-1000000D02*
X-8800000Y-1000000D01*
D10*
D11*
X-9000000Y-6000000D02*
X-8800000Y-6000000D01*
D10*
D11*
X-8930952Y6477782D02*
X-8869048Y6477782D01*
X-8943333Y6440640D02*
X-8900000Y6570640D01*
X-8900000Y6570640D02*
X-8856667Y6440640D01*
D10*
D11*
X-8890714Y1508735D02*
X-8872143Y1502544D01*
X-8872143Y1502544D02*
X-8865952Y1496354D01*
X-8865952Y1496354D02*
X-8859762Y1483973D01*
X-8859762Y1483973D02*
X-8859762Y1465401D01*
X-8859762Y1465401D02*
X-8865952Y1453020D01*
X-8865952Y1453020D02*
X-8872143Y1446830D01*
X-8872143Y1446830D02*
X-8884524Y1440640D01*
X-8884524Y1440640D02*
X-8934048Y1440640D01*
X-8934048Y1440640D02*
X-8934048Y1570640D01*
X-8934048Y1570640D02*
X-8890714Y1570640D01*
X-8890714Y1570640D02*
X-8878333Y1564449D01*
X-8878333Y1564449D02*
X-8872143Y1558259D01*
X-8872143Y1558259D02*
X-8865952Y1545878D01*
X-8865952Y1545878D02*
X-8865952Y1533497D01*
X-8865952Y1533497D02*
X-8872143Y1521116D01*
X-8872143Y1521116D02*
X-8878333Y1514925D01*
X-8878333Y1514925D02*
X-8890714Y1508735D01*
X-8890714Y1508735D02*
X-8934048Y1508735D01*
D10*
D11*
X-8859762Y-3546979D02*
X-8865952Y-3553170D01*
X-8865952Y-3553170D02*
X-8884524Y-3559360D01*
X-8884524Y-3559360D02*
X-8896905Y-3559360D01*
X-8896905Y-3559360D02*
X-8915476Y-3553170D01*
X-8915476Y-3553170D02*
X-8927857Y-3540789D01*
X-8927857Y-3540789D02*
X-8934048Y-3528408D01*
X-8934048Y-3528408D02*
X-8940238Y-3503646D01*
X-8940238Y-3503646D02*
X-8940238Y-3485075D01*
X-8940238Y-3485075D02*
X-8934048Y-3460313D01*
X-8934048Y-3460313D02*
X-8927857Y-3447932D01*
X-8927857Y-3447932D02*
X-8915476Y-3435551D01*
X-8915476Y-3435551D02*
X-8896905Y-3429360D01*
X-8896905Y-3429360D02*
X-8884524Y-3429360D01*
X-8884524Y-3429360D02*
X-8865952Y-3435551D01*
X-8865952Y-3435551D02*
X-8859762Y-3441741D01*
D10*
D11*
X-8934048Y-8559360D02*
X-8934048Y-8429360D01*
X-8934048Y-8429360D02*
X-8903095Y-8429360D01*
X-8903095Y-8429360D02*
X-8884524Y-8435551D01*
X-8884524Y-8435551D02*
X-8872143Y-8447932D01*
X-8872143Y-8447932D02*
X-8865952Y-8460313D01*
X-8865952Y-8460313D02*
X-8859762Y-8485075D01*
X-8859762Y-8485075D02*
X-8859762Y-8503646D01*
X-8859762Y-8503646D02*
X-8865952Y-8528408D01*
X-8865952Y-8528408D02*
X-8872143Y-8540789D01*
X-8872143Y-8540789D02*
X-8884524Y-8553170D01*
X-8884524Y-8553170D02*
X-8903095Y-8559360D01*
X-8903095Y-8559360D02*
X-8934048Y-8559360D01*
D10*
D11*
X18700220Y4000000D02*
X18500220Y4000000D01*
D10*
D11*
X18700220Y-1000000D02*
X18500220Y-1000000D01*
D10*
D11*
X18700220Y-6000000D02*
X18500220Y-6000000D01*
D10*
D11*
X18569268Y6477782D02*
X18631172Y6477782D01*
X18556887Y6440640D02*
X18600220Y6570640D01*
X18600220Y6570640D02*
X18643553Y6440640D01*
D10*
D11*
X18609506Y1508735D02*
X18628077Y1502544D01*
X18628077Y1502544D02*
X18634268Y1496354D01*
X18634268Y1496354D02*
X18640458Y1483973D01*
X18640458Y1483973D02*
X18640458Y1465401D01*
X18640458Y1465401D02*
X18634268Y1453020D01*
X18634268Y1453020D02*
X18628077Y1446830D01*
X18628077Y1446830D02*
X18615696Y1440640D01*
X18615696Y1440640D02*
X18566172Y1440640D01*
X18566172Y1440640D02*
X18566172Y1570640D01*
X18566172Y1570640D02*
X18609506Y1570640D01*
X18609506Y1570640D02*
X18621887Y1564449D01*
X18621887Y1564449D02*
X18628077Y1558259D01*
X18628077Y1558259D02*
X18634268Y1545878D01*
X18634268Y1545878D02*
X18634268Y1533497D01*
X18634268Y1533497D02*
X18628077Y1521116D01*
X18628077Y1521116D02*
X18621887Y1514925D01*
X18621887Y1514925D02*
X18609506Y1508735D01*
X18609506Y1508735D02*
X18566172Y1508735D01*
D10*
D11*
X18640458Y-3546979D02*
X18634268Y-3553170D01*
X18634268Y-3553170D02*
X18615696Y-3559360D01*
X18615696Y-3559360D02*
X18603315Y-3559360D01*
X18603315Y-3559360D02*
X18584744Y-3553170D01*
X18584744Y-3553170D02*
X18572363Y-3540789D01*
X18572363Y-3540789D02*
X18566172Y-3528408D01*
X18566172Y-3528408D02*
X18559982Y-3503646D01*
X18559982Y-3503646D02*
X18559982Y-3485075D01*
X18559982Y-3485075D02*
X18566172Y-3460313D01*
X18566172Y-3460313D02*
X18572363Y-3447932D01*
X18572363Y-3447932D02*
X18584744Y-3435551D01*
X18584744Y-3435551D02*
X18603315Y-3429360D01*
X18603315Y-3429360D02*
X18615696Y-3429360D01*
X18615696Y-3429360D02*
X18634268Y-3435551D01*
X18634268Y-3435551D02*
X18640458Y-3441741D01*
D10*
D11*
X18566172Y-8559360D02*
X18566172Y-8429360D01*
X18566172Y-8429360D02*
X18597125Y-8429360D01*
X18597125Y-8429360D02*
X18615696Y-8435551D01*
X18615696Y-8435551D02*
X18628077Y-8447932D01*
X18628077Y-8447932D02*
X18634268Y-8460313D01*
X18634268Y-8460313D02*
X18640458Y-8485075D01*
X18640458Y-8485075D02*
X18640458Y-8503646D01*
X18640458Y-8503646D02*
X18634268Y-8528408D01*
X18634268Y-8528408D02*
X18628077Y-8540789D01*
X18628077Y-8540789D02*
X18615696Y-8553170D01*
X18615696Y-8553170D02*
X18597125Y-8559360D01*
X18597125Y-8559360D02*
X18566172Y-8559360D01*
D10*
D11*
X10045803Y-9379333D02*
X10045803Y-9229333D01*
X10045803Y-9229333D02*
X10081517Y-9229333D01*
X10081517Y-9229333D02*
X10102946Y-9236476D01*
X10102946Y-9236476D02*
X10117231Y-9250761D01*
X10117231Y-9250761D02*
X10124374Y-9265047D01*
X10124374Y-9265047D02*
X10131517Y-9293619D01*
X10131517Y-9293619D02*
X10131517Y-9315047D01*
X10131517Y-9315047D02*
X10124374Y-9343619D01*
X10124374Y-9343619D02*
X10117231Y-9357904D01*
X10117231Y-9357904D02*
X10102946Y-9372190D01*
X10102946Y-9372190D02*
X10081517Y-9379333D01*
X10081517Y-9379333D02*
X10045803Y-9379333D01*
X10260088Y-9379333D02*
X10260088Y-9300761D01*
X10260088Y-9300761D02*
X10252946Y-9286476D01*
X10252946Y-9286476D02*
X10238660Y-9279333D01*
X10238660Y-9279333D02*
X10210088Y-9279333D01*
X10210088Y-9279333D02*
X10195803Y-9286476D01*
X10260088Y-9372190D02*
X10245803Y-9379333D01*
X10245803Y-9379333D02*
X10210088Y-9379333D01*
X10210088Y-9379333D02*
X10195803Y-9372190D01*
X10195803Y-9372190D02*
X10188660Y-9357904D01*
X10188660Y-9357904D02*
X10188660Y-9343619D01*
X10188660Y-9343619D02*
X10195803Y-9329333D01*
X10195803Y-9329333D02*
X10210088Y-9322190D01*
X10210088Y-9322190D02*
X10245803Y-9322190D01*
X10245803Y-9322190D02*
X10260088Y-9315047D01*
X10310088Y-9279333D02*
X10367231Y-9279333D01*
X10331517Y-9229333D02*
X10331517Y-9357904D01*
X10331517Y-9357904D02*
X10338660Y-9372190D01*
X10338660Y-9372190D02*
X10352946Y-9379333D01*
X10352946Y-9379333D02*
X10367231Y-9379333D01*
X10474374Y-9372190D02*
X10460088Y-9379333D01*
X10460088Y-9379333D02*
X10431517Y-9379333D01*
X10431517Y-9379333D02*
X10417231Y-9372190D01*
X10417231Y-9372190D02*
X10410088Y-9357904D01*
X10410088Y-9357904D02*
X10410088Y-9300761D01*
X10410088Y-9300761D02*
X10417231Y-9286476D01*
X10417231Y-9286476D02*
X10431517Y-9279333D01*
X10431517Y-9279333D02*
X10460088Y-9279333D01*
X10460088Y-9279333D02*
X10474374Y-9286476D01*
X10474374Y-9286476D02*
X10481517Y-9300761D01*
X10481517Y-9300761D02*
X10481517Y-9315047D01*
X10481517Y-9315047D02*
X10410088Y-9329333D01*
X10545803Y-9365047D02*
X10552946Y-9372190D01*
X10552946Y-9372190D02*
X10545803Y-9379333D01*
X10545803Y-9379333D02*
X10538660Y-9372190D01*
X10538660Y-9372190D02*
X10545803Y-9365047D01*
X10545803Y-9365047D02*
X10545803Y-9379333D01*
X10545803Y-9286476D02*
X10552946Y-9293619D01*
X10552946Y-9293619D02*
X10545803Y-9300761D01*
X10545803Y-9300761D02*
X10538660Y-9293619D01*
X10538660Y-9293619D02*
X10545803Y-9286476D01*
X10545803Y-9286476D02*
X10545803Y-9300761D01*
X10731517Y-9379333D02*
X10731517Y-9279333D01*
X10731517Y-9293619D02*
X10738660Y-9286476D01*
X10738660Y-9286476D02*
X10752946Y-9279333D01*
X10752946Y-9279333D02*
X10774374Y-9279333D01*
X10774374Y-9279333D02*
X10788660Y-9286476D01*
X10788660Y-9286476D02*
X10795803Y-9300761D01*
X10795803Y-9300761D02*
X10795803Y-9379333D01*
X10795803Y-9300761D02*
X10802946Y-9286476D01*
X10802946Y-9286476D02*
X10817231Y-9279333D01*
X10817231Y-9279333D02*
X10838660Y-9279333D01*
X10838660Y-9279333D02*
X10852946Y-9286476D01*
X10852946Y-9286476D02*
X10860088Y-9300761D01*
X10860088Y-9300761D02*
X10860088Y-9379333D01*
X10995803Y-9379333D02*
X10995803Y-9300761D01*
X10995803Y-9300761D02*
X10988660Y-9286476D01*
X10988660Y-9286476D02*
X10974374Y-9279333D01*
X10974374Y-9279333D02*
X10945803Y-9279333D01*
X10945803Y-9279333D02*
X10931517Y-9286476D01*
X10995803Y-9372190D02*
X10981517Y-9379333D01*
X10981517Y-9379333D02*
X10945803Y-9379333D01*
X10945803Y-9379333D02*
X10931517Y-9372190D01*
X10931517Y-9372190D02*
X10924374Y-9357904D01*
X10924374Y-9357904D02*
X10924374Y-9343619D01*
X10924374Y-9343619D02*
X10931517Y-9329333D01*
X10931517Y-9329333D02*
X10945803Y-9322190D01*
X10945803Y-9322190D02*
X10981517Y-9322190D01*
X10981517Y-9322190D02*
X10995803Y-9315047D01*
X11067231Y-9379333D02*
X11067231Y-9279333D01*
X11067231Y-9307904D02*
X11074374Y-9293619D01*
X11074374Y-9293619D02*
X11081517Y-9286476D01*
X11081517Y-9286476D02*
X11095803Y-9279333D01*
X11095803Y-9279333D02*
X11110088Y-9279333D01*
X11160088Y-9365047D02*
X11167231Y-9372190D01*
X11167231Y-9372190D02*
X11160088Y-9379333D01*
X11160088Y-9379333D02*
X11152946Y-9372190D01*
X11152946Y-9372190D02*
X11160088Y-9365047D01*
X11160088Y-9365047D02*
X11160088Y-9379333D01*
X11331517Y-9229333D02*
X11424374Y-9229333D01*
X11424374Y-9229333D02*
X11374374Y-9286476D01*
X11374374Y-9286476D02*
X11395803Y-9286476D01*
X11395803Y-9286476D02*
X11410088Y-9293619D01*
X11410088Y-9293619D02*
X11417231Y-9300761D01*
X11417231Y-9300761D02*
X11424374Y-9315047D01*
X11424374Y-9315047D02*
X11424374Y-9350761D01*
X11424374Y-9350761D02*
X11417231Y-9365047D01*
X11417231Y-9365047D02*
X11410088Y-9372190D01*
X11410088Y-9372190D02*
X11395803Y-9379333D01*
X11395803Y-9379333D02*
X11352945Y-9379333D01*
X11352945Y-9379333D02*
X11338660Y-9372190D01*
X11338660Y-9372190D02*
X11331517Y-9365047D01*
X11567231Y-9379333D02*
X11481517Y-9379333D01*
X11524374Y-9379333D02*
X11524374Y-9229333D01*
X11524374Y-9229333D02*
X11510088Y-9250761D01*
X11510088Y-9250761D02*
X11495803Y-9265047D01*
X11495803Y-9265047D02*
X11481517Y-9272190D01*
X11745802Y-9379333D02*
X11745802Y-9279333D01*
X11745802Y-9293619D02*
X11752945Y-9286476D01*
X11752945Y-9286476D02*
X11767231Y-9279333D01*
X11767231Y-9279333D02*
X11788660Y-9279333D01*
X11788660Y-9279333D02*
X11802945Y-9286476D01*
X11802945Y-9286476D02*
X11810088Y-9300761D01*
X11810088Y-9300761D02*
X11810088Y-9379333D01*
X11810088Y-9300761D02*
X11817231Y-9286476D01*
X11817231Y-9286476D02*
X11831517Y-9279333D01*
X11831517Y-9279333D02*
X11852945Y-9279333D01*
X11852945Y-9279333D02*
X11867231Y-9286476D01*
X11867231Y-9286476D02*
X11874374Y-9300761D01*
X11874374Y-9300761D02*
X11874374Y-9379333D01*
X12010088Y-9379333D02*
X12010088Y-9300761D01*
X12010088Y-9300761D02*
X12002945Y-9286476D01*
X12002945Y-9286476D02*
X11988660Y-9279333D01*
X11988660Y-9279333D02*
X11960088Y-9279333D01*
X11960088Y-9279333D02*
X11945802Y-9286476D01*
X12010088Y-9372190D02*
X11995802Y-9379333D01*
X11995802Y-9379333D02*
X11960088Y-9379333D01*
X11960088Y-9379333D02*
X11945802Y-9372190D01*
X11945802Y-9372190D02*
X11938660Y-9357904D01*
X11938660Y-9357904D02*
X11938660Y-9343619D01*
X11938660Y-9343619D02*
X11945802Y-9329333D01*
X11945802Y-9329333D02*
X11960088Y-9322190D01*
X11960088Y-9322190D02*
X11995802Y-9322190D01*
X11995802Y-9322190D02*
X12010088Y-9315047D01*
X12081517Y-9379333D02*
X12081517Y-9279333D01*
X12081517Y-9307904D02*
X12088660Y-9293619D01*
X12088660Y-9293619D02*
X12095803Y-9286476D01*
X12095803Y-9286476D02*
X12110088Y-9279333D01*
X12110088Y-9279333D02*
X12124374Y-9279333D01*
X12167231Y-9372190D02*
X12181517Y-9379333D01*
X12181517Y-9379333D02*
X12210088Y-9379333D01*
X12210088Y-9379333D02*
X12224374Y-9372190D01*
X12224374Y-9372190D02*
X12231517Y-9357904D01*
X12231517Y-9357904D02*
X12231517Y-9350761D01*
X12231517Y-9350761D02*
X12224374Y-9336476D01*
X12224374Y-9336476D02*
X12210088Y-9329333D01*
X12210088Y-9329333D02*
X12188660Y-9329333D01*
X12188660Y-9329333D02*
X12174374Y-9322190D01*
X12174374Y-9322190D02*
X12167231Y-9307904D01*
X12167231Y-9307904D02*
X12167231Y-9300761D01*
X12167231Y-9300761D02*
X12174374Y-9286476D01*
X12174374Y-9286476D02*
X12188660Y-9279333D01*
X12188660Y-9279333D02*
X12210088Y-9279333D01*
X12210088Y-9279333D02*
X12224374Y-9286476D01*
X12402945Y-9243619D02*
X12410088Y-9236476D01*
X12410088Y-9236476D02*
X12424374Y-9229333D01*
X12424374Y-9229333D02*
X12460088Y-9229333D01*
X12460088Y-9229333D02*
X12474374Y-9236476D01*
X12474374Y-9236476D02*
X12481517Y-9243619D01*
X12481517Y-9243619D02*
X12488660Y-9257904D01*
X12488660Y-9257904D02*
X12488660Y-9272190D01*
X12488660Y-9272190D02*
X12481517Y-9293619D01*
X12481517Y-9293619D02*
X12395802Y-9379333D01*
X12395802Y-9379333D02*
X12488660Y-9379333D01*
X12581517Y-9229333D02*
X12595802Y-9229333D01*
X12595802Y-9229333D02*
X12610088Y-9236476D01*
X12610088Y-9236476D02*
X12617231Y-9243619D01*
X12617231Y-9243619D02*
X12624374Y-9257904D01*
X12624374Y-9257904D02*
X12631517Y-9286476D01*
X12631517Y-9286476D02*
X12631517Y-9322190D01*
X12631517Y-9322190D02*
X12624374Y-9350761D01*
X12624374Y-9350761D02*
X12617231Y-9365047D01*
X12617231Y-9365047D02*
X12610088Y-9372190D01*
X12610088Y-9372190D02*
X12595802Y-9379333D01*
X12595802Y-9379333D02*
X12581517Y-9379333D01*
X12581517Y-9379333D02*
X12567231Y-9372190D01*
X12567231Y-9372190D02*
X12560088Y-9365047D01*
X12560088Y-9365047D02*
X12552945Y-9350761D01*
X12552945Y-9350761D02*
X12545802Y-9322190D01*
X12545802Y-9322190D02*
X12545802Y-9286476D01*
X12545802Y-9286476D02*
X12552945Y-9257904D01*
X12552945Y-9257904D02*
X12560088Y-9243619D01*
X12560088Y-9243619D02*
X12567231Y-9236476D01*
X12567231Y-9236476D02*
X12581517Y-9229333D01*
X12774374Y-9379333D02*
X12688660Y-9379333D01*
X12731517Y-9379333D02*
X12731517Y-9229333D01*
X12731517Y-9229333D02*
X12717231Y-9250761D01*
X12717231Y-9250761D02*
X12702945Y-9265047D01*
X12702945Y-9265047D02*
X12688660Y-9272190D01*
X12910088Y-9229333D02*
X12838659Y-9229333D01*
X12838659Y-9229333D02*
X12831517Y-9300761D01*
X12831517Y-9300761D02*
X12838659Y-9293619D01*
X12838659Y-9293619D02*
X12852945Y-9286476D01*
X12852945Y-9286476D02*
X12888659Y-9286476D01*
X12888659Y-9286476D02*
X12902945Y-9293619D01*
X12902945Y-9293619D02*
X12910088Y-9300761D01*
X12910088Y-9300761D02*
X12917231Y-9315047D01*
X12917231Y-9315047D02*
X12917231Y-9350761D01*
X12917231Y-9350761D02*
X12910088Y-9365047D01*
X12910088Y-9365047D02*
X12902945Y-9372190D01*
X12902945Y-9372190D02*
X12888659Y-9379333D01*
X12888659Y-9379333D02*
X12852945Y-9379333D01*
X12852945Y-9379333D02*
X12838659Y-9372190D01*
X12838659Y-9372190D02*
X12831517Y-9365047D01*
D10*
D11*
X7700220Y-9450720D02*
X18500220Y-9450720D01*
D10*
D11*
X7845803Y-9659333D02*
X7845803Y-9509333D01*
X7931517Y-9659333D02*
X7867231Y-9573619D01*
X7931517Y-9509333D02*
X7845803Y-9595047D01*
X7995803Y-9659333D02*
X7995803Y-9559333D01*
X7995803Y-9509333D02*
X7988660Y-9516476D01*
X7988660Y-9516476D02*
X7995803Y-9523619D01*
X7995803Y-9523619D02*
X8002945Y-9516476D01*
X8002945Y-9516476D02*
X7995803Y-9509333D01*
X7995803Y-9509333D02*
X7995803Y-9523619D01*
X8152945Y-9645047D02*
X8145803Y-9652190D01*
X8145803Y-9652190D02*
X8124374Y-9659333D01*
X8124374Y-9659333D02*
X8110088Y-9659333D01*
X8110088Y-9659333D02*
X8088660Y-9652190D01*
X8088660Y-9652190D02*
X8074374Y-9637904D01*
X8074374Y-9637904D02*
X8067231Y-9623619D01*
X8067231Y-9623619D02*
X8060088Y-9595047D01*
X8060088Y-9595047D02*
X8060088Y-9573619D01*
X8060088Y-9573619D02*
X8067231Y-9545047D01*
X8067231Y-9545047D02*
X8074374Y-9530761D01*
X8074374Y-9530761D02*
X8088660Y-9516476D01*
X8088660Y-9516476D02*
X8110088Y-9509333D01*
X8110088Y-9509333D02*
X8124374Y-9509333D01*
X8124374Y-9509333D02*
X8145803Y-9516476D01*
X8145803Y-9516476D02*
X8152945Y-9523619D01*
X8281517Y-9659333D02*
X8281517Y-9580761D01*
X8281517Y-9580761D02*
X8274374Y-9566476D01*
X8274374Y-9566476D02*
X8260088Y-9559333D01*
X8260088Y-9559333D02*
X8231517Y-9559333D01*
X8231517Y-9559333D02*
X8217231Y-9566476D01*
X8281517Y-9652190D02*
X8267231Y-9659333D01*
X8267231Y-9659333D02*
X8231517Y-9659333D01*
X8231517Y-9659333D02*
X8217231Y-9652190D01*
X8217231Y-9652190D02*
X8210088Y-9637904D01*
X8210088Y-9637904D02*
X8210088Y-9623619D01*
X8210088Y-9623619D02*
X8217231Y-9609333D01*
X8217231Y-9609333D02*
X8231517Y-9602190D01*
X8231517Y-9602190D02*
X8267231Y-9602190D01*
X8267231Y-9602190D02*
X8281517Y-9595047D01*
X8417231Y-9659333D02*
X8417231Y-9509333D01*
X8417231Y-9652190D02*
X8402946Y-9659333D01*
X8402946Y-9659333D02*
X8374374Y-9659333D01*
X8374374Y-9659333D02*
X8360088Y-9652190D01*
X8360088Y-9652190D02*
X8352945Y-9645047D01*
X8352945Y-9645047D02*
X8345803Y-9630761D01*
X8345803Y-9630761D02*
X8345803Y-9587904D01*
X8345803Y-9587904D02*
X8352945Y-9573619D01*
X8352945Y-9573619D02*
X8360088Y-9566476D01*
X8360088Y-9566476D02*
X8374374Y-9559333D01*
X8374374Y-9559333D02*
X8402946Y-9559333D01*
X8402946Y-9559333D02*
X8417231Y-9566476D01*
X8602946Y-9580761D02*
X8652946Y-9580761D01*
X8674374Y-9659333D02*
X8602946Y-9659333D01*
X8602946Y-9659333D02*
X8602946Y-9509333D01*
X8602946Y-9509333D02*
X8674374Y-9509333D01*
X8738660Y-9645047D02*
X8745803Y-9652190D01*
X8745803Y-9652190D02*
X8738660Y-9659333D01*
X8738660Y-9659333D02*
X8731517Y-9652190D01*
X8731517Y-9652190D02*
X8738660Y-9645047D01*
X8738660Y-9645047D02*
X8738660Y-9659333D01*
X8810088Y-9659333D02*
X8810088Y-9509333D01*
X8810088Y-9509333D02*
X8845803Y-9509333D01*
X8845803Y-9509333D02*
X8867231Y-9516476D01*
X8867231Y-9516476D02*
X8881517Y-9530761D01*
X8881517Y-9530761D02*
X8888660Y-9545047D01*
X8888660Y-9545047D02*
X8895803Y-9573619D01*
X8895803Y-9573619D02*
X8895803Y-9595047D01*
X8895803Y-9595047D02*
X8888660Y-9623619D01*
X8888660Y-9623619D02*
X8881517Y-9637904D01*
X8881517Y-9637904D02*
X8867231Y-9652190D01*
X8867231Y-9652190D02*
X8845803Y-9659333D01*
X8845803Y-9659333D02*
X8810088Y-9659333D01*
X8960088Y-9645047D02*
X8967231Y-9652190D01*
X8967231Y-9652190D02*
X8960088Y-9659333D01*
X8960088Y-9659333D02*
X8952946Y-9652190D01*
X8952946Y-9652190D02*
X8960088Y-9645047D01*
X8960088Y-9645047D02*
X8960088Y-9659333D01*
X9024374Y-9616476D02*
X9095803Y-9616476D01*
X9010089Y-9659333D02*
X9060089Y-9509333D01*
X9060089Y-9509333D02*
X9110089Y-9659333D01*
X9160088Y-9645047D02*
X9167231Y-9652190D01*
X9167231Y-9652190D02*
X9160088Y-9659333D01*
X9160088Y-9659333D02*
X9152946Y-9652190D01*
X9152946Y-9652190D02*
X9160088Y-9645047D01*
X9160088Y-9645047D02*
X9160088Y-9659333D01*
X9352946Y-9659333D02*
X9381517Y-9659333D01*
X9381517Y-9659333D02*
X9395803Y-9652190D01*
X9395803Y-9652190D02*
X9402946Y-9645047D01*
X9402946Y-9645047D02*
X9417231Y-9623619D01*
X9417231Y-9623619D02*
X9424374Y-9595047D01*
X9424374Y-9595047D02*
X9424374Y-9537904D01*
X9424374Y-9537904D02*
X9417231Y-9523619D01*
X9417231Y-9523619D02*
X9410089Y-9516476D01*
X9410089Y-9516476D02*
X9395803Y-9509333D01*
X9395803Y-9509333D02*
X9367231Y-9509333D01*
X9367231Y-9509333D02*
X9352946Y-9516476D01*
X9352946Y-9516476D02*
X9345803Y-9523619D01*
X9345803Y-9523619D02*
X9338660Y-9537904D01*
X9338660Y-9537904D02*
X9338660Y-9573619D01*
X9338660Y-9573619D02*
X9345803Y-9587904D01*
X9345803Y-9587904D02*
X9352946Y-9595047D01*
X9352946Y-9595047D02*
X9367231Y-9602190D01*
X9367231Y-9602190D02*
X9395803Y-9602190D01*
X9395803Y-9602190D02*
X9410089Y-9595047D01*
X9410089Y-9595047D02*
X9417231Y-9587904D01*
X9417231Y-9587904D02*
X9424374Y-9573619D01*
X9488660Y-9645047D02*
X9495803Y-9652190D01*
X9495803Y-9652190D02*
X9488660Y-9659333D01*
X9488660Y-9659333D02*
X9481517Y-9652190D01*
X9481517Y-9652190D02*
X9488660Y-9645047D01*
X9488660Y-9645047D02*
X9488660Y-9659333D01*
X9588660Y-9509333D02*
X9602946Y-9509333D01*
X9602946Y-9509333D02*
X9617231Y-9516476D01*
X9617231Y-9516476D02*
X9624374Y-9523619D01*
X9624374Y-9523619D02*
X9631517Y-9537904D01*
X9631517Y-9537904D02*
X9638660Y-9566476D01*
X9638660Y-9566476D02*
X9638660Y-9602190D01*
X9638660Y-9602190D02*
X9631517Y-9630761D01*
X9631517Y-9630761D02*
X9624374Y-9645047D01*
X9624374Y-9645047D02*
X9617231Y-9652190D01*
X9617231Y-9652190D02*
X9602946Y-9659333D01*
X9602946Y-9659333D02*
X9588660Y-9659333D01*
X9588660Y-9659333D02*
X9574374Y-9652190D01*
X9574374Y-9652190D02*
X9567231Y-9645047D01*
X9567231Y-9645047D02*
X9560088Y-9630761D01*
X9560088Y-9630761D02*
X9552946Y-9602190D01*
X9552946Y-9602190D02*
X9552946Y-9566476D01*
X9552946Y-9566476D02*
X9560088Y-9537904D01*
X9560088Y-9537904D02*
X9567231Y-9523619D01*
X9567231Y-9523619D02*
X9574374Y-9516476D01*
X9574374Y-9516476D02*
X9588660Y-9509333D01*
X9702946Y-9645047D02*
X9710088Y-9652190D01*
X9710088Y-9652190D02*
X9702946Y-9659333D01*
X9702946Y-9659333D02*
X9695803Y-9652190D01*
X9695803Y-9652190D02*
X9702946Y-9645047D01*
X9702946Y-9645047D02*
X9702946Y-9659333D01*
X9767231Y-9523619D02*
X9774374Y-9516476D01*
X9774374Y-9516476D02*
X9788660Y-9509333D01*
X9788660Y-9509333D02*
X9824374Y-9509333D01*
X9824374Y-9509333D02*
X9838660Y-9516476D01*
X9838660Y-9516476D02*
X9845803Y-9523619D01*
X9845803Y-9523619D02*
X9852946Y-9537904D01*
X9852946Y-9537904D02*
X9852946Y-9552190D01*
X9852946Y-9552190D02*
X9845803Y-9573619D01*
X9845803Y-9573619D02*
X9760088Y-9659333D01*
X9760088Y-9659333D02*
X9852946Y-9659333D01*
D10*
D11*
X7700220Y-9150720D02*
X18500220Y-9150720D01*
D10*
D12*
X16441385Y-9378553D02*
X16391385Y-9307124D01*
X16355671Y-9378553D02*
X16355671Y-9228553D01*
X16355671Y-9228553D02*
X16412814Y-9228553D01*
X16412814Y-9228553D02*
X16427100Y-9235696D01*
X16427100Y-9235696D02*
X16434242Y-9242839D01*
X16434242Y-9242839D02*
X16441385Y-9257124D01*
X16441385Y-9257124D02*
X16441385Y-9278553D01*
X16441385Y-9278553D02*
X16434242Y-9292839D01*
X16434242Y-9292839D02*
X16427100Y-9299981D01*
X16427100Y-9299981D02*
X16412814Y-9307124D01*
X16412814Y-9307124D02*
X16355671Y-9307124D01*
X16562814Y-9371410D02*
X16548528Y-9378553D01*
X16548528Y-9378553D02*
X16519957Y-9378553D01*
X16519957Y-9378553D02*
X16505671Y-9371410D01*
X16505671Y-9371410D02*
X16498528Y-9357124D01*
X16498528Y-9357124D02*
X16498528Y-9299981D01*
X16498528Y-9299981D02*
X16505671Y-9285696D01*
X16505671Y-9285696D02*
X16519957Y-9278553D01*
X16519957Y-9278553D02*
X16548528Y-9278553D01*
X16548528Y-9278553D02*
X16562814Y-9285696D01*
X16562814Y-9285696D02*
X16569957Y-9299981D01*
X16569957Y-9299981D02*
X16569957Y-9314267D01*
X16569957Y-9314267D02*
X16498528Y-9328553D01*
X16619957Y-9278553D02*
X16655671Y-9378553D01*
X16655671Y-9378553D02*
X16691385Y-9278553D01*
X16748528Y-9364267D02*
X16755671Y-9371410D01*
X16755671Y-9371410D02*
X16748528Y-9378553D01*
X16748528Y-9378553D02*
X16741385Y-9371410D01*
X16741385Y-9371410D02*
X16748528Y-9364267D01*
X16748528Y-9364267D02*
X16748528Y-9378553D01*
X16748528Y-9285696D02*
X16755671Y-9292839D01*
X16755671Y-9292839D02*
X16748528Y-9299981D01*
X16748528Y-9299981D02*
X16741385Y-9292839D01*
X16741385Y-9292839D02*
X16748528Y-9285696D01*
X16748528Y-9285696D02*
X16748528Y-9299981D01*
D10*
D11*
X7838660Y-9372190D02*
X7860088Y-9379333D01*
X7860088Y-9379333D02*
X7895803Y-9379333D01*
X7895803Y-9379333D02*
X7910088Y-9372190D01*
X7910088Y-9372190D02*
X7917231Y-9365047D01*
X7917231Y-9365047D02*
X7924374Y-9350761D01*
X7924374Y-9350761D02*
X7924374Y-9336476D01*
X7924374Y-9336476D02*
X7917231Y-9322190D01*
X7917231Y-9322190D02*
X7910088Y-9315047D01*
X7910088Y-9315047D02*
X7895803Y-9307904D01*
X7895803Y-9307904D02*
X7867231Y-9300761D01*
X7867231Y-9300761D02*
X7852945Y-9293619D01*
X7852945Y-9293619D02*
X7845803Y-9286476D01*
X7845803Y-9286476D02*
X7838660Y-9272190D01*
X7838660Y-9272190D02*
X7838660Y-9257904D01*
X7838660Y-9257904D02*
X7845803Y-9243619D01*
X7845803Y-9243619D02*
X7852945Y-9236476D01*
X7852945Y-9236476D02*
X7867231Y-9229333D01*
X7867231Y-9229333D02*
X7902945Y-9229333D01*
X7902945Y-9229333D02*
X7924374Y-9236476D01*
X7988660Y-9379333D02*
X7988660Y-9279333D01*
X7988660Y-9229333D02*
X7981517Y-9236476D01*
X7981517Y-9236476D02*
X7988660Y-9243619D01*
X7988660Y-9243619D02*
X7995803Y-9236476D01*
X7995803Y-9236476D02*
X7988660Y-9229333D01*
X7988660Y-9229333D02*
X7988660Y-9243619D01*
X8045803Y-9279333D02*
X8124374Y-9279333D01*
X8124374Y-9279333D02*
X8045803Y-9379333D01*
X8045803Y-9379333D02*
X8124374Y-9379333D01*
X8238660Y-9372190D02*
X8224374Y-9379333D01*
X8224374Y-9379333D02*
X8195803Y-9379333D01*
X8195803Y-9379333D02*
X8181517Y-9372190D01*
X8181517Y-9372190D02*
X8174374Y-9357904D01*
X8174374Y-9357904D02*
X8174374Y-9300761D01*
X8174374Y-9300761D02*
X8181517Y-9286476D01*
X8181517Y-9286476D02*
X8195803Y-9279333D01*
X8195803Y-9279333D02*
X8224374Y-9279333D01*
X8224374Y-9279333D02*
X8238660Y-9286476D01*
X8238660Y-9286476D02*
X8245803Y-9300761D01*
X8245803Y-9300761D02*
X8245803Y-9315047D01*
X8245803Y-9315047D02*
X8174374Y-9329333D01*
X8310088Y-9365047D02*
X8317231Y-9372190D01*
X8317231Y-9372190D02*
X8310088Y-9379333D01*
X8310088Y-9379333D02*
X8302945Y-9372190D01*
X8302945Y-9372190D02*
X8310088Y-9365047D01*
X8310088Y-9365047D02*
X8310088Y-9379333D01*
X8310088Y-9286476D02*
X8317231Y-9293619D01*
X8317231Y-9293619D02*
X8310088Y-9300761D01*
X8310088Y-9300761D02*
X8302945Y-9293619D01*
X8302945Y-9293619D02*
X8310088Y-9286476D01*
X8310088Y-9286476D02*
X8310088Y-9300761D01*
X8488660Y-9336476D02*
X8560088Y-9336476D01*
X8474374Y-9379333D02*
X8524374Y-9229333D01*
X8524374Y-9229333D02*
X8574374Y-9379333D01*
X8688660Y-9279333D02*
X8688660Y-9379333D01*
X8652946Y-9222190D02*
X8617231Y-9329333D01*
X8617231Y-9329333D02*
X8710088Y-9329333D01*
D10*
D11*
X16345803Y-9659333D02*
X16345803Y-9509333D01*
X16481517Y-9659333D02*
X16481517Y-9509333D01*
X16481517Y-9652190D02*
X16467231Y-9659333D01*
X16467231Y-9659333D02*
X16438660Y-9659333D01*
X16438660Y-9659333D02*
X16424374Y-9652190D01*
X16424374Y-9652190D02*
X16417231Y-9645047D01*
X16417231Y-9645047D02*
X16410088Y-9630761D01*
X16410088Y-9630761D02*
X16410088Y-9587904D01*
X16410088Y-9587904D02*
X16417231Y-9573619D01*
X16417231Y-9573619D02*
X16424374Y-9566476D01*
X16424374Y-9566476D02*
X16438660Y-9559333D01*
X16438660Y-9559333D02*
X16467231Y-9559333D01*
X16467231Y-9559333D02*
X16481517Y-9566476D01*
X16552945Y-9645047D02*
X16560088Y-9652190D01*
X16560088Y-9652190D02*
X16552945Y-9659333D01*
X16552945Y-9659333D02*
X16545803Y-9652190D01*
X16545803Y-9652190D02*
X16552945Y-9645047D01*
X16552945Y-9645047D02*
X16552945Y-9659333D01*
X16552945Y-9566476D02*
X16560088Y-9573619D01*
X16560088Y-9573619D02*
X16552945Y-9580761D01*
X16552945Y-9580761D02*
X16545803Y-9573619D01*
X16545803Y-9573619D02*
X16552945Y-9566476D01*
X16552945Y-9566476D02*
X16552945Y-9580761D01*
X16745803Y-9659333D02*
X16774374Y-9659333D01*
X16774374Y-9659333D02*
X16788660Y-9652190D01*
X16788660Y-9652190D02*
X16795803Y-9645047D01*
X16795803Y-9645047D02*
X16810088Y-9623619D01*
X16810088Y-9623619D02*
X16817231Y-9595047D01*
X16817231Y-9595047D02*
X16817231Y-9537904D01*
X16817231Y-9537904D02*
X16810088Y-9523619D01*
X16810088Y-9523619D02*
X16802946Y-9516476D01*
X16802946Y-9516476D02*
X16788660Y-9509333D01*
X16788660Y-9509333D02*
X16760088Y-9509333D01*
X16760088Y-9509333D02*
X16745803Y-9516476D01*
X16745803Y-9516476D02*
X16738660Y-9523619D01*
X16738660Y-9523619D02*
X16731517Y-9537904D01*
X16731517Y-9537904D02*
X16731517Y-9573619D01*
X16731517Y-9573619D02*
X16738660Y-9587904D01*
X16738660Y-9587904D02*
X16745803Y-9595047D01*
X16745803Y-9595047D02*
X16760088Y-9602190D01*
X16760088Y-9602190D02*
X16788660Y-9602190D01*
X16788660Y-9602190D02*
X16802946Y-9595047D01*
X16802946Y-9595047D02*
X16810088Y-9587904D01*
X16810088Y-9587904D02*
X16817231Y-9573619D01*
X16988660Y-9502190D02*
X16860088Y-9695047D01*
X17117231Y-9659333D02*
X17031517Y-9659333D01*
X17074374Y-9659333D02*
X17074374Y-9509333D01*
X17074374Y-9509333D02*
X17060088Y-9530761D01*
X17060088Y-9530761D02*
X17045803Y-9545047D01*
X17045803Y-9545047D02*
X17031517Y-9552190D01*
X17260088Y-9659333D02*
X17174374Y-9659333D01*
X17217231Y-9659333D02*
X17217231Y-9509333D01*
X17217231Y-9509333D02*
X17202946Y-9530761D01*
X17202946Y-9530761D02*
X17188660Y-9545047D01*
X17188660Y-9545047D02*
X17174374Y-9552190D01*
D10*
D11*
X7700220Y-8750720D02*
X18500220Y-8750720D01*
D10*
D13*
X7869393Y-8821164D02*
X7983678Y-8821164D01*
X7901536Y-9021164D02*
X7926536Y-8821164D01*
X8025345Y-9021164D02*
X8042012Y-8887830D01*
X8050345Y-8821164D02*
X8039631Y-8830688D01*
X8039631Y-8830688D02*
X8047964Y-8840211D01*
X8047964Y-8840211D02*
X8058679Y-8830688D01*
X8058679Y-8830688D02*
X8050345Y-8821164D01*
X8050345Y-8821164D02*
X8047964Y-8840211D01*
X8108679Y-8887830D02*
X8184869Y-8887830D01*
X8145583Y-8821164D02*
X8124155Y-8992592D01*
X8124155Y-8992592D02*
X8131298Y-9011640D01*
X8131298Y-9011640D02*
X8149155Y-9021164D01*
X8149155Y-9021164D02*
X8168202Y-9021164D01*
X8263440Y-9021164D02*
X8245583Y-9011640D01*
X8245583Y-9011640D02*
X8238440Y-8992592D01*
X8238440Y-8992592D02*
X8259869Y-8821164D01*
X8417012Y-9011640D02*
X8396774Y-9021164D01*
X8396774Y-9021164D02*
X8358678Y-9021164D01*
X8358678Y-9021164D02*
X8340821Y-9011640D01*
X8340821Y-9011640D02*
X8333678Y-8992592D01*
X8333678Y-8992592D02*
X8343202Y-8916402D01*
X8343202Y-8916402D02*
X8355107Y-8897354D01*
X8355107Y-8897354D02*
X8375345Y-8887830D01*
X8375345Y-8887830D02*
X8413440Y-8887830D01*
X8413440Y-8887830D02*
X8431298Y-8897354D01*
X8431298Y-8897354D02*
X8438440Y-8916402D01*
X8438440Y-8916402D02*
X8436060Y-8935450D01*
X8436060Y-8935450D02*
X8338440Y-8954497D01*
X8513441Y-9002116D02*
X8521774Y-9011640D01*
X8521774Y-9011640D02*
X8511060Y-9021164D01*
X8511060Y-9021164D02*
X8502726Y-9011640D01*
X8502726Y-9011640D02*
X8513441Y-9002116D01*
X8513441Y-9002116D02*
X8511060Y-9021164D01*
X8526536Y-8897354D02*
X8534869Y-8906878D01*
X8534869Y-8906878D02*
X8524155Y-8916402D01*
X8524155Y-8916402D02*
X8515821Y-8906878D01*
X8515821Y-8906878D02*
X8526536Y-8897354D01*
X8526536Y-8897354D02*
X8524155Y-8916402D01*
D10*
D11*
X7895803Y-8560761D02*
X7845803Y-8560761D01*
X7845803Y-8639333D02*
X7845803Y-8489333D01*
X7845803Y-8489333D02*
X7917231Y-8489333D01*
X7974374Y-8639333D02*
X7974374Y-8539333D01*
X7974374Y-8489333D02*
X7967231Y-8496476D01*
X7967231Y-8496476D02*
X7974374Y-8503619D01*
X7974374Y-8503619D02*
X7981517Y-8496476D01*
X7981517Y-8496476D02*
X7974374Y-8489333D01*
X7974374Y-8489333D02*
X7974374Y-8503619D01*
X8067231Y-8639333D02*
X8052945Y-8632190D01*
X8052945Y-8632190D02*
X8045803Y-8617904D01*
X8045803Y-8617904D02*
X8045803Y-8489333D01*
X8181517Y-8632190D02*
X8167231Y-8639333D01*
X8167231Y-8639333D02*
X8138660Y-8639333D01*
X8138660Y-8639333D02*
X8124374Y-8632190D01*
X8124374Y-8632190D02*
X8117231Y-8617904D01*
X8117231Y-8617904D02*
X8117231Y-8560761D01*
X8117231Y-8560761D02*
X8124374Y-8546476D01*
X8124374Y-8546476D02*
X8138660Y-8539333D01*
X8138660Y-8539333D02*
X8167231Y-8539333D01*
X8167231Y-8539333D02*
X8181517Y-8546476D01*
X8181517Y-8546476D02*
X8188660Y-8560761D01*
X8188660Y-8560761D02*
X8188660Y-8575047D01*
X8188660Y-8575047D02*
X8117231Y-8589333D01*
X8252945Y-8625047D02*
X8260088Y-8632190D01*
X8260088Y-8632190D02*
X8252945Y-8639333D01*
X8252945Y-8639333D02*
X8245803Y-8632190D01*
X8245803Y-8632190D02*
X8252945Y-8625047D01*
X8252945Y-8625047D02*
X8252945Y-8639333D01*
X8252945Y-8546476D02*
X8260088Y-8553619D01*
X8260088Y-8553619D02*
X8252945Y-8560761D01*
X8252945Y-8560761D02*
X8245803Y-8553619D01*
X8245803Y-8553619D02*
X8252945Y-8546476D01*
X8252945Y-8546476D02*
X8252945Y-8560761D01*
X8424374Y-8539333D02*
X8460088Y-8639333D01*
X8460088Y-8639333D02*
X8495803Y-8539333D01*
X8574374Y-8639333D02*
X8560088Y-8632190D01*
X8560088Y-8632190D02*
X8552945Y-8625047D01*
X8552945Y-8625047D02*
X8545803Y-8610761D01*
X8545803Y-8610761D02*
X8545803Y-8567904D01*
X8545803Y-8567904D02*
X8552945Y-8553619D01*
X8552945Y-8553619D02*
X8560088Y-8546476D01*
X8560088Y-8546476D02*
X8574374Y-8539333D01*
X8574374Y-8539333D02*
X8595803Y-8539333D01*
X8595803Y-8539333D02*
X8610088Y-8546476D01*
X8610088Y-8546476D02*
X8617231Y-8553619D01*
X8617231Y-8553619D02*
X8624374Y-8567904D01*
X8624374Y-8567904D02*
X8624374Y-8610761D01*
X8624374Y-8610761D02*
X8617231Y-8625047D01*
X8617231Y-8625047D02*
X8610088Y-8632190D01*
X8610088Y-8632190D02*
X8595803Y-8639333D01*
X8595803Y-8639333D02*
X8574374Y-8639333D01*
X8688660Y-8639333D02*
X8688660Y-8539333D01*
X8688660Y-8489333D02*
X8681517Y-8496476D01*
X8681517Y-8496476D02*
X8688660Y-8503619D01*
X8688660Y-8503619D02*
X8695803Y-8496476D01*
X8695803Y-8496476D02*
X8688660Y-8489333D01*
X8688660Y-8489333D02*
X8688660Y-8503619D01*
X8824374Y-8632190D02*
X8810088Y-8639333D01*
X8810088Y-8639333D02*
X8781517Y-8639333D01*
X8781517Y-8639333D02*
X8767231Y-8632190D01*
X8767231Y-8632190D02*
X8760088Y-8625047D01*
X8760088Y-8625047D02*
X8752946Y-8610761D01*
X8752946Y-8610761D02*
X8752946Y-8567904D01*
X8752946Y-8567904D02*
X8760088Y-8553619D01*
X8760088Y-8553619D02*
X8767231Y-8546476D01*
X8767231Y-8546476D02*
X8781517Y-8539333D01*
X8781517Y-8539333D02*
X8810088Y-8539333D01*
X8810088Y-8539333D02*
X8824374Y-8546476D01*
X8945803Y-8632190D02*
X8931517Y-8639333D01*
X8931517Y-8639333D02*
X8902946Y-8639333D01*
X8902946Y-8639333D02*
X8888660Y-8632190D01*
X8888660Y-8632190D02*
X8881517Y-8617904D01*
X8881517Y-8617904D02*
X8881517Y-8560761D01*
X8881517Y-8560761D02*
X8888660Y-8546476D01*
X8888660Y-8546476D02*
X8902946Y-8539333D01*
X8902946Y-8539333D02*
X8931517Y-8539333D01*
X8931517Y-8539333D02*
X8945803Y-8546476D01*
X8945803Y-8546476D02*
X8952946Y-8560761D01*
X8952946Y-8560761D02*
X8952946Y-8575047D01*
X8952946Y-8575047D02*
X8881517Y-8589333D01*
X9017231Y-8639333D02*
X9017231Y-8539333D01*
X9017231Y-8553619D02*
X9024374Y-8546476D01*
X9024374Y-8546476D02*
X9038660Y-8539333D01*
X9038660Y-8539333D02*
X9060088Y-8539333D01*
X9060088Y-8539333D02*
X9074374Y-8546476D01*
X9074374Y-8546476D02*
X9081517Y-8560761D01*
X9081517Y-8560761D02*
X9081517Y-8639333D01*
X9081517Y-8560761D02*
X9088660Y-8546476D01*
X9088660Y-8546476D02*
X9102945Y-8539333D01*
X9102945Y-8539333D02*
X9124374Y-8539333D01*
X9124374Y-8539333D02*
X9138660Y-8546476D01*
X9138660Y-8546476D02*
X9145803Y-8560761D01*
X9145803Y-8560761D02*
X9145803Y-8639333D01*
X9281517Y-8639333D02*
X9281517Y-8560761D01*
X9281517Y-8560761D02*
X9274374Y-8546476D01*
X9274374Y-8546476D02*
X9260088Y-8539333D01*
X9260088Y-8539333D02*
X9231517Y-8539333D01*
X9231517Y-8539333D02*
X9217231Y-8546476D01*
X9281517Y-8632190D02*
X9267231Y-8639333D01*
X9267231Y-8639333D02*
X9231517Y-8639333D01*
X9231517Y-8639333D02*
X9217231Y-8632190D01*
X9217231Y-8632190D02*
X9210088Y-8617904D01*
X9210088Y-8617904D02*
X9210088Y-8603619D01*
X9210088Y-8603619D02*
X9217231Y-8589333D01*
X9217231Y-8589333D02*
X9231517Y-8582190D01*
X9231517Y-8582190D02*
X9267231Y-8582190D01*
X9267231Y-8582190D02*
X9281517Y-8575047D01*
X9352945Y-8639333D02*
X9352945Y-8539333D01*
X9352945Y-8489333D02*
X9345803Y-8496476D01*
X9345803Y-8496476D02*
X9352945Y-8503619D01*
X9352945Y-8503619D02*
X9360088Y-8496476D01*
X9360088Y-8496476D02*
X9352945Y-8489333D01*
X9352945Y-8489333D02*
X9352945Y-8503619D01*
X9445803Y-8639333D02*
X9431517Y-8632190D01*
X9431517Y-8632190D02*
X9424374Y-8617904D01*
X9424374Y-8617904D02*
X9424374Y-8489333D01*
X9502945Y-8582190D02*
X9617231Y-8582190D01*
X9688660Y-8639333D02*
X9688660Y-8489333D01*
X9688660Y-8546476D02*
X9702946Y-8539333D01*
X9702946Y-8539333D02*
X9731517Y-8539333D01*
X9731517Y-8539333D02*
X9745803Y-8546476D01*
X9745803Y-8546476D02*
X9752946Y-8553619D01*
X9752946Y-8553619D02*
X9760088Y-8567904D01*
X9760088Y-8567904D02*
X9760088Y-8610761D01*
X9760088Y-8610761D02*
X9752946Y-8625047D01*
X9752946Y-8625047D02*
X9745803Y-8632190D01*
X9745803Y-8632190D02*
X9731517Y-8639333D01*
X9731517Y-8639333D02*
X9702946Y-8639333D01*
X9702946Y-8639333D02*
X9688660Y-8632190D01*
X9845803Y-8639333D02*
X9831517Y-8632190D01*
X9831517Y-8632190D02*
X9824374Y-8625047D01*
X9824374Y-8625047D02*
X9817231Y-8610761D01*
X9817231Y-8610761D02*
X9817231Y-8567904D01*
X9817231Y-8567904D02*
X9824374Y-8553619D01*
X9824374Y-8553619D02*
X9831517Y-8546476D01*
X9831517Y-8546476D02*
X9845803Y-8539333D01*
X9845803Y-8539333D02*
X9867231Y-8539333D01*
X9867231Y-8539333D02*
X9881517Y-8546476D01*
X9881517Y-8546476D02*
X9888660Y-8553619D01*
X9888660Y-8553619D02*
X9895803Y-8567904D01*
X9895803Y-8567904D02*
X9895803Y-8610761D01*
X9895803Y-8610761D02*
X9888660Y-8625047D01*
X9888660Y-8625047D02*
X9881517Y-8632190D01*
X9881517Y-8632190D02*
X9867231Y-8639333D01*
X9867231Y-8639333D02*
X9845803Y-8639333D01*
X9945803Y-8639333D02*
X10024374Y-8539333D01*
X9945803Y-8539333D02*
X10024374Y-8639333D01*
X10081517Y-8625047D02*
X10088660Y-8632190D01*
X10088660Y-8632190D02*
X10081517Y-8639333D01*
X10081517Y-8639333D02*
X10074374Y-8632190D01*
X10074374Y-8632190D02*
X10081517Y-8625047D01*
X10081517Y-8625047D02*
X10081517Y-8639333D01*
X10152946Y-8639333D02*
X10152946Y-8489333D01*
X10167231Y-8582190D02*
X10210088Y-8639333D01*
X10210088Y-8539333D02*
X10152946Y-8596476D01*
X10274374Y-8639333D02*
X10274374Y-8539333D01*
X10274374Y-8489333D02*
X10267231Y-8496476D01*
X10267231Y-8496476D02*
X10274374Y-8503619D01*
X10274374Y-8503619D02*
X10281517Y-8496476D01*
X10281517Y-8496476D02*
X10274374Y-8489333D01*
X10274374Y-8489333D02*
X10274374Y-8503619D01*
X10410089Y-8632190D02*
X10395803Y-8639333D01*
X10395803Y-8639333D02*
X10367231Y-8639333D01*
X10367231Y-8639333D02*
X10352946Y-8632190D01*
X10352946Y-8632190D02*
X10345803Y-8625047D01*
X10345803Y-8625047D02*
X10338660Y-8610761D01*
X10338660Y-8610761D02*
X10338660Y-8567904D01*
X10338660Y-8567904D02*
X10345803Y-8553619D01*
X10345803Y-8553619D02*
X10352946Y-8546476D01*
X10352946Y-8546476D02*
X10367231Y-8539333D01*
X10367231Y-8539333D02*
X10395803Y-8539333D01*
X10395803Y-8539333D02*
X10410089Y-8546476D01*
X10538660Y-8639333D02*
X10538660Y-8560761D01*
X10538660Y-8560761D02*
X10531517Y-8546476D01*
X10531517Y-8546476D02*
X10517231Y-8539333D01*
X10517231Y-8539333D02*
X10488660Y-8539333D01*
X10488660Y-8539333D02*
X10474374Y-8546476D01*
X10538660Y-8632190D02*
X10524374Y-8639333D01*
X10524374Y-8639333D02*
X10488660Y-8639333D01*
X10488660Y-8639333D02*
X10474374Y-8632190D01*
X10474374Y-8632190D02*
X10467231Y-8617904D01*
X10467231Y-8617904D02*
X10467231Y-8603619D01*
X10467231Y-8603619D02*
X10474374Y-8589333D01*
X10474374Y-8589333D02*
X10488660Y-8582190D01*
X10488660Y-8582190D02*
X10524374Y-8582190D01*
X10524374Y-8582190D02*
X10538660Y-8575047D01*
X10674374Y-8639333D02*
X10674374Y-8489333D01*
X10674374Y-8632190D02*
X10660088Y-8639333D01*
X10660088Y-8639333D02*
X10631517Y-8639333D01*
X10631517Y-8639333D02*
X10617231Y-8632190D01*
X10617231Y-8632190D02*
X10610088Y-8625047D01*
X10610088Y-8625047D02*
X10602946Y-8610761D01*
X10602946Y-8610761D02*
X10602946Y-8567904D01*
X10602946Y-8567904D02*
X10610088Y-8553619D01*
X10610088Y-8553619D02*
X10617231Y-8546476D01*
X10617231Y-8546476D02*
X10631517Y-8539333D01*
X10631517Y-8539333D02*
X10660088Y-8539333D01*
X10660088Y-8539333D02*
X10674374Y-8546476D01*
X10710089Y-8653619D02*
X10824374Y-8653619D01*
X10860088Y-8539333D02*
X10860088Y-8689333D01*
X10860088Y-8546476D02*
X10874374Y-8539333D01*
X10874374Y-8539333D02*
X10902946Y-8539333D01*
X10902946Y-8539333D02*
X10917231Y-8546476D01*
X10917231Y-8546476D02*
X10924374Y-8553619D01*
X10924374Y-8553619D02*
X10931517Y-8567904D01*
X10931517Y-8567904D02*
X10931517Y-8610761D01*
X10931517Y-8610761D02*
X10924374Y-8625047D01*
X10924374Y-8625047D02*
X10917231Y-8632190D01*
X10917231Y-8632190D02*
X10902946Y-8639333D01*
X10902946Y-8639333D02*
X10874374Y-8639333D01*
X10874374Y-8639333D02*
X10860088Y-8632190D01*
X11060089Y-8632190D02*
X11045803Y-8639333D01*
X11045803Y-8639333D02*
X11017231Y-8639333D01*
X11017231Y-8639333D02*
X11002946Y-8632190D01*
X11002946Y-8632190D02*
X10995803Y-8625047D01*
X10995803Y-8625047D02*
X10988660Y-8610761D01*
X10988660Y-8610761D02*
X10988660Y-8567904D01*
X10988660Y-8567904D02*
X10995803Y-8553619D01*
X10995803Y-8553619D02*
X11002946Y-8546476D01*
X11002946Y-8546476D02*
X11017231Y-8539333D01*
X11017231Y-8539333D02*
X11045803Y-8539333D01*
X11045803Y-8539333D02*
X11060089Y-8546476D01*
X11124374Y-8639333D02*
X11124374Y-8489333D01*
X11124374Y-8546476D02*
X11138660Y-8539333D01*
X11138660Y-8539333D02*
X11167231Y-8539333D01*
X11167231Y-8539333D02*
X11181517Y-8546476D01*
X11181517Y-8546476D02*
X11188660Y-8553619D01*
X11188660Y-8553619D02*
X11195803Y-8567904D01*
X11195803Y-8567904D02*
X11195803Y-8610761D01*
X11195803Y-8610761D02*
X11188660Y-8625047D01*
X11188660Y-8625047D02*
X11181517Y-8632190D01*
X11181517Y-8632190D02*
X11167231Y-8639333D01*
X11167231Y-8639333D02*
X11138660Y-8639333D01*
X11138660Y-8639333D02*
X11124374Y-8632190D01*
D10*
D11*
X7700220Y-8150720D02*
X18500220Y-8150720D01*
D10*
D11*
X7838660Y-8362190D02*
X7860088Y-8369333D01*
X7860088Y-8369333D02*
X7895803Y-8369333D01*
X7895803Y-8369333D02*
X7910088Y-8362190D01*
X7910088Y-8362190D02*
X7917231Y-8355047D01*
X7917231Y-8355047D02*
X7924374Y-8340761D01*
X7924374Y-8340761D02*
X7924374Y-8326476D01*
X7924374Y-8326476D02*
X7917231Y-8312190D01*
X7917231Y-8312190D02*
X7910088Y-8305047D01*
X7910088Y-8305047D02*
X7895803Y-8297904D01*
X7895803Y-8297904D02*
X7867231Y-8290761D01*
X7867231Y-8290761D02*
X7852945Y-8283618D01*
X7852945Y-8283618D02*
X7845803Y-8276476D01*
X7845803Y-8276476D02*
X7838660Y-8262190D01*
X7838660Y-8262190D02*
X7838660Y-8247904D01*
X7838660Y-8247904D02*
X7845803Y-8233618D01*
X7845803Y-8233618D02*
X7852945Y-8226476D01*
X7852945Y-8226476D02*
X7867231Y-8219333D01*
X7867231Y-8219333D02*
X7902945Y-8219333D01*
X7902945Y-8219333D02*
X7924374Y-8226476D01*
X7988660Y-8369333D02*
X7988660Y-8219333D01*
X8052945Y-8369333D02*
X8052945Y-8290761D01*
X8052945Y-8290761D02*
X8045803Y-8276476D01*
X8045803Y-8276476D02*
X8031517Y-8269333D01*
X8031517Y-8269333D02*
X8010088Y-8269333D01*
X8010088Y-8269333D02*
X7995803Y-8276476D01*
X7995803Y-8276476D02*
X7988660Y-8283618D01*
X8181517Y-8362190D02*
X8167231Y-8369333D01*
X8167231Y-8369333D02*
X8138660Y-8369333D01*
X8138660Y-8369333D02*
X8124374Y-8362190D01*
X8124374Y-8362190D02*
X8117231Y-8347904D01*
X8117231Y-8347904D02*
X8117231Y-8290761D01*
X8117231Y-8290761D02*
X8124374Y-8276476D01*
X8124374Y-8276476D02*
X8138660Y-8269333D01*
X8138660Y-8269333D02*
X8167231Y-8269333D01*
X8167231Y-8269333D02*
X8181517Y-8276476D01*
X8181517Y-8276476D02*
X8188660Y-8290761D01*
X8188660Y-8290761D02*
X8188660Y-8305047D01*
X8188660Y-8305047D02*
X8117231Y-8319333D01*
X8310088Y-8362190D02*
X8295803Y-8369333D01*
X8295803Y-8369333D02*
X8267231Y-8369333D01*
X8267231Y-8369333D02*
X8252945Y-8362190D01*
X8252945Y-8362190D02*
X8245803Y-8347904D01*
X8245803Y-8347904D02*
X8245803Y-8290761D01*
X8245803Y-8290761D02*
X8252945Y-8276476D01*
X8252945Y-8276476D02*
X8267231Y-8269333D01*
X8267231Y-8269333D02*
X8295803Y-8269333D01*
X8295803Y-8269333D02*
X8310088Y-8276476D01*
X8310088Y-8276476D02*
X8317231Y-8290761D01*
X8317231Y-8290761D02*
X8317231Y-8305047D01*
X8317231Y-8305047D02*
X8245803Y-8319333D01*
X8360088Y-8269333D02*
X8417231Y-8269333D01*
X8381517Y-8219333D02*
X8381517Y-8347904D01*
X8381517Y-8347904D02*
X8388660Y-8362190D01*
X8388660Y-8362190D02*
X8402945Y-8369333D01*
X8402945Y-8369333D02*
X8417231Y-8369333D01*
X8467231Y-8355047D02*
X8474374Y-8362190D01*
X8474374Y-8362190D02*
X8467231Y-8369333D01*
X8467231Y-8369333D02*
X8460088Y-8362190D01*
X8460088Y-8362190D02*
X8467231Y-8355047D01*
X8467231Y-8355047D02*
X8467231Y-8369333D01*
X8467231Y-8276476D02*
X8474374Y-8283618D01*
X8474374Y-8283618D02*
X8467231Y-8290761D01*
X8467231Y-8290761D02*
X8460088Y-8283618D01*
X8460088Y-8283618D02*
X8467231Y-8276476D01*
X8467231Y-8276476D02*
X8467231Y-8290761D01*
D10*
D11*
X9700220Y-9150720D02*
X9700220Y-9450720D01*
D10*
D11*
X16100220Y-9150720D02*
X16100220Y-9800720D01*
D12*
X11900550Y-816450D02*
G75*
G02*
X11870550Y-816450I-15000J0D01*
G01*
X11870550Y-816450D02*
G75*
G02*
X11900550Y-816450I15000J0D01*
G01*
X11611900Y-944400D02*
G75*
G02*
X11581900Y-944400I-15000J0D01*
G01*
X11581900Y-944400D02*
G75*
G02*
X11611900Y-944400I15000J0D01*
G01*
X11611450Y-692350D02*
G75*
G02*
X11581450Y-692350I-15000J0D01*
G01*
X11581450Y-692350D02*
G75*
G02*
X11611450Y-692350I15000J0D01*
G01*
X11901000Y-1068500D02*
G75*
G02*
X11871000Y-1068500I-15000J0D01*
G01*
X11871000Y-1068500D02*
G75*
G02*
X11901000Y-1068500I15000J0D01*
G01*
G36*
X10599076Y-3678377D02*
G01*
X10613972Y-3687560D01*
X10623155Y-3702456D01*
X10624352Y-3721388D01*
X10619971Y-3734631D01*
X10609636Y-3745079D01*
X10595945Y-3751717D01*
X10581793Y-3753872D01*
X10567382Y-3748429D01*
X10555659Y-3733966D01*
X10550873Y-3717724D01*
X10575320Y-3717724D01*
X10580897Y-3727485D01*
X10588815Y-3730364D01*
X10597852Y-3725418D01*
X10602248Y-3716930D01*
X10599929Y-3706122D01*
X10593761Y-3700566D01*
X10583871Y-3699673D01*
X10577824Y-3704108D01*
X10575320Y-3717724D01*
X10550873Y-3717724D01*
X10550296Y-3715768D01*
X10553461Y-3699284D01*
X10558529Y-3691346D01*
X10566283Y-3681271D01*
X10571596Y-3677363D01*
X10580144Y-3677180D01*
X10599076Y-3678377D01*
G37*
G36*
X11081391Y-3652023D02*
G01*
X11093054Y-3652023D01*
X11093054Y-3667960D01*
X11093054Y-3679806D01*
X11104900Y-3678584D01*
X11119627Y-3678836D01*
X11127248Y-3681821D01*
X11136468Y-3687011D01*
X11139216Y-3692628D01*
X11140559Y-3695315D01*
X11143368Y-3711130D01*
X11140498Y-3733112D01*
X11137812Y-3740134D01*
X11130484Y-3748071D01*
X11121081Y-3752468D01*
X11110762Y-3753872D01*
X11097695Y-3753872D01*
X11097573Y-3751063D01*
X11086093Y-3750941D01*
X11076147Y-3751832D01*
X11072049Y-3748377D01*
X11069863Y-3716070D01*
X11091712Y-3716070D01*
X11095313Y-3724014D01*
X11096596Y-3725784D01*
X11100198Y-3727494D01*
X11109663Y-3730425D01*
X11117417Y-3725662D01*
X11119310Y-3711313D01*
X11112960Y-3702032D01*
X11100909Y-3701135D01*
X11095558Y-3705329D01*
X11091712Y-3716070D01*
X11069863Y-3716070D01*
X11069546Y-3711374D01*
X11069546Y-3662220D01*
X11069546Y-3650313D01*
X11081391Y-3652023D01*
G37*
G36*
X11203049Y-3681162D02*
G01*
X11215725Y-3692689D01*
X11221998Y-3709270D01*
X11220305Y-3730059D01*
X11209130Y-3743675D01*
X11196918Y-3752468D01*
X11185134Y-3753872D01*
X11174448Y-3753872D01*
X11174326Y-3751186D01*
X11172189Y-3751063D01*
X11159671Y-3743553D01*
X11150695Y-3732318D01*
X11148192Y-3731463D01*
X11147093Y-3728898D01*
X11148436Y-3727250D01*
X11145627Y-3720533D01*
X11146627Y-3714427D01*
X11171395Y-3714427D01*
X11176097Y-3726517D01*
X11185927Y-3728959D01*
X11196247Y-3722365D01*
X11197407Y-3712717D01*
X11195453Y-3708504D01*
X11193010Y-3704108D01*
X11186111Y-3699284D01*
X11176648Y-3702111D01*
X11171395Y-3714427D01*
X11146627Y-3714427D01*
X11147887Y-3706733D01*
X11150879Y-3695132D01*
X11160410Y-3682892D01*
X11165533Y-3681393D01*
X11166938Y-3681393D01*
X11168220Y-3680416D01*
X11184828Y-3677180D01*
X11203049Y-3681162D01*
G37*
G36*
X10712890Y-3678829D02*
G01*
X10722571Y-3684860D01*
X10726446Y-3692750D01*
X10726070Y-3698813D01*
X10721439Y-3702520D01*
X10706784Y-3701848D01*
X10693167Y-3701238D01*
X10684497Y-3707161D01*
X10684945Y-3720348D01*
X10688161Y-3726700D01*
X10689382Y-3727555D01*
X10692862Y-3728532D01*
X10701289Y-3729143D01*
X10714111Y-3726883D01*
X10727300Y-3729509D01*
X10724370Y-3739279D01*
X10712768Y-3749476D01*
X10700548Y-3752808D01*
X10686878Y-3751002D01*
X10674481Y-3744688D01*
X10665629Y-3734943D01*
X10661050Y-3723098D01*
X10659645Y-3708260D01*
X10662088Y-3699589D01*
X10665385Y-3693727D01*
X10673859Y-3683926D01*
X10689076Y-3677241D01*
X10712890Y-3678829D01*
G37*
G36*
X10785797Y-3683164D02*
G01*
X10797826Y-3693911D01*
X10798680Y-3696780D01*
X10802039Y-3702642D01*
X10802039Y-3713816D01*
X10800207Y-3720960D01*
X10794555Y-3724138D01*
X10776821Y-3725601D01*
X10757281Y-3724990D01*
X10758502Y-3728654D01*
X10769188Y-3731768D01*
X10780301Y-3728349D01*
X10791109Y-3729143D01*
X10800695Y-3734882D01*
X10791536Y-3742210D01*
X10773551Y-3752541D01*
X10756270Y-3752179D01*
X10737192Y-3740683D01*
X10728155Y-3731707D01*
X10728155Y-3715465D01*
X10732574Y-3699589D01*
X10758502Y-3699589D01*
X10758885Y-3703790D01*
X10767967Y-3706550D01*
X10776210Y-3706367D01*
X10775844Y-3703558D01*
X10772363Y-3698918D01*
X10764670Y-3697208D01*
X10758502Y-3699589D01*
X10732574Y-3699589D01*
X10733865Y-3694949D01*
X10747328Y-3681698D01*
X10766467Y-3676138D01*
X10785797Y-3683164D01*
G37*
G36*
X10556575Y-3654587D02*
G01*
X10557124Y-3662770D01*
X10547232Y-3692506D01*
X10537585Y-3716930D01*
X10535936Y-3723098D01*
X10530502Y-3734394D01*
X10522991Y-3748499D01*
X10511878Y-3752468D01*
X10502841Y-3749171D01*
X10495941Y-3734089D01*
X10484950Y-3707893D01*
X10480554Y-3695926D01*
X10473654Y-3677058D01*
X10468525Y-3655381D01*
X10479699Y-3653427D01*
X10487935Y-3654994D01*
X10491301Y-3658801D01*
X10494110Y-3667288D01*
X10508154Y-3705207D01*
X10512672Y-3714977D01*
X10514199Y-3711191D01*
X10518412Y-3699406D01*
X10522564Y-3688415D01*
X10535387Y-3657152D01*
X10548270Y-3653427D01*
X10556575Y-3654587D01*
G37*
G36*
X11043717Y-3652023D02*
G01*
X11055258Y-3652023D01*
X11055258Y-3693117D01*
X11057123Y-3725861D01*
X11060203Y-3733661D01*
X11064356Y-3742942D01*
X11060936Y-3750941D01*
X11045734Y-3752276D01*
X11036451Y-3747583D01*
X11033481Y-3736835D01*
X11031749Y-3697269D01*
X11033215Y-3650252D01*
X11043717Y-3652023D01*
G37*
G36*
X10652318Y-3714122D02*
G01*
X10652318Y-3751063D01*
X10641999Y-3751063D01*
X10631679Y-3751063D01*
X10630214Y-3718396D01*
X10632717Y-3682004D01*
X10636398Y-3678723D01*
X10643586Y-3678584D01*
X10652318Y-3678584D01*
X10652318Y-3714122D01*
G37*
G36*
X10913658Y-3687927D02*
G01*
X10916772Y-3721144D01*
X10916772Y-3751063D01*
X10906575Y-3751063D01*
X10895156Y-3749781D01*
X10892592Y-3724868D01*
X10889966Y-3701787D01*
X10884351Y-3700321D01*
X10877204Y-3705512D01*
X10873358Y-3729509D01*
X10873358Y-3749659D01*
X10861634Y-3749659D01*
X10848506Y-3749659D01*
X10848506Y-3726700D01*
X10848506Y-3703558D01*
X10846064Y-3701238D01*
X10840629Y-3699284D01*
X10832604Y-3704945D01*
X10828600Y-3730913D01*
X10828600Y-3751063D01*
X10818281Y-3751063D01*
X10806863Y-3748865D01*
X10805092Y-3721205D01*
X10807962Y-3689758D01*
X10812520Y-3679733D01*
X10817853Y-3677180D01*
X10826036Y-3678645D01*
X10827501Y-3678645D01*
X10832142Y-3677180D01*
X10833218Y-3679935D01*
X10846125Y-3677913D01*
X10862550Y-3681637D01*
X10868723Y-3683110D01*
X10876105Y-3680233D01*
X10897859Y-3677021D01*
X10913658Y-3687927D01*
G37*
G36*
X10979115Y-3684751D02*
G01*
X10984713Y-3694203D01*
X10988030Y-3712046D01*
X10992060Y-3736958D01*
X10991999Y-3746667D01*
X10981924Y-3751063D01*
X10971726Y-3749171D01*
X10961712Y-3750941D01*
X10942356Y-3751002D01*
X10932464Y-3751063D01*
X10928251Y-3749415D01*
X10928251Y-3747400D01*
X10928129Y-3746972D01*
X10928007Y-3746850D01*
X10924038Y-3742393D01*
X10921229Y-3731097D01*
X10921229Y-3727860D01*
X10944738Y-3727860D01*
X10950416Y-3733295D01*
X10959942Y-3732074D01*
X10964582Y-3725540D01*
X10961957Y-3721632D01*
X10948768Y-3722121D01*
X10944738Y-3727860D01*
X10921229Y-3727860D01*
X10921229Y-3721327D01*
X10922634Y-3720655D01*
X10924038Y-3719495D01*
X10931613Y-3709351D01*
X10952553Y-3705146D01*
X10964582Y-3702948D01*
X10959331Y-3698429D01*
X10948890Y-3699284D01*
X10942417Y-3699284D01*
X10942295Y-3699040D01*
X10934545Y-3701052D01*
X10928618Y-3697025D01*
X10927158Y-3688113D01*
X10937838Y-3680111D01*
X10961230Y-3676244D01*
X10979115Y-3684751D01*
G37*
G36*
X11020270Y-3715465D02*
G01*
X11021735Y-3751063D01*
X11009950Y-3751063D01*
X10998166Y-3751063D01*
X10998166Y-3718335D01*
X10998166Y-3684507D01*
X11001852Y-3679371D01*
X11010134Y-3678584D01*
X11020270Y-3678584D01*
X11020270Y-3715465D01*
G37*
G36*
X11240516Y-3677974D02*
G01*
X11247293Y-3680721D01*
X11249492Y-3684263D01*
X11252850Y-3690613D01*
X11257368Y-3695376D01*
X11261398Y-3688171D01*
X11267138Y-3679500D01*
X11277274Y-3678584D01*
X11289303Y-3681637D01*
X11284296Y-3692811D01*
X11273183Y-3708138D01*
X11269581Y-3715404D01*
X11278740Y-3729814D01*
X11290280Y-3748377D01*
X11278556Y-3751063D01*
X11266955Y-3749354D01*
X11259994Y-3738729D01*
X11257002Y-3730730D01*
X11254804Y-3733600D01*
X11248148Y-3744286D01*
X11243112Y-3749136D01*
X11232700Y-3751063D01*
X11220610Y-3748438D01*
X11230135Y-3730791D01*
X11237402Y-3713511D01*
X11237402Y-3711740D01*
X11232089Y-3699711D01*
X11225373Y-3691773D01*
X11220903Y-3685046D01*
X11222014Y-3681149D01*
X11226411Y-3678096D01*
X11233738Y-3677180D01*
X11240516Y-3677974D01*
G37*
G36*
X11018010Y-3650924D02*
G01*
X11023726Y-3658786D01*
X11021430Y-3670341D01*
X11010622Y-3675531D01*
X10999814Y-3670280D01*
X10997854Y-3659931D01*
X11001463Y-3652695D01*
X11008788Y-3648085D01*
X11018010Y-3650924D01*
G37*
G36*
X10653478Y-3655809D02*
G01*
X10653417Y-3668998D01*
X10646201Y-3674511D01*
X10638518Y-3674066D01*
X10632424Y-3668983D01*
X10630214Y-3659533D01*
X10635587Y-3652206D01*
X10645779Y-3649892D01*
X10653478Y-3655809D01*
G37*
G36*
X10909400Y-3115366D02*
G01*
X10913963Y-3118169D01*
X10923000Y-3122871D01*
X10932953Y-3127389D01*
X10938815Y-3131664D01*
X10951393Y-3137159D01*
X11000407Y-3146474D01*
X11037611Y-3164148D01*
X11067348Y-3192419D01*
X11086695Y-3220034D01*
X11094214Y-3237482D01*
X11095802Y-3240474D01*
X11099954Y-3260318D01*
X11102824Y-3284621D01*
X11102824Y-3289872D01*
X11113570Y-3291093D01*
X11142694Y-3295562D01*
X11164984Y-3308190D01*
X11173105Y-3313441D01*
X11177044Y-3314254D01*
X11185011Y-3324127D01*
X11189164Y-3329683D01*
X11190629Y-3331943D01*
X11193560Y-3338354D01*
X11197773Y-3346658D01*
X11204917Y-3382562D01*
X11201467Y-3411972D01*
X11192033Y-3433975D01*
X11185378Y-3445516D01*
X11174875Y-3455346D01*
X11160893Y-3466582D01*
X11154054Y-3471222D01*
X11139338Y-3475313D01*
X11120537Y-3479053D01*
X11064478Y-3481053D01*
X11002745Y-3481053D01*
X11000486Y-3485449D01*
X10999387Y-3492471D01*
X10995723Y-3496074D01*
X10993689Y-3495929D01*
X10992304Y-3498699D01*
X10989617Y-3505783D01*
X10987541Y-3502852D01*
X10985160Y-3506454D01*
X10980397Y-3513232D01*
X10972703Y-3519338D01*
X10966781Y-3522455D01*
X10967086Y-3524284D01*
X10965437Y-3527764D01*
X10960980Y-3526665D01*
X10958171Y-3529474D01*
X10940357Y-3539971D01*
X10898454Y-3550906D01*
X10895278Y-3553959D01*
X10892958Y-3567576D01*
X10895156Y-3579788D01*
X10916222Y-3582047D01*
X10943089Y-3583696D01*
X10949622Y-3592000D01*
X10945592Y-3603602D01*
X10940769Y-3607265D01*
X10936555Y-3609647D01*
X10878426Y-3608365D01*
X10819991Y-3606838D01*
X10810746Y-3603000D01*
X10807901Y-3595236D01*
X10809977Y-3587665D01*
X10812114Y-3583330D01*
X10814434Y-3580765D01*
X10816510Y-3581620D01*
X10842033Y-3580643D01*
X10863893Y-3580643D01*
X10863893Y-3567210D01*
X10863893Y-3551944D01*
X10859924Y-3550967D01*
X10837271Y-3546754D01*
X10798986Y-3528253D01*
X10780545Y-3512072D01*
X10766318Y-3498455D01*
X10759296Y-3487220D01*
X10754411Y-3481053D01*
X10695121Y-3481053D01*
X10635228Y-3478567D01*
X10614521Y-3473848D01*
X10605790Y-3471894D01*
X10597241Y-3466520D01*
X10583258Y-3452599D01*
X10571473Y-3440387D01*
X10569092Y-3435563D01*
X10560740Y-3422479D01*
X10554743Y-3403933D01*
X10554331Y-3389034D01*
X10571107Y-3389034D01*
X10576358Y-3403689D01*
X10579996Y-3409500D01*
X10576236Y-3411077D01*
X10575433Y-3413917D01*
X10594432Y-3435685D01*
X10623192Y-3457728D01*
X10636747Y-3463162D01*
X10689565Y-3463162D01*
X10738999Y-3461506D01*
X10744947Y-3459499D01*
X10743665Y-3456018D01*
X10739775Y-3433249D01*
X10737986Y-3385371D01*
X10738569Y-3365831D01*
X10762838Y-3365831D01*
X10764242Y-3414680D01*
X10766428Y-3438352D01*
X10772485Y-3457239D01*
X10779019Y-3469268D01*
X10782072Y-3472932D01*
X10783782Y-3474031D01*
X10786651Y-3478611D01*
X10796238Y-3492105D01*
X10805531Y-3497634D01*
X10811320Y-3496807D01*
X10813335Y-3498455D01*
X10814434Y-3506576D01*
X10823166Y-3510851D01*
X10830676Y-3515308D01*
X10833668Y-3519643D01*
X10836782Y-3517689D01*
X10845575Y-3520620D01*
X10877021Y-3527520D01*
X10901140Y-3524895D01*
X10914268Y-3519399D01*
X10919703Y-3519216D01*
X10935090Y-3512927D01*
X10956889Y-3497234D01*
X10972693Y-3481640D01*
X10981557Y-3468413D01*
X10990045Y-3454308D01*
X10995907Y-3430774D01*
X10996761Y-3371449D01*
X10993973Y-3348259D01*
X10991205Y-3343850D01*
X10989251Y-3341651D01*
X10984732Y-3348246D01*
X10977161Y-3353680D01*
X10978321Y-3374014D01*
X10975451Y-3416695D01*
X10966947Y-3440095D01*
X10958293Y-3453698D01*
X10953042Y-3462857D01*
X10949684Y-3469696D01*
X10948951Y-3469879D01*
X10945898Y-3473726D01*
X10937716Y-3475680D01*
X10934785Y-3483862D01*
X10929411Y-3483862D01*
X10924343Y-3484900D01*
X10917505Y-3489785D01*
X10917810Y-3490029D01*
X10912018Y-3492252D01*
X10912212Y-3493834D01*
X10903583Y-3495036D01*
X10881418Y-3496440D01*
X10863161Y-3495708D01*
X10854368Y-3492227D01*
X10845819Y-3491250D01*
X10842156Y-3489785D01*
X10833851Y-3484839D01*
X10819930Y-3475069D01*
X10807839Y-3464811D01*
X10804664Y-3464628D01*
X10798375Y-3456262D01*
X10792147Y-3450278D01*
X10793918Y-3444722D01*
X10790742Y-3440875D01*
X10788921Y-3435774D01*
X10785858Y-3432815D01*
X10786102Y-3428724D01*
X10783157Y-3419085D01*
X10781339Y-3378349D01*
X10779019Y-3350933D01*
X10772424Y-3345742D01*
X10770715Y-3337805D01*
X10771203Y-3341163D01*
X10767234Y-3342445D01*
X10762838Y-3365831D01*
X10738569Y-3365831D01*
X10739452Y-3336217D01*
X10755022Y-3333042D01*
X10774622Y-3333897D01*
X10779691Y-3331943D01*
X10781145Y-3269233D01*
X10802039Y-3269233D01*
X10806740Y-3275889D01*
X10829455Y-3277049D01*
X10855406Y-3280407D01*
X10858836Y-3284911D01*
X10857909Y-3293597D01*
X10856139Y-3300496D01*
X10829516Y-3301962D01*
X10803382Y-3301962D01*
X10804542Y-3307335D01*
X10805702Y-3313930D01*
X10826646Y-3312037D01*
X10853635Y-3313686D01*
X10859375Y-3322417D01*
X10857682Y-3329403D01*
X10852963Y-3333164D01*
X10828051Y-3335545D01*
X10804481Y-3337560D01*
X10804848Y-3379692D01*
X10809610Y-3426648D01*
X10815126Y-3438221D01*
X10826585Y-3451011D01*
X10845859Y-3466355D01*
X10853452Y-3468597D01*
X10857482Y-3470612D01*
X10878426Y-3472932D01*
X10898789Y-3471366D01*
X10911032Y-3467559D01*
X10917749Y-3462857D01*
X10918787Y-3459193D01*
X10917077Y-3457545D01*
X10923977Y-3457545D01*
X10937594Y-3445760D01*
X10950599Y-3422984D01*
X10952004Y-3417244D01*
X10953408Y-3411749D01*
X10954813Y-3369984D01*
X10954813Y-3336950D01*
X10932892Y-3336950D01*
X10904728Y-3331767D01*
X10898820Y-3323822D01*
X10904248Y-3315926D01*
X10928801Y-3312037D01*
X10952126Y-3310877D01*
X10956217Y-3305626D01*
X10956217Y-3301962D01*
X10934296Y-3301962D01*
X10907554Y-3298356D01*
X10900346Y-3293780D01*
X10899918Y-3284998D01*
X10904987Y-3280285D01*
X10934357Y-3277049D01*
X10952916Y-3275178D01*
X10956217Y-3272042D01*
X10952126Y-3266730D01*
X10928801Y-3265570D01*
X10905292Y-3263982D01*
X10900472Y-3261051D01*
X10898820Y-3255250D01*
X10900667Y-3248260D01*
X10905964Y-3244504D01*
X10932953Y-3242122D01*
X10956217Y-3242122D01*
X10956217Y-3238459D01*
X10956217Y-3233391D01*
X10932953Y-3233391D01*
X10908553Y-3231328D01*
X10901873Y-3227590D01*
X10901812Y-3215195D01*
X10909719Y-3211192D01*
X10942845Y-3209943D01*
X10955240Y-3207196D01*
X10954874Y-3195655D01*
X10942513Y-3168506D01*
X10934062Y-3159935D01*
X10964949Y-3159935D01*
X10970024Y-3166579D01*
X10978260Y-3191747D01*
X10979725Y-3266425D01*
X10979725Y-3333042D01*
X10998715Y-3333042D01*
X11020270Y-3333042D01*
X11020270Y-3385371D01*
X11020033Y-3432599D01*
X11017583Y-3449607D01*
X11014103Y-3462368D01*
X11068630Y-3463162D01*
X11123218Y-3462368D01*
X11130240Y-3458949D01*
X11148192Y-3452171D01*
X11163640Y-3441547D01*
X11182935Y-3409978D01*
X11188492Y-3393064D01*
X11188492Y-3378715D01*
X11179638Y-3355756D01*
X11169136Y-3338720D01*
X11166083Y-3334629D01*
X11164556Y-3331332D01*
X11158267Y-3326630D01*
X11139277Y-3314418D01*
X11111922Y-3310388D01*
X11088291Y-3306358D01*
X11084933Y-3284621D01*
X11082941Y-3259810D01*
X11079865Y-3255800D01*
X11076873Y-3250915D01*
X11075652Y-3246030D01*
X11073698Y-3239741D01*
X11071622Y-3233391D01*
X11069546Y-3228689D01*
X11062890Y-3217210D01*
X11054158Y-3202311D01*
X11045915Y-3195106D01*
X11038771Y-3188694D01*
X11036512Y-3185824D01*
X11028085Y-3181062D01*
X11016547Y-3172484D01*
X10988335Y-3160545D01*
X10969345Y-3156454D01*
X10965559Y-3158164D01*
X10964949Y-3159935D01*
X10934062Y-3159935D01*
X10922023Y-3147723D01*
X10899003Y-3135449D01*
X10872991Y-3133373D01*
X10859375Y-3134900D01*
X10858150Y-3139435D01*
X10854795Y-3137831D01*
X10847906Y-3139031D01*
X10826585Y-3155905D01*
X10810498Y-3176914D01*
X10803443Y-3200906D01*
X10802283Y-3209943D01*
X10826646Y-3209943D01*
X10851058Y-3211806D01*
X10857726Y-3215134D01*
X10859584Y-3225428D01*
X10855650Y-3231681D01*
X10826646Y-3233391D01*
X10806740Y-3233940D01*
X10803443Y-3235650D01*
X10807473Y-3240962D01*
X10828051Y-3242122D01*
X10852963Y-3244504D01*
X10857677Y-3248226D01*
X10859375Y-3255250D01*
X10853871Y-3262190D01*
X10826707Y-3266974D01*
X10802039Y-3269233D01*
X10781145Y-3269233D01*
X10781339Y-3260868D01*
X10785613Y-3178314D01*
X10795994Y-3158652D01*
X10796971Y-3152668D01*
X10790010Y-3156088D01*
X10769169Y-3173469D01*
X10764181Y-3181489D01*
X10760870Y-3188172D01*
X10754106Y-3191992D01*
X10738536Y-3194251D01*
X10719363Y-3198830D01*
X10706906Y-3204875D01*
X10705196Y-3208783D01*
X10700739Y-3207684D01*
X10690481Y-3216477D01*
X10680284Y-3227285D01*
X10676986Y-3234246D01*
X10673323Y-3239863D01*
X10670453Y-3250305D01*
X10666301Y-3272225D01*
X10660805Y-3292314D01*
X10644807Y-3296344D01*
X10621629Y-3301717D01*
X10597241Y-3319608D01*
X10582110Y-3337109D01*
X10576786Y-3347818D01*
X10572450Y-3367785D01*
X10571107Y-3389034D01*
X10554331Y-3389034D01*
X10553718Y-3366844D01*
X10564696Y-3334141D01*
X10582224Y-3307532D01*
X10605142Y-3289809D01*
X10634610Y-3279919D01*
X10648410Y-3277354D01*
X10648410Y-3269233D01*
X10651690Y-3246109D01*
X10661294Y-3226247D01*
X10665202Y-3218858D01*
X10667278Y-3214096D01*
X10669415Y-3213302D01*
X10677658Y-3202860D01*
X10689565Y-3194556D01*
X10693717Y-3190892D01*
X10702571Y-3184359D01*
X10703548Y-3185275D01*
X10728461Y-3177764D01*
X10737986Y-3174406D01*
X10741344Y-3172147D01*
X10762349Y-3155905D01*
X10792627Y-3133679D01*
X10824875Y-3121833D01*
X10852658Y-3115360D01*
X10855945Y-3113514D01*
X10878487Y-3113406D01*
X10909400Y-3115366D01*
G37*
G36*
X12084738Y-3435483D02*
G01*
X12097390Y-3446962D01*
X12103985Y-3454680D01*
X12115269Y-3464792D01*
X12121863Y-3471435D01*
X12130851Y-3479300D01*
X12139839Y-3487751D01*
X12149902Y-3497227D01*
X12159916Y-3506167D01*
X12173447Y-3519600D01*
X12183461Y-3528539D01*
X12194061Y-3545197D01*
X12192101Y-3555640D01*
X12185757Y-3566592D01*
X12173294Y-3574842D01*
X12151319Y-3583885D01*
X12144968Y-3585985D01*
X12128067Y-3591603D01*
X12118004Y-3594973D01*
X12088939Y-3605036D01*
X12039700Y-3621840D01*
X11978102Y-3644213D01*
X11924417Y-3663215D01*
X11865945Y-3683487D01*
X11863161Y-3684415D01*
X11842694Y-3691205D01*
X11835952Y-3693452D01*
X11827160Y-3696774D01*
X11823398Y-3698044D01*
X11791644Y-3702535D01*
X11758674Y-3695650D01*
X11738060Y-3678553D01*
X11730391Y-3673082D01*
X11721305Y-3663996D01*
X11699567Y-3643871D01*
X11700495Y-3645287D01*
X11693999Y-3661017D01*
X11684962Y-3667709D01*
X11674006Y-3669212D01*
X11661319Y-3666537D01*
X11653601Y-3658672D01*
X11659316Y-3641331D01*
X11659316Y-3639572D01*
X11660879Y-3637862D01*
X11663908Y-3629802D01*
X11666106Y-3624234D01*
X11677732Y-3597416D01*
X11711340Y-3600884D01*
X11714222Y-3601470D01*
X11716957Y-3602008D01*
X11728144Y-3603131D01*
X11742847Y-3605378D01*
X11754131Y-3606502D01*
X11758234Y-3607625D01*
X11766246Y-3608700D01*
X11770691Y-3608700D01*
X11782231Y-3612661D01*
X11788911Y-3618763D01*
X11787592Y-3627897D01*
X11779484Y-3633550D01*
X11770544Y-3635371D01*
X11751298Y-3634248D01*
X11739824Y-3632251D01*
X11757013Y-3648853D01*
X11760481Y-3651687D01*
X11770984Y-3660968D01*
X11771668Y-3662873D01*
X11775918Y-3666048D01*
X11787195Y-3673617D01*
X11797411Y-3675867D01*
X11828430Y-3665804D01*
X11832631Y-3664778D01*
X11843817Y-3661407D01*
X11852854Y-3658086D01*
X11925590Y-3632343D01*
X11961444Y-3620033D01*
X11962959Y-3619544D01*
X11964473Y-3619007D01*
X11968430Y-3617297D01*
X11972289Y-3615636D01*
X12038625Y-3593166D01*
X12078095Y-3578511D01*
X12082393Y-3577388D01*
X12085862Y-3576264D01*
X12104766Y-3569621D01*
X12129394Y-3561515D01*
X12150781Y-3551107D01*
X12149853Y-3544122D01*
X12144236Y-3539726D01*
X12142624Y-3537967D01*
X12129874Y-3526390D01*
X12120740Y-3517255D01*
X12112045Y-3509635D01*
X12104082Y-3501721D01*
X12097439Y-3496202D01*
X12087278Y-3486041D01*
X12080635Y-3480521D01*
X12072184Y-3472119D01*
X12063880Y-3464841D01*
X12053866Y-3454827D01*
X12050349Y-3452482D01*
X12047662Y-3444617D01*
X12054012Y-3434359D01*
X12068530Y-3431065D01*
X12084738Y-3435483D01*
G37*
G36*
X12557788Y-3682363D02*
G01*
X12516804Y-3682363D01*
X12515729Y-3671666D01*
X12514752Y-3672985D01*
X12497361Y-3683150D01*
X12477725Y-3685734D01*
X12459757Y-3680907D01*
X12446462Y-3671763D01*
X12437880Y-3654376D01*
X12434934Y-3633808D01*
X12434934Y-3632147D01*
X12434934Y-3630437D01*
X12434934Y-3621498D01*
X12434934Y-3615881D01*
X12434934Y-3600200D01*
X12434934Y-3583445D01*
X12434934Y-3549398D01*
X12476113Y-3549398D01*
X12476113Y-3559949D01*
X12476113Y-3568888D01*
X12476113Y-3578951D01*
X12476113Y-3596830D01*
X12477188Y-3611289D01*
X12477188Y-3615881D01*
X12481486Y-3643040D01*
X12493552Y-3647876D01*
X12503443Y-3646275D01*
X12511479Y-3641624D01*
X12516608Y-3627067D01*
X12516608Y-3624820D01*
X12516608Y-3617004D01*
X12516608Y-3611387D01*
X12516608Y-3595755D01*
X12516608Y-3572210D01*
X12516608Y-3564394D01*
X12516608Y-3558777D01*
X12516608Y-3557702D01*
X12516608Y-3556578D01*
X12518660Y-3548274D01*
X12557788Y-3548274D01*
X12557788Y-3682363D01*
G37*
G36*
X13461823Y-3547009D02*
G01*
X13483908Y-3558679D01*
X13499655Y-3578092D01*
X13507990Y-3602252D01*
X13504796Y-3638019D01*
X13491968Y-3662824D01*
X13469424Y-3678940D01*
X13443803Y-3685734D01*
X13414100Y-3680749D01*
X13390119Y-3666243D01*
X13374756Y-3642003D01*
X13369456Y-3611338D01*
X13370861Y-3605118D01*
X13411530Y-3605118D01*
X13411710Y-3622280D01*
X13417142Y-3635794D01*
X13426657Y-3645874D01*
X13436313Y-3647925D01*
X13447711Y-3645776D01*
X13456836Y-3639801D01*
X13463587Y-3629900D01*
X13465722Y-3612858D01*
X13461389Y-3596439D01*
X13454727Y-3587638D01*
X13445611Y-3582712D01*
X13429360Y-3583000D01*
X13417083Y-3592189D01*
X13411530Y-3605118D01*
X13370861Y-3605118D01*
X13375451Y-3584808D01*
X13391193Y-3562147D01*
X13411494Y-3549048D01*
X13436427Y-3543829D01*
X13461823Y-3547009D01*
G37*
G36*
X12635017Y-3549398D02*
G01*
X12667502Y-3549398D01*
X12667502Y-3566641D01*
X12667502Y-3569474D01*
X12667502Y-3571135D01*
X12667502Y-3573333D01*
X12667502Y-3575043D01*
X12667502Y-3577290D01*
X12667502Y-3578951D01*
X12665450Y-3585008D01*
X12658074Y-3585008D01*
X12655827Y-3585008D01*
X12653580Y-3585008D01*
X12651382Y-3585008D01*
X12649135Y-3585008D01*
X12644641Y-3585008D01*
X12635017Y-3585008D01*
X12636141Y-3609139D01*
X12636141Y-3618128D01*
X12636141Y-3631561D01*
X12636141Y-3634932D01*
X12636141Y-3638253D01*
X12636141Y-3641624D01*
X12636922Y-3648169D01*
X12652652Y-3648169D01*
X12655192Y-3645678D01*
X12659051Y-3645678D01*
X12666378Y-3657939D01*
X12667355Y-3661065D01*
X12667844Y-3662091D01*
X12668869Y-3663654D01*
X12670677Y-3666683D01*
X12671947Y-3672691D01*
X12664522Y-3676550D01*
X12662519Y-3677869D01*
X12661835Y-3677869D01*
X12640878Y-3684625D01*
X12618360Y-3682266D01*
X12606192Y-3674772D01*
X12598479Y-3664680D01*
X12593838Y-3644994D01*
X12593838Y-3640500D01*
X12593838Y-3638839D01*
X12593838Y-3636006D01*
X12593838Y-3631561D01*
X12593838Y-3619251D01*
X12593838Y-3606941D01*
X12593838Y-3585008D01*
X12574836Y-3585008D01*
X12574836Y-3549398D01*
X12593838Y-3549398D01*
X12593838Y-3515839D01*
X12635017Y-3515839D01*
X12635017Y-3549398D01*
G37*
G36*
X12767568Y-3547815D02*
G01*
X12787767Y-3558679D01*
X12805660Y-3580441D01*
X12812973Y-3605720D01*
X12809906Y-3637473D01*
X12796902Y-3661652D01*
X12775807Y-3677552D01*
X12747711Y-3684611D01*
X12720058Y-3680999D01*
X12698423Y-3668490D01*
X12692756Y-3662873D01*
X12690509Y-3660675D01*
X12678186Y-3639471D01*
X12674438Y-3609139D01*
X12674899Y-3607174D01*
X12717029Y-3607174D01*
X12717816Y-3625553D01*
X12723643Y-3637644D01*
X12731591Y-3644750D01*
X12741343Y-3647888D01*
X12751570Y-3646851D01*
X12760801Y-3641085D01*
X12767446Y-3632049D01*
X12770694Y-3614764D01*
X12767446Y-3597514D01*
X12760804Y-3588444D01*
X12751619Y-3582712D01*
X12735410Y-3582999D01*
X12723140Y-3592189D01*
X12717029Y-3607174D01*
X12674899Y-3607174D01*
X12680202Y-3584563D01*
X12695492Y-3562831D01*
X12696664Y-3562049D01*
X12697104Y-3561219D01*
X12716638Y-3548998D01*
X12741947Y-3544366D01*
X12767568Y-3547815D01*
G37*
G36*
X13252854Y-3549398D02*
G01*
X13285290Y-3549398D01*
X13285290Y-3566641D01*
X13285290Y-3569474D01*
X13285290Y-3571135D01*
X13285290Y-3573333D01*
X13285290Y-3575043D01*
X13285290Y-3577290D01*
X13285290Y-3578951D01*
X13283238Y-3585008D01*
X13275911Y-3585008D01*
X13274201Y-3585008D01*
X13271954Y-3585008D01*
X13269707Y-3585008D01*
X13267460Y-3585008D01*
X13265262Y-3585008D01*
X13263601Y-3585008D01*
X13253929Y-3585008D01*
X13255052Y-3609139D01*
X13255052Y-3618128D01*
X13255052Y-3631561D01*
X13255052Y-3634932D01*
X13255052Y-3638253D01*
X13255052Y-3641624D01*
X13255834Y-3648169D01*
X13271612Y-3648169D01*
X13274152Y-3645678D01*
X13277816Y-3645678D01*
X13285045Y-3657646D01*
X13292373Y-3671177D01*
X13271282Y-3682308D01*
X13245429Y-3684611D01*
X13231457Y-3679056D01*
X13219735Y-3669370D01*
X13214996Y-3659942D01*
X13213971Y-3656718D01*
X13212749Y-3636006D01*
X13212749Y-3631561D01*
X13212749Y-3619251D01*
X13212749Y-3606941D01*
X13212749Y-3585008D01*
X13193747Y-3585008D01*
X13193747Y-3549398D01*
X13212749Y-3549398D01*
X13212749Y-3515839D01*
X13252854Y-3515839D01*
X13252854Y-3549398D01*
G37*
G36*
X13140091Y-3546194D02*
G01*
X13163803Y-3558679D01*
X13173683Y-3570868D01*
X13177823Y-3586718D01*
X13177823Y-3594631D01*
X13177823Y-3596878D01*
X13177823Y-3605818D01*
X13177823Y-3612510D01*
X13177823Y-3629314D01*
X13177823Y-3647241D01*
X13177823Y-3682363D01*
X13138890Y-3682363D01*
X13138793Y-3672496D01*
X13138646Y-3673620D01*
X13136790Y-3674890D01*
X13135569Y-3675476D01*
X13134494Y-3676013D01*
X13133419Y-3676550D01*
X13114227Y-3684255D01*
X13093119Y-3684562D01*
X13078123Y-3677674D01*
X13076608Y-3676941D01*
X13075094Y-3674841D01*
X13064743Y-3662587D01*
X13059414Y-3644017D01*
X13060567Y-3635664D01*
X13101619Y-3635664D01*
X13104745Y-3647339D01*
X13112463Y-3651247D01*
X13128925Y-3647876D01*
X13130977Y-3647388D01*
X13132003Y-3646899D01*
X13140160Y-3640940D01*
X13140209Y-3619691D01*
X13126141Y-3623061D01*
X13125213Y-3623061D01*
X13123356Y-3623989D01*
X13110981Y-3628715D01*
X13101619Y-3635664D01*
X13060567Y-3635664D01*
X13061403Y-3629608D01*
X13069965Y-3615929D01*
X13086085Y-3605525D01*
X13088283Y-3604401D01*
X13118765Y-3595364D01*
X13124285Y-3593117D01*
X13137083Y-3590284D01*
X13136643Y-3588281D01*
X13135666Y-3586327D01*
X13131075Y-3581589D01*
X13116654Y-3579656D01*
X13105576Y-3582468D01*
X13099518Y-3589551D01*
X13098395Y-3591896D01*
X13097320Y-3594143D01*
X13096246Y-3595218D01*
X13080370Y-3591554D01*
X13077537Y-3590577D01*
X13073042Y-3589453D01*
X13069525Y-3588281D01*
X13060244Y-3584080D01*
X13070915Y-3565044D01*
X13088283Y-3551791D01*
X13115527Y-3543859D01*
X13140091Y-3546194D01*
G37*
G36*
X12382079Y-3568644D02*
G01*
X12383203Y-3572503D01*
X12384326Y-3576460D01*
X12390921Y-3595169D01*
X12403231Y-3629900D01*
X12409972Y-3647779D01*
X12412268Y-3655741D01*
X12416762Y-3667025D01*
X12417739Y-3670054D01*
X12418374Y-3671324D01*
X12419009Y-3674059D01*
X12420132Y-3675671D01*
X12420132Y-3682363D01*
X12373775Y-3682363D01*
X12366741Y-3662238D01*
X12364396Y-3655301D01*
X12363322Y-3650514D01*
X12361026Y-3645385D01*
X12361221Y-3644652D01*
X12359902Y-3644310D01*
X12360391Y-3640451D01*
X12358828Y-3639230D01*
X12358828Y-3637520D01*
X12357020Y-3633124D01*
X12303336Y-3633124D01*
X12293566Y-3662287D01*
X12291417Y-3668735D01*
X12291417Y-3670542D01*
X12289853Y-3671861D01*
X12289707Y-3674499D01*
X12289169Y-3676697D01*
X12286336Y-3682363D01*
X12242128Y-3682363D01*
X12245743Y-3669272D01*
X12246378Y-3666292D01*
X12247990Y-3663361D01*
X12249260Y-3659844D01*
X12252680Y-3648609D01*
X12254292Y-3644750D01*
X12256050Y-3640793D01*
X12272479Y-3594192D01*
X12314913Y-3594192D01*
X12346273Y-3594192D01*
X12343343Y-3580905D01*
X12342024Y-3577828D01*
X12341047Y-3575141D01*
X12340412Y-3573871D01*
X12339777Y-3571526D01*
X12337627Y-3562880D01*
X12335918Y-3559314D01*
X12335283Y-3555699D01*
X12330699Y-3542743D01*
X12321605Y-3569377D01*
X12319358Y-3577144D01*
X12317160Y-3582712D01*
X12317160Y-3583738D01*
X12317160Y-3584764D01*
X12314913Y-3594192D01*
X12272479Y-3594192D01*
X12276078Y-3583982D01*
X12289414Y-3545148D01*
X12289414Y-3544708D01*
X12289414Y-3542852D01*
X12297327Y-3523508D01*
X12300600Y-3511589D01*
X12301284Y-3508902D01*
X12302407Y-3507095D01*
X12302847Y-3505581D01*
X12303384Y-3503920D01*
X12303971Y-3503089D01*
X12303971Y-3501331D01*
X12306804Y-3495664D01*
X12355848Y-3495664D01*
X12382079Y-3568644D01*
G37*
G36*
X12921995Y-3546764D02*
G01*
X12937683Y-3554185D01*
X12947306Y-3563857D01*
X12947306Y-3565078D01*
X12947502Y-3563955D01*
X12956026Y-3555549D01*
X12973294Y-3547199D01*
X12996445Y-3546415D01*
X13015890Y-3553012D01*
X13029411Y-3565632D01*
X13037920Y-3583201D01*
X13037920Y-3595755D01*
X13037920Y-3597416D01*
X13037920Y-3599077D01*
X13037920Y-3608065D01*
X13037920Y-3613634D01*
X13037920Y-3630437D01*
X13037920Y-3647241D01*
X13037920Y-3682363D01*
X12996741Y-3682363D01*
X12996741Y-3662873D01*
X12996741Y-3651687D01*
X12996741Y-3633808D01*
X12996741Y-3619251D01*
X12996741Y-3614757D01*
X12991172Y-3589356D01*
X12991172Y-3587744D01*
X12989902Y-3587109D01*
X12984431Y-3584959D01*
X12972755Y-3585570D01*
X12964647Y-3589063D01*
X12958444Y-3601617D01*
X12957369Y-3615881D01*
X12957369Y-3621498D01*
X12957369Y-3636006D01*
X12957369Y-3653934D01*
X12957369Y-3682363D01*
X12916190Y-3682363D01*
X12916190Y-3672985D01*
X12916190Y-3663996D01*
X12916190Y-3652810D01*
X12916190Y-3636006D01*
X12916190Y-3622573D01*
X12916190Y-3617004D01*
X12914330Y-3599051D01*
X12909839Y-3588916D01*
X12897578Y-3585008D01*
X12887816Y-3586859D01*
X12879700Y-3592384D01*
X12877000Y-3598321D01*
X12875645Y-3614757D01*
X12875645Y-3620375D01*
X12875645Y-3636006D01*
X12875645Y-3653934D01*
X12875645Y-3682363D01*
X12833343Y-3682363D01*
X12833343Y-3630437D01*
X12833343Y-3606941D01*
X12833343Y-3583445D01*
X12833343Y-3575043D01*
X12833343Y-3563271D01*
X12833343Y-3558777D01*
X12833343Y-3556578D01*
X12833343Y-3553208D01*
X12835394Y-3548274D01*
X12843894Y-3548274D01*
X12847216Y-3548274D01*
X12851710Y-3548274D01*
X12859525Y-3548274D01*
X12865143Y-3548274D01*
X12867390Y-3548274D01*
X12875645Y-3550326D01*
X12876769Y-3556334D01*
X12876769Y-3559486D01*
X12876818Y-3559460D01*
X12890215Y-3549813D01*
X12905785Y-3545490D01*
X12921995Y-3546764D01*
G37*
G36*
X13347962Y-3682363D02*
G01*
X13306783Y-3682363D01*
X13306783Y-3548274D01*
X13347962Y-3548274D01*
X13347962Y-3682363D01*
G37*
G36*
X13616955Y-3546390D02*
G01*
X13632603Y-3551840D01*
X13645209Y-3563280D01*
X13653461Y-3579733D01*
X13654634Y-3601324D01*
X13654634Y-3603033D01*
X13654634Y-3603571D01*
X13654634Y-3612510D01*
X13654634Y-3618128D01*
X13654634Y-3633808D01*
X13654634Y-3649440D01*
X13654634Y-3682363D01*
X13613454Y-3682363D01*
X13613454Y-3663996D01*
X13613454Y-3653934D01*
X13613454Y-3637130D01*
X13613454Y-3623696D01*
X13613454Y-3618128D01*
X13611547Y-3601303D01*
X13606029Y-3586767D01*
X13588493Y-3583836D01*
X13578364Y-3589428D01*
X13571786Y-3597269D01*
X13571786Y-3604694D01*
X13571786Y-3605818D01*
X13571786Y-3606941D01*
X13571786Y-3615881D01*
X13571786Y-3618128D01*
X13571786Y-3621498D01*
X13571786Y-3636006D01*
X13570712Y-3653982D01*
X13570712Y-3682363D01*
X13529532Y-3682363D01*
X13529532Y-3548274D01*
X13568660Y-3548274D01*
X13571786Y-3557555D01*
X13571786Y-3559866D01*
X13583246Y-3551020D01*
X13599630Y-3546076D01*
X13616955Y-3546390D01*
G37*
G36*
X11800539Y-3374137D02*
G01*
X11803761Y-3375008D01*
X11808548Y-3378623D01*
X11809330Y-3379405D01*
X11810107Y-3381187D01*
X11810713Y-3381721D01*
X11812652Y-3383166D01*
X11814654Y-3385706D01*
X11827502Y-3397527D01*
X11834340Y-3403243D01*
X11847774Y-3416676D01*
X11854320Y-3422147D01*
X11854455Y-3422329D01*
X11856029Y-3423661D01*
X11856029Y-3424448D01*
X11858276Y-3427472D01*
X11858276Y-3431233D01*
X11858276Y-3434555D01*
X11858276Y-3439049D01*
X11858276Y-3440758D01*
X11858276Y-3442419D01*
X11858276Y-3453606D01*
X11858276Y-3464792D01*
X11857153Y-3487213D01*
X11857153Y-3511784D01*
X11857153Y-3563222D01*
X11838541Y-3570256D01*
X11834340Y-3571575D01*
X11832728Y-3572698D01*
X11831312Y-3572698D01*
X11827111Y-3574799D01*
X11814996Y-3578121D01*
X11803419Y-3582712D01*
X11795848Y-3585936D01*
X11779874Y-3591701D01*
X11777627Y-3591701D01*
X11772107Y-3593899D01*
X11766537Y-3593845D01*
X11766490Y-3596048D01*
X11763160Y-3593813D01*
X11761947Y-3593801D01*
X11758428Y-3590899D01*
X11757599Y-3590577D01*
X11755367Y-3588374D01*
X11754424Y-3587597D01*
X11754413Y-3587434D01*
X11750370Y-3583445D01*
X11749246Y-3582322D01*
X11747585Y-3580661D01*
X11746462Y-3579488D01*
X11746171Y-3579171D01*
X11745563Y-3578565D01*
X11740094Y-3573464D01*
X11730928Y-3565176D01*
X11730787Y-3564783D01*
X11729325Y-3563419D01*
X11729267Y-3563368D01*
X11728800Y-3562903D01*
X11727557Y-3562587D01*
X11727557Y-3561666D01*
X11717934Y-3552084D01*
X11712640Y-3547692D01*
X11711452Y-3546715D01*
X11710998Y-3546418D01*
X11710947Y-3546079D01*
X11708005Y-3542070D01*
X11768737Y-3542070D01*
X11768737Y-3586865D01*
X11805715Y-3574164D01*
X11806936Y-3573529D01*
X11809477Y-3572894D01*
X11816999Y-3569670D01*
X11829309Y-3565176D01*
X11836099Y-3562929D01*
X11840642Y-3561708D01*
X11841765Y-3561170D01*
X11843426Y-3560584D01*
X11844989Y-3560096D01*
X11845966Y-3559607D01*
X11849581Y-3557800D01*
X11850656Y-3519600D01*
X11850656Y-3516278D01*
X11851144Y-3433382D01*
X11842694Y-3437144D01*
X11836050Y-3439391D01*
X11834829Y-3440026D01*
X11832387Y-3440612D01*
X11779972Y-3458442D01*
X11775673Y-3459614D01*
X11772059Y-3460738D01*
X11769860Y-3462056D01*
X11769860Y-3465915D01*
X11769860Y-3469286D01*
X11769860Y-3473731D01*
X11769860Y-3474855D01*
X11769860Y-3477102D01*
X11769860Y-3489412D01*
X11769860Y-3493320D01*
X11769860Y-3498351D01*
X11769860Y-3518525D01*
X11768737Y-3542070D01*
X11708005Y-3542070D01*
X11707432Y-3541289D01*
X11707432Y-3535280D01*
X11707432Y-3531959D01*
X11707432Y-3528588D01*
X11707432Y-3524094D01*
X11707432Y-3511784D01*
X11707432Y-3508463D01*
X11707432Y-3505092D01*
X11707432Y-3486041D01*
X11707432Y-3462545D01*
X11707432Y-3443543D01*
X11707432Y-3432894D01*
X11707432Y-3419998D01*
X11707432Y-3416676D01*
X11707432Y-3413306D01*
X11707432Y-3411645D01*
X11707432Y-3409935D01*
X11711535Y-3402999D01*
X11712072Y-3402785D01*
X11712219Y-3402559D01*
X11712407Y-3402653D01*
X11717495Y-3400634D01*
X11717495Y-3400556D01*
X11720474Y-3399628D01*
X11720622Y-3399578D01*
X11720913Y-3399433D01*
X11720914Y-3399433D01*
X11720914Y-3399432D01*
X11723161Y-3398309D01*
X11724412Y-3398309D01*
X11730653Y-3396219D01*
X11730781Y-3396160D01*
X11732003Y-3395574D01*
X11734192Y-3395015D01*
X11739867Y-3392740D01*
X11752249Y-3388643D01*
X11755450Y-3387220D01*
X11757776Y-3386546D01*
X11757812Y-3386531D01*
X11758772Y-3386097D01*
X11759051Y-3386025D01*
X11759114Y-3385999D01*
X11759150Y-3385999D01*
X11763510Y-3384876D01*
X11767157Y-3383766D01*
X11769810Y-3382955D01*
X11770007Y-3382726D01*
X11770503Y-3382743D01*
X11772996Y-3381982D01*
X11773280Y-3381505D01*
X11773973Y-3381684D01*
X11774358Y-3381566D01*
X11774159Y-3380968D01*
X11781356Y-3378596D01*
X11781731Y-3378183D01*
X11784173Y-3377353D01*
X11784263Y-3377317D01*
X11784515Y-3377158D01*
X11790279Y-3374813D01*
X11791252Y-3374463D01*
X11791696Y-3374276D01*
X11793161Y-3373689D01*
X11793326Y-3373718D01*
X11793405Y-3373689D01*
X11793805Y-3373800D01*
X11794300Y-3373886D01*
X11794724Y-3372566D01*
X11797539Y-3373326D01*
X11796971Y-3371589D01*
X11800539Y-3374137D01*
G37*
G36*
X11974212Y-3418501D02*
G01*
X11975952Y-3418532D01*
X11976090Y-3418628D01*
X11976148Y-3418630D01*
X11977352Y-3419441D01*
X11978395Y-3419754D01*
X11978554Y-3419874D01*
X11978639Y-3419900D01*
X11983622Y-3423515D01*
X11984183Y-3424369D01*
X11985429Y-3425615D01*
X11986553Y-3426739D01*
X11987676Y-3427862D01*
X11993151Y-3433337D01*
X11994466Y-3434017D01*
X11995932Y-3436020D01*
X12007118Y-3446229D01*
X12007345Y-3446510D01*
X12008486Y-3447548D01*
X12008474Y-3447583D01*
X12017954Y-3456548D01*
X12024606Y-3462545D01*
X12026853Y-3464792D01*
X12027088Y-3465186D01*
X12030907Y-3468798D01*
X12030005Y-3470072D01*
X12032861Y-3474855D01*
X12032861Y-3479349D01*
X12032861Y-3481596D01*
X12032861Y-3490535D01*
X12032861Y-3492782D01*
X12033985Y-3508316D01*
X12033985Y-3524094D01*
X12033985Y-3535280D01*
X12033985Y-3540898D01*
X12033985Y-3549837D01*
X12033985Y-3552084D01*
X12032617Y-3558728D01*
X12020747Y-3564687D01*
X12019477Y-3565322D01*
X12018255Y-3565957D01*
X12014934Y-3567081D01*
X12012735Y-3567618D01*
X12011710Y-3568107D01*
X12000474Y-3571477D01*
X11985771Y-3577144D01*
X11981521Y-3578169D01*
X11962275Y-3585008D01*
X11958123Y-3585936D01*
X11951333Y-3589356D01*
X11950112Y-3589991D01*
X11947376Y-3590577D01*
X11945764Y-3591701D01*
X11937606Y-3590382D01*
X11933308Y-3586083D01*
X11931256Y-3585008D01*
X11929595Y-3583885D01*
X11926322Y-3580221D01*
X11921633Y-3575581D01*
X11912742Y-3566641D01*
X11899377Y-3554349D01*
X11898987Y-3554246D01*
X11893562Y-3549600D01*
X11893301Y-3549495D01*
X11892519Y-3548714D01*
X11888416Y-3545636D01*
X11884290Y-3541479D01*
X11882017Y-3539481D01*
X11882017Y-3537715D01*
X11880893Y-3519649D01*
X11880893Y-3514031D01*
X11880893Y-3507290D01*
X11945569Y-3507290D01*
X11945569Y-3582566D01*
X11962421Y-3577534D01*
X11966036Y-3576264D01*
X11969358Y-3575141D01*
X11973657Y-3572992D01*
X11981521Y-3570744D01*
X11993978Y-3566250D01*
X12001744Y-3562831D01*
X12004871Y-3561708D01*
X12007411Y-3561170D01*
X12008534Y-3560584D01*
X12011710Y-3559558D01*
X12025290Y-3554380D01*
X12025729Y-3478225D01*
X12020747Y-3480765D01*
X12019477Y-3481400D01*
X12016790Y-3482035D01*
X12014103Y-3483012D01*
X12009169Y-3484234D01*
X12001744Y-3487458D01*
X11989239Y-3492049D01*
X11981521Y-3494248D01*
X11977858Y-3495469D01*
X11945569Y-3507290D01*
X11880893Y-3507290D01*
X11880893Y-3501575D01*
X11882017Y-3486041D01*
X11882017Y-3473731D01*
X11882017Y-3468162D01*
X11882017Y-3460298D01*
X11882017Y-3458051D01*
X11882017Y-3449942D01*
X11883107Y-3450487D01*
X11883091Y-3449307D01*
X11883143Y-3449281D01*
X11883140Y-3449258D01*
X11886950Y-3447353D01*
X11887243Y-3447499D01*
X11891982Y-3445399D01*
X11894375Y-3444178D01*
X11896622Y-3443641D01*
X11897746Y-3443054D01*
X11900726Y-3442126D01*
X11903539Y-3441284D01*
X11904194Y-3440856D01*
X11907564Y-3439733D01*
X11910788Y-3438756D01*
X11916540Y-3437042D01*
X11920119Y-3435239D01*
X11921242Y-3435239D01*
X11921807Y-3435239D01*
X11926811Y-3433440D01*
X11926811Y-3433431D01*
X11926844Y-3433428D01*
X11927788Y-3433089D01*
X11931158Y-3431966D01*
X11934398Y-3430801D01*
X11934431Y-3430744D01*
X11934503Y-3430763D01*
X11942741Y-3427799D01*
X11943468Y-3427520D01*
X11945340Y-3426892D01*
X11952701Y-3424052D01*
X11955729Y-3423026D01*
X11957390Y-3422489D01*
X11959100Y-3421903D01*
X11962659Y-3420976D01*
X11963982Y-3420452D01*
X11967111Y-3418435D01*
X11967941Y-3418435D01*
X11970237Y-3417311D01*
X11974212Y-3418501D01*
G37*
G36*
X11927651Y-3298055D02*
G01*
X11950551Y-3307939D01*
X11963105Y-3318197D01*
X11969700Y-3326013D01*
X11998423Y-3352538D01*
X12000670Y-3349021D01*
X12001989Y-3346432D01*
X12005359Y-3339740D01*
X12016253Y-3330116D01*
X12030584Y-3329070D01*
X12040188Y-3332657D01*
X12046392Y-3340375D01*
X12040726Y-3357618D01*
X12040091Y-3360109D01*
X12039456Y-3361380D01*
X12035010Y-3372419D01*
X12031640Y-3380382D01*
X12023384Y-3400312D01*
X12004382Y-3399188D01*
X12003161Y-3399188D01*
X12001989Y-3399188D01*
X11993245Y-3398065D01*
X11990216Y-3397527D01*
X11987530Y-3396941D01*
X11975220Y-3394743D01*
X11959442Y-3393620D01*
X11947229Y-3391373D01*
X11940977Y-3390786D01*
X11932673Y-3389126D01*
X11930474Y-3389126D01*
X11913866Y-3381994D01*
X11911130Y-3374959D01*
X11923294Y-3363724D01*
X11952017Y-3364750D01*
X11953922Y-3364750D01*
X11956950Y-3365874D01*
X11962537Y-3366889D01*
X11959686Y-3364066D01*
X11956999Y-3361917D01*
X11954019Y-3359523D01*
X11941856Y-3347311D01*
X11940098Y-3345553D01*
X11938437Y-3343892D01*
X11933943Y-3339447D01*
X11922854Y-3329433D01*
X11920607Y-3327186D01*
X11912611Y-3323645D01*
X11901751Y-3323082D01*
X11884996Y-3328700D01*
X11882847Y-3329286D01*
X11880551Y-3329823D01*
X11870684Y-3334171D01*
X11858325Y-3337541D01*
X11840447Y-3344234D01*
X11818025Y-3352147D01*
X11792331Y-3362161D01*
X11743971Y-3379063D01*
X11741821Y-3379649D01*
X11739477Y-3380186D01*
X11673726Y-3403585D01*
X11594152Y-3431624D01*
X11585359Y-3434897D01*
X11571926Y-3439391D01*
X11567383Y-3441100D01*
X11560691Y-3443885D01*
X11559030Y-3444471D01*
X11557369Y-3445008D01*
X11550237Y-3449014D01*
X11550335Y-3454045D01*
X11555757Y-3459223D01*
X11557418Y-3460982D01*
X11568897Y-3471338D01*
X11580279Y-3482719D01*
X11586874Y-3489363D01*
X11600405Y-3501721D01*
X11606999Y-3507193D01*
X11620579Y-3520724D01*
X11629421Y-3528539D01*
X11639581Y-3538651D01*
X11649791Y-3546516D01*
X11653454Y-3552719D01*
X11649546Y-3563368D01*
X11638108Y-3568121D01*
X11624585Y-3568156D01*
X11602603Y-3551987D01*
X11591563Y-3542070D01*
X11586971Y-3537527D01*
X11574710Y-3525218D01*
X11556832Y-3509537D01*
X11540956Y-3494883D01*
X11537732Y-3490535D01*
X11526839Y-3480668D01*
X11525324Y-3479935D01*
X11523859Y-3478079D01*
X11519902Y-3474855D01*
X11508859Y-3461851D01*
X11505980Y-3452384D01*
X11508930Y-3441466D01*
X11515408Y-3432308D01*
X11528914Y-3424556D01*
X11566162Y-3410765D01*
X11577446Y-3406223D01*
X11581891Y-3405001D01*
X11582428Y-3404464D01*
X11584382Y-3403927D01*
X11591026Y-3401728D01*
X11627858Y-3388344D01*
X11680516Y-3370417D01*
X11734201Y-3350291D01*
X11792428Y-3330116D01*
X11850558Y-3309991D01*
X11865408Y-3304276D01*
X11866581Y-3303836D01*
X11867069Y-3303347D01*
X11900461Y-3296108D01*
X11927651Y-3298055D01*
G37*
G36*
X13342833Y-3492636D02*
G01*
X13348529Y-3499708D01*
X13351333Y-3509342D01*
X13350654Y-3519419D01*
X13346448Y-3527416D01*
X13340488Y-3532203D01*
X13339414Y-3532740D01*
X13337167Y-3534450D01*
X13326421Y-3535983D01*
X13316601Y-3533375D01*
X13304634Y-3520186D01*
X13304004Y-3509611D01*
X13306978Y-3499768D01*
X13310274Y-3496682D01*
X13313035Y-3492636D01*
X13316162Y-3491024D01*
X13316264Y-3491075D01*
X13317588Y-3489835D01*
X13328945Y-3487554D01*
X13342833Y-3492636D01*
G37*
G36*
X12454670Y-3319652D02*
G01*
X12474354Y-3329188D01*
X12485078Y-3340421D01*
X12492868Y-3357081D01*
X12492868Y-3361917D01*
X12481389Y-3364506D01*
X12480754Y-3364310D01*
X12480558Y-3365434D01*
X12464585Y-3366753D01*
X12461751Y-3361086D01*
X12461410Y-3359865D01*
X12459846Y-3358253D01*
X12457599Y-3352880D01*
X12453691Y-3350926D01*
X12450565Y-3348386D01*
X12438733Y-3346481D01*
X12427020Y-3348679D01*
X12418663Y-3355732D01*
X12411096Y-3367974D01*
X12409544Y-3389225D01*
X12415345Y-3404562D01*
X12424625Y-3413998D01*
X12433273Y-3417311D01*
X12444007Y-3416378D01*
X12456769Y-3410912D01*
X12465464Y-3393717D01*
X12493503Y-3398553D01*
X12493894Y-3405978D01*
X12482446Y-3427815D01*
X12465122Y-3441589D01*
X12442719Y-3447302D01*
X12418081Y-3443885D01*
X12396305Y-3431309D01*
X12382421Y-3412768D01*
X12376706Y-3385364D01*
X12376706Y-3383117D01*
X12379855Y-3359347D01*
X12391654Y-3338421D01*
X12409696Y-3324814D01*
X12431856Y-3318344D01*
X12454670Y-3319652D01*
G37*
G36*
X12582394Y-3319524D02*
G01*
X12602045Y-3328162D01*
X12604975Y-3331142D01*
X12606978Y-3332266D01*
X12608444Y-3333389D01*
X12618679Y-3349136D01*
X12621584Y-3361917D01*
X12610105Y-3364506D01*
X12609470Y-3364310D01*
X12609274Y-3365434D01*
X12593301Y-3366753D01*
X12592519Y-3365190D01*
X12591738Y-3363627D01*
X12583867Y-3352762D01*
X12573761Y-3346530D01*
X12562652Y-3346548D01*
X12552610Y-3350779D01*
X12543330Y-3360875D01*
X12538786Y-3374324D01*
X12539655Y-3393755D01*
X12546259Y-3408909D01*
X12555462Y-3415219D01*
X12566287Y-3417311D01*
X12585485Y-3410961D01*
X12594278Y-3393717D01*
X12622708Y-3398651D01*
X12620970Y-3410964D01*
X12615820Y-3421903D01*
X12615234Y-3423026D01*
X12614696Y-3424150D01*
X12601841Y-3437629D01*
X12583433Y-3446132D01*
X12553201Y-3445710D01*
X12529553Y-3435825D01*
X12514210Y-3418054D01*
X12506594Y-3393522D01*
X12505422Y-3387562D01*
X12505422Y-3386439D01*
X12505422Y-3384241D01*
X12508611Y-3359493D01*
X12520370Y-3338372D01*
X12538229Y-3325515D01*
X12559986Y-3318881D01*
X12582394Y-3319524D01*
G37*
G36*
X12358583Y-3445106D02*
G01*
X12329372Y-3445106D01*
X12318674Y-3429670D01*
X12308758Y-3414185D01*
X12305241Y-3408372D01*
X12303531Y-3407053D01*
X12291856Y-3389467D01*
X12291123Y-3388002D01*
X12289414Y-3385950D01*
X12287167Y-3383703D01*
X12286581Y-3382042D01*
X12286043Y-3380382D01*
X12282477Y-3375985D01*
X12281305Y-3445106D01*
X12252484Y-3445106D01*
X12252484Y-3319956D01*
X12277983Y-3320591D01*
X12287509Y-3327039D01*
X12290293Y-3330947D01*
X12292540Y-3333194D01*
X12292296Y-3334073D01*
X12293077Y-3334513D01*
X12295666Y-3339740D01*
X12301284Y-3349900D01*
X12315792Y-3372175D01*
X12328688Y-3391617D01*
X12329714Y-3319956D01*
X12358583Y-3319956D01*
X12358583Y-3445106D01*
G37*
G36*
X12706629Y-3321128D02*
G01*
X12722994Y-3331582D01*
X12730552Y-3344581D01*
X12732373Y-3360793D01*
X12729126Y-3373741D01*
X12721772Y-3384241D01*
X12712100Y-3390249D01*
X12731102Y-3423710D01*
X12737844Y-3436118D01*
X12738967Y-3438365D01*
X12740237Y-3445106D01*
X12707509Y-3445106D01*
X12688165Y-3409788D01*
X12685624Y-3405881D01*
X12685185Y-3403927D01*
X12684794Y-3403047D01*
X12682400Y-3399433D01*
X12681130Y-3395818D01*
X12668576Y-3395818D01*
X12668576Y-3445106D01*
X12638632Y-3445106D01*
X12638632Y-3396502D01*
X12638632Y-3374129D01*
X12638632Y-3369195D01*
X12668576Y-3369195D01*
X12680447Y-3369195D01*
X12682694Y-3369195D01*
X12684941Y-3369195D01*
X12700670Y-3365092D01*
X12702477Y-3354296D01*
X12697739Y-3347604D01*
X12680447Y-3346578D01*
X12676001Y-3346578D01*
X12668576Y-3346578D01*
X12668576Y-3369195D01*
X12638632Y-3369195D01*
X12638632Y-3352880D01*
X12638632Y-3345015D01*
X12638632Y-3333829D01*
X12638632Y-3330458D01*
X12638632Y-3327137D01*
X12638632Y-3324890D01*
X12640207Y-3321343D01*
X12645764Y-3319956D01*
X12649135Y-3319956D01*
X12652505Y-3319956D01*
X12653580Y-3319956D01*
X12655827Y-3319956D01*
X12663105Y-3319956D01*
X12673754Y-3319956D01*
X12706629Y-3321128D01*
G37*
G36*
X9530360Y-3702586D02*
G01*
X9536695Y-3713056D01*
X9530971Y-3717119D01*
X9527049Y-3717314D01*
X9525598Y-3712417D01*
X9518576Y-3707288D01*
X9508073Y-3710830D01*
X9503677Y-3720481D01*
X9505631Y-3732628D01*
X9515156Y-3739162D01*
X9525903Y-3735132D01*
X9530064Y-3729810D01*
X9532986Y-3730369D01*
X9536474Y-3736444D01*
X9527246Y-3746245D01*
X9517487Y-3749355D01*
X9505753Y-3746367D01*
X9496795Y-3738873D01*
X9493419Y-3723591D01*
X9496795Y-3708309D01*
X9505753Y-3700816D01*
X9519909Y-3697509D01*
X9530360Y-3702586D01*
G37*
G36*
X9481268Y-3701060D02*
G01*
X9485420Y-3722920D01*
X9487007Y-3741238D01*
X9492751Y-3742700D01*
X9488961Y-3747039D01*
X9484199Y-3749298D01*
X9478581Y-3747344D01*
X9472292Y-3746428D01*
X9460802Y-3749009D01*
X9452081Y-3744657D01*
X9446526Y-3736043D01*
X9447330Y-3733544D01*
X9458187Y-3733544D01*
X9460263Y-3738856D01*
X9465453Y-3739895D01*
X9472925Y-3735840D01*
X9475223Y-3729209D01*
X9475100Y-3727072D01*
X9471620Y-3726950D01*
X9461448Y-3728929D01*
X9458187Y-3733544D01*
X9447330Y-3733544D01*
X9449455Y-3726950D01*
X9458224Y-3719957D01*
X9471620Y-3717424D01*
X9475223Y-3715226D01*
X9473535Y-3709632D01*
X9468445Y-3706616D01*
X9462818Y-3707032D01*
X9459408Y-3711746D01*
X9452569Y-3714188D01*
X9450676Y-3706433D01*
X9458248Y-3699350D01*
X9470105Y-3696788D01*
X9481268Y-3701060D01*
G37*
G36*
X9733019Y-3702320D02*
G01*
X9736501Y-3707716D01*
X9734670Y-3717058D01*
X9727281Y-3711929D01*
X9717389Y-3707349D01*
X9708475Y-3715898D01*
X9708291Y-3731651D01*
X9719221Y-3738429D01*
X9726563Y-3736903D01*
X9728441Y-3733361D01*
X9729962Y-3729904D01*
X9735158Y-3730064D01*
X9739011Y-3733984D01*
X9733143Y-3744657D01*
X9717756Y-3749298D01*
X9703834Y-3744596D01*
X9697597Y-3733911D01*
X9696262Y-3717668D01*
X9700729Y-3707048D01*
X9707070Y-3700938D01*
X9724717Y-3698679D01*
X9733019Y-3702320D01*
G37*
G36*
X9875718Y-3702320D02*
G01*
X9879200Y-3707716D01*
X9877368Y-3717058D01*
X9869980Y-3711929D01*
X9859966Y-3707349D01*
X9849769Y-3715959D01*
X9850929Y-3731590D01*
X9860516Y-3738429D01*
X9869081Y-3736841D01*
X9871140Y-3733361D01*
X9872475Y-3729611D01*
X9876514Y-3730064D01*
X9881243Y-3734000D01*
X9874499Y-3744596D01*
X9860516Y-3749298D01*
X9846594Y-3744657D01*
X9839595Y-3733844D01*
X9839022Y-3717607D01*
X9843438Y-3707041D01*
X9849769Y-3700938D01*
X9867416Y-3698679D01*
X9875718Y-3702320D01*
G37*
G36*
X10049835Y-3703321D02*
G01*
X10054139Y-3716569D01*
X10054139Y-3726950D01*
X10036798Y-3726950D01*
X10021960Y-3727805D01*
X10025624Y-3734765D01*
X10036309Y-3739223D01*
X10043331Y-3732384D01*
X10050598Y-3731835D01*
X10052925Y-3734715D01*
X10051086Y-3739956D01*
X10044672Y-3746853D01*
X10034050Y-3749298D01*
X10023166Y-3746931D01*
X10015549Y-3740078D01*
X10011841Y-3730247D01*
X10012496Y-3717607D01*
X10012943Y-3716447D01*
X10023181Y-3716447D01*
X10032585Y-3717424D01*
X10043209Y-3714738D01*
X10039851Y-3709792D01*
X10033141Y-3707152D01*
X10027089Y-3710952D01*
X10023181Y-3716447D01*
X10012943Y-3716447D01*
X10017027Y-3705860D01*
X10023487Y-3699350D01*
X10036859Y-3697824D01*
X10049835Y-3703321D01*
G37*
G36*
X9826932Y-3702586D02*
G01*
X9831826Y-3710741D01*
X9828947Y-3715776D01*
X9822292Y-3710341D01*
X9813560Y-3706616D01*
X9808708Y-3708421D01*
X9807942Y-3712234D01*
X9818872Y-3718584D01*
X9831512Y-3726889D01*
X9833922Y-3733497D01*
X9831512Y-3741299D01*
X9824232Y-3748584D01*
X9809713Y-3749237D01*
X9800559Y-3744787D01*
X9795669Y-3738185D01*
X9795937Y-3731884D01*
X9800371Y-3730003D01*
X9806477Y-3735620D01*
X9813926Y-3739833D01*
X9822475Y-3736475D01*
X9821620Y-3731712D01*
X9810995Y-3726889D01*
X9798539Y-3718645D01*
X9797498Y-3707501D01*
X9803668Y-3700877D01*
X9816717Y-3697483D01*
X9826932Y-3702586D01*
G37*
G36*
X9687409Y-3707349D02*
G01*
X9689668Y-3724446D01*
X9685882Y-3740017D01*
X9679632Y-3745936D01*
X9668968Y-3748626D01*
X9658001Y-3747149D01*
X9650589Y-3741665D01*
X9646357Y-3726660D01*
X9655390Y-3726660D01*
X9659015Y-3734826D01*
X9665800Y-3739481D01*
X9673609Y-3738612D01*
X9680203Y-3726705D01*
X9677211Y-3711684D01*
X9665732Y-3708021D01*
X9656695Y-3715898D01*
X9655390Y-3726660D01*
X9646357Y-3726660D01*
X9645887Y-3724996D01*
X9649008Y-3708364D01*
X9656756Y-3700816D01*
X9674219Y-3698617D01*
X9687409Y-3707349D01*
G37*
G36*
X9444049Y-3681217D02*
G01*
X9446952Y-3683658D01*
X9444321Y-3686354D01*
X9429671Y-3689153D01*
X9415933Y-3689153D01*
X9414773Y-3698556D01*
X9414773Y-3709059D01*
X9426801Y-3709059D01*
X9440045Y-3710919D01*
X9442799Y-3714493D01*
X9440045Y-3718067D01*
X9426801Y-3719928D01*
X9414773Y-3719928D01*
X9414773Y-3731957D01*
X9413296Y-3745463D01*
X9410742Y-3747955D01*
X9408403Y-3743717D01*
X9406712Y-3713822D01*
X9406712Y-3679689D01*
X9426801Y-3679689D01*
X9444049Y-3681217D01*
G37*
G36*
X9553021Y-3680742D02*
G01*
X9554663Y-3692695D01*
X9555476Y-3701935D01*
X9573333Y-3697859D01*
X9582384Y-3705701D01*
X9585498Y-3728415D01*
X9583532Y-3744799D01*
X9580003Y-3747955D01*
X9576497Y-3744910D01*
X9574568Y-3729331D01*
X9571271Y-3708448D01*
X9563150Y-3708693D01*
X9555762Y-3712784D01*
X9554663Y-3729209D01*
X9552920Y-3745027D01*
X9549900Y-3747955D01*
X9547130Y-3743470D01*
X9545198Y-3713150D01*
X9547131Y-3682774D01*
X9549900Y-3678284D01*
X9553021Y-3680742D01*
G37*
G36*
X9604811Y-3680476D02*
G01*
X9606137Y-3690435D01*
X9605893Y-3702037D01*
X9610533Y-3700877D01*
X9622404Y-3697439D01*
X9632515Y-3702586D01*
X9635669Y-3709506D01*
X9637217Y-3727682D01*
X9635446Y-3744868D01*
X9632454Y-3747955D01*
X9629418Y-3745333D01*
X9627752Y-3731957D01*
X9624211Y-3709731D01*
X9619852Y-3707105D01*
X9612365Y-3708570D01*
X9607846Y-3710830D01*
X9607846Y-3727866D01*
X9604816Y-3744869D01*
X9601618Y-3747955D01*
X9598889Y-3743487D01*
X9596978Y-3713150D01*
X9598910Y-3682774D01*
X9601679Y-3678284D01*
X9604811Y-3680476D01*
G37*
G36*
X9755759Y-3680589D02*
G01*
X9757262Y-3690435D01*
X9757018Y-3702037D01*
X9761719Y-3700816D01*
X9773370Y-3697423D01*
X9782236Y-3702647D01*
X9785387Y-3709516D01*
X9786938Y-3727682D01*
X9785370Y-3745013D01*
X9782846Y-3747955D01*
X9780318Y-3745323D01*
X9778816Y-3730613D01*
X9775336Y-3709059D01*
X9771083Y-3706923D01*
X9763429Y-3708570D01*
X9758911Y-3710830D01*
X9757567Y-3727866D01*
X9755589Y-3744740D01*
X9752072Y-3747955D01*
X9748819Y-3743280D01*
X9746637Y-3713150D01*
X9748819Y-3682965D01*
X9752072Y-3678284D01*
X9755759Y-3680589D01*
G37*
G36*
X9898457Y-3680589D02*
G01*
X9899961Y-3690435D01*
X9899717Y-3702037D01*
X9904418Y-3700816D01*
X9916069Y-3697423D01*
X9924935Y-3702647D01*
X9928086Y-3709516D01*
X9929636Y-3727682D01*
X9928069Y-3745013D01*
X9925545Y-3747955D01*
X9922992Y-3745463D01*
X9921515Y-3731957D01*
X9917974Y-3709731D01*
X9913601Y-3707120D01*
X9906006Y-3708631D01*
X9900266Y-3710952D01*
X9900266Y-3727805D01*
X9898287Y-3744733D01*
X9894771Y-3747955D01*
X9891517Y-3743280D01*
X9889336Y-3713150D01*
X9891518Y-3682965D01*
X9894771Y-3678284D01*
X9898457Y-3680589D01*
G37*
G36*
X9979580Y-3702729D02*
G01*
X9981416Y-3723591D01*
X9979580Y-3744454D01*
X9976653Y-3747955D01*
X9971890Y-3745695D01*
X9965235Y-3746428D01*
X9952473Y-3747893D01*
X9944798Y-3741568D01*
X9941116Y-3717974D01*
X9943047Y-3702286D01*
X9946550Y-3699228D01*
X9950054Y-3702286D01*
X9951985Y-3717974D01*
X9953084Y-3736353D01*
X9960961Y-3738429D01*
X9970120Y-3734338D01*
X9971890Y-3717974D01*
X9973633Y-3702156D01*
X9976653Y-3699228D01*
X9979580Y-3702729D01*
G37*
G36*
X10000664Y-3682587D02*
G01*
X10002360Y-3713150D01*
X10000664Y-3743657D01*
X9998330Y-3747955D01*
X9995995Y-3743657D01*
X9994300Y-3713150D01*
X9995996Y-3682587D01*
X9998330Y-3678284D01*
X10000664Y-3682587D01*
G37*
G36*
X9052194Y-3162016D02*
G01*
X9098462Y-3173493D01*
X9141008Y-3192682D01*
X9180483Y-3219902D01*
X9226706Y-3263316D01*
X9289001Y-3330434D01*
X9318052Y-3372981D01*
X9329410Y-3402778D01*
X9332249Y-3428603D01*
X9329410Y-3455413D01*
X9313075Y-3494787D01*
X9272990Y-3547248D01*
X9220355Y-3599821D01*
X9170591Y-3644029D01*
X9131287Y-3669231D01*
X9088780Y-3686540D01*
X9042363Y-3696175D01*
X8996271Y-3698960D01*
X8952115Y-3693305D01*
X8895940Y-3674738D01*
X8847252Y-3646029D01*
X8804898Y-3606660D01*
X8771598Y-3559420D01*
X8749889Y-3507457D01*
X8739380Y-3449551D01*
X8739192Y-3421532D01*
X8762169Y-3421532D01*
X8765636Y-3465793D01*
X8776908Y-3507430D01*
X8795523Y-3544140D01*
X8821751Y-3576740D01*
X8853890Y-3603747D01*
X8890407Y-3624011D01*
X8932027Y-3637740D01*
X9002918Y-3640488D01*
X9064895Y-3639083D01*
X9100249Y-3630840D01*
X9128548Y-3619072D01*
X9155692Y-3603057D01*
X9198190Y-3564772D01*
X9243497Y-3519465D01*
X9277079Y-3473299D01*
X9288438Y-3438071D01*
X9284122Y-3402556D01*
X9261632Y-3359669D01*
X9225362Y-3320652D01*
X9177918Y-3274551D01*
X9144687Y-3249191D01*
X9109263Y-3231318D01*
X9071123Y-3220451D01*
X9014703Y-3217032D01*
X8952726Y-3217703D01*
X8909987Y-3226440D01*
X8871214Y-3243200D01*
X8835612Y-3268323D01*
X8805613Y-3299892D01*
X8783346Y-3335913D01*
X8768384Y-3377133D01*
X8762169Y-3421532D01*
X8739192Y-3421532D01*
X8739057Y-3401368D01*
X8747455Y-3355115D01*
X8764720Y-3310027D01*
X8789629Y-3268611D01*
X8820486Y-3233584D01*
X8857716Y-3204331D01*
X8898598Y-3181843D01*
X8942521Y-3166832D01*
X8990156Y-3159207D01*
X9017926Y-3158486D01*
X9052194Y-3162016D01*
G37*
G36*
X9622684Y-3599089D02*
G01*
X9627447Y-3608553D01*
X9627530Y-3613497D01*
X9623722Y-3615025D01*
X9617921Y-3609164D01*
X9613992Y-3604495D01*
X9605160Y-3605134D01*
X9598994Y-3610641D01*
X9596672Y-3621437D01*
X9599338Y-3632381D01*
X9606259Y-3636274D01*
X9614278Y-3636323D01*
X9618044Y-3632061D01*
X9621437Y-3628460D01*
X9628851Y-3630046D01*
X9622623Y-3642503D01*
X9608701Y-3647204D01*
X9592856Y-3641134D01*
X9587147Y-3621437D01*
X9590148Y-3605841D01*
X9598016Y-3597379D01*
X9612268Y-3593997D01*
X9622684Y-3599089D01*
G37*
G36*
X9786327Y-3599027D02*
G01*
X9791700Y-3609652D01*
X9793898Y-3619116D01*
X9789704Y-3621915D01*
X9775153Y-3623391D01*
X9760926Y-3623391D01*
X9761658Y-3626688D01*
X9769963Y-3636397D01*
X9776280Y-3636646D01*
X9780648Y-3632855D01*
X9789991Y-3629497D01*
X9794357Y-3634327D01*
X9786083Y-3642625D01*
X9773809Y-3647204D01*
X9760770Y-3643728D01*
X9752377Y-3633344D01*
X9752377Y-3613438D01*
X9761719Y-3613438D01*
X9762391Y-3615025D01*
X9772405Y-3615331D01*
X9783885Y-3615331D01*
X9783091Y-3612217D01*
X9780770Y-3607454D01*
X9770085Y-3605195D01*
X9761719Y-3613438D01*
X9752377Y-3613438D01*
X9752377Y-3612461D01*
X9763063Y-3597379D01*
X9776118Y-3594735D01*
X9786327Y-3599027D01*
G37*
G36*
X9896908Y-3600493D02*
G01*
X9903014Y-3614109D01*
X9904846Y-3623391D01*
X9885734Y-3623391D01*
X9870896Y-3623757D01*
X9872178Y-3630718D01*
X9880971Y-3637740D01*
X9891046Y-3633038D01*
X9897946Y-3629558D01*
X9902880Y-3634480D01*
X9893672Y-3644151D01*
X9884329Y-3647204D01*
X9870757Y-3644157D01*
X9862959Y-3635716D01*
X9859966Y-3619971D01*
X9861283Y-3615331D01*
X9871446Y-3615331D01*
X9881521Y-3615331D01*
X9893000Y-3615331D01*
X9892206Y-3612217D01*
X9890008Y-3607515D01*
X9879261Y-3605134D01*
X9872178Y-3612094D01*
X9871446Y-3615331D01*
X9861283Y-3615331D01*
X9864049Y-3605582D01*
X9872239Y-3597318D01*
X9886462Y-3595083D01*
X9896908Y-3600493D01*
G37*
G36*
X9453424Y-3583701D02*
G01*
X9460613Y-3596074D01*
X9462339Y-3615453D01*
X9457345Y-3633718D01*
X9446646Y-3643541D01*
X9432370Y-3646718D01*
X9417581Y-3642808D01*
X9406639Y-3632002D01*
X9402499Y-3611667D01*
X9403854Y-3604958D01*
X9411290Y-3604958D01*
X9413857Y-3621986D01*
X9423254Y-3635444D01*
X9434861Y-3637740D01*
X9448024Y-3629460D01*
X9452874Y-3610263D01*
X9450121Y-3596510D01*
X9442616Y-3588220D01*
X9429342Y-3585351D01*
X9417642Y-3592128D01*
X9411290Y-3604958D01*
X9403854Y-3604958D01*
X9406603Y-3591337D01*
X9417398Y-3580648D01*
X9435350Y-3576862D01*
X9453424Y-3583701D01*
G37*
G36*
X9522306Y-3583311D02*
G01*
X9523888Y-3590418D01*
X9525292Y-3595547D01*
X9529139Y-3595730D01*
X9537932Y-3600493D01*
X9536126Y-3603807D01*
X9528956Y-3605256D01*
X9523888Y-3605256D01*
X9523888Y-3619910D01*
X9526269Y-3635603D01*
X9532925Y-3637679D01*
X9539016Y-3637675D01*
X9540680Y-3641037D01*
X9533230Y-3646472D01*
X9519370Y-3644029D01*
X9515828Y-3622841D01*
X9514470Y-3607806D01*
X9512286Y-3605256D01*
X9508806Y-3601226D01*
X9512286Y-3597135D01*
X9515828Y-3590174D01*
X9518698Y-3583152D01*
X9522306Y-3583311D01*
G37*
G36*
X9500990Y-3600493D02*
G01*
X9507482Y-3610844D01*
X9500990Y-3613621D01*
X9494823Y-3610263D01*
X9491953Y-3606111D01*
X9487007Y-3603851D01*
X9482733Y-3606111D01*
X9480575Y-3611037D01*
X9488900Y-3615392D01*
X9502064Y-3622137D01*
X9505753Y-3631268D01*
X9501450Y-3641857D01*
X9487007Y-3645800D01*
X9472780Y-3640793D01*
X9469253Y-3632924D01*
X9472353Y-3627909D01*
X9479985Y-3634137D01*
X9487963Y-3637992D01*
X9493968Y-3635420D01*
X9495617Y-3629863D01*
X9485114Y-3624734D01*
X9471347Y-3617679D01*
X9469727Y-3608309D01*
X9479314Y-3597257D01*
X9490879Y-3594988D01*
X9500990Y-3600493D01*
G37*
G36*
X9575118Y-3600493D02*
G01*
X9581671Y-3610839D01*
X9575118Y-3613621D01*
X9570355Y-3610263D01*
X9567485Y-3606111D01*
X9562539Y-3603851D01*
X9556861Y-3606111D01*
X9554968Y-3610902D01*
X9564432Y-3615392D01*
X9576415Y-3622074D01*
X9579881Y-3631268D01*
X9575577Y-3641857D01*
X9561135Y-3645800D01*
X9546908Y-3640671D01*
X9544259Y-3632918D01*
X9546358Y-3627909D01*
X9555579Y-3634198D01*
X9562713Y-3638041D01*
X9569439Y-3635481D01*
X9571760Y-3631268D01*
X9559181Y-3624734D01*
X9546371Y-3617852D01*
X9543855Y-3608431D01*
X9553441Y-3597257D01*
X9565048Y-3594990D01*
X9575118Y-3600493D01*
G37*
G36*
X9645406Y-3577183D02*
G01*
X9647047Y-3589136D01*
X9647157Y-3598778D01*
X9666343Y-3595730D01*
X9674068Y-3602279D01*
X9677822Y-3627054D01*
X9676080Y-3642872D01*
X9673059Y-3645800D01*
X9670025Y-3642943D01*
X9668297Y-3627726D01*
X9665976Y-3607332D01*
X9660412Y-3604559D01*
X9650284Y-3607698D01*
X9647047Y-3609896D01*
X9647047Y-3625650D01*
X9645279Y-3642726D01*
X9642285Y-3645800D01*
X9639482Y-3641231D01*
X9637522Y-3610263D01*
X9639482Y-3579294D01*
X9642285Y-3574725D01*
X9645406Y-3577183D01*
G37*
G36*
X9744867Y-3597135D02*
G01*
X9747737Y-3598966D01*
X9747004Y-3603668D01*
X9744867Y-3610812D01*
X9742119Y-3621925D01*
X9733735Y-3642037D01*
X9728869Y-3645800D01*
X9724569Y-3643545D01*
X9721542Y-3634504D01*
X9715924Y-3616430D01*
X9715191Y-3613926D01*
X9712749Y-3624734D01*
X9706582Y-3642747D01*
X9700537Y-3644396D01*
X9696146Y-3640762D01*
X9687958Y-3620582D01*
X9684647Y-3600477D01*
X9687042Y-3597135D01*
X9690638Y-3599902D01*
X9697117Y-3614781D01*
X9701330Y-3632672D01*
X9702307Y-3628153D01*
X9704750Y-3616796D01*
X9711581Y-3600278D01*
X9715741Y-3597135D01*
X9719690Y-3598915D01*
X9722518Y-3605561D01*
X9728808Y-3629314D01*
X9732777Y-3616674D01*
X9739860Y-3596707D01*
X9744867Y-3597135D01*
G37*
G36*
X9810052Y-3600783D02*
G01*
X9812095Y-3621498D01*
X9810053Y-3642158D01*
X9806660Y-3645800D01*
X9803267Y-3642158D01*
X9801226Y-3621498D01*
X9803268Y-3600783D01*
X9806660Y-3597135D01*
X9810052Y-3600783D01*
G37*
G36*
X9854215Y-3598470D02*
G01*
X9856852Y-3600554D01*
X9842442Y-3622597D01*
X9832245Y-3636274D01*
X9842320Y-3636274D01*
X9855630Y-3637955D01*
X9858256Y-3641037D01*
X9855182Y-3644031D01*
X9838106Y-3645800D01*
X9821085Y-3644032D01*
X9818017Y-3641037D01*
X9832428Y-3620277D01*
X9842930Y-3606233D01*
X9833832Y-3605256D01*
X9821745Y-3603812D01*
X9819422Y-3601226D01*
X9822204Y-3598678D01*
X9838106Y-3597135D01*
X9854215Y-3598470D01*
G37*
G36*
X9938002Y-3600493D02*
G01*
X9933850Y-3605256D01*
X9925851Y-3607759D01*
X9921210Y-3610079D01*
X9921210Y-3625650D01*
X9919663Y-3642884D01*
X9917180Y-3645800D01*
X9914751Y-3642477D01*
X9913150Y-3621498D01*
X9914752Y-3600463D01*
X9917180Y-3597135D01*
X9921027Y-3598966D01*
X9920661Y-3600493D01*
X9926950Y-3595852D01*
X9935576Y-3595339D01*
X9938002Y-3600493D01*
G37*
G36*
X9813499Y-3582297D02*
G01*
X9808736Y-3588464D01*
X9801470Y-3585350D01*
X9802264Y-3578389D01*
X9809347Y-3575519D01*
X9813499Y-3582297D01*
G37*
G36*
X9497204Y-3341168D02*
G01*
X9528586Y-3353416D01*
X9549923Y-3373506D01*
X9563028Y-3402717D01*
X9565898Y-3425607D01*
X9563028Y-3448452D01*
X9553437Y-3472066D01*
X9538605Y-3490411D01*
X9517965Y-3504322D01*
X9482284Y-3513609D01*
X9444326Y-3507192D01*
X9415179Y-3488447D01*
X9395599Y-3457061D01*
X9390620Y-3432235D01*
X9391144Y-3425615D01*
X9424603Y-3425615D01*
X9428900Y-3449379D01*
X9441456Y-3468296D01*
X9460165Y-3480581D01*
X9482672Y-3483806D01*
X9499125Y-3479788D01*
X9513691Y-3470311D01*
X9524686Y-3456387D01*
X9531276Y-3437827D01*
X9532249Y-3417975D01*
X9527185Y-3399908D01*
X9516709Y-3384684D01*
X9501540Y-3374202D01*
X9482351Y-3368815D01*
X9462400Y-3371454D01*
X9441313Y-3382950D01*
X9429034Y-3400348D01*
X9424603Y-3425615D01*
X9391144Y-3425615D01*
X9392730Y-3405587D01*
X9401412Y-3384075D01*
X9416360Y-3364799D01*
X9435888Y-3349926D01*
X9458553Y-3341168D01*
X9477364Y-3339001D01*
X9497204Y-3341168D01*
G37*
G36*
X9670678Y-3341168D02*
G01*
X9691215Y-3347296D01*
X9701208Y-3354479D01*
X9701507Y-3361079D01*
X9692965Y-3377621D01*
X9690706Y-3382079D01*
X9677822Y-3375606D01*
X9659131Y-3369377D01*
X9643811Y-3370050D01*
X9632470Y-3376592D01*
X9628851Y-3387818D01*
X9634652Y-3399786D01*
X9659870Y-3412609D01*
X9686389Y-3426949D01*
X9699804Y-3439842D01*
X9704077Y-3448639D01*
X9705788Y-3463351D01*
X9702300Y-3484567D01*
X9692599Y-3499743D01*
X9677870Y-3508847D01*
X9657916Y-3513604D01*
X9636951Y-3513033D01*
X9617677Y-3507131D01*
X9596941Y-3495944D01*
X9592764Y-3489362D01*
X9600214Y-3478188D01*
X9609190Y-3467014D01*
X9618227Y-3473059D01*
X9642347Y-3483931D01*
X9662557Y-3481119D01*
X9670382Y-3475495D01*
X9673914Y-3465915D01*
X9668968Y-3453642D01*
X9637278Y-3435751D01*
X9616726Y-3424807D01*
X9605038Y-3414868D01*
X9598006Y-3402829D01*
X9595573Y-3387818D01*
X9598443Y-3370294D01*
X9613340Y-3350599D01*
X9639110Y-3339764D01*
X9670678Y-3341168D01*
G37*
G36*
X9845678Y-3355639D02*
G01*
X9845678Y-3368768D01*
X9824124Y-3368768D01*
X9805134Y-3368768D01*
X9805134Y-3438194D01*
X9805134Y-3511466D01*
X9790601Y-3511466D01*
X9774603Y-3511466D01*
X9774603Y-3438194D01*
X9774603Y-3368768D01*
X9757018Y-3368768D01*
X9735463Y-3368768D01*
X9735463Y-3355639D01*
X9735463Y-3341107D01*
X9790601Y-3341107D01*
X9845678Y-3341107D01*
X9845678Y-3355639D01*
G37*
D14*
%TO.C,U505*%
X11730000Y3974400D03*
X11770000Y3974400D03*
X11770000Y4012500D03*
X11730000Y4012500D03*
%TD*%
D15*
%TO.C,C522*%
X11837250Y4385000D03*
X12009750Y4385000D03*
%TD*%
D14*
%TO.C,U504*%
X11511000Y4200600D03*
X11471000Y4200600D03*
X11471000Y4162500D03*
X11511000Y4162500D03*
%TD*%
D16*
%TO.C,SW802*%
X1270000Y-740000D03*
X1270000Y-90000D03*
X1720000Y-740000D03*
X1720000Y-90000D03*
%TD*%
D15*
%TO.C,C608*%
X5203750Y-940000D03*
X5376250Y-940000D03*
%TD*%
D17*
%TO.C,R103*%
X-655000Y-2126250D03*
X-655000Y-1943750D03*
%TD*%
D18*
%TO.C,J104*%
X6250000Y870000D03*
D19*
X6250000Y616000D03*
X5996000Y870000D03*
X5996000Y616000D03*
X5742000Y870000D03*
X5742000Y616000D03*
X5488000Y870000D03*
X5488000Y616000D03*
X5234000Y870000D03*
X5234000Y616000D03*
X4980000Y870000D03*
X4980000Y616000D03*
X4726000Y870000D03*
X4726000Y616000D03*
X4472000Y870000D03*
X4472000Y616000D03*
X4218000Y870000D03*
X4218000Y616000D03*
X3964000Y870000D03*
X3964000Y616000D03*
%TD*%
D15*
%TO.C,C510*%
X12112250Y5592500D03*
X12284750Y5592500D03*
%TD*%
D20*
%TO.C,LED804*%
X-440000Y-350625D03*
X-440000Y-190625D03*
%TD*%
D18*
%TO.C,J801*%
X1000000Y860000D03*
D19*
X1254000Y860000D03*
X1508000Y860000D03*
X1762000Y860000D03*
X2016000Y860000D03*
X2270000Y860000D03*
X2524000Y860000D03*
X2778000Y860000D03*
%TD*%
D21*
%TO.C,R601*%
X4850000Y-1808750D03*
X4850000Y-1991250D03*
%TD*%
D22*
%TO.C,C602*%
X5556000Y19250D03*
X5556000Y-153250D03*
%TD*%
D17*
%TO.C,R102*%
X-3390000Y1963750D03*
X-3390000Y2146250D03*
%TD*%
D23*
%TO.C,C808*%
X1880000Y-2986250D03*
X1880000Y-3193750D03*
%TD*%
D15*
%TO.C,C814*%
X2153750Y-1110000D03*
X2326250Y-1110000D03*
%TD*%
D24*
%TO.C,C805*%
X2556250Y-3000000D03*
X2383750Y-3000000D03*
%TD*%
D22*
%TO.C,C512*%
X12013500Y4868750D03*
X12013500Y4696250D03*
%TD*%
D25*
%TO.C,C521*%
X11341000Y4353750D03*
X11341000Y4526250D03*
%TD*%
D26*
%TO.C,C401*%
X-4810000Y535000D03*
X-4602500Y535000D03*
%TD*%
D27*
%TO.C,R811*%
X1278750Y-970000D03*
X1461250Y-970000D03*
%TD*%
%TO.C,R608*%
X4848750Y-2148750D03*
X5031250Y-2148750D03*
%TD*%
D18*
%TO.C,J601*%
X3587500Y-2917500D03*
D19*
X3333500Y-2917500D03*
X3587500Y-2663500D03*
X3333500Y-2663500D03*
%TD*%
D28*
%TO.C,RV801*%
X-90000Y-3820000D03*
D29*
X410000Y-3820000D03*
X910000Y-3820000D03*
%TD*%
D15*
%TO.C,C618*%
X7163750Y-1956825D03*
X7336250Y-1956825D03*
%TD*%
D17*
%TO.C,R106*%
X-600000Y1408750D03*
X-600000Y1591250D03*
%TD*%
D30*
%TO.C,R805*%
X71250Y-1990000D03*
X-111250Y-1990000D03*
%TD*%
D31*
%TO.C,L701*%
X2385000Y-3150000D03*
X2560000Y-3150000D03*
%TD*%
D19*
%TO.C,J605*%
X4350000Y-3640000D03*
X4350000Y-2940000D03*
D32*
X3980000Y-3560000D03*
D33*
X3980000Y-3840000D03*
D32*
X4720000Y-3750000D03*
D34*
X4720000Y-2810000D03*
D35*
X4275000Y-2410000D03*
%TD*%
D31*
%TO.C,L502*%
X11498500Y4537500D03*
X11673500Y4537500D03*
%TD*%
D16*
%TO.C,SW803*%
X2150000Y-730000D03*
X2150000Y-80000D03*
X2600000Y-730000D03*
X2600000Y-80000D03*
%TD*%
D36*
%TO.C,RN402*%
X-1680000Y1370000D03*
D37*
X-1600000Y1370000D03*
X-1520000Y1370000D03*
D36*
X-1440000Y1370000D03*
X-1440000Y1550000D03*
D37*
X-1520000Y1550000D03*
X-1600000Y1550000D03*
D36*
X-1680000Y1550000D03*
%TD*%
D38*
%TO.C,R503*%
X11416000Y3842500D03*
X11416000Y3642500D03*
%TD*%
D18*
%TO.C,CN205*%
X-697401Y2410250D03*
D19*
X-697401Y2664250D03*
X-443401Y2410250D03*
X-443401Y2664250D03*
X-189401Y2410250D03*
X-189401Y2664250D03*
X64599Y2410250D03*
X64599Y2664250D03*
X318599Y2410250D03*
X318599Y2664250D03*
X572599Y2410250D03*
X572599Y2664250D03*
X826599Y2410250D03*
X826599Y2664250D03*
X1080599Y2410250D03*
X1080599Y2664250D03*
X1334599Y2410250D03*
X1334599Y2664250D03*
X1588599Y2410250D03*
X1588599Y2664250D03*
X1842599Y2410250D03*
X1842599Y2664250D03*
X2096599Y2410250D03*
X2096599Y2664250D03*
X2350599Y2410250D03*
X2350599Y2664250D03*
X2604599Y2410250D03*
X2604599Y2664250D03*
X2858599Y2410250D03*
X2858599Y2664250D03*
X3112599Y2410250D03*
X3112599Y2664250D03*
X3366599Y2410250D03*
X3366599Y2664250D03*
%TD*%
D21*
%TO.C,R801*%
X-440000Y-609375D03*
X-440000Y-791875D03*
%TD*%
D15*
%TO.C,C811*%
X993750Y-1360000D03*
X1166250Y-1360000D03*
%TD*%
D39*
%TO.C,R505*%
X12071000Y3455000D03*
X12271000Y3455000D03*
%TD*%
D24*
%TO.C,C506*%
X11092250Y5085000D03*
X10919750Y5085000D03*
%TD*%
D18*
%TO.C,MK601*%
X3035000Y-3792500D03*
D19*
X3035000Y-3538500D03*
%TD*%
D24*
%TO.C,C534*%
X12287250Y5437500D03*
X12114750Y5437500D03*
%TD*%
D25*
%TO.C,C621*%
X6730000Y-3036250D03*
X6730000Y-2863750D03*
%TD*%
D15*
%TO.C,C523*%
X11499750Y4385000D03*
X11672250Y4385000D03*
%TD*%
D25*
%TO.C,C528*%
X12258500Y3675000D03*
X12258500Y3847500D03*
%TD*%
D40*
%TO.C,R501*%
X12436000Y5110000D03*
X12236000Y5110000D03*
%TD*%
D21*
%TO.C,R604*%
X7000000Y-1935575D03*
X7000000Y-2118075D03*
%TD*%
D22*
%TO.C,C612*%
X5000000Y-1813750D03*
X5000000Y-1986250D03*
%TD*%
D21*
%TO.C,R612*%
X3340000Y-2212500D03*
X3340000Y-2395000D03*
%TD*%
D18*
%TO.C,CN201*%
X5400000Y4810000D03*
D19*
X5654000Y4810000D03*
X5400000Y5064000D03*
X5654000Y5064000D03*
X5400000Y5318000D03*
X5654000Y5318000D03*
X5400000Y5572000D03*
X5654000Y5572000D03*
X5400000Y5826000D03*
X5654000Y5826000D03*
X5400000Y6080000D03*
X5654000Y6080000D03*
X5400000Y6334000D03*
X5654000Y6334000D03*
X5400000Y6588000D03*
X5654000Y6588000D03*
%TD*%
D28*
%TO.C,RV802*%
X-1960000Y-3820000D03*
D29*
X-1460000Y-3820000D03*
X-960000Y-3820000D03*
%TD*%
D14*
%TO.C,U506*%
X12036000Y4202500D03*
X11996000Y4202500D03*
X11996000Y4164400D03*
X12036000Y4164400D03*
%TD*%
D41*
%TO.C,D502*%
X11836000Y3642500D03*
X11646000Y3642500D03*
X11741000Y3415000D03*
%TD*%
D21*
%TO.C,R611*%
X5590000Y-978750D03*
X5590000Y-1161250D03*
%TD*%
D42*
%TO.C,U601*%
X5817500Y-308750D03*
X5767500Y-308750D03*
X5717500Y-308750D03*
X5667500Y-308750D03*
X5617500Y-308750D03*
X5567500Y-308750D03*
X5517500Y-308750D03*
X5467500Y-308750D03*
D43*
X5398750Y-377500D03*
X5398750Y-427500D03*
X5398750Y-477500D03*
X5398750Y-527500D03*
X5398750Y-577500D03*
X5398750Y-627500D03*
X5398750Y-677500D03*
X5398750Y-727500D03*
D42*
X5467500Y-796250D03*
X5517500Y-796250D03*
X5567500Y-796250D03*
X5617500Y-796250D03*
X5667500Y-796250D03*
X5717500Y-796250D03*
X5767500Y-796250D03*
X5817500Y-796250D03*
D43*
X5886250Y-727500D03*
X5886250Y-677500D03*
X5886250Y-627500D03*
X5886250Y-577500D03*
X5886250Y-527500D03*
X5886250Y-477500D03*
X5886250Y-427500D03*
X5886250Y-377500D03*
D44*
X5642500Y-552500D03*
%TD*%
D18*
%TO.C,J102*%
X7326000Y7190000D03*
D19*
X7072000Y7190000D03*
X7326000Y7444000D03*
X7072000Y7444000D03*
X7326000Y7698000D03*
X7072000Y7698000D03*
%TD*%
D15*
%TO.C,C619*%
X7163750Y-2116825D03*
X7336250Y-2116825D03*
%TD*%
%TO.C,C511*%
X12112250Y5747500D03*
X12284750Y5747500D03*
%TD*%
D25*
%TO.C,C504*%
X11261000Y5476250D03*
X11261000Y5648750D03*
%TD*%
D27*
%TO.C,R813*%
X3018750Y-960000D03*
X3201250Y-960000D03*
%TD*%
D25*
%TO.C,C533*%
X12258500Y4012500D03*
X12258500Y4185000D03*
%TD*%
D45*
%TO.C,Y501*%
X10943500Y5240000D03*
X11088500Y5240000D03*
X11088500Y5355000D03*
X10943500Y5355000D03*
%TD*%
D22*
%TO.C,C807*%
X1700000Y-2983750D03*
X1700000Y-3156250D03*
%TD*%
D46*
%TO.C,J701*%
X2090000Y-3542000D03*
D47*
X2292000Y-3542000D03*
D48*
X2415000Y-3542000D03*
D46*
X2190000Y-3542000D03*
D47*
X1988000Y-3542000D03*
D48*
X1865000Y-3542000D03*
D49*
X1708000Y-3560000D03*
X1708000Y-3940000D03*
X2572000Y-3560000D03*
X2572000Y-3940000D03*
%TD*%
D27*
%TO.C,R808*%
X988750Y-1610000D03*
X1171250Y-1610000D03*
%TD*%
D18*
%TO.C,J802*%
X156000Y-2935000D03*
D19*
X156000Y-2681000D03*
X410000Y-2935000D03*
X410000Y-2681000D03*
X664000Y-2935000D03*
X664000Y-2681000D03*
%TD*%
D24*
%TO.C,C617*%
X6386250Y-2116825D03*
X6213750Y-2116825D03*
%TD*%
D50*
%TO.C,R301*%
X-5520000Y-4020000D03*
X-5520000Y-3820000D03*
%TD*%
D18*
%TO.C,J103*%
X-1868000Y606000D03*
D19*
X-1868000Y860000D03*
X-1614000Y606000D03*
X-1614000Y860000D03*
X-1360000Y606000D03*
X-1360000Y860000D03*
X-1106000Y606000D03*
X-1106000Y860000D03*
X-852000Y606000D03*
X-852000Y860000D03*
X-598000Y606000D03*
X-598000Y860000D03*
X-344000Y606000D03*
X-344000Y860000D03*
X-90000Y606000D03*
X-90000Y860000D03*
%TD*%
D21*
%TO.C,R802*%
X-70000Y-608750D03*
X-70000Y-791250D03*
%TD*%
D22*
%TO.C,C615*%
X5152000Y-1814750D03*
X5152000Y-1987250D03*
%TD*%
%TO.C,C520*%
X12168500Y4532500D03*
X12168500Y4360000D03*
%TD*%
D15*
%TO.C,C815*%
X3023750Y-1110000D03*
X3196250Y-1110000D03*
%TD*%
D16*
%TO.C,SW804*%
X3020000Y-730000D03*
X3020000Y-80000D03*
X3470000Y-730000D03*
X3470000Y-80000D03*
%TD*%
D25*
%TO.C,C502*%
X10763500Y5246250D03*
X10763500Y5418750D03*
%TD*%
D24*
%TO.C,C508*%
X11092250Y4925000D03*
X10919750Y4925000D03*
%TD*%
D15*
%TO.C,C609*%
X5203750Y-1090000D03*
X5376250Y-1090000D03*
%TD*%
D18*
%TO.C,J105*%
X8413000Y6942000D03*
D19*
X8413000Y6688000D03*
X8413000Y6434000D03*
X8413000Y6180000D03*
X8413000Y5926000D03*
X8413000Y5672000D03*
X8413000Y5418000D03*
X8413000Y5164000D03*
%TD*%
D51*
%TO.C,U801*%
X282500Y-1359000D03*
X282500Y-1486000D03*
X282500Y-1613000D03*
X282500Y-1740000D03*
X282500Y-1867000D03*
X282500Y-1994000D03*
X282500Y-2121000D03*
X777500Y-2121000D03*
X777500Y-1994000D03*
X777500Y-1867000D03*
X777500Y-1740000D03*
X777500Y-1613000D03*
X777500Y-1486000D03*
X777500Y-1359000D03*
%TD*%
D52*
%TO.C,U701*%
X2490000Y-2669750D03*
D53*
X2236000Y-2669750D03*
X1982000Y-2669750D03*
%TD*%
D21*
%TO.C,R602*%
X4330000Y-1808750D03*
X4330000Y-1991250D03*
%TD*%
D27*
%TO.C,R814*%
X408750Y-960000D03*
X591250Y-960000D03*
%TD*%
D17*
%TO.C,R702*%
X2060000Y-3181250D03*
X2060000Y-2998750D03*
%TD*%
D22*
%TO.C,C809*%
X2380000Y-1723750D03*
X2380000Y-1896250D03*
%TD*%
D21*
%TO.C,R605*%
X6850000Y-1935575D03*
X6850000Y-2118075D03*
%TD*%
D15*
%TO.C,C526*%
X11667250Y4232500D03*
X11839750Y4232500D03*
%TD*%
D24*
%TO.C,C620*%
X4326250Y-1530000D03*
X4153750Y-1530000D03*
%TD*%
D40*
%TO.C,R303*%
X-4465000Y-1210000D03*
X-4665000Y-1210000D03*
%TD*%
D54*
%TO.C,J603*%
X6370500Y-3356750D03*
D55*
X6720500Y-3356750D03*
X7070500Y-3356750D03*
X7420500Y-3356750D03*
%TD*%
D36*
%TO.C,RN401*%
X-2299401Y6530250D03*
D37*
X-2219401Y6530250D03*
X-2139401Y6530250D03*
D36*
X-2059401Y6530250D03*
X-2059401Y6710250D03*
D37*
X-2139401Y6710250D03*
X-2219401Y6710250D03*
D36*
X-2299401Y6710250D03*
%TD*%
D24*
%TO.C,C501*%
X11089750Y5530000D03*
X10917250Y5530000D03*
%TD*%
D22*
%TO.C,C514*%
X11493500Y4863750D03*
X11493500Y4691250D03*
%TD*%
D16*
%TO.C,SW801*%
X410000Y-730000D03*
X410000Y-80000D03*
X860000Y-730000D03*
X860000Y-80000D03*
%TD*%
D18*
%TO.C,CN203*%
X-189401Y6982250D03*
D19*
X-189401Y7236250D03*
X64599Y6982250D03*
X64599Y7236250D03*
X318599Y6982250D03*
X318599Y7236250D03*
X572599Y6982250D03*
X572599Y7236250D03*
X826599Y6982250D03*
X826599Y7236250D03*
X1080599Y6982250D03*
X1080599Y7236250D03*
X1334599Y6982250D03*
X1334599Y7236250D03*
X1588599Y6982250D03*
X1588599Y7236250D03*
X1842599Y6982250D03*
X1842599Y7236250D03*
X2096599Y6982250D03*
X2096599Y7236250D03*
X2350599Y6982250D03*
X2350599Y7236250D03*
X2604599Y6982250D03*
X2604599Y7236250D03*
X2858599Y6982250D03*
X2858599Y7236250D03*
X3112599Y6982250D03*
X3112599Y7236250D03*
X3366599Y6982250D03*
X3366599Y7236250D03*
%TD*%
D22*
%TO.C,C601*%
X5401000Y19250D03*
X5401000Y-153250D03*
%TD*%
D18*
%TO.C,J301*%
X-915000Y-2018388D03*
D19*
X-1169000Y-2018388D03*
X-915000Y-1764388D03*
X-1169000Y-1764388D03*
X-915000Y-1510388D03*
X-1169000Y-1510388D03*
X-915000Y-1256388D03*
X-1169000Y-1256388D03*
X-915000Y-1002388D03*
X-1169000Y-1002388D03*
X-915000Y-748388D03*
X-1169000Y-748388D03*
%TD*%
%TO.C,J602*%
X5490000Y-3640000D03*
X5490000Y-2940000D03*
D32*
X5120000Y-3560000D03*
D33*
X5120000Y-3840000D03*
D32*
X5860000Y-3750000D03*
D34*
X5860000Y-2810000D03*
D35*
X5415000Y-2410000D03*
%TD*%
D15*
%TO.C,C524*%
X11399750Y4008950D03*
X11572250Y4008950D03*
%TD*%
D50*
%TO.C,R506*%
X-1200000Y6500000D03*
X-1200000Y6700000D03*
%TD*%
D22*
%TO.C,C614*%
X4030000Y-1813750D03*
X4030000Y-1986250D03*
%TD*%
D24*
%TO.C,C516*%
X11092250Y4760000D03*
X10919750Y4760000D03*
%TD*%
D56*
%TO.C,U702*%
X1980000Y-1720000D03*
X1980000Y-1815000D03*
X1980000Y-1910000D03*
X2207500Y-1910000D03*
X2207500Y-1720000D03*
%TD*%
D23*
%TO.C,C806*%
X2740000Y-2996250D03*
X2740000Y-3203750D03*
%TD*%
D24*
%TO.C,C603*%
X6216250Y-40000D03*
X6043750Y-40000D03*
%TD*%
D21*
%TO.C,R610*%
X5740000Y-978750D03*
X5740000Y-1161250D03*
%TD*%
D30*
%TO.C,R609*%
X4331250Y-2150000D03*
X4148750Y-2150000D03*
%TD*%
D25*
%TO.C,C605*%
X5900000Y-1126250D03*
X5900000Y-953750D03*
%TD*%
D17*
%TO.C,R101*%
X-3130000Y1963750D03*
X-3130000Y2146250D03*
%TD*%
D25*
%TO.C,C519*%
X10604000Y4754750D03*
X10604000Y4927250D03*
%TD*%
%TO.C,C606*%
X6050000Y-1126250D03*
X6050000Y-953750D03*
%TD*%
%TO.C,C622*%
X6880000Y-3036250D03*
X6880000Y-2863750D03*
%TD*%
%TO.C,C503*%
X11433500Y5666250D03*
X11433500Y5838750D03*
%TD*%
D41*
%TO.C,Q501*%
X12708500Y4656250D03*
X12518500Y4656250D03*
X12613500Y4428750D03*
%TD*%
D20*
%TO.C,LED801*%
X-70000Y-350000D03*
X-70000Y-190000D03*
%TD*%
D25*
%TO.C,C509*%
X10451000Y4753750D03*
X10451000Y4926250D03*
%TD*%
D57*
%TO.C,U301*%
X-5863500Y-3615000D03*
X-5736500Y-3615000D03*
X-5609500Y-3615000D03*
X-5482500Y-3615000D03*
X-5355500Y-3615000D03*
X-5228500Y-3615000D03*
X-5101500Y-3615000D03*
X-4974500Y-3615000D03*
X-4847500Y-3615000D03*
X-4720500Y-3615000D03*
X-4593500Y-3615000D03*
X-4466500Y-3615000D03*
X-4339500Y-3615000D03*
X-4212500Y-3615000D03*
D58*
X-4087500Y-3311000D03*
X-4087500Y-3184000D03*
X-4087500Y-3057000D03*
X-4087500Y-2930000D03*
X-4087500Y-2803000D03*
X-4087500Y-2676000D03*
X-4087500Y-2549000D03*
X-4087500Y-2422000D03*
X-4087500Y-2295000D03*
X-4087500Y-2168000D03*
D57*
X-4212500Y-1865000D03*
X-4339500Y-1865000D03*
X-4466500Y-1865000D03*
X-4593500Y-1865000D03*
X-4720500Y-1865000D03*
X-4847500Y-1865000D03*
X-4974500Y-1865000D03*
X-5101500Y-1865000D03*
X-5228500Y-1865000D03*
X-5355500Y-1865000D03*
X-5482500Y-1865000D03*
X-5609500Y-1865000D03*
X-5736500Y-1865000D03*
X-5863500Y-1865000D03*
D59*
X-5205750Y-2960500D03*
X-5053250Y-2960500D03*
X-5282000Y-2884250D03*
X-5129500Y-2884250D03*
X-4977000Y-2884250D03*
X-5205750Y-2808000D03*
D60*
X-5129500Y-2808000D03*
D59*
X-5053250Y-2808000D03*
X-5282000Y-2731750D03*
X-5129500Y-2731750D03*
X-4977000Y-2731750D03*
X-5205750Y-2655500D03*
X-5053250Y-2655500D03*
%TD*%
D61*
%TO.C,U503*%
X12358500Y4417500D03*
X12358500Y4457500D03*
X12320400Y4457500D03*
X12320400Y4417500D03*
%TD*%
D26*
%TO.C,C302*%
X-1142650Y-450388D03*
X-935150Y-450388D03*
%TD*%
D15*
%TO.C,C813*%
X1283750Y-1120000D03*
X1456250Y-1120000D03*
%TD*%
D26*
%TO.C,C610*%
X5556250Y-1560000D03*
X5763750Y-1560000D03*
%TD*%
D24*
%TO.C,C616*%
X6386250Y-1956825D03*
X6213750Y-1956825D03*
%TD*%
D61*
%TO.C,U502*%
X11190050Y4417500D03*
X11190050Y4457500D03*
X11151950Y4457500D03*
X11151950Y4417500D03*
%TD*%
D26*
%TO.C,C611*%
X5552500Y-1350000D03*
X5760000Y-1350000D03*
%TD*%
D25*
%TO.C,C505*%
X12446000Y5291250D03*
X12446000Y5463750D03*
%TD*%
%TO.C,C518*%
X10757000Y4753250D03*
X10757000Y4925750D03*
%TD*%
D18*
%TO.C,J303*%
X-4554000Y-1490000D03*
D19*
X-4808000Y-1490000D03*
X-5062000Y-1490000D03*
X-5316000Y-1490000D03*
X-5570000Y-1490000D03*
X-5824000Y-1490000D03*
%TD*%
D27*
%TO.C,R809*%
X-111250Y-1610000D03*
X71250Y-1610000D03*
%TD*%
D18*
%TO.C,CN202*%
X-2475401Y6982250D03*
D19*
X-2475401Y7236250D03*
X-2221401Y6982250D03*
X-2221401Y7236250D03*
X-1967401Y6982250D03*
X-1967401Y7236250D03*
X-1713401Y6982250D03*
X-1713401Y7236250D03*
X-1459401Y6982250D03*
X-1459401Y7236250D03*
X-1205401Y6982250D03*
X-1205401Y7236250D03*
X-951401Y6982250D03*
X-951401Y7236250D03*
X-697401Y6982250D03*
X-697401Y7236250D03*
%TD*%
D62*
%TO.C,L501*%
X12011000Y4537500D03*
X11836000Y4537500D03*
%TD*%
D63*
%TO.C,U501*%
X11429250Y5441500D03*
X11429250Y5391500D03*
X11429250Y5341500D03*
X11429250Y5291500D03*
X11429250Y5241500D03*
X11429250Y5191500D03*
X11429250Y5141500D03*
X11429250Y5091500D03*
D64*
X11498000Y5022750D03*
X11548000Y5022750D03*
X11598000Y5022750D03*
X11648000Y5022750D03*
X11698000Y5022750D03*
X11748000Y5022750D03*
X11798000Y5022750D03*
X11848000Y5022750D03*
D63*
X11916750Y5091500D03*
X11916750Y5141500D03*
X11916750Y5191500D03*
X11916750Y5241500D03*
X11916750Y5291500D03*
X11916750Y5341500D03*
X11916750Y5391500D03*
X11916750Y5441500D03*
D64*
X11848000Y5510250D03*
X11798000Y5510250D03*
X11748000Y5510250D03*
X11698000Y5510250D03*
X11648000Y5510250D03*
X11598000Y5510250D03*
X11548000Y5510250D03*
X11498000Y5510250D03*
D65*
X11673000Y5266500D03*
%TD*%
D66*
%TO.C,J401*%
X-5010401Y205750D03*
X-5010401Y315750D03*
X-5010401Y425750D03*
X-5010401Y535750D03*
X-5010401Y645750D03*
X-5010401Y755750D03*
X-5010401Y865750D03*
X-5010401Y975750D03*
X-5010401Y1070750D03*
D67*
X-6060401Y1165750D03*
D68*
X-5440401Y1165750D03*
D69*
X-6475401Y1165750D03*
D68*
X-5010401Y50750D03*
D70*
X-6520401Y-184250D03*
%TD*%
D30*
%TO.C,R603*%
X6221250Y-340000D03*
X6038750Y-340000D03*
%TD*%
D71*
%TO.C,C301*%
X-5716250Y-3830000D03*
X-5923750Y-3830000D03*
%TD*%
D24*
%TO.C,C507*%
X10754750Y5085000D03*
X10582250Y5085000D03*
%TD*%
%TO.C,C532*%
X12287250Y5285000D03*
X12114750Y5285000D03*
%TD*%
D27*
%TO.C,R806*%
X988750Y-2120000D03*
X1171250Y-2120000D03*
%TD*%
D25*
%TO.C,C607*%
X6200000Y-1126250D03*
X6200000Y-953750D03*
%TD*%
D50*
%TO.C,R302*%
X-4274000Y-1600000D03*
X-4274000Y-1400000D03*
%TD*%
D22*
%TO.C,C517*%
X10996000Y4583750D03*
X10996000Y4411250D03*
%TD*%
D17*
%TO.C,R107*%
X-340000Y1408750D03*
X-340000Y1591250D03*
%TD*%
D72*
%TO.C,J501*%
X11690000Y4796000D03*
D73*
X11817000Y4796000D03*
%TD*%
D15*
%TO.C,C810*%
X2383750Y-3300000D03*
X2556250Y-3300000D03*
%TD*%
D24*
%TO.C,C525*%
X12098750Y4008450D03*
X11926250Y4008450D03*
%TD*%
D38*
%TO.C,R504*%
X12081000Y3842500D03*
X12081000Y3642500D03*
%TD*%
D22*
%TO.C,C515*%
X11341000Y4863750D03*
X11341000Y4691250D03*
%TD*%
%TO.C,C613*%
X4180000Y-1813750D03*
X4180000Y-1986250D03*
%TD*%
D39*
%TO.C,R507*%
X-4810000Y1170000D03*
X-4610000Y1170000D03*
%TD*%
D74*
%TO.C,SW601*%
X5412500Y-1749500D03*
X5412500Y-1876500D03*
X5412500Y-2003500D03*
X5412500Y-2130500D03*
X5947500Y-2130500D03*
X5947500Y-2003500D03*
X5947500Y-1876500D03*
X5947500Y-1749500D03*
%TD*%
D17*
%TO.C,R701*%
X2220000Y-3181250D03*
X2220000Y-2998750D03*
%TD*%
D27*
%TO.C,R810*%
X-111250Y-1360000D03*
X71250Y-1360000D03*
%TD*%
%TO.C,R812*%
X2148750Y-960000D03*
X2331250Y-960000D03*
%TD*%
D18*
%TO.C,CN204*%
X-3389801Y2410250D03*
D19*
X-3389801Y2664250D03*
X-3135801Y2410250D03*
X-3135801Y2664250D03*
X-2881801Y2410250D03*
X-2881801Y2664250D03*
X-2627801Y2410250D03*
X-2627801Y2664250D03*
X-2373801Y2410250D03*
X-2373801Y2664250D03*
X-2119801Y2410250D03*
X-2119801Y2664250D03*
X-1865801Y2410250D03*
X-1865801Y2664250D03*
X-1611801Y2410250D03*
X-1611801Y2664250D03*
X-1357801Y2410250D03*
X-1357801Y2664250D03*
X-1103801Y2410250D03*
X-1103801Y2664250D03*
%TD*%
D25*
%TO.C,C531*%
X11241000Y4015000D03*
X11241000Y4187500D03*
%TD*%
D21*
%TO.C,R607*%
X6700000Y-1935575D03*
X6700000Y-2118075D03*
%TD*%
D24*
%TO.C,C604*%
X6216250Y-190000D03*
X6043750Y-190000D03*
%TD*%
D18*
%TO.C,J803*%
X-1714000Y-2935000D03*
D19*
X-1714000Y-2681000D03*
X-1460000Y-2935000D03*
X-1460000Y-2681000D03*
X-1206000Y-2935000D03*
X-1206000Y-2681000D03*
%TD*%
D21*
%TO.C,R606*%
X6550000Y-1935575D03*
X6550000Y-2118075D03*
%TD*%
D39*
%TO.C,R502*%
X12178500Y4852500D03*
X12378500Y4852500D03*
%TD*%
D22*
%TO.C,C527*%
X11241000Y3850000D03*
X11241000Y3677500D03*
%TD*%
D18*
%TO.C,J604*%
X4590000Y-2040000D03*
D19*
X4590000Y-1786000D03*
X4590000Y-1532000D03*
%TD*%
D75*
%TO.C,U602*%
X6930000Y-2338750D03*
X6890000Y-2338750D03*
X6850000Y-2338750D03*
X6810000Y-2338750D03*
X6770000Y-2338750D03*
X6730000Y-2338750D03*
X6690000Y-2338750D03*
X6690000Y-2636250D03*
X6730000Y-2636250D03*
X6770000Y-2636250D03*
X6810000Y-2636250D03*
X6850000Y-2636250D03*
X6890000Y-2636250D03*
X6930000Y-2636250D03*
D76*
X6810000Y-2487500D03*
%TD*%
D15*
%TO.C,C812*%
X413750Y-1110000D03*
X586250Y-1110000D03*
%TD*%
D22*
%TO.C,C513*%
X10840000Y4582750D03*
X10840000Y4410250D03*
%TD*%
D18*
%TO.C,J106*%
X7072000Y6682000D03*
D19*
X7326000Y6682000D03*
X7072000Y6428000D03*
X7326000Y6428000D03*
X7072000Y6174000D03*
X7326000Y6174000D03*
X7072000Y5920000D03*
X7326000Y5920000D03*
X7072000Y5666000D03*
X7326000Y5666000D03*
X7072000Y5412000D03*
X7326000Y5412000D03*
X7072000Y5158000D03*
X7326000Y5158000D03*
X7072000Y4904000D03*
X7326000Y4904000D03*
X7072000Y4650000D03*
X7326000Y4650000D03*
X7072000Y4396000D03*
X7326000Y4396000D03*
%TD*%
D27*
%TO.C,R807*%
X987500Y-1870000D03*
X1170000Y-1870000D03*
%TD*%
D77*
%TO.C,A101*%
X9340000Y6942000D03*
D78*
X9340000Y6688000D03*
X9340000Y6434000D03*
X9340000Y6180000D03*
X9340000Y5926000D03*
X9340000Y5672000D03*
X9340000Y5418000D03*
X9340000Y5164000D03*
X9340000Y4656000D03*
X9340000Y4402000D03*
X9340000Y4148000D03*
X9340000Y3894000D03*
X9340000Y3640000D03*
X9340000Y3386000D03*
X14166000Y3386000D03*
X14166000Y3640000D03*
X14166000Y3894000D03*
X14166000Y4148000D03*
X14166000Y4402000D03*
X14166000Y4656000D03*
X14166000Y4910000D03*
X14166000Y5164000D03*
X14166000Y5570000D03*
X14166000Y5824000D03*
X14166000Y6078000D03*
X14166000Y6332000D03*
X14166000Y6586000D03*
X14166000Y6840000D03*
X14166000Y7094000D03*
X14166000Y7348000D03*
X14166000Y7602000D03*
X14166000Y7856000D03*
%TD*%
D79*
X5665000Y2260000D03*
D59*
X8030000Y6127000D03*
X8030000Y5260000D03*
X8030000Y6238000D03*
X8030000Y-1245000D03*
D79*
X14000000Y-2500000D03*
D59*
X8030000Y5872000D03*
X8030000Y5332000D03*
D79*
X7500000Y-2500000D03*
X-3500000Y-2500000D03*
D59*
X8030000Y3540000D03*
X8030000Y6815000D03*
X8030000Y6489000D03*
X8030000Y6055000D03*
D79*
X-6195000Y2260000D03*
D59*
X8030000Y6887000D03*
X8030000Y6633000D03*
D79*
X11000000Y7420000D03*
D59*
X8030000Y6382000D03*
D79*
X11741000Y-1414400D03*
D59*
X8030000Y6743000D03*
X8030000Y5983000D03*
X8030000Y5800000D03*
X8030000Y6310000D03*
X8030000Y5590000D03*
X8030000Y5728000D03*
X8030000Y-2835000D03*
X8030000Y1950000D03*
D79*
X8500000Y-2500000D03*
D59*
X8030000Y355000D03*
X8030000Y5518000D03*
X8030000Y6560000D03*
D79*
X-6195000Y7420000D03*
X5670000Y7420000D03*
D59*
X11623400Y4910047D03*
X-1590000Y6870000D03*
X-6565000Y8185000D03*
X1299375Y-1360000D03*
X7695000Y-2245000D03*
X7710000Y5045000D03*
X11300147Y5181500D03*
X8275000Y5020000D03*
X11400000Y5997400D03*
X8260000Y7090000D03*
X-1280000Y-875000D03*
X-239375Y-1610000D03*
X6218000Y-2797000D03*
X1589375Y-1120000D03*
X8230000Y3540000D03*
X14225000Y5370000D03*
X5415625Y-820000D03*
X1700000Y-3274375D03*
X-485000Y330000D03*
X12005000Y5675000D03*
X-239375Y-1360000D03*
X11886000Y-1068500D03*
X14235000Y2575000D03*
X11742600Y1857400D03*
X12215000Y4710000D03*
X1410000Y-4125000D03*
X6105625Y-2040000D03*
X-2770000Y6720000D03*
X1490000Y-1605000D03*
X-2610000Y6865000D03*
X3329375Y-1110000D03*
X-6565000Y1315000D03*
X11741000Y2231500D03*
X719375Y-1110000D03*
X12445000Y5655000D03*
X-1240000Y-590000D03*
X6324375Y-120000D03*
X4012000Y-3013000D03*
X315000Y6805000D03*
X6581000Y-2871000D03*
X7620000Y-4115000D03*
X9295000Y4945000D03*
X10917658Y4655793D03*
X-2400000Y6775000D03*
X5035000Y-4130000D03*
X11595300Y1982400D03*
X-2430000Y-4120000D03*
X2459375Y-1110000D03*
X4035625Y-1530000D03*
X-5920000Y-3957875D03*
X11243500Y4500000D03*
X11950000Y3735000D03*
X11889000Y-815000D03*
X-4560000Y783000D03*
X-1915000Y6640000D03*
X6984375Y-2480000D03*
X-6560000Y1020000D03*
X8565000Y5015000D03*
X7245000Y-3160000D03*
X5477250Y129875D03*
X11865000Y5645000D03*
X11738000Y2560000D03*
X10920000Y4411250D03*
X7685000Y8190000D03*
X11879486Y4931337D03*
X2140000Y-2885625D03*
X14245000Y8205000D03*
X2950000Y-4125000D03*
X-6350000Y-300000D03*
X8275000Y8190000D03*
X-4940000Y-1619000D03*
X7710000Y5290000D03*
X-1150000Y395800D03*
X11420000Y4690000D03*
X3915625Y-1990000D03*
X11738000Y2649000D03*
X-5863000Y-3443000D03*
X5201000Y-1211000D03*
X11596450Y-692600D03*
X6050000Y-1234375D03*
X7444375Y-2043825D03*
X11755000Y4387500D03*
X7246000Y-3474000D03*
X-4600000Y644375D03*
X12595000Y5375000D03*
X-525000Y-4105000D03*
X-3955625Y-3319500D03*
X-6535000Y240000D03*
X-6220000Y1165000D03*
X11873510Y2232400D03*
X295000Y415000D03*
X570000Y6805000D03*
X5285625Y-2130000D03*
X11169629Y5240982D03*
X-465000Y55000D03*
X11530000Y3510000D03*
X12611000Y4320000D03*
X3535000Y-4120000D03*
X-5922000Y1160000D03*
X6052000Y-3240000D03*
X14240000Y8025000D03*
X11740000Y3555000D03*
X11596900Y-944400D03*
X660000Y320000D03*
X12495573Y4813074D03*
X4670000Y-4130000D03*
X2494375Y-1900000D03*
X2055000Y-1215000D03*
X5677000Y-2132000D03*
X6371000Y-3084000D03*
X7695000Y-2765000D03*
X8240000Y5275000D03*
X-5905000Y-4120000D03*
X300000Y-550000D03*
X11681000Y3922500D03*
X14245000Y3235000D03*
X12575000Y5970000D03*
X6810000Y-2955625D03*
X11595990Y2232400D03*
X275000Y-1145000D03*
X11885800Y2107400D03*
X11550000Y3750000D03*
X-925000Y395000D03*
X11855000Y6010000D03*
X-1375000Y-1175000D03*
X8275000Y2585000D03*
X2874375Y-3200000D03*
X11190000Y4650000D03*
X6635625Y-2487500D03*
X6750000Y-2213000D03*
X1990000Y-3380000D03*
X1000000Y-1251250D03*
X2459375Y-960000D03*
X905000Y-1360000D03*
X1988127Y-3288243D03*
X2290000Y-3280000D03*
X-440000Y-75625D03*
X6950539Y-2252172D03*
X2290000Y-3380000D03*
X-70000Y-75625D03*
X719375Y-960000D03*
X6810000Y-2776250D03*
X1589375Y-970000D03*
X3329375Y-960000D03*
X1298125Y-1870000D03*
X5380000Y-1200000D03*
X1299375Y-1610000D03*
X1250000Y-2770000D03*
X1317000Y-2705000D03*
X1299375Y-2120000D03*
X-2414375Y6530000D03*
X-4810000Y644375D03*
X-3260000Y1964375D03*
X5315614Y-101761D03*
X11429250Y5532500D03*
X-1945625Y6530000D03*
X6310000Y-960000D03*
X-1200000Y6385625D03*
X-239375Y-1990000D03*
X6330000Y-340000D03*
X-5405625Y-4020000D03*
X3340000Y-2110000D03*
X-4810000Y1284375D03*
X1250000Y-2705000D03*
X1315000Y-2770000D03*
X11261000Y5357500D03*
X12523500Y5285000D03*
X6086000Y1074000D03*
X11420700Y6152500D03*
X11255000Y6240000D03*
X11660900Y6189680D03*
X-2060000Y6350000D03*
X-2137455Y6319800D03*
X-1365000Y-2268688D03*
X-540625Y-2120000D03*
X-1369014Y-2152900D03*
X-1054380Y-40000D03*
X11320679Y6420200D03*
X4088891Y3248891D03*
X-1520000Y1650000D03*
X4100000Y1500000D03*
X2510000Y-1723750D03*
X6040000Y70000D03*
X-1993305Y2030068D03*
X-60000Y1910000D03*
X-140000Y1910000D03*
X-1990000Y2110000D03*
X5830000Y90000D03*
X5698281Y293282D03*
X6148536Y-419539D03*
X155000Y-1360000D03*
X155000Y-1995000D03*
X11598916Y6135702D03*
X11309978Y6298116D03*
X11540800Y6190680D03*
X4180000Y-1690000D03*
X4711906Y-1590000D03*
X6840206Y-692681D03*
X6019819Y-637706D03*
X6780000Y-640000D03*
X6072500Y-577500D03*
X6652500Y-632500D03*
X6020000Y-510000D03*
X11911448Y5004675D03*
X11435347Y5029000D03*
X11748500Y4910000D03*
X11181000Y4760000D03*
X6712500Y-692500D03*
X6080000Y-450000D03*
X12018379Y5291637D03*
X11316000Y4110000D03*
X12256625Y4293608D03*
X12013500Y5391500D03*
X12072500Y3340000D03*
X11742500Y3297500D03*
X11243500Y4380000D03*
X12113426Y4629744D03*
X11818500Y3922500D03*
X11960912Y4242400D03*
X11433809Y4296587D03*
X12053426Y5144927D03*
X905000Y-2120000D03*
X905000Y-1870000D03*
X905000Y-1615000D03*
X155000Y-1615000D03*
X-2914432Y6560000D03*
M02*
