%TF.GenerationSoftware,KiCad,Pcbnew,9.0.2*%
%TF.CreationDate,2025-05-30T11:40:44+02:00*%
%TF.ProjectId,voicemail-box,766f6963-656d-4616-996c-2d626f782e6b,rev?*%
%TF.SameCoordinates,PX5f5e100PY5f5e100*%
%TF.FileFunction,Paste,Bot*%
%TF.FilePolarity,Positive*%
%FSLAX45Y45*%
G04 Gerber Fmt 4.5, Leading zero omitted, Abs format (unit mm)*
G04 Created by KiCad (PCBNEW 9.0.2) date 2025-05-30 11:40:44*
%MOMM*%
%LPD*%
G01*
G04 APERTURE LIST*
%ADD10C,0.100000*%
%ADD11C,0.150000*%
%ADD12C,0.300000*%
%ADD13C,0.400000*%
G04 APERTURE END LIST*
D10*
D11*
X7700220Y-6600720D02*
X18500220Y-6600720D01*
X18500220Y-9800720D01*
X7700220Y-9800720D01*
X7700220Y-6600720D01*
D10*
D11*
X-9000000Y9000000D02*
X18700220Y9000000D01*
X18700220Y-10000720D01*
X-9000000Y-10000720D01*
X-9000000Y9000000D01*
D10*
D11*
X-8800000Y8800000D02*
X18500220Y8800000D01*
X18500220Y-9800720D01*
X-8800000Y-9800720D01*
X-8800000Y8800000D01*
D10*
D11*
X-4000000Y8800000D02*
X-4000000Y9000000D01*
D10*
D11*
X1000000Y8800000D02*
X1000000Y9000000D01*
D10*
D11*
X6000000Y8800000D02*
X6000000Y9000000D01*
D10*
D11*
X11000000Y8800000D02*
X11000000Y9000000D01*
D10*
D11*
X16000000Y8800000D02*
X16000000Y9000000D01*
D10*
D11*
X-6391084Y8840640D02*
X-6465370Y8840640D01*
X-6428227Y8840640D02*
X-6428227Y8970640D01*
X-6428227Y8970640D02*
X-6440608Y8952068D01*
X-6440608Y8952068D02*
X-6452989Y8939687D01*
X-6452989Y8939687D02*
X-6465370Y8933497D01*
D10*
D11*
X-1465370Y8958259D02*
X-1459179Y8964449D01*
X-1459179Y8964449D02*
X-1446798Y8970640D01*
X-1446798Y8970640D02*
X-1415846Y8970640D01*
X-1415846Y8970640D02*
X-1403465Y8964449D01*
X-1403465Y8964449D02*
X-1397275Y8958259D01*
X-1397275Y8958259D02*
X-1391084Y8945878D01*
X-1391084Y8945878D02*
X-1391084Y8933497D01*
X-1391084Y8933497D02*
X-1397275Y8914925D01*
X-1397275Y8914925D02*
X-1471560Y8840640D01*
X-1471560Y8840640D02*
X-1391084Y8840640D01*
D10*
D11*
X3528440Y8970640D02*
X3608916Y8970640D01*
X3608916Y8970640D02*
X3565583Y8921116D01*
X3565583Y8921116D02*
X3584154Y8921116D01*
X3584154Y8921116D02*
X3596535Y8914925D01*
X3596535Y8914925D02*
X3602725Y8908735D01*
X3602725Y8908735D02*
X3608916Y8896354D01*
X3608916Y8896354D02*
X3608916Y8865402D01*
X3608916Y8865402D02*
X3602725Y8853021D01*
X3602725Y8853021D02*
X3596535Y8846830D01*
X3596535Y8846830D02*
X3584154Y8840640D01*
X3584154Y8840640D02*
X3547011Y8840640D01*
X3547011Y8840640D02*
X3534630Y8846830D01*
X3534630Y8846830D02*
X3528440Y8853021D01*
D10*
D11*
X8596535Y8927306D02*
X8596535Y8840640D01*
X8565583Y8976830D02*
X8534630Y8883973D01*
X8534630Y8883973D02*
X8615106Y8883973D01*
D10*
D11*
X13602725Y8970640D02*
X13540821Y8970640D01*
X13540821Y8970640D02*
X13534630Y8908735D01*
X13534630Y8908735D02*
X13540821Y8914925D01*
X13540821Y8914925D02*
X13553202Y8921116D01*
X13553202Y8921116D02*
X13584154Y8921116D01*
X13584154Y8921116D02*
X13596535Y8914925D01*
X13596535Y8914925D02*
X13602725Y8908735D01*
X13602725Y8908735D02*
X13608916Y8896354D01*
X13608916Y8896354D02*
X13608916Y8865402D01*
X13608916Y8865402D02*
X13602725Y8853021D01*
X13602725Y8853021D02*
X13596535Y8846830D01*
X13596535Y8846830D02*
X13584154Y8840640D01*
X13584154Y8840640D02*
X13553202Y8840640D01*
X13553202Y8840640D02*
X13540821Y8846830D01*
X13540821Y8846830D02*
X13534630Y8853021D01*
D10*
D11*
X18596535Y8970640D02*
X18571773Y8970640D01*
X18571773Y8970640D02*
X18559392Y8964449D01*
X18559392Y8964449D02*
X18553202Y8958259D01*
X18553202Y8958259D02*
X18540821Y8939687D01*
X18540821Y8939687D02*
X18534630Y8914925D01*
X18534630Y8914925D02*
X18534630Y8865402D01*
X18534630Y8865402D02*
X18540821Y8853021D01*
X18540821Y8853021D02*
X18547011Y8846830D01*
X18547011Y8846830D02*
X18559392Y8840640D01*
X18559392Y8840640D02*
X18584154Y8840640D01*
X18584154Y8840640D02*
X18596535Y8846830D01*
X18596535Y8846830D02*
X18602726Y8853021D01*
X18602726Y8853021D02*
X18608916Y8865402D01*
X18608916Y8865402D02*
X18608916Y8896354D01*
X18608916Y8896354D02*
X18602726Y8908735D01*
X18602726Y8908735D02*
X18596535Y8914925D01*
X18596535Y8914925D02*
X18584154Y8921116D01*
X18584154Y8921116D02*
X18559392Y8921116D01*
X18559392Y8921116D02*
X18547011Y8914925D01*
X18547011Y8914925D02*
X18540821Y8908735D01*
X18540821Y8908735D02*
X18534630Y8896354D01*
D10*
D11*
X-4000000Y-9800720D02*
X-4000000Y-10000720D01*
D10*
D11*
X1000000Y-9800720D02*
X1000000Y-10000720D01*
D10*
D11*
X6000000Y-9800720D02*
X6000000Y-10000720D01*
D10*
D11*
X11000000Y-9800720D02*
X11000000Y-10000720D01*
D10*
D11*
X16000000Y-9800720D02*
X16000000Y-10000720D01*
D10*
D11*
X-6391084Y-9960080D02*
X-6465370Y-9960080D01*
X-6428227Y-9960080D02*
X-6428227Y-9830080D01*
X-6428227Y-9830080D02*
X-6440608Y-9848652D01*
X-6440608Y-9848652D02*
X-6452989Y-9861033D01*
X-6452989Y-9861033D02*
X-6465370Y-9867223D01*
D10*
D11*
X-1465370Y-9842461D02*
X-1459179Y-9836271D01*
X-1459179Y-9836271D02*
X-1446798Y-9830080D01*
X-1446798Y-9830080D02*
X-1415846Y-9830080D01*
X-1415846Y-9830080D02*
X-1403465Y-9836271D01*
X-1403465Y-9836271D02*
X-1397275Y-9842461D01*
X-1397275Y-9842461D02*
X-1391084Y-9854842D01*
X-1391084Y-9854842D02*
X-1391084Y-9867223D01*
X-1391084Y-9867223D02*
X-1397275Y-9885795D01*
X-1397275Y-9885795D02*
X-1471560Y-9960080D01*
X-1471560Y-9960080D02*
X-1391084Y-9960080D01*
D10*
D11*
X3528440Y-9830080D02*
X3608916Y-9830080D01*
X3608916Y-9830080D02*
X3565583Y-9879604D01*
X3565583Y-9879604D02*
X3584154Y-9879604D01*
X3584154Y-9879604D02*
X3596535Y-9885795D01*
X3596535Y-9885795D02*
X3602725Y-9891985D01*
X3602725Y-9891985D02*
X3608916Y-9904366D01*
X3608916Y-9904366D02*
X3608916Y-9935319D01*
X3608916Y-9935319D02*
X3602725Y-9947700D01*
X3602725Y-9947700D02*
X3596535Y-9953890D01*
X3596535Y-9953890D02*
X3584154Y-9960080D01*
X3584154Y-9960080D02*
X3547011Y-9960080D01*
X3547011Y-9960080D02*
X3534630Y-9953890D01*
X3534630Y-9953890D02*
X3528440Y-9947700D01*
D10*
D11*
X8596535Y-9873414D02*
X8596535Y-9960080D01*
X8565583Y-9823890D02*
X8534630Y-9916747D01*
X8534630Y-9916747D02*
X8615106Y-9916747D01*
D10*
D11*
X13602725Y-9830080D02*
X13540821Y-9830080D01*
X13540821Y-9830080D02*
X13534630Y-9891985D01*
X13534630Y-9891985D02*
X13540821Y-9885795D01*
X13540821Y-9885795D02*
X13553202Y-9879604D01*
X13553202Y-9879604D02*
X13584154Y-9879604D01*
X13584154Y-9879604D02*
X13596535Y-9885795D01*
X13596535Y-9885795D02*
X13602725Y-9891985D01*
X13602725Y-9891985D02*
X13608916Y-9904366D01*
X13608916Y-9904366D02*
X13608916Y-9935319D01*
X13608916Y-9935319D02*
X13602725Y-9947700D01*
X13602725Y-9947700D02*
X13596535Y-9953890D01*
X13596535Y-9953890D02*
X13584154Y-9960080D01*
X13584154Y-9960080D02*
X13553202Y-9960080D01*
X13553202Y-9960080D02*
X13540821Y-9953890D01*
X13540821Y-9953890D02*
X13534630Y-9947700D01*
D10*
D11*
X18596535Y-9830080D02*
X18571773Y-9830080D01*
X18571773Y-9830080D02*
X18559392Y-9836271D01*
X18559392Y-9836271D02*
X18553202Y-9842461D01*
X18553202Y-9842461D02*
X18540821Y-9861033D01*
X18540821Y-9861033D02*
X18534630Y-9885795D01*
X18534630Y-9885795D02*
X18534630Y-9935319D01*
X18534630Y-9935319D02*
X18540821Y-9947700D01*
X18540821Y-9947700D02*
X18547011Y-9953890D01*
X18547011Y-9953890D02*
X18559392Y-9960080D01*
X18559392Y-9960080D02*
X18584154Y-9960080D01*
X18584154Y-9960080D02*
X18596535Y-9953890D01*
X18596535Y-9953890D02*
X18602726Y-9947700D01*
X18602726Y-9947700D02*
X18608916Y-9935319D01*
X18608916Y-9935319D02*
X18608916Y-9904366D01*
X18608916Y-9904366D02*
X18602726Y-9891985D01*
X18602726Y-9891985D02*
X18596535Y-9885795D01*
X18596535Y-9885795D02*
X18584154Y-9879604D01*
X18584154Y-9879604D02*
X18559392Y-9879604D01*
X18559392Y-9879604D02*
X18547011Y-9885795D01*
X18547011Y-9885795D02*
X18540821Y-9891985D01*
X18540821Y-9891985D02*
X18534630Y-9904366D01*
D10*
D11*
X-9000000Y4000000D02*
X-8800000Y4000000D01*
D10*
D11*
X-9000000Y-1000000D02*
X-8800000Y-1000000D01*
D10*
D11*
X-9000000Y-6000000D02*
X-8800000Y-6000000D01*
D10*
D11*
X-8930952Y6477782D02*
X-8869048Y6477782D01*
X-8943333Y6440640D02*
X-8900000Y6570640D01*
X-8900000Y6570640D02*
X-8856667Y6440640D01*
D10*
D11*
X-8890714Y1508735D02*
X-8872143Y1502544D01*
X-8872143Y1502544D02*
X-8865952Y1496354D01*
X-8865952Y1496354D02*
X-8859762Y1483973D01*
X-8859762Y1483973D02*
X-8859762Y1465401D01*
X-8859762Y1465401D02*
X-8865952Y1453020D01*
X-8865952Y1453020D02*
X-8872143Y1446830D01*
X-8872143Y1446830D02*
X-8884524Y1440640D01*
X-8884524Y1440640D02*
X-8934048Y1440640D01*
X-8934048Y1440640D02*
X-8934048Y1570640D01*
X-8934048Y1570640D02*
X-8890714Y1570640D01*
X-8890714Y1570640D02*
X-8878333Y1564449D01*
X-8878333Y1564449D02*
X-8872143Y1558259D01*
X-8872143Y1558259D02*
X-8865952Y1545878D01*
X-8865952Y1545878D02*
X-8865952Y1533497D01*
X-8865952Y1533497D02*
X-8872143Y1521116D01*
X-8872143Y1521116D02*
X-8878333Y1514925D01*
X-8878333Y1514925D02*
X-8890714Y1508735D01*
X-8890714Y1508735D02*
X-8934048Y1508735D01*
D10*
D11*
X-8859762Y-3546979D02*
X-8865952Y-3553170D01*
X-8865952Y-3553170D02*
X-8884524Y-3559360D01*
X-8884524Y-3559360D02*
X-8896905Y-3559360D01*
X-8896905Y-3559360D02*
X-8915476Y-3553170D01*
X-8915476Y-3553170D02*
X-8927857Y-3540789D01*
X-8927857Y-3540789D02*
X-8934048Y-3528408D01*
X-8934048Y-3528408D02*
X-8940238Y-3503646D01*
X-8940238Y-3503646D02*
X-8940238Y-3485075D01*
X-8940238Y-3485075D02*
X-8934048Y-3460313D01*
X-8934048Y-3460313D02*
X-8927857Y-3447932D01*
X-8927857Y-3447932D02*
X-8915476Y-3435551D01*
X-8915476Y-3435551D02*
X-8896905Y-3429360D01*
X-8896905Y-3429360D02*
X-8884524Y-3429360D01*
X-8884524Y-3429360D02*
X-8865952Y-3435551D01*
X-8865952Y-3435551D02*
X-8859762Y-3441741D01*
D10*
D11*
X-8934048Y-8559360D02*
X-8934048Y-8429360D01*
X-8934048Y-8429360D02*
X-8903095Y-8429360D01*
X-8903095Y-8429360D02*
X-8884524Y-8435551D01*
X-8884524Y-8435551D02*
X-8872143Y-8447932D01*
X-8872143Y-8447932D02*
X-8865952Y-8460313D01*
X-8865952Y-8460313D02*
X-8859762Y-8485075D01*
X-8859762Y-8485075D02*
X-8859762Y-8503646D01*
X-8859762Y-8503646D02*
X-8865952Y-8528408D01*
X-8865952Y-8528408D02*
X-8872143Y-8540789D01*
X-8872143Y-8540789D02*
X-8884524Y-8553170D01*
X-8884524Y-8553170D02*
X-8903095Y-8559360D01*
X-8903095Y-8559360D02*
X-8934048Y-8559360D01*
D10*
D11*
X18700220Y4000000D02*
X18500220Y4000000D01*
D10*
D11*
X18700220Y-1000000D02*
X18500220Y-1000000D01*
D10*
D11*
X18700220Y-6000000D02*
X18500220Y-6000000D01*
D10*
D11*
X18569268Y6477782D02*
X18631172Y6477782D01*
X18556887Y6440640D02*
X18600220Y6570640D01*
X18600220Y6570640D02*
X18643553Y6440640D01*
D10*
D11*
X18609506Y1508735D02*
X18628077Y1502544D01*
X18628077Y1502544D02*
X18634268Y1496354D01*
X18634268Y1496354D02*
X18640458Y1483973D01*
X18640458Y1483973D02*
X18640458Y1465401D01*
X18640458Y1465401D02*
X18634268Y1453020D01*
X18634268Y1453020D02*
X18628077Y1446830D01*
X18628077Y1446830D02*
X18615696Y1440640D01*
X18615696Y1440640D02*
X18566172Y1440640D01*
X18566172Y1440640D02*
X18566172Y1570640D01*
X18566172Y1570640D02*
X18609506Y1570640D01*
X18609506Y1570640D02*
X18621887Y1564449D01*
X18621887Y1564449D02*
X18628077Y1558259D01*
X18628077Y1558259D02*
X18634268Y1545878D01*
X18634268Y1545878D02*
X18634268Y1533497D01*
X18634268Y1533497D02*
X18628077Y1521116D01*
X18628077Y1521116D02*
X18621887Y1514925D01*
X18621887Y1514925D02*
X18609506Y1508735D01*
X18609506Y1508735D02*
X18566172Y1508735D01*
D10*
D11*
X18640458Y-3546979D02*
X18634268Y-3553170D01*
X18634268Y-3553170D02*
X18615696Y-3559360D01*
X18615696Y-3559360D02*
X18603315Y-3559360D01*
X18603315Y-3559360D02*
X18584744Y-3553170D01*
X18584744Y-3553170D02*
X18572363Y-3540789D01*
X18572363Y-3540789D02*
X18566172Y-3528408D01*
X18566172Y-3528408D02*
X18559982Y-3503646D01*
X18559982Y-3503646D02*
X18559982Y-3485075D01*
X18559982Y-3485075D02*
X18566172Y-3460313D01*
X18566172Y-3460313D02*
X18572363Y-3447932D01*
X18572363Y-3447932D02*
X18584744Y-3435551D01*
X18584744Y-3435551D02*
X18603315Y-3429360D01*
X18603315Y-3429360D02*
X18615696Y-3429360D01*
X18615696Y-3429360D02*
X18634268Y-3435551D01*
X18634268Y-3435551D02*
X18640458Y-3441741D01*
D10*
D11*
X18566172Y-8559360D02*
X18566172Y-8429360D01*
X18566172Y-8429360D02*
X18597125Y-8429360D01*
X18597125Y-8429360D02*
X18615696Y-8435551D01*
X18615696Y-8435551D02*
X18628077Y-8447932D01*
X18628077Y-8447932D02*
X18634268Y-8460313D01*
X18634268Y-8460313D02*
X18640458Y-8485075D01*
X18640458Y-8485075D02*
X18640458Y-8503646D01*
X18640458Y-8503646D02*
X18634268Y-8528408D01*
X18634268Y-8528408D02*
X18628077Y-8540789D01*
X18628077Y-8540789D02*
X18615696Y-8553170D01*
X18615696Y-8553170D02*
X18597125Y-8559360D01*
X18597125Y-8559360D02*
X18566172Y-8559360D01*
D10*
D11*
X10045803Y-9379333D02*
X10045803Y-9229333D01*
X10045803Y-9229333D02*
X10081517Y-9229333D01*
X10081517Y-9229333D02*
X10102946Y-9236476D01*
X10102946Y-9236476D02*
X10117231Y-9250761D01*
X10117231Y-9250761D02*
X10124374Y-9265047D01*
X10124374Y-9265047D02*
X10131517Y-9293619D01*
X10131517Y-9293619D02*
X10131517Y-9315047D01*
X10131517Y-9315047D02*
X10124374Y-9343619D01*
X10124374Y-9343619D02*
X10117231Y-9357904D01*
X10117231Y-9357904D02*
X10102946Y-9372190D01*
X10102946Y-9372190D02*
X10081517Y-9379333D01*
X10081517Y-9379333D02*
X10045803Y-9379333D01*
X10260088Y-9379333D02*
X10260088Y-9300761D01*
X10260088Y-9300761D02*
X10252946Y-9286476D01*
X10252946Y-9286476D02*
X10238660Y-9279333D01*
X10238660Y-9279333D02*
X10210088Y-9279333D01*
X10210088Y-9279333D02*
X10195803Y-9286476D01*
X10260088Y-9372190D02*
X10245803Y-9379333D01*
X10245803Y-9379333D02*
X10210088Y-9379333D01*
X10210088Y-9379333D02*
X10195803Y-9372190D01*
X10195803Y-9372190D02*
X10188660Y-9357904D01*
X10188660Y-9357904D02*
X10188660Y-9343619D01*
X10188660Y-9343619D02*
X10195803Y-9329333D01*
X10195803Y-9329333D02*
X10210088Y-9322190D01*
X10210088Y-9322190D02*
X10245803Y-9322190D01*
X10245803Y-9322190D02*
X10260088Y-9315047D01*
X10310088Y-9279333D02*
X10367231Y-9279333D01*
X10331517Y-9229333D02*
X10331517Y-9357904D01*
X10331517Y-9357904D02*
X10338660Y-9372190D01*
X10338660Y-9372190D02*
X10352946Y-9379333D01*
X10352946Y-9379333D02*
X10367231Y-9379333D01*
X10474374Y-9372190D02*
X10460088Y-9379333D01*
X10460088Y-9379333D02*
X10431517Y-9379333D01*
X10431517Y-9379333D02*
X10417231Y-9372190D01*
X10417231Y-9372190D02*
X10410088Y-9357904D01*
X10410088Y-9357904D02*
X10410088Y-9300761D01*
X10410088Y-9300761D02*
X10417231Y-9286476D01*
X10417231Y-9286476D02*
X10431517Y-9279333D01*
X10431517Y-9279333D02*
X10460088Y-9279333D01*
X10460088Y-9279333D02*
X10474374Y-9286476D01*
X10474374Y-9286476D02*
X10481517Y-9300761D01*
X10481517Y-9300761D02*
X10481517Y-9315047D01*
X10481517Y-9315047D02*
X10410088Y-9329333D01*
X10545803Y-9365047D02*
X10552946Y-9372190D01*
X10552946Y-9372190D02*
X10545803Y-9379333D01*
X10545803Y-9379333D02*
X10538660Y-9372190D01*
X10538660Y-9372190D02*
X10545803Y-9365047D01*
X10545803Y-9365047D02*
X10545803Y-9379333D01*
X10545803Y-9286476D02*
X10552946Y-9293619D01*
X10552946Y-9293619D02*
X10545803Y-9300761D01*
X10545803Y-9300761D02*
X10538660Y-9293619D01*
X10538660Y-9293619D02*
X10545803Y-9286476D01*
X10545803Y-9286476D02*
X10545803Y-9300761D01*
X10731517Y-9379333D02*
X10731517Y-9279333D01*
X10731517Y-9293619D02*
X10738660Y-9286476D01*
X10738660Y-9286476D02*
X10752946Y-9279333D01*
X10752946Y-9279333D02*
X10774374Y-9279333D01*
X10774374Y-9279333D02*
X10788660Y-9286476D01*
X10788660Y-9286476D02*
X10795803Y-9300761D01*
X10795803Y-9300761D02*
X10795803Y-9379333D01*
X10795803Y-9300761D02*
X10802946Y-9286476D01*
X10802946Y-9286476D02*
X10817231Y-9279333D01*
X10817231Y-9279333D02*
X10838660Y-9279333D01*
X10838660Y-9279333D02*
X10852946Y-9286476D01*
X10852946Y-9286476D02*
X10860088Y-9300761D01*
X10860088Y-9300761D02*
X10860088Y-9379333D01*
X10995803Y-9379333D02*
X10995803Y-9300761D01*
X10995803Y-9300761D02*
X10988660Y-9286476D01*
X10988660Y-9286476D02*
X10974374Y-9279333D01*
X10974374Y-9279333D02*
X10945803Y-9279333D01*
X10945803Y-9279333D02*
X10931517Y-9286476D01*
X10995803Y-9372190D02*
X10981517Y-9379333D01*
X10981517Y-9379333D02*
X10945803Y-9379333D01*
X10945803Y-9379333D02*
X10931517Y-9372190D01*
X10931517Y-9372190D02*
X10924374Y-9357904D01*
X10924374Y-9357904D02*
X10924374Y-9343619D01*
X10924374Y-9343619D02*
X10931517Y-9329333D01*
X10931517Y-9329333D02*
X10945803Y-9322190D01*
X10945803Y-9322190D02*
X10981517Y-9322190D01*
X10981517Y-9322190D02*
X10995803Y-9315047D01*
X11067231Y-9379333D02*
X11067231Y-9279333D01*
X11067231Y-9307904D02*
X11074374Y-9293619D01*
X11074374Y-9293619D02*
X11081517Y-9286476D01*
X11081517Y-9286476D02*
X11095803Y-9279333D01*
X11095803Y-9279333D02*
X11110088Y-9279333D01*
X11160088Y-9365047D02*
X11167231Y-9372190D01*
X11167231Y-9372190D02*
X11160088Y-9379333D01*
X11160088Y-9379333D02*
X11152946Y-9372190D01*
X11152946Y-9372190D02*
X11160088Y-9365047D01*
X11160088Y-9365047D02*
X11160088Y-9379333D01*
X11331517Y-9229333D02*
X11424374Y-9229333D01*
X11424374Y-9229333D02*
X11374374Y-9286476D01*
X11374374Y-9286476D02*
X11395803Y-9286476D01*
X11395803Y-9286476D02*
X11410088Y-9293619D01*
X11410088Y-9293619D02*
X11417231Y-9300761D01*
X11417231Y-9300761D02*
X11424374Y-9315047D01*
X11424374Y-9315047D02*
X11424374Y-9350761D01*
X11424374Y-9350761D02*
X11417231Y-9365047D01*
X11417231Y-9365047D02*
X11410088Y-9372190D01*
X11410088Y-9372190D02*
X11395803Y-9379333D01*
X11395803Y-9379333D02*
X11352945Y-9379333D01*
X11352945Y-9379333D02*
X11338660Y-9372190D01*
X11338660Y-9372190D02*
X11331517Y-9365047D01*
X11567231Y-9379333D02*
X11481517Y-9379333D01*
X11524374Y-9379333D02*
X11524374Y-9229333D01*
X11524374Y-9229333D02*
X11510088Y-9250761D01*
X11510088Y-9250761D02*
X11495803Y-9265047D01*
X11495803Y-9265047D02*
X11481517Y-9272190D01*
X11745802Y-9379333D02*
X11745802Y-9279333D01*
X11745802Y-9293619D02*
X11752945Y-9286476D01*
X11752945Y-9286476D02*
X11767231Y-9279333D01*
X11767231Y-9279333D02*
X11788660Y-9279333D01*
X11788660Y-9279333D02*
X11802945Y-9286476D01*
X11802945Y-9286476D02*
X11810088Y-9300761D01*
X11810088Y-9300761D02*
X11810088Y-9379333D01*
X11810088Y-9300761D02*
X11817231Y-9286476D01*
X11817231Y-9286476D02*
X11831517Y-9279333D01*
X11831517Y-9279333D02*
X11852945Y-9279333D01*
X11852945Y-9279333D02*
X11867231Y-9286476D01*
X11867231Y-9286476D02*
X11874374Y-9300761D01*
X11874374Y-9300761D02*
X11874374Y-9379333D01*
X12010088Y-9379333D02*
X12010088Y-9300761D01*
X12010088Y-9300761D02*
X12002945Y-9286476D01*
X12002945Y-9286476D02*
X11988660Y-9279333D01*
X11988660Y-9279333D02*
X11960088Y-9279333D01*
X11960088Y-9279333D02*
X11945802Y-9286476D01*
X12010088Y-9372190D02*
X11995802Y-9379333D01*
X11995802Y-9379333D02*
X11960088Y-9379333D01*
X11960088Y-9379333D02*
X11945802Y-9372190D01*
X11945802Y-9372190D02*
X11938660Y-9357904D01*
X11938660Y-9357904D02*
X11938660Y-9343619D01*
X11938660Y-9343619D02*
X11945802Y-9329333D01*
X11945802Y-9329333D02*
X11960088Y-9322190D01*
X11960088Y-9322190D02*
X11995802Y-9322190D01*
X11995802Y-9322190D02*
X12010088Y-9315047D01*
X12081517Y-9379333D02*
X12081517Y-9279333D01*
X12081517Y-9307904D02*
X12088660Y-9293619D01*
X12088660Y-9293619D02*
X12095803Y-9286476D01*
X12095803Y-9286476D02*
X12110088Y-9279333D01*
X12110088Y-9279333D02*
X12124374Y-9279333D01*
X12167231Y-9372190D02*
X12181517Y-9379333D01*
X12181517Y-9379333D02*
X12210088Y-9379333D01*
X12210088Y-9379333D02*
X12224374Y-9372190D01*
X12224374Y-9372190D02*
X12231517Y-9357904D01*
X12231517Y-9357904D02*
X12231517Y-9350761D01*
X12231517Y-9350761D02*
X12224374Y-9336476D01*
X12224374Y-9336476D02*
X12210088Y-9329333D01*
X12210088Y-9329333D02*
X12188660Y-9329333D01*
X12188660Y-9329333D02*
X12174374Y-9322190D01*
X12174374Y-9322190D02*
X12167231Y-9307904D01*
X12167231Y-9307904D02*
X12167231Y-9300761D01*
X12167231Y-9300761D02*
X12174374Y-9286476D01*
X12174374Y-9286476D02*
X12188660Y-9279333D01*
X12188660Y-9279333D02*
X12210088Y-9279333D01*
X12210088Y-9279333D02*
X12224374Y-9286476D01*
X12402945Y-9243619D02*
X12410088Y-9236476D01*
X12410088Y-9236476D02*
X12424374Y-9229333D01*
X12424374Y-9229333D02*
X12460088Y-9229333D01*
X12460088Y-9229333D02*
X12474374Y-9236476D01*
X12474374Y-9236476D02*
X12481517Y-9243619D01*
X12481517Y-9243619D02*
X12488660Y-9257904D01*
X12488660Y-9257904D02*
X12488660Y-9272190D01*
X12488660Y-9272190D02*
X12481517Y-9293619D01*
X12481517Y-9293619D02*
X12395802Y-9379333D01*
X12395802Y-9379333D02*
X12488660Y-9379333D01*
X12581517Y-9229333D02*
X12595802Y-9229333D01*
X12595802Y-9229333D02*
X12610088Y-9236476D01*
X12610088Y-9236476D02*
X12617231Y-9243619D01*
X12617231Y-9243619D02*
X12624374Y-9257904D01*
X12624374Y-9257904D02*
X12631517Y-9286476D01*
X12631517Y-9286476D02*
X12631517Y-9322190D01*
X12631517Y-9322190D02*
X12624374Y-9350761D01*
X12624374Y-9350761D02*
X12617231Y-9365047D01*
X12617231Y-9365047D02*
X12610088Y-9372190D01*
X12610088Y-9372190D02*
X12595802Y-9379333D01*
X12595802Y-9379333D02*
X12581517Y-9379333D01*
X12581517Y-9379333D02*
X12567231Y-9372190D01*
X12567231Y-9372190D02*
X12560088Y-9365047D01*
X12560088Y-9365047D02*
X12552945Y-9350761D01*
X12552945Y-9350761D02*
X12545802Y-9322190D01*
X12545802Y-9322190D02*
X12545802Y-9286476D01*
X12545802Y-9286476D02*
X12552945Y-9257904D01*
X12552945Y-9257904D02*
X12560088Y-9243619D01*
X12560088Y-9243619D02*
X12567231Y-9236476D01*
X12567231Y-9236476D02*
X12581517Y-9229333D01*
X12774374Y-9379333D02*
X12688660Y-9379333D01*
X12731517Y-9379333D02*
X12731517Y-9229333D01*
X12731517Y-9229333D02*
X12717231Y-9250761D01*
X12717231Y-9250761D02*
X12702945Y-9265047D01*
X12702945Y-9265047D02*
X12688660Y-9272190D01*
X12910088Y-9229333D02*
X12838659Y-9229333D01*
X12838659Y-9229333D02*
X12831517Y-9300761D01*
X12831517Y-9300761D02*
X12838659Y-9293619D01*
X12838659Y-9293619D02*
X12852945Y-9286476D01*
X12852945Y-9286476D02*
X12888659Y-9286476D01*
X12888659Y-9286476D02*
X12902945Y-9293619D01*
X12902945Y-9293619D02*
X12910088Y-9300761D01*
X12910088Y-9300761D02*
X12917231Y-9315047D01*
X12917231Y-9315047D02*
X12917231Y-9350761D01*
X12917231Y-9350761D02*
X12910088Y-9365047D01*
X12910088Y-9365047D02*
X12902945Y-9372190D01*
X12902945Y-9372190D02*
X12888659Y-9379333D01*
X12888659Y-9379333D02*
X12852945Y-9379333D01*
X12852945Y-9379333D02*
X12838659Y-9372190D01*
X12838659Y-9372190D02*
X12831517Y-9365047D01*
D10*
D11*
X7700220Y-9450720D02*
X18500220Y-9450720D01*
D10*
D11*
X7845803Y-9659333D02*
X7845803Y-9509333D01*
X7931517Y-9659333D02*
X7867231Y-9573619D01*
X7931517Y-9509333D02*
X7845803Y-9595047D01*
X7995803Y-9659333D02*
X7995803Y-9559333D01*
X7995803Y-9509333D02*
X7988660Y-9516476D01*
X7988660Y-9516476D02*
X7995803Y-9523619D01*
X7995803Y-9523619D02*
X8002945Y-9516476D01*
X8002945Y-9516476D02*
X7995803Y-9509333D01*
X7995803Y-9509333D02*
X7995803Y-9523619D01*
X8152945Y-9645047D02*
X8145803Y-9652190D01*
X8145803Y-9652190D02*
X8124374Y-9659333D01*
X8124374Y-9659333D02*
X8110088Y-9659333D01*
X8110088Y-9659333D02*
X8088660Y-9652190D01*
X8088660Y-9652190D02*
X8074374Y-9637904D01*
X8074374Y-9637904D02*
X8067231Y-9623619D01*
X8067231Y-9623619D02*
X8060088Y-9595047D01*
X8060088Y-9595047D02*
X8060088Y-9573619D01*
X8060088Y-9573619D02*
X8067231Y-9545047D01*
X8067231Y-9545047D02*
X8074374Y-9530761D01*
X8074374Y-9530761D02*
X8088660Y-9516476D01*
X8088660Y-9516476D02*
X8110088Y-9509333D01*
X8110088Y-9509333D02*
X8124374Y-9509333D01*
X8124374Y-9509333D02*
X8145803Y-9516476D01*
X8145803Y-9516476D02*
X8152945Y-9523619D01*
X8281517Y-9659333D02*
X8281517Y-9580761D01*
X8281517Y-9580761D02*
X8274374Y-9566476D01*
X8274374Y-9566476D02*
X8260088Y-9559333D01*
X8260088Y-9559333D02*
X8231517Y-9559333D01*
X8231517Y-9559333D02*
X8217231Y-9566476D01*
X8281517Y-9652190D02*
X8267231Y-9659333D01*
X8267231Y-9659333D02*
X8231517Y-9659333D01*
X8231517Y-9659333D02*
X8217231Y-9652190D01*
X8217231Y-9652190D02*
X8210088Y-9637904D01*
X8210088Y-9637904D02*
X8210088Y-9623619D01*
X8210088Y-9623619D02*
X8217231Y-9609333D01*
X8217231Y-9609333D02*
X8231517Y-9602190D01*
X8231517Y-9602190D02*
X8267231Y-9602190D01*
X8267231Y-9602190D02*
X8281517Y-9595047D01*
X8417231Y-9659333D02*
X8417231Y-9509333D01*
X8417231Y-9652190D02*
X8402946Y-9659333D01*
X8402946Y-9659333D02*
X8374374Y-9659333D01*
X8374374Y-9659333D02*
X8360088Y-9652190D01*
X8360088Y-9652190D02*
X8352945Y-9645047D01*
X8352945Y-9645047D02*
X8345803Y-9630761D01*
X8345803Y-9630761D02*
X8345803Y-9587904D01*
X8345803Y-9587904D02*
X8352945Y-9573619D01*
X8352945Y-9573619D02*
X8360088Y-9566476D01*
X8360088Y-9566476D02*
X8374374Y-9559333D01*
X8374374Y-9559333D02*
X8402946Y-9559333D01*
X8402946Y-9559333D02*
X8417231Y-9566476D01*
X8602946Y-9580761D02*
X8652946Y-9580761D01*
X8674374Y-9659333D02*
X8602946Y-9659333D01*
X8602946Y-9659333D02*
X8602946Y-9509333D01*
X8602946Y-9509333D02*
X8674374Y-9509333D01*
X8738660Y-9645047D02*
X8745803Y-9652190D01*
X8745803Y-9652190D02*
X8738660Y-9659333D01*
X8738660Y-9659333D02*
X8731517Y-9652190D01*
X8731517Y-9652190D02*
X8738660Y-9645047D01*
X8738660Y-9645047D02*
X8738660Y-9659333D01*
X8810088Y-9659333D02*
X8810088Y-9509333D01*
X8810088Y-9509333D02*
X8845803Y-9509333D01*
X8845803Y-9509333D02*
X8867231Y-9516476D01*
X8867231Y-9516476D02*
X8881517Y-9530761D01*
X8881517Y-9530761D02*
X8888660Y-9545047D01*
X8888660Y-9545047D02*
X8895803Y-9573619D01*
X8895803Y-9573619D02*
X8895803Y-9595047D01*
X8895803Y-9595047D02*
X8888660Y-9623619D01*
X8888660Y-9623619D02*
X8881517Y-9637904D01*
X8881517Y-9637904D02*
X8867231Y-9652190D01*
X8867231Y-9652190D02*
X8845803Y-9659333D01*
X8845803Y-9659333D02*
X8810088Y-9659333D01*
X8960088Y-9645047D02*
X8967231Y-9652190D01*
X8967231Y-9652190D02*
X8960088Y-9659333D01*
X8960088Y-9659333D02*
X8952946Y-9652190D01*
X8952946Y-9652190D02*
X8960088Y-9645047D01*
X8960088Y-9645047D02*
X8960088Y-9659333D01*
X9024374Y-9616476D02*
X9095803Y-9616476D01*
X9010089Y-9659333D02*
X9060089Y-9509333D01*
X9060089Y-9509333D02*
X9110089Y-9659333D01*
X9160088Y-9645047D02*
X9167231Y-9652190D01*
X9167231Y-9652190D02*
X9160088Y-9659333D01*
X9160088Y-9659333D02*
X9152946Y-9652190D01*
X9152946Y-9652190D02*
X9160088Y-9645047D01*
X9160088Y-9645047D02*
X9160088Y-9659333D01*
X9352946Y-9659333D02*
X9381517Y-9659333D01*
X9381517Y-9659333D02*
X9395803Y-9652190D01*
X9395803Y-9652190D02*
X9402946Y-9645047D01*
X9402946Y-9645047D02*
X9417231Y-9623619D01*
X9417231Y-9623619D02*
X9424374Y-9595047D01*
X9424374Y-9595047D02*
X9424374Y-9537904D01*
X9424374Y-9537904D02*
X9417231Y-9523619D01*
X9417231Y-9523619D02*
X9410089Y-9516476D01*
X9410089Y-9516476D02*
X9395803Y-9509333D01*
X9395803Y-9509333D02*
X9367231Y-9509333D01*
X9367231Y-9509333D02*
X9352946Y-9516476D01*
X9352946Y-9516476D02*
X9345803Y-9523619D01*
X9345803Y-9523619D02*
X9338660Y-9537904D01*
X9338660Y-9537904D02*
X9338660Y-9573619D01*
X9338660Y-9573619D02*
X9345803Y-9587904D01*
X9345803Y-9587904D02*
X9352946Y-9595047D01*
X9352946Y-9595047D02*
X9367231Y-9602190D01*
X9367231Y-9602190D02*
X9395803Y-9602190D01*
X9395803Y-9602190D02*
X9410089Y-9595047D01*
X9410089Y-9595047D02*
X9417231Y-9587904D01*
X9417231Y-9587904D02*
X9424374Y-9573619D01*
X9488660Y-9645047D02*
X9495803Y-9652190D01*
X9495803Y-9652190D02*
X9488660Y-9659333D01*
X9488660Y-9659333D02*
X9481517Y-9652190D01*
X9481517Y-9652190D02*
X9488660Y-9645047D01*
X9488660Y-9645047D02*
X9488660Y-9659333D01*
X9588660Y-9509333D02*
X9602946Y-9509333D01*
X9602946Y-9509333D02*
X9617231Y-9516476D01*
X9617231Y-9516476D02*
X9624374Y-9523619D01*
X9624374Y-9523619D02*
X9631517Y-9537904D01*
X9631517Y-9537904D02*
X9638660Y-9566476D01*
X9638660Y-9566476D02*
X9638660Y-9602190D01*
X9638660Y-9602190D02*
X9631517Y-9630761D01*
X9631517Y-9630761D02*
X9624374Y-9645047D01*
X9624374Y-9645047D02*
X9617231Y-9652190D01*
X9617231Y-9652190D02*
X9602946Y-9659333D01*
X9602946Y-9659333D02*
X9588660Y-9659333D01*
X9588660Y-9659333D02*
X9574374Y-9652190D01*
X9574374Y-9652190D02*
X9567231Y-9645047D01*
X9567231Y-9645047D02*
X9560088Y-9630761D01*
X9560088Y-9630761D02*
X9552946Y-9602190D01*
X9552946Y-9602190D02*
X9552946Y-9566476D01*
X9552946Y-9566476D02*
X9560088Y-9537904D01*
X9560088Y-9537904D02*
X9567231Y-9523619D01*
X9567231Y-9523619D02*
X9574374Y-9516476D01*
X9574374Y-9516476D02*
X9588660Y-9509333D01*
X9702946Y-9645047D02*
X9710088Y-9652190D01*
X9710088Y-9652190D02*
X9702946Y-9659333D01*
X9702946Y-9659333D02*
X9695803Y-9652190D01*
X9695803Y-9652190D02*
X9702946Y-9645047D01*
X9702946Y-9645047D02*
X9702946Y-9659333D01*
X9767231Y-9523619D02*
X9774374Y-9516476D01*
X9774374Y-9516476D02*
X9788660Y-9509333D01*
X9788660Y-9509333D02*
X9824374Y-9509333D01*
X9824374Y-9509333D02*
X9838660Y-9516476D01*
X9838660Y-9516476D02*
X9845803Y-9523619D01*
X9845803Y-9523619D02*
X9852946Y-9537904D01*
X9852946Y-9537904D02*
X9852946Y-9552190D01*
X9852946Y-9552190D02*
X9845803Y-9573619D01*
X9845803Y-9573619D02*
X9760088Y-9659333D01*
X9760088Y-9659333D02*
X9852946Y-9659333D01*
D10*
D11*
X7700220Y-9150720D02*
X18500220Y-9150720D01*
D10*
D12*
X16441385Y-9378553D02*
X16391385Y-9307124D01*
X16355671Y-9378553D02*
X16355671Y-9228553D01*
X16355671Y-9228553D02*
X16412814Y-9228553D01*
X16412814Y-9228553D02*
X16427100Y-9235696D01*
X16427100Y-9235696D02*
X16434242Y-9242839D01*
X16434242Y-9242839D02*
X16441385Y-9257124D01*
X16441385Y-9257124D02*
X16441385Y-9278553D01*
X16441385Y-9278553D02*
X16434242Y-9292839D01*
X16434242Y-9292839D02*
X16427100Y-9299981D01*
X16427100Y-9299981D02*
X16412814Y-9307124D01*
X16412814Y-9307124D02*
X16355671Y-9307124D01*
X16562814Y-9371410D02*
X16548528Y-9378553D01*
X16548528Y-9378553D02*
X16519957Y-9378553D01*
X16519957Y-9378553D02*
X16505671Y-9371410D01*
X16505671Y-9371410D02*
X16498528Y-9357124D01*
X16498528Y-9357124D02*
X16498528Y-9299981D01*
X16498528Y-9299981D02*
X16505671Y-9285696D01*
X16505671Y-9285696D02*
X16519957Y-9278553D01*
X16519957Y-9278553D02*
X16548528Y-9278553D01*
X16548528Y-9278553D02*
X16562814Y-9285696D01*
X16562814Y-9285696D02*
X16569957Y-9299981D01*
X16569957Y-9299981D02*
X16569957Y-9314267D01*
X16569957Y-9314267D02*
X16498528Y-9328553D01*
X16619957Y-9278553D02*
X16655671Y-9378553D01*
X16655671Y-9378553D02*
X16691385Y-9278553D01*
X16748528Y-9364267D02*
X16755671Y-9371410D01*
X16755671Y-9371410D02*
X16748528Y-9378553D01*
X16748528Y-9378553D02*
X16741385Y-9371410D01*
X16741385Y-9371410D02*
X16748528Y-9364267D01*
X16748528Y-9364267D02*
X16748528Y-9378553D01*
X16748528Y-9285696D02*
X16755671Y-9292839D01*
X16755671Y-9292839D02*
X16748528Y-9299981D01*
X16748528Y-9299981D02*
X16741385Y-9292839D01*
X16741385Y-9292839D02*
X16748528Y-9285696D01*
X16748528Y-9285696D02*
X16748528Y-9299981D01*
D10*
D11*
X7838660Y-9372190D02*
X7860088Y-9379333D01*
X7860088Y-9379333D02*
X7895803Y-9379333D01*
X7895803Y-9379333D02*
X7910088Y-9372190D01*
X7910088Y-9372190D02*
X7917231Y-9365047D01*
X7917231Y-9365047D02*
X7924374Y-9350761D01*
X7924374Y-9350761D02*
X7924374Y-9336476D01*
X7924374Y-9336476D02*
X7917231Y-9322190D01*
X7917231Y-9322190D02*
X7910088Y-9315047D01*
X7910088Y-9315047D02*
X7895803Y-9307904D01*
X7895803Y-9307904D02*
X7867231Y-9300761D01*
X7867231Y-9300761D02*
X7852945Y-9293619D01*
X7852945Y-9293619D02*
X7845803Y-9286476D01*
X7845803Y-9286476D02*
X7838660Y-9272190D01*
X7838660Y-9272190D02*
X7838660Y-9257904D01*
X7838660Y-9257904D02*
X7845803Y-9243619D01*
X7845803Y-9243619D02*
X7852945Y-9236476D01*
X7852945Y-9236476D02*
X7867231Y-9229333D01*
X7867231Y-9229333D02*
X7902945Y-9229333D01*
X7902945Y-9229333D02*
X7924374Y-9236476D01*
X7988660Y-9379333D02*
X7988660Y-9279333D01*
X7988660Y-9229333D02*
X7981517Y-9236476D01*
X7981517Y-9236476D02*
X7988660Y-9243619D01*
X7988660Y-9243619D02*
X7995803Y-9236476D01*
X7995803Y-9236476D02*
X7988660Y-9229333D01*
X7988660Y-9229333D02*
X7988660Y-9243619D01*
X8045803Y-9279333D02*
X8124374Y-9279333D01*
X8124374Y-9279333D02*
X8045803Y-9379333D01*
X8045803Y-9379333D02*
X8124374Y-9379333D01*
X8238660Y-9372190D02*
X8224374Y-9379333D01*
X8224374Y-9379333D02*
X8195803Y-9379333D01*
X8195803Y-9379333D02*
X8181517Y-9372190D01*
X8181517Y-9372190D02*
X8174374Y-9357904D01*
X8174374Y-9357904D02*
X8174374Y-9300761D01*
X8174374Y-9300761D02*
X8181517Y-9286476D01*
X8181517Y-9286476D02*
X8195803Y-9279333D01*
X8195803Y-9279333D02*
X8224374Y-9279333D01*
X8224374Y-9279333D02*
X8238660Y-9286476D01*
X8238660Y-9286476D02*
X8245803Y-9300761D01*
X8245803Y-9300761D02*
X8245803Y-9315047D01*
X8245803Y-9315047D02*
X8174374Y-9329333D01*
X8310088Y-9365047D02*
X8317231Y-9372190D01*
X8317231Y-9372190D02*
X8310088Y-9379333D01*
X8310088Y-9379333D02*
X8302945Y-9372190D01*
X8302945Y-9372190D02*
X8310088Y-9365047D01*
X8310088Y-9365047D02*
X8310088Y-9379333D01*
X8310088Y-9286476D02*
X8317231Y-9293619D01*
X8317231Y-9293619D02*
X8310088Y-9300761D01*
X8310088Y-9300761D02*
X8302945Y-9293619D01*
X8302945Y-9293619D02*
X8310088Y-9286476D01*
X8310088Y-9286476D02*
X8310088Y-9300761D01*
X8488660Y-9336476D02*
X8560088Y-9336476D01*
X8474374Y-9379333D02*
X8524374Y-9229333D01*
X8524374Y-9229333D02*
X8574374Y-9379333D01*
X8688660Y-9279333D02*
X8688660Y-9379333D01*
X8652946Y-9222190D02*
X8617231Y-9329333D01*
X8617231Y-9329333D02*
X8710088Y-9329333D01*
D10*
D11*
X16345803Y-9659333D02*
X16345803Y-9509333D01*
X16481517Y-9659333D02*
X16481517Y-9509333D01*
X16481517Y-9652190D02*
X16467231Y-9659333D01*
X16467231Y-9659333D02*
X16438660Y-9659333D01*
X16438660Y-9659333D02*
X16424374Y-9652190D01*
X16424374Y-9652190D02*
X16417231Y-9645047D01*
X16417231Y-9645047D02*
X16410088Y-9630761D01*
X16410088Y-9630761D02*
X16410088Y-9587904D01*
X16410088Y-9587904D02*
X16417231Y-9573619D01*
X16417231Y-9573619D02*
X16424374Y-9566476D01*
X16424374Y-9566476D02*
X16438660Y-9559333D01*
X16438660Y-9559333D02*
X16467231Y-9559333D01*
X16467231Y-9559333D02*
X16481517Y-9566476D01*
X16552945Y-9645047D02*
X16560088Y-9652190D01*
X16560088Y-9652190D02*
X16552945Y-9659333D01*
X16552945Y-9659333D02*
X16545803Y-9652190D01*
X16545803Y-9652190D02*
X16552945Y-9645047D01*
X16552945Y-9645047D02*
X16552945Y-9659333D01*
X16552945Y-9566476D02*
X16560088Y-9573619D01*
X16560088Y-9573619D02*
X16552945Y-9580761D01*
X16552945Y-9580761D02*
X16545803Y-9573619D01*
X16545803Y-9573619D02*
X16552945Y-9566476D01*
X16552945Y-9566476D02*
X16552945Y-9580761D01*
X16802946Y-9509333D02*
X16774374Y-9509333D01*
X16774374Y-9509333D02*
X16760088Y-9516476D01*
X16760088Y-9516476D02*
X16752946Y-9523619D01*
X16752946Y-9523619D02*
X16738660Y-9545047D01*
X16738660Y-9545047D02*
X16731517Y-9573619D01*
X16731517Y-9573619D02*
X16731517Y-9630761D01*
X16731517Y-9630761D02*
X16738660Y-9645047D01*
X16738660Y-9645047D02*
X16745803Y-9652190D01*
X16745803Y-9652190D02*
X16760088Y-9659333D01*
X16760088Y-9659333D02*
X16788660Y-9659333D01*
X16788660Y-9659333D02*
X16802946Y-9652190D01*
X16802946Y-9652190D02*
X16810088Y-9645047D01*
X16810088Y-9645047D02*
X16817231Y-9630761D01*
X16817231Y-9630761D02*
X16817231Y-9595047D01*
X16817231Y-9595047D02*
X16810088Y-9580761D01*
X16810088Y-9580761D02*
X16802946Y-9573619D01*
X16802946Y-9573619D02*
X16788660Y-9566476D01*
X16788660Y-9566476D02*
X16760088Y-9566476D01*
X16760088Y-9566476D02*
X16745803Y-9573619D01*
X16745803Y-9573619D02*
X16738660Y-9580761D01*
X16738660Y-9580761D02*
X16731517Y-9595047D01*
X16988660Y-9502190D02*
X16860088Y-9695047D01*
X17117231Y-9659333D02*
X17031517Y-9659333D01*
X17074374Y-9659333D02*
X17074374Y-9509333D01*
X17074374Y-9509333D02*
X17060088Y-9530761D01*
X17060088Y-9530761D02*
X17045803Y-9545047D01*
X17045803Y-9545047D02*
X17031517Y-9552190D01*
X17260088Y-9659333D02*
X17174374Y-9659333D01*
X17217231Y-9659333D02*
X17217231Y-9509333D01*
X17217231Y-9509333D02*
X17202946Y-9530761D01*
X17202946Y-9530761D02*
X17188660Y-9545047D01*
X17188660Y-9545047D02*
X17174374Y-9552190D01*
D10*
D11*
X7700220Y-8750720D02*
X18500220Y-8750720D01*
D10*
D13*
X7869393Y-8821164D02*
X7983678Y-8821164D01*
X7901536Y-9021164D02*
X7926536Y-8821164D01*
X8025345Y-9021164D02*
X8042012Y-8887830D01*
X8050345Y-8821164D02*
X8039631Y-8830688D01*
X8039631Y-8830688D02*
X8047964Y-8840211D01*
X8047964Y-8840211D02*
X8058679Y-8830688D01*
X8058679Y-8830688D02*
X8050345Y-8821164D01*
X8050345Y-8821164D02*
X8047964Y-8840211D01*
X8108679Y-8887830D02*
X8184869Y-8887830D01*
X8145583Y-8821164D02*
X8124155Y-8992592D01*
X8124155Y-8992592D02*
X8131298Y-9011640D01*
X8131298Y-9011640D02*
X8149155Y-9021164D01*
X8149155Y-9021164D02*
X8168202Y-9021164D01*
X8263440Y-9021164D02*
X8245583Y-9011640D01*
X8245583Y-9011640D02*
X8238440Y-8992592D01*
X8238440Y-8992592D02*
X8259869Y-8821164D01*
X8417012Y-9011640D02*
X8396774Y-9021164D01*
X8396774Y-9021164D02*
X8358678Y-9021164D01*
X8358678Y-9021164D02*
X8340821Y-9011640D01*
X8340821Y-9011640D02*
X8333678Y-8992592D01*
X8333678Y-8992592D02*
X8343202Y-8916402D01*
X8343202Y-8916402D02*
X8355107Y-8897354D01*
X8355107Y-8897354D02*
X8375345Y-8887830D01*
X8375345Y-8887830D02*
X8413440Y-8887830D01*
X8413440Y-8887830D02*
X8431298Y-8897354D01*
X8431298Y-8897354D02*
X8438440Y-8916402D01*
X8438440Y-8916402D02*
X8436060Y-8935450D01*
X8436060Y-8935450D02*
X8338440Y-8954497D01*
X8513441Y-9002116D02*
X8521774Y-9011640D01*
X8521774Y-9011640D02*
X8511060Y-9021164D01*
X8511060Y-9021164D02*
X8502726Y-9011640D01*
X8502726Y-9011640D02*
X8513441Y-9002116D01*
X8513441Y-9002116D02*
X8511060Y-9021164D01*
X8526536Y-8897354D02*
X8534869Y-8906878D01*
X8534869Y-8906878D02*
X8524155Y-8916402D01*
X8524155Y-8916402D02*
X8515821Y-8906878D01*
X8515821Y-8906878D02*
X8526536Y-8897354D01*
X8526536Y-8897354D02*
X8524155Y-8916402D01*
D10*
D11*
X7895803Y-8560761D02*
X7845803Y-8560761D01*
X7845803Y-8639333D02*
X7845803Y-8489333D01*
X7845803Y-8489333D02*
X7917231Y-8489333D01*
X7974374Y-8639333D02*
X7974374Y-8539333D01*
X7974374Y-8489333D02*
X7967231Y-8496476D01*
X7967231Y-8496476D02*
X7974374Y-8503619D01*
X7974374Y-8503619D02*
X7981517Y-8496476D01*
X7981517Y-8496476D02*
X7974374Y-8489333D01*
X7974374Y-8489333D02*
X7974374Y-8503619D01*
X8067231Y-8639333D02*
X8052945Y-8632190D01*
X8052945Y-8632190D02*
X8045803Y-8617904D01*
X8045803Y-8617904D02*
X8045803Y-8489333D01*
X8181517Y-8632190D02*
X8167231Y-8639333D01*
X8167231Y-8639333D02*
X8138660Y-8639333D01*
X8138660Y-8639333D02*
X8124374Y-8632190D01*
X8124374Y-8632190D02*
X8117231Y-8617904D01*
X8117231Y-8617904D02*
X8117231Y-8560761D01*
X8117231Y-8560761D02*
X8124374Y-8546476D01*
X8124374Y-8546476D02*
X8138660Y-8539333D01*
X8138660Y-8539333D02*
X8167231Y-8539333D01*
X8167231Y-8539333D02*
X8181517Y-8546476D01*
X8181517Y-8546476D02*
X8188660Y-8560761D01*
X8188660Y-8560761D02*
X8188660Y-8575047D01*
X8188660Y-8575047D02*
X8117231Y-8589333D01*
X8252945Y-8625047D02*
X8260088Y-8632190D01*
X8260088Y-8632190D02*
X8252945Y-8639333D01*
X8252945Y-8639333D02*
X8245803Y-8632190D01*
X8245803Y-8632190D02*
X8252945Y-8625047D01*
X8252945Y-8625047D02*
X8252945Y-8639333D01*
X8252945Y-8546476D02*
X8260088Y-8553619D01*
X8260088Y-8553619D02*
X8252945Y-8560761D01*
X8252945Y-8560761D02*
X8245803Y-8553619D01*
X8245803Y-8553619D02*
X8252945Y-8546476D01*
X8252945Y-8546476D02*
X8252945Y-8560761D01*
X8424374Y-8539333D02*
X8460088Y-8639333D01*
X8460088Y-8639333D02*
X8495803Y-8539333D01*
X8574374Y-8639333D02*
X8560088Y-8632190D01*
X8560088Y-8632190D02*
X8552945Y-8625047D01*
X8552945Y-8625047D02*
X8545803Y-8610761D01*
X8545803Y-8610761D02*
X8545803Y-8567904D01*
X8545803Y-8567904D02*
X8552945Y-8553619D01*
X8552945Y-8553619D02*
X8560088Y-8546476D01*
X8560088Y-8546476D02*
X8574374Y-8539333D01*
X8574374Y-8539333D02*
X8595803Y-8539333D01*
X8595803Y-8539333D02*
X8610088Y-8546476D01*
X8610088Y-8546476D02*
X8617231Y-8553619D01*
X8617231Y-8553619D02*
X8624374Y-8567904D01*
X8624374Y-8567904D02*
X8624374Y-8610761D01*
X8624374Y-8610761D02*
X8617231Y-8625047D01*
X8617231Y-8625047D02*
X8610088Y-8632190D01*
X8610088Y-8632190D02*
X8595803Y-8639333D01*
X8595803Y-8639333D02*
X8574374Y-8639333D01*
X8688660Y-8639333D02*
X8688660Y-8539333D01*
X8688660Y-8489333D02*
X8681517Y-8496476D01*
X8681517Y-8496476D02*
X8688660Y-8503619D01*
X8688660Y-8503619D02*
X8695803Y-8496476D01*
X8695803Y-8496476D02*
X8688660Y-8489333D01*
X8688660Y-8489333D02*
X8688660Y-8503619D01*
X8824374Y-8632190D02*
X8810088Y-8639333D01*
X8810088Y-8639333D02*
X8781517Y-8639333D01*
X8781517Y-8639333D02*
X8767231Y-8632190D01*
X8767231Y-8632190D02*
X8760088Y-8625047D01*
X8760088Y-8625047D02*
X8752946Y-8610761D01*
X8752946Y-8610761D02*
X8752946Y-8567904D01*
X8752946Y-8567904D02*
X8760088Y-8553619D01*
X8760088Y-8553619D02*
X8767231Y-8546476D01*
X8767231Y-8546476D02*
X8781517Y-8539333D01*
X8781517Y-8539333D02*
X8810088Y-8539333D01*
X8810088Y-8539333D02*
X8824374Y-8546476D01*
X8945803Y-8632190D02*
X8931517Y-8639333D01*
X8931517Y-8639333D02*
X8902946Y-8639333D01*
X8902946Y-8639333D02*
X8888660Y-8632190D01*
X8888660Y-8632190D02*
X8881517Y-8617904D01*
X8881517Y-8617904D02*
X8881517Y-8560761D01*
X8881517Y-8560761D02*
X8888660Y-8546476D01*
X8888660Y-8546476D02*
X8902946Y-8539333D01*
X8902946Y-8539333D02*
X8931517Y-8539333D01*
X8931517Y-8539333D02*
X8945803Y-8546476D01*
X8945803Y-8546476D02*
X8952946Y-8560761D01*
X8952946Y-8560761D02*
X8952946Y-8575047D01*
X8952946Y-8575047D02*
X8881517Y-8589333D01*
X9017231Y-8639333D02*
X9017231Y-8539333D01*
X9017231Y-8553619D02*
X9024374Y-8546476D01*
X9024374Y-8546476D02*
X9038660Y-8539333D01*
X9038660Y-8539333D02*
X9060088Y-8539333D01*
X9060088Y-8539333D02*
X9074374Y-8546476D01*
X9074374Y-8546476D02*
X9081517Y-8560761D01*
X9081517Y-8560761D02*
X9081517Y-8639333D01*
X9081517Y-8560761D02*
X9088660Y-8546476D01*
X9088660Y-8546476D02*
X9102945Y-8539333D01*
X9102945Y-8539333D02*
X9124374Y-8539333D01*
X9124374Y-8539333D02*
X9138660Y-8546476D01*
X9138660Y-8546476D02*
X9145803Y-8560761D01*
X9145803Y-8560761D02*
X9145803Y-8639333D01*
X9281517Y-8639333D02*
X9281517Y-8560761D01*
X9281517Y-8560761D02*
X9274374Y-8546476D01*
X9274374Y-8546476D02*
X9260088Y-8539333D01*
X9260088Y-8539333D02*
X9231517Y-8539333D01*
X9231517Y-8539333D02*
X9217231Y-8546476D01*
X9281517Y-8632190D02*
X9267231Y-8639333D01*
X9267231Y-8639333D02*
X9231517Y-8639333D01*
X9231517Y-8639333D02*
X9217231Y-8632190D01*
X9217231Y-8632190D02*
X9210088Y-8617904D01*
X9210088Y-8617904D02*
X9210088Y-8603619D01*
X9210088Y-8603619D02*
X9217231Y-8589333D01*
X9217231Y-8589333D02*
X9231517Y-8582190D01*
X9231517Y-8582190D02*
X9267231Y-8582190D01*
X9267231Y-8582190D02*
X9281517Y-8575047D01*
X9352945Y-8639333D02*
X9352945Y-8539333D01*
X9352945Y-8489333D02*
X9345803Y-8496476D01*
X9345803Y-8496476D02*
X9352945Y-8503619D01*
X9352945Y-8503619D02*
X9360088Y-8496476D01*
X9360088Y-8496476D02*
X9352945Y-8489333D01*
X9352945Y-8489333D02*
X9352945Y-8503619D01*
X9445803Y-8639333D02*
X9431517Y-8632190D01*
X9431517Y-8632190D02*
X9424374Y-8617904D01*
X9424374Y-8617904D02*
X9424374Y-8489333D01*
X9502945Y-8582190D02*
X9617231Y-8582190D01*
X9688660Y-8639333D02*
X9688660Y-8489333D01*
X9688660Y-8546476D02*
X9702946Y-8539333D01*
X9702946Y-8539333D02*
X9731517Y-8539333D01*
X9731517Y-8539333D02*
X9745803Y-8546476D01*
X9745803Y-8546476D02*
X9752946Y-8553619D01*
X9752946Y-8553619D02*
X9760088Y-8567904D01*
X9760088Y-8567904D02*
X9760088Y-8610761D01*
X9760088Y-8610761D02*
X9752946Y-8625047D01*
X9752946Y-8625047D02*
X9745803Y-8632190D01*
X9745803Y-8632190D02*
X9731517Y-8639333D01*
X9731517Y-8639333D02*
X9702946Y-8639333D01*
X9702946Y-8639333D02*
X9688660Y-8632190D01*
X9845803Y-8639333D02*
X9831517Y-8632190D01*
X9831517Y-8632190D02*
X9824374Y-8625047D01*
X9824374Y-8625047D02*
X9817231Y-8610761D01*
X9817231Y-8610761D02*
X9817231Y-8567904D01*
X9817231Y-8567904D02*
X9824374Y-8553619D01*
X9824374Y-8553619D02*
X9831517Y-8546476D01*
X9831517Y-8546476D02*
X9845803Y-8539333D01*
X9845803Y-8539333D02*
X9867231Y-8539333D01*
X9867231Y-8539333D02*
X9881517Y-8546476D01*
X9881517Y-8546476D02*
X9888660Y-8553619D01*
X9888660Y-8553619D02*
X9895803Y-8567904D01*
X9895803Y-8567904D02*
X9895803Y-8610761D01*
X9895803Y-8610761D02*
X9888660Y-8625047D01*
X9888660Y-8625047D02*
X9881517Y-8632190D01*
X9881517Y-8632190D02*
X9867231Y-8639333D01*
X9867231Y-8639333D02*
X9845803Y-8639333D01*
X9945803Y-8639333D02*
X10024374Y-8539333D01*
X9945803Y-8539333D02*
X10024374Y-8639333D01*
X10081517Y-8625047D02*
X10088660Y-8632190D01*
X10088660Y-8632190D02*
X10081517Y-8639333D01*
X10081517Y-8639333D02*
X10074374Y-8632190D01*
X10074374Y-8632190D02*
X10081517Y-8625047D01*
X10081517Y-8625047D02*
X10081517Y-8639333D01*
X10152946Y-8639333D02*
X10152946Y-8489333D01*
X10167231Y-8582190D02*
X10210088Y-8639333D01*
X10210088Y-8539333D02*
X10152946Y-8596476D01*
X10274374Y-8639333D02*
X10274374Y-8539333D01*
X10274374Y-8489333D02*
X10267231Y-8496476D01*
X10267231Y-8496476D02*
X10274374Y-8503619D01*
X10274374Y-8503619D02*
X10281517Y-8496476D01*
X10281517Y-8496476D02*
X10274374Y-8489333D01*
X10274374Y-8489333D02*
X10274374Y-8503619D01*
X10410089Y-8632190D02*
X10395803Y-8639333D01*
X10395803Y-8639333D02*
X10367231Y-8639333D01*
X10367231Y-8639333D02*
X10352946Y-8632190D01*
X10352946Y-8632190D02*
X10345803Y-8625047D01*
X10345803Y-8625047D02*
X10338660Y-8610761D01*
X10338660Y-8610761D02*
X10338660Y-8567904D01*
X10338660Y-8567904D02*
X10345803Y-8553619D01*
X10345803Y-8553619D02*
X10352946Y-8546476D01*
X10352946Y-8546476D02*
X10367231Y-8539333D01*
X10367231Y-8539333D02*
X10395803Y-8539333D01*
X10395803Y-8539333D02*
X10410089Y-8546476D01*
X10538660Y-8639333D02*
X10538660Y-8560761D01*
X10538660Y-8560761D02*
X10531517Y-8546476D01*
X10531517Y-8546476D02*
X10517231Y-8539333D01*
X10517231Y-8539333D02*
X10488660Y-8539333D01*
X10488660Y-8539333D02*
X10474374Y-8546476D01*
X10538660Y-8632190D02*
X10524374Y-8639333D01*
X10524374Y-8639333D02*
X10488660Y-8639333D01*
X10488660Y-8639333D02*
X10474374Y-8632190D01*
X10474374Y-8632190D02*
X10467231Y-8617904D01*
X10467231Y-8617904D02*
X10467231Y-8603619D01*
X10467231Y-8603619D02*
X10474374Y-8589333D01*
X10474374Y-8589333D02*
X10488660Y-8582190D01*
X10488660Y-8582190D02*
X10524374Y-8582190D01*
X10524374Y-8582190D02*
X10538660Y-8575047D01*
X10674374Y-8639333D02*
X10674374Y-8489333D01*
X10674374Y-8632190D02*
X10660088Y-8639333D01*
X10660088Y-8639333D02*
X10631517Y-8639333D01*
X10631517Y-8639333D02*
X10617231Y-8632190D01*
X10617231Y-8632190D02*
X10610088Y-8625047D01*
X10610088Y-8625047D02*
X10602946Y-8610761D01*
X10602946Y-8610761D02*
X10602946Y-8567904D01*
X10602946Y-8567904D02*
X10610088Y-8553619D01*
X10610088Y-8553619D02*
X10617231Y-8546476D01*
X10617231Y-8546476D02*
X10631517Y-8539333D01*
X10631517Y-8539333D02*
X10660088Y-8539333D01*
X10660088Y-8539333D02*
X10674374Y-8546476D01*
X10710089Y-8653619D02*
X10824374Y-8653619D01*
X10860088Y-8539333D02*
X10860088Y-8689333D01*
X10860088Y-8546476D02*
X10874374Y-8539333D01*
X10874374Y-8539333D02*
X10902946Y-8539333D01*
X10902946Y-8539333D02*
X10917231Y-8546476D01*
X10917231Y-8546476D02*
X10924374Y-8553619D01*
X10924374Y-8553619D02*
X10931517Y-8567904D01*
X10931517Y-8567904D02*
X10931517Y-8610761D01*
X10931517Y-8610761D02*
X10924374Y-8625047D01*
X10924374Y-8625047D02*
X10917231Y-8632190D01*
X10917231Y-8632190D02*
X10902946Y-8639333D01*
X10902946Y-8639333D02*
X10874374Y-8639333D01*
X10874374Y-8639333D02*
X10860088Y-8632190D01*
X11060089Y-8632190D02*
X11045803Y-8639333D01*
X11045803Y-8639333D02*
X11017231Y-8639333D01*
X11017231Y-8639333D02*
X11002946Y-8632190D01*
X11002946Y-8632190D02*
X10995803Y-8625047D01*
X10995803Y-8625047D02*
X10988660Y-8610761D01*
X10988660Y-8610761D02*
X10988660Y-8567904D01*
X10988660Y-8567904D02*
X10995803Y-8553619D01*
X10995803Y-8553619D02*
X11002946Y-8546476D01*
X11002946Y-8546476D02*
X11017231Y-8539333D01*
X11017231Y-8539333D02*
X11045803Y-8539333D01*
X11045803Y-8539333D02*
X11060089Y-8546476D01*
X11124374Y-8639333D02*
X11124374Y-8489333D01*
X11124374Y-8546476D02*
X11138660Y-8539333D01*
X11138660Y-8539333D02*
X11167231Y-8539333D01*
X11167231Y-8539333D02*
X11181517Y-8546476D01*
X11181517Y-8546476D02*
X11188660Y-8553619D01*
X11188660Y-8553619D02*
X11195803Y-8567904D01*
X11195803Y-8567904D02*
X11195803Y-8610761D01*
X11195803Y-8610761D02*
X11188660Y-8625047D01*
X11188660Y-8625047D02*
X11181517Y-8632190D01*
X11181517Y-8632190D02*
X11167231Y-8639333D01*
X11167231Y-8639333D02*
X11138660Y-8639333D01*
X11138660Y-8639333D02*
X11124374Y-8632190D01*
D10*
D11*
X7700220Y-8150720D02*
X18500220Y-8150720D01*
D10*
D11*
X7838660Y-8362190D02*
X7860088Y-8369333D01*
X7860088Y-8369333D02*
X7895803Y-8369333D01*
X7895803Y-8369333D02*
X7910088Y-8362190D01*
X7910088Y-8362190D02*
X7917231Y-8355047D01*
X7917231Y-8355047D02*
X7924374Y-8340761D01*
X7924374Y-8340761D02*
X7924374Y-8326476D01*
X7924374Y-8326476D02*
X7917231Y-8312190D01*
X7917231Y-8312190D02*
X7910088Y-8305047D01*
X7910088Y-8305047D02*
X7895803Y-8297904D01*
X7895803Y-8297904D02*
X7867231Y-8290761D01*
X7867231Y-8290761D02*
X7852945Y-8283618D01*
X7852945Y-8283618D02*
X7845803Y-8276476D01*
X7845803Y-8276476D02*
X7838660Y-8262190D01*
X7838660Y-8262190D02*
X7838660Y-8247904D01*
X7838660Y-8247904D02*
X7845803Y-8233618D01*
X7845803Y-8233618D02*
X7852945Y-8226476D01*
X7852945Y-8226476D02*
X7867231Y-8219333D01*
X7867231Y-8219333D02*
X7902945Y-8219333D01*
X7902945Y-8219333D02*
X7924374Y-8226476D01*
X7988660Y-8369333D02*
X7988660Y-8219333D01*
X8052945Y-8369333D02*
X8052945Y-8290761D01*
X8052945Y-8290761D02*
X8045803Y-8276476D01*
X8045803Y-8276476D02*
X8031517Y-8269333D01*
X8031517Y-8269333D02*
X8010088Y-8269333D01*
X8010088Y-8269333D02*
X7995803Y-8276476D01*
X7995803Y-8276476D02*
X7988660Y-8283618D01*
X8181517Y-8362190D02*
X8167231Y-8369333D01*
X8167231Y-8369333D02*
X8138660Y-8369333D01*
X8138660Y-8369333D02*
X8124374Y-8362190D01*
X8124374Y-8362190D02*
X8117231Y-8347904D01*
X8117231Y-8347904D02*
X8117231Y-8290761D01*
X8117231Y-8290761D02*
X8124374Y-8276476D01*
X8124374Y-8276476D02*
X8138660Y-8269333D01*
X8138660Y-8269333D02*
X8167231Y-8269333D01*
X8167231Y-8269333D02*
X8181517Y-8276476D01*
X8181517Y-8276476D02*
X8188660Y-8290761D01*
X8188660Y-8290761D02*
X8188660Y-8305047D01*
X8188660Y-8305047D02*
X8117231Y-8319333D01*
X8310088Y-8362190D02*
X8295803Y-8369333D01*
X8295803Y-8369333D02*
X8267231Y-8369333D01*
X8267231Y-8369333D02*
X8252945Y-8362190D01*
X8252945Y-8362190D02*
X8245803Y-8347904D01*
X8245803Y-8347904D02*
X8245803Y-8290761D01*
X8245803Y-8290761D02*
X8252945Y-8276476D01*
X8252945Y-8276476D02*
X8267231Y-8269333D01*
X8267231Y-8269333D02*
X8295803Y-8269333D01*
X8295803Y-8269333D02*
X8310088Y-8276476D01*
X8310088Y-8276476D02*
X8317231Y-8290761D01*
X8317231Y-8290761D02*
X8317231Y-8305047D01*
X8317231Y-8305047D02*
X8245803Y-8319333D01*
X8360088Y-8269333D02*
X8417231Y-8269333D01*
X8381517Y-8219333D02*
X8381517Y-8347904D01*
X8381517Y-8347904D02*
X8388660Y-8362190D01*
X8388660Y-8362190D02*
X8402945Y-8369333D01*
X8402945Y-8369333D02*
X8417231Y-8369333D01*
X8467231Y-8355047D02*
X8474374Y-8362190D01*
X8474374Y-8362190D02*
X8467231Y-8369333D01*
X8467231Y-8369333D02*
X8460088Y-8362190D01*
X8460088Y-8362190D02*
X8467231Y-8355047D01*
X8467231Y-8355047D02*
X8467231Y-8369333D01*
X8467231Y-8276476D02*
X8474374Y-8283618D01*
X8474374Y-8283618D02*
X8467231Y-8290761D01*
X8467231Y-8290761D02*
X8460088Y-8283618D01*
X8460088Y-8283618D02*
X8467231Y-8276476D01*
X8467231Y-8276476D02*
X8467231Y-8290761D01*
D10*
D11*
X9700220Y-9150720D02*
X9700220Y-9450720D01*
D10*
D11*
X16100220Y-9150720D02*
X16100220Y-9800720D01*
M02*
