%TF.GenerationSoftware,KiCad,Pcbnew,9.0.2*%
%TF.CreationDate,2025-05-30T11:40:45+02:00*%
%TF.ProjectId,voicemail-box,766f6963-656d-4616-996c-2d626f782e6b,rev?*%
%TF.SameCoordinates,PX5f5e100PY5f5e100*%
%TF.FileFunction,Soldermask,Bot*%
%TF.FilePolarity,Negative*%
%FSLAX45Y45*%
G04 Gerber Fmt 4.5, Leading zero omitted, Abs format (unit mm)*
G04 Created by KiCad (PCBNEW 9.0.2) date 2025-05-30 11:40:45*
%MOMM*%
%LPD*%
G01*
G04 APERTURE LIST*
G04 Aperture macros list*
%AMRoundRect*
0 Rectangle with rounded corners*
0 $1 Rounding radius*
0 $2 $3 $4 $5 $6 $7 $8 $9 X,Y pos of 4 corners*
0 Add a 4 corners polygon primitive as box body*
4,1,4,$2,$3,$4,$5,$6,$7,$8,$9,$2,$3,0*
0 Add four circle primitives for the rounded corners*
1,1,$1+$1,$2,$3*
1,1,$1+$1,$4,$5*
1,1,$1+$1,$6,$7*
1,1,$1+$1,$8,$9*
0 Add four rect primitives between the rounded corners*
20,1,$1+$1,$2,$3,$4,$5,0*
20,1,$1+$1,$4,$5,$6,$7,0*
20,1,$1+$1,$6,$7,$8,$9,0*
20,1,$1+$1,$8,$9,$2,$3,0*%
G04 Aperture macros list end*
%ADD10C,0.100000*%
%ADD11C,0.150000*%
%ADD12C,0.300000*%
%ADD13C,0.400000*%
%ADD14C,2.000000*%
%ADD15R,1.700000X1.700000*%
%ADD16C,1.700000*%
%ADD17R,3.000000X3.000000*%
%ADD18C,3.000000*%
%ADD19O,1.000000X1.700000*%
%ADD20R,1.700000X2.500000*%
%ADD21O,1.700000X2.500000*%
%ADD22RoundRect,0.250000X-0.650000X-1.550000X0.650000X-1.550000X0.650000X1.550000X-0.650000X1.550000X0*%
%ADD23O,1.800000X3.600000*%
%ADD24R,1.000000X1.000000*%
%ADD25C,1.000000*%
%ADD26R,1.600000X1.600000*%
%ADD27O,1.600000X1.600000*%
%ADD28C,4.500000*%
%ADD29C,0.600000*%
G04 APERTURE END LIST*
D10*
D11*
X7700220Y-6600720D02*
X18500220Y-6600720D01*
X18500220Y-9800720D01*
X7700220Y-9800720D01*
X7700220Y-6600720D01*
D10*
D11*
X-9000000Y9000000D02*
X18700220Y9000000D01*
X18700220Y-10000720D01*
X-9000000Y-10000720D01*
X-9000000Y9000000D01*
D10*
D11*
X-8800000Y8800000D02*
X18500220Y8800000D01*
X18500220Y-9800720D01*
X-8800000Y-9800720D01*
X-8800000Y8800000D01*
D10*
D11*
X-4000000Y8800000D02*
X-4000000Y9000000D01*
D10*
D11*
X1000000Y8800000D02*
X1000000Y9000000D01*
D10*
D11*
X6000000Y8800000D02*
X6000000Y9000000D01*
D10*
D11*
X11000000Y8800000D02*
X11000000Y9000000D01*
D10*
D11*
X16000000Y8800000D02*
X16000000Y9000000D01*
D10*
D11*
X-6391084Y8840640D02*
X-6465370Y8840640D01*
X-6428227Y8840640D02*
X-6428227Y8970640D01*
X-6428227Y8970640D02*
X-6440608Y8952068D01*
X-6440608Y8952068D02*
X-6452989Y8939687D01*
X-6452989Y8939687D02*
X-6465370Y8933497D01*
D10*
D11*
X-1465370Y8958259D02*
X-1459179Y8964449D01*
X-1459179Y8964449D02*
X-1446798Y8970640D01*
X-1446798Y8970640D02*
X-1415846Y8970640D01*
X-1415846Y8970640D02*
X-1403465Y8964449D01*
X-1403465Y8964449D02*
X-1397275Y8958259D01*
X-1397275Y8958259D02*
X-1391084Y8945878D01*
X-1391084Y8945878D02*
X-1391084Y8933497D01*
X-1391084Y8933497D02*
X-1397275Y8914925D01*
X-1397275Y8914925D02*
X-1471560Y8840640D01*
X-1471560Y8840640D02*
X-1391084Y8840640D01*
D10*
D11*
X3528440Y8970640D02*
X3608916Y8970640D01*
X3608916Y8970640D02*
X3565583Y8921116D01*
X3565583Y8921116D02*
X3584154Y8921116D01*
X3584154Y8921116D02*
X3596535Y8914925D01*
X3596535Y8914925D02*
X3602725Y8908735D01*
X3602725Y8908735D02*
X3608916Y8896354D01*
X3608916Y8896354D02*
X3608916Y8865402D01*
X3608916Y8865402D02*
X3602725Y8853021D01*
X3602725Y8853021D02*
X3596535Y8846830D01*
X3596535Y8846830D02*
X3584154Y8840640D01*
X3584154Y8840640D02*
X3547011Y8840640D01*
X3547011Y8840640D02*
X3534630Y8846830D01*
X3534630Y8846830D02*
X3528440Y8853021D01*
D10*
D11*
X8596535Y8927306D02*
X8596535Y8840640D01*
X8565583Y8976830D02*
X8534630Y8883973D01*
X8534630Y8883973D02*
X8615106Y8883973D01*
D10*
D11*
X13602725Y8970640D02*
X13540821Y8970640D01*
X13540821Y8970640D02*
X13534630Y8908735D01*
X13534630Y8908735D02*
X13540821Y8914925D01*
X13540821Y8914925D02*
X13553202Y8921116D01*
X13553202Y8921116D02*
X13584154Y8921116D01*
X13584154Y8921116D02*
X13596535Y8914925D01*
X13596535Y8914925D02*
X13602725Y8908735D01*
X13602725Y8908735D02*
X13608916Y8896354D01*
X13608916Y8896354D02*
X13608916Y8865402D01*
X13608916Y8865402D02*
X13602725Y8853021D01*
X13602725Y8853021D02*
X13596535Y8846830D01*
X13596535Y8846830D02*
X13584154Y8840640D01*
X13584154Y8840640D02*
X13553202Y8840640D01*
X13553202Y8840640D02*
X13540821Y8846830D01*
X13540821Y8846830D02*
X13534630Y8853021D01*
D10*
D11*
X18596535Y8970640D02*
X18571773Y8970640D01*
X18571773Y8970640D02*
X18559392Y8964449D01*
X18559392Y8964449D02*
X18553202Y8958259D01*
X18553202Y8958259D02*
X18540821Y8939687D01*
X18540821Y8939687D02*
X18534630Y8914925D01*
X18534630Y8914925D02*
X18534630Y8865402D01*
X18534630Y8865402D02*
X18540821Y8853021D01*
X18540821Y8853021D02*
X18547011Y8846830D01*
X18547011Y8846830D02*
X18559392Y8840640D01*
X18559392Y8840640D02*
X18584154Y8840640D01*
X18584154Y8840640D02*
X18596535Y8846830D01*
X18596535Y8846830D02*
X18602726Y8853021D01*
X18602726Y8853021D02*
X18608916Y8865402D01*
X18608916Y8865402D02*
X18608916Y8896354D01*
X18608916Y8896354D02*
X18602726Y8908735D01*
X18602726Y8908735D02*
X18596535Y8914925D01*
X18596535Y8914925D02*
X18584154Y8921116D01*
X18584154Y8921116D02*
X18559392Y8921116D01*
X18559392Y8921116D02*
X18547011Y8914925D01*
X18547011Y8914925D02*
X18540821Y8908735D01*
X18540821Y8908735D02*
X18534630Y8896354D01*
D10*
D11*
X-4000000Y-9800720D02*
X-4000000Y-10000720D01*
D10*
D11*
X1000000Y-9800720D02*
X1000000Y-10000720D01*
D10*
D11*
X6000000Y-9800720D02*
X6000000Y-10000720D01*
D10*
D11*
X11000000Y-9800720D02*
X11000000Y-10000720D01*
D10*
D11*
X16000000Y-9800720D02*
X16000000Y-10000720D01*
D10*
D11*
X-6391084Y-9960080D02*
X-6465370Y-9960080D01*
X-6428227Y-9960080D02*
X-6428227Y-9830080D01*
X-6428227Y-9830080D02*
X-6440608Y-9848652D01*
X-6440608Y-9848652D02*
X-6452989Y-9861033D01*
X-6452989Y-9861033D02*
X-6465370Y-9867223D01*
D10*
D11*
X-1465370Y-9842461D02*
X-1459179Y-9836271D01*
X-1459179Y-9836271D02*
X-1446798Y-9830080D01*
X-1446798Y-9830080D02*
X-1415846Y-9830080D01*
X-1415846Y-9830080D02*
X-1403465Y-9836271D01*
X-1403465Y-9836271D02*
X-1397275Y-9842461D01*
X-1397275Y-9842461D02*
X-1391084Y-9854842D01*
X-1391084Y-9854842D02*
X-1391084Y-9867223D01*
X-1391084Y-9867223D02*
X-1397275Y-9885795D01*
X-1397275Y-9885795D02*
X-1471560Y-9960080D01*
X-1471560Y-9960080D02*
X-1391084Y-9960080D01*
D10*
D11*
X3528440Y-9830080D02*
X3608916Y-9830080D01*
X3608916Y-9830080D02*
X3565583Y-9879604D01*
X3565583Y-9879604D02*
X3584154Y-9879604D01*
X3584154Y-9879604D02*
X3596535Y-9885795D01*
X3596535Y-9885795D02*
X3602725Y-9891985D01*
X3602725Y-9891985D02*
X3608916Y-9904366D01*
X3608916Y-9904366D02*
X3608916Y-9935319D01*
X3608916Y-9935319D02*
X3602725Y-9947700D01*
X3602725Y-9947700D02*
X3596535Y-9953890D01*
X3596535Y-9953890D02*
X3584154Y-9960080D01*
X3584154Y-9960080D02*
X3547011Y-9960080D01*
X3547011Y-9960080D02*
X3534630Y-9953890D01*
X3534630Y-9953890D02*
X3528440Y-9947700D01*
D10*
D11*
X8596535Y-9873414D02*
X8596535Y-9960080D01*
X8565583Y-9823890D02*
X8534630Y-9916747D01*
X8534630Y-9916747D02*
X8615106Y-9916747D01*
D10*
D11*
X13602725Y-9830080D02*
X13540821Y-9830080D01*
X13540821Y-9830080D02*
X13534630Y-9891985D01*
X13534630Y-9891985D02*
X13540821Y-9885795D01*
X13540821Y-9885795D02*
X13553202Y-9879604D01*
X13553202Y-9879604D02*
X13584154Y-9879604D01*
X13584154Y-9879604D02*
X13596535Y-9885795D01*
X13596535Y-9885795D02*
X13602725Y-9891985D01*
X13602725Y-9891985D02*
X13608916Y-9904366D01*
X13608916Y-9904366D02*
X13608916Y-9935319D01*
X13608916Y-9935319D02*
X13602725Y-9947700D01*
X13602725Y-9947700D02*
X13596535Y-9953890D01*
X13596535Y-9953890D02*
X13584154Y-9960080D01*
X13584154Y-9960080D02*
X13553202Y-9960080D01*
X13553202Y-9960080D02*
X13540821Y-9953890D01*
X13540821Y-9953890D02*
X13534630Y-9947700D01*
D10*
D11*
X18596535Y-9830080D02*
X18571773Y-9830080D01*
X18571773Y-9830080D02*
X18559392Y-9836271D01*
X18559392Y-9836271D02*
X18553202Y-9842461D01*
X18553202Y-9842461D02*
X18540821Y-9861033D01*
X18540821Y-9861033D02*
X18534630Y-9885795D01*
X18534630Y-9885795D02*
X18534630Y-9935319D01*
X18534630Y-9935319D02*
X18540821Y-9947700D01*
X18540821Y-9947700D02*
X18547011Y-9953890D01*
X18547011Y-9953890D02*
X18559392Y-9960080D01*
X18559392Y-9960080D02*
X18584154Y-9960080D01*
X18584154Y-9960080D02*
X18596535Y-9953890D01*
X18596535Y-9953890D02*
X18602726Y-9947700D01*
X18602726Y-9947700D02*
X18608916Y-9935319D01*
X18608916Y-9935319D02*
X18608916Y-9904366D01*
X18608916Y-9904366D02*
X18602726Y-9891985D01*
X18602726Y-9891985D02*
X18596535Y-9885795D01*
X18596535Y-9885795D02*
X18584154Y-9879604D01*
X18584154Y-9879604D02*
X18559392Y-9879604D01*
X18559392Y-9879604D02*
X18547011Y-9885795D01*
X18547011Y-9885795D02*
X18540821Y-9891985D01*
X18540821Y-9891985D02*
X18534630Y-9904366D01*
D10*
D11*
X-9000000Y4000000D02*
X-8800000Y4000000D01*
D10*
D11*
X-9000000Y-1000000D02*
X-8800000Y-1000000D01*
D10*
D11*
X-9000000Y-6000000D02*
X-8800000Y-6000000D01*
D10*
D11*
X-8930952Y6477782D02*
X-8869048Y6477782D01*
X-8943333Y6440640D02*
X-8900000Y6570640D01*
X-8900000Y6570640D02*
X-8856667Y6440640D01*
D10*
D11*
X-8890714Y1508735D02*
X-8872143Y1502544D01*
X-8872143Y1502544D02*
X-8865952Y1496354D01*
X-8865952Y1496354D02*
X-8859762Y1483973D01*
X-8859762Y1483973D02*
X-8859762Y1465401D01*
X-8859762Y1465401D02*
X-8865952Y1453020D01*
X-8865952Y1453020D02*
X-8872143Y1446830D01*
X-8872143Y1446830D02*
X-8884524Y1440640D01*
X-8884524Y1440640D02*
X-8934048Y1440640D01*
X-8934048Y1440640D02*
X-8934048Y1570640D01*
X-8934048Y1570640D02*
X-8890714Y1570640D01*
X-8890714Y1570640D02*
X-8878333Y1564449D01*
X-8878333Y1564449D02*
X-8872143Y1558259D01*
X-8872143Y1558259D02*
X-8865952Y1545878D01*
X-8865952Y1545878D02*
X-8865952Y1533497D01*
X-8865952Y1533497D02*
X-8872143Y1521116D01*
X-8872143Y1521116D02*
X-8878333Y1514925D01*
X-8878333Y1514925D02*
X-8890714Y1508735D01*
X-8890714Y1508735D02*
X-8934048Y1508735D01*
D10*
D11*
X-8859762Y-3546979D02*
X-8865952Y-3553170D01*
X-8865952Y-3553170D02*
X-8884524Y-3559360D01*
X-8884524Y-3559360D02*
X-8896905Y-3559360D01*
X-8896905Y-3559360D02*
X-8915476Y-3553170D01*
X-8915476Y-3553170D02*
X-8927857Y-3540789D01*
X-8927857Y-3540789D02*
X-8934048Y-3528408D01*
X-8934048Y-3528408D02*
X-8940238Y-3503646D01*
X-8940238Y-3503646D02*
X-8940238Y-3485075D01*
X-8940238Y-3485075D02*
X-8934048Y-3460313D01*
X-8934048Y-3460313D02*
X-8927857Y-3447932D01*
X-8927857Y-3447932D02*
X-8915476Y-3435551D01*
X-8915476Y-3435551D02*
X-8896905Y-3429360D01*
X-8896905Y-3429360D02*
X-8884524Y-3429360D01*
X-8884524Y-3429360D02*
X-8865952Y-3435551D01*
X-8865952Y-3435551D02*
X-8859762Y-3441741D01*
D10*
D11*
X-8934048Y-8559360D02*
X-8934048Y-8429360D01*
X-8934048Y-8429360D02*
X-8903095Y-8429360D01*
X-8903095Y-8429360D02*
X-8884524Y-8435551D01*
X-8884524Y-8435551D02*
X-8872143Y-8447932D01*
X-8872143Y-8447932D02*
X-8865952Y-8460313D01*
X-8865952Y-8460313D02*
X-8859762Y-8485075D01*
X-8859762Y-8485075D02*
X-8859762Y-8503646D01*
X-8859762Y-8503646D02*
X-8865952Y-8528408D01*
X-8865952Y-8528408D02*
X-8872143Y-8540789D01*
X-8872143Y-8540789D02*
X-8884524Y-8553170D01*
X-8884524Y-8553170D02*
X-8903095Y-8559360D01*
X-8903095Y-8559360D02*
X-8934048Y-8559360D01*
D10*
D11*
X18700220Y4000000D02*
X18500220Y4000000D01*
D10*
D11*
X18700220Y-1000000D02*
X18500220Y-1000000D01*
D10*
D11*
X18700220Y-6000000D02*
X18500220Y-6000000D01*
D10*
D11*
X18569268Y6477782D02*
X18631172Y6477782D01*
X18556887Y6440640D02*
X18600220Y6570640D01*
X18600220Y6570640D02*
X18643553Y6440640D01*
D10*
D11*
X18609506Y1508735D02*
X18628077Y1502544D01*
X18628077Y1502544D02*
X18634268Y1496354D01*
X18634268Y1496354D02*
X18640458Y1483973D01*
X18640458Y1483973D02*
X18640458Y1465401D01*
X18640458Y1465401D02*
X18634268Y1453020D01*
X18634268Y1453020D02*
X18628077Y1446830D01*
X18628077Y1446830D02*
X18615696Y1440640D01*
X18615696Y1440640D02*
X18566172Y1440640D01*
X18566172Y1440640D02*
X18566172Y1570640D01*
X18566172Y1570640D02*
X18609506Y1570640D01*
X18609506Y1570640D02*
X18621887Y1564449D01*
X18621887Y1564449D02*
X18628077Y1558259D01*
X18628077Y1558259D02*
X18634268Y1545878D01*
X18634268Y1545878D02*
X18634268Y1533497D01*
X18634268Y1533497D02*
X18628077Y1521116D01*
X18628077Y1521116D02*
X18621887Y1514925D01*
X18621887Y1514925D02*
X18609506Y1508735D01*
X18609506Y1508735D02*
X18566172Y1508735D01*
D10*
D11*
X18640458Y-3546979D02*
X18634268Y-3553170D01*
X18634268Y-3553170D02*
X18615696Y-3559360D01*
X18615696Y-3559360D02*
X18603315Y-3559360D01*
X18603315Y-3559360D02*
X18584744Y-3553170D01*
X18584744Y-3553170D02*
X18572363Y-3540789D01*
X18572363Y-3540789D02*
X18566172Y-3528408D01*
X18566172Y-3528408D02*
X18559982Y-3503646D01*
X18559982Y-3503646D02*
X18559982Y-3485075D01*
X18559982Y-3485075D02*
X18566172Y-3460313D01*
X18566172Y-3460313D02*
X18572363Y-3447932D01*
X18572363Y-3447932D02*
X18584744Y-3435551D01*
X18584744Y-3435551D02*
X18603315Y-3429360D01*
X18603315Y-3429360D02*
X18615696Y-3429360D01*
X18615696Y-3429360D02*
X18634268Y-3435551D01*
X18634268Y-3435551D02*
X18640458Y-3441741D01*
D10*
D11*
X18566172Y-8559360D02*
X18566172Y-8429360D01*
X18566172Y-8429360D02*
X18597125Y-8429360D01*
X18597125Y-8429360D02*
X18615696Y-8435551D01*
X18615696Y-8435551D02*
X18628077Y-8447932D01*
X18628077Y-8447932D02*
X18634268Y-8460313D01*
X18634268Y-8460313D02*
X18640458Y-8485075D01*
X18640458Y-8485075D02*
X18640458Y-8503646D01*
X18640458Y-8503646D02*
X18634268Y-8528408D01*
X18634268Y-8528408D02*
X18628077Y-8540789D01*
X18628077Y-8540789D02*
X18615696Y-8553170D01*
X18615696Y-8553170D02*
X18597125Y-8559360D01*
X18597125Y-8559360D02*
X18566172Y-8559360D01*
D10*
D11*
X10045803Y-9379333D02*
X10045803Y-9229333D01*
X10045803Y-9229333D02*
X10081517Y-9229333D01*
X10081517Y-9229333D02*
X10102946Y-9236476D01*
X10102946Y-9236476D02*
X10117231Y-9250761D01*
X10117231Y-9250761D02*
X10124374Y-9265047D01*
X10124374Y-9265047D02*
X10131517Y-9293619D01*
X10131517Y-9293619D02*
X10131517Y-9315047D01*
X10131517Y-9315047D02*
X10124374Y-9343619D01*
X10124374Y-9343619D02*
X10117231Y-9357904D01*
X10117231Y-9357904D02*
X10102946Y-9372190D01*
X10102946Y-9372190D02*
X10081517Y-9379333D01*
X10081517Y-9379333D02*
X10045803Y-9379333D01*
X10260088Y-9379333D02*
X10260088Y-9300761D01*
X10260088Y-9300761D02*
X10252946Y-9286476D01*
X10252946Y-9286476D02*
X10238660Y-9279333D01*
X10238660Y-9279333D02*
X10210088Y-9279333D01*
X10210088Y-9279333D02*
X10195803Y-9286476D01*
X10260088Y-9372190D02*
X10245803Y-9379333D01*
X10245803Y-9379333D02*
X10210088Y-9379333D01*
X10210088Y-9379333D02*
X10195803Y-9372190D01*
X10195803Y-9372190D02*
X10188660Y-9357904D01*
X10188660Y-9357904D02*
X10188660Y-9343619D01*
X10188660Y-9343619D02*
X10195803Y-9329333D01*
X10195803Y-9329333D02*
X10210088Y-9322190D01*
X10210088Y-9322190D02*
X10245803Y-9322190D01*
X10245803Y-9322190D02*
X10260088Y-9315047D01*
X10310088Y-9279333D02*
X10367231Y-9279333D01*
X10331517Y-9229333D02*
X10331517Y-9357904D01*
X10331517Y-9357904D02*
X10338660Y-9372190D01*
X10338660Y-9372190D02*
X10352946Y-9379333D01*
X10352946Y-9379333D02*
X10367231Y-9379333D01*
X10474374Y-9372190D02*
X10460088Y-9379333D01*
X10460088Y-9379333D02*
X10431517Y-9379333D01*
X10431517Y-9379333D02*
X10417231Y-9372190D01*
X10417231Y-9372190D02*
X10410088Y-9357904D01*
X10410088Y-9357904D02*
X10410088Y-9300761D01*
X10410088Y-9300761D02*
X10417231Y-9286476D01*
X10417231Y-9286476D02*
X10431517Y-9279333D01*
X10431517Y-9279333D02*
X10460088Y-9279333D01*
X10460088Y-9279333D02*
X10474374Y-9286476D01*
X10474374Y-9286476D02*
X10481517Y-9300761D01*
X10481517Y-9300761D02*
X10481517Y-9315047D01*
X10481517Y-9315047D02*
X10410088Y-9329333D01*
X10545803Y-9365047D02*
X10552946Y-9372190D01*
X10552946Y-9372190D02*
X10545803Y-9379333D01*
X10545803Y-9379333D02*
X10538660Y-9372190D01*
X10538660Y-9372190D02*
X10545803Y-9365047D01*
X10545803Y-9365047D02*
X10545803Y-9379333D01*
X10545803Y-9286476D02*
X10552946Y-9293619D01*
X10552946Y-9293619D02*
X10545803Y-9300761D01*
X10545803Y-9300761D02*
X10538660Y-9293619D01*
X10538660Y-9293619D02*
X10545803Y-9286476D01*
X10545803Y-9286476D02*
X10545803Y-9300761D01*
X10731517Y-9379333D02*
X10731517Y-9279333D01*
X10731517Y-9293619D02*
X10738660Y-9286476D01*
X10738660Y-9286476D02*
X10752946Y-9279333D01*
X10752946Y-9279333D02*
X10774374Y-9279333D01*
X10774374Y-9279333D02*
X10788660Y-9286476D01*
X10788660Y-9286476D02*
X10795803Y-9300761D01*
X10795803Y-9300761D02*
X10795803Y-9379333D01*
X10795803Y-9300761D02*
X10802946Y-9286476D01*
X10802946Y-9286476D02*
X10817231Y-9279333D01*
X10817231Y-9279333D02*
X10838660Y-9279333D01*
X10838660Y-9279333D02*
X10852946Y-9286476D01*
X10852946Y-9286476D02*
X10860088Y-9300761D01*
X10860088Y-9300761D02*
X10860088Y-9379333D01*
X10995803Y-9379333D02*
X10995803Y-9300761D01*
X10995803Y-9300761D02*
X10988660Y-9286476D01*
X10988660Y-9286476D02*
X10974374Y-9279333D01*
X10974374Y-9279333D02*
X10945803Y-9279333D01*
X10945803Y-9279333D02*
X10931517Y-9286476D01*
X10995803Y-9372190D02*
X10981517Y-9379333D01*
X10981517Y-9379333D02*
X10945803Y-9379333D01*
X10945803Y-9379333D02*
X10931517Y-9372190D01*
X10931517Y-9372190D02*
X10924374Y-9357904D01*
X10924374Y-9357904D02*
X10924374Y-9343619D01*
X10924374Y-9343619D02*
X10931517Y-9329333D01*
X10931517Y-9329333D02*
X10945803Y-9322190D01*
X10945803Y-9322190D02*
X10981517Y-9322190D01*
X10981517Y-9322190D02*
X10995803Y-9315047D01*
X11067231Y-9379333D02*
X11067231Y-9279333D01*
X11067231Y-9307904D02*
X11074374Y-9293619D01*
X11074374Y-9293619D02*
X11081517Y-9286476D01*
X11081517Y-9286476D02*
X11095803Y-9279333D01*
X11095803Y-9279333D02*
X11110088Y-9279333D01*
X11160088Y-9365047D02*
X11167231Y-9372190D01*
X11167231Y-9372190D02*
X11160088Y-9379333D01*
X11160088Y-9379333D02*
X11152946Y-9372190D01*
X11152946Y-9372190D02*
X11160088Y-9365047D01*
X11160088Y-9365047D02*
X11160088Y-9379333D01*
X11331517Y-9229333D02*
X11424374Y-9229333D01*
X11424374Y-9229333D02*
X11374374Y-9286476D01*
X11374374Y-9286476D02*
X11395803Y-9286476D01*
X11395803Y-9286476D02*
X11410088Y-9293619D01*
X11410088Y-9293619D02*
X11417231Y-9300761D01*
X11417231Y-9300761D02*
X11424374Y-9315047D01*
X11424374Y-9315047D02*
X11424374Y-9350761D01*
X11424374Y-9350761D02*
X11417231Y-9365047D01*
X11417231Y-9365047D02*
X11410088Y-9372190D01*
X11410088Y-9372190D02*
X11395803Y-9379333D01*
X11395803Y-9379333D02*
X11352945Y-9379333D01*
X11352945Y-9379333D02*
X11338660Y-9372190D01*
X11338660Y-9372190D02*
X11331517Y-9365047D01*
X11567231Y-9379333D02*
X11481517Y-9379333D01*
X11524374Y-9379333D02*
X11524374Y-9229333D01*
X11524374Y-9229333D02*
X11510088Y-9250761D01*
X11510088Y-9250761D02*
X11495803Y-9265047D01*
X11495803Y-9265047D02*
X11481517Y-9272190D01*
X11745802Y-9379333D02*
X11745802Y-9279333D01*
X11745802Y-9293619D02*
X11752945Y-9286476D01*
X11752945Y-9286476D02*
X11767231Y-9279333D01*
X11767231Y-9279333D02*
X11788660Y-9279333D01*
X11788660Y-9279333D02*
X11802945Y-9286476D01*
X11802945Y-9286476D02*
X11810088Y-9300761D01*
X11810088Y-9300761D02*
X11810088Y-9379333D01*
X11810088Y-9300761D02*
X11817231Y-9286476D01*
X11817231Y-9286476D02*
X11831517Y-9279333D01*
X11831517Y-9279333D02*
X11852945Y-9279333D01*
X11852945Y-9279333D02*
X11867231Y-9286476D01*
X11867231Y-9286476D02*
X11874374Y-9300761D01*
X11874374Y-9300761D02*
X11874374Y-9379333D01*
X12010088Y-9379333D02*
X12010088Y-9300761D01*
X12010088Y-9300761D02*
X12002945Y-9286476D01*
X12002945Y-9286476D02*
X11988660Y-9279333D01*
X11988660Y-9279333D02*
X11960088Y-9279333D01*
X11960088Y-9279333D02*
X11945802Y-9286476D01*
X12010088Y-9372190D02*
X11995802Y-9379333D01*
X11995802Y-9379333D02*
X11960088Y-9379333D01*
X11960088Y-9379333D02*
X11945802Y-9372190D01*
X11945802Y-9372190D02*
X11938660Y-9357904D01*
X11938660Y-9357904D02*
X11938660Y-9343619D01*
X11938660Y-9343619D02*
X11945802Y-9329333D01*
X11945802Y-9329333D02*
X11960088Y-9322190D01*
X11960088Y-9322190D02*
X11995802Y-9322190D01*
X11995802Y-9322190D02*
X12010088Y-9315047D01*
X12081517Y-9379333D02*
X12081517Y-9279333D01*
X12081517Y-9307904D02*
X12088660Y-9293619D01*
X12088660Y-9293619D02*
X12095803Y-9286476D01*
X12095803Y-9286476D02*
X12110088Y-9279333D01*
X12110088Y-9279333D02*
X12124374Y-9279333D01*
X12167231Y-9372190D02*
X12181517Y-9379333D01*
X12181517Y-9379333D02*
X12210088Y-9379333D01*
X12210088Y-9379333D02*
X12224374Y-9372190D01*
X12224374Y-9372190D02*
X12231517Y-9357904D01*
X12231517Y-9357904D02*
X12231517Y-9350761D01*
X12231517Y-9350761D02*
X12224374Y-9336476D01*
X12224374Y-9336476D02*
X12210088Y-9329333D01*
X12210088Y-9329333D02*
X12188660Y-9329333D01*
X12188660Y-9329333D02*
X12174374Y-9322190D01*
X12174374Y-9322190D02*
X12167231Y-9307904D01*
X12167231Y-9307904D02*
X12167231Y-9300761D01*
X12167231Y-9300761D02*
X12174374Y-9286476D01*
X12174374Y-9286476D02*
X12188660Y-9279333D01*
X12188660Y-9279333D02*
X12210088Y-9279333D01*
X12210088Y-9279333D02*
X12224374Y-9286476D01*
X12402945Y-9243619D02*
X12410088Y-9236476D01*
X12410088Y-9236476D02*
X12424374Y-9229333D01*
X12424374Y-9229333D02*
X12460088Y-9229333D01*
X12460088Y-9229333D02*
X12474374Y-9236476D01*
X12474374Y-9236476D02*
X12481517Y-9243619D01*
X12481517Y-9243619D02*
X12488660Y-9257904D01*
X12488660Y-9257904D02*
X12488660Y-9272190D01*
X12488660Y-9272190D02*
X12481517Y-9293619D01*
X12481517Y-9293619D02*
X12395802Y-9379333D01*
X12395802Y-9379333D02*
X12488660Y-9379333D01*
X12581517Y-9229333D02*
X12595802Y-9229333D01*
X12595802Y-9229333D02*
X12610088Y-9236476D01*
X12610088Y-9236476D02*
X12617231Y-9243619D01*
X12617231Y-9243619D02*
X12624374Y-9257904D01*
X12624374Y-9257904D02*
X12631517Y-9286476D01*
X12631517Y-9286476D02*
X12631517Y-9322190D01*
X12631517Y-9322190D02*
X12624374Y-9350761D01*
X12624374Y-9350761D02*
X12617231Y-9365047D01*
X12617231Y-9365047D02*
X12610088Y-9372190D01*
X12610088Y-9372190D02*
X12595802Y-9379333D01*
X12595802Y-9379333D02*
X12581517Y-9379333D01*
X12581517Y-9379333D02*
X12567231Y-9372190D01*
X12567231Y-9372190D02*
X12560088Y-9365047D01*
X12560088Y-9365047D02*
X12552945Y-9350761D01*
X12552945Y-9350761D02*
X12545802Y-9322190D01*
X12545802Y-9322190D02*
X12545802Y-9286476D01*
X12545802Y-9286476D02*
X12552945Y-9257904D01*
X12552945Y-9257904D02*
X12560088Y-9243619D01*
X12560088Y-9243619D02*
X12567231Y-9236476D01*
X12567231Y-9236476D02*
X12581517Y-9229333D01*
X12774374Y-9379333D02*
X12688660Y-9379333D01*
X12731517Y-9379333D02*
X12731517Y-9229333D01*
X12731517Y-9229333D02*
X12717231Y-9250761D01*
X12717231Y-9250761D02*
X12702945Y-9265047D01*
X12702945Y-9265047D02*
X12688660Y-9272190D01*
X12910088Y-9229333D02*
X12838659Y-9229333D01*
X12838659Y-9229333D02*
X12831517Y-9300761D01*
X12831517Y-9300761D02*
X12838659Y-9293619D01*
X12838659Y-9293619D02*
X12852945Y-9286476D01*
X12852945Y-9286476D02*
X12888659Y-9286476D01*
X12888659Y-9286476D02*
X12902945Y-9293619D01*
X12902945Y-9293619D02*
X12910088Y-9300761D01*
X12910088Y-9300761D02*
X12917231Y-9315047D01*
X12917231Y-9315047D02*
X12917231Y-9350761D01*
X12917231Y-9350761D02*
X12910088Y-9365047D01*
X12910088Y-9365047D02*
X12902945Y-9372190D01*
X12902945Y-9372190D02*
X12888659Y-9379333D01*
X12888659Y-9379333D02*
X12852945Y-9379333D01*
X12852945Y-9379333D02*
X12838659Y-9372190D01*
X12838659Y-9372190D02*
X12831517Y-9365047D01*
D10*
D11*
X7700220Y-9450720D02*
X18500220Y-9450720D01*
D10*
D11*
X7845803Y-9659333D02*
X7845803Y-9509333D01*
X7931517Y-9659333D02*
X7867231Y-9573619D01*
X7931517Y-9509333D02*
X7845803Y-9595047D01*
X7995803Y-9659333D02*
X7995803Y-9559333D01*
X7995803Y-9509333D02*
X7988660Y-9516476D01*
X7988660Y-9516476D02*
X7995803Y-9523619D01*
X7995803Y-9523619D02*
X8002945Y-9516476D01*
X8002945Y-9516476D02*
X7995803Y-9509333D01*
X7995803Y-9509333D02*
X7995803Y-9523619D01*
X8152945Y-9645047D02*
X8145803Y-9652190D01*
X8145803Y-9652190D02*
X8124374Y-9659333D01*
X8124374Y-9659333D02*
X8110088Y-9659333D01*
X8110088Y-9659333D02*
X8088660Y-9652190D01*
X8088660Y-9652190D02*
X8074374Y-9637904D01*
X8074374Y-9637904D02*
X8067231Y-9623619D01*
X8067231Y-9623619D02*
X8060088Y-9595047D01*
X8060088Y-9595047D02*
X8060088Y-9573619D01*
X8060088Y-9573619D02*
X8067231Y-9545047D01*
X8067231Y-9545047D02*
X8074374Y-9530761D01*
X8074374Y-9530761D02*
X8088660Y-9516476D01*
X8088660Y-9516476D02*
X8110088Y-9509333D01*
X8110088Y-9509333D02*
X8124374Y-9509333D01*
X8124374Y-9509333D02*
X8145803Y-9516476D01*
X8145803Y-9516476D02*
X8152945Y-9523619D01*
X8281517Y-9659333D02*
X8281517Y-9580761D01*
X8281517Y-9580761D02*
X8274374Y-9566476D01*
X8274374Y-9566476D02*
X8260088Y-9559333D01*
X8260088Y-9559333D02*
X8231517Y-9559333D01*
X8231517Y-9559333D02*
X8217231Y-9566476D01*
X8281517Y-9652190D02*
X8267231Y-9659333D01*
X8267231Y-9659333D02*
X8231517Y-9659333D01*
X8231517Y-9659333D02*
X8217231Y-9652190D01*
X8217231Y-9652190D02*
X8210088Y-9637904D01*
X8210088Y-9637904D02*
X8210088Y-9623619D01*
X8210088Y-9623619D02*
X8217231Y-9609333D01*
X8217231Y-9609333D02*
X8231517Y-9602190D01*
X8231517Y-9602190D02*
X8267231Y-9602190D01*
X8267231Y-9602190D02*
X8281517Y-9595047D01*
X8417231Y-9659333D02*
X8417231Y-9509333D01*
X8417231Y-9652190D02*
X8402946Y-9659333D01*
X8402946Y-9659333D02*
X8374374Y-9659333D01*
X8374374Y-9659333D02*
X8360088Y-9652190D01*
X8360088Y-9652190D02*
X8352945Y-9645047D01*
X8352945Y-9645047D02*
X8345803Y-9630761D01*
X8345803Y-9630761D02*
X8345803Y-9587904D01*
X8345803Y-9587904D02*
X8352945Y-9573619D01*
X8352945Y-9573619D02*
X8360088Y-9566476D01*
X8360088Y-9566476D02*
X8374374Y-9559333D01*
X8374374Y-9559333D02*
X8402946Y-9559333D01*
X8402946Y-9559333D02*
X8417231Y-9566476D01*
X8602946Y-9580761D02*
X8652946Y-9580761D01*
X8674374Y-9659333D02*
X8602946Y-9659333D01*
X8602946Y-9659333D02*
X8602946Y-9509333D01*
X8602946Y-9509333D02*
X8674374Y-9509333D01*
X8738660Y-9645047D02*
X8745803Y-9652190D01*
X8745803Y-9652190D02*
X8738660Y-9659333D01*
X8738660Y-9659333D02*
X8731517Y-9652190D01*
X8731517Y-9652190D02*
X8738660Y-9645047D01*
X8738660Y-9645047D02*
X8738660Y-9659333D01*
X8810088Y-9659333D02*
X8810088Y-9509333D01*
X8810088Y-9509333D02*
X8845803Y-9509333D01*
X8845803Y-9509333D02*
X8867231Y-9516476D01*
X8867231Y-9516476D02*
X8881517Y-9530761D01*
X8881517Y-9530761D02*
X8888660Y-9545047D01*
X8888660Y-9545047D02*
X8895803Y-9573619D01*
X8895803Y-9573619D02*
X8895803Y-9595047D01*
X8895803Y-9595047D02*
X8888660Y-9623619D01*
X8888660Y-9623619D02*
X8881517Y-9637904D01*
X8881517Y-9637904D02*
X8867231Y-9652190D01*
X8867231Y-9652190D02*
X8845803Y-9659333D01*
X8845803Y-9659333D02*
X8810088Y-9659333D01*
X8960088Y-9645047D02*
X8967231Y-9652190D01*
X8967231Y-9652190D02*
X8960088Y-9659333D01*
X8960088Y-9659333D02*
X8952946Y-9652190D01*
X8952946Y-9652190D02*
X8960088Y-9645047D01*
X8960088Y-9645047D02*
X8960088Y-9659333D01*
X9024374Y-9616476D02*
X9095803Y-9616476D01*
X9010089Y-9659333D02*
X9060089Y-9509333D01*
X9060089Y-9509333D02*
X9110089Y-9659333D01*
X9160088Y-9645047D02*
X9167231Y-9652190D01*
X9167231Y-9652190D02*
X9160088Y-9659333D01*
X9160088Y-9659333D02*
X9152946Y-9652190D01*
X9152946Y-9652190D02*
X9160088Y-9645047D01*
X9160088Y-9645047D02*
X9160088Y-9659333D01*
X9352946Y-9659333D02*
X9381517Y-9659333D01*
X9381517Y-9659333D02*
X9395803Y-9652190D01*
X9395803Y-9652190D02*
X9402946Y-9645047D01*
X9402946Y-9645047D02*
X9417231Y-9623619D01*
X9417231Y-9623619D02*
X9424374Y-9595047D01*
X9424374Y-9595047D02*
X9424374Y-9537904D01*
X9424374Y-9537904D02*
X9417231Y-9523619D01*
X9417231Y-9523619D02*
X9410089Y-9516476D01*
X9410089Y-9516476D02*
X9395803Y-9509333D01*
X9395803Y-9509333D02*
X9367231Y-9509333D01*
X9367231Y-9509333D02*
X9352946Y-9516476D01*
X9352946Y-9516476D02*
X9345803Y-9523619D01*
X9345803Y-9523619D02*
X9338660Y-9537904D01*
X9338660Y-9537904D02*
X9338660Y-9573619D01*
X9338660Y-9573619D02*
X9345803Y-9587904D01*
X9345803Y-9587904D02*
X9352946Y-9595047D01*
X9352946Y-9595047D02*
X9367231Y-9602190D01*
X9367231Y-9602190D02*
X9395803Y-9602190D01*
X9395803Y-9602190D02*
X9410089Y-9595047D01*
X9410089Y-9595047D02*
X9417231Y-9587904D01*
X9417231Y-9587904D02*
X9424374Y-9573619D01*
X9488660Y-9645047D02*
X9495803Y-9652190D01*
X9495803Y-9652190D02*
X9488660Y-9659333D01*
X9488660Y-9659333D02*
X9481517Y-9652190D01*
X9481517Y-9652190D02*
X9488660Y-9645047D01*
X9488660Y-9645047D02*
X9488660Y-9659333D01*
X9588660Y-9509333D02*
X9602946Y-9509333D01*
X9602946Y-9509333D02*
X9617231Y-9516476D01*
X9617231Y-9516476D02*
X9624374Y-9523619D01*
X9624374Y-9523619D02*
X9631517Y-9537904D01*
X9631517Y-9537904D02*
X9638660Y-9566476D01*
X9638660Y-9566476D02*
X9638660Y-9602190D01*
X9638660Y-9602190D02*
X9631517Y-9630761D01*
X9631517Y-9630761D02*
X9624374Y-9645047D01*
X9624374Y-9645047D02*
X9617231Y-9652190D01*
X9617231Y-9652190D02*
X9602946Y-9659333D01*
X9602946Y-9659333D02*
X9588660Y-9659333D01*
X9588660Y-9659333D02*
X9574374Y-9652190D01*
X9574374Y-9652190D02*
X9567231Y-9645047D01*
X9567231Y-9645047D02*
X9560088Y-9630761D01*
X9560088Y-9630761D02*
X9552946Y-9602190D01*
X9552946Y-9602190D02*
X9552946Y-9566476D01*
X9552946Y-9566476D02*
X9560088Y-9537904D01*
X9560088Y-9537904D02*
X9567231Y-9523619D01*
X9567231Y-9523619D02*
X9574374Y-9516476D01*
X9574374Y-9516476D02*
X9588660Y-9509333D01*
X9702946Y-9645047D02*
X9710088Y-9652190D01*
X9710088Y-9652190D02*
X9702946Y-9659333D01*
X9702946Y-9659333D02*
X9695803Y-9652190D01*
X9695803Y-9652190D02*
X9702946Y-9645047D01*
X9702946Y-9645047D02*
X9702946Y-9659333D01*
X9767231Y-9523619D02*
X9774374Y-9516476D01*
X9774374Y-9516476D02*
X9788660Y-9509333D01*
X9788660Y-9509333D02*
X9824374Y-9509333D01*
X9824374Y-9509333D02*
X9838660Y-9516476D01*
X9838660Y-9516476D02*
X9845803Y-9523619D01*
X9845803Y-9523619D02*
X9852946Y-9537904D01*
X9852946Y-9537904D02*
X9852946Y-9552190D01*
X9852946Y-9552190D02*
X9845803Y-9573619D01*
X9845803Y-9573619D02*
X9760088Y-9659333D01*
X9760088Y-9659333D02*
X9852946Y-9659333D01*
D10*
D11*
X7700220Y-9150720D02*
X18500220Y-9150720D01*
D10*
D12*
X16441385Y-9378553D02*
X16391385Y-9307124D01*
X16355671Y-9378553D02*
X16355671Y-9228553D01*
X16355671Y-9228553D02*
X16412814Y-9228553D01*
X16412814Y-9228553D02*
X16427100Y-9235696D01*
X16427100Y-9235696D02*
X16434242Y-9242839D01*
X16434242Y-9242839D02*
X16441385Y-9257124D01*
X16441385Y-9257124D02*
X16441385Y-9278553D01*
X16441385Y-9278553D02*
X16434242Y-9292839D01*
X16434242Y-9292839D02*
X16427100Y-9299981D01*
X16427100Y-9299981D02*
X16412814Y-9307124D01*
X16412814Y-9307124D02*
X16355671Y-9307124D01*
X16562814Y-9371410D02*
X16548528Y-9378553D01*
X16548528Y-9378553D02*
X16519957Y-9378553D01*
X16519957Y-9378553D02*
X16505671Y-9371410D01*
X16505671Y-9371410D02*
X16498528Y-9357124D01*
X16498528Y-9357124D02*
X16498528Y-9299981D01*
X16498528Y-9299981D02*
X16505671Y-9285696D01*
X16505671Y-9285696D02*
X16519957Y-9278553D01*
X16519957Y-9278553D02*
X16548528Y-9278553D01*
X16548528Y-9278553D02*
X16562814Y-9285696D01*
X16562814Y-9285696D02*
X16569957Y-9299981D01*
X16569957Y-9299981D02*
X16569957Y-9314267D01*
X16569957Y-9314267D02*
X16498528Y-9328553D01*
X16619957Y-9278553D02*
X16655671Y-9378553D01*
X16655671Y-9378553D02*
X16691385Y-9278553D01*
X16748528Y-9364267D02*
X16755671Y-9371410D01*
X16755671Y-9371410D02*
X16748528Y-9378553D01*
X16748528Y-9378553D02*
X16741385Y-9371410D01*
X16741385Y-9371410D02*
X16748528Y-9364267D01*
X16748528Y-9364267D02*
X16748528Y-9378553D01*
X16748528Y-9285696D02*
X16755671Y-9292839D01*
X16755671Y-9292839D02*
X16748528Y-9299981D01*
X16748528Y-9299981D02*
X16741385Y-9292839D01*
X16741385Y-9292839D02*
X16748528Y-9285696D01*
X16748528Y-9285696D02*
X16748528Y-9299981D01*
D10*
D11*
X7838660Y-9372190D02*
X7860088Y-9379333D01*
X7860088Y-9379333D02*
X7895803Y-9379333D01*
X7895803Y-9379333D02*
X7910088Y-9372190D01*
X7910088Y-9372190D02*
X7917231Y-9365047D01*
X7917231Y-9365047D02*
X7924374Y-9350761D01*
X7924374Y-9350761D02*
X7924374Y-9336476D01*
X7924374Y-9336476D02*
X7917231Y-9322190D01*
X7917231Y-9322190D02*
X7910088Y-9315047D01*
X7910088Y-9315047D02*
X7895803Y-9307904D01*
X7895803Y-9307904D02*
X7867231Y-9300761D01*
X7867231Y-9300761D02*
X7852945Y-9293619D01*
X7852945Y-9293619D02*
X7845803Y-9286476D01*
X7845803Y-9286476D02*
X7838660Y-9272190D01*
X7838660Y-9272190D02*
X7838660Y-9257904D01*
X7838660Y-9257904D02*
X7845803Y-9243619D01*
X7845803Y-9243619D02*
X7852945Y-9236476D01*
X7852945Y-9236476D02*
X7867231Y-9229333D01*
X7867231Y-9229333D02*
X7902945Y-9229333D01*
X7902945Y-9229333D02*
X7924374Y-9236476D01*
X7988660Y-9379333D02*
X7988660Y-9279333D01*
X7988660Y-9229333D02*
X7981517Y-9236476D01*
X7981517Y-9236476D02*
X7988660Y-9243619D01*
X7988660Y-9243619D02*
X7995803Y-9236476D01*
X7995803Y-9236476D02*
X7988660Y-9229333D01*
X7988660Y-9229333D02*
X7988660Y-9243619D01*
X8045803Y-9279333D02*
X8124374Y-9279333D01*
X8124374Y-9279333D02*
X8045803Y-9379333D01*
X8045803Y-9379333D02*
X8124374Y-9379333D01*
X8238660Y-9372190D02*
X8224374Y-9379333D01*
X8224374Y-9379333D02*
X8195803Y-9379333D01*
X8195803Y-9379333D02*
X8181517Y-9372190D01*
X8181517Y-9372190D02*
X8174374Y-9357904D01*
X8174374Y-9357904D02*
X8174374Y-9300761D01*
X8174374Y-9300761D02*
X8181517Y-9286476D01*
X8181517Y-9286476D02*
X8195803Y-9279333D01*
X8195803Y-9279333D02*
X8224374Y-9279333D01*
X8224374Y-9279333D02*
X8238660Y-9286476D01*
X8238660Y-9286476D02*
X8245803Y-9300761D01*
X8245803Y-9300761D02*
X8245803Y-9315047D01*
X8245803Y-9315047D02*
X8174374Y-9329333D01*
X8310088Y-9365047D02*
X8317231Y-9372190D01*
X8317231Y-9372190D02*
X8310088Y-9379333D01*
X8310088Y-9379333D02*
X8302945Y-9372190D01*
X8302945Y-9372190D02*
X8310088Y-9365047D01*
X8310088Y-9365047D02*
X8310088Y-9379333D01*
X8310088Y-9286476D02*
X8317231Y-9293619D01*
X8317231Y-9293619D02*
X8310088Y-9300761D01*
X8310088Y-9300761D02*
X8302945Y-9293619D01*
X8302945Y-9293619D02*
X8310088Y-9286476D01*
X8310088Y-9286476D02*
X8310088Y-9300761D01*
X8488660Y-9336476D02*
X8560088Y-9336476D01*
X8474374Y-9379333D02*
X8524374Y-9229333D01*
X8524374Y-9229333D02*
X8574374Y-9379333D01*
X8688660Y-9279333D02*
X8688660Y-9379333D01*
X8652946Y-9222190D02*
X8617231Y-9329333D01*
X8617231Y-9329333D02*
X8710088Y-9329333D01*
D10*
D11*
X16345803Y-9659333D02*
X16345803Y-9509333D01*
X16481517Y-9659333D02*
X16481517Y-9509333D01*
X16481517Y-9652190D02*
X16467231Y-9659333D01*
X16467231Y-9659333D02*
X16438660Y-9659333D01*
X16438660Y-9659333D02*
X16424374Y-9652190D01*
X16424374Y-9652190D02*
X16417231Y-9645047D01*
X16417231Y-9645047D02*
X16410088Y-9630761D01*
X16410088Y-9630761D02*
X16410088Y-9587904D01*
X16410088Y-9587904D02*
X16417231Y-9573619D01*
X16417231Y-9573619D02*
X16424374Y-9566476D01*
X16424374Y-9566476D02*
X16438660Y-9559333D01*
X16438660Y-9559333D02*
X16467231Y-9559333D01*
X16467231Y-9559333D02*
X16481517Y-9566476D01*
X16552945Y-9645047D02*
X16560088Y-9652190D01*
X16560088Y-9652190D02*
X16552945Y-9659333D01*
X16552945Y-9659333D02*
X16545803Y-9652190D01*
X16545803Y-9652190D02*
X16552945Y-9645047D01*
X16552945Y-9645047D02*
X16552945Y-9659333D01*
X16552945Y-9566476D02*
X16560088Y-9573619D01*
X16560088Y-9573619D02*
X16552945Y-9580761D01*
X16552945Y-9580761D02*
X16545803Y-9573619D01*
X16545803Y-9573619D02*
X16552945Y-9566476D01*
X16552945Y-9566476D02*
X16552945Y-9580761D01*
X16817231Y-9659333D02*
X16731517Y-9659333D01*
X16774374Y-9659333D02*
X16774374Y-9509333D01*
X16774374Y-9509333D02*
X16760088Y-9530761D01*
X16760088Y-9530761D02*
X16745803Y-9545047D01*
X16745803Y-9545047D02*
X16731517Y-9552190D01*
X16910088Y-9509333D02*
X16924374Y-9509333D01*
X16924374Y-9509333D02*
X16938660Y-9516476D01*
X16938660Y-9516476D02*
X16945803Y-9523619D01*
X16945803Y-9523619D02*
X16952946Y-9537904D01*
X16952946Y-9537904D02*
X16960088Y-9566476D01*
X16960088Y-9566476D02*
X16960088Y-9602190D01*
X16960088Y-9602190D02*
X16952946Y-9630761D01*
X16952946Y-9630761D02*
X16945803Y-9645047D01*
X16945803Y-9645047D02*
X16938660Y-9652190D01*
X16938660Y-9652190D02*
X16924374Y-9659333D01*
X16924374Y-9659333D02*
X16910088Y-9659333D01*
X16910088Y-9659333D02*
X16895803Y-9652190D01*
X16895803Y-9652190D02*
X16888660Y-9645047D01*
X16888660Y-9645047D02*
X16881517Y-9630761D01*
X16881517Y-9630761D02*
X16874374Y-9602190D01*
X16874374Y-9602190D02*
X16874374Y-9566476D01*
X16874374Y-9566476D02*
X16881517Y-9537904D01*
X16881517Y-9537904D02*
X16888660Y-9523619D01*
X16888660Y-9523619D02*
X16895803Y-9516476D01*
X16895803Y-9516476D02*
X16910088Y-9509333D01*
X17131517Y-9502190D02*
X17002946Y-9695047D01*
X17260088Y-9659333D02*
X17174374Y-9659333D01*
X17217231Y-9659333D02*
X17217231Y-9509333D01*
X17217231Y-9509333D02*
X17202946Y-9530761D01*
X17202946Y-9530761D02*
X17188660Y-9545047D01*
X17188660Y-9545047D02*
X17174374Y-9552190D01*
X17402946Y-9659333D02*
X17317231Y-9659333D01*
X17360088Y-9659333D02*
X17360088Y-9509333D01*
X17360088Y-9509333D02*
X17345803Y-9530761D01*
X17345803Y-9530761D02*
X17331517Y-9545047D01*
X17331517Y-9545047D02*
X17317231Y-9552190D01*
D10*
D11*
X7700220Y-8750720D02*
X18500220Y-8750720D01*
D10*
D13*
X7869393Y-8821164D02*
X7983678Y-8821164D01*
X7901536Y-9021164D02*
X7926536Y-8821164D01*
X8025345Y-9021164D02*
X8042012Y-8887830D01*
X8050345Y-8821164D02*
X8039631Y-8830688D01*
X8039631Y-8830688D02*
X8047964Y-8840211D01*
X8047964Y-8840211D02*
X8058679Y-8830688D01*
X8058679Y-8830688D02*
X8050345Y-8821164D01*
X8050345Y-8821164D02*
X8047964Y-8840211D01*
X8108679Y-8887830D02*
X8184869Y-8887830D01*
X8145583Y-8821164D02*
X8124155Y-8992592D01*
X8124155Y-8992592D02*
X8131298Y-9011640D01*
X8131298Y-9011640D02*
X8149155Y-9021164D01*
X8149155Y-9021164D02*
X8168202Y-9021164D01*
X8263440Y-9021164D02*
X8245583Y-9011640D01*
X8245583Y-9011640D02*
X8238440Y-8992592D01*
X8238440Y-8992592D02*
X8259869Y-8821164D01*
X8417012Y-9011640D02*
X8396774Y-9021164D01*
X8396774Y-9021164D02*
X8358678Y-9021164D01*
X8358678Y-9021164D02*
X8340821Y-9011640D01*
X8340821Y-9011640D02*
X8333678Y-8992592D01*
X8333678Y-8992592D02*
X8343202Y-8916402D01*
X8343202Y-8916402D02*
X8355107Y-8897354D01*
X8355107Y-8897354D02*
X8375345Y-8887830D01*
X8375345Y-8887830D02*
X8413440Y-8887830D01*
X8413440Y-8887830D02*
X8431298Y-8897354D01*
X8431298Y-8897354D02*
X8438440Y-8916402D01*
X8438440Y-8916402D02*
X8436060Y-8935450D01*
X8436060Y-8935450D02*
X8338440Y-8954497D01*
X8513441Y-9002116D02*
X8521774Y-9011640D01*
X8521774Y-9011640D02*
X8511060Y-9021164D01*
X8511060Y-9021164D02*
X8502726Y-9011640D01*
X8502726Y-9011640D02*
X8513441Y-9002116D01*
X8513441Y-9002116D02*
X8511060Y-9021164D01*
X8526536Y-8897354D02*
X8534869Y-8906878D01*
X8534869Y-8906878D02*
X8524155Y-8916402D01*
X8524155Y-8916402D02*
X8515821Y-8906878D01*
X8515821Y-8906878D02*
X8526536Y-8897354D01*
X8526536Y-8897354D02*
X8524155Y-8916402D01*
D10*
D11*
X7895803Y-8560761D02*
X7845803Y-8560761D01*
X7845803Y-8639333D02*
X7845803Y-8489333D01*
X7845803Y-8489333D02*
X7917231Y-8489333D01*
X7974374Y-8639333D02*
X7974374Y-8539333D01*
X7974374Y-8489333D02*
X7967231Y-8496476D01*
X7967231Y-8496476D02*
X7974374Y-8503619D01*
X7974374Y-8503619D02*
X7981517Y-8496476D01*
X7981517Y-8496476D02*
X7974374Y-8489333D01*
X7974374Y-8489333D02*
X7974374Y-8503619D01*
X8067231Y-8639333D02*
X8052945Y-8632190D01*
X8052945Y-8632190D02*
X8045803Y-8617904D01*
X8045803Y-8617904D02*
X8045803Y-8489333D01*
X8181517Y-8632190D02*
X8167231Y-8639333D01*
X8167231Y-8639333D02*
X8138660Y-8639333D01*
X8138660Y-8639333D02*
X8124374Y-8632190D01*
X8124374Y-8632190D02*
X8117231Y-8617904D01*
X8117231Y-8617904D02*
X8117231Y-8560761D01*
X8117231Y-8560761D02*
X8124374Y-8546476D01*
X8124374Y-8546476D02*
X8138660Y-8539333D01*
X8138660Y-8539333D02*
X8167231Y-8539333D01*
X8167231Y-8539333D02*
X8181517Y-8546476D01*
X8181517Y-8546476D02*
X8188660Y-8560761D01*
X8188660Y-8560761D02*
X8188660Y-8575047D01*
X8188660Y-8575047D02*
X8117231Y-8589333D01*
X8252945Y-8625047D02*
X8260088Y-8632190D01*
X8260088Y-8632190D02*
X8252945Y-8639333D01*
X8252945Y-8639333D02*
X8245803Y-8632190D01*
X8245803Y-8632190D02*
X8252945Y-8625047D01*
X8252945Y-8625047D02*
X8252945Y-8639333D01*
X8252945Y-8546476D02*
X8260088Y-8553619D01*
X8260088Y-8553619D02*
X8252945Y-8560761D01*
X8252945Y-8560761D02*
X8245803Y-8553619D01*
X8245803Y-8553619D02*
X8252945Y-8546476D01*
X8252945Y-8546476D02*
X8252945Y-8560761D01*
X8424374Y-8539333D02*
X8460088Y-8639333D01*
X8460088Y-8639333D02*
X8495803Y-8539333D01*
X8574374Y-8639333D02*
X8560088Y-8632190D01*
X8560088Y-8632190D02*
X8552945Y-8625047D01*
X8552945Y-8625047D02*
X8545803Y-8610761D01*
X8545803Y-8610761D02*
X8545803Y-8567904D01*
X8545803Y-8567904D02*
X8552945Y-8553619D01*
X8552945Y-8553619D02*
X8560088Y-8546476D01*
X8560088Y-8546476D02*
X8574374Y-8539333D01*
X8574374Y-8539333D02*
X8595803Y-8539333D01*
X8595803Y-8539333D02*
X8610088Y-8546476D01*
X8610088Y-8546476D02*
X8617231Y-8553619D01*
X8617231Y-8553619D02*
X8624374Y-8567904D01*
X8624374Y-8567904D02*
X8624374Y-8610761D01*
X8624374Y-8610761D02*
X8617231Y-8625047D01*
X8617231Y-8625047D02*
X8610088Y-8632190D01*
X8610088Y-8632190D02*
X8595803Y-8639333D01*
X8595803Y-8639333D02*
X8574374Y-8639333D01*
X8688660Y-8639333D02*
X8688660Y-8539333D01*
X8688660Y-8489333D02*
X8681517Y-8496476D01*
X8681517Y-8496476D02*
X8688660Y-8503619D01*
X8688660Y-8503619D02*
X8695803Y-8496476D01*
X8695803Y-8496476D02*
X8688660Y-8489333D01*
X8688660Y-8489333D02*
X8688660Y-8503619D01*
X8824374Y-8632190D02*
X8810088Y-8639333D01*
X8810088Y-8639333D02*
X8781517Y-8639333D01*
X8781517Y-8639333D02*
X8767231Y-8632190D01*
X8767231Y-8632190D02*
X8760088Y-8625047D01*
X8760088Y-8625047D02*
X8752946Y-8610761D01*
X8752946Y-8610761D02*
X8752946Y-8567904D01*
X8752946Y-8567904D02*
X8760088Y-8553619D01*
X8760088Y-8553619D02*
X8767231Y-8546476D01*
X8767231Y-8546476D02*
X8781517Y-8539333D01*
X8781517Y-8539333D02*
X8810088Y-8539333D01*
X8810088Y-8539333D02*
X8824374Y-8546476D01*
X8945803Y-8632190D02*
X8931517Y-8639333D01*
X8931517Y-8639333D02*
X8902946Y-8639333D01*
X8902946Y-8639333D02*
X8888660Y-8632190D01*
X8888660Y-8632190D02*
X8881517Y-8617904D01*
X8881517Y-8617904D02*
X8881517Y-8560761D01*
X8881517Y-8560761D02*
X8888660Y-8546476D01*
X8888660Y-8546476D02*
X8902946Y-8539333D01*
X8902946Y-8539333D02*
X8931517Y-8539333D01*
X8931517Y-8539333D02*
X8945803Y-8546476D01*
X8945803Y-8546476D02*
X8952946Y-8560761D01*
X8952946Y-8560761D02*
X8952946Y-8575047D01*
X8952946Y-8575047D02*
X8881517Y-8589333D01*
X9017231Y-8639333D02*
X9017231Y-8539333D01*
X9017231Y-8553619D02*
X9024374Y-8546476D01*
X9024374Y-8546476D02*
X9038660Y-8539333D01*
X9038660Y-8539333D02*
X9060088Y-8539333D01*
X9060088Y-8539333D02*
X9074374Y-8546476D01*
X9074374Y-8546476D02*
X9081517Y-8560761D01*
X9081517Y-8560761D02*
X9081517Y-8639333D01*
X9081517Y-8560761D02*
X9088660Y-8546476D01*
X9088660Y-8546476D02*
X9102945Y-8539333D01*
X9102945Y-8539333D02*
X9124374Y-8539333D01*
X9124374Y-8539333D02*
X9138660Y-8546476D01*
X9138660Y-8546476D02*
X9145803Y-8560761D01*
X9145803Y-8560761D02*
X9145803Y-8639333D01*
X9281517Y-8639333D02*
X9281517Y-8560761D01*
X9281517Y-8560761D02*
X9274374Y-8546476D01*
X9274374Y-8546476D02*
X9260088Y-8539333D01*
X9260088Y-8539333D02*
X9231517Y-8539333D01*
X9231517Y-8539333D02*
X9217231Y-8546476D01*
X9281517Y-8632190D02*
X9267231Y-8639333D01*
X9267231Y-8639333D02*
X9231517Y-8639333D01*
X9231517Y-8639333D02*
X9217231Y-8632190D01*
X9217231Y-8632190D02*
X9210088Y-8617904D01*
X9210088Y-8617904D02*
X9210088Y-8603619D01*
X9210088Y-8603619D02*
X9217231Y-8589333D01*
X9217231Y-8589333D02*
X9231517Y-8582190D01*
X9231517Y-8582190D02*
X9267231Y-8582190D01*
X9267231Y-8582190D02*
X9281517Y-8575047D01*
X9352945Y-8639333D02*
X9352945Y-8539333D01*
X9352945Y-8489333D02*
X9345803Y-8496476D01*
X9345803Y-8496476D02*
X9352945Y-8503619D01*
X9352945Y-8503619D02*
X9360088Y-8496476D01*
X9360088Y-8496476D02*
X9352945Y-8489333D01*
X9352945Y-8489333D02*
X9352945Y-8503619D01*
X9445803Y-8639333D02*
X9431517Y-8632190D01*
X9431517Y-8632190D02*
X9424374Y-8617904D01*
X9424374Y-8617904D02*
X9424374Y-8489333D01*
X9502945Y-8582190D02*
X9617231Y-8582190D01*
X9688660Y-8639333D02*
X9688660Y-8489333D01*
X9688660Y-8546476D02*
X9702946Y-8539333D01*
X9702946Y-8539333D02*
X9731517Y-8539333D01*
X9731517Y-8539333D02*
X9745803Y-8546476D01*
X9745803Y-8546476D02*
X9752946Y-8553619D01*
X9752946Y-8553619D02*
X9760088Y-8567904D01*
X9760088Y-8567904D02*
X9760088Y-8610761D01*
X9760088Y-8610761D02*
X9752946Y-8625047D01*
X9752946Y-8625047D02*
X9745803Y-8632190D01*
X9745803Y-8632190D02*
X9731517Y-8639333D01*
X9731517Y-8639333D02*
X9702946Y-8639333D01*
X9702946Y-8639333D02*
X9688660Y-8632190D01*
X9845803Y-8639333D02*
X9831517Y-8632190D01*
X9831517Y-8632190D02*
X9824374Y-8625047D01*
X9824374Y-8625047D02*
X9817231Y-8610761D01*
X9817231Y-8610761D02*
X9817231Y-8567904D01*
X9817231Y-8567904D02*
X9824374Y-8553619D01*
X9824374Y-8553619D02*
X9831517Y-8546476D01*
X9831517Y-8546476D02*
X9845803Y-8539333D01*
X9845803Y-8539333D02*
X9867231Y-8539333D01*
X9867231Y-8539333D02*
X9881517Y-8546476D01*
X9881517Y-8546476D02*
X9888660Y-8553619D01*
X9888660Y-8553619D02*
X9895803Y-8567904D01*
X9895803Y-8567904D02*
X9895803Y-8610761D01*
X9895803Y-8610761D02*
X9888660Y-8625047D01*
X9888660Y-8625047D02*
X9881517Y-8632190D01*
X9881517Y-8632190D02*
X9867231Y-8639333D01*
X9867231Y-8639333D02*
X9845803Y-8639333D01*
X9945803Y-8639333D02*
X10024374Y-8539333D01*
X9945803Y-8539333D02*
X10024374Y-8639333D01*
X10081517Y-8625047D02*
X10088660Y-8632190D01*
X10088660Y-8632190D02*
X10081517Y-8639333D01*
X10081517Y-8639333D02*
X10074374Y-8632190D01*
X10074374Y-8632190D02*
X10081517Y-8625047D01*
X10081517Y-8625047D02*
X10081517Y-8639333D01*
X10152946Y-8639333D02*
X10152946Y-8489333D01*
X10167231Y-8582190D02*
X10210088Y-8639333D01*
X10210088Y-8539333D02*
X10152946Y-8596476D01*
X10274374Y-8639333D02*
X10274374Y-8539333D01*
X10274374Y-8489333D02*
X10267231Y-8496476D01*
X10267231Y-8496476D02*
X10274374Y-8503619D01*
X10274374Y-8503619D02*
X10281517Y-8496476D01*
X10281517Y-8496476D02*
X10274374Y-8489333D01*
X10274374Y-8489333D02*
X10274374Y-8503619D01*
X10410089Y-8632190D02*
X10395803Y-8639333D01*
X10395803Y-8639333D02*
X10367231Y-8639333D01*
X10367231Y-8639333D02*
X10352946Y-8632190D01*
X10352946Y-8632190D02*
X10345803Y-8625047D01*
X10345803Y-8625047D02*
X10338660Y-8610761D01*
X10338660Y-8610761D02*
X10338660Y-8567904D01*
X10338660Y-8567904D02*
X10345803Y-8553619D01*
X10345803Y-8553619D02*
X10352946Y-8546476D01*
X10352946Y-8546476D02*
X10367231Y-8539333D01*
X10367231Y-8539333D02*
X10395803Y-8539333D01*
X10395803Y-8539333D02*
X10410089Y-8546476D01*
X10538660Y-8639333D02*
X10538660Y-8560761D01*
X10538660Y-8560761D02*
X10531517Y-8546476D01*
X10531517Y-8546476D02*
X10517231Y-8539333D01*
X10517231Y-8539333D02*
X10488660Y-8539333D01*
X10488660Y-8539333D02*
X10474374Y-8546476D01*
X10538660Y-8632190D02*
X10524374Y-8639333D01*
X10524374Y-8639333D02*
X10488660Y-8639333D01*
X10488660Y-8639333D02*
X10474374Y-8632190D01*
X10474374Y-8632190D02*
X10467231Y-8617904D01*
X10467231Y-8617904D02*
X10467231Y-8603619D01*
X10467231Y-8603619D02*
X10474374Y-8589333D01*
X10474374Y-8589333D02*
X10488660Y-8582190D01*
X10488660Y-8582190D02*
X10524374Y-8582190D01*
X10524374Y-8582190D02*
X10538660Y-8575047D01*
X10674374Y-8639333D02*
X10674374Y-8489333D01*
X10674374Y-8632190D02*
X10660088Y-8639333D01*
X10660088Y-8639333D02*
X10631517Y-8639333D01*
X10631517Y-8639333D02*
X10617231Y-8632190D01*
X10617231Y-8632190D02*
X10610088Y-8625047D01*
X10610088Y-8625047D02*
X10602946Y-8610761D01*
X10602946Y-8610761D02*
X10602946Y-8567904D01*
X10602946Y-8567904D02*
X10610088Y-8553619D01*
X10610088Y-8553619D02*
X10617231Y-8546476D01*
X10617231Y-8546476D02*
X10631517Y-8539333D01*
X10631517Y-8539333D02*
X10660088Y-8539333D01*
X10660088Y-8539333D02*
X10674374Y-8546476D01*
X10710089Y-8653619D02*
X10824374Y-8653619D01*
X10860088Y-8539333D02*
X10860088Y-8689333D01*
X10860088Y-8546476D02*
X10874374Y-8539333D01*
X10874374Y-8539333D02*
X10902946Y-8539333D01*
X10902946Y-8539333D02*
X10917231Y-8546476D01*
X10917231Y-8546476D02*
X10924374Y-8553619D01*
X10924374Y-8553619D02*
X10931517Y-8567904D01*
X10931517Y-8567904D02*
X10931517Y-8610761D01*
X10931517Y-8610761D02*
X10924374Y-8625047D01*
X10924374Y-8625047D02*
X10917231Y-8632190D01*
X10917231Y-8632190D02*
X10902946Y-8639333D01*
X10902946Y-8639333D02*
X10874374Y-8639333D01*
X10874374Y-8639333D02*
X10860088Y-8632190D01*
X11060089Y-8632190D02*
X11045803Y-8639333D01*
X11045803Y-8639333D02*
X11017231Y-8639333D01*
X11017231Y-8639333D02*
X11002946Y-8632190D01*
X11002946Y-8632190D02*
X10995803Y-8625047D01*
X10995803Y-8625047D02*
X10988660Y-8610761D01*
X10988660Y-8610761D02*
X10988660Y-8567904D01*
X10988660Y-8567904D02*
X10995803Y-8553619D01*
X10995803Y-8553619D02*
X11002946Y-8546476D01*
X11002946Y-8546476D02*
X11017231Y-8539333D01*
X11017231Y-8539333D02*
X11045803Y-8539333D01*
X11045803Y-8539333D02*
X11060089Y-8546476D01*
X11124374Y-8639333D02*
X11124374Y-8489333D01*
X11124374Y-8546476D02*
X11138660Y-8539333D01*
X11138660Y-8539333D02*
X11167231Y-8539333D01*
X11167231Y-8539333D02*
X11181517Y-8546476D01*
X11181517Y-8546476D02*
X11188660Y-8553619D01*
X11188660Y-8553619D02*
X11195803Y-8567904D01*
X11195803Y-8567904D02*
X11195803Y-8610761D01*
X11195803Y-8610761D02*
X11188660Y-8625047D01*
X11188660Y-8625047D02*
X11181517Y-8632190D01*
X11181517Y-8632190D02*
X11167231Y-8639333D01*
X11167231Y-8639333D02*
X11138660Y-8639333D01*
X11138660Y-8639333D02*
X11124374Y-8632190D01*
D10*
D11*
X7700220Y-8150720D02*
X18500220Y-8150720D01*
D10*
D11*
X7838660Y-8362190D02*
X7860088Y-8369333D01*
X7860088Y-8369333D02*
X7895803Y-8369333D01*
X7895803Y-8369333D02*
X7910088Y-8362190D01*
X7910088Y-8362190D02*
X7917231Y-8355047D01*
X7917231Y-8355047D02*
X7924374Y-8340761D01*
X7924374Y-8340761D02*
X7924374Y-8326476D01*
X7924374Y-8326476D02*
X7917231Y-8312190D01*
X7917231Y-8312190D02*
X7910088Y-8305047D01*
X7910088Y-8305047D02*
X7895803Y-8297904D01*
X7895803Y-8297904D02*
X7867231Y-8290761D01*
X7867231Y-8290761D02*
X7852945Y-8283618D01*
X7852945Y-8283618D02*
X7845803Y-8276476D01*
X7845803Y-8276476D02*
X7838660Y-8262190D01*
X7838660Y-8262190D02*
X7838660Y-8247904D01*
X7838660Y-8247904D02*
X7845803Y-8233618D01*
X7845803Y-8233618D02*
X7852945Y-8226476D01*
X7852945Y-8226476D02*
X7867231Y-8219333D01*
X7867231Y-8219333D02*
X7902945Y-8219333D01*
X7902945Y-8219333D02*
X7924374Y-8226476D01*
X7988660Y-8369333D02*
X7988660Y-8219333D01*
X8052945Y-8369333D02*
X8052945Y-8290761D01*
X8052945Y-8290761D02*
X8045803Y-8276476D01*
X8045803Y-8276476D02*
X8031517Y-8269333D01*
X8031517Y-8269333D02*
X8010088Y-8269333D01*
X8010088Y-8269333D02*
X7995803Y-8276476D01*
X7995803Y-8276476D02*
X7988660Y-8283618D01*
X8181517Y-8362190D02*
X8167231Y-8369333D01*
X8167231Y-8369333D02*
X8138660Y-8369333D01*
X8138660Y-8369333D02*
X8124374Y-8362190D01*
X8124374Y-8362190D02*
X8117231Y-8347904D01*
X8117231Y-8347904D02*
X8117231Y-8290761D01*
X8117231Y-8290761D02*
X8124374Y-8276476D01*
X8124374Y-8276476D02*
X8138660Y-8269333D01*
X8138660Y-8269333D02*
X8167231Y-8269333D01*
X8167231Y-8269333D02*
X8181517Y-8276476D01*
X8181517Y-8276476D02*
X8188660Y-8290761D01*
X8188660Y-8290761D02*
X8188660Y-8305047D01*
X8188660Y-8305047D02*
X8117231Y-8319333D01*
X8310088Y-8362190D02*
X8295803Y-8369333D01*
X8295803Y-8369333D02*
X8267231Y-8369333D01*
X8267231Y-8369333D02*
X8252945Y-8362190D01*
X8252945Y-8362190D02*
X8245803Y-8347904D01*
X8245803Y-8347904D02*
X8245803Y-8290761D01*
X8245803Y-8290761D02*
X8252945Y-8276476D01*
X8252945Y-8276476D02*
X8267231Y-8269333D01*
X8267231Y-8269333D02*
X8295803Y-8269333D01*
X8295803Y-8269333D02*
X8310088Y-8276476D01*
X8310088Y-8276476D02*
X8317231Y-8290761D01*
X8317231Y-8290761D02*
X8317231Y-8305047D01*
X8317231Y-8305047D02*
X8245803Y-8319333D01*
X8360088Y-8269333D02*
X8417231Y-8269333D01*
X8381517Y-8219333D02*
X8381517Y-8347904D01*
X8381517Y-8347904D02*
X8388660Y-8362190D01*
X8388660Y-8362190D02*
X8402945Y-8369333D01*
X8402945Y-8369333D02*
X8417231Y-8369333D01*
X8467231Y-8355047D02*
X8474374Y-8362190D01*
X8474374Y-8362190D02*
X8467231Y-8369333D01*
X8467231Y-8369333D02*
X8460088Y-8362190D01*
X8460088Y-8362190D02*
X8467231Y-8355047D01*
X8467231Y-8355047D02*
X8467231Y-8369333D01*
X8467231Y-8276476D02*
X8474374Y-8283618D01*
X8474374Y-8283618D02*
X8467231Y-8290761D01*
X8467231Y-8290761D02*
X8460088Y-8283618D01*
X8460088Y-8283618D02*
X8467231Y-8276476D01*
X8467231Y-8276476D02*
X8467231Y-8290761D01*
D10*
D11*
X9700220Y-9150720D02*
X9700220Y-9450720D01*
D10*
D11*
X16100220Y-9150720D02*
X16100220Y-9800720D01*
D12*
X11611900Y-944400D02*
G75*
G02*
X11581900Y-944400I-15000J0D01*
G01*
X11581900Y-944400D02*
G75*
G02*
X11611900Y-944400I15000J0D01*
G01*
X11900550Y-816450D02*
G75*
G02*
X11870550Y-816450I-15000J0D01*
G01*
X11870550Y-816450D02*
G75*
G02*
X11900550Y-816450I15000J0D01*
G01*
X11611450Y-692350D02*
G75*
G02*
X11581450Y-692350I-15000J0D01*
G01*
X11581450Y-692350D02*
G75*
G02*
X11611450Y-692350I15000J0D01*
G01*
X11901000Y-1068500D02*
G75*
G02*
X11871000Y-1068500I-15000J0D01*
G01*
X11871000Y-1068500D02*
G75*
G02*
X11901000Y-1068500I15000J0D01*
G01*
D14*
%TO.C,SW802*%
X1270000Y-740000D03*
X1270000Y-90000D03*
X1720000Y-740000D03*
X1720000Y-90000D03*
%TD*%
D15*
%TO.C,J104*%
X6250000Y870000D03*
D16*
X6250000Y616000D03*
X5996000Y870000D03*
X5996000Y616000D03*
X5742000Y870000D03*
X5742000Y616000D03*
X5488000Y870000D03*
X5488000Y616000D03*
X5234000Y870000D03*
X5234000Y616000D03*
X4980000Y870000D03*
X4980000Y616000D03*
X4726000Y870000D03*
X4726000Y616000D03*
X4472000Y870000D03*
X4472000Y616000D03*
X4218000Y870000D03*
X4218000Y616000D03*
X3964000Y870000D03*
X3964000Y616000D03*
%TD*%
D15*
%TO.C,J801*%
X1000000Y860000D03*
D16*
X1254000Y860000D03*
X1508000Y860000D03*
X1762000Y860000D03*
X2016000Y860000D03*
X2270000Y860000D03*
X2524000Y860000D03*
X2778000Y860000D03*
%TD*%
D15*
%TO.C,J601*%
X3587500Y-2917500D03*
D16*
X3333500Y-2917500D03*
X3587500Y-2663500D03*
X3333500Y-2663500D03*
%TD*%
D17*
%TO.C,RV801*%
X-90000Y-3820000D03*
D18*
X410000Y-3820000D03*
X910000Y-3820000D03*
%TD*%
D16*
%TO.C,J605*%
X4350000Y-3640000D03*
X4350000Y-2940000D03*
%TD*%
D14*
%TO.C,SW803*%
X2150000Y-730000D03*
X2150000Y-80000D03*
X2600000Y-730000D03*
X2600000Y-80000D03*
%TD*%
D15*
%TO.C,CN205*%
X-697401Y2410250D03*
D16*
X-697401Y2664250D03*
X-443401Y2410250D03*
X-443401Y2664250D03*
X-189401Y2410250D03*
X-189401Y2664250D03*
X64599Y2410250D03*
X64599Y2664250D03*
X318599Y2410250D03*
X318599Y2664250D03*
X572599Y2410250D03*
X572599Y2664250D03*
X826599Y2410250D03*
X826599Y2664250D03*
X1080599Y2410250D03*
X1080599Y2664250D03*
X1334599Y2410250D03*
X1334599Y2664250D03*
X1588599Y2410250D03*
X1588599Y2664250D03*
X1842599Y2410250D03*
X1842599Y2664250D03*
X2096599Y2410250D03*
X2096599Y2664250D03*
X2350599Y2410250D03*
X2350599Y2664250D03*
X2604599Y2410250D03*
X2604599Y2664250D03*
X2858599Y2410250D03*
X2858599Y2664250D03*
X3112599Y2410250D03*
X3112599Y2664250D03*
X3366599Y2410250D03*
X3366599Y2664250D03*
%TD*%
D15*
%TO.C,MK601*%
X3035000Y-3792500D03*
D16*
X3035000Y-3538500D03*
%TD*%
D15*
%TO.C,CN201*%
X5400000Y4810000D03*
D16*
X5654000Y4810000D03*
X5400000Y5064000D03*
X5654000Y5064000D03*
X5400000Y5318000D03*
X5654000Y5318000D03*
X5400000Y5572000D03*
X5654000Y5572000D03*
X5400000Y5826000D03*
X5654000Y5826000D03*
X5400000Y6080000D03*
X5654000Y6080000D03*
X5400000Y6334000D03*
X5654000Y6334000D03*
X5400000Y6588000D03*
X5654000Y6588000D03*
%TD*%
D17*
%TO.C,RV802*%
X-1960000Y-3820000D03*
D18*
X-1460000Y-3820000D03*
X-960000Y-3820000D03*
%TD*%
D15*
%TO.C,J102*%
X7326000Y7190000D03*
D16*
X7072000Y7190000D03*
X7326000Y7444000D03*
X7072000Y7444000D03*
X7326000Y7698000D03*
X7072000Y7698000D03*
%TD*%
D19*
%TO.C,J701*%
X1708000Y-3560000D03*
X1708000Y-3940000D03*
X2572000Y-3560000D03*
X2572000Y-3940000D03*
%TD*%
D15*
%TO.C,J802*%
X156000Y-2935000D03*
D16*
X156000Y-2681000D03*
X410000Y-2935000D03*
X410000Y-2681000D03*
X664000Y-2935000D03*
X664000Y-2681000D03*
%TD*%
D15*
%TO.C,J103*%
X-1868000Y606000D03*
D16*
X-1868000Y860000D03*
X-1614000Y606000D03*
X-1614000Y860000D03*
X-1360000Y606000D03*
X-1360000Y860000D03*
X-1106000Y606000D03*
X-1106000Y860000D03*
X-852000Y606000D03*
X-852000Y860000D03*
X-598000Y606000D03*
X-598000Y860000D03*
X-344000Y606000D03*
X-344000Y860000D03*
X-90000Y606000D03*
X-90000Y860000D03*
%TD*%
D14*
%TO.C,SW804*%
X3020000Y-730000D03*
X3020000Y-80000D03*
X3470000Y-730000D03*
X3470000Y-80000D03*
%TD*%
D15*
%TO.C,J105*%
X8413000Y6942000D03*
D16*
X8413000Y6688000D03*
X8413000Y6434000D03*
X8413000Y6180000D03*
X8413000Y5926000D03*
X8413000Y5672000D03*
X8413000Y5418000D03*
X8413000Y5164000D03*
%TD*%
D20*
%TO.C,U701*%
X2490000Y-2669750D03*
D21*
X2236000Y-2669750D03*
X1982000Y-2669750D03*
%TD*%
D22*
%TO.C,J603*%
X6370500Y-3356750D03*
D23*
X6720500Y-3356750D03*
X7070500Y-3356750D03*
X7420500Y-3356750D03*
%TD*%
D14*
%TO.C,SW801*%
X410000Y-730000D03*
X410000Y-80000D03*
X860000Y-730000D03*
X860000Y-80000D03*
%TD*%
D15*
%TO.C,CN203*%
X-189401Y6982250D03*
D16*
X-189401Y7236250D03*
X64599Y6982250D03*
X64599Y7236250D03*
X318599Y6982250D03*
X318599Y7236250D03*
X572599Y6982250D03*
X572599Y7236250D03*
X826599Y6982250D03*
X826599Y7236250D03*
X1080599Y6982250D03*
X1080599Y7236250D03*
X1334599Y6982250D03*
X1334599Y7236250D03*
X1588599Y6982250D03*
X1588599Y7236250D03*
X1842599Y6982250D03*
X1842599Y7236250D03*
X2096599Y6982250D03*
X2096599Y7236250D03*
X2350599Y6982250D03*
X2350599Y7236250D03*
X2604599Y6982250D03*
X2604599Y7236250D03*
X2858599Y6982250D03*
X2858599Y7236250D03*
X3112599Y6982250D03*
X3112599Y7236250D03*
X3366599Y6982250D03*
X3366599Y7236250D03*
%TD*%
D15*
%TO.C,J301*%
X-915000Y-2018388D03*
D16*
X-1169000Y-2018388D03*
X-915000Y-1764388D03*
X-1169000Y-1764388D03*
X-915000Y-1510388D03*
X-1169000Y-1510388D03*
X-915000Y-1256388D03*
X-1169000Y-1256388D03*
X-915000Y-1002388D03*
X-1169000Y-1002388D03*
X-915000Y-748388D03*
X-1169000Y-748388D03*
%TD*%
%TO.C,J602*%
X5490000Y-3640000D03*
X5490000Y-2940000D03*
%TD*%
D15*
%TO.C,J303*%
X-4554000Y-1490000D03*
D16*
X-4808000Y-1490000D03*
X-5062000Y-1490000D03*
X-5316000Y-1490000D03*
X-5570000Y-1490000D03*
X-5824000Y-1490000D03*
%TD*%
D15*
%TO.C,CN202*%
X-2475401Y6982250D03*
D16*
X-2475401Y7236250D03*
X-2221401Y6982250D03*
X-2221401Y7236250D03*
X-1967401Y6982250D03*
X-1967401Y7236250D03*
X-1713401Y6982250D03*
X-1713401Y7236250D03*
X-1459401Y6982250D03*
X-1459401Y7236250D03*
X-1205401Y6982250D03*
X-1205401Y7236250D03*
X-951401Y6982250D03*
X-951401Y7236250D03*
X-697401Y6982250D03*
X-697401Y7236250D03*
%TD*%
D24*
%TO.C,J501*%
X11690000Y4796000D03*
D25*
X11817000Y4796000D03*
%TD*%
D15*
%TO.C,CN204*%
X-3389801Y2410250D03*
D16*
X-3389801Y2664250D03*
X-3135801Y2410250D03*
X-3135801Y2664250D03*
X-2881801Y2410250D03*
X-2881801Y2664250D03*
X-2627801Y2410250D03*
X-2627801Y2664250D03*
X-2373801Y2410250D03*
X-2373801Y2664250D03*
X-2119801Y2410250D03*
X-2119801Y2664250D03*
X-1865801Y2410250D03*
X-1865801Y2664250D03*
X-1611801Y2410250D03*
X-1611801Y2664250D03*
X-1357801Y2410250D03*
X-1357801Y2664250D03*
X-1103801Y2410250D03*
X-1103801Y2664250D03*
%TD*%
D15*
%TO.C,J803*%
X-1714000Y-2935000D03*
D16*
X-1714000Y-2681000D03*
X-1460000Y-2935000D03*
X-1460000Y-2681000D03*
X-1206000Y-2935000D03*
X-1206000Y-2681000D03*
%TD*%
D15*
%TO.C,J604*%
X4590000Y-2040000D03*
D16*
X4590000Y-1786000D03*
X4590000Y-1532000D03*
%TD*%
D15*
%TO.C,J106*%
X7072000Y6682000D03*
D16*
X7326000Y6682000D03*
X7072000Y6428000D03*
X7326000Y6428000D03*
X7072000Y6174000D03*
X7326000Y6174000D03*
X7072000Y5920000D03*
X7326000Y5920000D03*
X7072000Y5666000D03*
X7326000Y5666000D03*
X7072000Y5412000D03*
X7326000Y5412000D03*
X7072000Y5158000D03*
X7326000Y5158000D03*
X7072000Y4904000D03*
X7326000Y4904000D03*
X7072000Y4650000D03*
X7326000Y4650000D03*
X7072000Y4396000D03*
X7326000Y4396000D03*
%TD*%
D26*
%TO.C,A101*%
X9340000Y6942000D03*
D27*
X9340000Y6688000D03*
X9340000Y6434000D03*
X9340000Y6180000D03*
X9340000Y5926000D03*
X9340000Y5672000D03*
X9340000Y5418000D03*
X9340000Y5164000D03*
X9340000Y4656000D03*
X9340000Y4402000D03*
X9340000Y4148000D03*
X9340000Y3894000D03*
X9340000Y3640000D03*
X9340000Y3386000D03*
X14166000Y3386000D03*
X14166000Y3640000D03*
X14166000Y3894000D03*
X14166000Y4148000D03*
X14166000Y4402000D03*
X14166000Y4656000D03*
X14166000Y4910000D03*
X14166000Y5164000D03*
X14166000Y5570000D03*
X14166000Y5824000D03*
X14166000Y6078000D03*
X14166000Y6332000D03*
X14166000Y6586000D03*
X14166000Y6840000D03*
X14166000Y7094000D03*
X14166000Y7348000D03*
X14166000Y7602000D03*
X14166000Y7856000D03*
%TD*%
D28*
X5665000Y2260000D03*
D29*
X8030000Y6127000D03*
X8030000Y5260000D03*
X8030000Y6238000D03*
X8030000Y-1245000D03*
D28*
X14000000Y-2500000D03*
D29*
X8030000Y5872000D03*
X8030000Y5332000D03*
D28*
X7500000Y-2500000D03*
X-3500000Y-2500000D03*
D29*
X8030000Y3540000D03*
X8030000Y6815000D03*
X8030000Y6489000D03*
X8030000Y6055000D03*
D28*
X-6195000Y2260000D03*
D29*
X8030000Y6887000D03*
X8030000Y6633000D03*
D28*
X11000000Y7420000D03*
D29*
X8030000Y6382000D03*
D28*
X11741000Y-1414400D03*
D29*
X8030000Y6743000D03*
X8030000Y5983000D03*
X8030000Y5800000D03*
X8030000Y6310000D03*
X8030000Y5590000D03*
X8030000Y5728000D03*
X8030000Y-2835000D03*
X8030000Y1950000D03*
D28*
X8500000Y-2500000D03*
D29*
X8030000Y355000D03*
X8030000Y5518000D03*
X8030000Y6560000D03*
D28*
X-6195000Y7420000D03*
X5670000Y7420000D03*
D29*
X11623400Y4910047D03*
X-1590000Y6870000D03*
X-6565000Y8185000D03*
X1299375Y-1360000D03*
X7695000Y-2245000D03*
X7710000Y5045000D03*
X11300147Y5181500D03*
X8275000Y5020000D03*
X11400000Y5997400D03*
X8260000Y7090000D03*
X-1280000Y-875000D03*
X-239375Y-1610000D03*
X6218000Y-2797000D03*
X1589375Y-1120000D03*
X8230000Y3540000D03*
X14225000Y5370000D03*
X5415625Y-820000D03*
X1700000Y-3274375D03*
X-485000Y330000D03*
X12005000Y5675000D03*
X-239375Y-1360000D03*
X11886000Y-1068500D03*
X14235000Y2575000D03*
X11742600Y1857400D03*
X12215000Y4710000D03*
X1410000Y-4125000D03*
X6105625Y-2040000D03*
X-2770000Y6720000D03*
X1490000Y-1605000D03*
X-2610000Y6865000D03*
X3329375Y-1110000D03*
X-6565000Y1315000D03*
X11741000Y2231500D03*
X719375Y-1110000D03*
X12445000Y5655000D03*
X-1240000Y-590000D03*
X6324375Y-120000D03*
X4012000Y-3013000D03*
X315000Y6805000D03*
X6581000Y-2871000D03*
X7620000Y-4115000D03*
X9295000Y4945000D03*
X10917658Y4655793D03*
X-2400000Y6775000D03*
X5035000Y-4130000D03*
X11595300Y1982400D03*
X-2430000Y-4120000D03*
X2459375Y-1110000D03*
X4035625Y-1530000D03*
X-5920000Y-3957875D03*
X11243500Y4500000D03*
X11950000Y3735000D03*
X11889000Y-815000D03*
X-4560000Y783000D03*
X-1915000Y6640000D03*
X6984375Y-2480000D03*
X-6560000Y1020000D03*
X8565000Y5015000D03*
X7245000Y-3160000D03*
X5477250Y129875D03*
X11865000Y5645000D03*
X11738000Y2560000D03*
X10920000Y4411250D03*
X7685000Y8190000D03*
X11879486Y4931337D03*
X2140000Y-2885625D03*
X14245000Y8205000D03*
X2950000Y-4125000D03*
X-6350000Y-300000D03*
X8275000Y8190000D03*
X-4940000Y-1619000D03*
X7710000Y5290000D03*
X-1150000Y395800D03*
X11420000Y4690000D03*
X3915625Y-1990000D03*
X11738000Y2649000D03*
X-5863000Y-3443000D03*
X5201000Y-1211000D03*
X11596450Y-692600D03*
X6050000Y-1234375D03*
X7444375Y-2043825D03*
X11755000Y4387500D03*
X7246000Y-3474000D03*
X-4600000Y644375D03*
X12595000Y5375000D03*
X-525000Y-4105000D03*
X-3955625Y-3319500D03*
X-6535000Y240000D03*
X-6220000Y1165000D03*
X11873510Y2232400D03*
X295000Y415000D03*
X570000Y6805000D03*
X5285625Y-2130000D03*
X11169629Y5240982D03*
X-465000Y55000D03*
X11530000Y3510000D03*
X12611000Y4320000D03*
X3535000Y-4120000D03*
X-5922000Y1160000D03*
X6052000Y-3240000D03*
X14240000Y8025000D03*
X11740000Y3555000D03*
X11596900Y-944400D03*
X660000Y320000D03*
X12495573Y4813074D03*
X4670000Y-4130000D03*
X2494375Y-1900000D03*
X2055000Y-1215000D03*
X5677000Y-2132000D03*
X6371000Y-3084000D03*
X7695000Y-2765000D03*
X8240000Y5275000D03*
X-5905000Y-4120000D03*
X300000Y-550000D03*
X11681000Y3922500D03*
X14245000Y3235000D03*
X12575000Y5970000D03*
X6810000Y-2955625D03*
X11595990Y2232400D03*
X275000Y-1145000D03*
X11885800Y2107400D03*
X11550000Y3750000D03*
X-925000Y395000D03*
X11855000Y6010000D03*
X-1375000Y-1175000D03*
X8275000Y2585000D03*
X2874375Y-3200000D03*
X11190000Y4650000D03*
X6635625Y-2487500D03*
X6750000Y-2213000D03*
X1990000Y-3380000D03*
X1000000Y-1251250D03*
X2459375Y-960000D03*
X905000Y-1360000D03*
X1988127Y-3288243D03*
X2290000Y-3280000D03*
X-440000Y-75625D03*
X6950539Y-2252172D03*
X2290000Y-3380000D03*
X-70000Y-75625D03*
X719375Y-960000D03*
X6810000Y-2776250D03*
X1589375Y-970000D03*
X3329375Y-960000D03*
X1298125Y-1870000D03*
X5380000Y-1200000D03*
X1299375Y-1610000D03*
X1250000Y-2770000D03*
X1317000Y-2705000D03*
X1299375Y-2120000D03*
X-2414375Y6530000D03*
X-4810000Y644375D03*
X-3260000Y1964375D03*
X5315614Y-101761D03*
X11429250Y5532500D03*
X-1945625Y6530000D03*
X6310000Y-960000D03*
X-1200000Y6385625D03*
X-239375Y-1990000D03*
X6330000Y-340000D03*
X-5405625Y-4020000D03*
X3340000Y-2110000D03*
X-4810000Y1284375D03*
X1250000Y-2705000D03*
X1315000Y-2770000D03*
X11261000Y5357500D03*
X12523500Y5285000D03*
X6086000Y1074000D03*
X11420700Y6152500D03*
X11255000Y6240000D03*
X11660900Y6189680D03*
X-2060000Y6350000D03*
X-2137455Y6319800D03*
X-1365000Y-2268688D03*
X-540625Y-2120000D03*
X-1369014Y-2152900D03*
X-1054380Y-40000D03*
X11320679Y6420200D03*
X4088891Y3248891D03*
X-1520000Y1650000D03*
X4100000Y1500000D03*
X2510000Y-1723750D03*
X6040000Y70000D03*
X-1993305Y2030068D03*
X-60000Y1910000D03*
X-140000Y1910000D03*
X-1990000Y2110000D03*
X5830000Y90000D03*
X5698281Y293282D03*
X6148536Y-419539D03*
X155000Y-1360000D03*
X155000Y-1995000D03*
X11598916Y6135702D03*
X11309978Y6298116D03*
X11540800Y6190680D03*
X4180000Y-1690000D03*
X4711906Y-1590000D03*
X6840206Y-692681D03*
X6019819Y-637706D03*
X6780000Y-640000D03*
X6072500Y-577500D03*
X6652500Y-632500D03*
X6020000Y-510000D03*
X11911448Y5004675D03*
X11435347Y5029000D03*
X11748500Y4910000D03*
X11181000Y4760000D03*
X6712500Y-692500D03*
X6080000Y-450000D03*
X12018379Y5291637D03*
X11316000Y4110000D03*
X12256625Y4293608D03*
X12013500Y5391500D03*
X12072500Y3340000D03*
X11742500Y3297500D03*
X11243500Y4380000D03*
X12113426Y4629744D03*
X11818500Y3922500D03*
X11960912Y4242400D03*
X11433809Y4296587D03*
X12053426Y5144927D03*
X905000Y-2120000D03*
X905000Y-1870000D03*
X905000Y-1615000D03*
X155000Y-1615000D03*
X-2914432Y6560000D03*
M02*
