%TF.GenerationSoftware,KiCad,Pcbnew,9.0.2*%
%TF.CreationDate,2025-06-04T21:18:06+02:00*%
%TF.ProjectId,voicemail-box,766f6963-656d-4616-996c-2d626f782e6b,rev?*%
%TF.SameCoordinates,Original*%
%TF.FileFunction,Soldermask,Bot*%
%TF.FilePolarity,Negative*%
%FSLAX45Y45*%
G04 Gerber Fmt 4.5, Leading zero omitted, Abs format (unit mm)*
G04 Created by KiCad (PCBNEW 9.0.2) date 2025-06-04 21:18:06*
%MOMM*%
%LPD*%
G01*
G04 APERTURE LIST*
G04 Aperture macros list*
%AMRoundRect*
0 Rectangle with rounded corners*
0 $1 Rounding radius*
0 $2 $3 $4 $5 $6 $7 $8 $9 X,Y pos of 4 corners*
0 Add a 4 corners polygon primitive as box body*
4,1,4,$2,$3,$4,$5,$6,$7,$8,$9,$2,$3,0*
0 Add four circle primitives for the rounded corners*
1,1,$1+$1,$2,$3*
1,1,$1+$1,$4,$5*
1,1,$1+$1,$6,$7*
1,1,$1+$1,$8,$9*
0 Add four rect primitives between the rounded corners*
20,1,$1+$1,$2,$3,$4,$5,0*
20,1,$1+$1,$4,$5,$6,$7,0*
20,1,$1+$1,$6,$7,$8,$9,0*
20,1,$1+$1,$8,$9,$2,$3,0*%
G04 Aperture macros list end*
%ADD10C,0.100000*%
%ADD11C,0.150000*%
%ADD12C,0.300000*%
%ADD13C,0.400000*%
%ADD14C,2.000000*%
%ADD15R,1.700000X1.700000*%
%ADD16C,1.700000*%
%ADD17R,3.000000X3.000000*%
%ADD18C,3.000000*%
%ADD19O,1.000000X1.700000*%
%ADD20R,1.700000X2.500000*%
%ADD21O,1.700000X2.500000*%
%ADD22RoundRect,0.250000X-0.650000X-1.550000X0.650000X-1.550000X0.650000X1.550000X-0.650000X1.550000X0*%
%ADD23O,1.800000X3.600000*%
%ADD24R,1.000000X1.000000*%
%ADD25C,1.000000*%
%ADD26R,1.600000X1.600000*%
%ADD27O,1.600000X1.600000*%
%ADD28C,4.500000*%
%ADD29C,0.600000*%
%TA.AperFunction,Profile*%
%ADD30C,0.150000*%
%TD*%
G04 APERTURE END LIST*
D10*
D11*
X17700220Y-16600720D02*
X28500220Y-16600720D01*
X28500220Y-19800720D01*
X17700220Y-19800720D01*
X17700220Y-16600720D01*
D10*
D11*
X1000000Y-1000000D02*
X28700220Y-1000000D01*
X28700220Y-20000720D01*
X1000000Y-20000720D01*
X1000000Y-1000000D01*
D10*
D11*
X1200000Y-1200000D02*
X28500220Y-1200000D01*
X28500220Y-19800720D01*
X1200000Y-19800720D01*
X1200000Y-1200000D01*
D10*
D11*
X6000000Y-1200000D02*
X6000000Y-1000000D01*
D10*
D11*
X11000000Y-1200000D02*
X11000000Y-1000000D01*
D10*
D11*
X16000000Y-1200000D02*
X16000000Y-1000000D01*
D10*
D11*
X21000000Y-1200000D02*
X21000000Y-1000000D01*
D10*
D11*
X26000000Y-1200000D02*
X26000000Y-1000000D01*
D10*
D11*
X3608916Y-1159360D02*
X3534630Y-1159360D01*
X3571773Y-1159360D02*
X3571773Y-1029360D01*
X3571773Y-1029360D02*
X3559392Y-1047932D01*
X3559392Y-1047932D02*
X3547011Y-1060313D01*
X3547011Y-1060313D02*
X3534630Y-1066503D01*
D10*
D11*
X8534630Y-1041741D02*
X8540821Y-1035551D01*
X8540821Y-1035551D02*
X8553202Y-1029360D01*
X8553202Y-1029360D02*
X8584154Y-1029360D01*
X8584154Y-1029360D02*
X8596535Y-1035551D01*
X8596535Y-1035551D02*
X8602726Y-1041741D01*
X8602726Y-1041741D02*
X8608916Y-1054122D01*
X8608916Y-1054122D02*
X8608916Y-1066503D01*
X8608916Y-1066503D02*
X8602726Y-1085075D01*
X8602726Y-1085075D02*
X8528440Y-1159360D01*
X8528440Y-1159360D02*
X8608916Y-1159360D01*
D10*
D11*
X13528440Y-1029360D02*
X13608916Y-1029360D01*
X13608916Y-1029360D02*
X13565583Y-1078884D01*
X13565583Y-1078884D02*
X13584154Y-1078884D01*
X13584154Y-1078884D02*
X13596535Y-1085075D01*
X13596535Y-1085075D02*
X13602725Y-1091265D01*
X13602725Y-1091265D02*
X13608916Y-1103646D01*
X13608916Y-1103646D02*
X13608916Y-1134599D01*
X13608916Y-1134599D02*
X13602725Y-1146980D01*
X13602725Y-1146980D02*
X13596535Y-1153170D01*
X13596535Y-1153170D02*
X13584154Y-1159360D01*
X13584154Y-1159360D02*
X13547011Y-1159360D01*
X13547011Y-1159360D02*
X13534630Y-1153170D01*
X13534630Y-1153170D02*
X13528440Y-1146980D01*
D10*
D11*
X18596535Y-1072694D02*
X18596535Y-1159360D01*
X18565583Y-1023170D02*
X18534630Y-1116027D01*
X18534630Y-1116027D02*
X18615106Y-1116027D01*
D10*
D11*
X23602725Y-1029360D02*
X23540821Y-1029360D01*
X23540821Y-1029360D02*
X23534630Y-1091265D01*
X23534630Y-1091265D02*
X23540821Y-1085075D01*
X23540821Y-1085075D02*
X23553202Y-1078884D01*
X23553202Y-1078884D02*
X23584154Y-1078884D01*
X23584154Y-1078884D02*
X23596535Y-1085075D01*
X23596535Y-1085075D02*
X23602725Y-1091265D01*
X23602725Y-1091265D02*
X23608916Y-1103646D01*
X23608916Y-1103646D02*
X23608916Y-1134599D01*
X23608916Y-1134599D02*
X23602725Y-1146980D01*
X23602725Y-1146980D02*
X23596535Y-1153170D01*
X23596535Y-1153170D02*
X23584154Y-1159360D01*
X23584154Y-1159360D02*
X23553202Y-1159360D01*
X23553202Y-1159360D02*
X23540821Y-1153170D01*
X23540821Y-1153170D02*
X23534630Y-1146980D01*
D10*
D11*
X28596535Y-1029360D02*
X28571773Y-1029360D01*
X28571773Y-1029360D02*
X28559392Y-1035551D01*
X28559392Y-1035551D02*
X28553202Y-1041741D01*
X28553202Y-1041741D02*
X28540821Y-1060313D01*
X28540821Y-1060313D02*
X28534630Y-1085075D01*
X28534630Y-1085075D02*
X28534630Y-1134599D01*
X28534630Y-1134599D02*
X28540821Y-1146980D01*
X28540821Y-1146980D02*
X28547011Y-1153170D01*
X28547011Y-1153170D02*
X28559392Y-1159360D01*
X28559392Y-1159360D02*
X28584154Y-1159360D01*
X28584154Y-1159360D02*
X28596535Y-1153170D01*
X28596535Y-1153170D02*
X28602725Y-1146980D01*
X28602725Y-1146980D02*
X28608916Y-1134599D01*
X28608916Y-1134599D02*
X28608916Y-1103646D01*
X28608916Y-1103646D02*
X28602725Y-1091265D01*
X28602725Y-1091265D02*
X28596535Y-1085075D01*
X28596535Y-1085075D02*
X28584154Y-1078884D01*
X28584154Y-1078884D02*
X28559392Y-1078884D01*
X28559392Y-1078884D02*
X28547011Y-1085075D01*
X28547011Y-1085075D02*
X28540821Y-1091265D01*
X28540821Y-1091265D02*
X28534630Y-1103646D01*
D10*
D11*
X6000000Y-19800720D02*
X6000000Y-20000720D01*
D10*
D11*
X11000000Y-19800720D02*
X11000000Y-20000720D01*
D10*
D11*
X16000000Y-19800720D02*
X16000000Y-20000720D01*
D10*
D11*
X21000000Y-19800720D02*
X21000000Y-20000720D01*
D10*
D11*
X26000000Y-19800720D02*
X26000000Y-20000720D01*
D10*
D11*
X3608916Y-19960080D02*
X3534630Y-19960080D01*
X3571773Y-19960080D02*
X3571773Y-19830080D01*
X3571773Y-19830080D02*
X3559392Y-19848652D01*
X3559392Y-19848652D02*
X3547011Y-19861033D01*
X3547011Y-19861033D02*
X3534630Y-19867223D01*
D10*
D11*
X8534630Y-19842461D02*
X8540821Y-19836271D01*
X8540821Y-19836271D02*
X8553202Y-19830080D01*
X8553202Y-19830080D02*
X8584154Y-19830080D01*
X8584154Y-19830080D02*
X8596535Y-19836271D01*
X8596535Y-19836271D02*
X8602726Y-19842461D01*
X8602726Y-19842461D02*
X8608916Y-19854842D01*
X8608916Y-19854842D02*
X8608916Y-19867223D01*
X8608916Y-19867223D02*
X8602726Y-19885795D01*
X8602726Y-19885795D02*
X8528440Y-19960080D01*
X8528440Y-19960080D02*
X8608916Y-19960080D01*
D10*
D11*
X13528440Y-19830080D02*
X13608916Y-19830080D01*
X13608916Y-19830080D02*
X13565583Y-19879604D01*
X13565583Y-19879604D02*
X13584154Y-19879604D01*
X13584154Y-19879604D02*
X13596535Y-19885795D01*
X13596535Y-19885795D02*
X13602725Y-19891985D01*
X13602725Y-19891985D02*
X13608916Y-19904366D01*
X13608916Y-19904366D02*
X13608916Y-19935319D01*
X13608916Y-19935319D02*
X13602725Y-19947700D01*
X13602725Y-19947700D02*
X13596535Y-19953890D01*
X13596535Y-19953890D02*
X13584154Y-19960080D01*
X13584154Y-19960080D02*
X13547011Y-19960080D01*
X13547011Y-19960080D02*
X13534630Y-19953890D01*
X13534630Y-19953890D02*
X13528440Y-19947700D01*
D10*
D11*
X18596535Y-19873414D02*
X18596535Y-19960080D01*
X18565583Y-19823890D02*
X18534630Y-19916747D01*
X18534630Y-19916747D02*
X18615106Y-19916747D01*
D10*
D11*
X23602725Y-19830080D02*
X23540821Y-19830080D01*
X23540821Y-19830080D02*
X23534630Y-19891985D01*
X23534630Y-19891985D02*
X23540821Y-19885795D01*
X23540821Y-19885795D02*
X23553202Y-19879604D01*
X23553202Y-19879604D02*
X23584154Y-19879604D01*
X23584154Y-19879604D02*
X23596535Y-19885795D01*
X23596535Y-19885795D02*
X23602725Y-19891985D01*
X23602725Y-19891985D02*
X23608916Y-19904366D01*
X23608916Y-19904366D02*
X23608916Y-19935319D01*
X23608916Y-19935319D02*
X23602725Y-19947700D01*
X23602725Y-19947700D02*
X23596535Y-19953890D01*
X23596535Y-19953890D02*
X23584154Y-19960080D01*
X23584154Y-19960080D02*
X23553202Y-19960080D01*
X23553202Y-19960080D02*
X23540821Y-19953890D01*
X23540821Y-19953890D02*
X23534630Y-19947700D01*
D10*
D11*
X28596535Y-19830080D02*
X28571773Y-19830080D01*
X28571773Y-19830080D02*
X28559392Y-19836271D01*
X28559392Y-19836271D02*
X28553202Y-19842461D01*
X28553202Y-19842461D02*
X28540821Y-19861033D01*
X28540821Y-19861033D02*
X28534630Y-19885795D01*
X28534630Y-19885795D02*
X28534630Y-19935319D01*
X28534630Y-19935319D02*
X28540821Y-19947700D01*
X28540821Y-19947700D02*
X28547011Y-19953890D01*
X28547011Y-19953890D02*
X28559392Y-19960080D01*
X28559392Y-19960080D02*
X28584154Y-19960080D01*
X28584154Y-19960080D02*
X28596535Y-19953890D01*
X28596535Y-19953890D02*
X28602725Y-19947700D01*
X28602725Y-19947700D02*
X28608916Y-19935319D01*
X28608916Y-19935319D02*
X28608916Y-19904366D01*
X28608916Y-19904366D02*
X28602725Y-19891985D01*
X28602725Y-19891985D02*
X28596535Y-19885795D01*
X28596535Y-19885795D02*
X28584154Y-19879604D01*
X28584154Y-19879604D02*
X28559392Y-19879604D01*
X28559392Y-19879604D02*
X28547011Y-19885795D01*
X28547011Y-19885795D02*
X28540821Y-19891985D01*
X28540821Y-19891985D02*
X28534630Y-19904366D01*
D10*
D11*
X1000000Y-6000000D02*
X1200000Y-6000000D01*
D10*
D11*
X1000000Y-11000000D02*
X1200000Y-11000000D01*
D10*
D11*
X1000000Y-16000000D02*
X1200000Y-16000000D01*
D10*
D11*
X1069048Y-3522218D02*
X1130952Y-3522218D01*
X1056667Y-3559360D02*
X1100000Y-3429360D01*
X1100000Y-3429360D02*
X1143333Y-3559360D01*
D10*
D11*
X1109286Y-8491265D02*
X1127857Y-8497456D01*
X1127857Y-8497456D02*
X1134048Y-8503646D01*
X1134048Y-8503646D02*
X1140238Y-8516027D01*
X1140238Y-8516027D02*
X1140238Y-8534599D01*
X1140238Y-8534599D02*
X1134048Y-8546980D01*
X1134048Y-8546980D02*
X1127857Y-8553170D01*
X1127857Y-8553170D02*
X1115476Y-8559360D01*
X1115476Y-8559360D02*
X1065952Y-8559360D01*
X1065952Y-8559360D02*
X1065952Y-8429360D01*
X1065952Y-8429360D02*
X1109286Y-8429360D01*
X1109286Y-8429360D02*
X1121667Y-8435551D01*
X1121667Y-8435551D02*
X1127857Y-8441741D01*
X1127857Y-8441741D02*
X1134048Y-8454122D01*
X1134048Y-8454122D02*
X1134048Y-8466503D01*
X1134048Y-8466503D02*
X1127857Y-8478884D01*
X1127857Y-8478884D02*
X1121667Y-8485075D01*
X1121667Y-8485075D02*
X1109286Y-8491265D01*
X1109286Y-8491265D02*
X1065952Y-8491265D01*
D10*
D11*
X1140238Y-13546979D02*
X1134048Y-13553170D01*
X1134048Y-13553170D02*
X1115476Y-13559360D01*
X1115476Y-13559360D02*
X1103095Y-13559360D01*
X1103095Y-13559360D02*
X1084524Y-13553170D01*
X1084524Y-13553170D02*
X1072143Y-13540789D01*
X1072143Y-13540789D02*
X1065952Y-13528408D01*
X1065952Y-13528408D02*
X1059762Y-13503646D01*
X1059762Y-13503646D02*
X1059762Y-13485075D01*
X1059762Y-13485075D02*
X1065952Y-13460313D01*
X1065952Y-13460313D02*
X1072143Y-13447932D01*
X1072143Y-13447932D02*
X1084524Y-13435551D01*
X1084524Y-13435551D02*
X1103095Y-13429360D01*
X1103095Y-13429360D02*
X1115476Y-13429360D01*
X1115476Y-13429360D02*
X1134048Y-13435551D01*
X1134048Y-13435551D02*
X1140238Y-13441741D01*
D10*
D11*
X1065952Y-18559360D02*
X1065952Y-18429360D01*
X1065952Y-18429360D02*
X1096905Y-18429360D01*
X1096905Y-18429360D02*
X1115476Y-18435551D01*
X1115476Y-18435551D02*
X1127857Y-18447932D01*
X1127857Y-18447932D02*
X1134048Y-18460313D01*
X1134048Y-18460313D02*
X1140238Y-18485075D01*
X1140238Y-18485075D02*
X1140238Y-18503646D01*
X1140238Y-18503646D02*
X1134048Y-18528408D01*
X1134048Y-18528408D02*
X1127857Y-18540789D01*
X1127857Y-18540789D02*
X1115476Y-18553170D01*
X1115476Y-18553170D02*
X1096905Y-18559360D01*
X1096905Y-18559360D02*
X1065952Y-18559360D01*
D10*
D11*
X28700220Y-6000000D02*
X28500220Y-6000000D01*
D10*
D11*
X28700220Y-11000000D02*
X28500220Y-11000000D01*
D10*
D11*
X28700220Y-16000000D02*
X28500220Y-16000000D01*
D10*
D11*
X28569268Y-3522218D02*
X28631172Y-3522218D01*
X28556887Y-3559360D02*
X28600220Y-3429360D01*
X28600220Y-3429360D02*
X28643553Y-3559360D01*
D10*
D11*
X28609506Y-8491265D02*
X28628077Y-8497456D01*
X28628077Y-8497456D02*
X28634268Y-8503646D01*
X28634268Y-8503646D02*
X28640458Y-8516027D01*
X28640458Y-8516027D02*
X28640458Y-8534599D01*
X28640458Y-8534599D02*
X28634268Y-8546980D01*
X28634268Y-8546980D02*
X28628077Y-8553170D01*
X28628077Y-8553170D02*
X28615696Y-8559360D01*
X28615696Y-8559360D02*
X28566172Y-8559360D01*
X28566172Y-8559360D02*
X28566172Y-8429360D01*
X28566172Y-8429360D02*
X28609506Y-8429360D01*
X28609506Y-8429360D02*
X28621887Y-8435551D01*
X28621887Y-8435551D02*
X28628077Y-8441741D01*
X28628077Y-8441741D02*
X28634268Y-8454122D01*
X28634268Y-8454122D02*
X28634268Y-8466503D01*
X28634268Y-8466503D02*
X28628077Y-8478884D01*
X28628077Y-8478884D02*
X28621887Y-8485075D01*
X28621887Y-8485075D02*
X28609506Y-8491265D01*
X28609506Y-8491265D02*
X28566172Y-8491265D01*
D10*
D11*
X28640458Y-13546979D02*
X28634268Y-13553170D01*
X28634268Y-13553170D02*
X28615696Y-13559360D01*
X28615696Y-13559360D02*
X28603315Y-13559360D01*
X28603315Y-13559360D02*
X28584744Y-13553170D01*
X28584744Y-13553170D02*
X28572363Y-13540789D01*
X28572363Y-13540789D02*
X28566172Y-13528408D01*
X28566172Y-13528408D02*
X28559982Y-13503646D01*
X28559982Y-13503646D02*
X28559982Y-13485075D01*
X28559982Y-13485075D02*
X28566172Y-13460313D01*
X28566172Y-13460313D02*
X28572363Y-13447932D01*
X28572363Y-13447932D02*
X28584744Y-13435551D01*
X28584744Y-13435551D02*
X28603315Y-13429360D01*
X28603315Y-13429360D02*
X28615696Y-13429360D01*
X28615696Y-13429360D02*
X28634268Y-13435551D01*
X28634268Y-13435551D02*
X28640458Y-13441741D01*
D10*
D11*
X28566172Y-18559360D02*
X28566172Y-18429360D01*
X28566172Y-18429360D02*
X28597125Y-18429360D01*
X28597125Y-18429360D02*
X28615696Y-18435551D01*
X28615696Y-18435551D02*
X28628077Y-18447932D01*
X28628077Y-18447932D02*
X28634268Y-18460313D01*
X28634268Y-18460313D02*
X28640458Y-18485075D01*
X28640458Y-18485075D02*
X28640458Y-18503646D01*
X28640458Y-18503646D02*
X28634268Y-18528408D01*
X28634268Y-18528408D02*
X28628077Y-18540789D01*
X28628077Y-18540789D02*
X28615696Y-18553170D01*
X28615696Y-18553170D02*
X28597125Y-18559360D01*
X28597125Y-18559360D02*
X28566172Y-18559360D01*
D10*
D11*
X20045803Y-19379333D02*
X20045803Y-19229333D01*
X20045803Y-19229333D02*
X20081517Y-19229333D01*
X20081517Y-19229333D02*
X20102946Y-19236476D01*
X20102946Y-19236476D02*
X20117231Y-19250761D01*
X20117231Y-19250761D02*
X20124374Y-19265047D01*
X20124374Y-19265047D02*
X20131517Y-19293619D01*
X20131517Y-19293619D02*
X20131517Y-19315047D01*
X20131517Y-19315047D02*
X20124374Y-19343619D01*
X20124374Y-19343619D02*
X20117231Y-19357904D01*
X20117231Y-19357904D02*
X20102946Y-19372190D01*
X20102946Y-19372190D02*
X20081517Y-19379333D01*
X20081517Y-19379333D02*
X20045803Y-19379333D01*
X20260088Y-19379333D02*
X20260088Y-19300761D01*
X20260088Y-19300761D02*
X20252946Y-19286476D01*
X20252946Y-19286476D02*
X20238660Y-19279333D01*
X20238660Y-19279333D02*
X20210088Y-19279333D01*
X20210088Y-19279333D02*
X20195803Y-19286476D01*
X20260088Y-19372190D02*
X20245803Y-19379333D01*
X20245803Y-19379333D02*
X20210088Y-19379333D01*
X20210088Y-19379333D02*
X20195803Y-19372190D01*
X20195803Y-19372190D02*
X20188660Y-19357904D01*
X20188660Y-19357904D02*
X20188660Y-19343619D01*
X20188660Y-19343619D02*
X20195803Y-19329333D01*
X20195803Y-19329333D02*
X20210088Y-19322190D01*
X20210088Y-19322190D02*
X20245803Y-19322190D01*
X20245803Y-19322190D02*
X20260088Y-19315047D01*
X20310088Y-19279333D02*
X20367231Y-19279333D01*
X20331517Y-19229333D02*
X20331517Y-19357904D01*
X20331517Y-19357904D02*
X20338660Y-19372190D01*
X20338660Y-19372190D02*
X20352946Y-19379333D01*
X20352946Y-19379333D02*
X20367231Y-19379333D01*
X20474374Y-19372190D02*
X20460088Y-19379333D01*
X20460088Y-19379333D02*
X20431517Y-19379333D01*
X20431517Y-19379333D02*
X20417231Y-19372190D01*
X20417231Y-19372190D02*
X20410088Y-19357904D01*
X20410088Y-19357904D02*
X20410088Y-19300761D01*
X20410088Y-19300761D02*
X20417231Y-19286476D01*
X20417231Y-19286476D02*
X20431517Y-19279333D01*
X20431517Y-19279333D02*
X20460088Y-19279333D01*
X20460088Y-19279333D02*
X20474374Y-19286476D01*
X20474374Y-19286476D02*
X20481517Y-19300761D01*
X20481517Y-19300761D02*
X20481517Y-19315047D01*
X20481517Y-19315047D02*
X20410088Y-19329333D01*
X20545803Y-19365047D02*
X20552946Y-19372190D01*
X20552946Y-19372190D02*
X20545803Y-19379333D01*
X20545803Y-19379333D02*
X20538660Y-19372190D01*
X20538660Y-19372190D02*
X20545803Y-19365047D01*
X20545803Y-19365047D02*
X20545803Y-19379333D01*
X20545803Y-19286476D02*
X20552946Y-19293619D01*
X20552946Y-19293619D02*
X20545803Y-19300761D01*
X20545803Y-19300761D02*
X20538660Y-19293619D01*
X20538660Y-19293619D02*
X20545803Y-19286476D01*
X20545803Y-19286476D02*
X20545803Y-19300761D01*
X20731517Y-19379333D02*
X20731517Y-19279333D01*
X20731517Y-19293619D02*
X20738660Y-19286476D01*
X20738660Y-19286476D02*
X20752946Y-19279333D01*
X20752946Y-19279333D02*
X20774374Y-19279333D01*
X20774374Y-19279333D02*
X20788660Y-19286476D01*
X20788660Y-19286476D02*
X20795803Y-19300761D01*
X20795803Y-19300761D02*
X20795803Y-19379333D01*
X20795803Y-19300761D02*
X20802946Y-19286476D01*
X20802946Y-19286476D02*
X20817231Y-19279333D01*
X20817231Y-19279333D02*
X20838660Y-19279333D01*
X20838660Y-19279333D02*
X20852946Y-19286476D01*
X20852946Y-19286476D02*
X20860088Y-19300761D01*
X20860088Y-19300761D02*
X20860088Y-19379333D01*
X20995803Y-19379333D02*
X20995803Y-19300761D01*
X20995803Y-19300761D02*
X20988660Y-19286476D01*
X20988660Y-19286476D02*
X20974374Y-19279333D01*
X20974374Y-19279333D02*
X20945803Y-19279333D01*
X20945803Y-19279333D02*
X20931517Y-19286476D01*
X20995803Y-19372190D02*
X20981517Y-19379333D01*
X20981517Y-19379333D02*
X20945803Y-19379333D01*
X20945803Y-19379333D02*
X20931517Y-19372190D01*
X20931517Y-19372190D02*
X20924374Y-19357904D01*
X20924374Y-19357904D02*
X20924374Y-19343619D01*
X20924374Y-19343619D02*
X20931517Y-19329333D01*
X20931517Y-19329333D02*
X20945803Y-19322190D01*
X20945803Y-19322190D02*
X20981517Y-19322190D01*
X20981517Y-19322190D02*
X20995803Y-19315047D01*
X21067231Y-19379333D02*
X21067231Y-19279333D01*
X21067231Y-19307904D02*
X21074374Y-19293619D01*
X21074374Y-19293619D02*
X21081517Y-19286476D01*
X21081517Y-19286476D02*
X21095803Y-19279333D01*
X21095803Y-19279333D02*
X21110088Y-19279333D01*
X21160088Y-19365047D02*
X21167231Y-19372190D01*
X21167231Y-19372190D02*
X21160088Y-19379333D01*
X21160088Y-19379333D02*
X21152946Y-19372190D01*
X21152946Y-19372190D02*
X21160088Y-19365047D01*
X21160088Y-19365047D02*
X21160088Y-19379333D01*
X21331517Y-19229333D02*
X21424374Y-19229333D01*
X21424374Y-19229333D02*
X21374374Y-19286476D01*
X21374374Y-19286476D02*
X21395803Y-19286476D01*
X21395803Y-19286476D02*
X21410088Y-19293619D01*
X21410088Y-19293619D02*
X21417231Y-19300761D01*
X21417231Y-19300761D02*
X21424374Y-19315047D01*
X21424374Y-19315047D02*
X21424374Y-19350761D01*
X21424374Y-19350761D02*
X21417231Y-19365047D01*
X21417231Y-19365047D02*
X21410088Y-19372190D01*
X21410088Y-19372190D02*
X21395803Y-19379333D01*
X21395803Y-19379333D02*
X21352946Y-19379333D01*
X21352946Y-19379333D02*
X21338660Y-19372190D01*
X21338660Y-19372190D02*
X21331517Y-19365047D01*
X21567231Y-19379333D02*
X21481517Y-19379333D01*
X21524374Y-19379333D02*
X21524374Y-19229333D01*
X21524374Y-19229333D02*
X21510088Y-19250761D01*
X21510088Y-19250761D02*
X21495803Y-19265047D01*
X21495803Y-19265047D02*
X21481517Y-19272190D01*
X21745803Y-19379333D02*
X21745803Y-19279333D01*
X21745803Y-19293619D02*
X21752945Y-19286476D01*
X21752945Y-19286476D02*
X21767231Y-19279333D01*
X21767231Y-19279333D02*
X21788660Y-19279333D01*
X21788660Y-19279333D02*
X21802945Y-19286476D01*
X21802945Y-19286476D02*
X21810088Y-19300761D01*
X21810088Y-19300761D02*
X21810088Y-19379333D01*
X21810088Y-19300761D02*
X21817231Y-19286476D01*
X21817231Y-19286476D02*
X21831517Y-19279333D01*
X21831517Y-19279333D02*
X21852945Y-19279333D01*
X21852945Y-19279333D02*
X21867231Y-19286476D01*
X21867231Y-19286476D02*
X21874374Y-19300761D01*
X21874374Y-19300761D02*
X21874374Y-19379333D01*
X22010088Y-19379333D02*
X22010088Y-19300761D01*
X22010088Y-19300761D02*
X22002945Y-19286476D01*
X22002945Y-19286476D02*
X21988660Y-19279333D01*
X21988660Y-19279333D02*
X21960088Y-19279333D01*
X21960088Y-19279333D02*
X21945803Y-19286476D01*
X22010088Y-19372190D02*
X21995803Y-19379333D01*
X21995803Y-19379333D02*
X21960088Y-19379333D01*
X21960088Y-19379333D02*
X21945803Y-19372190D01*
X21945803Y-19372190D02*
X21938660Y-19357904D01*
X21938660Y-19357904D02*
X21938660Y-19343619D01*
X21938660Y-19343619D02*
X21945803Y-19329333D01*
X21945803Y-19329333D02*
X21960088Y-19322190D01*
X21960088Y-19322190D02*
X21995803Y-19322190D01*
X21995803Y-19322190D02*
X22010088Y-19315047D01*
X22081517Y-19379333D02*
X22081517Y-19279333D01*
X22081517Y-19307904D02*
X22088660Y-19293619D01*
X22088660Y-19293619D02*
X22095803Y-19286476D01*
X22095803Y-19286476D02*
X22110088Y-19279333D01*
X22110088Y-19279333D02*
X22124374Y-19279333D01*
X22167231Y-19372190D02*
X22181517Y-19379333D01*
X22181517Y-19379333D02*
X22210088Y-19379333D01*
X22210088Y-19379333D02*
X22224374Y-19372190D01*
X22224374Y-19372190D02*
X22231517Y-19357904D01*
X22231517Y-19357904D02*
X22231517Y-19350761D01*
X22231517Y-19350761D02*
X22224374Y-19336476D01*
X22224374Y-19336476D02*
X22210088Y-19329333D01*
X22210088Y-19329333D02*
X22188660Y-19329333D01*
X22188660Y-19329333D02*
X22174374Y-19322190D01*
X22174374Y-19322190D02*
X22167231Y-19307904D01*
X22167231Y-19307904D02*
X22167231Y-19300761D01*
X22167231Y-19300761D02*
X22174374Y-19286476D01*
X22174374Y-19286476D02*
X22188660Y-19279333D01*
X22188660Y-19279333D02*
X22210088Y-19279333D01*
X22210088Y-19279333D02*
X22224374Y-19286476D01*
X22402945Y-19243619D02*
X22410088Y-19236476D01*
X22410088Y-19236476D02*
X22424374Y-19229333D01*
X22424374Y-19229333D02*
X22460088Y-19229333D01*
X22460088Y-19229333D02*
X22474374Y-19236476D01*
X22474374Y-19236476D02*
X22481517Y-19243619D01*
X22481517Y-19243619D02*
X22488660Y-19257904D01*
X22488660Y-19257904D02*
X22488660Y-19272190D01*
X22488660Y-19272190D02*
X22481517Y-19293619D01*
X22481517Y-19293619D02*
X22395802Y-19379333D01*
X22395802Y-19379333D02*
X22488660Y-19379333D01*
X22581517Y-19229333D02*
X22595802Y-19229333D01*
X22595802Y-19229333D02*
X22610088Y-19236476D01*
X22610088Y-19236476D02*
X22617231Y-19243619D01*
X22617231Y-19243619D02*
X22624374Y-19257904D01*
X22624374Y-19257904D02*
X22631517Y-19286476D01*
X22631517Y-19286476D02*
X22631517Y-19322190D01*
X22631517Y-19322190D02*
X22624374Y-19350761D01*
X22624374Y-19350761D02*
X22617231Y-19365047D01*
X22617231Y-19365047D02*
X22610088Y-19372190D01*
X22610088Y-19372190D02*
X22595802Y-19379333D01*
X22595802Y-19379333D02*
X22581517Y-19379333D01*
X22581517Y-19379333D02*
X22567231Y-19372190D01*
X22567231Y-19372190D02*
X22560088Y-19365047D01*
X22560088Y-19365047D02*
X22552945Y-19350761D01*
X22552945Y-19350761D02*
X22545802Y-19322190D01*
X22545802Y-19322190D02*
X22545802Y-19286476D01*
X22545802Y-19286476D02*
X22552945Y-19257904D01*
X22552945Y-19257904D02*
X22560088Y-19243619D01*
X22560088Y-19243619D02*
X22567231Y-19236476D01*
X22567231Y-19236476D02*
X22581517Y-19229333D01*
X22774374Y-19379333D02*
X22688660Y-19379333D01*
X22731517Y-19379333D02*
X22731517Y-19229333D01*
X22731517Y-19229333D02*
X22717231Y-19250761D01*
X22717231Y-19250761D02*
X22702945Y-19265047D01*
X22702945Y-19265047D02*
X22688660Y-19272190D01*
X22910088Y-19229333D02*
X22838659Y-19229333D01*
X22838659Y-19229333D02*
X22831517Y-19300761D01*
X22831517Y-19300761D02*
X22838659Y-19293619D01*
X22838659Y-19293619D02*
X22852945Y-19286476D01*
X22852945Y-19286476D02*
X22888659Y-19286476D01*
X22888659Y-19286476D02*
X22902945Y-19293619D01*
X22902945Y-19293619D02*
X22910088Y-19300761D01*
X22910088Y-19300761D02*
X22917231Y-19315047D01*
X22917231Y-19315047D02*
X22917231Y-19350761D01*
X22917231Y-19350761D02*
X22910088Y-19365047D01*
X22910088Y-19365047D02*
X22902945Y-19372190D01*
X22902945Y-19372190D02*
X22888659Y-19379333D01*
X22888659Y-19379333D02*
X22852945Y-19379333D01*
X22852945Y-19379333D02*
X22838659Y-19372190D01*
X22838659Y-19372190D02*
X22831517Y-19365047D01*
D10*
D11*
X17700220Y-19450720D02*
X28500220Y-19450720D01*
D10*
D11*
X17845803Y-19659333D02*
X17845803Y-19509333D01*
X17931517Y-19659333D02*
X17867231Y-19573619D01*
X17931517Y-19509333D02*
X17845803Y-19595047D01*
X17995803Y-19659333D02*
X17995803Y-19559333D01*
X17995803Y-19509333D02*
X17988660Y-19516476D01*
X17988660Y-19516476D02*
X17995803Y-19523619D01*
X17995803Y-19523619D02*
X18002946Y-19516476D01*
X18002946Y-19516476D02*
X17995803Y-19509333D01*
X17995803Y-19509333D02*
X17995803Y-19523619D01*
X18152946Y-19645047D02*
X18145803Y-19652190D01*
X18145803Y-19652190D02*
X18124374Y-19659333D01*
X18124374Y-19659333D02*
X18110088Y-19659333D01*
X18110088Y-19659333D02*
X18088660Y-19652190D01*
X18088660Y-19652190D02*
X18074374Y-19637904D01*
X18074374Y-19637904D02*
X18067231Y-19623619D01*
X18067231Y-19623619D02*
X18060088Y-19595047D01*
X18060088Y-19595047D02*
X18060088Y-19573619D01*
X18060088Y-19573619D02*
X18067231Y-19545047D01*
X18067231Y-19545047D02*
X18074374Y-19530761D01*
X18074374Y-19530761D02*
X18088660Y-19516476D01*
X18088660Y-19516476D02*
X18110088Y-19509333D01*
X18110088Y-19509333D02*
X18124374Y-19509333D01*
X18124374Y-19509333D02*
X18145803Y-19516476D01*
X18145803Y-19516476D02*
X18152946Y-19523619D01*
X18281517Y-19659333D02*
X18281517Y-19580761D01*
X18281517Y-19580761D02*
X18274374Y-19566476D01*
X18274374Y-19566476D02*
X18260088Y-19559333D01*
X18260088Y-19559333D02*
X18231517Y-19559333D01*
X18231517Y-19559333D02*
X18217231Y-19566476D01*
X18281517Y-19652190D02*
X18267231Y-19659333D01*
X18267231Y-19659333D02*
X18231517Y-19659333D01*
X18231517Y-19659333D02*
X18217231Y-19652190D01*
X18217231Y-19652190D02*
X18210088Y-19637904D01*
X18210088Y-19637904D02*
X18210088Y-19623619D01*
X18210088Y-19623619D02*
X18217231Y-19609333D01*
X18217231Y-19609333D02*
X18231517Y-19602190D01*
X18231517Y-19602190D02*
X18267231Y-19602190D01*
X18267231Y-19602190D02*
X18281517Y-19595047D01*
X18417231Y-19659333D02*
X18417231Y-19509333D01*
X18417231Y-19652190D02*
X18402946Y-19659333D01*
X18402946Y-19659333D02*
X18374374Y-19659333D01*
X18374374Y-19659333D02*
X18360088Y-19652190D01*
X18360088Y-19652190D02*
X18352946Y-19645047D01*
X18352946Y-19645047D02*
X18345803Y-19630761D01*
X18345803Y-19630761D02*
X18345803Y-19587904D01*
X18345803Y-19587904D02*
X18352946Y-19573619D01*
X18352946Y-19573619D02*
X18360088Y-19566476D01*
X18360088Y-19566476D02*
X18374374Y-19559333D01*
X18374374Y-19559333D02*
X18402946Y-19559333D01*
X18402946Y-19559333D02*
X18417231Y-19566476D01*
X18602946Y-19580761D02*
X18652946Y-19580761D01*
X18674374Y-19659333D02*
X18602946Y-19659333D01*
X18602946Y-19659333D02*
X18602946Y-19509333D01*
X18602946Y-19509333D02*
X18674374Y-19509333D01*
X18738660Y-19645047D02*
X18745803Y-19652190D01*
X18745803Y-19652190D02*
X18738660Y-19659333D01*
X18738660Y-19659333D02*
X18731517Y-19652190D01*
X18731517Y-19652190D02*
X18738660Y-19645047D01*
X18738660Y-19645047D02*
X18738660Y-19659333D01*
X18810088Y-19659333D02*
X18810088Y-19509333D01*
X18810088Y-19509333D02*
X18845803Y-19509333D01*
X18845803Y-19509333D02*
X18867231Y-19516476D01*
X18867231Y-19516476D02*
X18881517Y-19530761D01*
X18881517Y-19530761D02*
X18888660Y-19545047D01*
X18888660Y-19545047D02*
X18895803Y-19573619D01*
X18895803Y-19573619D02*
X18895803Y-19595047D01*
X18895803Y-19595047D02*
X18888660Y-19623619D01*
X18888660Y-19623619D02*
X18881517Y-19637904D01*
X18881517Y-19637904D02*
X18867231Y-19652190D01*
X18867231Y-19652190D02*
X18845803Y-19659333D01*
X18845803Y-19659333D02*
X18810088Y-19659333D01*
X18960088Y-19645047D02*
X18967231Y-19652190D01*
X18967231Y-19652190D02*
X18960088Y-19659333D01*
X18960088Y-19659333D02*
X18952946Y-19652190D01*
X18952946Y-19652190D02*
X18960088Y-19645047D01*
X18960088Y-19645047D02*
X18960088Y-19659333D01*
X19024374Y-19616476D02*
X19095803Y-19616476D01*
X19010089Y-19659333D02*
X19060089Y-19509333D01*
X19060089Y-19509333D02*
X19110089Y-19659333D01*
X19160088Y-19645047D02*
X19167231Y-19652190D01*
X19167231Y-19652190D02*
X19160088Y-19659333D01*
X19160088Y-19659333D02*
X19152946Y-19652190D01*
X19152946Y-19652190D02*
X19160088Y-19645047D01*
X19160088Y-19645047D02*
X19160088Y-19659333D01*
X19352946Y-19659333D02*
X19381517Y-19659333D01*
X19381517Y-19659333D02*
X19395803Y-19652190D01*
X19395803Y-19652190D02*
X19402946Y-19645047D01*
X19402946Y-19645047D02*
X19417231Y-19623619D01*
X19417231Y-19623619D02*
X19424374Y-19595047D01*
X19424374Y-19595047D02*
X19424374Y-19537904D01*
X19424374Y-19537904D02*
X19417231Y-19523619D01*
X19417231Y-19523619D02*
X19410089Y-19516476D01*
X19410089Y-19516476D02*
X19395803Y-19509333D01*
X19395803Y-19509333D02*
X19367231Y-19509333D01*
X19367231Y-19509333D02*
X19352946Y-19516476D01*
X19352946Y-19516476D02*
X19345803Y-19523619D01*
X19345803Y-19523619D02*
X19338660Y-19537904D01*
X19338660Y-19537904D02*
X19338660Y-19573619D01*
X19338660Y-19573619D02*
X19345803Y-19587904D01*
X19345803Y-19587904D02*
X19352946Y-19595047D01*
X19352946Y-19595047D02*
X19367231Y-19602190D01*
X19367231Y-19602190D02*
X19395803Y-19602190D01*
X19395803Y-19602190D02*
X19410089Y-19595047D01*
X19410089Y-19595047D02*
X19417231Y-19587904D01*
X19417231Y-19587904D02*
X19424374Y-19573619D01*
X19488660Y-19645047D02*
X19495803Y-19652190D01*
X19495803Y-19652190D02*
X19488660Y-19659333D01*
X19488660Y-19659333D02*
X19481517Y-19652190D01*
X19481517Y-19652190D02*
X19488660Y-19645047D01*
X19488660Y-19645047D02*
X19488660Y-19659333D01*
X19588660Y-19509333D02*
X19602946Y-19509333D01*
X19602946Y-19509333D02*
X19617231Y-19516476D01*
X19617231Y-19516476D02*
X19624374Y-19523619D01*
X19624374Y-19523619D02*
X19631517Y-19537904D01*
X19631517Y-19537904D02*
X19638660Y-19566476D01*
X19638660Y-19566476D02*
X19638660Y-19602190D01*
X19638660Y-19602190D02*
X19631517Y-19630761D01*
X19631517Y-19630761D02*
X19624374Y-19645047D01*
X19624374Y-19645047D02*
X19617231Y-19652190D01*
X19617231Y-19652190D02*
X19602946Y-19659333D01*
X19602946Y-19659333D02*
X19588660Y-19659333D01*
X19588660Y-19659333D02*
X19574374Y-19652190D01*
X19574374Y-19652190D02*
X19567231Y-19645047D01*
X19567231Y-19645047D02*
X19560088Y-19630761D01*
X19560088Y-19630761D02*
X19552946Y-19602190D01*
X19552946Y-19602190D02*
X19552946Y-19566476D01*
X19552946Y-19566476D02*
X19560088Y-19537904D01*
X19560088Y-19537904D02*
X19567231Y-19523619D01*
X19567231Y-19523619D02*
X19574374Y-19516476D01*
X19574374Y-19516476D02*
X19588660Y-19509333D01*
X19702946Y-19645047D02*
X19710088Y-19652190D01*
X19710088Y-19652190D02*
X19702946Y-19659333D01*
X19702946Y-19659333D02*
X19695803Y-19652190D01*
X19695803Y-19652190D02*
X19702946Y-19645047D01*
X19702946Y-19645047D02*
X19702946Y-19659333D01*
X19767231Y-19523619D02*
X19774374Y-19516476D01*
X19774374Y-19516476D02*
X19788660Y-19509333D01*
X19788660Y-19509333D02*
X19824374Y-19509333D01*
X19824374Y-19509333D02*
X19838660Y-19516476D01*
X19838660Y-19516476D02*
X19845803Y-19523619D01*
X19845803Y-19523619D02*
X19852946Y-19537904D01*
X19852946Y-19537904D02*
X19852946Y-19552190D01*
X19852946Y-19552190D02*
X19845803Y-19573619D01*
X19845803Y-19573619D02*
X19760088Y-19659333D01*
X19760088Y-19659333D02*
X19852946Y-19659333D01*
D10*
D11*
X17700220Y-19150720D02*
X28500220Y-19150720D01*
D10*
D12*
X26441385Y-19378553D02*
X26391385Y-19307124D01*
X26355671Y-19378553D02*
X26355671Y-19228553D01*
X26355671Y-19228553D02*
X26412814Y-19228553D01*
X26412814Y-19228553D02*
X26427100Y-19235696D01*
X26427100Y-19235696D02*
X26434242Y-19242839D01*
X26434242Y-19242839D02*
X26441385Y-19257124D01*
X26441385Y-19257124D02*
X26441385Y-19278553D01*
X26441385Y-19278553D02*
X26434242Y-19292839D01*
X26434242Y-19292839D02*
X26427100Y-19299981D01*
X26427100Y-19299981D02*
X26412814Y-19307124D01*
X26412814Y-19307124D02*
X26355671Y-19307124D01*
X26562814Y-19371410D02*
X26548528Y-19378553D01*
X26548528Y-19378553D02*
X26519957Y-19378553D01*
X26519957Y-19378553D02*
X26505671Y-19371410D01*
X26505671Y-19371410D02*
X26498528Y-19357124D01*
X26498528Y-19357124D02*
X26498528Y-19299981D01*
X26498528Y-19299981D02*
X26505671Y-19285696D01*
X26505671Y-19285696D02*
X26519957Y-19278553D01*
X26519957Y-19278553D02*
X26548528Y-19278553D01*
X26548528Y-19278553D02*
X26562814Y-19285696D01*
X26562814Y-19285696D02*
X26569957Y-19299981D01*
X26569957Y-19299981D02*
X26569957Y-19314267D01*
X26569957Y-19314267D02*
X26498528Y-19328553D01*
X26619957Y-19278553D02*
X26655671Y-19378553D01*
X26655671Y-19378553D02*
X26691385Y-19278553D01*
X26748528Y-19364267D02*
X26755671Y-19371410D01*
X26755671Y-19371410D02*
X26748528Y-19378553D01*
X26748528Y-19378553D02*
X26741385Y-19371410D01*
X26741385Y-19371410D02*
X26748528Y-19364267D01*
X26748528Y-19364267D02*
X26748528Y-19378553D01*
X26748528Y-19285696D02*
X26755671Y-19292839D01*
X26755671Y-19292839D02*
X26748528Y-19299981D01*
X26748528Y-19299981D02*
X26741385Y-19292839D01*
X26741385Y-19292839D02*
X26748528Y-19285696D01*
X26748528Y-19285696D02*
X26748528Y-19299981D01*
D10*
D11*
X17838660Y-19372190D02*
X17860088Y-19379333D01*
X17860088Y-19379333D02*
X17895803Y-19379333D01*
X17895803Y-19379333D02*
X17910088Y-19372190D01*
X17910088Y-19372190D02*
X17917231Y-19365047D01*
X17917231Y-19365047D02*
X17924374Y-19350761D01*
X17924374Y-19350761D02*
X17924374Y-19336476D01*
X17924374Y-19336476D02*
X17917231Y-19322190D01*
X17917231Y-19322190D02*
X17910088Y-19315047D01*
X17910088Y-19315047D02*
X17895803Y-19307904D01*
X17895803Y-19307904D02*
X17867231Y-19300761D01*
X17867231Y-19300761D02*
X17852946Y-19293619D01*
X17852946Y-19293619D02*
X17845803Y-19286476D01*
X17845803Y-19286476D02*
X17838660Y-19272190D01*
X17838660Y-19272190D02*
X17838660Y-19257904D01*
X17838660Y-19257904D02*
X17845803Y-19243619D01*
X17845803Y-19243619D02*
X17852946Y-19236476D01*
X17852946Y-19236476D02*
X17867231Y-19229333D01*
X17867231Y-19229333D02*
X17902946Y-19229333D01*
X17902946Y-19229333D02*
X17924374Y-19236476D01*
X17988660Y-19379333D02*
X17988660Y-19279333D01*
X17988660Y-19229333D02*
X17981517Y-19236476D01*
X17981517Y-19236476D02*
X17988660Y-19243619D01*
X17988660Y-19243619D02*
X17995803Y-19236476D01*
X17995803Y-19236476D02*
X17988660Y-19229333D01*
X17988660Y-19229333D02*
X17988660Y-19243619D01*
X18045803Y-19279333D02*
X18124374Y-19279333D01*
X18124374Y-19279333D02*
X18045803Y-19379333D01*
X18045803Y-19379333D02*
X18124374Y-19379333D01*
X18238660Y-19372190D02*
X18224374Y-19379333D01*
X18224374Y-19379333D02*
X18195803Y-19379333D01*
X18195803Y-19379333D02*
X18181517Y-19372190D01*
X18181517Y-19372190D02*
X18174374Y-19357904D01*
X18174374Y-19357904D02*
X18174374Y-19300761D01*
X18174374Y-19300761D02*
X18181517Y-19286476D01*
X18181517Y-19286476D02*
X18195803Y-19279333D01*
X18195803Y-19279333D02*
X18224374Y-19279333D01*
X18224374Y-19279333D02*
X18238660Y-19286476D01*
X18238660Y-19286476D02*
X18245803Y-19300761D01*
X18245803Y-19300761D02*
X18245803Y-19315047D01*
X18245803Y-19315047D02*
X18174374Y-19329333D01*
X18310088Y-19365047D02*
X18317231Y-19372190D01*
X18317231Y-19372190D02*
X18310088Y-19379333D01*
X18310088Y-19379333D02*
X18302946Y-19372190D01*
X18302946Y-19372190D02*
X18310088Y-19365047D01*
X18310088Y-19365047D02*
X18310088Y-19379333D01*
X18310088Y-19286476D02*
X18317231Y-19293619D01*
X18317231Y-19293619D02*
X18310088Y-19300761D01*
X18310088Y-19300761D02*
X18302946Y-19293619D01*
X18302946Y-19293619D02*
X18310088Y-19286476D01*
X18310088Y-19286476D02*
X18310088Y-19300761D01*
X18488660Y-19336476D02*
X18560088Y-19336476D01*
X18474374Y-19379333D02*
X18524374Y-19229333D01*
X18524374Y-19229333D02*
X18574374Y-19379333D01*
X18688660Y-19279333D02*
X18688660Y-19379333D01*
X18652946Y-19222190D02*
X18617231Y-19329333D01*
X18617231Y-19329333D02*
X18710088Y-19329333D01*
D10*
D11*
X26345803Y-19659333D02*
X26345803Y-19509333D01*
X26481517Y-19659333D02*
X26481517Y-19509333D01*
X26481517Y-19652190D02*
X26467231Y-19659333D01*
X26467231Y-19659333D02*
X26438660Y-19659333D01*
X26438660Y-19659333D02*
X26424374Y-19652190D01*
X26424374Y-19652190D02*
X26417231Y-19645047D01*
X26417231Y-19645047D02*
X26410088Y-19630761D01*
X26410088Y-19630761D02*
X26410088Y-19587904D01*
X26410088Y-19587904D02*
X26417231Y-19573619D01*
X26417231Y-19573619D02*
X26424374Y-19566476D01*
X26424374Y-19566476D02*
X26438660Y-19559333D01*
X26438660Y-19559333D02*
X26467231Y-19559333D01*
X26467231Y-19559333D02*
X26481517Y-19566476D01*
X26552945Y-19645047D02*
X26560088Y-19652190D01*
X26560088Y-19652190D02*
X26552945Y-19659333D01*
X26552945Y-19659333D02*
X26545803Y-19652190D01*
X26545803Y-19652190D02*
X26552945Y-19645047D01*
X26552945Y-19645047D02*
X26552945Y-19659333D01*
X26552945Y-19566476D02*
X26560088Y-19573619D01*
X26560088Y-19573619D02*
X26552945Y-19580761D01*
X26552945Y-19580761D02*
X26545803Y-19573619D01*
X26545803Y-19573619D02*
X26552945Y-19566476D01*
X26552945Y-19566476D02*
X26552945Y-19580761D01*
X26760088Y-19573619D02*
X26745803Y-19566476D01*
X26745803Y-19566476D02*
X26738660Y-19559333D01*
X26738660Y-19559333D02*
X26731517Y-19545047D01*
X26731517Y-19545047D02*
X26731517Y-19537904D01*
X26731517Y-19537904D02*
X26738660Y-19523619D01*
X26738660Y-19523619D02*
X26745803Y-19516476D01*
X26745803Y-19516476D02*
X26760088Y-19509333D01*
X26760088Y-19509333D02*
X26788660Y-19509333D01*
X26788660Y-19509333D02*
X26802946Y-19516476D01*
X26802946Y-19516476D02*
X26810088Y-19523619D01*
X26810088Y-19523619D02*
X26817231Y-19537904D01*
X26817231Y-19537904D02*
X26817231Y-19545047D01*
X26817231Y-19545047D02*
X26810088Y-19559333D01*
X26810088Y-19559333D02*
X26802946Y-19566476D01*
X26802946Y-19566476D02*
X26788660Y-19573619D01*
X26788660Y-19573619D02*
X26760088Y-19573619D01*
X26760088Y-19573619D02*
X26745803Y-19580761D01*
X26745803Y-19580761D02*
X26738660Y-19587904D01*
X26738660Y-19587904D02*
X26731517Y-19602190D01*
X26731517Y-19602190D02*
X26731517Y-19630761D01*
X26731517Y-19630761D02*
X26738660Y-19645047D01*
X26738660Y-19645047D02*
X26745803Y-19652190D01*
X26745803Y-19652190D02*
X26760088Y-19659333D01*
X26760088Y-19659333D02*
X26788660Y-19659333D01*
X26788660Y-19659333D02*
X26802946Y-19652190D01*
X26802946Y-19652190D02*
X26810088Y-19645047D01*
X26810088Y-19645047D02*
X26817231Y-19630761D01*
X26817231Y-19630761D02*
X26817231Y-19602190D01*
X26817231Y-19602190D02*
X26810088Y-19587904D01*
X26810088Y-19587904D02*
X26802946Y-19580761D01*
X26802946Y-19580761D02*
X26788660Y-19573619D01*
X26988660Y-19502190D02*
X26860088Y-19695047D01*
X27045803Y-19659333D02*
X27074374Y-19659333D01*
X27074374Y-19659333D02*
X27088660Y-19652190D01*
X27088660Y-19652190D02*
X27095803Y-19645047D01*
X27095803Y-19645047D02*
X27110088Y-19623619D01*
X27110088Y-19623619D02*
X27117231Y-19595047D01*
X27117231Y-19595047D02*
X27117231Y-19537904D01*
X27117231Y-19537904D02*
X27110088Y-19523619D01*
X27110088Y-19523619D02*
X27102946Y-19516476D01*
X27102946Y-19516476D02*
X27088660Y-19509333D01*
X27088660Y-19509333D02*
X27060088Y-19509333D01*
X27060088Y-19509333D02*
X27045803Y-19516476D01*
X27045803Y-19516476D02*
X27038660Y-19523619D01*
X27038660Y-19523619D02*
X27031517Y-19537904D01*
X27031517Y-19537904D02*
X27031517Y-19573619D01*
X27031517Y-19573619D02*
X27038660Y-19587904D01*
X27038660Y-19587904D02*
X27045803Y-19595047D01*
X27045803Y-19595047D02*
X27060088Y-19602190D01*
X27060088Y-19602190D02*
X27088660Y-19602190D01*
X27088660Y-19602190D02*
X27102946Y-19595047D01*
X27102946Y-19595047D02*
X27110088Y-19587904D01*
X27110088Y-19587904D02*
X27117231Y-19573619D01*
D10*
D11*
X17700220Y-18750720D02*
X28500220Y-18750720D01*
D10*
D13*
X17869393Y-18821164D02*
X17983679Y-18821164D01*
X17901536Y-19021164D02*
X17926536Y-18821164D01*
X18025345Y-19021164D02*
X18042012Y-18887830D01*
X18050345Y-18821164D02*
X18039631Y-18830688D01*
X18039631Y-18830688D02*
X18047964Y-18840211D01*
X18047964Y-18840211D02*
X18058679Y-18830688D01*
X18058679Y-18830688D02*
X18050345Y-18821164D01*
X18050345Y-18821164D02*
X18047964Y-18840211D01*
X18108679Y-18887830D02*
X18184869Y-18887830D01*
X18145583Y-18821164D02*
X18124155Y-18992592D01*
X18124155Y-18992592D02*
X18131298Y-19011640D01*
X18131298Y-19011640D02*
X18149155Y-19021164D01*
X18149155Y-19021164D02*
X18168202Y-19021164D01*
X18263441Y-19021164D02*
X18245583Y-19011640D01*
X18245583Y-19011640D02*
X18238441Y-18992592D01*
X18238441Y-18992592D02*
X18259869Y-18821164D01*
X18417012Y-19011640D02*
X18396774Y-19021164D01*
X18396774Y-19021164D02*
X18358679Y-19021164D01*
X18358679Y-19021164D02*
X18340821Y-19011640D01*
X18340821Y-19011640D02*
X18333679Y-18992592D01*
X18333679Y-18992592D02*
X18343202Y-18916402D01*
X18343202Y-18916402D02*
X18355107Y-18897354D01*
X18355107Y-18897354D02*
X18375345Y-18887830D01*
X18375345Y-18887830D02*
X18413440Y-18887830D01*
X18413440Y-18887830D02*
X18431298Y-18897354D01*
X18431298Y-18897354D02*
X18438440Y-18916402D01*
X18438440Y-18916402D02*
X18436060Y-18935450D01*
X18436060Y-18935450D02*
X18338440Y-18954497D01*
X18513441Y-19002116D02*
X18521774Y-19011640D01*
X18521774Y-19011640D02*
X18511060Y-19021164D01*
X18511060Y-19021164D02*
X18502726Y-19011640D01*
X18502726Y-19011640D02*
X18513441Y-19002116D01*
X18513441Y-19002116D02*
X18511060Y-19021164D01*
X18526536Y-18897354D02*
X18534869Y-18906878D01*
X18534869Y-18906878D02*
X18524155Y-18916402D01*
X18524155Y-18916402D02*
X18515821Y-18906878D01*
X18515821Y-18906878D02*
X18526536Y-18897354D01*
X18526536Y-18897354D02*
X18524155Y-18916402D01*
D10*
D11*
X17895803Y-18560761D02*
X17845803Y-18560761D01*
X17845803Y-18639333D02*
X17845803Y-18489333D01*
X17845803Y-18489333D02*
X17917231Y-18489333D01*
X17974374Y-18639333D02*
X17974374Y-18539333D01*
X17974374Y-18489333D02*
X17967231Y-18496476D01*
X17967231Y-18496476D02*
X17974374Y-18503619D01*
X17974374Y-18503619D02*
X17981517Y-18496476D01*
X17981517Y-18496476D02*
X17974374Y-18489333D01*
X17974374Y-18489333D02*
X17974374Y-18503619D01*
X18067231Y-18639333D02*
X18052946Y-18632190D01*
X18052946Y-18632190D02*
X18045803Y-18617904D01*
X18045803Y-18617904D02*
X18045803Y-18489333D01*
X18181517Y-18632190D02*
X18167231Y-18639333D01*
X18167231Y-18639333D02*
X18138660Y-18639333D01*
X18138660Y-18639333D02*
X18124374Y-18632190D01*
X18124374Y-18632190D02*
X18117231Y-18617904D01*
X18117231Y-18617904D02*
X18117231Y-18560761D01*
X18117231Y-18560761D02*
X18124374Y-18546476D01*
X18124374Y-18546476D02*
X18138660Y-18539333D01*
X18138660Y-18539333D02*
X18167231Y-18539333D01*
X18167231Y-18539333D02*
X18181517Y-18546476D01*
X18181517Y-18546476D02*
X18188660Y-18560761D01*
X18188660Y-18560761D02*
X18188660Y-18575047D01*
X18188660Y-18575047D02*
X18117231Y-18589333D01*
X18252945Y-18625047D02*
X18260088Y-18632190D01*
X18260088Y-18632190D02*
X18252945Y-18639333D01*
X18252945Y-18639333D02*
X18245803Y-18632190D01*
X18245803Y-18632190D02*
X18252945Y-18625047D01*
X18252945Y-18625047D02*
X18252945Y-18639333D01*
X18252945Y-18546476D02*
X18260088Y-18553619D01*
X18260088Y-18553619D02*
X18252945Y-18560761D01*
X18252945Y-18560761D02*
X18245803Y-18553619D01*
X18245803Y-18553619D02*
X18252945Y-18546476D01*
X18252945Y-18546476D02*
X18252945Y-18560761D01*
X18424374Y-18539333D02*
X18460088Y-18639333D01*
X18460088Y-18639333D02*
X18495803Y-18539333D01*
X18574374Y-18639333D02*
X18560088Y-18632190D01*
X18560088Y-18632190D02*
X18552945Y-18625047D01*
X18552945Y-18625047D02*
X18545803Y-18610761D01*
X18545803Y-18610761D02*
X18545803Y-18567904D01*
X18545803Y-18567904D02*
X18552945Y-18553619D01*
X18552945Y-18553619D02*
X18560088Y-18546476D01*
X18560088Y-18546476D02*
X18574374Y-18539333D01*
X18574374Y-18539333D02*
X18595803Y-18539333D01*
X18595803Y-18539333D02*
X18610088Y-18546476D01*
X18610088Y-18546476D02*
X18617231Y-18553619D01*
X18617231Y-18553619D02*
X18624374Y-18567904D01*
X18624374Y-18567904D02*
X18624374Y-18610761D01*
X18624374Y-18610761D02*
X18617231Y-18625047D01*
X18617231Y-18625047D02*
X18610088Y-18632190D01*
X18610088Y-18632190D02*
X18595803Y-18639333D01*
X18595803Y-18639333D02*
X18574374Y-18639333D01*
X18688660Y-18639333D02*
X18688660Y-18539333D01*
X18688660Y-18489333D02*
X18681517Y-18496476D01*
X18681517Y-18496476D02*
X18688660Y-18503619D01*
X18688660Y-18503619D02*
X18695803Y-18496476D01*
X18695803Y-18496476D02*
X18688660Y-18489333D01*
X18688660Y-18489333D02*
X18688660Y-18503619D01*
X18824374Y-18632190D02*
X18810088Y-18639333D01*
X18810088Y-18639333D02*
X18781517Y-18639333D01*
X18781517Y-18639333D02*
X18767231Y-18632190D01*
X18767231Y-18632190D02*
X18760088Y-18625047D01*
X18760088Y-18625047D02*
X18752946Y-18610761D01*
X18752946Y-18610761D02*
X18752946Y-18567904D01*
X18752946Y-18567904D02*
X18760088Y-18553619D01*
X18760088Y-18553619D02*
X18767231Y-18546476D01*
X18767231Y-18546476D02*
X18781517Y-18539333D01*
X18781517Y-18539333D02*
X18810088Y-18539333D01*
X18810088Y-18539333D02*
X18824374Y-18546476D01*
X18945803Y-18632190D02*
X18931517Y-18639333D01*
X18931517Y-18639333D02*
X18902946Y-18639333D01*
X18902946Y-18639333D02*
X18888660Y-18632190D01*
X18888660Y-18632190D02*
X18881517Y-18617904D01*
X18881517Y-18617904D02*
X18881517Y-18560761D01*
X18881517Y-18560761D02*
X18888660Y-18546476D01*
X18888660Y-18546476D02*
X18902946Y-18539333D01*
X18902946Y-18539333D02*
X18931517Y-18539333D01*
X18931517Y-18539333D02*
X18945803Y-18546476D01*
X18945803Y-18546476D02*
X18952946Y-18560761D01*
X18952946Y-18560761D02*
X18952946Y-18575047D01*
X18952946Y-18575047D02*
X18881517Y-18589333D01*
X19017231Y-18639333D02*
X19017231Y-18539333D01*
X19017231Y-18553619D02*
X19024374Y-18546476D01*
X19024374Y-18546476D02*
X19038660Y-18539333D01*
X19038660Y-18539333D02*
X19060088Y-18539333D01*
X19060088Y-18539333D02*
X19074374Y-18546476D01*
X19074374Y-18546476D02*
X19081517Y-18560761D01*
X19081517Y-18560761D02*
X19081517Y-18639333D01*
X19081517Y-18560761D02*
X19088660Y-18546476D01*
X19088660Y-18546476D02*
X19102945Y-18539333D01*
X19102945Y-18539333D02*
X19124374Y-18539333D01*
X19124374Y-18539333D02*
X19138660Y-18546476D01*
X19138660Y-18546476D02*
X19145803Y-18560761D01*
X19145803Y-18560761D02*
X19145803Y-18639333D01*
X19281517Y-18639333D02*
X19281517Y-18560761D01*
X19281517Y-18560761D02*
X19274374Y-18546476D01*
X19274374Y-18546476D02*
X19260088Y-18539333D01*
X19260088Y-18539333D02*
X19231517Y-18539333D01*
X19231517Y-18539333D02*
X19217231Y-18546476D01*
X19281517Y-18632190D02*
X19267231Y-18639333D01*
X19267231Y-18639333D02*
X19231517Y-18639333D01*
X19231517Y-18639333D02*
X19217231Y-18632190D01*
X19217231Y-18632190D02*
X19210088Y-18617904D01*
X19210088Y-18617904D02*
X19210088Y-18603619D01*
X19210088Y-18603619D02*
X19217231Y-18589333D01*
X19217231Y-18589333D02*
X19231517Y-18582190D01*
X19231517Y-18582190D02*
X19267231Y-18582190D01*
X19267231Y-18582190D02*
X19281517Y-18575047D01*
X19352945Y-18639333D02*
X19352945Y-18539333D01*
X19352945Y-18489333D02*
X19345803Y-18496476D01*
X19345803Y-18496476D02*
X19352945Y-18503619D01*
X19352945Y-18503619D02*
X19360088Y-18496476D01*
X19360088Y-18496476D02*
X19352945Y-18489333D01*
X19352945Y-18489333D02*
X19352945Y-18503619D01*
X19445803Y-18639333D02*
X19431517Y-18632190D01*
X19431517Y-18632190D02*
X19424374Y-18617904D01*
X19424374Y-18617904D02*
X19424374Y-18489333D01*
X19502945Y-18582190D02*
X19617231Y-18582190D01*
X19688660Y-18639333D02*
X19688660Y-18489333D01*
X19688660Y-18546476D02*
X19702946Y-18539333D01*
X19702946Y-18539333D02*
X19731517Y-18539333D01*
X19731517Y-18539333D02*
X19745803Y-18546476D01*
X19745803Y-18546476D02*
X19752946Y-18553619D01*
X19752946Y-18553619D02*
X19760088Y-18567904D01*
X19760088Y-18567904D02*
X19760088Y-18610761D01*
X19760088Y-18610761D02*
X19752946Y-18625047D01*
X19752946Y-18625047D02*
X19745803Y-18632190D01*
X19745803Y-18632190D02*
X19731517Y-18639333D01*
X19731517Y-18639333D02*
X19702946Y-18639333D01*
X19702946Y-18639333D02*
X19688660Y-18632190D01*
X19845803Y-18639333D02*
X19831517Y-18632190D01*
X19831517Y-18632190D02*
X19824374Y-18625047D01*
X19824374Y-18625047D02*
X19817231Y-18610761D01*
X19817231Y-18610761D02*
X19817231Y-18567904D01*
X19817231Y-18567904D02*
X19824374Y-18553619D01*
X19824374Y-18553619D02*
X19831517Y-18546476D01*
X19831517Y-18546476D02*
X19845803Y-18539333D01*
X19845803Y-18539333D02*
X19867231Y-18539333D01*
X19867231Y-18539333D02*
X19881517Y-18546476D01*
X19881517Y-18546476D02*
X19888660Y-18553619D01*
X19888660Y-18553619D02*
X19895803Y-18567904D01*
X19895803Y-18567904D02*
X19895803Y-18610761D01*
X19895803Y-18610761D02*
X19888660Y-18625047D01*
X19888660Y-18625047D02*
X19881517Y-18632190D01*
X19881517Y-18632190D02*
X19867231Y-18639333D01*
X19867231Y-18639333D02*
X19845803Y-18639333D01*
X19945803Y-18639333D02*
X20024374Y-18539333D01*
X19945803Y-18539333D02*
X20024374Y-18639333D01*
X20081517Y-18625047D02*
X20088660Y-18632190D01*
X20088660Y-18632190D02*
X20081517Y-18639333D01*
X20081517Y-18639333D02*
X20074374Y-18632190D01*
X20074374Y-18632190D02*
X20081517Y-18625047D01*
X20081517Y-18625047D02*
X20081517Y-18639333D01*
X20152946Y-18639333D02*
X20152946Y-18489333D01*
X20167231Y-18582190D02*
X20210088Y-18639333D01*
X20210088Y-18539333D02*
X20152946Y-18596476D01*
X20274374Y-18639333D02*
X20274374Y-18539333D01*
X20274374Y-18489333D02*
X20267231Y-18496476D01*
X20267231Y-18496476D02*
X20274374Y-18503619D01*
X20274374Y-18503619D02*
X20281517Y-18496476D01*
X20281517Y-18496476D02*
X20274374Y-18489333D01*
X20274374Y-18489333D02*
X20274374Y-18503619D01*
X20410089Y-18632190D02*
X20395803Y-18639333D01*
X20395803Y-18639333D02*
X20367231Y-18639333D01*
X20367231Y-18639333D02*
X20352946Y-18632190D01*
X20352946Y-18632190D02*
X20345803Y-18625047D01*
X20345803Y-18625047D02*
X20338660Y-18610761D01*
X20338660Y-18610761D02*
X20338660Y-18567904D01*
X20338660Y-18567904D02*
X20345803Y-18553619D01*
X20345803Y-18553619D02*
X20352946Y-18546476D01*
X20352946Y-18546476D02*
X20367231Y-18539333D01*
X20367231Y-18539333D02*
X20395803Y-18539333D01*
X20395803Y-18539333D02*
X20410089Y-18546476D01*
X20538660Y-18639333D02*
X20538660Y-18560761D01*
X20538660Y-18560761D02*
X20531517Y-18546476D01*
X20531517Y-18546476D02*
X20517231Y-18539333D01*
X20517231Y-18539333D02*
X20488660Y-18539333D01*
X20488660Y-18539333D02*
X20474374Y-18546476D01*
X20538660Y-18632190D02*
X20524374Y-18639333D01*
X20524374Y-18639333D02*
X20488660Y-18639333D01*
X20488660Y-18639333D02*
X20474374Y-18632190D01*
X20474374Y-18632190D02*
X20467231Y-18617904D01*
X20467231Y-18617904D02*
X20467231Y-18603619D01*
X20467231Y-18603619D02*
X20474374Y-18589333D01*
X20474374Y-18589333D02*
X20488660Y-18582190D01*
X20488660Y-18582190D02*
X20524374Y-18582190D01*
X20524374Y-18582190D02*
X20538660Y-18575047D01*
X20674374Y-18639333D02*
X20674374Y-18489333D01*
X20674374Y-18632190D02*
X20660088Y-18639333D01*
X20660088Y-18639333D02*
X20631517Y-18639333D01*
X20631517Y-18639333D02*
X20617231Y-18632190D01*
X20617231Y-18632190D02*
X20610088Y-18625047D01*
X20610088Y-18625047D02*
X20602946Y-18610761D01*
X20602946Y-18610761D02*
X20602946Y-18567904D01*
X20602946Y-18567904D02*
X20610088Y-18553619D01*
X20610088Y-18553619D02*
X20617231Y-18546476D01*
X20617231Y-18546476D02*
X20631517Y-18539333D01*
X20631517Y-18539333D02*
X20660088Y-18539333D01*
X20660088Y-18539333D02*
X20674374Y-18546476D01*
X20710089Y-18653619D02*
X20824374Y-18653619D01*
X20860088Y-18539333D02*
X20860088Y-18689333D01*
X20860088Y-18546476D02*
X20874374Y-18539333D01*
X20874374Y-18539333D02*
X20902946Y-18539333D01*
X20902946Y-18539333D02*
X20917231Y-18546476D01*
X20917231Y-18546476D02*
X20924374Y-18553619D01*
X20924374Y-18553619D02*
X20931517Y-18567904D01*
X20931517Y-18567904D02*
X20931517Y-18610761D01*
X20931517Y-18610761D02*
X20924374Y-18625047D01*
X20924374Y-18625047D02*
X20917231Y-18632190D01*
X20917231Y-18632190D02*
X20902946Y-18639333D01*
X20902946Y-18639333D02*
X20874374Y-18639333D01*
X20874374Y-18639333D02*
X20860088Y-18632190D01*
X21060089Y-18632190D02*
X21045803Y-18639333D01*
X21045803Y-18639333D02*
X21017231Y-18639333D01*
X21017231Y-18639333D02*
X21002946Y-18632190D01*
X21002946Y-18632190D02*
X20995803Y-18625047D01*
X20995803Y-18625047D02*
X20988660Y-18610761D01*
X20988660Y-18610761D02*
X20988660Y-18567904D01*
X20988660Y-18567904D02*
X20995803Y-18553619D01*
X20995803Y-18553619D02*
X21002946Y-18546476D01*
X21002946Y-18546476D02*
X21017231Y-18539333D01*
X21017231Y-18539333D02*
X21045803Y-18539333D01*
X21045803Y-18539333D02*
X21060089Y-18546476D01*
X21124374Y-18639333D02*
X21124374Y-18489333D01*
X21124374Y-18546476D02*
X21138660Y-18539333D01*
X21138660Y-18539333D02*
X21167231Y-18539333D01*
X21167231Y-18539333D02*
X21181517Y-18546476D01*
X21181517Y-18546476D02*
X21188660Y-18553619D01*
X21188660Y-18553619D02*
X21195803Y-18567904D01*
X21195803Y-18567904D02*
X21195803Y-18610761D01*
X21195803Y-18610761D02*
X21188660Y-18625047D01*
X21188660Y-18625047D02*
X21181517Y-18632190D01*
X21181517Y-18632190D02*
X21167231Y-18639333D01*
X21167231Y-18639333D02*
X21138660Y-18639333D01*
X21138660Y-18639333D02*
X21124374Y-18632190D01*
D10*
D11*
X17700220Y-18150720D02*
X28500220Y-18150720D01*
D10*
D11*
X17838660Y-18362190D02*
X17860088Y-18369333D01*
X17860088Y-18369333D02*
X17895803Y-18369333D01*
X17895803Y-18369333D02*
X17910088Y-18362190D01*
X17910088Y-18362190D02*
X17917231Y-18355047D01*
X17917231Y-18355047D02*
X17924374Y-18340761D01*
X17924374Y-18340761D02*
X17924374Y-18326476D01*
X17924374Y-18326476D02*
X17917231Y-18312190D01*
X17917231Y-18312190D02*
X17910088Y-18305047D01*
X17910088Y-18305047D02*
X17895803Y-18297904D01*
X17895803Y-18297904D02*
X17867231Y-18290761D01*
X17867231Y-18290761D02*
X17852946Y-18283619D01*
X17852946Y-18283619D02*
X17845803Y-18276476D01*
X17845803Y-18276476D02*
X17838660Y-18262190D01*
X17838660Y-18262190D02*
X17838660Y-18247904D01*
X17838660Y-18247904D02*
X17845803Y-18233619D01*
X17845803Y-18233619D02*
X17852946Y-18226476D01*
X17852946Y-18226476D02*
X17867231Y-18219333D01*
X17867231Y-18219333D02*
X17902946Y-18219333D01*
X17902946Y-18219333D02*
X17924374Y-18226476D01*
X17988660Y-18369333D02*
X17988660Y-18219333D01*
X18052946Y-18369333D02*
X18052946Y-18290761D01*
X18052946Y-18290761D02*
X18045803Y-18276476D01*
X18045803Y-18276476D02*
X18031517Y-18269333D01*
X18031517Y-18269333D02*
X18010088Y-18269333D01*
X18010088Y-18269333D02*
X17995803Y-18276476D01*
X17995803Y-18276476D02*
X17988660Y-18283619D01*
X18181517Y-18362190D02*
X18167231Y-18369333D01*
X18167231Y-18369333D02*
X18138660Y-18369333D01*
X18138660Y-18369333D02*
X18124374Y-18362190D01*
X18124374Y-18362190D02*
X18117231Y-18347904D01*
X18117231Y-18347904D02*
X18117231Y-18290761D01*
X18117231Y-18290761D02*
X18124374Y-18276476D01*
X18124374Y-18276476D02*
X18138660Y-18269333D01*
X18138660Y-18269333D02*
X18167231Y-18269333D01*
X18167231Y-18269333D02*
X18181517Y-18276476D01*
X18181517Y-18276476D02*
X18188660Y-18290761D01*
X18188660Y-18290761D02*
X18188660Y-18305047D01*
X18188660Y-18305047D02*
X18117231Y-18319333D01*
X18310088Y-18362190D02*
X18295803Y-18369333D01*
X18295803Y-18369333D02*
X18267231Y-18369333D01*
X18267231Y-18369333D02*
X18252945Y-18362190D01*
X18252945Y-18362190D02*
X18245803Y-18347904D01*
X18245803Y-18347904D02*
X18245803Y-18290761D01*
X18245803Y-18290761D02*
X18252945Y-18276476D01*
X18252945Y-18276476D02*
X18267231Y-18269333D01*
X18267231Y-18269333D02*
X18295803Y-18269333D01*
X18295803Y-18269333D02*
X18310088Y-18276476D01*
X18310088Y-18276476D02*
X18317231Y-18290761D01*
X18317231Y-18290761D02*
X18317231Y-18305047D01*
X18317231Y-18305047D02*
X18245803Y-18319333D01*
X18360088Y-18269333D02*
X18417231Y-18269333D01*
X18381517Y-18219333D02*
X18381517Y-18347904D01*
X18381517Y-18347904D02*
X18388660Y-18362190D01*
X18388660Y-18362190D02*
X18402945Y-18369333D01*
X18402945Y-18369333D02*
X18417231Y-18369333D01*
X18467231Y-18355047D02*
X18474374Y-18362190D01*
X18474374Y-18362190D02*
X18467231Y-18369333D01*
X18467231Y-18369333D02*
X18460088Y-18362190D01*
X18460088Y-18362190D02*
X18467231Y-18355047D01*
X18467231Y-18355047D02*
X18467231Y-18369333D01*
X18467231Y-18276476D02*
X18474374Y-18283619D01*
X18474374Y-18283619D02*
X18467231Y-18290761D01*
X18467231Y-18290761D02*
X18460088Y-18283619D01*
X18460088Y-18283619D02*
X18467231Y-18276476D01*
X18467231Y-18276476D02*
X18467231Y-18290761D01*
D10*
D11*
X19700220Y-19150720D02*
X19700220Y-19450720D01*
D10*
D11*
X26100220Y-19150720D02*
X26100220Y-19800720D01*
D12*
X21611900Y-10944400D02*
G75*
G02*
X21581900Y-10944400I-15000J0D01*
G01*
X21581900Y-10944400D02*
G75*
G02*
X21611900Y-10944400I15000J0D01*
G01*
X21900550Y-10816450D02*
G75*
G02*
X21870550Y-10816450I-15000J0D01*
G01*
X21870550Y-10816450D02*
G75*
G02*
X21900550Y-10816450I15000J0D01*
G01*
X21611450Y-10692350D02*
G75*
G02*
X21581450Y-10692350I-15000J0D01*
G01*
X21581450Y-10692350D02*
G75*
G02*
X21611450Y-10692350I15000J0D01*
G01*
X21901000Y-11068500D02*
G75*
G02*
X21871000Y-11068500I-15000J0D01*
G01*
X21871000Y-11068500D02*
G75*
G02*
X21901000Y-11068500I15000J0D01*
G01*
D14*
%TO.C,SW802*%
X11270000Y-10740000D03*
X11270000Y-10090000D03*
X11720000Y-10740000D03*
X11720000Y-10090000D03*
%TD*%
D15*
%TO.C,J104*%
X16250000Y-9130000D03*
D16*
X16250000Y-9384000D03*
X15996000Y-9130000D03*
X15996000Y-9384000D03*
X15742000Y-9130000D03*
X15742000Y-9384000D03*
X15488000Y-9130000D03*
X15488000Y-9384000D03*
X15234000Y-9130000D03*
X15234000Y-9384000D03*
X14980000Y-9130000D03*
X14980000Y-9384000D03*
X14726000Y-9130000D03*
X14726000Y-9384000D03*
X14472000Y-9130000D03*
X14472000Y-9384000D03*
X14218000Y-9130000D03*
X14218000Y-9384000D03*
X13964000Y-9130000D03*
X13964000Y-9384000D03*
%TD*%
D15*
%TO.C,J801*%
X11000000Y-9140000D03*
D16*
X11254000Y-9140000D03*
X11508000Y-9140000D03*
X11762000Y-9140000D03*
X12016000Y-9140000D03*
X12270000Y-9140000D03*
X12524000Y-9140000D03*
X12778000Y-9140000D03*
%TD*%
D15*
%TO.C,J601*%
X13587500Y-12917500D03*
D16*
X13333500Y-12917500D03*
X13587500Y-12663500D03*
X13333500Y-12663500D03*
%TD*%
D17*
%TO.C,RV801*%
X9910000Y-13820000D03*
D18*
X10410000Y-13820000D03*
X10910000Y-13820000D03*
%TD*%
D16*
%TO.C,J605*%
X14350000Y-13640000D03*
X14350000Y-12940000D03*
%TD*%
D14*
%TO.C,SW803*%
X12150000Y-10730000D03*
X12150000Y-10080000D03*
X12600000Y-10730000D03*
X12600000Y-10080000D03*
%TD*%
D15*
%TO.C,CN205*%
X9302599Y-7589750D03*
D16*
X9302599Y-7335750D03*
X9556599Y-7589750D03*
X9556599Y-7335750D03*
X9810599Y-7589750D03*
X9810599Y-7335750D03*
X10064599Y-7589750D03*
X10064599Y-7335750D03*
X10318599Y-7589750D03*
X10318599Y-7335750D03*
X10572599Y-7589750D03*
X10572599Y-7335750D03*
X10826599Y-7589750D03*
X10826599Y-7335750D03*
X11080599Y-7589750D03*
X11080599Y-7335750D03*
X11334599Y-7589750D03*
X11334599Y-7335750D03*
X11588599Y-7589750D03*
X11588599Y-7335750D03*
X11842599Y-7589750D03*
X11842599Y-7335750D03*
X12096599Y-7589750D03*
X12096599Y-7335750D03*
X12350599Y-7589750D03*
X12350599Y-7335750D03*
X12604599Y-7589750D03*
X12604599Y-7335750D03*
X12858599Y-7589750D03*
X12858599Y-7335750D03*
X13112599Y-7589750D03*
X13112599Y-7335750D03*
X13366599Y-7589750D03*
X13366599Y-7335750D03*
%TD*%
D15*
%TO.C,MK601*%
X13035000Y-13792500D03*
D16*
X13035000Y-13538500D03*
%TD*%
D15*
%TO.C,CN201*%
X15400000Y-5190000D03*
D16*
X15654000Y-5190000D03*
X15400000Y-4936000D03*
X15654000Y-4936000D03*
X15400000Y-4682000D03*
X15654000Y-4682000D03*
X15400000Y-4428000D03*
X15654000Y-4428000D03*
X15400000Y-4174000D03*
X15654000Y-4174000D03*
X15400000Y-3920000D03*
X15654000Y-3920000D03*
X15400000Y-3666000D03*
X15654000Y-3666000D03*
X15400000Y-3412000D03*
X15654000Y-3412000D03*
%TD*%
D17*
%TO.C,RV802*%
X8040000Y-13820000D03*
D18*
X8540000Y-13820000D03*
X9040000Y-13820000D03*
%TD*%
D15*
%TO.C,J102*%
X17401000Y-2810000D03*
D16*
X17147000Y-2810000D03*
X17401000Y-2556000D03*
X17147000Y-2556000D03*
X17401000Y-2302000D03*
X17147000Y-2302000D03*
%TD*%
D19*
%TO.C,J701*%
X11708000Y-13560000D03*
X11708000Y-13940000D03*
X12572000Y-13560000D03*
X12572000Y-13940000D03*
%TD*%
D15*
%TO.C,J802*%
X10156000Y-12935000D03*
D16*
X10156000Y-12681000D03*
X10410000Y-12935000D03*
X10410000Y-12681000D03*
X10664000Y-12935000D03*
X10664000Y-12681000D03*
%TD*%
D15*
%TO.C,J103*%
X8132000Y-9394000D03*
D16*
X8132000Y-9140000D03*
X8386000Y-9394000D03*
X8386000Y-9140000D03*
X8640000Y-9394000D03*
X8640000Y-9140000D03*
X8894000Y-9394000D03*
X8894000Y-9140000D03*
X9148000Y-9394000D03*
X9148000Y-9140000D03*
X9402000Y-9394000D03*
X9402000Y-9140000D03*
X9656000Y-9394000D03*
X9656000Y-9140000D03*
X9910000Y-9394000D03*
X9910000Y-9140000D03*
%TD*%
D14*
%TO.C,SW804*%
X13020000Y-10730000D03*
X13020000Y-10080000D03*
X13470000Y-10730000D03*
X13470000Y-10080000D03*
%TD*%
D15*
%TO.C,J105*%
X18413000Y-3058000D03*
D16*
X18413000Y-3312000D03*
X18413000Y-3566000D03*
X18413000Y-3820000D03*
X18413000Y-4074000D03*
X18413000Y-4328000D03*
X18413000Y-4582000D03*
X18413000Y-4836000D03*
%TD*%
D20*
%TO.C,U701*%
X12490000Y-12669750D03*
D21*
X12236000Y-12669750D03*
X11982000Y-12669750D03*
%TD*%
D22*
%TO.C,J603*%
X16370500Y-13356750D03*
D23*
X16720500Y-13356750D03*
X17070500Y-13356750D03*
X17420500Y-13356750D03*
%TD*%
D14*
%TO.C,SW801*%
X10410000Y-10730000D03*
X10410000Y-10080000D03*
X10860000Y-10730000D03*
X10860000Y-10080000D03*
%TD*%
D15*
%TO.C,CN203*%
X9810599Y-3017750D03*
D16*
X9810599Y-2763750D03*
X10064599Y-3017750D03*
X10064599Y-2763750D03*
X10318599Y-3017750D03*
X10318599Y-2763750D03*
X10572599Y-3017750D03*
X10572599Y-2763750D03*
X10826599Y-3017750D03*
X10826599Y-2763750D03*
X11080599Y-3017750D03*
X11080599Y-2763750D03*
X11334599Y-3017750D03*
X11334599Y-2763750D03*
X11588599Y-3017750D03*
X11588599Y-2763750D03*
X11842599Y-3017750D03*
X11842599Y-2763750D03*
X12096599Y-3017750D03*
X12096599Y-2763750D03*
X12350599Y-3017750D03*
X12350599Y-2763750D03*
X12604599Y-3017750D03*
X12604599Y-2763750D03*
X12858599Y-3017750D03*
X12858599Y-2763750D03*
X13112599Y-3017750D03*
X13112599Y-2763750D03*
X13366599Y-3017750D03*
X13366599Y-2763750D03*
%TD*%
D15*
%TO.C,J301*%
X9085000Y-12018388D03*
D16*
X8831000Y-12018388D03*
X9085000Y-11764388D03*
X8831000Y-11764388D03*
X9085000Y-11510388D03*
X8831000Y-11510388D03*
X9085000Y-11256388D03*
X8831000Y-11256388D03*
X9085000Y-11002388D03*
X8831000Y-11002388D03*
X9085000Y-10748388D03*
X8831000Y-10748388D03*
%TD*%
%TO.C,J602*%
X15490000Y-13640000D03*
X15490000Y-12940000D03*
%TD*%
D15*
%TO.C,J303*%
X5446000Y-11490000D03*
D16*
X5192000Y-11490000D03*
X4938000Y-11490000D03*
X4684000Y-11490000D03*
X4430000Y-11490000D03*
X4176000Y-11490000D03*
%TD*%
D15*
%TO.C,CN202*%
X7524599Y-3017750D03*
D16*
X7524599Y-2763750D03*
X7778599Y-3017750D03*
X7778599Y-2763750D03*
X8032599Y-3017750D03*
X8032599Y-2763750D03*
X8286599Y-3017750D03*
X8286599Y-2763750D03*
X8540599Y-3017750D03*
X8540599Y-2763750D03*
X8794599Y-3017750D03*
X8794599Y-2763750D03*
X9048599Y-3017750D03*
X9048599Y-2763750D03*
X9302599Y-3017750D03*
X9302599Y-2763750D03*
%TD*%
D24*
%TO.C,J501*%
X21690000Y-5204000D03*
D25*
X21817000Y-5204000D03*
%TD*%
D15*
%TO.C,CN204*%
X6610199Y-7589750D03*
D16*
X6610199Y-7335750D03*
X6864199Y-7589750D03*
X6864199Y-7335750D03*
X7118199Y-7589750D03*
X7118199Y-7335750D03*
X7372199Y-7589750D03*
X7372199Y-7335750D03*
X7626199Y-7589750D03*
X7626199Y-7335750D03*
X7880199Y-7589750D03*
X7880199Y-7335750D03*
X8134199Y-7589750D03*
X8134199Y-7335750D03*
X8388199Y-7589750D03*
X8388199Y-7335750D03*
X8642199Y-7589750D03*
X8642199Y-7335750D03*
X8896199Y-7589750D03*
X8896199Y-7335750D03*
%TD*%
D15*
%TO.C,J803*%
X8286000Y-12935000D03*
D16*
X8286000Y-12681000D03*
X8540000Y-12935000D03*
X8540000Y-12681000D03*
X8794000Y-12935000D03*
X8794000Y-12681000D03*
%TD*%
D15*
%TO.C,J604*%
X14590000Y-12040000D03*
D16*
X14590000Y-11786000D03*
X14590000Y-11532000D03*
%TD*%
D15*
%TO.C,J106*%
X17147000Y-3318000D03*
D16*
X17401000Y-3318000D03*
X17147000Y-3572000D03*
X17401000Y-3572000D03*
X17147000Y-3826000D03*
X17401000Y-3826000D03*
X17147000Y-4080000D03*
X17401000Y-4080000D03*
X17147000Y-4334000D03*
X17401000Y-4334000D03*
X17147000Y-4588000D03*
X17401000Y-4588000D03*
X17147000Y-4842000D03*
X17401000Y-4842000D03*
X17147000Y-5096000D03*
X17401000Y-5096000D03*
X17147000Y-5350000D03*
X17401000Y-5350000D03*
X17147000Y-5604000D03*
X17401000Y-5604000D03*
%TD*%
D26*
%TO.C,A101*%
X19340000Y-3058000D03*
D27*
X19340000Y-3312000D03*
X19340000Y-3566000D03*
X19340000Y-3820000D03*
X19340000Y-4074000D03*
X19340000Y-4328000D03*
X19340000Y-4582000D03*
X19340000Y-4836000D03*
X19340000Y-5344000D03*
X19340000Y-5598000D03*
X19340000Y-5852000D03*
X19340000Y-6106000D03*
X19340000Y-6360000D03*
X19340000Y-6614000D03*
X24166000Y-6614000D03*
X24166000Y-6360000D03*
X24166000Y-6106000D03*
X24166000Y-5852000D03*
X24166000Y-5598000D03*
X24166000Y-5344000D03*
X24166000Y-5090000D03*
X24166000Y-4836000D03*
X24166000Y-4430000D03*
X24166000Y-4176000D03*
X24166000Y-3922000D03*
X24166000Y-3668000D03*
X24166000Y-3414000D03*
X24166000Y-3160000D03*
X24166000Y-2906000D03*
X24166000Y-2652000D03*
X24166000Y-2398000D03*
X24166000Y-2144000D03*
%TD*%
D28*
X15665000Y-7740000D03*
D29*
X18030000Y-3873000D03*
X18030000Y-4740000D03*
X18030000Y-3762000D03*
X18030000Y-11245000D03*
D28*
X24000000Y-12500000D03*
D29*
X18030000Y-4128000D03*
X18030000Y-4668000D03*
D28*
X17500000Y-12500000D03*
X6500000Y-12500000D03*
D29*
X18030000Y-6460000D03*
X18030000Y-3185000D03*
X18030000Y-3511000D03*
X18030000Y-3945000D03*
D28*
X3805000Y-7740000D03*
D29*
X18030000Y-3113000D03*
X18030000Y-3367000D03*
D28*
X21000000Y-2580000D03*
D29*
X18030000Y-3618000D03*
D28*
X21741000Y-11414400D03*
D29*
X18030000Y-3257000D03*
X18030000Y-4017000D03*
X18030000Y-4200000D03*
X18030000Y-3690000D03*
X18030000Y-4410000D03*
X18030000Y-4272000D03*
X18030000Y-12835000D03*
X18030000Y-8050000D03*
D28*
X18500000Y-12500000D03*
D29*
X18030000Y-9645000D03*
X18030000Y-4482000D03*
X18030000Y-3440000D03*
D28*
X3805000Y-2580000D03*
X15670000Y-2580000D03*
D29*
X21623400Y-5089953D03*
X8410000Y-3130000D03*
X3435000Y-1815000D03*
X11299375Y-11360000D03*
X17695000Y-12245000D03*
X21300147Y-4818500D03*
X18275000Y-4980000D03*
X21400000Y-4002600D03*
X18260000Y-2910000D03*
X8720000Y-10875000D03*
X9760625Y-11610000D03*
X16218000Y-12797000D03*
X11589375Y-11120000D03*
X18230000Y-6460000D03*
X24225000Y-4630000D03*
X15415625Y-10820000D03*
X11700000Y-13274375D03*
X9515000Y-9670000D03*
X22005000Y-4325000D03*
X9760625Y-11360000D03*
X21886000Y-11068500D03*
X24235000Y-7425000D03*
X21742600Y-8142600D03*
X22215000Y-5290000D03*
X11410000Y-14125000D03*
X16105625Y-12040000D03*
X7230000Y-3280000D03*
X11490000Y-11605000D03*
X7390000Y-3135000D03*
X13329375Y-11110000D03*
X3435000Y-8685000D03*
X21741000Y-7768500D03*
X10719375Y-11110000D03*
X22445000Y-4345000D03*
X8760000Y-10590000D03*
X16324375Y-10120000D03*
X14012000Y-13013000D03*
X10315000Y-3195000D03*
X16581000Y-12871000D03*
X17620000Y-14115000D03*
X19295000Y-5055000D03*
X20917658Y-5344207D03*
X7600000Y-3225000D03*
X15035000Y-14130000D03*
X21595300Y-8017600D03*
X7570000Y-14120000D03*
X12459375Y-11110000D03*
X14035625Y-11530000D03*
X4080000Y-13957875D03*
X21243500Y-5500000D03*
X21950000Y-6265000D03*
X21889000Y-10815000D03*
X5440000Y-9217000D03*
X8085000Y-3360000D03*
X16984375Y-12480000D03*
X3440000Y-8980000D03*
X18565000Y-4985000D03*
X17245000Y-13160000D03*
X15477250Y-9870125D03*
X21865000Y-4355000D03*
X21738000Y-7440000D03*
X20920000Y-5588750D03*
X17685000Y-1810000D03*
X21879486Y-5068663D03*
X12140000Y-12885625D03*
X24245000Y-1795000D03*
X12950000Y-14125000D03*
X3650000Y-10300000D03*
X18275000Y-1810000D03*
X5060000Y-11619000D03*
X8850000Y-9604200D03*
X21420000Y-5310000D03*
X13915625Y-11990000D03*
X21738000Y-7351000D03*
X4137000Y-13443000D03*
X15201000Y-11211000D03*
X21596450Y-10692600D03*
X16050000Y-11234375D03*
X17444375Y-12043825D03*
X21755000Y-5612500D03*
X17246000Y-13474000D03*
X5400000Y-9355625D03*
X22595000Y-4625000D03*
X9475000Y-14105000D03*
X6044375Y-13319500D03*
X3465000Y-9760000D03*
X3780000Y-8835000D03*
X21873510Y-7767600D03*
X10295000Y-9585000D03*
X10570000Y-3195000D03*
X15285625Y-12130000D03*
X21169629Y-4759018D03*
X9535000Y-9945000D03*
X21530000Y-6490000D03*
X22611000Y-5680000D03*
X13535000Y-14120000D03*
X4078000Y-8840000D03*
X16052000Y-13240000D03*
X24240000Y-1975000D03*
X21740000Y-6445000D03*
X21596900Y-10944400D03*
X10660000Y-9680000D03*
X22495573Y-5186927D03*
X14670000Y-14130000D03*
X12494375Y-11900000D03*
X12055000Y-11215000D03*
X15677000Y-12132000D03*
X16371000Y-13084000D03*
X17695000Y-12765000D03*
X18240000Y-4725000D03*
X4095000Y-14120000D03*
X10300000Y-10550000D03*
X21681000Y-6077500D03*
X24245000Y-6765000D03*
X22575000Y-4030000D03*
X16810000Y-12955625D03*
X21595990Y-7767600D03*
X10275000Y-11145000D03*
X21885800Y-7892600D03*
X21550000Y-6250000D03*
X9075000Y-9605000D03*
X21855000Y-3990000D03*
X8625000Y-11175000D03*
X18275000Y-7415000D03*
X12874375Y-13200000D03*
X21190000Y-5350000D03*
X16635625Y-12487500D03*
X16750000Y-12213000D03*
X11990000Y-13380000D03*
X11000000Y-11251250D03*
X12459375Y-10960000D03*
X10905000Y-11360000D03*
X11988127Y-13288243D03*
X12290000Y-13280000D03*
X9560000Y-10075625D03*
X16950539Y-12252172D03*
X12290000Y-13380000D03*
X9930000Y-10075625D03*
X10719375Y-10960000D03*
X16810000Y-12776250D03*
X11589375Y-10970000D03*
X13329375Y-10960000D03*
X11298125Y-11870000D03*
X15380000Y-11200000D03*
X11299375Y-11610000D03*
X11250000Y-12770000D03*
X11317000Y-12705000D03*
X11299375Y-12120000D03*
X7585625Y-3470000D03*
X5190000Y-9355625D03*
X6740000Y-8035625D03*
X15315614Y-10101761D03*
X21429250Y-4467500D03*
X8054375Y-3470000D03*
X16310000Y-10960000D03*
X8800000Y-3614375D03*
X9760625Y-11990000D03*
X16330000Y-10340000D03*
X4594375Y-14020000D03*
X13340000Y-12110000D03*
X5190000Y-8715625D03*
X11250000Y-12705000D03*
X11315000Y-12770000D03*
X21261000Y-4642500D03*
X22523500Y-4715000D03*
X16086000Y-8926000D03*
X21420700Y-3847500D03*
X21255000Y-3760000D03*
X21660900Y-3810320D03*
X7940000Y-3650000D03*
X7862545Y-3680200D03*
X8635000Y-12268688D03*
X9459375Y-12120000D03*
X8630986Y-12152900D03*
X8945620Y-10040000D03*
X21320679Y-3579800D03*
X14088891Y-6751109D03*
X8480000Y-8350000D03*
X14100000Y-8500000D03*
X12510000Y-11723750D03*
X16040000Y-9930000D03*
X8006695Y-7969932D03*
X9940000Y-8090000D03*
X9860000Y-8090000D03*
X8010000Y-7890000D03*
X15830000Y-9910000D03*
X15698281Y-9706719D03*
X16148536Y-10419540D03*
X10155000Y-11360000D03*
X10155000Y-11995000D03*
X21598916Y-3864298D03*
X21309978Y-3701884D03*
X21540800Y-3809320D03*
X14180000Y-11690000D03*
X14711906Y-11590000D03*
X16840206Y-10692681D03*
X16019819Y-10637706D03*
X16780000Y-10640000D03*
X16072500Y-10577500D03*
X16652500Y-10632500D03*
X16020000Y-10510000D03*
X21911448Y-4995325D03*
X21435347Y-4971000D03*
X21748500Y-5090000D03*
X21181000Y-5240000D03*
X16712500Y-10692500D03*
X16080000Y-10450000D03*
X22018379Y-4708363D03*
X21316000Y-5890000D03*
X22256625Y-5706392D03*
X22013500Y-4608500D03*
X22072500Y-6660000D03*
X21742500Y-6702500D03*
X21243500Y-5620000D03*
X22113427Y-5370256D03*
X21818500Y-6077500D03*
X21960912Y-5757600D03*
X21433810Y-5703413D03*
X22053427Y-4855074D03*
X10905000Y-12120000D03*
X10905000Y-11870000D03*
X10905000Y-11615000D03*
X10155000Y-11615000D03*
X7085568Y-3440000D03*
D30*
X17880000Y-13060000D02*
G75*
G02*
X18180000Y-13060000I150000J0D01*
G01*
X18180000Y-2860000D02*
X18180000Y-1710000D01*
X17880000Y-9870000D02*
G75*
G02*
X18180000Y-9870000I150000J0D01*
G01*
X3330000Y-1710000D02*
X17880000Y-1710000D01*
X17880000Y-8275000D02*
G75*
G02*
X18180000Y-8275000I150000J0D01*
G01*
X18180000Y-2860000D02*
G75*
G02*
X17880000Y-2860000I-150000J0D01*
G01*
X17880000Y-7830000D02*
X17880000Y-6680000D01*
X18180000Y-14210000D02*
X24330000Y-14210000D01*
X18180000Y-9425000D02*
G75*
G02*
X17880000Y-9425000I-150000J0D01*
G01*
X18180000Y-6235000D02*
G75*
G02*
X17880000Y-6235000I-150000J0D01*
G01*
X17880000Y-9425000D02*
X17880000Y-8275000D01*
X17880000Y-6235000D02*
X17880000Y-5085000D01*
X17880000Y-2860000D02*
X17880000Y-1710000D01*
X18180000Y-12615000D02*
X18180000Y-11465000D01*
X17880000Y-11465000D02*
G75*
G02*
X18180000Y-11465000I150000J0D01*
G01*
X17880000Y-6680000D02*
G75*
G02*
X18180000Y-6680000I150000J0D01*
G01*
X18180000Y-6235000D02*
X18180000Y-5085000D01*
X17880000Y-11020000D02*
X17880000Y-9870000D01*
X18180000Y-13060000D02*
X18180000Y-14210000D01*
X18180000Y-7830000D02*
G75*
G02*
X17880000Y-7830000I-150000J0D01*
G01*
X18180000Y-9425000D02*
X18180000Y-8275000D01*
X3330000Y-14210000D02*
X3330000Y-1710000D01*
X17880000Y-5085000D02*
G75*
G02*
X18180000Y-5085000I150000J0D01*
G01*
X17880000Y-12615000D02*
X17880000Y-11465000D01*
X3330000Y-14210000D02*
X17880000Y-14210000D01*
X24330000Y-14210000D02*
X24330000Y-1710000D01*
X18180000Y-11020000D02*
X18180000Y-9870000D01*
X17880000Y-13060000D02*
X17880000Y-14210000D01*
X18180000Y-11020000D02*
G75*
G02*
X17880000Y-11020000I-150000J0D01*
G01*
X18180000Y-7830000D02*
X18180000Y-6680000D01*
X18180000Y-1710000D02*
X24330000Y-1710000D01*
X18180000Y-12615000D02*
G75*
G02*
X17880000Y-12615000I-150000J0D01*
G01*
M02*
